<?xml version="1.0" encoding="UTF-8"?>
<svg width="100mm" height="100mm" version="1.1" viewBox="0 0 2050 2050" xmlns="http://www.w3.org/2000/svg" xmlns:xlink="http://www.w3.org/1999/xlink"><g fill="none" stroke="#000" stroke-width="6"><circle cx="207.53" cy="237.16" r="172"/><circle cx="1207.1" cy="236.13" r="172"/><circle cx="858.09" cy="542.17" r="172"/><circle cx="1787.6" cy="529.07" r="172"/><circle cx="214.39" cy="770.68" r="172"/><circle cx="712.23" cy="1187.5" r="172"/><circle cx="1358" cy="1012.3" r="172"/><circle cx="1840.6" cy="1063" r="172"/><circle cx="213.78" cy="1632.1" r="172"/><circle cx="792.77" cy="1815.7" r="172"/><circle cx="1288.2" cy="1597.5" r="172"/><circle cx="1807.6" cy="1794.2" r="172"/></g><g id="a"><path d="m522.04 269.84c-4.8-19.499 0.61-35.24 17.291-46.799 6.339 5.49 0.92 11.88 1.38 17.82-4.98 10.79-4.61 20.789 4.41 29.519 0.48 2.801-0.31 5.161-2.43 7.06-1.291 0.76-2.55 0.721-3.78-0.139-3.97-0.87-7.95-1.731-11.93-2.601-1.6-1.67-3.16-3.38-4.94-4.86" fill="#7f8184"/><path d="m536.88 240.64c-3.661-6.48 1.429-11.77 2.459-17.61 0.791-0.07 1.6-0.14 2.4-0.21 2.07 0.16 3.66 1.25 5.16 2.57 1.5 1.07 3 2.12 4.52 3.18 2.09 1.03 3.55 3.05 5.8 3.82 0.64 0.11 1.18 0.37 1.64 0.84 6.09 6.16 8.27 14.23 10.76 22.14 0.06 1.389 0.13 2.789 0.18 4.18-0.84 2.36-1.9 4.62-3.22 6.769-2.09 2.961-4.8 4.051-8.3 2.75-2.72-1.75-4.07-4.449-5.17-7.339 0.06-5.651 1.02-11.82-7.34-12.63-3.31-2.44-6.91-4.6-8.89-8.46" fill="#545456"/><path d="m541.88 277.06 0.13-6.55c1.5-3.98 4.639-4.36 8.209-3.8 5.52 2.79 6.86 7.2 2.84 11.69-5.59 6.221-4.549 11.35 0.91 16.59 2.34 0.11 4.7 0.22 7.06 0.34 1.89 1.15 1.85 2.63 0.71 4.29-6.34 3.44-13.12 1.89-19.78 1.71-4.11-4.3-2.579-9.32-1.79-14.25 0.14-1.55 0.27-3.08 0.39-4.62 0.61-1.77 1.32-3.5 1.32-5.4" fill="#545456"/><path d="m553.96 294.99c-8.35-2.64-7.64-8.96-5.48-15.101 1.18-3.36 3.01-6.45 3.14-10.13-0.49-4.76 2.12-4.16 5.08-2.94 3.14-0.72 6.29-1.43 9.43-2.15 1.02-0.8 1.99-0.73 2.89 0.2-1.77 5.88-4.33 11.57-10.28 13.88-9.15 3.551-8.16 9.371-4.78 16.241" fill="#8a8c8f"/><path d="m569.62 255.37c-6.02-6.2-7.38-14.66-10.77-22.14 7.929 5.27 11.14 12.84 10.77 22.14" fill="#7f8184"/><path d="m540.17 287.08c2.77 4.48 0.77 9.56 1.78 14.26-9.4-3.65-2.67-9.32-1.78-14.26" fill="#8a8c8f"/><path d="m541.88 277.06c1.429 2.26 1.399 4.15-1.321 5.4-0.549-1.72-1.089-3.45-1.64-5.16" fill="#8a8c8f"/><path d="m522.04 269.84c2.721 0.531 4.411 2.1 4.94 4.86-2.48-0.769-4.149-2.36-4.94-4.86" fill="#c2c4c6"/><path d="m569.02 264.88-2.89-0.21c1.22-1.7 2.45-3.41 3.669-5.12 1 1.97 0.221 3.66-0.779 5.33" fill="#7f8184"/><path d="m561.73 299.62c-0.24-1.431-0.47-2.861-0.701-4.291 1.87-0.51 3.981-0.72 4.38 1.661 0.441 2.639-1.85 2.56-3.679 2.63" fill="#8a8c8f"/><path d="m557.22 232.4c-2.75-0.051-4.72-1.271-5.81-3.831 2.67 0.16 4.54 1.54 5.81 3.831" fill="#7f8184"/><path d="m546.9 225.4c-1.72-0.871-3.439-1.711-5.159-2.57 2.799-1.301 4.429-0.28 5.159 2.57" fill="#7f8184"/><path d="m556.71 266.81c-2.29-0.02-3.92 1.051-5.09 2.94-3.2 0.25-6.4 0.5-9.61 0.76-15.88-3.92-17.63-14.08-5.13-29.87 4 0.73 8.02 1.46 12.04 2.19 8.2 3.72 4.23 12.16 6.98 17.99 1.75 1.801 2.09 3.78 0.81 5.99" fill="#e4e5e6"/><path d="m555.9 260.83c-2.82-0.77-9.09 1.61-5.71-5.169 2.451-4.93-1.21-8.56-1.27-12.83 11.14 2.58 9.64 10.07 6.98 17.999" fill="#787a7c"/></g><use x="50.229462" y="368.34567" xlink:href="#a"/><use x="28.190561" y="464.63068" xlink:href="#a"/><use x="-49.708138" y="541.9754" xlink:href="#a"/><use x="-42.27924" y="419.505" xlink:href="#a"/><use x="-134.22964" y="504.70352" xlink:href="#a"/><use x="137.55997" y="409.28568" xlink:href="#a"/><use x="-132.76834" y="379.72568" xlink:href="#a"/><use x="15.274761" y="574.76318" xlink:href="#a"/><use x="95.354164" y="583.15283" xlink:href="#a"/><use x="17.875261" y="682.62311" xlink:href="#a"/><use x="640.84296" y="422.03809" xlink:href="#a"/><use x="618.80518" y="518.32159" xlink:href="#a"/><use x="540.91089" y="595.66919" xlink:href="#a"/><use x="548.33295" y="473.20023" xlink:href="#a"/><use x="456.38431" y="558.39569" xlink:href="#a"/><use x="728.17285" y="462.97568" xlink:href="#a"/><use x="457.84085" y="433.41568" xlink:href="#a"/><use x="605.888" y="628.45691" xlink:href="#a"/><use x="567.39288" y="725.69781" xlink:href="#a"/><use x="489.19287" y="771.93506" xlink:href="#a"/><use x="449.79288" y="665.12311" xlink:href="#a"/><use x="57.67886" y="1186.2855" xlink:href="#a"/><use x="-26.84594" y="1149.0103" xlink:href="#a"/><use x="122.66076" y="1219.0704" xlink:href="#a"/><use x="202.73682" y="1227.4647" xlink:href="#a"/><use x="84.161263" y="1316.3123" xlink:href="#a"/><use x="5.9707608" y="1362.5472" xlink:href="#a"/><use x="-33.439541" y="1255.7433" xlink:href="#a"/><use x="389.91476" y="769.02393" xlink:href="#a"/><use x="1201.3208" y="1025.2091" xlink:href="#a"/><use x="1116.7972" y="987.93909" xlink:href="#a"/><use x="1266.2997" y="1057.9952" xlink:href="#a"/><use x="1227.8029" y="1155.2383" xlink:href="#a"/><use x="1149.6022" y="1201.4717" xlink:href="#a"/><use x="1110.2021" y="1094.6672" xlink:href="#a"/><use x="1034.8708" y="488.28281" xlink:href="#a"/><use x="950.34949" y="451.01169" xlink:href="#a"/><use x="1099.8508" y="521.07092" xlink:href="#a"/><use x="1101.4299" y="632.90308" xlink:href="#a"/><use x="943.75946" y="557.74353" xlink:href="#a"/><use x="-162.46094" y="842.65649" xlink:href="#a"/><use x="-246.98154" y="805.38544" xlink:href="#a"/><use x="-97.478241" y="875.44458" xlink:href="#a"/><use x="-135.97464" y="972.68341" xlink:href="#a"/><use x="-214.16974" y="1018.9191" xlink:href="#a"/><use x="-253.57845" y="912.11407" xlink:href="#a"/><use x="-313.44934" y="1016.0058" xlink:href="#a"/><use x="659.02856" y="917.82599" xlink:href="#a"/><use x="574.50513" y="880.54779" xlink:href="#a"/><use x="777.70227" y="1004.2997" xlink:href="#a"/><use x="846.59082" y="1047.8535" xlink:href="#a"/><use x="607.31665" y="1094.0879" xlink:href="#a"/><use x="567.91516" y="987.2796" xlink:href="#a"/><use x="508.04291" y="1091.179" xlink:href="#a"/><use x="450.17813" y="982.82599" xlink:href="#a"/><use x="922.67017" y="1133.1655" xlink:href="#a"/><use x="965.62" y="1235.179" xlink:href="#a"/><use x="-194.12164" y="714.36603" xlink:href="#a"/><use x="84.523994" y="37.272808" xlink:href="#a"/><use x="149.50398" y="70.059616" xlink:href="#a"/><use x="111.01007" y="167.29951" xlink:href="#a"/><use x="-6.589839" y="106.72672" xlink:href="#a"/><use x="911.38019" y="155.39352" xlink:href="#a"/><use x="826.85291" y="118.12362" xlink:href="#a"/><use x="976.3631" y="188.18242" xlink:href="#a"/><use x="760.6842" y="365.9628" xlink:href="#a"/><use x="838.19086" y="449.78348" xlink:href="#a"/><use x="820.26294" y="224.85051" xlink:href="#a"/><use x="744.28961" y="199.88393" xlink:href="#a"/><use x="369.0929" y="1309.7758" xlink:href="#a"/><use x="284.57114" y="1165.1183" xlink:href="#a"/><use x="380.38214" y="1208.332" xlink:href="#a"/><use x="460.46292" y="1297.259" xlink:href="#a"/><use x="277.97498" y="1271.8453" xlink:href="#a"/><use x="-42.279339" y="301.38358" xlink:href="#a"/><use x="-132.76834" y="261.60309" xlink:href="#a"/><use x="615.4245" y="210.62241" xlink:href="#a"/><use x="513.41089" y="151.56308" xlink:href="#a"/><use x="427.50226" y="44.179806" xlink:href="#a"/><use x="1016.5309" y="657.60278" xlink:href="#a"/><use x="1057.73" y="891.29163" xlink:href="#a"/><g stroke="#000" stroke-dasharray="20" stroke-width="20"><line x1="343.02" x2="686.86" y1="338.31" y2="508.76"/><line x1="152.46" x2="139.41" y1="397.01" y2="618.68"/><line x1="118.6" x2="126.35" y1="910.47" y2="1484"/><line x1="321.87" x2="572.25" y1="1495.2" y2="1282.3"/><line x1="370.41" x2="627.52" y1="1700.5" y2="1779.9"/><line x1="954.71" x2="1139.6" y1="1767" y2="1679"/><line x1="1442.3" x2="1638.5" y1="1668.2" y2="1738.8"/><line x1="1918.2" x2="1877.7" y1="1657.6" y2="1229.8"/><line x1="1687.3" x2="1442.4" y1="1671" y2="1159.3"/><line x1="876.58" x2="1188.6" y1="1143.6" y2="1052.5"/><line x1="1786" x2="1778.7" y1="901.06" y2="698.55"/><line x1="1372.1" x2="1631.3" y1="294.51" y2="463.47"/><line x1="1032.6" x2="1618.1" y1="553.53" y2="548.19"/><line x1="376.6" x2="1036.2" y1="218.48" y2="212.74"/><line x1="818.15" x2="842.12" y1="1050.8" y2="716.33"/><line x1="580.46" x2="372.01" y1="1078.2" y2="870.24"/><line x1="834.13" x2="1134.3" y1="1304.6" y2="1526.7"/><line x1="1666" x2="1529.9" y1="1044.2" y2="1038.4"/></g></svg>
