<?xml version="1.0" encoding="UTF-8"?>
<svg width="100mm" height="100mm" version="1.1" viewBox="0 0 2050 2050" xmlns="http://www.w3.org/2000/svg" xmlns:xlink="http://www.w3.org/1999/xlink"><g fill="none" stroke="#000" stroke-width="6"><circle cx="238.38" cy="317.97" r="172"/><circle cx="1244.5" cy="302.38" r="172"/><circle cx="1773.2" cy="350.4" r="172"/><circle cx="339.03" cy="757.91" r="172"/><circle cx="934.13" cy="610.55" r="172"/><circle cx="1585.5" cy="740.29" r="172"/><circle cx="288.48" cy="1200.1" r="172"/><circle cx="1066.5" cy="1127.5" r="172"/><circle cx="1811.6" cy="1177.2" r="172"/><circle cx="319.72" cy="1701.3" r="172"/><circle cx="904.71" cy="1624.2" r="172"/><circle cx="1483.1" cy="1747.6" r="172"/></g><g id="a"><path d="m1416.5 397.13c-4.77-19.403 0.61-35.057 17.21-46.57 6.31 5.463 0.9 11.833 1.37 17.743-4.95 10.738-4.6 20.678 4.39 29.374 0.47 2.788-0.32 5.125-2.43 7.017-1.27 0.757-2.53 0.706-3.75-0.149-3.96-0.865-7.92-1.722-11.88-2.587-1.59-1.663-3.14-3.354-4.91-4.828" fill="#7f8184"/><path d="m1431.3 368.08c-3.64-6.457 1.44-11.721 2.45-17.523 0.8-0.07 1.6-0.129 2.4-0.219 2.06 0.16 3.66 1.244 5.13 2.568 1.49 1.054 2.99 2.11 4.48 3.153 2.1 1.035 3.54 3.036 5.78 3.813 0.64 0.099 1.18 0.377 1.63 0.826 6.08 6.13 8.23 14.16 10.72 22.032 0.05 1.381 0.12 2.765 0.19 4.159-0.85 2.358-1.9 4.596-3.22 6.736-2.08 2.946-4.77 4.031-8.26 2.756-2.69-1.751-4.06-4.447-5.15-7.313 0.07-5.623 1.02-11.763-7.28-12.568-3.31-2.438-6.9-4.588-8.87-8.42" fill="#545456"/><path d="m1436.3 404.32c0.05-2.179 0.1-4.348 0.12-6.527 1.5-3.95 4.62-4.358 8.18-3.782 5.49 2.776 6.82 7.165 2.82 11.642-5.54 6.191-4.53 11.275 0.91 16.49 2.33 0.129 4.67 0.238 7 0.338 1.9 1.144 1.86 2.637 0.73 4.289-6.31 3.423-13.06 1.88-19.69 1.701-4.07-4.288-2.56-9.294-1.78-14.179 0.14-1.534 0.27-3.075 0.4-4.599 0.62-1.761 1.3-3.483 1.31-5.373" fill="#545456"/><path d="m1448.3 422.15c-8.32-2.628-7.62-8.897-5.47-15.026 1.17-3.323 3-6.419 3.13-10.06-0.49-4.748 2.11-4.141 5.05-2.935l9.4-2.13c1-0.806 1.97-0.728 2.87 0.198-1.78 5.841-4.32 11.513-10.24 13.803-9.09 3.522-8.12 9.334-4.74 16.15" fill="#8a8c8f"/><path d="m1463.9 382.73c-6-6.171-7.35-14.598-10.72-22.032 7.89 5.234 11.08 12.776 10.72 22.032" fill="#7f8184"/><path d="m1434.6 414.3c2.75 4.458 0.76 9.503 1.77 14.179-9.36-3.622-2.66-9.274-1.77-14.179" fill="#8a8c8f"/><path d="m1436.3 404.32c1.43 2.239 1.39 4.129-1.31 5.373-0.56-1.711-1.09-3.431-1.64-5.143 0.97-0.07 1.97-0.16 2.95-0.23" fill="#8a8c8f"/><path d="m1416.5 397.13c2.7 0.539 4.38 2.101 4.91 4.828-2.47-0.767-4.13-2.339-4.91-4.828" fill="#c2c4c6"/><path d="m1463.3 392.19c-0.97-0.059-1.93-0.139-2.87-0.198 1.2-1.692 2.41-3.393 3.64-5.105 0.99 1.96 0.21 3.651-0.77 5.304" fill="#7f8184"/><path d="m1456 426.77c-0.24-1.443-0.48-2.856-0.72-4.289 1.87-0.488 3.98-0.707 4.37 1.661 0.44 2.628-1.84 2.548-3.65 2.628" fill="#8a8c8f"/><path d="m1451.5 359.87c-2.73-0.041-4.7-1.265-5.78-3.813 2.66 0.17 4.53 1.534 5.78 3.813" fill="#7f8184"/><path d="m1441.2 352.9c-1.71-0.836-3.41-1.701-5.13-2.558 2.78-1.273 4.41-0.269 5.13 2.558" fill="#7f8184"/><path d="m1451 394.12c-2.27-0.01-3.9 1.044-5.06 2.936-3.18 0.248-6.36 0.496-9.56 0.746-15.81-3.891-17.54-14.001-5.1-29.715 3.99 0.718 7.98 1.444 11.98 2.18 8.16 3.702 4.21 12.101 6.95 17.902 1.74 1.792 2.08 3.762 0.79 5.951" fill="#e4e5e6"/><path d="m1450.2 388.17c-2.81-0.766-9.04 1.583-5.69-5.166 2.44-4.895-1.19-8.497-1.26-12.746 11.09 2.558 9.6 10.002 6.95 17.912" fill="#787a7c"/></g><use x="-311.05551" y="400.49825" xlink:href="#a"/><use x="-602.98488" y="786.78762" xlink:href="#a"/><use x="-784.3319" y="-72.905424" xlink:href="#a"/><use x="-1049.5137" y="75.308376" xlink:href="#a"/><use x="-954.17631" y="-57.683624" xlink:href="#a"/><use x="-1151.2613" y="148.21358" xlink:href="#a"/><use x="-753.8874" y="328.47335" xlink:href="#a"/><use x="-635.9961" y="403.43378" xlink:href="#a"/><use x="-1071.1453" y="595.25832" xlink:href="#a"/><use x="-975.00661" y="690.59568" xlink:href="#a"/><use x="-799.55331" y="1082.3605" xlink:href="#a"/><use x="-842.65861" y="959.72386" xlink:href="#a"/><use x="-801.80631" y="675.12298" xlink:href="#a"/><use x="-604.60434" y="935.07567" xlink:href="#a"/><use x="140.2023" y="772.31386" xlink:href="#a"/><use x="-61.825296" y="336.87435" xlink:href="#a"/><use x="-17.625296" y="776.32048" xlink:href="#a"/><use x="-5.6076964" y="525.55835" xlink:href="#a"/><use x="201.89" y="572.82603" xlink:href="#a"/><use x="84.120004" y="679.38048" xlink:href="#a"/><use x="-172.91535" y="696.12567" xlink:href="#a"/><use x="-78.139996" y="901.62048" xlink:href="#a"/><use x="194.68" y="981.41579" xlink:href="#a"/><use x="32.450004" y="969.18048" xlink:href="#a"/><use x="133.9368" y="888.59298" xlink:href="#a"/><use x="-65.694696" y="1087.1676" xlink:href="#a"/><use x="97.740004" y="1117.613" xlink:href="#a"/><use x="-886.87931" y="1199.3304" xlink:href="#a"/><use x="-326.41472" y="988.38048" xlink:href="#a"/><use x="-419.42458" y="1044.823" xlink:href="#a"/><use x="-203.53553" y="1195.3956" xlink:href="#a"/><use x="-333.34212" y="1154.0005" xlink:href="#a"/><use x="137.03" y="88.297576" xlink:href="#a"/><use x="-703.89433" y="1085.7258" xlink:href="#a"/><use x="-103.58473" y="163.15328" xlink:href="#a"/><use x="-294.72001" y="125.73938" xlink:href="#a"/><use x="-194.72775" y="349.71135" xlink:href="#a"/><use x="-391.18001" y="7.5153759" xlink:href="#a"/><use x="-669.89278" y="29.312376" xlink:href="#a"/><use x="-1087.6724" y="1061.8305" xlink:href="#a"/><use x="-806.9844" y="1253.183" xlink:href="#a"/><g stroke-width="20"><g stroke="#000" stroke-dasharray="20"><line x1="1066.5" x2="1313.6" y1="1681.6" y2="1718.6"/><line x1="746.19" x2="484.64" y1="1706" y2="1753.3"/><line x1="1766.4" x2="1598.9" y1="1354.2" y2="1618.6"/><line x1="1191.1" x2="1383.1" y1="1263.4" y2="1605.6"/><line x1="995.05" x2="949.58" y1="1283.6" y2="1458.7"/><line x1="385.13" x2="728.76" y1="1354.6" y2="1623"/><line x1="259.23" x2="277.31" y1="1379.4" y2="1533.8"/><line x1="1773.5" x2="1697.6" y1="999.79" y2="871.3"/><line x1="1035.9" x2="998.06" y1="951.97" y2="770.82"/><line x1="324.14" x2="299.95" y1="930.08" y2="1027.3"/><line x1="1673.6" x2="1642" y1="490.31" y2="576.92"/><line x1="1484.5" x2="1368.9" y1="599.85" y2="421.41"/><line x1="1065.1" x2="1137.9" y1="500.51" y2="438.19"/><line x1="1608.1" x2="1416.5" y1="269.73" y2="281.5"/><line x1="780.66" x2="403.68" y1="532.47" y2="366.97"/><line x1="248.78" x2="220.69" y1="598.79" y2="489.49"/><line x1="1074" x2="407.89" y1="234.24" y2="273.58"/></g><path d="m468.62 1285.7c206.35 63.84 398.72 82.6 614.2 67.52 193.38-13.53 375.63-54.16 554.04-129.98" fill="none" stroke="#783a08" stroke-dasharray="40, 20"/><path d="m505.62 798.59c126.5 53.127 274.23 90.458 415.19 90.947 171.94-2.933 338.02-34 497.7-108.35" fill="none" stroke="#000" stroke-dasharray="40, 20"/></g></svg>
