<?xml version="1.0" encoding="UTF-8"?>
<svg width="2050" height="2050" version="1.1" xmlns="http://www.w3.org/2000/svg" xmlns:xlink="http://www.w3.org/1999/xlink"><g id="a"><path d="m1417 397.1c-4.77-19.4 0.61-35.06 17.21-46.57 6.31 5.463 0.9 11.83 1.37 17.74-4.95 10.74-4.6 20.68 4.39 29.37 0.47 2.788-0.32 5.125-2.43 7.017-1.27 0.757-2.53 0.706-3.75-0.149-3.96-0.865-7.92-1.722-11.88-2.587-1.59-1.663-3.14-3.354-4.91-4.828" fill="#7f8184"/><path d="m1431 368.1c-3.64-6.457 1.44-11.72 2.45-17.52 0.8-0.07 1.6-0.129 2.4-0.219 2.06 0.16 3.66 1.244 5.13 2.568 1.49 1.054 2.99 2.11 4.48 3.153 2.1 1.035 3.54 3.036 5.78 3.813 0.64 0.099 1.18 0.377 1.63 0.826 6.08 6.13 8.23 14.16 10.72 22.03 0.05 1.381 0.12 2.765 0.19 4.159-0.85 2.358-1.9 4.596-3.22 6.736-2.08 2.946-4.77 4.031-8.26 2.756-2.69-1.751-4.06-4.447-5.15-7.313 0.07-5.623 1.02-11.76-7.28-12.57-3.31-2.438-6.9-4.588-8.87-8.42" fill="#545456"/><path d="m1436 404.3c0.05-2.179 0.1-4.348 0.12-6.527 1.5-3.95 4.62-4.358 8.18-3.782 5.49 2.776 6.82 7.165 2.82 11.64-5.54 6.191-4.53 11.28 0.91 16.49 2.33 0.129 4.67 0.238 7 0.338 1.9 1.144 1.86 2.637 0.73 4.289-6.31 3.423-13.06 1.88-19.69 1.701-4.07-4.288-2.56-9.294-1.78-14.18 0.14-1.534 0.27-3.075 0.4-4.599 0.62-1.761 1.3-3.483 1.31-5.373" fill="#545456"/><path d="m1448 422.1c-8.32-2.628-7.62-8.897-5.47-15.03 1.17-3.323 3-6.419 3.13-10.06-0.49-4.748 2.11-4.141 5.05-2.935l9.4-2.13c1-0.806 1.97-0.728 2.87 0.198-1.78 5.841-4.32 11.51-10.24 13.8-9.09 3.522-8.12 9.334-4.74 16.15" fill="#8a8c8f"/><path d="m1464 382.7c-6-6.171-7.35-14.6-10.72-22.03 7.89 5.234 11.08 12.78 10.72 22.03" fill="#7f8184"/><path d="m1435 414.3c2.75 4.458 0.76 9.503 1.77 14.18-9.36-3.622-2.66-9.274-1.77-14.18" fill="#8a8c8f"/><path d="m1436 404.3c1.43 2.239 1.39 4.129-1.31 5.373-0.56-1.711-1.09-3.431-1.64-5.143 0.97-0.07 1.97-0.16 2.95-0.23" fill="#8a8c8f"/><path d="m1417 397.1c2.7 0.539 4.38 2.101 4.91 4.828-2.47-0.767-4.13-2.339-4.91-4.828" fill="#c2c4c6"/><path d="m1463 392.2c-0.97-0.059-1.93-0.139-2.87-0.198 1.2-1.692 2.41-3.393 3.64-5.105 0.99 1.96 0.21 3.651-0.77 5.304" fill="#7f8184"/><path d="m1456 426.8c-0.24-1.443-0.48-2.856-0.72-4.289 1.87-0.488 3.98-0.707 4.37 1.661 0.44 2.628-1.84 2.548-3.65 2.628" fill="#8a8c8f"/><path d="m1452 359.9c-2.73-0.041-4.7-1.265-5.78-3.813 2.66 0.17 4.53 1.534 5.78 3.813" fill="#7f8184"/><path d="m1441 352.9c-1.71-0.836-3.41-1.701-5.13-2.558 2.78-1.273 4.41-0.269 5.13 2.558" fill="#7f8184"/><path d="m1451 394.1c-2.27-0.01-3.9 1.044-5.06 2.936-3.18 0.248-6.36 0.496-9.56 0.746-15.81-3.891-17.54-14-5.1-29.72 3.99 0.718 7.98 1.444 11.98 2.18 8.16 3.702 4.21 12.1 6.95 17.9 1.74 1.792 2.08 3.762 0.79 5.951" fill="#e4e5e6"/><path d="m1450 388.2c-2.81-0.766-9.04 1.583-5.69-5.166 2.44-4.895-1.19-8.497-1.26-12.75 11.09 2.558 9.6 10 6.95 17.91" fill="#787a7c"/></g><use x="-311" y="400" xlink:href="#a"/><use x="-603" y="787" xlink:href="#a"/><use x="-784" y="-73" xlink:href="#a"/><use x="-954" y="-58" xlink:href="#a"/><use x="-754" y="328" xlink:href="#a"/><use x="-636" y="403" xlink:href="#a"/><use x="-800" y="1082" xlink:href="#a"/><use x="-843" y="960" xlink:href="#a"/><use x="-802" y="675" xlink:href="#a"/><use x="-605" y="935" xlink:href="#a"/><use x="140" y="772" xlink:href="#a"/><use x="-18" y="776" xlink:href="#a"/><use x="84" y="679" xlink:href="#a"/><use x="-173" y="696" xlink:href="#a"/><use x="-78" y="902" xlink:href="#a"/><use x="195" y="981" xlink:href="#a"/><use x="32" y="969" xlink:href="#a"/><use x="134" y="889" xlink:href="#a"/><use x="-66" y="1087" xlink:href="#a"/><use x="98" y="1118" xlink:href="#a"/><use x="-887" y="1199" xlink:href="#a"/><use x="-326" y="988" xlink:href="#a"/><use x="-419" y="1045" xlink:href="#a"/><use x="-204" y="1195" xlink:href="#a"/><use x="-333" y="1154" xlink:href="#a"/><use x="137" y="88" xlink:href="#a"/><use x="-704" y="1086" xlink:href="#a"/><use x="-104" y="163" xlink:href="#a"/><use x="-295" y="126" xlink:href="#a"/><use x="-195" y="350" xlink:href="#a"/><use x="-391" y="8" xlink:href="#a"/><use x="-670" y="29" xlink:href="#a"/><use x="-1088" y="1062" xlink:href="#a"/><use x="-807" y="1253" xlink:href="#a"/><use x="-1021" y="75" xlink:href="#a"/><use x="-1104" y="163" xlink:href="#a"/><use x="-1054" y="588" xlink:href="#a"/><use x="-943" y="709" xlink:href="#a"/><use x="-37" y="609" xlink:href="#a"/><use x="191" y="591" xlink:href="#a"/><g stroke-width="20"><g stroke="#000" stroke-dasharray="20"><line x1="1066" x2="1314" y1="1682" y2="1719"/><line x1="753" x2="491" y1="1704" y2="1751"/><line x1="1768" x2="1595" y1="1343" y2="1618"/><line x1="1179" x2="1385" y1="1256" y2="1609"/><line x1="995" x2="950" y1="1284" y2="1459"/><line x1="377" x2="733" y1="1348" y2="1625"/><line x1="255" x2="277" y1="1368" y2="1535"/><line x1="1738" x2="1627" y1="1021" y2="884"/><line x1="1036" x2="1021" y1="960" y2="886"/><line x1="1012" x2="998" y1="843" y2="769"/><line x1="362" x2="300" y1="889" y2="1027"/><line x1="1674" x2="1579" y1="490" y2="641"/><line x1="1455" x2="1369" y1="615" y2="421"/><line x1="1065" x2="1138" y1="501" y2="438"/><line x1="1622" x2="1415" y1="269" y2="281"/><line x1="781" x2="404" y1="533" y2="367"/><line x1="322" x2="241" y1="671" y2="490"/><line x1="1087" x2="404" y1="235" y2="274"/></g><g fill="none" stroke-dasharray="40, 20"><path d="m444.6 1270c206.4 63.84 427.9 107.4 645.3 98.6 192.4-7.785 383.7-57.29 562.1-133.1" stroke="#783a08"/><path d="m633.4 813.6c289.6 80.84 453.4 81.03 680.9-18.78" stroke="#000"/></g></g><g fill="none" stroke="#000" stroke-width="6"><circle cx="238" cy="318" r="172"/><circle cx="1244" cy="302" r="172"/><circle cx="1773" cy="350" r="172"/><circle cx="470" cy="757" r="172"/><circle cx="934" cy="611" r="172"/><circle cx="1486" cy="784" r="172"/><circle cx="289" cy="1200" r="172"/><circle cx="1067" cy="1128" r="172"/><circle cx="1812" cy="1177" r="172"/><circle cx="320" cy="1701" r="172"/><circle cx="905" cy="1624" r="172"/><circle cx="1483" cy="1748" r="172"/></g></svg>
