<?xml version="1.0" encoding="UTF-8"?>
<svg width="2050" height="2050" version="1.1" xmlns="http://www.w3.org/2000/svg" xmlns:xlink="http://www.w3.org/1999/xlink"><g fill="none" stroke="#000" stroke-width="6"><circle cx="226" cy="236" r="172"/><circle cx="881" cy="283" r="172"/><circle cx="1373" cy="385" r="172"/><circle cx="1847" cy="242" r="172"/><circle cx="190" cy="950" r="172"/><circle cx="750" cy="838" r="172"/><circle cx="1376" cy="1011" r="172"/><circle cx="1859" cy="1062" r="172"/><circle cx="829" cy="1427" r="172"/><circle cx="232" cy="1631" r="172"/><circle cx="1197" cy="1813" r="172"/><circle cx="1776" cy="1713" r="172"/></g><g id="a"><path d="m450.5 369.2c-4.8-19.5 0.61-35.23 17.29-46.8 6.34 5.49 0.91 11.88 1.38 17.82-4.98 10.79-4.61 20.79 4.41 29.52 0.47 2.81-0.32 5.16-2.43 7.06-1.29 0.77-2.55 0.71-3.78-0.14-3.98-0.87-7.96-1.74-11.94-2.6-1.6-1.67-3.15-3.38-4.93-4.86" fill="#7f8184"/><path d="m465.4 340c-3.67-6.48 1.43-11.76 2.45-17.6 0.8-0.08 1.61-0.14 2.41-0.21 2.07 0.15 3.67 1.25 5.15 2.57 1.51 1.05 3.01 2.12 4.52 3.17 2.1 1.03 3.55 3.05 5.81 3.83 0.64 0.1 1.18 0.37 1.63 0.83 6.1 6.16 8.28 14.22 10.77 22.14 0.06 1.39 0.12 2.79 0.18 4.19-0.84 2.36-1.91 4.62-3.22 6.75-2.09 2.96-4.8 4.06-8.3 2.77-2.71-1.76-4.08-4.47-5.17-7.35 0.06-5.64 1.02-11.82-7.34-12.62-3.31-2.45-6.91-4.61-8.89-8.47" fill="#545456"/><path d="m470.4 376.4c0.04-2.18 0.08-4.37 0.13-6.54 1.49-3.98 4.63-4.36 8.2-3.81 5.52 2.79 6.87 7.2 2.84 11.7-5.58 6.22-4.54 11.34 0.91 16.59 2.34 0.11 4.7 0.21 7.05 0.34 1.9 1.14 1.86 2.62 0.71 4.28-6.34 3.44-13.12 1.9-19.78 1.74-4.1-4.33-2.57-9.34-1.77-14.27 0.13-1.54 0.25-3.09 0.39-4.62 0.61-1.77 1.31-3.51 1.32-5.41" fill="#545456"/><path d="m482.4 394.3c-8.36-2.64-7.65-8.97-5.49-15.11 1.18-3.36 3.02-6.45 3.13-10.12-0.48-4.77 2.14-4.16 5.09-2.95 3.14-0.71 6.28-1.43 9.44-2.14 1.02-0.8 1.99-0.73 2.88 0.2-1.77 5.87-4.34 11.57-10.27 13.89-9.16 3.53-8.16 9.35-4.78 16.23" fill="#8a8c8f"/><path d="m498.1 354.7c-6.02-6.19-7.38-14.66-10.77-22.14 7.93 5.27 11.14 12.84 10.77 22.14" fill="#7f8184"/><path d="m468.7 386.4c2.76 4.48 0.77 9.55 1.78 14.26-9.4-3.65-2.68-9.33-1.78-14.26" fill="#8a8c8f"/><path d="m470.4 376.4c1.42 2.26 1.38 4.16-1.32 5.41-0.55-1.72-1.11-3.45-1.66-5.17 0.99-0.08 1.99-0.16 2.98-0.24" fill="#8a8c8f"/><path d="m450.5 369.2c2.71 0.53 4.41 2.1 4.93 4.86-2.48-0.77-4.15-2.37-4.93-4.86" fill="#c2c4c6"/><path d="m497.5 364.2-2.89-0.21c1.22-1.7 2.45-3.41 3.68-5.11 0.99 1.95 0.21 3.64-0.79 5.32" fill="#7f8184"/><path d="m490.2 399c-0.23-1.43-0.46-2.86-0.71-4.29 1.88-0.5 4-0.71 4.39 1.67 0.45 2.64-1.85 2.55-3.68 2.62" fill="#8a8c8f"/><path d="m485.7 331.8c-2.75-0.05-4.72-1.27-5.81-3.84 2.67 0.18 4.55 1.55 5.81 3.84" fill="#7f8184"/><path d="m475.4 324.7c-1.71-0.86-3.44-1.71-5.14-2.56 2.79-1.31 4.43-0.29 5.14 2.56" fill="#7f8184"/><path d="m485.2 366.2c-2.27-0.02-3.91 1.05-5.09 2.94-3.2 0.25-6.39 0.51-9.59 0.76-15.89-3.92-17.63-14.08-5.13-29.87 4 0.73 8.02 1.46 12.02 2.2 8.2 3.72 4.23 12.15 6.98 17.98 1.75 1.8 2.09 3.78 0.81 5.99" fill="#e4e5e6"/><path d="m484.4 360.2c-2.82-0.78-9.08 1.6-5.71-5.18 2.45-4.93-1.21-8.54-1.27-12.82 11.14 2.59 9.65 10.06 6.98 18" fill="#787a7c"/></g><use x="149" y="44" xlink:href="#a"/><use x="1114" y="878" xlink:href="#a"/><use x="40" y="442" xlink:href="#a"/><use x="-10" y="298" xlink:href="#a"/><use x="-45" y="404" xlink:href="#a"/><use x="129" y="166" xlink:href="#a"/><use x="-170" y="175" xlink:href="#a"/><use x="66" y="572" xlink:href="#a"/><use x="843" y="1173" xlink:href="#a"/><use x="927" y="1267" xlink:href="#a"/><use x="1036" y="1301" xlink:href="#a"/><use x="623" y="1054" xlink:href="#a"/><use x="772" y="312" xlink:href="#a"/><use x="92" y="996" xlink:href="#a"/><use x="95" y="1262" xlink:href="#a"/><use x="1279" y="453" xlink:href="#a"/><use x="1291" y="925" xlink:href="#a"/><use x="1206" y="888" xlink:href="#a"/><use x="1200" y="994" xlink:href="#a"/><use x="400" y="1335" xlink:href="#a"/><use x="254" y="1282" xlink:href="#a"/><use x="1124" y="388" xlink:href="#a"/><use x="1278" y="186" xlink:href="#a"/><use x="1189" y="421" xlink:href="#a"/><use x="1191" y="533" xlink:href="#a"/><use x="1270" y="329" xlink:href="#a"/><use x="-73" y="742" xlink:href="#a"/><use x="38" y="843" xlink:href="#a"/><use x="-71" y="1010" xlink:href="#a"/><use x="-71" y="865" xlink:href="#a"/><use x="-164" y="812" xlink:href="#a"/><use x="-188" y="963" xlink:href="#a"/><use x="36" y="694" xlink:href="#a"/><use x="227" y="151" xlink:href="#a"/><use x="623" y="77" xlink:href="#a"/><use x="1132" y="39" xlink:href="#a"/><use x="1113" y="197" xlink:href="#a"/><use x="1013" y="360" xlink:href="#a"/><use x="688" y="1183" xlink:href="#a"/><use x="521" y="1295" xlink:href="#a"/><use x="-127" y="336" xlink:href="#a"/><use x="496" y="300" xlink:href="#a"/><use x="419" y="220" xlink:href="#a"/><use x="514" y="456" xlink:href="#a"/><use x="618" y="512" xlink:href="#a"/><use x="697" y="160" xlink:href="#a"/><use x="1106" y="557" xlink:href="#a"/><use x="1147" y="791" xlink:href="#a"/><g stroke="#000" stroke-dasharray="20" stroke-width="20"><line x1="402" x2="707" y1="245" y2="269"/><line x1="208" x2="182" y1="411" y2="773"/><line x1="190" x2="195" y1="1126" y2="1460"/><line x1="340" x2="643" y1="1494" y2="1441"/><line x1="388" x2="1027" y1="1700" y2="1813"/><line x1="1366" x2="1606" y1="1813" y2="1713"/><line x1="1805" x2="1866" y1="1540" y2="1237"/><line x1="1676" x2="1548" y1="1043" y2="1027"/><line x1="1866" x2="1858" y1="873" y2="417"/><line x1="1557" x2="1662" y1="336" y2="279"/><line x1="1376" x2="1425" y1="822" y2="563"/><line x1="1231" x2="930" y1="912" y2="463"/><line x1="1057" x2="1196" y1="310" y2="350"/><line x1="646" x2="339" y1="706" y2="368"/><line x1="359" x2="581" y1="950" y2="838"/><line x1="780" x2="829" y1="660" y2="459"/><line x1="965" x2="1080" y1="1550" y2="1667"/></g><path d="m1762 1519c1.13-12.24-0.12-25.2-4.3-38.72-27.75-89.68-159-67.23-214.9-140-34.78-45.27-41.19-111.2-68.79-161.2-30.81 21.51-68.21 34.22-108.6 34.22-105 0-190.1-85.12-190.1-190.1 0-6.23 0.34-12.38 0.93-18.47-13.46-7.321-26.99-14.66-40.7-22.05-76.08-40.94-118.9-54.89-203.8-54.04-23.44 65.24-105.7 112-179 112-1.04 0-4.22-2.27-5.25-2.29-5.06 36.36 3.56 68.44 18.29 98.64 12.87 26.36 20.75 56.61 30.39 85.21 12.59-2.62 25.63-4.03 39-4.03 83.31 0 153.9 53.67 179.6 128.3 32.31 3.86 64.44 8.92 95.08 20.32 106.4 39.56 211.4 90.01 304.2 156.1 58.82 41.92 109.7 94.64 182.9 103.4 29.95-61.87 92.31-105 165.1-107.2" fill="#6491b1"/></svg>
