<?xml version="1.0" encoding="UTF-8"?>
<svg width="100mm" height="100mm" version="1.1" viewBox="0 0 2050 2050" xmlns="http://www.w3.org/2000/svg" xmlns:xlink="http://www.w3.org/1999/xlink"><g fill="none" stroke="#000" stroke-width="6"><circle cx="225.52" cy="236.26" r="172"/><circle cx="880.98" cy="282.59" r="172"/><circle cx="1373.3" cy="385.38" r="172"/><circle cx="1846.8" cy="241.93" r="172"/><circle cx="189.96" cy="949.74" r="172"/><circle cx="750.01" cy="838.17" r="172"/><circle cx="1376" cy="1011.4" r="172"/><circle cx="1858.6" cy="1062.1" r="172"/><circle cx="829.26" cy="1427.3" r="172"/><circle cx="231.77" cy="1631.2" r="172"/><circle cx="1196.7" cy="1813.3" r="172"/><circle cx="1775.5" cy="1713.3" r="172"/></g><g id="a"><path d="m450.52 369.2c-4.8-19.5 0.61-35.23 17.29-46.8 6.34 5.49 0.91 11.88 1.38 17.82-4.98 10.79-4.61 20.79 4.41 29.52 0.47 2.81-0.32 5.16-2.43 7.06-1.29 0.77-2.55 0.71-3.78-0.14-3.98-0.87-7.96-1.74-11.94-2.6-1.6-1.67-3.15-3.38-4.93-4.86" fill="#7f8184"/><path d="m465.36 340c-3.67-6.48 1.43-11.76 2.45-17.6 0.8-0.08 1.61-0.14 2.41-0.21 2.07 0.15 3.67 1.25 5.15 2.57 1.51 1.05 3.01 2.12 4.52 3.17 2.1 1.03 3.55 3.05 5.81 3.83 0.64 0.1 1.18 0.37 1.63 0.83 6.1 6.16 8.28 14.22 10.77 22.14 0.06 1.39 0.12 2.79 0.18 4.19-0.84 2.36-1.91 4.62-3.22 6.75-2.09 2.96-4.8 4.06-8.3 2.77-2.71-1.76-4.08-4.47-5.17-7.35 0.06-5.64 1.02-11.82-7.34-12.62-3.31-2.45-6.91-4.61-8.89-8.47" fill="#545456"/><path d="m470.37 376.41c0.04-2.18 0.08-4.37 0.13-6.54 1.49-3.98 4.63-4.36 8.2-3.81 5.52 2.79 6.87 7.2 2.84 11.7-5.58 6.22-4.54 11.34 0.91 16.59 2.34 0.11 4.7 0.21 7.05 0.34 1.9 1.14 1.86 2.62 0.71 4.28-6.34 3.44-13.12 1.9-19.78 1.74-4.1-4.33-2.57-9.34-1.77-14.27 0.13-1.54 0.25-3.09 0.39-4.62 0.61-1.77 1.31-3.51 1.32-5.41" fill="#545456"/><path d="m482.45 394.35c-8.36-2.64-7.65-8.97-5.49-15.11 1.18-3.36 3.02-6.45 3.13-10.12-0.48-4.77 2.14-4.16 5.09-2.95 3.14-0.71 6.28-1.43 9.44-2.14 1.02-0.8 1.99-0.73 2.88 0.2-1.77 5.87-4.34 11.57-10.27 13.89-9.16 3.53-8.16 9.35-4.78 16.23" fill="#8a8c8f"/><path d="m498.1 354.72c-6.02-6.19-7.38-14.66-10.77-22.14 7.93 5.27 11.14 12.84 10.77 22.14" fill="#7f8184"/><path d="m468.66 386.44c2.76 4.48 0.77 9.55 1.78 14.26-9.4-3.65-2.68-9.33-1.78-14.26" fill="#8a8c8f"/><path d="m470.37 376.41c1.42 2.26 1.38 4.16-1.32 5.41-0.55-1.72-1.11-3.45-1.66-5.17 0.99-0.08 1.99-0.16 2.98-0.24" fill="#8a8c8f"/><path d="m450.52 369.2c2.71 0.53 4.41 2.1 4.93 4.86-2.48-0.77-4.15-2.37-4.93-4.86" fill="#c2c4c6"/><path d="m497.5 364.24-2.89-0.21c1.22-1.7 2.45-3.41 3.68-5.11 0.99 1.95 0.21 3.64-0.79 5.32" fill="#7f8184"/><path d="m490.21 398.97c-0.23-1.43-0.46-2.86-0.71-4.29 1.88-0.5 4-0.71 4.39 1.67 0.45 2.64-1.85 2.55-3.68 2.62" fill="#8a8c8f"/><path d="m485.7 331.76c-2.75-0.05-4.72-1.27-5.81-3.84 2.67 0.18 4.55 1.55 5.81 3.84" fill="#7f8184"/><path d="m475.37 324.75c-1.71-0.86-3.44-1.71-5.14-2.56 2.79-1.31 4.43-0.29 5.14 2.56" fill="#7f8184"/><path d="m485.18 366.17c-2.27-0.02-3.91 1.05-5.09 2.94-3.2 0.25-6.39 0.51-9.59 0.76-15.89-3.92-17.63-14.08-5.13-29.87 4 0.73 8.02 1.46 12.02 2.2 8.2 3.72 4.23 12.15 6.98 17.98 1.75 1.8 2.09 3.78 0.81 5.99" fill="#e4e5e6"/><path d="m484.38 360.19c-2.82-0.78-9.08 1.6-5.71-5.18 2.45-4.93-1.21-8.54-1.27-12.82 11.14 2.59 9.65 10.06 6.98 18" fill="#787a7c"/></g><use x="148.74187" y="44.045503" xlink:href="#a"/><use x="1114.0756" y="877.52854" xlink:href="#a"/><use x="39.80213" y="441.72495" xlink:href="#a"/><use x="-10.46167" y="298.22496" xlink:href="#a"/><use x="-44.72277" y="404.45561" xlink:href="#a"/><use x="129.27073" y="165.90561" xlink:href="#a"/><use x="-169.98157" y="175.36141" xlink:href="#a"/><use x="66.28993" y="571.75213" xlink:href="#a"/><use x="843.3305" y="1172.8386" xlink:href="#a"/><use x="926.93219" y="1266.7368" xlink:href="#a"/><use x="1036.3006" y="1301.0487" xlink:href="#a"/><use x="622.82552" y="1054.077" xlink:href="#a"/><use x="772.42496" y="311.86216" xlink:href="#a"/><use x="92.11843" y="996.3766" xlink:href="#a"/><use x="95.47493" y="1262.2942" xlink:href="#a"/><use x="1279.0133" y="453.24924" xlink:href="#a"/><use x="1290.8143" y="924.9524" xlink:href="#a"/><use x="1206.2885" y="887.67853" xlink:href="#a"/><use x="1199.6985" y="994.41093" xlink:href="#a"/><use x="400.34068" y="1334.5349" xlink:href="#a"/><use x="254.34997" y="1282.2342" xlink:href="#a"/><use x="1124.3683" y="388.03312" xlink:href="#a"/><use x="1278.305" y="186.04561" xlink:href="#a"/><use x="1189.3506" y="420.82218" xlink:href="#a"/><use x="1190.9306" y="532.65212" xlink:href="#a"/><use x="1270.0049" y="328.53752" xlink:href="#a"/><use x="-72.94807" y="742.40465" xlink:href="#a"/><use x="37.55053" y="842.59661" xlink:href="#a"/><use x="-71.41787" y="1010.3366" xlink:href="#a"/><use x="-71.12427" y="864.71312" xlink:href="#a"/><use x="-164.06907" y="811.8566" xlink:href="#a"/><use x="-188.32027" y="963.44413" xlink:href="#a"/><use x="36.23113" y="694.39401" xlink:href="#a"/><use x="226.88652" y="150.59991" xlink:href="#a"/><use x="622.88722" y="77.267503" xlink:href="#a"/><use x="1132.4355" y="38.949903" xlink:href="#a"/><use x="1113.4028" y="197.48101" xlink:href="#a"/><use x="1013.4172" y="360.25993" xlink:href="#a"/><use x="688.05847" y="1183.061" xlink:href="#a"/><use x="521.34239" y="1295.2467" xlink:href="#a"/><use x="-126.91427" y="336.2856" xlink:href="#a"/><use x="496.39723" y="299.62811" xlink:href="#a"/><use x="419.27849" y="219.66301" xlink:href="#a"/><use x="514.23276" y="456.19186" xlink:href="#a"/><use x="618.44276" y="512.37493" xlink:href="#a"/><use x="697.12848" y="159.53366" xlink:href="#a"/><use x="1106.0283" y="557.35313" xlink:href="#a"/><use x="1147.2305" y="791.03593" xlink:href="#a"/><g stroke="#000" stroke-dasharray="20" stroke-width="20"><line x1="402.43" x2="707.14" y1="245.32" y2="268.96"/><line x1="207.5" x2="182.45" y1="411.41" y2="773"/><line x1="189.96" x2="194.97" y1="1126.4" y2="1459.7"/><line x1="339.86" x2="643.25" y1="1494.3" y2="1441.5"/><line x1="388.4" x2="1027.2" y1="1699.6" y2="1813.3"/><line x1="1366.2" x2="1606.4" y1="1813.3" y2="1713.3"/><line x1="1804.5" x2="1866.1" y1="1540.5" y2="1236.6"/><line x1="1675.9" x2="1548.4" y1="1043.3" y2="1027.3"/><line x1="1866.1" x2="1858.4" y1="872.75" y2="416.91"/><line x1="1556.6" x2="1662.5" y1="336.31" y2="278.52"/><line x1="1376" x2="1425.4" y1="822.21" y2="562.53"/><line x1="1230.7" x2="929.95" y1="912.15" y2="462.49"/><line x1="1056.8" x2="1195.8" y1="309.81" y2="350.13"/><line x1="646.41" x2="339.2" y1="706.37" y2="368.06"/><line x1="359.44" x2="580.95" y1="949.74" y2="838.17"/><line x1="780.24" x2="829.26" y1="659.95" y2="459.09"/><line x1="964.59" x2="1079.9" y1="1550.1" y2="1666.9"/></g><path d="m1762.4 1518.8c1.13-12.24-0.12-25.2-4.3-38.72-27.75-89.68-158.96-67.23-214.89-140-34.78-45.27-41.19-111.22-68.79-161.21-30.81 21.51-68.21 34.22-108.63 34.22-105.01 0-190.13-85.12-190.13-190.13 0-6.23 0.34-12.38 0.93-18.47-13.46-7.321-26.99-14.661-40.7-22.051-76.08-40.94-118.94-54.89-203.76-54.04-23.44 65.24-105.67 111.98-178.98 111.98-1.04 0-4.22-2.27-5.25-2.29-5.06 36.36 3.56 68.44 18.29 98.64 12.87 26.36 20.75 56.61 30.39 85.21 12.59-2.62 25.63-4.03 39-4.03 83.31 0 153.94 53.67 179.62 128.27 32.31 3.86 64.44 8.92 95.08 20.32 106.36 39.56 211.41 90.01 304.16 156.13 58.82 41.92 109.72 94.64 182.86 103.38 29.95-61.87 92.31-104.95 165.1-107.21" fill="#6491b1"/></svg>
