<?xml version="1.0" encoding="UTF-8"?>
<svg width="2050" height="2050" version="1.1" xmlns="http://www.w3.org/2000/svg" xmlns:xlink="http://www.w3.org/1999/xlink"><g fill="none" stroke="#000" stroke-width="6"><circle cx="265.42" cy="311.71" r="172"/><circle cx="828.29" cy="302" r="172"/><circle cx="1326.4" cy="348.84" r="172"/><circle cx="1873.2" cy="455.39" r="172"/><circle cx="555.59" cy="723.02" r="172"/><circle cx="1122.3" cy="768.12" r="172"/><circle cx="1659.2" cy="863.47" r="172"/><circle cx="180.15" cy="1124.8" r="172"/><circle cx="838.23" cy="1106.3" r="172"/><circle cx="1334.2" cy="1334.1" r="172"/><circle cx="1869.9" cy="1297" r="172"/><circle cx="188.83" cy="1704.9" r="172"/><circle cx="697.85" cy="1550.9" r="172"/><circle cx="1150.5" cy="1736.7" r="172"/><circle cx="1704.1" cy="1748" r="172"/></g><g id="a"><path d="m454.11 382.64c-4.77-19.403 0.61-35.057 17.21-46.57 6.31 5.463 0.9 11.833 1.37 17.743-4.95 10.738-4.6 20.678 4.39 29.374 0.47 2.788-0.32 5.125-2.43 7.017-1.27 0.757-2.53 0.706-3.75-0.149-3.96-0.865-7.92-1.722-11.88-2.587-1.59-1.663-3.14-3.354-4.91-4.828" fill="#7f8184"/><path d="m468.87 353.59c-3.64-6.457 1.44-11.721 2.45-17.523 0.8-0.07 1.6-0.129 2.4-0.219 2.06 0.16 3.66 1.244 5.13 2.568 1.49 1.054 2.99 2.11 4.48 3.153 2.1 1.035 3.54 3.036 5.78 3.813 0.64 0.099 1.18 0.377 1.63 0.826 6.08 6.13 8.23 14.16 10.72 22.032 0.05 1.381 0.12 2.765 0.19 4.159-0.85 2.358-1.9 4.596-3.22 6.736-2.08 2.946-4.77 4.031-8.26 2.756-2.69-1.751-4.06-4.447-5.15-7.313 0.07-5.623 1.02-11.763-7.28-12.568-3.31-2.438-6.9-4.588-8.87-8.42" fill="#545456"/><path d="m473.86 389.83c0.05-2.179 0.1-4.348 0.12-6.527 1.5-3.95 4.62-4.358 8.18-3.782 5.49 2.776 6.82 7.165 2.82 11.642-5.54 6.191-4.53 11.275 0.91 16.49 2.33 0.129 4.67 0.238 7 0.338 1.9 1.144 1.86 2.637 0.73 4.289-6.31 3.423-13.06 1.88-19.69 1.701-4.07-4.288-2.56-9.294-1.78-14.179 0.14-1.534 0.27-3.075 0.4-4.599 0.62-1.761 1.3-3.483 1.31-5.373" fill="#545456"/><path d="m485.89 407.65c-8.32-2.628-7.62-8.897-5.47-15.026 1.17-3.323 3-6.419 3.13-10.06-0.49-4.748 2.11-4.141 5.05-2.935l9.4-2.13c1-0.806 1.97-0.728 2.87 0.198-1.78 5.841-4.32 11.513-10.24 13.803-9.09 3.522-8.12 9.334-4.74 16.15" fill="#8a8c8f"/><path d="m501.46 368.24c-6-6.171-7.35-14.598-10.72-22.032 7.89 5.234 11.08 12.776 10.72 22.032" fill="#7f8184"/><path d="m472.16 399.8c2.75 4.458 0.76 9.503 1.77 14.179-9.36-3.622-2.66-9.274-1.77-14.179" fill="#8a8c8f"/><path d="m473.86 389.83c1.43 2.239 1.39 4.129-1.31 5.373-0.56-1.711-1.09-3.431-1.64-5.143 0.97-0.07 1.97-0.16 2.95-0.23" fill="#8a8c8f"/><path d="m454.11 382.64c2.7 0.539 4.38 2.101 4.91 4.828-2.47-0.767-4.13-2.339-4.91-4.828" fill="#c2c4c6"/><path d="m500.87 377.7c-0.97-0.059-1.93-0.139-2.87-0.198 1.2-1.692 2.41-3.393 3.64-5.105 0.99 1.96 0.21 3.651-0.77 5.304" fill="#7f8184"/><path d="m493.62 412.28c-0.24-1.443-0.48-2.856-0.72-4.289 1.87-0.488 3.98-0.707 4.37 1.661 0.44 2.628-1.84 2.548-3.65 2.628" fill="#8a8c8f"/><path d="m489.12 345.38c-2.73-0.041-4.7-1.265-5.78-3.813 2.66 0.17 4.53 1.534 5.78 3.813" fill="#7f8184"/><path d="m478.84 338.4c-1.71-0.836-3.41-1.701-5.13-2.558 2.78-1.273 4.41-0.269 5.13 2.558" fill="#7f8184"/><path d="m488.6 379.62c-2.27-0.01-3.9 1.044-5.06 2.936-3.18 0.248-6.36 0.496-9.56 0.746-15.81-3.891-17.54-14.001-5.1-29.715 3.99 0.718 7.98 1.444 11.98 2.18 8.16 3.702 4.21 12.101 6.95 17.902 1.74 1.792 2.08 3.762 0.79 5.951" fill="#e4e5e6"/><path d="m487.81 373.68c-2.81-0.766-9.04 1.583-5.69-5.166 2.44-4.895-1.19-8.497-1.26-12.746 11.09 2.558 9.6 10.002 6.95 17.912" fill="#787a7c"/></g><use x="100.5126" y="6.4657226" xlink:href="#a"/><use x="51.137993" y="111.68066" xlink:href="#a"/><use x="183.9792" y="122.84873" xlink:href="#a"/><use x="267.4458" y="212.78105" xlink:href="#a"/><use x="327.40067" y="150.47501" xlink:href="#a"/><use x="446.13486" y="178.10127" xlink:href="#a"/><use x="387.94336" y="279.78946" xlink:href="#a"/><use x="556.05212" y="2.3511724" xlink:href="#a"/><use x="658.91589" y="79.352051" xlink:href="#a"/><use x="562.51788" y="131.07784" xlink:href="#a"/><use x="817.62" y="212.19325" xlink:href="#a"/><use x="872.28479" y="342.09549" xlink:href="#a"/><use x="915.19366" y="233.9416" xlink:href="#a"/><use x="988.07996" y="155.76514" xlink:href="#a"/><use x="1056.8518" y="74.06192" xlink:href="#a"/><use x="1013.2095" y="287.0293" xlink:href="#a"/><use x="1119.158" y="275.0871" xlink:href="#a"/><use x="1140.3184" y="165.16982" xlink:href="#a"/><use x="1231.4263" y="225.71249" xlink:href="#a"/><use x="-134.01678" y="162.23085" xlink:href="#a"/><use x="-192.7961" y="256.27771" xlink:href="#a"/><use x="-128.72665" y="359.72928" xlink:href="#a"/><use x="-155.17734" y="481.9902" xlink:href="#a"/><use x="-134.01678" y="601.89996" xlink:href="#a"/><use x="-64.069427" y="523.13568" xlink:href="#a"/><use x="31.153032" y="570.74695" xlink:href="#a"/><use x="186.33037" y="550.76196" xlink:href="#a"/><use x="114.61963" y="617.18256" xlink:href="#a"/><use x="281.55283" y="476.11227" xlink:href="#a"/><use x="379.48135" y="424.16541" xlink:href="#a"/><use x="533.716" y="580.15161" xlink:href="#a"/><use x="576.62488" y="735.91675" xlink:href="#a"/><use x="635.57867" y="630.92877" xlink:href="#a"/><use x="762.36749" y="759.42847" xlink:href="#a"/><use x="751.1994" y="597.19757" xlink:href="#a"/><use x="871.69696" y="714.1684" xlink:href="#a"/><use x="835.84161" y="540.76947" xlink:href="#a"/><use x="971.034" y="514.31879" xlink:href="#a"/><use x="924.01056" y="626.58728" xlink:href="#a"/><use x="1361.9163" y="321.52271" xlink:href="#a"/><use x="1368.382" y="615.41919" xlink:href="#a"/><use x="1304.3125" y="705.3515" xlink:href="#a"/><use x="1217.3192" y="749.43597" xlink:href="#a"/><use x="1110.9287" y="723.57312" xlink:href="#a"/><use x="1047.4471" y="846.42181" xlink:href="#a"/><use x="1151.4865" y="857.5899" xlink:href="#a"/><use x="1068.36" y="975.62952" xlink:href="#a"/><use x="1170.8735" y="996.4162" xlink:href="#a"/><use x="1050.4878" y="1085.3564" xlink:href="#a"/><use x="1148.9927" y="1153.1045" xlink:href="#a"/><use x="1231.2878" y="1101.566" xlink:href="#a"/><use x="-84.05439" y="780.00122" xlink:href="#a"/><use x="121.08535" y="755.3139" xlink:href="#a"/><use x="14.694824" y="816.4444" xlink:href="#a"/><use x="-104.62715" y="913.43024" xlink:href="#a"/><use x="-234.52939" y="977.49969" xlink:href="#a"/><use x="-169.28436" y="1084.478" xlink:href="#a"/><use x="-80.527634" y="1152.0742" xlink:href="#a"/><use x="26.450686" y="1093.8827" xlink:href="#a"/><use x="111.09287" y="974.56073" xlink:href="#a"/><use x="181.59486" y="874.04047" xlink:href="#a"/><use x="336.58759" y="959.51141" xlink:href="#a"/><use x="400.06921" y="1029.4587" xlink:href="#a"/><use x="437.68796" y="1145.254" xlink:href="#a"/><use x="538.20056" y="897.79315" xlink:href="#a"/><use x="642.23993" y="937.17529" xlink:href="#a"/><use x="578.7583" y="1020.6419" xlink:href="#a"/><use x="622.25494" y="1142.9028" xlink:href="#a"/><use x="724.53094" y="1146.4294" xlink:href="#a"/><use x="814.46326" y="1198.1553" xlink:href="#a"/><use x="944.36548" y="1167.5901" xlink:href="#a"/><use x="1037.2368" y="1257.5225" xlink:href="#a"/><use x="890.28857" y="1273.9806" xlink:href="#a"/><g stroke="#000" stroke-dasharray="20" stroke-width="20"><line x1="435.6" x2="658.15" y1="311.86" y2="307.87"/><line x1="355.14" x2="454.01" y1="455.94" y2="581.72"/><line x1="225.01" x2="187.14" y1="477.52" y2="953.34"/><line x1="1003" x2="1157.9" y1="295.4" y2="305.16"/><line x1="916.45" x2="1033.3" y1="447.21" y2="623.88"/><line x1="1497.9" x2="1703.4" y1="358.83" y2="433.41"/><line x1="1801.5" x2="1754" y1="608.71" y2="718.75"/><line x1="1905.2" x2="1912.1" y1="622.95" y2="1132"/><line x1="725.44" x2="955.12" y1="722.03" y2="738"/><line x1="678.65" x2="769.86" y1="843.17" y2="950.62"/><line x1="1292.3" x2="1493.6" y1="780.9" y2="824.75"/><line x1="1569.1" x2="1431.3" y1="1007.9" y2="1193.8"/><line x1="347.41" x2="674.35" y1="1095.7" y2="1055.2"/><line x1="169.91" x2="177.79" y1="1294.3" y2="1532.7"/><line x1="988.33" x2="1181.1" y1="1188" y2="1258.8"/><line x1="753.79" x2="708.91" y1="1254.5" y2="1379.6"/><line x1="1444.7" x2="1588.5" y1="1462.6" y2="1623.6"/><line x1="1824.1" x2="1759.6" y1="1461.6" y2="1587.5"/><line x1="351.71" x2="528.59" y1="1655.2" y2="1576.2"/><line x1="866.03" x2="999.85" y1="1587" y2="1658.6"/><line x1="1320.2" x2="1534.8" y1="1721.2" y2="1733.4"/></g></svg>
