<?xml version="1.0" encoding="UTF-8"?>
<svg width="2050" height="2050" version="1.1" xmlns="http://www.w3.org/2000/svg" xmlns:xlink="http://www.w3.org/1999/xlink"><g fill="none" stroke="#000" stroke-width="6"><circle cx="265" cy="312" r="172"/><circle cx="828" cy="302" r="172"/><circle cx="1326" cy="349" r="172"/><circle cx="1873" cy="455" r="172"/><circle cx="556" cy="723" r="172"/><circle cx="1122" cy="768" r="172"/><circle cx="1659" cy="864" r="172"/><circle cx="180" cy="1125" r="172"/><circle cx="838" cy="1106" r="172"/><circle cx="1334" cy="1334" r="172"/><circle cx="1870" cy="1297" r="172"/><circle cx="189" cy="1705" r="172"/><circle cx="698" cy="1551" r="172"/><circle cx="1150" cy="1737" r="172"/><circle cx="1704" cy="1748" r="172"/></g><g id="a"><path d="m454.1 382.6c-4.77-19.4 0.61-35.06 17.21-46.57 6.31 5.463 0.9 11.83 1.37 17.74-4.95 10.74-4.6 20.68 4.39 29.37 0.47 2.788-0.32 5.125-2.43 7.017-1.27 0.757-2.53 0.706-3.75-0.149-3.96-0.865-7.92-1.722-11.88-2.587-1.59-1.663-3.14-3.354-4.91-4.828" fill="#7f8184"/><path d="m468.9 353.6c-3.64-6.457 1.44-11.72 2.45-17.52 0.8-0.07 1.6-0.129 2.4-0.219 2.06 0.16 3.66 1.244 5.13 2.568 1.49 1.054 2.99 2.11 4.48 3.153 2.1 1.035 3.54 3.036 5.78 3.813 0.64 0.099 1.18 0.377 1.63 0.826 6.08 6.13 8.23 14.16 10.72 22.03 0.05 1.381 0.12 2.765 0.19 4.159-0.85 2.358-1.9 4.596-3.22 6.736-2.08 2.946-4.77 4.031-8.26 2.756-2.69-1.751-4.06-4.447-5.15-7.313 0.07-5.623 1.02-11.76-7.28-12.57-3.31-2.438-6.9-4.588-8.87-8.42" fill="#545456"/><path d="m473.9 389.8c0.05-2.179 0.1-4.348 0.12-6.527 1.5-3.95 4.62-4.358 8.18-3.782 5.49 2.776 6.82 7.165 2.82 11.64-5.54 6.191-4.53 11.28 0.91 16.49 2.33 0.129 4.67 0.238 7 0.338 1.9 1.144 1.86 2.637 0.73 4.289-6.31 3.423-13.06 1.88-19.69 1.701-4.07-4.288-2.56-9.294-1.78-14.18 0.14-1.534 0.27-3.075 0.4-4.599 0.62-1.761 1.3-3.483 1.31-5.373" fill="#545456"/><path d="m485.9 407.7c-8.32-2.628-7.62-8.897-5.47-15.03 1.17-3.323 3-6.419 3.13-10.06-0.49-4.748 2.11-4.141 5.05-2.935l9.4-2.13c1-0.806 1.97-0.728 2.87 0.198-1.78 5.841-4.32 11.51-10.24 13.8-9.09 3.522-8.12 9.334-4.74 16.15" fill="#8a8c8f"/><path d="m501.5 368.2c-6-6.171-7.35-14.6-10.72-22.03 7.89 5.234 11.08 12.78 10.72 22.03" fill="#7f8184"/><path d="m472.2 399.8c2.75 4.458 0.76 9.503 1.77 14.18-9.36-3.622-2.66-9.274-1.77-14.18" fill="#8a8c8f"/><path d="m473.9 389.8c1.43 2.239 1.39 4.129-1.31 5.373-0.56-1.711-1.09-3.431-1.64-5.143 0.97-0.07 1.97-0.16 2.95-0.23" fill="#8a8c8f"/><path d="m454.1 382.6c2.7 0.539 4.38 2.101 4.91 4.828-2.47-0.767-4.13-2.339-4.91-4.828" fill="#c2c4c6"/><path d="m500.9 377.7c-0.97-0.059-1.93-0.139-2.87-0.198 1.2-1.692 2.41-3.393 3.64-5.105 0.99 1.96 0.21 3.651-0.77 5.304" fill="#7f8184"/><path d="m493.6 412.3c-0.24-1.443-0.48-2.856-0.72-4.289 1.87-0.488 3.98-0.707 4.37 1.661 0.44 2.628-1.84 2.548-3.65 2.628" fill="#8a8c8f"/><path d="m489.1 345.4c-2.73-0.041-4.7-1.265-5.78-3.813 2.66 0.17 4.53 1.534 5.78 3.813" fill="#7f8184"/><path d="m478.8 338.4c-1.71-0.836-3.41-1.701-5.13-2.558 2.78-1.273 4.41-0.269 5.13 2.558" fill="#7f8184"/><path d="m488.6 379.6c-2.27-0.01-3.9 1.044-5.06 2.936-3.18 0.248-6.36 0.496-9.56 0.746-15.81-3.891-17.54-14-5.1-29.72 3.99 0.718 7.98 1.444 11.98 2.18 8.16 3.702 4.21 12.1 6.95 17.9 1.74 1.792 2.08 3.762 0.79 5.951" fill="#e4e5e6"/><path d="m487.8 373.7c-2.81-0.766-9.04 1.583-5.69-5.166 2.44-4.895-1.19-8.497-1.26-12.75 11.09 2.558 9.6 10 6.95 17.91" fill="#787a7c"/></g><use x="101" y="6" xlink:href="#a"/><use x="51" y="112" xlink:href="#a"/><use x="184" y="123" xlink:href="#a"/><use x="267" y="213" xlink:href="#a"/><use x="327" y="150" xlink:href="#a"/><use x="446" y="178" xlink:href="#a"/><use x="388" y="280" xlink:href="#a"/><use x="556" y="2" xlink:href="#a"/><use x="659" y="79" xlink:href="#a"/><use x="563" y="131" xlink:href="#a"/><use x="818" y="212" xlink:href="#a"/><use x="872" y="342" xlink:href="#a"/><use x="915" y="234" xlink:href="#a"/><use x="988" y="156" xlink:href="#a"/><use x="1057" y="74" xlink:href="#a"/><use x="1013" y="287" xlink:href="#a"/><use x="1119" y="275" xlink:href="#a"/><use x="1140" y="165" xlink:href="#a"/><use x="1231" y="226" xlink:href="#a"/><use x="-134" y="162" xlink:href="#a"/><use x="-193" y="256" xlink:href="#a"/><use x="-129" y="360" xlink:href="#a"/><use x="-155" y="482" xlink:href="#a"/><use x="-134" y="602" xlink:href="#a"/><use x="-64" y="523" xlink:href="#a"/><use x="31" y="571" xlink:href="#a"/><use x="186" y="551" xlink:href="#a"/><use x="115" y="617" xlink:href="#a"/><use x="282" y="476" xlink:href="#a"/><use x="379" y="424" xlink:href="#a"/><use x="534" y="580" xlink:href="#a"/><use x="577" y="736" xlink:href="#a"/><use x="636" y="631" xlink:href="#a"/><use x="762" y="759" xlink:href="#a"/><use x="751" y="597" xlink:href="#a"/><use x="872" y="714" xlink:href="#a"/><use x="836" y="541" xlink:href="#a"/><use x="971" y="514" xlink:href="#a"/><use x="924" y="627" xlink:href="#a"/><use x="1362" y="322" xlink:href="#a"/><use x="1368" y="615" xlink:href="#a"/><use x="1304" y="705" xlink:href="#a"/><use x="1217" y="749" xlink:href="#a"/><use x="1111" y="724" xlink:href="#a"/><use x="1047" y="846" xlink:href="#a"/><use x="1151" y="858" xlink:href="#a"/><use x="1068" y="976" xlink:href="#a"/><use x="1171" y="996" xlink:href="#a"/><use x="1050" y="1085" xlink:href="#a"/><use x="1149" y="1153" xlink:href="#a"/><use x="1231" y="1102" xlink:href="#a"/><use x="-84" y="780" xlink:href="#a"/><use x="121" y="755" xlink:href="#a"/><use x="15" y="816" xlink:href="#a"/><use x="-105" y="913" xlink:href="#a"/><use x="-235" y="977" xlink:href="#a"/><use x="-169" y="1084" xlink:href="#a"/><use x="-81" y="1152" xlink:href="#a"/><use x="26" y="1094" xlink:href="#a"/><use x="111" y="975" xlink:href="#a"/><use x="182" y="874" xlink:href="#a"/><use x="337" y="960" xlink:href="#a"/><use x="400" y="1029" xlink:href="#a"/><use x="438" y="1145" xlink:href="#a"/><use x="538" y="898" xlink:href="#a"/><use x="642" y="937" xlink:href="#a"/><use x="579" y="1021" xlink:href="#a"/><use x="622" y="1143" xlink:href="#a"/><use x="725" y="1146" xlink:href="#a"/><use x="814" y="1198" xlink:href="#a"/><use x="944" y="1168" xlink:href="#a"/><use x="1037" y="1258" xlink:href="#a"/><use x="890" y="1274" xlink:href="#a"/><g stroke="#000" stroke-dasharray="20" stroke-width="20"><line x1="436" x2="658" y1="312" y2="308"/><line x1="355" x2="454" y1="456" y2="582"/><line x1="225" x2="187" y1="478" y2="953"/><line x1="1003" x2="1158" y1="295" y2="305"/><line x1="916" x2="1033" y1="447" y2="624"/><line x1="1498" x2="1703" y1="359" y2="433"/><line x1="1802" x2="1754" y1="609" y2="719"/><line x1="1905" x2="1912" y1="623" y2="1132"/><line x1="725" x2="955" y1="722" y2="738"/><line x1="679" x2="770" y1="843" y2="951"/><line x1="1292" x2="1494" y1="781" y2="825"/><line x1="1569" x2="1431" y1="1008" y2="1194"/><line x1="347" x2="674" y1="1096" y2="1055"/><line x1="170" x2="178" y1="1294" y2="1533"/><line x1="988" x2="1181" y1="1188" y2="1259"/><line x1="754" x2="709" y1="1254" y2="1380"/><line x1="1445" x2="1588" y1="1463" y2="1624"/><line x1="1824" x2="1760" y1="1462" y2="1588"/><line x1="352" x2="529" y1="1655" y2="1576"/><line x1="866" x2="1000" y1="1587" y2="1659"/><line x1="1320" x2="1535" y1="1721" y2="1733"/></g></svg>
