<?xml version="1.0" encoding="UTF-8"?>
<svg width="2050" height="2050" version="1.1" xmlns="http://www.w3.org/2000/svg" xmlns:xlink="http://www.w3.org/1999/xlink"><g fill="none" stroke="#000" stroke-width="6"><circle cx="226" cy="245" r="172"/><circle cx="1205" cy="297" r="172"/><circle cx="1847" cy="251" r="172"/><circle cx="190" cy="959" r="172"/><circle cx="677" cy="773" r="172"/><circle cx="1090" cy="845" r="172"/><circle cx="707" cy="1251" r="172"/><circle cx="1315" cy="1266" r="172"/><circle cx="1859" cy="1071" r="172"/><circle cx="232" cy="1640" r="172"/><circle cx="1001" cy="1805" r="172"/><circle cx="1826" cy="1802" r="172"/></g><g id="a"><path d="m450.5 378.3c-4.8-19.5 0.61-35.23 17.28-46.8 6.34 5.5 0.92 11.89 1.38 17.82-4.97 10.79-4.61 20.79 4.43 29.52 0.46 2.82-0.32 5.16-2.45 7.07-1.28 0.77-2.53 0.7-3.78-0.14-3.97-0.88-7.949-1.75-11.93-2.61-1.589-1.66-3.149-3.37-4.93-4.86" fill="#7f8184"/><path d="m465.4 349.2c-3.661-6.49 1.43-11.76 2.45-17.61 0.8-0.07 1.61-0.13 2.41-0.2 2.07 0.15 3.67 1.25 5.16 2.57 1.5 1.04 3.01 2.11 4.51 3.17 2.1 1.03 3.56 3.05 5.81 3.83 0.64 0.09 1.18 0.36 1.63 0.83 6.1 6.16 8.28 14.21 10.77 22.14 0.06 1.39 0.12 2.78 0.19 4.19-0.85 2.36-1.911 4.61-3.221 6.75-2.1 2.95-4.81 4.06-8.31 2.77-2.709-1.76-4.079-4.48-5.17-7.35 0.06-5.65 1.02-11.83-7.33-12.63-3.319-2.45-6.92-4.61-8.899-8.46" fill="#545456"/><path d="m470.4 385.6c0.04-2.18 0.089-4.37 0.13-6.54 1.49-3.98 4.629-4.37 8.209-3.81 5.52 2.78 6.86 7.2 2.83 11.7-5.58 6.22-4.54 11.34 0.91 16.58 2.34 0.12 4.7 0.22 7.051 0.34 1.91 1.15 1.86 2.63 0.709 4.29-6.33 3.44-13.11 1.9-19.77 1.73-4.101-4.32-2.58-9.34-1.78-14.26 0.13-1.54 0.25-3.09 0.39-4.62 0.61-1.77 1.31-3.51 1.32-5.41" fill="#545456"/><path d="m482.4 403.5c-8.36-2.64-7.649-8.96-5.49-15.1 1.18-3.36 3.02-6.45 3.14-10.13-0.49-4.76 2.13-4.15 5.08-2.94l9.44-2.14c1.02-0.8 1.98-0.73 2.88 0.2-1.77 5.87-4.33 11.57-10.27 13.88-9.15 3.54-8.17 9.36-4.78 16.23" fill="#8a8c8f"/><path d="m498.1 363.9c-6.03-6.2-7.38-14.67-10.77-22.14 7.93 5.27 11.13 12.83 10.77 22.14" fill="#7f8184"/><path d="m468.7 395.6c2.76 4.48 0.76 9.55 1.78 14.26-9.41-3.65-2.68-9.33-1.78-14.26" fill="#8a8c8f"/><path d="m470.4 385.6c1.43 2.26 1.389 4.16-1.32 5.41-0.55-1.73-1.101-3.45-1.661-5.17 1-0.08 1.981-0.16 2.981-0.24" fill="#8a8c8f"/><path d="m450.5 378.3c2.71 0.54 4.411 2.11 4.93 4.86-2.48-0.77-4.149-2.37-4.93-4.86" fill="#c2c4c6"/><path d="m497.5 373.4-2.88-0.21c1.22-1.7 2.43-3.41 3.67-5.11 1 1.95 0.21 3.66-0.79 5.32" fill="#7f8184"/><path d="m490.2 408.1c-0.23-1.43-0.47-2.86-0.709-4.29 1.879-0.5 3.99-0.71 4.389 1.67 0.44 2.64-1.85 2.55-3.68 2.62" fill="#8a8c8f"/><path d="m485.7 340.9c-2.74-0.05-4.72-1.27-5.81-3.82 2.68 0.16 4.551 1.53 5.81 3.82" fill="#7f8184"/><path d="m475.4 333.9c-1.72-0.86-3.439-1.71-5.16-2.57 2.8-1.3 4.44-0.28 5.16 2.57" fill="#7f8184"/><path d="m485.2 375.3c-2.28-0.02-3.921 1.05-5.09 2.94-3.2 0.25-6.39 0.51-9.6 0.76-15.89-3.92-17.63-14.08-5.13-29.87l12.04 2.2c8.19 3.72 4.22 12.15 6.98 17.98 1.75 1.8 2.09 3.78 0.8 5.99" fill="#e4e5e6"/><path d="m484.4 369.3c-2.819-0.77-9.079 1.61-5.709-5.17 2.45-4.93-1.21-8.54-1.27-12.82 11.14 2.58 9.64 10.06 6.98 17.99" fill="#787a7c"/></g><use x="269" y="1287" xlink:href="#a"/><use x="1114" y="878" xlink:href="#a"/><use x="-10" y="298" xlink:href="#a"/><use x="-45" y="404" xlink:href="#a"/><use x="267" y="59" xlink:href="#a"/><use x="-170" y="175" xlink:href="#a"/><use x="66" y="572" xlink:href="#a"/><use x="-12" y="618" xlink:href="#a"/><use x="-85" y="239" xlink:href="#a"/><use x="750" y="165" xlink:href="#a"/><use x="739" y="1236" xlink:href="#a"/><use x="787" y="632" xlink:href="#a"/><use x="815" y="1150" xlink:href="#a"/><use x="524" y="238" xlink:href="#a"/><use x="907" y="142" xlink:href="#a"/><use x="1004" y="347" xlink:href="#a"/><use x="940" y="1148" xlink:href="#a"/><use x="904" y="284" xlink:href="#a"/><use x="557" y="714" xlink:href="#a"/><use x="124" y="1094" xlink:href="#a"/><use x="248" y="1116" xlink:href="#a"/><use x="174" y="1216" xlink:href="#a"/><use x="95" y="1262" xlink:href="#a"/><use x="56" y="1155" xlink:href="#a"/><use x="1279" y="453" xlink:href="#a"/><use x="1291" y="925" xlink:href="#a"/><use x="1206" y="888" xlink:href="#a"/><use x="1311" y="1180" xlink:href="#a"/><use x="1317" y="1055" xlink:href="#a"/><use x="1239" y="1101" xlink:href="#a"/><use x="1200" y="994" xlink:href="#a"/><use x="1173" y="385" xlink:href="#a"/><use x="1278" y="186" xlink:href="#a"/><use x="1044" y="695" xlink:href="#a"/><use x="1191" y="533" xlink:href="#a"/><use x="1270" y="329" xlink:href="#a"/><use x="-73" y="742" xlink:href="#a"/><use x="137" y="672" xlink:href="#a"/><use x="-10" y="818" xlink:href="#a"/><use x="-47" y="957" xlink:href="#a"/><use x="-141" y="981" xlink:href="#a"/><use x="-164" y="812" xlink:href="#a"/><use x="-224" y="916" xlink:href="#a"/><use x="672" y="740" xlink:href="#a"/><use x="1155" y="652" xlink:href="#a"/><use x="675" y="1106" xlink:href="#a"/><use x="601" y="822" xlink:href="#a"/><use x="598" y="991" xlink:href="#a"/><use x="486" y="817" xlink:href="#a"/><use x="1005" y="1266" xlink:href="#a"/><use x="1029" y="1152" xlink:href="#a"/><use x="36" y="694" xlink:href="#a"/><use x="101" y="120" xlink:href="#a"/><use x="365" y="1" xlink:href="#a"/><use x="83" y="6" xlink:href="#a"/><use x="1132" y="39" xlink:href="#a"/><use x="1000" y="220" xlink:href="#a"/><use x="1030" y="61" xlink:href="#a"/><use x="727" y="266" xlink:href="#a"/><use x="453" y="1035" xlink:href="#a"/><use x="412" y="574" xlink:href="#a"/><use x="459" y="1210" xlink:href="#a"/><use x="882" y="1287" xlink:href="#a"/><use x="549" y="1124" xlink:href="#a"/><use x="647" y="1213" xlink:href="#a"/><use x="342" y="609" xlink:href="#a"/><use x="-127" y="336" xlink:href="#a"/><use x="192" y="150" xlink:href="#a"/><use x="412" y="300" xlink:href="#a"/><use x="923" y="451" xlink:href="#a"/><use x="1106" y="557" xlink:href="#a"/><use x="1132" y="1012" xlink:href="#a"/><g stroke="#000"><g stroke-dasharray="20" stroke-width="20"><line x1="208" x2="182" y1="421" y2="782"/><line x1="190" x2="195" y1="1136" y2="1469"/><line x1="340" x2="576" y1="1503" y2="1365"/><line x1="1855" x2="1866" y1="1630" y2="1246"/><line x1="1705" x2="1465" y1="1679" y2="1362"/><line x1="1866" x2="1858" y1="882" y2="426"/><line x1="1393" x2="1736" y1="1098" y2="395"/><line x1="546" x2="339" y1="640" y2="377"/><line x1="788" x2="913" y1="1416" y2="1644"/><line x1="689" x2="698" y1="959" y2="1069"/><line x1="1141" x2="1107" y1="478" y2="662"/><line x1="1184" x2="1222" y1="1008" y2="1097"/><line x1="971" x2="840" y1="996" y2="1129"/><line x1="855" x2="911" y1="804" y2="810"/><line x1="1273" x2="1326" y1="469" y2="1079"/></g><g stroke-width="50"><line x1="891" x2="1125" y1="1291" y2="1273"/><line x1="1189" x2="1635" y1="1802" y2="1790"/><line x1="1404" x2="1655" y1="296" y2="288"/><line x1="373" x2="504" y1="924" y2="855"/><line x1="1499" x2="1677" y1="1213" y2="1133"/><line x1="1039" x2="795" y1="402" y2="609"/></g></g></svg>
