<?xml version="1.0" encoding="UTF-8"?>
<svg width="2050" height="2050" version="1.1" xmlns="http://www.w3.org/2000/svg" xmlns:xlink="http://www.w3.org/1999/xlink"><g fill="none" stroke="#000" stroke-width="6"><circle cx="225.52" cy="245.41" r="172"/><circle cx="1205.2" cy="296.52" r="172"/><circle cx="1846.8" cy="251.09" r="172"/><circle cx="189.96" cy="958.9" r="172"/><circle cx="676.59" cy="773.05" r="172"/><circle cx="1089.8" cy="844.59" r="172"/><circle cx="706.75" cy="1250.9" r="172"/><circle cx="1314.5" cy="1265.7" r="172"/><circle cx="1858.6" cy="1071.2" r="172"/><circle cx="231.77" cy="1640.4" r="172"/><circle cx="1001" cy="1804.6" r="172"/><circle cx="1825.5" cy="1802.5" r="172"/></g><g id="a"><path d="m450.52 378.34c-4.8-19.5 0.61-35.23 17.28-46.8 6.34 5.5 0.92 11.89 1.38 17.82-4.97 10.79-4.61 20.79 4.43 29.52 0.46 2.82-0.32 5.16-2.45 7.07-1.28 0.77-2.53 0.7-3.78-0.14-3.97-0.88-7.949-1.75-11.93-2.61-1.589-1.66-3.149-3.37-4.93-4.86" fill="#7f8184"/><path d="m465.36 349.15c-3.661-6.49 1.43-11.76 2.45-17.61 0.8-0.07 1.61-0.13 2.41-0.2 2.07 0.15 3.67 1.25 5.16 2.57 1.5 1.04 3.01 2.11 4.51 3.17 2.1 1.03 3.56 3.05 5.81 3.83 0.64 0.09 1.18 0.36 1.63 0.83 6.1 6.16 8.28 14.21 10.77 22.14 0.06 1.39 0.12 2.78 0.19 4.19-0.85 2.36-1.911 4.61-3.221 6.75-2.1 2.95-4.81 4.06-8.31 2.77-2.709-1.76-4.079-4.48-5.17-7.35 0.06-5.65 1.02-11.83-7.33-12.63-3.319-2.45-6.92-4.61-8.899-8.46" fill="#545456"/><path d="m470.37 385.56c0.04-2.18 0.089-4.37 0.13-6.54 1.49-3.98 4.629-4.37 8.209-3.81 5.52 2.78 6.86 7.2 2.83 11.7-5.58 6.22-4.54 11.34 0.91 16.58 2.34 0.12 4.7 0.22 7.051 0.34 1.91 1.15 1.86 2.63 0.709 4.29-6.33 3.44-13.11 1.9-19.769 1.73-4.101-4.32-2.58-9.34-1.78-14.26 0.13-1.54 0.25-3.09 0.39-4.62 0.61-1.77 1.31-3.51 1.32-5.41" fill="#545456"/><path d="m482.45 403.49c-8.36-2.64-7.649-8.96-5.49-15.1 1.18-3.36 3.02-6.45 3.14-10.13-0.49-4.76 2.13-4.15 5.08-2.94l9.44-2.14c1.02-0.8 1.98-0.73 2.88 0.2-1.77 5.87-4.33 11.57-10.27 13.88-9.15 3.54-8.17 9.36-4.78 16.23" fill="#8a8c8f"/><path d="m498.1 363.87c-6.03-6.2-7.38-14.67-10.77-22.14 7.93 5.27 11.13 12.83 10.77 22.14" fill="#7f8184"/><path d="m468.66 395.59c2.76 4.48 0.76 9.55 1.78 14.26-9.41-3.65-2.68-9.33-1.78-14.26" fill="#8a8c8f"/><path d="m470.37 385.56c1.43 2.26 1.389 4.16-1.32 5.41-0.55-1.73-1.101-3.45-1.661-5.17 1-0.08 1.981-0.16 2.981-0.24" fill="#8a8c8f"/><path d="m450.52 378.34c2.71 0.54 4.411 2.11 4.93 4.86-2.48-0.77-4.149-2.37-4.93-4.86" fill="#c2c4c6"/><path d="m497.5 373.38-2.88-0.21c1.22-1.7 2.43-3.41 3.67-5.11 1 1.95 0.21 3.66-0.79 5.32" fill="#7f8184"/><path d="m490.21 408.12c-0.23-1.43-0.47-2.86-0.709-4.29 1.879-0.5 3.99-0.71 4.389 1.67 0.44 2.64-1.85 2.55-3.68 2.62" fill="#8a8c8f"/><path d="m485.7 340.9c-2.74-0.05-4.72-1.27-5.81-3.82 2.68 0.16 4.551 1.53 5.81 3.82" fill="#7f8184"/><path d="m475.38 333.9c-1.72-0.86-3.439-1.71-5.16-2.57 2.8-1.3 4.44-0.28 5.16 2.57" fill="#7f8184"/><path d="m485.18 375.32c-2.28-0.02-3.921 1.05-5.09 2.94-3.2 0.25-6.39 0.51-9.6 0.76-15.89-3.92-17.63-14.08-5.13-29.87l12.04 2.2c8.19 3.72 4.22 12.15 6.98 17.98 1.75 1.8 2.09 3.78 0.8 5.99" fill="#e4e5e6"/><path d="m484.38 369.33c-2.819-0.77-9.079 1.61-5.709-5.17 2.45-4.93-1.21-8.54-1.27-12.82 11.14 2.58 9.64 10.06 6.98 17.99" fill="#787a7c"/></g><use x="269.30077" y="1287.3231" xlink:href="#a"/><use x="1114.0856" y="877.52998" xlink:href="#a"/><use x="-10.464084" y="298.22304" xlink:href="#a"/><use x="-44.721384" y="404.45718" xlink:href="#a"/><use x="266.82327" y="59.358687" xlink:href="#a"/><use x="-169.98338" y="175.35999" xlink:href="#a"/><use x="66.286316" y="571.75459" xlink:href="#a"/><use x="-11.911384" y="617.98806" xlink:href="#a"/><use x="-85.453684" y="239.11062" xlink:href="#a"/><use x="750.11215" y="165.32729" xlink:href="#a"/><use x="738.79153" y="1236.2924" xlink:href="#a"/><use x="786.95883" y="632.41511" xlink:href="#a"/><use x="814.80823" y="1149.9073" xlink:href="#a"/><use x="524.41175" y="237.88812" xlink:href="#a"/><use x="906.88294" y="141.77549" xlink:href="#a"/><use x="1004.0969" y="347.11807" xlink:href="#a"/><use x="939.86104" y="1148.4182" xlink:href="#a"/><use x="903.53244" y="284.04771" xlink:href="#a"/><use x="556.74207" y="713.57808" xlink:href="#a"/><use x="124.35562" y="1094.27" xlink:href="#a"/><use x="248.48327" y="1116.2582" xlink:href="#a"/><use x="173.67256" y="1216.0582" xlink:href="#a"/><use x="95.470016" y="1262.2955" xlink:href="#a"/><use x="56.070416" y="1155.4847" xlink:href="#a"/><use x="1279.0203" y="453.24651" xlink:href="#a"/><use x="1290.8232" y="924.95" xlink:href="#a"/><use x="1206.302" y="887.68" xlink:href="#a"/><use x="1310.9027" y="1179.8682" xlink:href="#a"/><use x="1317.3103" y="1054.9781" xlink:href="#a"/><use x="1239.1058" y="1101.2152" xlink:href="#a"/><use x="1199.7077" y="994.40865" xlink:href="#a"/><use x="1173.2677" y="385.23808" xlink:href="#a"/><use x="1278.3182" y="186.04809" xlink:href="#a"/><use x="1043.6309" y="694.55461" xlink:href="#a"/><use x="1190.9402" y="532.6546" xlink:href="#a"/><use x="1270.0197" y="328.54" xlink:href="#a"/><use x="-72.951384" y="742.40182" xlink:href="#a"/><use x="137.23883" y="671.63809" xlink:href="#a"/><use x="-9.743684" y="817.54" xlink:href="#a"/><use x="-46.529384" y="957.11" xlink:href="#a"/><use x="-141.33118" y="980.73" xlink:href="#a"/><use x="-164.06938" y="811.85808" xlink:href="#a"/><use x="-223.94158" y="915.74897" xlink:href="#a"/><use x="671.77947" y="739.90115" xlink:href="#a"/><use x="1155.3342" y="652.46" xlink:href="#a"/><use x="675.35039" y="1106.4881" xlink:href="#a"/><use x="601.14514" y="822.07241" xlink:href="#a"/><use x="597.54596" y="990.91809" xlink:href="#a"/><use x="485.59556" y="817.37705" xlink:href="#a"/><use x="1005.0352" y="1265.9124" xlink:href="#a"/><use x="1028.5824" y="1151.5176" xlink:href="#a"/><use x="36.230516" y="694.39549" xlink:href="#a"/><use x="101.46882" y="119.75999" xlink:href="#a"/><use x="365.30645" y="0.72807708" xlink:href="#a"/><use x="82.915716" y="6.4792771" xlink:href="#a"/><use x="1132.4479" y="38.952387" xlink:href="#a"/><use x="999.66754" y="219.52812" xlink:href="#a"/><use x="1030.0939" y="61.063787" xlink:href="#a"/><use x="727.23309" y="266.28811" xlink:href="#a"/><use x="452.51818" y="1034.8525" xlink:href="#a"/><use x="412.37574" y="573.82" xlink:href="#a"/><use x="458.59887" y="1209.5181" xlink:href="#a"/><use x="881.94084" y="1287.4824" xlink:href="#a"/><use x="549.36416" y="1124.0478" xlink:href="#a"/><use x="646.82813" y="1212.9281" xlink:href="#a"/><use x="342.41866" y="609.32058" xlink:href="#a"/><use x="-126.91458" y="336.28808" xlink:href="#a"/><use x="192.2311" y="150.31898" xlink:href="#a"/><use x="412.43645" y="299.88308" xlink:href="#a"/><use x="922.59723" y="450.74652" xlink:href="#a"/><use x="1106.0382" y="557.34866" xlink:href="#a"/><use x="1131.7546" y="1012.3081" xlink:href="#a"/><g stroke="#000"><g stroke-dasharray="20" stroke-width="20"><line x1="207.5" x2="182.45" y1="420.56" y2="782.15"/><line x1="189.96" x2="194.98" y1="1135.5" y2="1468.8"/><line x1="339.86" x2="576.32" y1="1503.5" y2="1365.2"/><line x1="1854.6" x2="1866.1" y1="1629.6" y2="1245.8"/><line x1="1705.3" x2="1465.1" y1="1679.3" y2="1361.6"/><line x1="1866.1" x2="1858.4" y1="881.9" y2="426.06"/><line x1="1393.2" x2="1735.8" y1="1097.9" y2="394.75"/><line x1="546.3" x2="339.21" y1="639.81" y2="377.2"/><line x1="787.63" x2="913.26" y1="1416.1" y2="1644.4"/><line x1="689.35" x2="698.37" y1="958.89" y2="1069.4"/><line x1="1141.3" x2="1107" y1="477.72" y2="662.4"/><line x1="1184.4" x2="1221.8" y1="1008.4" y2="1097.3"/><line x1="971.3" x2="839.95" y1="995.52" y2="1129.3"/><line x1="855.19" x2="911.18" y1="804.03" y2="810.27"/><line x1="1273.2" x2="1325.7" y1="469.2" y2="1078.9"/></g><g stroke-width="50"><line x1="891.07" x2="1124.8" y1="1290.9" y2="1272.8"/><line x1="1189.3" x2="1635.2" y1="1802.3" y2="1790"/><line x1="1403.6" x2="1655.1" y1="296.33" y2="287.79"/><line x1="372.61" x2="503.63" y1="923.62" y2="855.04"/><line x1="1499.1" x2="1676.9" y1="1213.3" y2="1132.8"/><line x1="1038.6" x2="795.41" y1="401.83" y2="608.61"/></g></g></svg>
