<?xml version="1.0" encoding="UTF-8"?>
<svg width="2050" height="2050" version="1.1" xmlns="http://www.w3.org/2000/svg" xmlns:xlink="http://www.w3.org/1999/xlink"><g fill="#6491b1"><path d="m1685.1 1069.5c-7.82 1.5-15.68 2.65-23.59 3.36-39.15 3.51-79.03-2.63-117.95-14.84-4.72 16.47-11.71 31.98-20.64 46.16 45.63 15.02 93.9 22.92 143.06 18.51 9.56-0.86 19.04-2.24 28.45-4.03-5.27-15.56-8.51-32.04-9.33-49.16z"/><path d="m1248 895.22c-30.16-13.397-61.86-24.061-95.4-29.581-27.52-4.531-55.04-5.422-82.23-3.891-27.18 1.532-54.03 5.479-80.112 10.66-8.036 1.596-15.915 3.462-23.84 5.257 9.898 14.022 17.836 29.513 23.416 46.088 3.39-0.724 6.797-1.58 10.186-2.252 48.8-9.691 97.97-14.137 144.49-6.483 25.71 4.231 50.93 12.299 75.7 22.77 7.24-15.52 16.63-29.829 27.79-42.568z"/><path d="m358.39 976.38c98.208 15.372 198.15 19.646 297.32 12.624-0.171-3.203-0.263-6.426-0.263-9.673 0-14.061 1.68-27.734 4.756-40.873-100.42 7.738-201.79 3.423-301.2-12.702 0.965 7.529 1.521 15.191 1.521 22.978 0 9.401-0.736 18.631-2.134 27.646z"/></g><g fill="none" stroke="#000" stroke-width="6"><circle cx="225.53" cy="235.74" r="172"/><circle cx="791.01" cy="282.06" r="172"/><circle cx="1283.3" cy="384.85" r="172"/><circle cx="1846.8" cy="241.41" r="172"/><circle cx="189.98" cy="949.22" r="172"/><circle cx="827.18" cy="979.03" r="172"/><circle cx="1376" cy="1010.9" r="172"/><circle cx="1858.7" cy="1061.6" r="172"/><circle cx="231.78" cy="1630.7" r="172"/><circle cx="810.79" cy="1814.3" r="172"/><circle cx="1306.3" cy="1596.1" r="172"/><circle cx="1825.6" cy="1792.8" r="172"/></g><g id="a"><path d="m450.51 368.66c-4.79-19.5 0.62-35.23 17.291-46.8 6.339 5.49 0.92 11.88 1.38 17.82-4.981 10.79-4.611 20.79 4.42 29.519 0.47 2.8-0.32 5.161-2.44 7.06-1.28 0.77-2.54 0.721-3.78-0.139-3.97-0.871-7.95-1.731-11.93-2.601-1.6-1.67-3.15-3.38-4.94-4.86" fill="#7f8184"/><path d="m465.36 339.47c-3.661-6.5 1.43-11.77 2.45-17.61 0.8-0.07 1.61-0.14 2.41-0.221 2.07 0.161 3.67 1.25 5.16 2.58 1.5 1.05 3.01 2.11 4.51 3.16 2.1 1.041 3.56 3.051 5.81 3.84 0.64 0.09 1.18 0.37 1.63 0.82 6.1 6.16 8.28 14.23 10.77 22.14 0.06 1.4 0.12 2.79 0.18 4.2-0.84 2.35-1.9 4.61-3.22 6.75-2.09 2.96-4.801 4.05-8.301 2.76-2.709-1.75-4.079-4.46-5.17-7.34 0.06-5.65 1.02-11.82-7.339-12.63-3.31-2.45-6.911-4.61-8.89-8.45" fill="#545456"/><path d="m470.37 375.88c0.04-2.18 0.089-4.38 0.13-6.56 1.49-3.959 4.629-4.35 8.209-3.8 5.52 2.79 6.86 7.2 2.82 11.7-5.57 6.21-4.529 11.34 0.911 16.58 2.35 0.11 4.709 0.24 7.06 0.34 1.91 1.15 1.85 2.63 0.709 4.29-6.33 3.45-13.11 1.91-19.769 1.73-4.111-4.32-2.59-9.34-1.791-14.27 0.14-1.529 0.26-3.08 0.4-4.6 0.61-1.77 1.3-3.52 1.32-5.41" fill="#545456"/><path d="m482.44 393.8c-8.351-2.64-7.64-8.94-5.481-15.101 1.18-3.339 3.01-6.45 3.14-10.13-0.49-4.76 2.13-4.139 5.08-2.94 3.15-0.72 6.29-1.43 9.43-2.13 1.03-0.8 1.99-0.73 2.89 0.2-1.77 5.86-4.33 11.57-10.27 13.86-9.16 3.551-8.17 9.371-4.79 16.241" fill="#8a8c8f"/><path d="m498.1 354.18c-6.03-6.2-7.38-14.661-10.77-22.14 7.93 5.269 11.13 12.839 10.77 22.14" fill="#7f8184"/><path d="m468.65 385.9c2.77 4.48 0.77 9.56 1.791 14.26-9.411-3.65-2.681-9.32-1.791-14.26" fill="#8a8c8f"/><path d="m470.37 375.88c1.43 2.25 1.389 4.161-1.32 5.411-0.55-1.74-1.101-3.45-1.661-5.18 1-0.07 1.981-0.161 2.981-0.231" fill="#8a8c8f"/><path d="m450.51 368.66c2.721 0.529 4.411 2.1 4.94 4.86-2.48-0.77-4.149-2.36-4.94-4.86" fill="#c2c4c6"/><path d="m497.5 363.7c-0.971-0.07-1.921-0.14-2.88-0.209 1.209-1.71 2.43-3.411 3.66-5.12 1 1.959 0.22 3.66-0.78 5.329" fill="#7f8184"/><path d="m490.21 398.44c-0.23-1.43-0.47-2.86-0.709-4.29 1.879-0.5 3.99-0.72 4.389 1.66 0.44 2.64-1.85 2.561-3.68 2.63" fill="#8a8c8f"/><path d="m485.7 331.22c-2.74-0.05-4.72-1.27-5.81-3.83 2.671 0.16 4.551 1.54 5.81 3.83" fill="#7f8184"/><path d="m475.38 324.22-5.16-2.58c2.79-1.3 4.44-0.28 5.16 2.58" fill="#7f8184"/><path d="m485.18 365.63c-2.28-0.019-3.921 1.051-5.09 2.94-3.2 0.25-6.39 0.51-9.6 0.76-15.89-3.92-17.63-14.08-5.13-29.87 4.01 0.73 8.019 1.46 12.04 2.19 8.19 3.721 4.22 12.16 6.98 18 1.75 1.79 2.09 3.78 0.8 5.98" fill="#e4e5e6"/><path d="m484.38 359.65c-2.819-0.779-9.079 1.6-5.709-5.17 2.45-4.93-1.21-8.55-1.27-12.83 11.13 2.58 9.64 10.07 6.98 18" fill="#787a7c"/></g><use x="139.73705" y="268.0957" xlink:href="#a"/><use x="1114.089" y="877.53601" xlink:href="#a"/><use x="39.806438" y="441.72833" xlink:href="#a"/><use x="-10.460361" y="298.21835" xlink:href="#a"/><use x="-44.715363" y="404.45074" xlink:href="#a"/><use x="227.07298" y="309.03265" xlink:href="#a"/><use x="-169.98225" y="175.36455" xlink:href="#a"/><use x="104.78694" y="474.51544" xlink:href="#a"/><use x="184.86497" y="482.89996" xlink:href="#a"/><use x="-51.307659" y="511.1817" xlink:href="#a"/><use x="730.3504" y="321.78546" xlink:href="#a"/><use x="708.31195" y="418.06824" xlink:href="#a"/><use x="637.8432" y="372.94614" xlink:href="#a"/><use x="545.88879" y="458.14264" xlink:href="#a"/><use x="817.68182" y="362.72546" xlink:href="#a"/><use x="547.35004" y="333.16278" xlink:href="#a"/><use x="656.89685" y="625.44965" xlink:href="#a"/><use x="578.69916" y="671.68146" xlink:href="#a"/><use x="451.98004" y="919.84283" xlink:href="#a"/><use x="157.20477" y="1052.8536" xlink:href="#a"/><use x="62.664738" y="1048.7585" xlink:href="#a"/><use x="248.48708" y="1116.2611" xlink:href="#a"/><use x="242.39429" y="973.67157" xlink:href="#a"/><use x="173.67609" y="1216.063" xlink:href="#a"/><use x="95.476242" y="1262.2896" xlink:href="#a"/><use x="56.07444" y="1155.4905" xlink:href="#a"/><use x="1279.026" y="453.24545" xlink:href="#a"/><use x="1290.8252" y="924.95844" xlink:href="#a"/><use x="1206.3018" y="887.68158" xlink:href="#a"/><use x="1310.9045" y="1179.8691" xlink:href="#a"/><use x="1317.316" y="1054.9847" xlink:href="#a"/><use x="1239.1095" y="1101.2205" xlink:href="#a"/><use x="1199.7148" y="994.41351" xlink:href="#a"/><use x="1124.3779" y="388.03525" xlink:href="#a"/><use x="1278.321" y="186.04555" xlink:href="#a"/><use x="1189.3602" y="420.82111" xlink:href="#a"/><use x="1190.9435" y="532.65283" xlink:href="#a"/><use x="1270.0198" y="328.53616" xlink:href="#a"/><use x="-72.948463" y="742.40417" xlink:href="#a"/><use x="137.24484" y="671.64392" xlink:href="#a"/><use x="-7.9652615" y="775.19495" xlink:href="#a"/><use x="-46.45916" y="872.43158" xlink:href="#a"/><use x="-124.65826" y="918.66913" xlink:href="#a"/><use x="-164.06577" y="811.86169" xlink:href="#a"/><use x="-223.93576" y="915.75116" xlink:href="#a"/><use x="748.54059" y="817.57825" xlink:href="#a"/><use x="664.01843" y="780.29413" xlink:href="#a"/><use x="1155.3378" y="652.46405" xlink:href="#a"/><use x="936.10413" y="947.6059" xlink:href="#a"/><use x="696.82617" y="993.84174" xlink:href="#a"/><use x="657.42206" y="887.02795" xlink:href="#a"/><use x="597.54755" y="990.9281" xlink:href="#a"/><use x="539.6853" y="882.57922" xlink:href="#a"/><use x="1012.1741" y="1032.9135" xlink:href="#a"/><use x="1055.127" y="1134.9281" xlink:href="#a"/><use x="36.232639" y="694.3924" xlink:href="#a"/><use x="120.49404" y="139.94395" xlink:href="#a"/><use x="532.89661" y="77.26825" xlink:href="#a"/><use x="372.13409" y="140.10796" xlink:href="#a"/><use x="82.920441" y="6.4772596" xlink:href="#a"/><use x="1132.4519" y="38.950142" xlink:href="#a"/><use x="999.66119" y="219.53009" xlink:href="#a"/><use x="1030.0962" y="61.06535" xlink:href="#a"/><use x="850.19684" y="265.70609" xlink:href="#a"/><use x="927.70367" y="349.53006" xlink:href="#a"/><use x="536.50439" y="1062.3643" xlink:href="#a"/><use x="612.0755" y="274.1655" xlink:href="#a"/><use x="458.60486" y="1209.5211" xlink:href="#a"/><use x="521.34308" y="1295.2448" xlink:href="#a"/><use x="469.89423" y="1108.0867" xlink:href="#a"/><use x="549.97144" y="1197.006" xlink:href="#a"/><use x="406.35281" y="1036.3755" xlink:href="#a"/><use x="330.51282" y="358.19073" xlink:href="#a"/><use x="-126.91086" y="336.29025" xlink:href="#a"/><use x="260.73419" y="190.9064" xlink:href="#a"/><use x="412.44244" y="299.87833" xlink:href="#a"/><use x="607.13684" y="159.53009" xlink:href="#a"/><use x="1106.0442" y="557.34869" xlink:href="#a"/><use x="1147.2437" y="801.88568" xlink:href="#a"/><g stroke="#000" stroke-dasharray="20" stroke-width="20"><line x1="402.43" x2="617.14" y1="244.79" y2="268.43"/><line x1="207.5" x2="182.44" y1="410.88" y2="772.47"/><line x1="189.96" x2="194.97" y1="1125.8" y2="1459.1"/><line x1="339.86" x2="703.89" y1="1493.8" y2="1107.2"/><line x1="388.41" x2="645.51" y1="1699.1" y2="1778.5"/><line x1="972.69" x2="1157.6" y1="1765.6" y2="1677.6"/><line x1="1460.3" x2="1656.5" y1="1666.8" y2="1737.4"/><line x1="1854.6" x2="1866.1" y1="1619.9" y2="1236.1"/><line x1="1705.3" x2="1460.4" y1="1669.6" y2="1157.8"/><line x1="1866.1" x2="1858.4" y1="872.21" y2="416.38"/><line x1="1466.6" x2="1662.5" y1="335.78" y2="277.98"/><line x1="1454.6" x2="1735.8" y1="840.48" y2="385.06"/><line x1="966.75" x2="1105.8" y1="309.27" y2="349.59"/><line x1="716.41" x2="339.2" y1="845.84" y2="367.5"/><line x1="1346.6" x2="1324.3" y1="1184.1" y2="1417.4"/><line x1="828.76" x2="816.33" y1="1158.7" y2="1635.8"/></g></svg>
