<?xml version="1.0" encoding="UTF-8"?>
<svg width="2050" height="2050" version="1.1" xmlns="http://www.w3.org/2000/svg" xmlns:xlink="http://www.w3.org/1999/xlink"><g fill="#6491b1"><path d="m1685 1070c-7.82 1.5-15.68 2.65-23.59 3.36-39.15 3.51-79.03-2.63-118-14.84-4.72 16.47-11.71 31.98-20.64 46.16 45.63 15.02 93.9 22.92 143.1 18.51 9.56-0.86 19.04-2.24 28.45-4.03-5.27-15.56-8.51-32.04-9.33-49.16z"/><path d="m1248 895.2c-30.16-13.4-61.86-24.06-95.4-29.58-27.52-4.531-55.04-5.422-82.23-3.891-27.18 1.532-54.03 5.479-80.11 10.66-8.036 1.596-15.92 3.462-23.84 5.257 9.898 14.02 17.84 29.51 23.42 46.09 3.39-0.724 6.797-1.58 10.19-2.252 48.8-9.691 97.97-14.14 144.5-6.483 25.71 4.231 50.93 12.3 75.7 22.77 7.24-15.52 16.63-29.83 27.79-42.57z"/><path d="m358.4 976.4c98.21 15.37 198.2 19.65 297.3 12.62-0.171-3.203-0.263-6.426-0.263-9.673 0-14.06 1.68-27.73 4.756-40.87-100.4 7.738-201.8 3.423-301.2-12.7 0.965 7.529 1.521 15.19 1.521 22.98 0 9.401-0.736 18.63-2.134 27.65z"/></g><g fill="none" stroke="#000" stroke-width="6"><circle cx="226" cy="236" r="172"/><circle cx="791" cy="282" r="172"/><circle cx="1283" cy="385" r="172"/><circle cx="1847" cy="241" r="172"/><circle cx="190" cy="949" r="172"/><circle cx="827" cy="979" r="172"/><circle cx="1376" cy="1011" r="172"/><circle cx="1859" cy="1062" r="172"/><circle cx="232" cy="1631" r="172"/><circle cx="811" cy="1814" r="172"/><circle cx="1306" cy="1596" r="172"/><circle cx="1826" cy="1793" r="172"/></g><g id="a"><path d="m450.5 368.7c-4.79-19.5 0.62-35.23 17.29-46.8 6.339 5.49 0.92 11.88 1.38 17.82-4.981 10.79-4.611 20.79 4.42 29.52 0.47 2.8-0.32 5.161-2.44 7.06-1.28 0.77-2.54 0.721-3.78-0.139-3.97-0.871-7.95-1.731-11.93-2.601-1.6-1.67-3.15-3.38-4.94-4.86" fill="#7f8184"/><path d="m465.4 339.5c-3.661-6.5 1.43-11.77 2.45-17.61 0.8-0.07 1.61-0.14 2.41-0.221 2.07 0.161 3.67 1.25 5.16 2.58 1.5 1.05 3.01 2.11 4.51 3.16 2.1 1.041 3.56 3.051 5.81 3.84 0.64 0.09 1.18 0.37 1.63 0.82 6.1 6.16 8.28 14.23 10.77 22.14 0.06 1.4 0.12 2.79 0.18 4.2-0.84 2.35-1.9 4.61-3.22 6.75-2.09 2.96-4.801 4.05-8.301 2.76-2.709-1.75-4.079-4.46-5.17-7.34 0.06-5.65 1.02-11.82-7.339-12.63-3.31-2.45-6.911-4.61-8.89-8.45" fill="#545456"/><path d="m470.4 375.9c0.04-2.18 0.089-4.38 0.13-6.56 1.49-3.959 4.629-4.35 8.209-3.8 5.52 2.79 6.86 7.2 2.82 11.7-5.57 6.21-4.529 11.34 0.911 16.58 2.35 0.11 4.709 0.24 7.06 0.34 1.91 1.15 1.85 2.63 0.709 4.29-6.33 3.45-13.11 1.91-19.77 1.73-4.111-4.32-2.59-9.34-1.791-14.27 0.14-1.529 0.26-3.08 0.4-4.6 0.61-1.77 1.3-3.52 1.32-5.41" fill="#545456"/><path d="m482.4 393.8c-8.351-2.64-7.64-8.94-5.481-15.1 1.18-3.339 3.01-6.45 3.14-10.13-0.49-4.76 2.13-4.139 5.08-2.94 3.15-0.72 6.29-1.43 9.43-2.13 1.03-0.8 1.99-0.73 2.89 0.2-1.77 5.86-4.33 11.57-10.27 13.86-9.16 3.551-8.17 9.371-4.79 16.24" fill="#8a8c8f"/><path d="m498.1 354.2c-6.03-6.2-7.38-14.66-10.77-22.14 7.93 5.269 11.13 12.84 10.77 22.14" fill="#7f8184"/><path d="m468.6 385.9c2.77 4.48 0.77 9.56 1.791 14.26-9.411-3.65-2.681-9.32-1.791-14.26" fill="#8a8c8f"/><path d="m470.4 375.9c1.43 2.25 1.389 4.161-1.32 5.411-0.55-1.74-1.101-3.45-1.661-5.18 1-0.07 1.981-0.161 2.981-0.231" fill="#8a8c8f"/><path d="m450.5 368.7c2.721 0.529 4.411 2.1 4.94 4.86-2.48-0.77-4.149-2.36-4.94-4.86" fill="#c2c4c6"/><path d="m497.5 363.7c-0.971-0.07-1.921-0.14-2.88-0.209 1.209-1.71 2.43-3.411 3.66-5.12 1 1.959 0.22 3.66-0.78 5.329" fill="#7f8184"/><path d="m490.2 398.4c-0.23-1.43-0.47-2.86-0.709-4.29 1.879-0.5 3.99-0.72 4.389 1.66 0.44 2.64-1.85 2.561-3.68 2.63" fill="#8a8c8f"/><path d="m485.7 331.2c-2.74-0.05-4.72-1.27-5.81-3.83 2.671 0.16 4.551 1.54 5.81 3.83" fill="#7f8184"/><path d="m475.4 324.2-5.16-2.58c2.79-1.3 4.44-0.28 5.16 2.58" fill="#7f8184"/><path d="m485.2 365.6c-2.28-0.019-3.921 1.051-5.09 2.94-3.2 0.25-6.39 0.51-9.6 0.76-15.89-3.92-17.63-14.08-5.13-29.87 4.01 0.73 8.019 1.46 12.04 2.19 8.19 3.721 4.22 12.16 6.98 18 1.75 1.79 2.09 3.78 0.8 5.98" fill="#e4e5e6"/><path d="m484.4 359.7c-2.819-0.779-9.079 1.6-5.709-5.17 2.45-4.93-1.21-8.55-1.27-12.83 11.13 2.58 9.64 10.07 6.98 18" fill="#787a7c"/></g><use x="140" y="268" xlink:href="#a"/><use x="1114" y="878" xlink:href="#a"/><use x="40" y="442" xlink:href="#a"/><use x="-10" y="298" xlink:href="#a"/><use x="-45" y="404" xlink:href="#a"/><use x="227" y="309" xlink:href="#a"/><use x="-170" y="175" xlink:href="#a"/><use x="105" y="475" xlink:href="#a"/><use x="185" y="483" xlink:href="#a"/><use x="-51" y="511" xlink:href="#a"/><use x="730" y="322" xlink:href="#a"/><use x="708" y="418" xlink:href="#a"/><use x="638" y="373" xlink:href="#a"/><use x="546" y="458" xlink:href="#a"/><use x="818" y="363" xlink:href="#a"/><use x="547" y="333" xlink:href="#a"/><use x="657" y="625" xlink:href="#a"/><use x="579" y="672" xlink:href="#a"/><use x="452" y="920" xlink:href="#a"/><use x="157" y="1053" xlink:href="#a"/><use x="63" y="1049" xlink:href="#a"/><use x="248" y="1116" xlink:href="#a"/><use x="242" y="974" xlink:href="#a"/><use x="174" y="1216" xlink:href="#a"/><use x="95" y="1262" xlink:href="#a"/><use x="56" y="1155" xlink:href="#a"/><use x="1279" y="453" xlink:href="#a"/><use x="1291" y="925" xlink:href="#a"/><use x="1206" y="888" xlink:href="#a"/><use x="1311" y="1180" xlink:href="#a"/><use x="1317" y="1055" xlink:href="#a"/><use x="1239" y="1101" xlink:href="#a"/><use x="1200" y="994" xlink:href="#a"/><use x="1124" y="388" xlink:href="#a"/><use x="1278" y="186" xlink:href="#a"/><use x="1189" y="421" xlink:href="#a"/><use x="1191" y="533" xlink:href="#a"/><use x="1270" y="329" xlink:href="#a"/><use x="-73" y="742" xlink:href="#a"/><use x="137" y="672" xlink:href="#a"/><use x="-8" y="775" xlink:href="#a"/><use x="-46" y="872" xlink:href="#a"/><use x="-125" y="919" xlink:href="#a"/><use x="-164" y="812" xlink:href="#a"/><use x="-224" y="916" xlink:href="#a"/><use x="749" y="818" xlink:href="#a"/><use x="664" y="780" xlink:href="#a"/><use x="1155" y="652" xlink:href="#a"/><use x="936" y="948" xlink:href="#a"/><use x="697" y="994" xlink:href="#a"/><use x="657" y="887" xlink:href="#a"/><use x="598" y="991" xlink:href="#a"/><use x="540" y="883" xlink:href="#a"/><use x="1012" y="1033" xlink:href="#a"/><use x="1055" y="1135" xlink:href="#a"/><use x="36" y="694" xlink:href="#a"/><use x="120" y="140" xlink:href="#a"/><use x="533" y="77" xlink:href="#a"/><use x="372" y="140" xlink:href="#a"/><use x="83" y="6" xlink:href="#a"/><use x="1132" y="39" xlink:href="#a"/><use x="1000" y="220" xlink:href="#a"/><use x="1030" y="61" xlink:href="#a"/><use x="850" y="266" xlink:href="#a"/><use x="928" y="350" xlink:href="#a"/><use x="537" y="1062" xlink:href="#a"/><use x="612" y="274" xlink:href="#a"/><use x="459" y="1210" xlink:href="#a"/><use x="521" y="1295" xlink:href="#a"/><use x="470" y="1108" xlink:href="#a"/><use x="550" y="1197" xlink:href="#a"/><use x="406" y="1036" xlink:href="#a"/><use x="331" y="358" xlink:href="#a"/><use x="-127" y="336" xlink:href="#a"/><use x="261" y="191" xlink:href="#a"/><use x="412" y="300" xlink:href="#a"/><use x="607" y="160" xlink:href="#a"/><use x="1106" y="557" xlink:href="#a"/><use x="1147" y="802" xlink:href="#a"/><g stroke="#000" stroke-dasharray="20" stroke-width="20"><line x1="402" x2="617" y1="245" y2="268"/><line x1="208" x2="182" y1="411" y2="773"/><line x1="190" x2="195" y1="1126" y2="1459"/><line x1="340" x2="704" y1="1494" y2="1107"/><line x1="388" x2="646" y1="1699" y2="1778"/><line x1="973" x2="1158" y1="1766" y2="1678"/><line x1="1460" x2="1656" y1="1667" y2="1737"/><line x1="1855" x2="1866" y1="1620" y2="1236"/><line x1="1705" x2="1460" y1="1670" y2="1158"/><line x1="1866" x2="1858" y1="872" y2="416"/><line x1="1467" x2="1662" y1="336" y2="278"/><line x1="1455" x2="1736" y1="841" y2="385"/><line x1="967" x2="1106" y1="309" y2="350"/><line x1="716" x2="339" y1="846" y2="368"/><line x1="1347" x2="1324" y1="1184" y2="1417"/><line x1="829" x2="816" y1="1159" y2="1636"/></g></svg>
