<?xml version="1.0" encoding="UTF-8"?>
<svg width="638.67" height="638.67" version="1.1" viewBox="0 0 638.67 638.67" xmlns="http://www.w3.org/2000/svg" xmlns:xlink="http://www.w3.org/1999/xlink"><defs><linearGradient id="a" x1="333.32" x2="615.18" y1="104.77" y2="494.01" gradientUnits="userSpaceOnUse"><stop stop-color="#63481f" offset="0"/><stop stop-color="#ae8d34" offset=".2313"/><stop stop-color="#fdfcfb" offset=".6"/><stop stop-color="#b08c34" offset=".84"/></linearGradient></defs><g transform="translate(-22.667 -90.346)"><g transform="translate(0 107.17)"><path d="m22.714 407 0.04762-107.67 50.67-44.667c27.868-24.567 51.097-44.794 51.619-44.95s22.549 18.828 48.949 42.186l48 42.47 0.69322-122.26 45.085-39.9c24.797-21.945 46.292-40.654 47.768-41.575 2.4541-1.5326 6.5542 1.747 48.061 38.443l45.378 40.118 98.349 30.289 0.36094 26.921c0.19852 14.807 0.69611 26.921 1.1058 26.921s11.047-9.101 23.639-20.224c12.592-11.123 23.906-21.081 25.142-22.129 2.0261-1.717 7.2487 2.5181 53 42.979l50.752 44.884v215.82h-638.67z" fill="#a3541b"/><path d="m302.67 128v21.334h21.334v-21.334h-10.666zm58.742 60c-5.9329 0-13.305 4.7628-15.498 10.012-1.6606 3.9744-4.2033 24.594-4.9297 39.988l-0.31445 6.666-11.49 0.38281-11.492 0.38281-0.93359-13.715c-1.3616-20.005-3.2138-31.874-5.5254-35.402-2.632-4.0169-9.6925-8.3022-13.689-8.3086-5.0573-8e-3 -12.323 4.1292-15.021 8.5547-4.5577 7.4741-2.5928 26.989 4.9883 49.561l3.3828 10.076-7.2871 7.6387c-22.126 23.197-22.217 54.406-0.22266 76.934 8.133 8.3303 22.396 15.792 33.959 17.768 9.5434 1.6303 23.978 0.45193 33.154-2.7051 10.695-3.6795 17.342-7.9855 25.27-16.367 20.748-21.938 20.584-53.326-0.39258-75.318l-7.4121-7.7695 4.7988-16.521c5.8131-20.013 7.2577-34.633 4.082-41.287-2.7715-5.8075-9.7206-10.568-15.426-10.568zm100.21 67.148c-13.832 0.55117-27.245 8.978-32.975 22.691-3.1039 7.4287-2.5501 21.552 1.1562 29.494 3.8847 8.3246 12.027 15.786 20.516 18.801l6.5059 2.3105-1.8379 6.7774c-2.4745 9.1221-1.4292 25.987 2.1973 35.443 1.5468 4.0333 2.8141 7.4589 2.8144 7.6113s-2.7 1.859-6 3.793-6 4.2266-6 5.0938c0 1.2646 1.7768 4.4765 4.7461 8.5801 0.16331 0.22569 3.41-1.5065 7.2148-3.8477 6.3974-3.9363 7.0819-4.0919 9.0938-2.0801 2.0118 2.0118 1.7328 2.6252-3.7031 8.1641l-5.8789 5.9902 3.8672 4.0352 3.8672 4.0371 6.7305-6.5332 6.7285-6.5312 6 3.1172c15.26 7.9306 35.11 7.843 51.172-0.22461l6.6172-3.3223 6.1523 6.0586c3.3834 3.3326 6.7754 6.0586 7.5391 6.0586 0.76365 0 2.809-1.5115 4.5449-3.3594l3.1562-3.3594-6.2988-6.3965c-6.0546-6.147-6.2046-6.481-3.8398-8.6211 1.3532-1.2246 3.0223-1.7335 3.709-1.1309 0.68666 0.60263 4.0512 2.6916 7.4766 4.6426l6.2285 3.5469 3.0332-4.9062c1.6681-2.6991 2.465-5.1095 1.7715-5.3555-0.69353-0.24598-4.1627-2.2684-7.709-4.4941-4.9349-3.0973-6.2216-4.5771-5.4863-6.3066 6.5902-15.502 7.5184-31.629 2.5645-44.539-0.66087-1.7222 0.0479-2.4968 2.916-3.1856 28.511-6.8467 37.197-46.294 14.08-63.945-22.088-16.866-53.336-5.6763-58.893 21.09l-1.4512 6.9883h-12.033c-11.768 0-12.047-0.074-12.701-3.334-2.9121-14.509-8.1508-22.298-19.152-28.479-5.7789-3.2466-12.152-4.6236-18.439-4.373zm-350.19 20.434-7.7969 8.4766c-11.647 12.664-19.639 31.427-19.639 46.109v4.7031l-3.2656-3.8809c-3.343-3.9729-14.713-10.791-15.943-9.5605-1.4123 1.4123 3.4803 18.23 7.7598 26.676l4.4434 8.7734-8.2168-2.9824c-4.5195-1.6405-11.142-3.4209-14.717-3.957l-6.5-0.97461 6.3262 8.2207c11.041 14.349 34.429 38.939 52.904 55.625 23.808 21.502 34.96 31.039 36.387 31.121 0.64764 0.0374 8.1372-5.7816 16.645-12.932 21.817-18.336 55.941-51.98 68.34-67.379 5.7771-7.1745 10.504-13.407 10.504-13.852 0-1.6581-13.543 0.87612-21.189 3.9648l-7.9258 3.2012 3.2266-5.1094c4.1216-6.5289 10.167-24.457 9.6328-28.566-0.40568-3.1201-0.45319-3.1277-4.9863-0.91993-2.5166 1.2257-6.8659 4.4067-9.666 7.0703l-5.0918 4.8438-0.0156-6.127c-0.03663-14.16-7.913-31.689-20.053-44.627l-7.4024-7.8887-8.4726 10.527c-7.8301 9.7286-17.389 26.715-17.389 30.9 0 1.2627-1.5913 1.6618-5.4648 1.3711-5.2842-0.39655-5.5636-0.65814-8.5332-7.9766-3.4869-8.5932-9.02-17.171-17.832-27.643zm192.6 11.084c5.6986 0 11.963 6.284 11.963 12 0 6.2683-6.2335 12-13.051 12-3.2232 0-6.5567-1.0222-8.6191-2.6445-9.4895-7.4644-3.1754-21.355 9.707-21.355zm49.658 0.21484c0.83646-5e-3 1.7795 0.0796 2.9043 0.23047 12.301 1.65 15.747 16.362 5.1543 22.004-3.8861 2.0698-9.6255 1.876-13.945-0.4707-3.7925-2.0603-6.2049-7.4975-5.4414-12.266 0.26022-1.625 2.3545-4.5375 4.6543-6.4727 2.6147-2.2001 4.1645-3.0118 6.6738-3.0254zm185.78 54.5c3.0062 0.0821 6.0836 1.3004 8.6328 3.8496 6.3889 6.3889 4.1146 17.039-4.2617 19.959-4.8581 1.6935-4.8888 1.6929-8.6582 0.16993-5.1856-2.0952-8.8385-8.1839-8.0156-13.359 1.0795-6.7894 6.5637-10.776 12.303-10.619zm-55.426 0.22852c7.3213-0.28675 14.467 5.9865 12.641 14.301-1.7496 7.966-10.384 12.246-17.508 8.6777-7.8911-3.9531-9.4562-13.182-3.2812-19.357 2.3918-2.3918 5.2836-3.5089 8.1484-3.6211zm-370.57 19.393c3.0613-0.0773 6.0065 0.6521 7.6621 2.1504 3.9277 3.5546 7.7064 22.182 4.5 22.182-0.5672 0-5.7422-4.7394-11.5-10.531-10.191-10.251-10.388-10.573-7.4668-12.137 1.9724-1.0556 4.4237-1.604 6.8047-1.6641zm59.014 0.0254c1.0342-2e-3 2.1363 0.12334 3.3047 0.37891 2.4513 0.53621 4.9928 1.5104 5.6484 2.166 0.70051 0.70051-3.1991 5.5581-9.457 11.779l-10.648 10.586v-6.7695c0-11.837 3.9126-18.124 11.152-18.141zm102.18 8.2148v29.424h29.424l-0.3789-14.332-0.37696-14.334-14.334-0.37891zm86.668 26.67v42.293l-4.1894-0.61524c-4.0344-0.59213-4.1543-0.473-3.2383 3.2305 0.5232 2.1152 2.4084 5.3785 4.1894 7.252 4.0492 4.2594 4.4205 10.594 0.6211 10.594-1.7222 0-4.5384-2.848-8.2344-8.332-3.089-4.5833-6.2113-8.7308-6.9394-9.2168s-7.2939 1.2603-14.59 3.8809c-12.863 4.6203-13.371 4.6942-16.775 2.4766-1.9309-1.2578-5.3117-3.1633-7.5117-4.2344-2.2-1.071-7.8994-4.4402-12.666-7.4863-28.867-18.447-33.855-20.751-35.523-16.404-1.1799 3.0747 1.3203 5.27 17.096 15.01 27.871 17.208 28.495 17.641 25.471 17.641-1.5613 0-4.5345-1.3908-6.6074-3.0918-2.0729-1.701-7.6689-5.2479-12.436-7.8809s-14.009-8.1408-20.537-12.24c-11.383-7.1474-17.026-8.9858-18.797-6.1211-0.45322 0.73332-2.5874 1.334-4.7441 1.334-2.1567 0-3.9219 0.58432-3.9219 1.2988 0 0.7145-1.8 2.2295-4 3.3672l-4 2.0684v-16.068h-22.57l-0.38086 12.762-0.38281 12.764-17.332 8.0508c-31.745 14.745-46.005 20.108-51.498 19.371-2.7293-0.36607-12.786-4.9764-22.35-10.246-9.5631-5.2697-18.461-9.3754-19.771-9.123-1.6182 0.31163-2.3809 1.6682-2.3809 4.2305 0 3.1102 0.81844 4.061 4.666 5.4121 4.821 1.6929 28.027 14.065 26.439 14.096-2.2821 0.0445-25.756-8.804-37.389-14.094-12.923-5.8765-17.537-7.0032-19-4.6367-0.91826 1.4858 4.2628 30.387 6.0469 33.73 0.67953 1.2734 1.2363 3.4376 1.2363 4.8106 0 2.3575 1.538 2.5004 27.666 2.5547 15.217 0.0316 35.766 0.63308 45.666 1.3359s29.084 1.2117 42.629 1.1309l24.627-0.14843 4.7363-7.1426c4.4995-6.7849 11.463-12.013 16.162-12.135 4.263-0.11063 8.7859 4.9658 9.5586 10.727 0.40876 3.0475 1.3224 6.1192 2.0293 6.8262 1.4493 1.4492 9.5918-2.1802 9.5918-4.2754 0-2.1218 7.4062-5.2389 10.516-4.4258 1.6084 0.4206 3.7426 2.3463 4.7422 4.2793l1.8164 3.5156 129.21-0.11719c71.067-0.0647 129.91-0.5484 130.76-1.0742 0.85078-0.52581 2.191-3.4807 2.9785-6.5664 2.2923-8.9814 4.1701-12.955 6.7793-14.352 3.0067-1.6091 5.871 2.2708 9.2402 12.512l2.2695 6.8965 14.51-0.38476c7.9802-0.21143 21.98 0.51069 31.111 1.6055 11.665 1.3985 17.106 1.5737 18.291 0.58984 2.4987-2.0738 0.78524-13.339-2.3789-15.641-2.9794-2.1674-3.1435-5.5831-0.61719-12.838 1.612-4.6292 1.5918-5.9495-0.1543-10-3.2924-7.6374-5.3087-14.472-9.1465-31-2.0861-8.9844-4.302-15.666-5.1953-15.666-2.6466 0-5.2232 2.9013-13.457 15.154-9.4017 13.991-11.594 15.903-21.646 18.879-4.1965 1.2423-10.331 3.0852-13.631 4.0938-3.3 1.0086-11.699 2.9957-18.666 4.418-14.925 3.0469-14.309 3.3421-22.098-10.506-5.2496-9.333-7.5838-11.198-9.0938-7.2637-1.5109 3.9374-0.81688 6.2281 3.8574 12.734 2.5667 3.5726 4.666 6.7952 4.666 7.1602s-1.3819 0.66406-3.0723 0.66406c-2.3552 0-4.9258-2.6776-11-11.453-11.226-16.218-10.168-15.431-17.617-13.082-7.526 2.3729-19.774 5.4249-44.977 11.211-10.267 2.357-23.005 5.9497-28.307 7.9844l-9.6406 3.6992-0.35937-27.514-0.35938-27.514-15-0.37696zm-311.88 13.385c-1.4903 0.01747-5.4512 4.7838-5.4512 6.8789 0 1.3363-1.526 6.4838-3.3906 11.438-3.1837 8.4583-3.249 9.1099-1.0781 10.697 1.2714 0.92968 3.2475 1.7198 4.3906 1.7559 1.1432 0.0361 5.6781 1.7838 10.078 3.8848 9.3919 4.4846 9.879 4.559 13.217 2.0332 4.0311-3.0504 3.8148-7.8792-0.49609-11.066-2.0502-1.5158-6.5827-7.7434-10.072-13.838-3.4895-6.0944-6.5598-11.326-6.8223-11.627-0.09419-0.10804-0.22083-0.15805-0.375-0.15624zm565.63 5.3691c-7.5207 0-8.7857 2.4067-6.3008 11.986 1.0361 3.9942 1.8828 8.8116 1.8828 10.705 0 3.2139 2.0962 6.6426 4.0605 6.6426 0.47301 0 1.7983-1.0507 2.9453-2.334 3.7706-4.2189 8.9941-15.325 8.9941-19.123 0-4.9035-4.3714-7.877-11.582-7.877zm-572.4 37.66c-2.6959-6e-3 -4.7512 0.87528-5.8516 2.6328-1.155 1.8449-0.63055 3.1484 2.6836 6.668 2.2652 2.4057 5.8499 7.5218 7.9668 11.371 3.9141 7.117 5.7693 8.32 8.2324 5.3359 0.75664-0.91666 1.3449-6.0888 1.3086-11.492l-0.06641-9.8242-5.8613-2.5918c-3.1563-1.3962-6.0334-2.094-8.4121-2.0996z" fill="url(#a)"/></g></g></svg>
