<?xml version="1.0" encoding="UTF-8"?>
<svg width="3241.3" height="3241.3" version="1.1" viewBox="0 0 3241.3 3241.3" xmlns="http://www.w3.org/2000/svg"><g transform="rotate(-90 1620.7 1620.7)"><g transform="translate(418.67)"><path d="m0 1668.8v-1572.5l31.667-1.0087c33.452-1.0656 112.63-0.26361 217.67 2.2046 94.676 2.2247 106.56 1.254 131.26-10.726 31.783-15.412 55.056-45.118 60.88-77.71l1.6188-9.058h263.34l10.885 4.659c13.548 5.7988 33.351 11.917 47.351 14.63 27.684 5.3647 162.63 24.363 210 29.565l32.667 3.5872 30.664-14.409c16.865-7.925 42.828-19.724 57.694-26.221l27.03-11.812h438.25l0.8591 6.3333c3.1271 23.052 18.35 48.997 37.854 64.517 17.791 14.156 38.473 23.205 60.316 26.387 12.625 1.8396 79.393 4.9643 148.92 6.9695 135.05 3.8947 241.1-7.3792 323.04-34.341 42.899-14.115 75.988-35.302 95.34-61.044l6.632-8.822h170.07v3147.1l-125.67-1.1226c-203.23-1.8155-221.34-1.7219-232.33 1.2007-42.195 11.213-73.714 43.188-82.661 83.853l-2.2733 10.333-132.87-0.029c-131.86-0.029-132.91-0.05-138.87-2.8112-9.9162-4.5975-31.479-11.569-44.463-14.374-26.214-5.6646-174.33-26.622-225.09-31.849l-23.552-2.4252-7.7443 3.916c-11.898 6.0165-57.232 26.794-82.357 37.748l-22.539 9.8257h-440.58l-0.86294-6.5052c-3.4414-25.942-21.942-53.651-46.919-70.27-19.287-12.833-36.794-18.534-63.228-20.589-65.843-5.1174-199.13-7.9908-251.33-5.4182-122.18 6.0211-217.58 27.97-267.84 61.619-12.858 8.6082-28.997 23.603-36.157 33.593l-5.3333 7.4415-171.33 0.1277z" fill="#a25523"/><path d="m933.18 3204.8c-7.4416-5.4969-11.952-9.8261-12.807-12.294-1.6845-4.8603 0.013-58.743 2.9356-93.182 2.7152-31.995 5.7667-58.262 13.261-114.15 6.7129-50.059 12.109-95.634 18.053-152.48 2.2237-21.267 4.3064-40.206 4.6282-42.088 0.58414-3.4164 0.54824-3.4297-22.772-8.4492-12.847-2.7651-23.514-4.8253-23.705-4.5782-1.1762 1.521-13.49 97.398-17.353 135.12-5.7987 56.615-14.05 158.13-16.065 197.63-1.3769 27.001-2.4624 38.684-3.8421 41.352-1.0576 2.0452-5.245 6.8604-9.3052 10.7-8.2743 7.8255-12.06 8.6884-19.15 4.3654-4.6376-2.8277-11.907-14.295-13.132-20.717-0.41981-2.2 1.9658-21.7 5.3013-43.333 8.6212-55.915 31.439-238.82 31.438-252l-3.3e-4 -3.3333-30.333-0.088c-41.96-0.1218-63.126-4.0424-101.65-18.828-30.39-11.665-41.598-17.891-54.276-30.147-6.6856-6.4631-6.9452-6.5819-7.6105-3.4809-1.9624 9.1472-3.6634 82.604-4.0727 175.88-0.25261 57.567-0.90609 108.15-1.4522 112.4-0.81415 6.3433-1.3784 7.5867-3.1345 6.9079-5.1532-1.9921-28.146-7.3036-35.142-8.1182l-7.6667-0.8926 3e-3 -4.8164c2e-3 -2.6491 0.59056-18.616 1.3087-35.483 0.71809-16.867 2.5235-67.567 4.0119-112.67 2.5175-76.278 4.0686-116.26 6.1861-159.45 1.4789-30.164-2.6492-42.842-26.565-81.584-7.2056-11.672-9.4083-16.44-9.8569-21.333-0.9277-10.12-1.6184-12.151-4.8533-14.271-1.7624-1.1547-14.704-3.6878-30.566-5.9824-46.139-6.6748-49.817-7.8418-60.964-19.342-4.3848-4.524-4.4475-4.7493-2.8275-10.157 2.167-7.2328 4.817-9.5269 26.539-22.975 27.328-16.919 36.132-25.985 36.221-37.298 0.0199-2.5287 1.9031-5.738 5.8681-10 11.589-12.458 12.828-15.219 12.828-28.607v-11.958l-46.333 0.9619c-74.207 1.5405-121.68 3.8273-126.33 6.0851-3.539 1.7186-4.4834 3.5617-8.2488 16.098-5.3182 17.706-6.1582 25.616-11.095 104.48-9.369 149.66-15.876 230.1-20.691 255.78-4.2653 22.748-5.4044 29.968-9.2913 58.889-1.774 13.2-5.9165 42.326-9.2056 64.725-3.289 22.399-6.7379 49.495-7.6641 60.214l-1.684 19.489-6.7285 0.7433c-3.7007 0.4088-14.679 1.1396-24.395 1.6241-17.601 0.8776-17.667 0.87-17.667-2.0647 0-3.3862 13.84-99.834 20.579-143.41 2.4962-16.141 7.532-42.841 11.191-59.333 8.0813-36.428 8.4225-38.557 14.209-88.652 12.081-104.59 13.996-134.89 14.01-221.67 7e-3 -40.096-0.49477-69.667-1.1813-69.667-2.5446 0-19.054 5.5709-25.757 8.6917-9.0815 4.2278-15.881 4.1612-27.225-0.2667-17.116-6.6811-44.988-4.5713-111.83 8.4647-28.925 5.6415-37.77 5.6358-45.198-0.029-5.8635-4.4723-11.334-14.919-17.566-33.543-7.1604-21.399-8.6486-34.4-6.942-60.651 1.3986-21.513 1.3557-22.295-1.9395-35.333-1.8534-7.3333-7.6414-23.207-12.862-35.274l-9.4923-21.941v-16.303c0-14.378 0.27544-16.383 2.3333-16.983 1.2833-0.3743 8.5784-1.992 16.211-3.5949 12.732-2.6736 16.255-2.8446 42.667-2.0701 84.161 2.4677 91.191 2.4868 115.91 0.3147 13.452-1.1819 24.868-2.1489 25.369-2.1489s0.67706-2.4387 0.39281-5.4194c-0.29508-3.0943 0.44349-7.934 1.7214-11.28 3.1591-8.272 8.9322-11.543 21.834-12.371 8.9584-0.5749 11.183-1.2965 19.501-6.3263 6.6776-4.0375 11.504-5.9328 16.708-6.5617 8.3413-1.008 14.897-4.5282 16.991-9.1233 0.96921-2.1272 1.1963-14.575 0.7005-38.402-0.57538-27.653-0.22895-40.808 1.6068-61.015 1.9889-21.893 2.0998-27.993 0.7387-40.631l-1.6016-14.87-18.21 0.2077c-10.016 0.1142-28.71 1.4633-41.544 2.998-47.827 5.7194-93.907 2.2274-130.2-9.8668-22.595-7.529-41.773-18.043-68.736-37.685-19.23-14.008-20.417-15.972-20.341-33.654 0.04648-10.877 0.58455-13.891 3.8086-21.333 2.065-4.7667 5.9726-14.667 8.6837-22 8.1771-22.119 21.331-52.021 31.025-70.527 17.012-32.476 32.396-64.062 38.846-79.758 7.0801-17.229 18.144-36.47 32.522-56.561 14.471-20.22 17.417-27.07 30.461-70.839 9.2851-31.156 14.346-42.043 23.275-50.071 8.6132-7.7441 15.783-11.157 28.588-13.607 13.887-2.6571 43.006-2.526 62.261 0.2802 14.027 2.0443 15.823 2.0641 18.622 0.2055 3.0007-1.9924 3.0865-2.5758 2.7331-18.59-0.22159-10.043 0.47566-22.459 1.7762-31.627 2.6494-18.678 2.9183-28.587 1.4904-54.906-0.91255-16.82-0.56888-27.865 1.8462-59.333 1.6321-21.267 3.041-47.61 3.1309-58.541l0.16342-19.874-4.5493-3.4588c-9.2572-7.0381-20.162-18.023-20.93-21.085-0.90201-3.5939 2.4418-13.303 6.2482-18.142 1.7252-2.1932 4.4955-3.5453 8.492-4.1446 7.1275-1.0688 12.454-4.9683 14.952-10.945 2.4601-5.8878 0.33333-36.532-9.8878-142.48l-2.3155-24-14.648 0.3179c-8.0564 0.1748-33.548 0.9142-56.648 1.6431-41.269 1.3022-42.325 1.4054-60.667 5.933-55.836 13.783-108.79 19.245-121.33 12.515-4.1181-2.2103-27.336-22.305-27.33-23.654 0.0017-0.4154 3.3632-2.511 7.4699-4.6569 4.7251-2.4691 8.7294-5.8096 10.905-9.098 3.0806-4.6551 3.4745-6.6789 3.7823-19.432 0.64786-26.843 8.7654-109.22 15.773-160.07 0.41235-2.9921-0.53451-7.2479-2.8182-12.667-2.9383-6.9721-3.3311-9.4567-2.6968-17.061 1.0025-12.019 3.6317-16.68 11.342-20.106 9.0982-4.0434 24.726-4.3442 85.58-1.6473 48.126 2.1328 80.56 2.0733 91.769-0.16849 3.0346-0.60692 4.5959-2.4282 8.0014-9.3343 5.8162-11.795 13.407-19.749 20.83-21.827 3.8951-1.0906 12.251-1.4821 24.47-1.1465l18.555 0.50957-2.5596-8.6896c-4.6128-15.66-8.9103-36.436-10.485-50.69-0.97752-8.8465-1.679-47.13-1.9055-104-0.27585-69.24-0.84444-95.228-2.465-112.67-1.1585-12.467-2.8347-30.767-3.7248-40.667-1.0694-11.895-1.6699-51.015-1.7705-115.33-0.10163-65.011-0.67174-101.79-1.7168-110.76-0.86055-7.3839-3.1055-33.784-4.9888-58.667-3.6235-47.875-6.0807-71.033-9.3507-88.121-1.1002-5.7493-2.0004-11.203-2.0005-12.12-1.4e-4 -1.2544 4.6219-1.6671 18.666-1.6671h18.667l5e-3 3.6667c0.0122 8.2263 2.9075 42.335 5.2913 62.333 1.3986 11.733 2.9205 32.133 3.382 45.333 0.46153 13.2 2.2923 45 4.0684 70.667 5.4544 78.821 6.042 95.818 4.4022 127.33-1.9104 36.716-0.87707 70.676 3.4486 113.33 1.8962 18.7 3.5931 34.467 3.7709 35.038 0.86781 2.7873 14.785-14.857 34.998-44.371 12.305-17.967 28.268-40.837 35.475-50.824 11.77-16.311 13.779-18.448 19.758-21.02 3.6603-1.5746 9.3749-3.2357 12.699-3.6914 5.7067-0.78219 6.3065-0.54989 10.753 4.1643 5.9094 6.2658 9.9491 14.077 9.9491 19.237 0 9.3309-16.631 35.613-39.318 62.134-17.8 20.808-53.199 58.183-56.954 60.133-1.9825 1.0294-8.4867 3.4139-14.454 5.2989-9.7757 3.0881-10.78 3.7146-10.152 6.3312 2.7399 11.415 8.8991 95.405 8.8807 121.1-3e-3 4.0259 1.1159 6.0081 6.4866 11.493 8.3361 8.5134 11.406 16.317 10.462 26.596-0.3895 4.242-1.1226 9.0224-1.629 10.623-0.78762 2.4894 0.0147 3.388 5.5446 6.2094 10.648 5.4327 17.404 11.066 21.376 17.824 3.5957 6.1171 3.7454 7.0587 3.5105 22.083-0.34093 21.813-3.7046 20.48 43.116 17.082 75.926-5.5113 109.91-7.1081 132.91-6.2444 24.504 0.92043 30.683-0.0106 35.731-5.3842 3.7127-3.952 4.7212-14.238 2.5938-26.454-2.59-14.873-8.191-107.03-8.9965-148.03-0.67239-34.221-0.39642-42.499 2.4005-72 3.7778-39.847 3.9568-87.247 0.57923-153.33-1.1619-22.733-3.3136-70.133-4.7816-105.33-2.7099-64.978-7.0445-143.04-12.364-222.67-1.6168-24.2-2.7479-45.35-2.5136-47 0.42324-2.9801 0.58044-3 23.667-3h23.241v3.6237c0 1.993-0.65733 14.95-1.4607 28.793-1.0623 18.304-1.0559 43.955 0.0233 94.043 1.742 80.849 3.059 111.48 7.4319 172.87 6.5301 91.677 7.4257 117.43 8.6693 249.33 1.1608 123.12 1.1413 122.74 9.4655 187.93 2.2423 17.563 4.9597 33.639 6.0386 35.726 2.0597 3.9831 9.0932 9.0256 12.499 8.9608 2.1038-0.04 52.369-94.089 68.742-128.62 27.182-57.326 54.351-116.79 53.612-117.33-0.77313-0.56957-39.319-11.228-43.687-12.08-14.034-2.7376-24-13.638-24-26.25 0-10.613 11.233-65.254 14.776-71.876 1.6459-3.0761 11.893-7.7965 16.924-7.7965 4.2575 0 15.659 3.9118 45.633 15.656 19.932 7.8096 26.907 9.6775 36.136 9.6775h6.9548l-0.91529-41.667c-0.5034-22.917-1.5248-54.867-2.2697-71-0.74491-16.133-1.5825-51.833-1.8613-79.333-0.70117-69.163-3.8223-128.21-10.734-203.08-3.6816-39.88-3.7687-40.405-8.1678-49.208-3.9443-7.8934-3.9882-14.802-0.14259-22.428l3-5.9492 17.275-3.1048c15.523-2.7899 17.428-2.8945 18.791-1.0311 0.83396 1.1405 2.8457 13.038 4.4706 26.438 3.4329 28.311 4.7637 63.471 6.8016 179.7 0.79077 45.1 2.3085 121.6 3.3726 170 1.0642 48.4 1.9397 91.055 1.9456 94.789l0.0107 6.789 5.6667 1.6929c8.4763 2.5323 15.593 6.4017 22.792 12.392 5.6119 4.6696 7.6036 5.4928 15.19 6.278 9.0147 0.93306 13.604 4.0075 13.743 9.207 0.2889 10.786 3.1131 23.061 8.6325 37.519 6.0482 15.844 6.3934 17.467 6.9922 32.867 0.7008 18.026-1.5402 38.132-4.5899 41.182-2.5149 2.5149-17.797 2.6174-25.881 0.17349-3.2332-0.97735-13.065-5.7774-21.847-10.667-8.7828-4.8893-16.433-8.8897-17-8.8897-4.0541 0 2.6274 194.55 6.9595 202.65 0.73545 1.3742 2.9884 3.6622 5.0066 5.0846 4.7065 3.3169 28.651 4.9024 53.21 3.5232l17.126-0.96176 11.747-11.692-0.9237-108.3c-0.7354-86.231-0.4937-121.48 1.186-172.97 4.0107-122.94 4.311-139.04 3.1942-171.25-1.5986-46.11-7.2632-126.63-16.071-228.45l-4.2994-49.699 2.8544-5.8751c1.9352-3.9833 4.7132-6.9645 8.6271-9.2582 5.0362-2.9514 17.019-7.9081 17.019-7.04 0 0.17099 2.1203 10.448 4.7117 22.837 3.8565 18.438 5.3002 30.167 7.9546 64.63 6.0485 78.528 6.5452 97.786 10.01 388.1 1.1604 97.212 3.2862 229.09 4.3345 268.9 0.2843 10.794 0.6937 12.624 3.4895 15.598 1.7421 1.853 4.7421 3.7131 6.6667 4.1336 1.9245 0.42045 32.299-1.3369 67.499-3.9053 125.99-9.1925 127.93-9.2894 152.36-7.5996 22.843 1.58 27.722 0.68456 30.221-5.5467 1.1127-2.7747 2.4694-21.991 3.9236-55.575 2.5221-58.246 2.6796-82.358 0.7923-121.25-0.7274-14.988-2.5196-56.088-3.9828-91.333-1.4631-35.245-4.4381-96.182-6.6109-135.42-6.9059-124.7-7.2524-136.82-5.392-188.67 2.2572-62.913 0.015-142.19-4.7656-168.51-1.1163-6.146-1.7265-11.965-1.356-12.93 0.3706-0.96568 2.6348-2.7699 5.0316-4.0093 3.5974-1.8603 6.6649-2.113 17.579-1.448 7.2717 0.44302 13.417 1.0009 13.656 1.2398 0.2388 0.23887 1.1374 4.9091 1.9967 10.378 1.0623 6.7608 1.268 18.267 0.6427 35.944-1.6858 47.655-2.1485 202.5-0.7152 239.33 0.7706 19.8 3.5143 76.8 6.0972 126.67 2.5828 49.867 5.2236 117.07 5.8684 149.33s2.0697 69.167 3.1664 82c1.0968 12.833 2.6517 45.233 3.4553 72 0.8037 26.767 2.1078 52.417 2.8981 57l1.4368 8.3333h221.76l7.6381-23.041c4.201-12.672 7.6381-23.743 7.6381-24.602 0-0.85882-4.182-4.2669-9.2935-7.5734-8.7377-5.6524-9.6547-6.7312-15.333-18.038-7.9856-15.9-8.1208-20.979-0.7548-28.345 2.9067-2.9068 5.8699-4.9235 6.5848-4.4817 0.7148 0.44181 5.0541 7.9907 9.6427 16.775 4.5887 8.7846 8.7009 15.972 9.1382 15.972 1.2875 0 8.1918-43.599 8.9817-56.717 0.3991-6.628-0.02-22.228-0.9324-34.667-1.112-15.167-1.7854-66.093-2.0445-154.62-0.3709-126.72-0.502-132.85-3.2734-153.33-1.9548-14.445-3.2633-33.818-4.0526-60-2.0642-68.471-8.4204-174.37-12.68-211.26-1.0536-9.124-1.7807-16.712-1.6158-16.863 0.3438-0.31364 33.418 6.069 33.686 6.5008 0.097 0.15625 1.5034 39.284 3.1248 86.951 3.596 105.72 6.453 173.03 8.0796 190.34 0.6722 7.1552 2.8907 24.075 4.9301 37.6l3.7079 24.591 10.329-18.933c12.936-23.713 20.406-42.317 23.028-57.35 1.1197-6.4209 2.6943-12.905 3.499-14.408 2.2958-4.2897 9.4571-6.5082 21.008-6.5082 18.227 0 23.544 6.5905 22.61 28.023-0.7948 18.234-6.4914 28.098-38.87 67.31-21.336 25.838-20.176 24.667-24.43 24.667-6.2138 0-15.438 5.4229-18.144 10.667-1.9863 3.8493-2.2387 6.3015-1.4406 14 0.5322 5.1333 0.8161 39.333 0.6309 76-0.4766 94.354 3.6857 283.67 6.2941 286.28 1.4722 1.4722 88.477-2.9525 161.17-8.1963 19.666-1.4187 45.656-3.114 57.756-3.7673 19.851-1.0719 22.671-1.5315 28.869-4.7064 3.778-1.9351 8.278-5.2678 10-7.4058l3.1311-3.8874 26 4.478c14.3 2.4629 29.174 4.4924 33.053 4.5101 8.1312 0.0371 14.944-2.9621 22.136-9.7455 5.656-5.3343 5.8993-7.8139 2.8635-29.182-1.0711-7.5389-3.1988-37.407-4.7281-66.374-4.2076-79.693-6.6588-105.11-16.651-172.67-8.3803-56.659-17.215-126.01-20.638-162-0.802-8.4333-1.671-39.633-1.931-69.333-0.5084-58.069-0.8808-62.761-8.7965-110.83-2.8526-17.323-5.6067-37.062-6.1202-43.863l-0.9336-12.367 6.5395 0.81514c3.5967 0.44833 13.29 1.567 21.54 2.4859 14.72 1.6395 15 1.7339 15.009 5.0482 0.087 32.739 11.248 219.37 18.701 312.71 5.0469 63.203 19.879 215.56 25.377 260.67 9.8997 81.228 12.624 92.625 23.693 99.107 4.851 2.8409 5.2452 2.846 71.553 0.92537 24.933-0.72219 62.617-1.325 83.74-1.3396l38.407-0.0266 8.7938-4.6667c4.8366-2.5667 9.9332-4.6667 11.326-4.6667 4.3535 0 9.4675 3.4444 17.118 11.529 9.5493 10.092 12.606 14.55 14.641 21.353 1.5201 5.0823 1.3083 6.6245-2.5162 18.329-4.6317 14.175-5.374 26.887-2.849 48.788 0.7186 6.2333 2.2392 31.666 3.3792 56.516 1.7615 38.4 2.6646 48.408 6.0158 66.667 2.1687 11.816 3.9435 24.02 3.944 27.12 0 7.5413-3.8752 10.119-16.268 10.82-8.0808 0.4566-9.0582 0.7964-8.3858 2.9149 0.6194 1.9516-0.552 2.7987-6.292 4.5503-12.978 3.9605-30.529 4.8072-120.39 5.8081-81.296 0.9056-89.721 1.2045-93.644 3.3224-10.534 5.6873-11.433 13.387-9.3728 80.282l1.6836 54.667 13.333 0.8429c20.489 1.2952 29.617 5.5037 53.64 24.732 16.702 13.368 20.077 14.994 50.36 24.264 32.816 10.046 39.912 12.949 44.548 18.229 2.1929 2.4976 4.4115 6.8032 4.9302 9.568 0.832 4.435 0.052 6.7543-6.6207 19.695-10.442 20.251-26.531 45.813-32.049 50.921-10.065 9.3173-22.688 9.1493-44.25-0.589-17.674-7.9823-36.514-15.522-37.066-14.835-2.1014 2.6137-36.248 120.43-45.551 157.17l-6.2465 24.667 0.8296 34.667c0.4562 19.067 1.5051 46.367 2.3308 60.667s1.3002 44 1.0545 66c-1.2368 110.72 1.1884 237.47 6.0333 315.33 1.848 29.7 3.371 66.3 3.3844 81.333 0.022 25.132 0.8059 46.85 3.9269 108.84 0.6325 12.563 1.8475 24.145 2.7 25.738 2.5993 4.8569 9.3518 8.0764 16.951 8.0819l6.904 0.01 0.7261 7c0.3994 3.85 1.104 13 1.5658 20.333 0.9443 14.996 2.8032 20.783 7.7073 23.996 3.1552 2.0673 4.256 2.0228 17.778-0.7197 20.822-4.223 35.438-3.3261 52.215 3.2041 6.8569 2.6689 13.637 4.8526 15.066 4.8526 4.019 0 9.7806-3.4612 13.792-8.2855 6.2661-7.5354 12.239-10.367 21.885-10.374 7.2146-0.01 10.421 0.8575 20.599 5.5463 13.758 6.3374 25.373 8.0543 56.19 8.3056 16.436 0.134 17.701-0.048 24.443-3.5254 3.9103-2.0166 8.2802-3.6666 9.711-3.6666 3.9837 0 15.306 6.1872 21.436 11.713 10.359 9.3399 12.581 20.543 8.4235 42.473-3.4023 17.946-5.7614 37.138-9.3194 75.814-5.1401 55.874-12.299 108.36-15.484 113.52-3.4636 5.6149-9.3587 8.1774-26.319 11.441-26.992 5.1931-23.968 5.3718-98.762-5.8369-38.954-5.8377-45.501-6.505-52.217-5.322-10.555 1.8593-20.598 6.4179-28.729 13.04-9.319 7.5904-12.694 9.1565-26.946 12.502-13.912 3.2662-24.086 9.1059-26.147 15.008-1.5433 4.4198 1.0054 77.971 3.9149 112.98 2.4113 29.012 2.4748 45.098 0.4255 107.72-1.2632 38.6-1.2733 55.296-0.045 74.667 2.3628 37.266 4.0188 67.9 5.6373 104.28 0.7992 17.967 2.2695 39.567 3.2673 48 0.9978 8.4333 1.6439 15.505 1.4358 15.715-1.2528 1.264-47.695 16.427-48.339 15.783-0.4335-0.4335-1.2514-28.848-1.8175-63.143-0.5661-34.295-2.0693-77.055-3.3404-95.022-2.4749-34.981-3.1342-103.86-1.8955-198 0.6213-47.224 0.4505-52.569-2.5142-78.667-1.7495-15.4-3.2495-34.9-3.3333-43.333-0.1312-13.193 0.2263-15.978 2.5613-19.953 4.5439-7.7346 10.043-10.02 24.62-10.23 11.872-0.1714 12.77-0.3805 14.314-3.3334 2.4454-4.6777 2.0437-7.5316-1.3137-9.333-3.5793-1.9204-76.107-9.5219-118.33-12.402-16.5-1.1255-33.014-2.3436-36.696-2.7068l-6.6965-0.6604-2.3132 8.8195c-1.2723 4.8508-8.3601 21.79-15.751 37.643-19.33 41.463-20.176 44.398-23.877 82.823-1.9688 20.446-5.7219 37.192-12.849 57.333-5.2053 14.71-9.1658 29.598-22.7 85.333-4.2376 17.451-16.499 55.41-22.309 69.064-2.4033 5.6482-5.0954 13.193-5.9824 16.766-3.4476 13.889-12.959 27.401-23.732 33.714-5.9878 3.5091-6.1106 3.5218-26.221 2.7171-50.363-2.0152-88.327-12.098-125.3-33.28-8.7416-5.0081-16.049-8.9278-16.238-8.7103-1.015 1.1663-4.8498 46.824-5.9684 71.062-2.4819 53.776-4.29 112.07-4.4945 144.91l-0.2061 33.089-4 0.011c-2.2 0.01-13.15-0.6882-24.333-1.5428l-20.333-1.5537 0.023-26.122c0.026-30.498 1.994-80.871 4.0146-102.79 0.7775-8.4334 5.0284-33.224 9.4464-55.089 4.418-21.866 9.4356-50.066 11.15-62.667l3.1174-22.911-6.8757-5.9401c-3.7816-3.2671-15.576-14.425-26.209-24.796-10.633-10.376-23.833-22.182-29.333-26.241-12.464-9.1984-15.1-12.04-18.901-20.378-5.8773-12.894-3.5051-41.801 5.8524-71.317 4.3706-13.786 21.876-60.118 36.91-97.693 13.805-34.503 19.248-51.1 24.804-75.635 2.7212-12.017 5.1917-22.485 5.49-23.261 0.3777-0.9826-15.559-1.2808-52.473-0.9817-61.307 0.4967-88.099-0.6795-164.35-7.215-39.727-3.4051-60.034-4.5848-72-4.1826-9.1666 0.3082-56.267-1.1055-104.67-3.1415-130.84-5.5039-130.59-5.497-149.9-4.0592-20.032 1.4912-23.639 2.9973-26.256 10.963-0.8203 2.4966-2.4906 24.039-3.7119 47.873-2.5233 49.243-4.0174 64.982-11.343 119.49l-5.2177 38.823 4.834 11.844c3.8141 9.3447 4.842 13.672 4.8718 20.51 0.047 10.774-4.1842 19.34-11.494 23.271-5.6164 3.0204-4.7848-0.9833-9.7061 46.729-1.8154 17.6-4.5517 53-6.0808 78.667-1.5291 25.667-5.1539 79.067-8.055 118.67s-5.8834 84.9-6.6271 100.67c-1.9889 42.163-3.7952 61.147-6.1614 64.758-1.8215 2.7799-15.573 15.3-16.697 15.202-0.24971-0.022-5.623-3.858-11.941-8.5247zm-56.53-429.63c1.162-6.5512 1.6764-6.2735-16.679-9.0024-12.774-1.8992-14.638-1.7996-14.638 0.7829 0 0.7847 6.15 10.993 13.667 22.684l13.667 21.257 1.501-15.096c0.82554-8.3029 1.9424-17.585 2.4818-20.626zm97.927-134.47c5.6349-66.438 5.776-70.521 2.9635-85.722-1.3964-7.547-2.7642-13.925-3.0394-14.173-0.27523-0.2483-6.6449-4.4105-14.155-9.2492l-13.654-8.7977-2.7671 5.4241c-2.7722 5.4339-3.4994 11.475-10.726 89.094l-1.6673 17.909 5.9011 4.6758c9.0123 7.141 22.698 21.811 27.901 29.908 3.5921 5.5899 4.8811 6.7635 5.5978 5.0968 0.51213-1.191 2.1525-16.565 3.6452-34.165zm-165.89 27.32c10.552-6.5212 9.0747-14.105-4.0221-20.653-7.143-3.5715-9.309-4-20.219-4-6.7205 0-12.566 0.3458-12.991 0.7685-1.5709 1.5644 4.7835 16.963 8.4492 20.475 7.8648 7.535 19.817 8.9509 28.783 3.4097zm86.672-97.32c5.5357-43.352 4.9572-48.909-5.6357-54.138-4.799-2.3688-9.9025-2.4978-99.391-2.5131-51.883-0.01-94.333 0.4259-94.333 0.966-1e-3 1.7477 9.4434 5.0335 37.999 13.22 35.06 10.051 47.685 14.9 68.667 26.373 9.1667 5.0123 26.488 14.336 38.492 20.72 21.704 11.543 41.082 22.667 46.175 26.508 2.4487 1.8466 2.7431 1.7734 3.6021-0.8958 0.51448-1.5988 2.506-15.207 4.4257-30.24zm1401.9-37.298c6.3936-3.2618 11.564-9.3536 13.362-15.743 3.7381-13.286 14.706-103.28 14.707-120.67 6e-4 -14.976-1.8988-18.642-11.538-22.27-10.729-4.0373-18.694-3.2207-26.021 2.6674-3.9117 3.1436-7.243 4.5749-11.628 4.996-3.38 0.3246-23.389-1.347-44.465-3.7146-41.144-4.6219-44.544-4.4964-47.897 1.7676-2.7938 5.2204-12.814 48.401-14.294 61.596-1.4287 12.741-6.8231 77.568-6.8231 81.996 0 1.8065 2.3234 2.1533 15.667 2.3384 8.9681 0.1244 33.625 2.4806 57.667 5.5108 44.251 5.5772 52.896 5.7921 61.264 1.5229zm-283.84-12.369c0.051-0.1833 4.7248-34.08 10.387-75.325l10.294-74.992-4.0533-0.5854c-4.0764-0.5886-173.11-4.8265-173.56-4.3513-0.1329 0.1398-1.2021 8.0542-2.3761 17.588-1.174 9.5333-4.3369 28.893-7.0286 43.021l-4.894 25.688 2.6126 6.3038c2.4205 5.8404 3.6706 6.9137 17.009 14.603 19.673 11.342 30.184 19.041 43.53 31.888l11.342 10.917 40.658 2.6236c39.397 2.5422 55.892 3.3136 56.084 2.6227zm-406.21-38c6.1571-18.798 9.1896-25.064 17.448-36.049 13.077-17.396 37.421-31.984 68.001-40.747 8.8-2.5218 27.985-7.3641 42.633-10.761 14.648-3.3965 27.015-6.6107 27.482-7.1426 0.9941-1.1322 6.8445-24.459 6.2726-25.01-0.2131-0.2055-23.057-0.5799-50.764-0.832l-50.377-0.4584-7.2898 16.547c-4.0094 9.1006-7.2898 17.279-7.2898 18.175s-2.1165 3.2429-4.7035 5.216l-4.7035 3.5876-11.63-7.3603c-16.871-10.678-20.052-13.78-25.449-24.819-7.4397-15.217-7.1444-15.126-52.847-16.208-58.902-1.3934-132.62-1.2353-139.33 0.2988-8.3062 1.8992-13.966 6.0305-19.421 14.177-4.8488 7.241-9.5513 9.6951-18.61 9.7118-5.6385 0.01-20.036-8.8226-25.818-15.84-9.1969-11.161-11.942-13.258-19.202-14.663-3.822-0.7398-48.349-2.0419-98.949-2.8934-50.6-0.8516-96.2-2.0706-101.33-2.709-5.1333-0.6384-50.433-1.7372-100.67-2.4419-107.88-1.5133-141.7-3.0447-249.22-11.285-12.883-0.9873-25.294-1.3123-27.877-0.7299-6.4688 1.4589-10.69 6.1885-12.858 14.405-3.3956 12.872-9.4578 18.022-21.048 17.882-11.64-0.1407-21.208-6.4394-32.621-21.476-5.5144-7.265-10.196-8.4338-33.435-8.3468-11.516 0.043-28.138 0.4461-36.938 0.8956s-52 1.2056-96 1.6802l-80 0.8629-6.2449 3.671c-3.4347 2.0191-6.7051 5.0191-7.2676 6.6667-1.1972 3.5068-1.2641 44.664-0.0745 45.853 0.4443 0.4443 7.5064 0.1065 15.694-0.7508 8.1872-0.8572 15.171-1.2733 15.52-0.9246 1.3381 1.3381-5.0947 15.637-9.7839 21.747-9.0795 11.831-10.394 16.315-10.455 35.651l-0.0542 17.246 4.6143 2.707c4.2148 2.4726 7.6783 2.7763 40 3.5071 32.506 0.7351 56.858 0.1488 89.021-2.143l12.302-0.8766 0.777-4.8438c4.3914-27.376 7.2082-35.398 18.669-53.171 7.5043-11.637 8.2076-12.327 12.565-12.333 3.9523-0.01 5.8691 1.2874 13.333 8.9936 10.924 11.278 15.012 18.872 22.788 42.333l6.1869 18.667 7.2047 0.9583c3.9626 0.5271 30.349 2.838 58.637 5.1355l51.432 4.1771 10.082-2.829c9.269-2.6009 11.465-2.7233 27.234-1.5181 9.4339 0.7209 30.952 2.3257 47.819 3.566 33.803 2.4859 31.285 2.7872 45.876-5.4898 8.1204-4.6062 19.993-4.5505 32.79 0.1539 17.377 6.3882 22.109 6.9248 80 9.0728 71.936 2.6691 109.97 3.4462 199.33 4.0729 39.967 0.2803 91.267 1.4231 114 2.5395 92.67 4.5509 208.67 9.01 259.38 9.9706l10.043 0.1903zm-1364.6-0.943c31.437-2.5484 36.928-4.129 42.177-12.14 1.9982-3.0496 2.1869-9.8411 1.9345-69.621-0.15383-36.433-0.50003-66.462-0.76935-66.732-0.26931-0.2693-28.881 1.0751-63.583 2.9875-34.701 1.9125-63.543 3.4707-64.093 3.4627-2.1404-0.031-0.87363 9.7512 1.7377 13.419 5.2589 7.3854 10.573 21.18 12.646 32.828 1.6919 9.5061 1.9162 17.207 1.1793 40.488-0.87662 27.695-0.80325 28.99 2.0016 35.333 5.0886 11.508 14.002 18.666 26.752 21.485 4.0426 0.8937 9.1501 1.3694 11.35 1.0572s15.1-1.4675 28.667-2.5673zm1785-148.92c5.4858-1.6798 10.683-7.8551 11.851-14.082 0.5023-2.6774-0.1628-14.432-1.4778-26.122-1.9729-17.537-2.1817-25.016-1.1936-42.76 1.5155-27.214 1.0571-60.578-1.5872-115.5-1.1474-23.833-2.605-81.133-3.2391-127.33-0.6342-46.2-1.8454-96.9-2.6916-112.67-0.8462-15.767-1.1531-36.956-0.6819-47.087 0.9827-21.129 0.8357-55.876-0.4072-96.246l-0.8621-28-18.352 64.013c-10.721 37.395-21.085 76.759-24.924 94.667-10.745 50.119-47.214 199.79-57.831 237.34-3.32 11.741-10.809 34.541-16.642 50.667-14.356 39.686-18.363 52.53-23.71 75.985-3.529 15.482-17.319 69.473-21.321 83.48-0.978 3.4226 11.151 4.1752 81.448 5.0539 67.385 0.8423 74.718 0.7167 81.623-1.3978zm-519.09-9.1822 10.015-2.9733 42.946 2.8452c23.62 1.5648 43.145 2.646 43.389 2.4028 1.27-1.27 9.8785-98.854 18.663-211.56 7.4043-94.997 7.5383-97.657 7.7606-154 0.2507-63.531-0.2302-58.467 11.398-120.04 8.2634-43.756 10.537-61.259 12.033-92.626 0.752-15.767 3.2525-46.067 5.5566-67.333l4.1894-38.667 0.5488-100.67c0.3018-55.367 0.1196-170.42-0.405-255.67l-0.9539-155h-266.37l5.9503 11.848 5.9503 11.848 1.7039 23.152c2.4643 33.485 2.0977 145.82-0.6891 211.15-2.8096 65.869-5.1114 102.11-10.46 164.67-4.4277 51.79-4.2422 43.673-4.1288 180.67 0.023 27.867 0.01 63.267-0.039 78.667-0.044 15.4 0.1166 40.6 0.358 56 0.2413 15.4-0.011 70.627-0.5602 122.73-0.713 67.616-0.5526 101.96 0.5606 120 3.1599 51.208 3.1947 69.812 0.195 104.24-4.3625 50.073-3.4595 88.214 2.3288 98.365 3.5105 6.1563 9.8311 8.6486 22.19 8.7503 5.8666 0.048 19.967 1.2219 31.333 2.6081 25.499 3.1097 42.77 2.6805 56.533-1.405zm278.82-27.287c4.6197-16.867 13.883-49.267 20.584-72 15.442-52.381 18.827-65.515 23.885-92.667 2.254-12.1 6.5187-30.7 9.4773-41.333 2.9585-10.633 10.821-40.333 17.472-66 18.406-71.03 26.836-101.22 41.892-150 7.5815-24.567 18.097-59.067 23.368-76.667 11.432-38.173 18.391-57.206 35.421-96.88 24.007-55.928 32.175-78.576 43.202-119.79 3.0415-11.367 7.9363-29.667 10.877-40.667s8.6943-31.1 12.785-44.667l7.4379-24.667-1.611-23.333c-0.886-12.833-1.9032-33.533-2.2604-46-0.9647-33.666-1.5843-39.06-4.5961-40.016-1.3836-0.4391-11.863-2.5324-23.287-4.6517-11.625-2.1565-23.901-5.2858-27.878-7.1066-8.8777-4.0643-18.118-12.245-18.125-16.048-0.01-4.3201 14.137-24.339 24.655-34.893 7.3149-7.3396 12.398-10.941 23.35-16.546 7.7-3.9403 16.166-8.5228 18.813-10.183l4.8128-3.0192 1.1872-35.768c0.653-19.672 1.1872-44.468 1.1872-55.102 0-18.927-0.088-19.52-4.2063-28.212-5.2024-10.981-13.141-18.914-21.805-21.792-5.8371-1.9388-10.534-2.0163-44.567-0.7354-29.234 1.1002-43.991 1.0428-63.732-0.2479-32.117-2.0999-132.88-2.0749-134.18 0.033-0.5773 0.934-9.7391 1.5979-25.777 1.868-38.241 0.6441-36.231-2.6517-38.475 63.086-0.9012 26.4-2.0738 138.9-2.6059 250-0.8064 168.4-1.3311 206.66-3.1547 230-4.6603 59.654-11.691 138.29-14.186 158.67-4.7324 38.645-6.7761 93.141-7.2251 192.67-0.2513 55.692-0.6903 68.368-3.1634 91.333-5.4063 50.206-13.024 168.07-12.022 186 0.5503 9.8396 4.0107 17.733 9.6115 21.924 4.7346 3.5432 18.128 4.3059 73.295 4.174l41.142-0.098zm27.662-681.05c-4.5764-1.624-8.3264-3.412-8.3333-3.9733-0.029-2.3115 25.488-39.45 31.079-45.234 9.2122-9.5304 18.689-10.229 30.714-2.2637 8.8274 5.847 12.194 11.094 12.194 19.004 0 5.9328-0.4739 6.9063-5.5584 11.418-7.0877 6.2897-39.927 22.825-46.659 23.493-3.0857 0.3064-8.4182-0.6638-13.437-2.4446zm-62.679-86.642c-9.1496-7.8074-9.6666-8.5474-9.6666-13.835 0-3.0728-0.5783-5.7869-1.285-6.0313-1.7571-0.6077 8.5674-28.572 20.499-55.524 5.4187-12.24 11.802-26.986 14.186-32.769 7.9815-19.366 15.025-23.921 32.272-20.866 8.361 1.4807 10.308 2.3864 14.465 6.7285 8.027 8.3851 8.6178 18.152 1.9037 31.473-2.5445 5.0485-10.974 19.079-18.732 31.179-7.7581 12.1-17.748 29.5-22.2 38.667-7.7943 16.048-17.014 29.391-20.232 29.28-0.8484-0.029-5.8925-3.7654-11.209-8.302zm-407.74 781.36c0.7157-4.3353 3.8998-35.342 5.3056-51.667 1.8038-20.945 4.8593-138.02 7.4297-284.67 3.4027-194.14 5.428-284.98 6.9856-313.33 0.9265-16.867 1.5585-39.067 1.4045-49.333-0.9944-66.28-0.2191-134.48 2.8188-247.97 1.9037-71.116 3.4612-152.28 3.4612-180.36v-51.057l-3 0.6118c-1.65 0.3366-9 0.9511-16.333 1.3658-40.373 2.2827-64.647 3.8735-107.33 7.034-40.432 2.9936-56.295 3.5255-108.79 3.6481-55.829 0.1303-61.779 0.3544-64.972 2.4465-6.2762 4.1123-7.8671 9.1809-7.3598 23.449 0.9857 27.725 0 79.688-2.0723 109.5-5.2816 75.886-6.2024 91.29-8.1297 136-3.459 80.246-4.6463 99.743-7.7134 126.67-2.9477 25.876-2.9619 27.095-2.9619 254.67v228.67l3.5842 10.808c4.1093 12.391 4.1268 11.919-2.497 67.192-2.9421 24.551-3.5985 35.692-3.6133 61.333-0.02 34.16 0.086 35.31 9.4499 103l6.4096 46.33h287.21zm-212.88-404.12c-10.442-3.5588-13.706-6.1383-15.802-12.488-2.3976-7.2649 0.5708-14.856 13.414-34.302 6.3282-9.582 14.127-22.074 17.332-27.759 7.0664-12.539 10.231-14.897 20.012-14.912 13.338-0.021 25.315 8.5139 25.328 18.051 0.01 4.6384-3.6586 11.285-25.097 45.509-20.728 33.089-18.63 31.545-35.187 25.902zm-77.939-108.16c-5.7469-2.4999-7.5394-6.3779-6.7395-14.581 0.5187-5.3191 3.8498-12.935 15.225-34.809 19.62-37.728 20.141-38.486 29.764-43.344 7.5825-3.8277 8.441-3.9728 16.154-2.7308 13.611 2.1921 19.316 7.838 18.172 17.985-0.5071 4.499-3.9472 11.102-14.832 28.467-22.562 35.994-27.774 42.561-37.385 47.108-8.9334 4.2262-13.944 4.695-20.359 1.9047zm-59.443 511.75 6.9954-0.8403-0.1324-84.815c-0.095-60.596 0.3139-86.718 1.4306-91.482 1.1154-4.7574 1.8855-53.251 2.6891-169.33 0.8171-118.02 1.8984-185.36 3.9395-245.33 1.5473-45.467 3.4059-118.07 4.1301-161.33 0.7243-43.267 1.6239-81.967 1.9991-86 0.3752-4.0333 3.0901-46.333 6.0331-94 2.943-47.667 6.2294-99.267 7.303-114.67 1.4547-20.867 1.7272-39.124 1.0696-71.667l-0.8824-43.667h-35.209l-0.78872 27c-0.43379 14.85-1.4127 33.831-2.1753 42.18-1.0797 11.82-0.97175 18.608 0.4875 30.667 1.0308 8.5177 1.623 18.487 1.316 22.153-5.3697 64.138-6.2187 82.943-5.7187 126.67 0.89423 78.202 0.24768 116.91-2.6764 160.22-1.5429 22.852-2.8092 54.352-2.8141 70-5e-3 15.648-0.60387 43.151-1.331 61.117-3.8836 95.958-5.5627 135.18-7.364 172-2.5976 53.103-9.2944 157.35-12.762 198.67-1.5454 18.412-3.279 55.358-3.9729 84.667-0.67705 28.6-1.6053 60.835-2.0628 71.632-0.60351 14.244-0.35582 21.38 0.90251 26 1.1022 4.0466 1.7705 15.136 1.8336 30.424 0.11102 26.908 0.54351 28.45 9.5409 34.01 9.9523 6.1508 15.456 7.2695 28.22 5.7363zm-335.87-7.9776 21.788-0.7869 4.5963-4.0356c7.0432-6.184 7.3088-7.2977 5.0492-21.176-1.8362-11.278-1.8198-16.97 0.16824-58.494 1.6908-35.314 1.9947-58.234 1.3085-98.667-0.91903-54.146 0.19022-90.266 3.9717-129.33 1.1002-11.367 2.9242-30.267 4.0533-42 3.8-39.49 4.6146-71.99 2.991-119.33-2.165-63.132-1.8685-131.44 0.74379-171.33 8.3999-128.28 9.4939-162.35 7.6755-239.09-1.5418-65.067-4.5408-171.43-6.2918-223.15l-0.88845-26.241-12.308 26.241c-22.53 48.034-89.844 182.4-99.412 198.43-10.439 17.496-17.325 31.409-42.796 86.474-9.498 20.533-29.304 61.704-44.013 91.49l-26.744 54.157 13.059 17.843c37.029 50.592 45.542 68.378 46.833 97.843 0.93086 21.246-0.59462 27.231-16.44 64.496-13.756 32.353-19.074 43.591-27.427 57.961-7.8626 13.527-16.192 32.926-27.281 63.543-22.999 63.496-35.939 96.542-45.326 115.76l-9.9776 20.426 1.5193 24.907c0.8356 13.699 2.3832 33.307 3.4392 43.574 4.457 43.334 4.8788 50.028 4.2375 67.252-0.37026 9.9446-1.7089 23.781-2.9748 30.748-3.848 21.177-1.6294 32.749 8.7788 45.787 5.4267 6.7978 5.4824 6.9782 4.6594 15.097-0.79396 7.8321-0.66079 8.3522 2.845 11.11l3.678 2.8931 99.347-0.8036c54.641-0.4419 109.15-1.1577 121.14-1.5904zm248.77-4.8257c2.547-20.004 10.57-141.14 13.445-203 6.8265-146.89 6.1573-138.79 17.29-209.33 3.7566-23.804 4.2722-42.571 1.502-54.667-3.5974-15.708-3.6026-19.584-0.0603-45.369 6.5572-47.73 7.2317-57.734 7.28-107.96 0.0253-26.4 0.68938-63.9 1.4757-83.333 0.78628-19.433 1.7296-88.733 2.0962-154s0.74934-124.07 0.8504-130.67c0.12849-8.3916-1.761-24.83-6.2838-54.667-5.6481-37.261-6.4898-45.538-6.6437-65.333-0.0969-12.467 0.30357-26.417 0.88999-31l1.0662-8.3333h-196.46l0.72725 68.333c0.39998 37.583 1.6941 84.833 2.8758 105 2.5354 43.267 2.8785 100.81 0.85078 142.67-2.8094 57.992-4.2683 120.42-5.4685 234-0.66643 63.067-1.9698 134.17-2.8964 158-1.1544 29.694-1.6812 104.91-1.6738 238.97 0.0109 195.37 0.0146 195.64 2.7548 199.33 5.0391 6.7961 6.0805 6.8778 88.746 6.9587l76.918 0.075zm-480.85-745.67c4.8764-8.0667 19.461-35.667 32.411-61.333 12.949-25.667 27.093-53.567 31.43-62 4.3371-8.4334 14.096-30.933 21.687-50 7.5905-19.067 17.977-43.667 23.081-54.667 8.3817-18.064 43.16-86.268 76.147-149.33 6.9044-13.2 12.42-24.154 12.257-24.343-0.16283-0.1885-30.842 1.1789-68.176 3.0385-117.54 5.8547-105.21 4.8096-116.1 9.8458-16.44 7.6024-16.073 6.7817-17.688 39.46-2.4866 50.285-5.1797 164.79-7.4635 317.33-0.89211 59.586-2.2075 56.197 12.42 32zm-189.04-408.03c31.9-3.284 58.326-5.9713 58.725-5.9716 0.39855-3e-4 0.47685-18.151 0.17399-40.334-0.75956-55.637 2.0581-87.167 10.97-122.76l4.2796-17.09-4.5195-1.8884c-9.4015-3.9282-15.453-4.4308-58.295-4.8419-42.849-0.41118-44.139-0.34749-49.333 2.4359-11.058 5.9262-13.359 11.339-15.248 35.879-9.7837 127.09-12.086 157.42-12.086 159.28 0 1.6063 0.97002 2.0613 3.6667 1.7199 2.0167-0.2553 29.767-3.1511 61.667-6.4351zm284-22.62c23.909-4.3597 45.947-6.1982 83.382-6.9561l38.716-0.7837 10.52-19.318c9.1295-16.765 65.957-135.42 66.024-137.85 0.0134-0.49107-3.1256-1.924-6.9756-3.1844-9.6935-3.1733-19.647-8.3212-20.528-10.617-1.0344-2.6956-9.0416-7.4091-14.886-8.7627-3.3336-0.77209-18.538 0.15077-47.168 2.8629-73.137 6.9284-88.629 7.8907-127.33 7.9091-34.635 0.0165-37.629 0.2006-38.246 2.3512-0.75698 2.6412-6.5274 29.89-9.1058 43-2.2894 11.64-1.7328 115.16 0.6576 122.29 1.824 5.443 6.5288 9.4418 13.101 11.135 6.4086 1.6512 38.429 0.3689 51.836-2.0758zm473.33-7.3039c80.403 0.2512 252.03-4.0458 324-8.1118 12.833-0.725 42.533-2.5048 66-3.9549 75.204-4.6474 109.89-5.2956 290-5.4187 97.167-0.066 188.19-0.5332 202.27-1.0372 30.705-1.0987 31.139-1.2866 36.017-15.594 6.2177-18.235 9.7084-34.045 9.7084-43.971 0-12.045-4.783-40.706-12.665-75.893-13.457-60.073-14.847-66.024-15.602-66.779-0.8229-0.8229-57.336 1.0819-103.07 3.4738-51.531 2.6954-109.44 7.5298-112.41 9.3846-1.5667 0.97843-3.5001 3.5956-4.2965 5.8159-6.2514 17.429-12.336 23.604-24.097 24.455-10.188 0.73693-16.514-2.3428-21.073-10.259-6.1415-10.664-13.299-16.983-22.16-19.565-12.734-3.7097-81.553-1.9777-162.63 4.093-36.462 2.73-39.319 3.1321-38.444 5.4111 0.6779 1.7665-10.598 18.34-14.916 21.924-3.3308 2.7643-13.445 4.0085-20.975 2.5803-9.4442-1.791-15.742-7.0305-18.486-15.379-3.759-11.437-2.5581-11.233-66.644-11.368-57.694-0.12209-78.829 1.032-104.53 5.7084-8.0667 1.4675-24.867 3.1779-37.333 3.801-12.467 0.62306-26.061 1.5233-30.21 2.0005-12.191 1.4022-15.79 7.1297-15.79 25.133 0 14.774-1.6211 16.646-18.061 20.85l-10.44 2.67-3.4162-3.1623c-1.8789-1.7393-6.8154-4.6871-10.97-6.5507-10.307-4.6236-12.165-7.8092-11.58-19.854l0.4669-9.6078-5.4173-3.833c-6.1527-4.3533-4.7991-4.2374-45.249-3.8742-28.571 0.2565-28.547 0.25158-43.333 8.8786-5.0904 2.9698-10.845 2.3796-19.479-1.998-9.6866-4.9113-8.763-4.8705-77.385-3.4165l-53.531 1.1342-14.659 43.483c-17.067 50.623-23.18 66.473-38.616 100.12-6.2248 13.567-12.091 26.467-13.035 28.667l-1.7176 4 6.7432 0.2898c3.7088 0.1595 12.804 1.488 20.212 2.9524 19.721 3.8985 16.706 3.8002 97.468 3.1785 41.067-0.3161 103.77-0.4839 139.33-0.3728zm-598.67-22.048c0-13.778-0.49832-22-1.3333-22-0.83502 0-1.3333 8.2222-1.3333 22s0.49832 22 1.3333 22c0.83501 0 1.3333-8.2222 1.3333-22zm1771.3-4.0026c90.167-4.9013 89.029-4.8171 93.057-6.8824 2.0482-1.0502 4.2773-3.3649 4.9537-5.1438 0.6763-1.7789 1.2973-19 1.38-38.27 0.13-30.306-0.4592-41.477-4.3648-82.757l-4.5151-47.722-4.5889-4.511-4.5888-4.511-18.667-1.3963c-28.34-2.1198-82.146-3.9484-140.87-4.7872-61.365-0.87653-58.058-1.5331-56.434 11.205 0.5221 4.095 1.1365 20.645 1.3654 36.779l0.4161 29.333 8.688 32c11.57 42.614 23.302 82.155 24.974 84.17 0.7447 0.8972 3.8676 2.9018 6.9398 4.4547 4.9614 2.5078 7.0765 2.7383 18.919 2.0622 7.3333-0.4187 40.333-2.2289 73.333-4.0228zm-173.97-2.6379-5.8629-5.9739-8.7481 4.8189c-4.8114 2.6504-9.318 5.3386-10.015 5.9739-0.7209 0.6573 5.5745 1.1549 14.611 1.1549h15.878zm-1091.9-188.77 16.781-1.7122 0.0183-36.105c0.0139-27.525 0.77344-44.185 3.1962-70.105 2.5184-26.945 3.1819-42.356 3.1971-74.271 0.0132-27.608-0.44332-40.733-1.4519-41.742-1.0726-1.0726-2.5625-0.55287-5.4999 1.9188-3.0513 2.5675-7.1758 10.754-16.999 33.742-21.541 50.407-40.038 91.07-58.99 129.69-9.8978 20.167-20.644 42.291-23.88 49.165l-5.8839 12.498 36.366-0.68076c20.001-0.37443 43.917-1.4513 53.147-2.393zm448.85 2240.6c-7.2944-5.0364-9.6175-7.5907-12.927-14.213-4.8694-9.7445-5.095-15.413-1.377-34.593 2.237-11.54 2.8626-22.982 3.9572-72.381 1.95-88.009 2.6979-100.82 9.4202-161.34 2.1177-19.067 4.5557-44.267 5.4178-56 2.4665-33.571 0.5873-100.12-5.5951-198.14-1.5907-25.22-1.5552-26.327 1.0064-31.333 3.0638-5.988 12.791-13.114 20.927-15.33 6.9116-1.8832 14.737 0.4767 18.516 5.5839 3.9211 5.2994 5.0132 21.057 5.908 85.24 0.8207 58.876-0.1317 86.705-4.2888 125.32-1.2163 11.297-1.8372 28.923-1.6673 47.333 0.2422 26.255-0.1045 31.642-3.3041 51.333-4.7767 29.398-5.9447 40.906-7.5101 74-3.8271 80.906-2.8945 140.25 2.4933 158.66 3.5356 12.084 3.4458 14.71-0.7942 23.219-2.5522 5.1217-5.7176 8.6865-11.48 12.928-4.3759 3.2213-8.3731 5.857-8.8827 5.857-0.5097 0-4.9283-2.7629-9.8192-6.1399zm-231.6-65.529c-2.5518-1.2822-5.5087-3.899-6.5709-5.815-3.0227-5.4525 0.018-10.669 15.166-26.018 14.908-15.106 20.634-19.152 27.111-19.16 6.3341-0.01 10.849 2.7738 19.269 11.868 15.594 16.844 11.155 23.031-26.062 36.321-15.928 5.6876-22.002 6.2768-28.913 2.8045zm-88.718-61.181c-7.265-4.8114-13.828-11.1-16.09-15.417-4.6934-8.9588-0.7667-19.746 16.866-46.332 14.444-21.779 26.891-36.144 34.821-40.19 8.165-4.1655 15.701-4.6426 22.063-1.3969 13.569 6.9225 14.473 15.164 3.6688 33.448-4.0492 6.8523-9.5717 15.522-12.272 19.265-4.5288 6.2776-43.001 54.14-43.518 54.14-0.1254 0-2.6174-1.5824-5.5376-3.5164zm-517.31-2283c-10.932-2.6778-14.623-8.2911-14.587-22.188 0.0441-17.128 10.348-31.646 25.607-36.082 5.5689-1.6189 8.0086-1.7421 11.361-0.57343 11.462 3.9956 22.286 16.316 22.286 25.367 0 10.703-11.2 25.544-23.17 30.702-6.6875 2.8819-16.098 4.0961-21.497 2.7737zm1262.5-139.96c-5.9976-3.6573-9.8818-9.2142-9.8818-14.137 0-5.1658 3.9994-13.03 18.314-36.008 14.037-22.534 16.923-25.821 24.078-27.424 12.328-2.7617 31.176 3.9136 33.14 11.737 1.7533 6.9858-4.6824 21.421-13.988 31.374-5.1954 5.5571-45.115 36.99-46.957 36.974-0.3224-3e-3 -2.4394-1.1351-4.7044-2.5163z" fill="#221e1f"/></g></g></svg>
