<?xml version="1.0" encoding="UTF-8"?>
<svg width="3241.3" height="3241.3" version="1.1" xmlns="http://www.w3.org/2000/svg"><path d="m1668.8 2822.7h-1572.5l-1.0087-31.667c-1.0656-33.452-0.26361-112.63 2.2046-217.67 2.2247-94.676 1.254-106.56-10.726-131.26-15.412-31.783-45.118-55.056-77.71-60.88l-9.058-1.6188v-263.34l4.659-10.885c5.7988-13.548 11.917-33.351 14.63-47.351 5.3647-27.684 24.363-162.63 29.565-210l3.5872-32.667-14.409-30.664c-7.925-16.865-19.724-42.828-26.221-57.694l-11.812-27.03v-438.25l6.3333-0.8591c23.052-3.1271 48.997-18.35 64.517-37.854 14.156-17.791 23.205-38.473 26.387-60.316 1.8396-12.625 4.9643-79.393 6.9695-148.92 3.8947-135.05-7.3792-241.1-34.341-323.04-14.115-42.899-35.302-75.988-61.044-95.34l-8.822-6.632v-170.07h3147.1l-1.1226 125.67c-1.8155 203.23-1.7219 221.34 1.2007 232.33 11.213 42.195 43.188 73.714 83.853 82.661l10.333 2.2733-0.029 132.87c-0.029 131.86-0.05 132.91-2.8112 138.87-4.5975 9.9162-11.569 31.479-14.374 44.463-5.6646 26.214-26.622 174.33-31.849 225.09l-2.4252 23.552 3.916 7.7443c6.0165 11.898 26.794 57.232 37.748 82.357l9.8257 22.539v440.58l-6.5052 0.8629c-25.942 3.4414-53.651 21.942-70.27 46.919-12.833 19.287-18.534 36.794-20.589 63.228-5.1174 65.843-7.9908 199.13-5.4182 251.33 6.0211 122.18 27.97 217.58 61.619 267.84 8.6082 12.858 23.603 28.997 33.593 36.157l7.4415 5.3333 0.1277 171.33z" fill="#a25523"/><path d="m3204.8 1889.6c-5.4969 7.4416-9.8261 11.952-12.294 12.807-4.8603 1.6845-58.743-0.013-93.182-2.9356-31.995-2.7152-58.262-5.7667-114.15-13.261-50.059-6.7129-95.634-12.109-152.48-18.053-21.267-2.2237-40.206-4.3064-42.088-4.6282-3.4164-0.5841-3.4297-0.5482-8.4492 22.772-2.7651 12.847-4.8253 23.514-4.5782 23.705 1.521 1.1762 97.398 13.49 135.12 17.353 56.615 5.7987 158.13 14.05 197.63 16.065 27.001 1.3769 38.684 2.4624 41.352 3.8421 2.0452 1.0576 6.8604 5.245 10.7 9.3052 7.8255 8.2743 8.6884 12.06 4.3654 19.15-2.8277 4.6376-14.295 11.907-20.717 13.132-2.2 0.4198-21.7-1.9658-43.333-5.3013-55.915-8.6212-238.82-31.439-252-31.438l-3.3333 3e-4 -0.088 30.333c-0.1218 41.96-4.0424 63.126-18.828 101.65-11.665 30.39-17.891 41.598-30.147 54.276-6.4631 6.6856-6.5819 6.9452-3.4809 7.6105 9.1472 1.9624 82.604 3.6634 175.88 4.0727 57.567 0.2526 108.15 0.9061 112.4 1.4522 6.3433 0.8142 7.5867 1.3784 6.9079 3.1345-1.9921 5.1532-7.3036 28.146-8.1182 35.142l-0.8926 7.6667h-4.8164c-2.6491-0-18.616-0.5905-35.483-1.3087-16.867-0.7181-67.567-2.5235-112.67-4.0119-76.278-2.5175-116.26-4.0686-159.45-6.1861-30.164-1.4789-42.842 2.6492-81.584 26.565-11.672 7.2056-16.44 9.4083-21.333 9.8569-10.12 0.9277-12.151 1.6184-14.271 4.8533-1.1547 1.7624-3.6878 14.704-5.9824 30.566-6.6748 46.139-7.8418 49.817-19.342 60.964-4.524 4.3848-4.7493 4.4475-10.157 2.8275-7.2328-2.167-9.5269-4.817-22.975-26.539-16.919-27.328-25.985-36.132-37.298-36.221-2.5287-0.02-5.738-1.9031-10-5.8681-12.458-11.589-15.219-12.828-28.607-12.828h-11.958l0.9619 46.333c1.5405 74.207 3.8273 121.68 6.0851 126.33 1.7186 3.539 3.5617 4.4834 16.098 8.2488 17.706 5.3182 25.616 6.1582 104.48 11.095 149.66 9.369 230.1 15.876 255.78 20.691 22.748 4.2653 29.968 5.4044 58.889 9.2913 13.2 1.774 42.326 5.9165 64.725 9.2056 22.399 3.289 49.495 6.7379 60.214 7.6641l19.489 1.684 0.7433 6.7285c0.4088 3.7007 1.1396 14.679 1.6241 24.395 0.8776 17.601 0.87 17.667-2.0647 17.667-3.3862 0-99.834-13.84-143.41-20.579-16.141-2.4962-42.841-7.532-59.333-11.191-36.428-8.0813-38.557-8.4225-88.652-14.209-104.59-12.081-134.89-13.996-221.67-14.01-40.096-0.01-69.667 0.4948-69.667 1.1813 0 2.5446 5.5709 19.054 8.6917 25.757 4.2278 9.0815 4.1612 15.881-0.2667 27.225-6.6811 17.116-4.5713 44.988 8.4647 111.83 5.6415 28.925 5.6358 37.77-0.029 45.198-4.4723 5.8635-14.919 11.334-33.543 17.566-21.399 7.1604-34.4 8.6486-60.651 6.942-21.513-1.3986-22.295-1.3557-35.333 1.9395-7.3333 1.8534-23.207 7.6414-35.274 12.862l-21.941 9.4923h-16.303c-14.378 0-16.383-0.2754-16.983-2.3333-0.3743-1.2833-1.992-8.5784-3.5949-16.211-2.6736-12.732-2.8446-16.255-2.0701-42.667 2.4677-84.161 2.4868-91.191 0.3147-115.91-1.1819-13.452-2.1489-24.868-2.1489-25.369s-2.4387-0.677-5.4194-0.3928c-3.0943 0.2951-7.934-0.4435-11.28-1.7214-8.272-3.1591-11.543-8.9322-12.371-21.834-0.5749-8.9584-1.2965-11.183-6.3263-19.501-4.0375-6.6776-5.9328-11.504-6.5617-16.708-1.008-8.3413-4.5282-14.897-9.1233-16.991-2.1272-0.9692-14.575-1.1963-38.402-0.7005-27.653 0.5754-40.808 0.229-61.015-1.6068-21.893-1.9889-27.993-2.0998-40.631-0.7387l-14.87 1.6016 0.2077 18.21c0.1142 10.016 1.4633 28.71 2.998 41.544 5.7194 47.827 2.2274 93.907-9.8668 130.2-7.529 22.595-18.043 41.773-37.685 68.736-14.008 19.23-15.972 20.417-33.654 20.341-10.877-0.046-13.891-0.5845-21.333-3.8086-4.7667-2.065-14.667-5.9726-22-8.6837-22.119-8.1771-52.021-21.331-70.527-31.025-32.476-17.012-64.062-32.396-79.758-38.846-17.229-7.0801-36.47-18.144-56.561-32.522-20.22-14.471-27.07-17.417-70.839-30.461-31.156-9.2851-42.043-14.346-50.071-23.275-7.7441-8.6132-11.157-15.783-13.607-28.588-2.6571-13.887-2.526-43.006 0.2802-62.261 2.0443-14.027 2.0641-15.823 0.2055-18.622-1.9924-3.0007-2.5758-3.0865-18.59-2.7331-10.043 0.2216-22.459-0.4756-31.627-1.7762-18.678-2.6494-28.587-2.9183-54.906-1.4904-16.82 0.9126-27.865 0.5689-59.333-1.8462-21.267-1.6321-47.61-3.041-58.541-3.1309l-19.874-0.1634-3.4588 4.5493c-7.0381 9.2572-18.023 20.162-21.085 20.93-3.5939 0.902-13.303-2.4418-18.142-6.2482-2.1932-1.7252-3.5453-4.4955-4.1446-8.492-1.0688-7.1275-4.9683-12.454-10.945-14.952-5.8878-2.4601-36.532-0.3333-142.48 9.8878l-24 2.3155 0.3179 14.648c0.1748 8.0564 0.9142 33.548 1.6431 56.648 1.3022 41.269 1.4054 42.325 5.933 60.667 13.783 55.836 19.245 108.79 12.515 121.33-2.2103 4.1181-22.305 27.336-23.654 27.33-0.4154-0-2.511-3.3632-4.6569-7.4699-2.4691-4.7251-5.8096-8.7294-9.098-10.905-4.6551-3.0806-6.6789-3.4745-19.432-3.7823-26.843-0.6479-109.22-8.7654-160.07-15.773-2.9921-0.4123-7.2479 0.5345-12.667 2.8182-6.9721 2.9383-9.4567 3.3311-17.061 2.6968-12.019-1.0025-16.68-3.6317-20.106-11.342-4.0434-9.0982-4.3442-24.726-1.6473-85.58 2.1328-48.126 2.0733-80.56-0.16849-91.769-0.60692-3.0346-2.4282-4.5959-9.3343-8.0014-11.795-5.8162-19.749-13.407-21.827-20.83-1.0906-3.8951-1.4821-12.251-1.1465-24.47l0.50957-18.555-8.6896 2.5596c-15.66 4.6128-36.436 8.9103-50.69 10.485-8.8465 0.9775-47.13 1.679-104 1.9055-69.24 0.2759-95.228 0.8444-112.67 2.465-12.467 1.1585-30.767 2.8347-40.667 3.7248-11.895 1.0694-51.015 1.6699-115.33 1.7705-65.011 0.1016-101.79 0.6717-110.76 1.7168-7.3839 0.8606-33.784 3.1055-58.667 4.9888-47.875 3.6235-71.033 6.0807-88.121 9.3507-5.7493 1.1002-11.203 2.0004-12.12 2.0005-1.2544 1e-4 -1.6671-4.6219-1.6671-18.666v-18.667l3.6667-0.01c8.2263-0.012 42.335-2.9075 62.333-5.2913 11.733-1.3986 32.133-2.9205 45.333-3.382s45-2.2923 70.667-4.0684c78.821-5.4544 95.818-6.042 127.33-4.4022 36.716 1.9104 70.676 0.8771 113.33-3.4486 18.7-1.8962 34.467-3.5931 35.038-3.7709 2.7873-0.8678-14.857-14.785-44.371-34.998-17.967-12.305-40.837-28.268-50.824-35.475-16.311-11.77-18.448-13.779-21.02-19.758-1.5746-3.6603-3.2357-9.3749-3.6914-12.699-0.78219-5.7067-0.54989-6.3065 4.1643-10.753 6.2658-5.9094 14.077-9.9491 19.237-9.9491 9.3309 0 35.613 16.631 62.134 39.318 20.808 17.8 58.183 53.199 60.133 56.954 1.0294 1.9825 3.4139 8.4867 5.2989 14.454 3.0881 9.7757 3.7146 10.78 6.3312 10.152 11.415-2.7399 95.405-8.8991 121.1-8.8807 4.0259 0 6.0081-1.1159 11.493-6.4866 8.5134-8.3361 16.317-11.406 26.596-10.462 4.242 0.3895 9.0224 1.1226 10.623 1.629 2.4894 0.7876 3.388-0.015 6.2094-5.5446 5.4327-10.648 11.066-17.404 17.824-21.376 6.1171-3.5957 7.0587-3.7454 22.083-3.5105 21.813 0.3409 20.48 3.7046 17.082-43.116-5.5113-75.926-7.1081-109.91-6.2444-132.91 0.92043-24.504-0.0106-30.683-5.3842-35.731-3.952-3.7127-14.238-4.7212-26.454-2.5938-14.873 2.59-107.03 8.191-148.03 8.9965-34.221 0.6724-42.499 0.3964-72-2.4005-39.847-3.7778-87.247-3.9568-153.33-0.5792-22.733 1.1619-70.133 3.3136-105.33 4.7816-64.978 2.7099-143.04 7.0445-222.67 12.364-24.2 1.6168-45.35 2.7479-47 2.5136-2.9801-0.4233-3-0.5805-3-23.667v-23.241h3.6237c1.993 0 14.95 0.6573 28.793 1.4607 18.304 1.0623 43.955 1.0559 94.043-0.023 80.849-1.742 111.48-3.059 172.87-7.4319 91.677-6.5301 117.43-7.4257 249.33-8.6693 123.12-1.1608 122.74-1.1413 187.93-9.4655 17.563-2.2423 33.639-4.9597 35.726-6.0386 3.9831-2.0597 9.0256-9.0932 8.9608-12.499-0.04-2.1038-94.089-52.369-128.62-68.742-57.326-27.182-116.79-54.351-117.33-53.612-0.56957 0.7731-11.228 39.319-12.08 43.687-2.7376 14.034-13.638 24-26.25 24-10.613 0-65.254-11.233-71.876-14.776-3.0761-1.6459-7.7965-11.893-7.7965-16.924 0-4.2575 3.9118-15.659 15.656-45.633 7.8096-19.932 9.6775-26.907 9.6775-36.136v-6.9548l-41.667 0.9153c-22.917 0.5034-54.867 1.5248-71 2.2697s-51.833 1.5825-79.333 1.8613c-69.163 0.7011-128.21 3.8223-203.08 10.734-39.88 3.6816-40.405 3.7687-49.208 8.1678-7.8934 3.9443-14.802 3.9882-22.428 0.1426l-5.9492-3-3.1048-17.275c-2.7899-15.523-2.8945-17.428-1.0311-18.791 1.1405-0.834 13.038-2.8457 26.438-4.4706 28.311-3.4329 63.471-4.7637 179.7-6.8016 45.1-0.7908 121.6-2.3085 170-3.3726 48.4-1.0642 91.055-1.9397 94.789-1.9456l6.789-0.011 1.6929-5.6667c2.5323-8.4763 6.4017-15.593 12.392-22.792 4.6696-5.6119 5.4928-7.6036 6.278-15.19 0.93306-9.0147 4.0075-13.604 9.207-13.743 10.786-0.2889 23.061-3.1131 37.519-8.6325 15.844-6.0482 17.467-6.3934 32.867-6.9922 18.026-0.7008 38.132 1.5402 41.182 4.5899 2.5149 2.5149 2.6174 17.797 0.17349 25.881-0.97735 3.2332-5.7774 13.065-10.667 21.847-4.8893 8.7828-8.8897 16.433-8.8897 17 0 4.0541 194.55-2.6274 202.65-6.9595 1.3742-0.7355 3.6622-2.9884 5.0846-5.0066 3.3169-4.7065 4.9024-28.651 3.5232-53.21l-0.96176-17.126-11.692-11.747-108.3 0.9237c-86.231 0.7354-121.48 0.4937-172.97-1.186-122.94-4.0107-139.04-4.311-171.25-3.1942-46.11 1.5986-126.63 7.2633-228.45 16.071l-49.699 4.2994-5.8751-2.8544c-3.9833-1.9351-6.9645-4.7131-9.2582-8.627-2.9514-5.0362-7.9081-17.019-7.04-17.019 0.17099 0 10.448-2.1203 22.837-4.7118 18.438-3.8565 30.167-5.3001 64.63-7.9546 78.528-6.0485 97.786-6.5452 388.1-10.01 97.212-1.1604 229.09-3.2862 268.9-4.3344 10.794-0.2843 12.624-0.6938 15.598-3.4895 1.853-1.7421 3.7131-4.7421 4.1336-6.6667 0.42045-1.9245-1.3369-32.299-3.9053-67.499-9.1925-125.99-9.2894-127.93-7.5996-152.36 1.58-22.843 0.68456-27.722-5.5467-30.221-2.7747-1.1126-21.991-2.4693-55.575-3.9236-58.246-2.5221-82.358-2.6796-121.25-0.7923-14.988 0.7274-56.088 2.5196-91.333 3.9828-35.245 1.4631-96.182 4.4381-135.42 6.6109-124.7 6.9059-136.82 7.2524-188.67 5.392-62.913-2.2572-142.19-0.015-168.51 4.7656-6.146 1.1163-11.965 1.7265-12.93 1.356-0.96568-0.3706-2.7699-2.6348-4.0093-5.0316-1.8603-3.5974-2.113-6.6649-1.448-17.579 0.44302-7.2717 1.0009-13.417 1.2398-13.656 0.23887-0.2388 4.9091-1.1374 10.378-1.9967 6.7608-1.0623 18.267-1.268 35.944-0.6427 47.655 1.6858 202.5 2.1485 239.33 0.7152 19.8-0.7706 76.8-3.5143 126.67-6.0972 49.867-2.5827 117.07-5.2236 149.33-5.8684s69.167-2.0697 82-3.1664c12.833-1.0968 45.233-2.6517 72-3.4553 26.767-0.8037 52.417-2.1078 57-2.8981l8.3333-1.4368v-221.76l-23.041-7.6381c-12.672-4.201-23.743-7.6381-24.602-7.6381-0.85882 0-4.2669 4.182-7.5734 9.2935-5.6524 8.7377-6.7312 9.6547-18.038 15.333-15.9 7.9856-20.979 8.1208-28.345 0.7548-2.9068-2.9067-4.9235-5.8699-4.4817-6.5848 0.44181-0.7148 7.9907-5.0541 16.775-9.6427 8.7846-4.5887 15.972-8.7009 15.972-9.1382 0-1.2875-43.599-8.1918-56.717-8.9817-6.628-0.3991-22.228 0.02-34.667 0.9324-15.167 1.112-66.093 1.7854-154.62 2.0445-126.72 0.3709-132.85 0.502-153.33 3.2734-14.445 1.9548-33.818 3.2633-60 4.0526-68.471 2.0642-174.37 8.4204-211.26 12.68-9.124 1.0536-16.712 1.7807-16.863 1.6158-0.31364-0.3438 6.069-33.418 6.5008-33.686 0.15625-0.097 39.284-1.5034 86.951-3.1248 105.72-3.596 173.03-6.453 190.34-8.0796 7.1552-0.6722 24.075-2.8907 37.6-4.9301l24.591-3.7079-18.933-10.329c-23.713-12.936-42.317-20.406-57.35-23.028-6.4209-1.1197-12.905-2.6943-14.408-3.499-4.2897-2.2958-6.5082-9.4571-6.5082-21.008 0-18.227 6.5905-23.544 28.023-22.61 18.234 0.7948 28.098 6.4914 67.31 38.87 25.838 21.336 24.667 20.176 24.667 24.43 0 6.2138 5.4229 15.438 10.667 18.144 3.8493 1.9863 6.3015 2.2387 14 1.4406 5.1333-0.5322 39.333-0.8161 76-0.6309 94.354 0.4766 283.67-3.6857 286.28-6.2941 1.4722-1.4722-2.9525-88.477-8.1963-161.17-1.4187-19.666-3.114-45.656-3.7673-57.756-1.0719-19.851-1.5315-22.671-4.7064-28.869-1.9351-3.778-5.2678-8.278-7.4058-10l-3.8874-3.1311 4.478-26c2.4629-14.3 4.4924-29.174 4.5101-33.053 0.0371-8.1312-2.9621-14.944-9.7455-22.136-5.3343-5.656-7.8139-5.8993-29.182-2.8635-7.5389 1.0711-37.407 3.1988-66.374 4.7281-79.693 4.2076-105.11 6.6588-172.67 16.651-56.659 8.3803-126.01 17.215-162 20.638-8.4333 0.802-39.633 1.671-69.333 1.931-58.069 0.5084-62.761 0.8808-110.83 8.7965-17.323 2.8526-37.062 5.6067-43.863 6.1202l-12.367 0.9336 0.81514-6.5395c0.44833-3.5967 1.567-13.29 2.4859-21.54 1.6395-14.72 1.7339-15 5.0482-15.009 32.739-0.087 219.37-11.248 312.71-18.701 63.203-5.0469 215.56-19.879 260.67-25.377 81.228-9.8997 92.625-12.624 99.107-23.693 2.8409-4.851 2.846-5.2452 0.92537-71.553-0.72219-24.933-1.325-62.617-1.3396-83.74l-0.0266-38.407-4.6667-8.7938c-2.5667-4.8366-4.6667-9.9332-4.6667-11.326 0-4.3535 3.4444-9.4675 11.529-17.118 10.092-9.5493 14.55-12.606 21.353-14.641 5.0823-1.5201 6.6245-1.3083 18.329 2.5162 14.175 4.6317 26.887 5.374 48.788 2.849 6.2333-0.7186 31.666-2.2392 56.516-3.3792 38.4-1.7615 48.408-2.6646 66.667-6.0158 11.816-2.1687 24.02-3.9435 27.12-3.944 7.5413 0 10.119 3.8752 10.82 16.268 0.4566 8.0808 0.7964 9.0582 2.9149 8.3858 1.9516-0.6194 2.7987 0.552 4.5503 6.292 3.9605 12.978 4.8072 30.529 5.8081 120.39 0.9056 81.296 1.2045 89.721 3.3224 93.644 5.6873 10.534 13.387 11.433 80.282 9.3728l54.667-1.6836 0.8429-13.333c1.2952-20.489 5.5037-29.617 24.732-53.64 13.368-16.702 14.994-20.077 24.264-50.36 10.046-32.816 12.949-39.912 18.229-44.548 2.4976-2.1929 6.8032-4.4116 9.568-4.9302 4.435-0.832 6.7543-0.052 19.695 6.6207 20.251 10.442 45.813 26.531 50.921 32.049 9.3173 10.065 9.1493 22.688-0.589 44.25-7.9823 17.674-15.522 36.514-14.835 37.066 2.6137 2.1014 120.43 36.248 157.17 45.551l24.667 6.2466 34.667-0.8296c19.067-0.4562 46.367-1.5051 60.667-2.3309 14.3-0.8257 44-1.3002 66-1.0545 110.72 1.2368 237.47-1.1884 315.33-6.0333 29.7-1.848 66.3-3.371 81.333-3.3844 25.132-0.022 46.85-0.8059 108.84-3.9269 12.563-0.6325 24.145-1.8475 25.738-2.6999 4.8569-2.5993 8.0764-9.3518 8.0819-16.951l0.01-6.904 7-0.7261c3.85-0.3994 13-1.104 20.333-1.5658 14.996-0.9443 20.783-2.8032 23.996-7.7073 2.0673-3.1552 2.0228-4.256-0.7197-17.778-4.223-20.822-3.3261-35.438 3.2041-52.215 2.6689-6.8569 4.8526-13.637 4.8526-15.066 0-4.019-3.4612-9.7806-8.2855-13.792-7.5354-6.2661-10.367-12.239-10.374-21.885-0.01-7.2146 0.8575-10.421 5.5463-20.599 6.3374-13.758 8.0543-25.373 8.3056-56.19 0.134-16.436-0.048-17.701-3.5254-24.443-2.0166-3.9103-3.6666-8.2802-3.6666-9.7109 0-3.9838 6.1872-15.306 11.713-21.436 9.3399-10.359 20.543-12.581 42.473-8.4235 17.946 3.4023 37.138 5.7614 75.814 9.3194 55.874 5.1401 108.36 12.299 113.52 15.484 5.6149 3.4636 8.1774 9.3588 11.441 26.319 5.1931 26.992 5.3718 23.968-5.8369 98.762-5.8377 38.954-6.505 45.501-5.322 52.217 1.8593 10.555 6.4179 20.598 13.04 28.729 7.5904 9.319 9.1565 12.694 12.502 26.946 3.2662 13.912 9.1059 24.086 15.008 26.147 4.4198 1.5433 77.971-1.0054 112.98-3.9149 29.012-2.4113 45.098-2.4748 107.72-0.4255 38.6 1.2632 55.296 1.2733 74.667 0.045 37.266-2.3628 67.9-4.0187 104.28-5.6373 17.967-0.7991 39.567-2.2694 48-3.2672 8.4333-0.9979 15.505-1.644 15.715-1.4359 1.264 1.2529 16.427 47.695 15.783 48.339-0.4335 0.4335-28.848 1.2514-63.143 1.8175s-77.055 2.0693-95.022 3.3404c-34.981 2.475-103.86 3.1342-198 1.8955-47.224-0.6212-52.569-0.4504-78.667 2.5143-15.4 1.7494-34.9 3.2494-43.333 3.3332-13.193 0.1312-15.978-0.2262-19.953-2.5613-7.7346-4.5439-10.02-10.043-10.23-24.62-0.1714-11.872-0.3805-12.77-3.3334-14.314-4.6777-2.4454-7.5316-2.0437-9.333 1.3137-1.9204 3.5793-9.5219 76.107-12.402 118.33-1.1255 16.5-2.3436 33.014-2.7068 36.696l-0.6604 6.6965 8.8195 2.3132c4.8508 1.2723 21.79 8.3601 37.643 15.751 41.463 19.33 44.398 20.176 82.823 23.877 20.446 1.9688 37.192 5.7219 57.333 12.849 14.71 5.2053 29.598 9.1658 85.333 22.7 17.451 4.2376 55.41 16.499 69.064 22.309 5.6482 2.4033 13.193 5.0954 16.766 5.9824 13.889 3.4476 27.401 12.959 33.714 23.732 3.5091 5.9878 3.5218 6.1106 2.7171 26.221-2.0152 50.363-12.098 88.327-33.28 125.3-5.0081 8.7416-8.9278 16.049-8.7103 16.238 1.1663 1.015 46.824 4.8498 71.062 5.9684 53.776 2.4819 112.07 4.29 144.91 4.4945l33.089 0.2061 0.011 4c0.01 2.2-0.6882 13.15-1.5428 24.333l-1.5537 20.333-26.122-0.023c-30.498-0.026-80.871-1.994-102.79-4.0146-8.4334-0.7775-33.224-5.0284-55.089-9.4464-21.866-4.418-50.066-9.4356-62.667-11.15l-22.911-3.1174-5.9401 6.8757c-3.2671 3.7816-14.425 15.576-24.796 26.209-10.376 10.633-22.182 23.833-26.241 29.333-9.1984 12.464-12.04 15.1-20.378 18.901-12.894 5.8773-41.801 3.5051-71.317-5.8524-13.786-4.3706-60.118-21.876-97.693-36.91-34.503-13.805-51.1-19.248-75.635-24.804-12.017-2.7212-22.485-5.1917-23.261-5.49-0.9826-0.3777-1.2808 15.559-0.9817 52.473 0.4967 61.307-0.6795 88.099-7.215 164.35-3.4051 39.727-4.5848 60.034-4.1826 72 0.3082 9.1666-1.1055 56.267-3.1415 104.67-5.5039 130.84-5.497 130.59-4.0592 149.9 1.4912 20.032 2.9973 23.639 10.963 26.256 2.4966 0.8203 24.039 2.4906 47.873 3.7119 49.243 2.5233 64.982 4.0174 119.49 11.343l38.823 5.2177 11.844-4.834c9.3447-3.8141 13.672-4.842 20.51-4.8718 10.774-0.047 19.34 4.1842 23.271 11.494 3.0204 5.6164-0.9833 4.7848 46.729 9.7061 17.6 1.8154 53 4.5517 78.667 6.0808s79.067 5.1539 118.67 8.055 84.9 5.8834 100.67 6.6271c42.163 1.9889 61.147 3.7952 64.758 6.1614 2.7799 1.8215 15.3 15.573 15.202 16.697-0.022 0.2497-3.858 5.623-8.5247 11.941zm-429.63 56.53c-6.5512-1.162-6.2735-1.6764-9.0024 16.679-1.8992 12.774-1.7996 14.638 0.7829 14.638 0.7847 0 10.993-6.15 22.684-13.667l21.257-13.667-15.096-1.501c-8.3029-0.8255-17.585-1.9424-20.626-2.4818zm-134.47-97.927c-66.438-5.6349-70.521-5.776-85.722-2.9635-7.547 1.3964-13.925 2.7642-14.173 3.0394-0.2483 0.2752-4.4105 6.6449-9.2492 14.155l-8.7977 13.654 5.4241 2.7671c5.4339 2.7722 11.475 3.4994 89.094 10.726l17.909 1.6673 4.6758-5.9011c7.141-9.0123 21.811-22.698 29.908-27.901 5.5899-3.5921 6.7635-4.8811 5.0968-5.5978-1.191-0.5121-16.565-2.1525-34.165-3.6452zm27.32 165.89c-6.5212-10.552-14.105-9.0747-20.653 4.0221-3.5715 7.143-4 9.309-4 20.219 0 6.7205 0.3458 12.566 0.7685 12.991 1.5644 1.5709 16.963-4.7835 20.475-8.4492 7.535-7.8648 8.9509-19.817 3.4097-28.783zm-97.32-86.672c-43.352-5.5357-48.909-4.9572-54.138 5.6357-2.3688 4.799-2.4978 9.9025-2.5131 99.391-0.01 51.883 0.4259 94.333 0.966 94.333 1.7477 1e-3 5.0335-9.4434 13.22-37.999 10.051-35.06 14.9-47.685 26.373-68.667 5.0123-9.1667 14.336-26.488 20.72-38.492 11.543-21.704 22.667-41.082 26.508-46.175 1.8466-2.4487 1.7734-2.7431-0.8958-3.6021-1.5988-0.5145-15.207-2.506-30.24-4.4257zm-37.298-1401.9c-3.2618-6.3936-9.3536-11.564-15.743-13.362-13.286-3.7381-103.28-14.706-120.67-14.707-14.976-6e-4 -18.642 1.8988-22.27 11.538-4.0373 10.729-3.2207 18.694 2.6674 26.021 3.1436 3.9117 4.5749 7.243 4.996 11.628 0.3246 3.38-1.347 23.389-3.7146 44.465-4.6219 41.144-4.4964 44.544 1.7676 47.897 5.2204 2.7938 48.401 12.814 61.596 14.294 12.741 1.4287 77.568 6.8231 81.996 6.8231 1.8065 0 2.1533-2.3234 2.3384-15.667 0.1244-8.9681 2.4806-33.625 5.5108-57.667 5.5772-44.251 5.7921-52.896 1.5229-61.264zm-12.369 283.84c-0.1833-0.051-34.08-4.7248-75.325-10.387l-74.992-10.294-0.5854 4.0533c-0.5886 4.0764-4.8265 173.11-4.3513 173.56 0.1398 0.1329 8.0542 1.2021 17.588 2.3761 9.5333 1.174 28.893 4.3369 43.021 7.0286l25.688 4.894 6.3038-2.6126c5.8404-2.4205 6.9137-3.6706 14.603-17.009 11.342-19.673 19.041-30.184 31.888-43.53l10.917-11.342 2.6236-40.658c2.5422-39.397 3.3136-55.892 2.6227-56.084zm-38 406.21c-18.798-6.1571-25.064-9.1896-36.049-17.448-17.396-13.077-31.984-37.421-40.747-68.001-2.5218-8.8-7.3641-27.985-10.761-42.633-3.3965-14.648-6.6107-27.015-7.1426-27.482-1.1322-0.9941-24.459-6.8445-25.01-6.2726-0.2055 0.2131-0.5799 23.057-0.832 50.764l-0.4584 50.377 16.547 7.2898c9.1006 4.0094 17.279 7.2898 18.175 7.2898s3.2429 2.1165 5.216 4.7035l3.5876 4.7035-7.3603 11.63c-10.678 16.871-13.78 20.052-24.819 25.449-15.217 7.4397-15.126 7.1444-16.208 52.847-1.3934 58.902-1.2353 132.62 0.2988 139.33 1.8992 8.3062 6.0305 13.966 14.177 19.421 7.241 4.8488 9.6951 9.5513 9.7118 18.61 0.01 5.6385-8.8226 20.036-15.84 25.818-11.161 9.1969-13.258 11.942-14.663 19.202-0.7398 3.822-2.0419 48.349-2.8934 98.949-0.8516 50.6-2.0706 96.2-2.709 101.33-0.6384 5.1333-1.7372 50.433-2.4419 100.67-1.5133 107.88-3.0447 141.7-11.285 249.22-0.9873 12.883-1.3123 25.294-0.7299 27.877 1.4589 6.4688 6.1885 10.69 14.405 12.858 12.872 3.3956 18.022 9.4578 17.882 21.048-0.1407 11.64-6.4394 21.208-21.476 32.621-7.265 5.5144-8.4338 10.196-8.3468 33.435 0.043 11.516 0.4461 28.138 0.8956 36.938s1.2056 52 1.6802 96l0.8629 80 3.671 6.2449c2.0191 3.4347 5.0191 6.7051 6.6667 7.2676 3.5068 1.1972 44.664 1.2641 45.853 0.075 0.4443-0.4443 0.1065-7.5064-0.7508-15.694-0.8572-8.1872-1.2733-15.171-0.9246-15.52 1.3381-1.3381 15.637 5.0947 21.747 9.7839 11.831 9.0795 16.315 10.394 35.651 10.455l17.246 0.054 2.707-4.6143c2.4726-4.2148 2.7763-7.6783 3.5071-40 0.7351-32.506 0.1488-56.858-2.143-89.021l-0.8766-12.302-4.8438-0.777c-27.376-4.3914-35.398-7.2082-53.171-18.669-11.637-7.5043-12.327-8.2076-12.333-12.565-0.01-3.9523 1.2874-5.8691 8.9936-13.333 11.278-10.924 18.872-15.012 42.333-22.788l18.667-6.1869 0.9583-7.2047c0.5271-3.9626 2.838-30.349 5.1355-58.637l4.1771-51.432-2.829-10.082c-2.6009-9.269-2.7233-11.465-1.5181-27.234 0.7209-9.4339 2.3257-30.952 3.566-47.819 2.4859-33.803 2.7872-31.285-5.4898-45.876-4.6062-8.1204-4.5505-19.993 0.1539-32.79 6.3882-17.377 6.9248-22.109 9.0728-80 2.6691-71.936 3.4462-109.97 4.0729-199.33 0.2803-39.967 1.4231-91.267 2.5395-114 4.5509-92.67 9.01-208.67 9.9706-259.38l0.1903-10.043zm-0.943 1364.6c-2.5484-31.437-4.129-36.928-12.14-42.177-3.0496-1.9982-9.8411-2.1869-69.621-1.9345-36.433 0.1538-66.462 0.5-66.732 0.7693-0.2693 0.2694 1.0751 28.881 2.9875 63.583 1.9125 34.701 3.4707 63.543 3.4627 64.093-0.031 2.1404 9.7512 0.8737 13.419-1.7376 7.3854-5.259 21.18-10.573 32.828-12.646 9.5061-1.6918 17.207-1.9162 40.488-1.1792 27.695 0.8766 28.99 0.8032 35.333-2.0016 11.508-5.0887 18.666-14.002 21.485-26.752 0.8937-4.0427 1.3694-9.1502 1.0572-11.35-0.3122-2.1998-1.4675-15.1-2.5673-28.667zm-148.92-1785c-1.6798-5.4858-7.8551-10.683-14.082-11.851-2.6774-0.5023-14.432 0.1628-26.122 1.4778-17.537 1.9729-25.016 2.1817-42.76 1.1936-27.214-1.5155-60.578-1.0571-115.5 1.5872-23.833 1.1474-81.133 2.605-127.33 3.2391-46.2 0.6342-96.9 1.8454-112.67 2.6916-15.767 0.8462-36.956 1.1531-47.087 0.6819-21.129-0.9827-55.876-0.8357-96.246 0.4072l-28 0.8621 64.013 18.352c37.395 10.721 76.759 21.085 94.667 24.924 50.119 10.745 199.79 47.214 237.34 57.831 11.741 3.32 34.541 10.809 50.667 16.642 39.686 14.356 52.53 18.363 75.985 23.71 15.482 3.529 69.473 17.319 83.48 21.321 3.4226 0.978 4.1752-11.151 5.0539-81.448 0.8423-67.385 0.7167-74.718-1.3978-81.623zm-9.1822 519.09-2.9733-10.015 2.8452-42.946c1.5648-23.62 2.646-43.145 2.4028-43.389-1.27-1.27-98.854-9.8785-211.56-18.663-94.997-7.4043-97.657-7.5383-154-7.7606-63.531-0.2507-58.467 0.2302-120.04-11.398-43.756-8.2634-61.259-10.537-92.626-12.033-15.767-0.752-46.067-3.2525-67.333-5.5566l-38.667-4.1894-100.67-0.5488c-55.367-0.3018-170.42-0.1196-255.67 0.405l-155 0.9539v266.37l23.696-11.901 23.152-1.7039c33.485-2.4643 145.82-2.0977 211.15 0.6891 65.869 2.8096 102.11 5.1114 164.67 10.46 51.79 4.4277 43.673 4.2422 180.67 4.1288 27.867-0.023 63.267-0.01 78.667 0.039 15.4 0.044 40.6-0.1166 56-0.358 15.4-0.2413 70.627 0.011 122.73 0.5602 67.616 0.713 101.96 0.5526 120-0.5606 51.208-3.1599 69.812-3.1947 104.24-0.195 50.073 4.3625 88.214 3.4595 98.365-2.3288 6.1563-3.5105 8.6486-9.8311 8.7503-22.19 0.048-5.8666 1.2219-19.967 2.6081-31.333 3.1097-25.499 2.6805-42.77-1.405-56.533zm-27.287-278.82c-16.867-4.6197-49.267-13.883-72-20.584-52.381-15.442-65.515-18.827-92.667-23.885-12.1-2.254-30.7-6.5187-41.333-9.4773-10.633-2.9585-40.333-10.821-66-17.472-71.03-18.406-101.22-26.836-150-41.892-24.567-7.5815-59.067-18.097-76.667-23.368-38.173-11.432-57.206-18.391-96.88-35.421-55.928-24.007-78.576-32.175-119.79-43.202-11.367-3.0415-29.667-7.9363-40.667-10.877s-31.1-8.6943-44.667-12.785l-24.667-7.4379-23.333 1.611c-12.833 0.886-33.533 1.9032-46 2.2604-33.666 0.9647-39.06 1.5843-40.016 4.5961-0.4391 1.3836-2.5324 11.863-4.6517 23.287-2.1565 11.625-5.2858 23.901-7.1066 27.878-4.0643 8.8777-12.245 18.118-16.048 18.125-4.3201 0.01-24.339-14.137-34.893-24.655-7.3396-7.3149-10.941-12.398-16.546-23.35-3.9403-7.7-8.5228-16.166-10.183-18.813l-3.0192-4.8128-35.768-1.1872c-19.672-0.653-44.468-1.1872-55.102-1.1872-18.927 0-19.52 0.088-28.212 4.2063-10.981 5.2024-18.914 13.141-21.792 21.805-1.9388 5.8371-2.0163 10.534-0.7354 44.567 1.1002 29.234 1.0428 43.991-0.2479 63.732-2.0999 32.117-2.0749 132.88 0.033 134.18 0.934 0.5773 1.5979 9.7391 1.868 25.777 0.6441 38.241-2.6517 36.231 63.086 38.475 26.4 0.9012 138.9 2.0738 250 2.6059 168.4 0.8064 206.66 1.3311 230 3.1547 59.654 4.6603 138.29 11.691 158.67 14.186 38.645 4.7324 93.141 6.7761 192.67 7.2251 55.692 0.2513 68.368 0.6903 91.333 3.1634 50.206 5.4063 168.07 13.024 186 12.022 9.8396-0.5503 17.733-4.0107 21.924-9.6115 3.5432-4.7346 4.3059-18.128 4.174-73.295l-0.098-41.142zm-681.05-27.662c-1.624 4.5764-3.412 8.3264-3.9733 8.3333-2.3115 0.029-39.45-25.488-45.234-31.079-9.5304-9.2122-10.229-18.689-2.2637-30.714 5.847-8.8274 11.094-12.194 19.004-12.194 5.9328 0 6.9063 0.4739 11.418 5.5584 6.2897 7.0877 22.825 39.927 23.493 46.659 0.3064 3.0857-0.6638 8.4182-2.4446 13.437zm-86.642 62.679c-7.8074 9.1496-8.5474 9.6666-13.835 9.6666-3.0728 0-5.7869 0.5783-6.0313 1.285-0.6077 1.7571-28.572-8.5674-55.524-20.499-12.24-5.4187-26.986-11.802-32.769-14.186-19.366-7.9815-23.921-15.025-20.866-32.272 1.4807-8.361 2.3864-10.308 6.7285-14.465 8.3851-8.027 18.152-8.6178 31.473-1.9037 5.0485 2.5445 19.079 10.974 31.179 18.732 12.1 7.7581 29.5 17.748 38.667 22.2 16.048 7.7943 29.391 17.014 29.28 20.232-0.029 0.8484-3.7654 5.8925-8.302 11.209zm781.36 407.74c-4.3353-0.7157-35.342-3.8998-51.667-5.3056-20.945-1.8038-138.02-4.8593-284.67-7.4297-194.14-3.4027-284.98-5.428-313.33-6.9856-16.867-0.9265-39.067-1.5585-49.333-1.4045-66.28 0.9944-134.48 0.2191-247.97-2.8188-71.116-1.9037-152.28-3.4612-180.36-3.4612h-51.057l0.6118 3c0.3366 1.65 0.9511 9 1.3658 16.333 2.2827 40.373 3.8735 64.647 7.034 107.33 2.9936 40.432 3.5255 56.295 3.6481 108.79 0.1303 55.829 0.3544 61.779 2.4465 64.972 4.1123 6.2762 9.1809 7.8671 23.449 7.3598 27.725-0.9857 79.688 0 109.5 2.0723 75.886 5.2816 91.29 6.2024 136 8.1297 80.246 3.459 99.743 4.6463 126.67 7.7134 25.876 2.9477 27.095 2.9619 254.67 2.9619h228.67l10.808-3.5842c12.391-4.1093 11.919-4.1268 67.192 2.497 24.551 2.9421 35.692 3.5985 61.333 3.6133 34.16 0.02 35.31-0.086 103-9.4499l46.33-6.4096v-287.21zm-404.12 212.88c-3.5588 10.442-6.1383 13.706-12.488 15.802-7.2649 2.3976-14.856-0.5708-34.302-13.414-9.582-6.3282-22.074-14.127-27.759-17.332-12.539-7.0664-14.897-10.231-14.912-20.012-0.021-13.338 8.5139-25.315 18.051-25.328 4.6384-0.01 11.285 3.6586 45.509 25.097 33.089 20.728 31.545 18.63 25.902 35.187zm-108.16 77.939c-2.4999 5.7469-6.3779 7.5394-14.581 6.7395-5.3191-0.5187-12.935-3.8498-34.809-15.225-37.728-19.62-38.486-20.141-43.344-29.764-3.8277-7.5825-3.9728-8.441-2.7308-16.154 2.1921-13.611 7.838-19.316 17.985-18.172 4.499 0.5071 11.102 3.9472 28.467 14.832 35.994 22.562 42.561 27.774 47.108 37.385 4.2262 8.9334 4.695 13.944 1.9047 20.359zm511.75 59.443-0.8403-6.9954-84.815 0.1324c-60.596 0.095-86.718-0.3139-91.482-1.4306-4.7574-1.1154-53.251-1.8855-169.33-2.6891-118.02-0.8171-185.36-1.8984-245.33-3.9395-45.467-1.5473-118.07-3.4059-161.33-4.1301-43.267-0.7243-81.967-1.6239-86-1.9991-4.0333-0.3752-46.333-3.0901-94-6.0331s-99.267-6.2294-114.67-7.303c-20.867-1.4547-39.124-1.7272-71.667-1.0696l-43.667 0.8824v35.209l27 0.7887c14.85 0.4338 33.831 1.4127 42.18 2.1753 11.82 1.0797 18.608 0.9718 30.667-0.4875 8.5177-1.0308 18.487-1.623 22.153-1.316 64.138 5.3697 82.943 6.2187 126.67 5.7187 78.202-0.8942 116.91-0.2477 160.22 2.6764 22.852 1.5429 54.352 2.8092 70 2.8141 15.648 0.01 43.151 0.6039 61.117 1.331 95.958 3.8836 135.18 5.5627 172 7.364 53.103 2.5976 157.35 9.2944 198.67 12.762 18.412 1.5454 55.358 3.279 84.667 3.9729 28.6 0.6771 60.835 1.6053 71.632 2.0628 14.244 0.6035 21.38 0.3558 26-0.9025 4.0466-1.1022 15.136-1.7705 30.424-1.8336 26.908-0.111 28.45-0.5435 34.01-9.5409 6.1508-9.9523 7.2695-15.456 5.7363-28.22zm-7.9776 335.87-0.7869-21.788-4.0356-4.5963c-6.184-7.0432-7.2977-7.3088-21.176-5.0492-11.278 1.8362-16.97 1.8198-58.494-0.1682-35.314-1.6908-58.234-1.9947-98.667-1.3085-54.146 0.919-90.266-0.1903-129.33-3.9717-11.367-1.1002-30.267-2.9242-42-4.0533-39.49-3.8-71.99-4.6146-119.33-2.991-63.132 2.165-131.44 1.8685-171.33-0.7438-128.28-8.3999-162.35-9.4939-239.09-7.6755-65.067 1.5418-171.43 4.5408-223.15 6.2918l-26.241 0.8884 26.241 12.308c48.034 22.53 182.4 89.844 198.43 99.412 17.496 10.439 31.409 17.325 86.474 42.796 20.533 9.498 61.704 29.304 91.49 44.013l54.157 26.744 17.843-13.059c50.592-37.029 68.378-45.542 97.843-46.833 21.246-0.9308 27.231 0.5946 64.496 16.44 32.353 13.756 43.591 19.074 57.961 27.427 13.527 7.8626 32.926 16.192 63.543 27.281 63.496 22.999 96.542 35.939 115.76 45.326l20.426 9.9776 24.907-1.5193c13.699-0.8356 33.307-2.3832 43.574-3.4392 43.334-4.457 50.028-4.8788 67.252-4.2375 9.9446 0.3703 23.781 1.7089 30.748 2.9748 21.177 3.848 32.749 1.6294 45.787-8.7788 6.7978-5.4267 6.9782-5.4824 15.097-4.6594 7.8321 0.794 8.3522 0.6608 11.11-2.845l2.8931-3.678-0.8036-99.347c-0.4419-54.641-1.1577-109.15-1.5904-121.14zm-4.8257-248.77c-20.004-2.547-141.14-10.57-203-13.445-146.89-6.8265-138.79-6.1573-209.33-17.29-23.804-3.7566-42.571-4.2722-54.667-1.502-15.708 3.5974-19.584 3.6026-45.369 0.06-47.73-6.5572-57.734-7.2317-107.96-7.28-26.4-0.025-63.9-0.6894-83.333-1.4757s-88.733-1.7296-154-2.0962-124.07-0.7493-130.67-0.8504c-8.3916-0.1285-24.83 1.761-54.667 6.2838-37.261 5.6481-45.538 6.4898-65.333 6.6437-12.467 0.097-26.417-0.3036-31-0.89l-8.3333-1.0662v196.46l68.333-0.7272c37.583-0.4 84.833-1.6941 105-2.8758 43.267-2.5354 100.81-2.8785 142.67-0.8508 57.992 2.8094 120.42 4.2683 234 5.4685 63.067 0.6664 134.17 1.9698 158 2.8964 29.694 1.1544 104.91 1.6812 238.97 1.6738 195.37-0.011 195.64-0.015 199.33-2.7548 6.7961-5.0391 6.8778-6.0805 6.9587-88.746l0.075-76.918zm-745.67 480.85c-8.0667-4.8764-35.667-19.461-61.333-32.411-25.667-12.949-53.567-27.093-62-31.43-8.4334-4.3371-30.933-14.096-50-21.687-19.067-7.5905-43.667-17.977-54.667-23.081-18.064-8.3817-86.268-43.16-149.33-76.147-13.2-6.9044-24.154-12.42-24.343-12.257-0.1885 0.1628 1.1789 30.842 3.0385 68.176 5.8547 117.54 4.8096 105.21 9.8458 116.1 7.6024 16.44 6.7817 16.073 39.46 17.688 50.285 2.4866 164.79 5.1797 317.33 7.4635 59.586 0.8921 56.197 2.2075 32-12.42zm-408.03 189.04c-3.284-31.9-5.9713-58.326-5.9716-58.725-3e-4 -0.3986-18.151-0.4769-40.334-0.174-55.637 0.7596-87.167-2.0581-122.76-10.97l-17.09-4.2796-1.8884 4.5195c-3.9282 9.4015-4.4308 15.453-4.8419 58.295-0.41118 42.849-0.34749 44.139 2.4359 49.333 5.9262 11.058 11.339 13.359 35.879 15.248 127.09 9.7837 157.42 12.086 159.28 12.086 1.6063 0 2.0613-0.97 1.7199-3.6667-0.2553-2.0167-3.1511-29.767-6.4351-61.667zm-22.62-284c-4.3597-23.909-6.1982-45.947-6.9561-83.382l-0.7837-38.716-19.318-10.52c-16.765-9.1295-135.42-65.957-137.85-66.024-0.49107-0.013-1.924 3.1256-3.1844 6.9756-3.1733 9.6935-8.3212 19.647-10.617 20.528-2.6956 1.0344-7.4091 9.0416-8.7627 14.886-0.77209 3.3336 0.15077 18.538 2.8629 47.168 6.9284 73.137 7.8907 88.629 7.9091 127.33 0.0165 34.635 0.2006 37.629 2.3512 38.246 2.6412 0.757 29.89 6.5274 43 9.1058 11.64 2.2894 115.16 1.7328 122.29-0.6576 5.443-1.824 9.4418-6.5288 11.135-13.101 1.6512-6.4086 0.3689-38.429-2.0758-51.836zm-7.3039-473.33c0.2512-80.403-4.0458-252.03-8.1118-324-0.725-12.833-2.5048-42.533-3.9549-66-4.6474-75.204-5.2956-109.89-5.4187-290-0.066-97.167-0.5332-188.19-1.0372-202.27-1.0987-30.705-1.2866-31.139-15.594-36.017-18.235-6.2177-34.045-9.7084-43.971-9.7084-12.045 0-40.706 4.783-75.893 12.665-60.073 13.457-66.024 14.847-66.779 15.602-0.8229 0.8229 1.0819 57.336 3.4738 103.07 2.6954 51.531 7.5298 109.44 9.3846 112.41 0.97843 1.5667 3.5956 3.5001 5.8159 4.2965 17.429 6.2514 23.604 12.336 24.455 24.097 0.73693 10.188-2.3428 16.514-10.259 21.073-10.664 6.1415-16.983 13.299-19.565 22.16-3.7097 12.734-1.9777 81.553 4.093 162.63 2.73 36.462 3.1321 39.319 5.4111 38.444 1.7665-0.6779 18.34 10.598 21.924 14.916 2.7643 3.3308 4.0085 13.445 2.5803 20.975-1.791 9.4442-7.0305 15.742-15.379 18.486-11.437 3.759-11.233 2.5581-11.368 66.644-0.12209 57.694 1.032 78.829 5.7084 104.53 1.4675 8.0667 3.1779 24.867 3.801 37.333 0.62306 12.467 1.5233 26.061 2.0005 30.21 1.4022 12.191 7.1297 15.79 25.133 15.79 14.774 0 16.646 1.6211 20.85 18.061l2.67 10.44-3.1623 3.4162c-1.7393 1.8789-4.6871 6.8154-6.5507 10.97-4.6236 10.307-7.8092 12.165-19.854 11.58l-9.6078-0.4669-3.833 5.4173c-4.3533 6.1527-4.2374 4.7991-3.8742 45.249 0.2565 28.571 0.25158 28.547 8.8786 43.333 2.9698 5.0904 2.3796 10.845-1.998 19.479-4.9113 9.6866-4.8705 8.763-3.4165 77.385l1.1342 53.531 43.483 14.659c50.623 17.067 66.473 23.18 100.12 38.616 13.567 6.2248 26.467 12.091 28.667 13.035l4 1.7176 0.2898-6.7432c0.1595-3.7088 1.488-12.804 2.9524-20.212 3.8985-19.721 3.8002-16.706 3.1785-97.468-0.3161-41.067-0.4839-103.77-0.3728-139.33zm-22.048 598.67c-13.778 0-22 0.4983-22 1.3333s8.2222 1.3333 22 1.3333 22-0.4983 22-1.3333-8.2222-1.3333-22-1.3333zm-4.0026-1771.3c-4.9013-90.167-4.8171-89.029-6.8824-93.057-1.0502-2.0482-3.3649-4.2773-5.1438-4.9537-1.7789-0.6763-19-1.2973-38.27-1.38-30.306-0.13-41.477 0.4592-82.757 4.3648l-47.722 4.5151-4.511 4.5889-4.511 4.5888-1.3963 18.667c-2.1198 28.34-3.9484 82.146-4.7872 140.87-0.87653 61.365-1.5331 58.058 11.205 56.434 4.095-0.5221 20.645-1.1365 36.779-1.3654l29.333-0.4161 32-8.688c42.614-11.57 82.155-23.302 84.17-24.974 0.8972-0.7447 2.9018-3.8676 4.4547-6.9398 2.5078-4.9614 2.7383-7.0765 2.0622-18.919-0.4187-7.3333-2.2289-40.333-4.0228-73.333zm-2.6379 173.97-5.9739 5.8629 4.8189 8.7481c2.6504 4.8114 5.3386 9.318 5.9739 10.015 0.6573 0.7209 1.1549-5.5745 1.1549-14.611v-15.878zm-188.77 1091.9-1.7122-16.781-36.105-0.018c-27.525-0.014-44.185-0.7734-70.105-3.1962-26.945-2.5184-42.356-3.1819-74.271-3.1971-27.608-0.013-40.733 0.4433-41.742 1.4519-1.0726 1.0726-0.55287 2.5625 1.9188 5.4999 2.5675 3.0513 10.754 7.1758 33.742 16.999 50.407 21.541 91.07 40.038 129.69 58.99 20.167 9.8978 42.291 20.644 49.165 23.88l12.498 5.8839-0.68076-36.366c-0.37443-20.001-1.4513-43.917-2.393-53.147zm2240.6-448.85c-5.0364 7.2944-7.5907 9.6175-14.213 12.927-9.7445 4.8694-15.413 5.095-34.593 1.377-11.54-2.237-22.982-2.8626-72.381-3.9572-88.009-1.95-100.82-2.6979-161.34-9.4202-19.067-2.1177-44.267-4.5557-56-5.4178-33.571-2.4665-100.12-0.5873-198.14 5.5951-25.22 1.5907-26.327 1.5552-31.333-1.0064-5.988-3.0638-13.114-12.791-15.33-20.927-1.8832-6.9116 0.4767-14.737 5.5839-18.516 5.2994-3.9211 21.057-5.0132 85.24-5.908 58.876-0.8207 86.705 0.1317 125.32 4.2888 11.297 1.2163 28.923 1.8372 47.333 1.6673 26.255-0.2422 31.642 0.1045 51.333 3.3041 29.398 4.7767 40.906 5.9447 74 7.5101 80.906 3.8271 140.25 2.8945 158.66-2.4933 12.084-3.5356 14.71-3.4458 23.219 0.7942 5.1217 2.5522 8.6865 5.7176 12.928 11.48 3.2213 4.3759 5.857 8.3731 5.857 8.8827 0 0.5097-2.7629 4.9283-6.1399 9.8192zm-65.529 231.6c-1.2822 2.5518-3.899 5.5087-5.815 6.5709-5.4525 3.0227-10.669-0.018-26.018-15.166-15.106-14.908-19.152-20.634-19.16-27.111-0.01-6.3341 2.7738-10.849 11.868-19.269 16.844-15.594 23.031-11.155 36.321 26.062 5.6876 15.928 6.2768 22.002 2.8045 28.913zm-61.181 88.718c-4.8114 7.265-11.1 13.828-15.417 16.09-8.9588 4.6934-19.746 0.7667-46.332-16.866-21.779-14.444-36.144-26.891-40.19-34.821-4.1655-8.165-4.6426-15.701-1.3969-22.063 6.9225-13.569 15.164-14.473 33.448-3.6688 6.8523 4.0492 15.522 9.5717 19.265 12.272 6.2776 4.5288 54.14 43.001 54.14 43.518 0 0.1254-1.5824 2.6174-3.5164 5.5376zm-2283 517.31c-2.6778 10.932-8.2911 14.623-22.188 14.587-17.128-0.044-31.646-10.348-36.082-25.607-1.6189-5.5689-1.7421-8.0086-0.57343-11.361 3.9956-11.462 16.316-22.286 25.367-22.286 10.703 0 25.544 11.2 30.702 23.17 2.8819 6.6875 4.0961 16.098 2.7737 21.497zm-139.96-1262.5c-3.6573 5.9976-9.2142 9.8818-14.137 9.8818-5.1658 0-13.03-3.9994-36.008-18.314-22.534-14.037-25.821-16.923-27.424-24.078-2.7617-12.328 3.9136-31.176 11.737-33.14 6.9858-1.7533 21.421 4.6824 31.374 13.988 5.5571 5.1954 36.99 45.115 36.974 46.957-3e-3 0.3224-1.1351 2.4394-2.5163 4.7044z" fill="#221e1f"/></svg>
