<?xml version="1.0" encoding="UTF-8"?>
<svg width="601.5" height="601.5" version="1.1" viewBox="0 0 601.5 601.5" xmlns="http://www.w3.org/2000/svg"><g transform="translate(-36.218 -183.09)"><g transform="translate(0 90.774)"><path d="m176.55 601.52c0.0838-0.748 2.9142-28.604 6.2898-61.902s6.2337-60.639 6.3514-60.756c0.11763-0.11763 1.2159 0.0905 2.4406 0.46245 2.1047 0.63929 2.9168 0.67633 14.826 0.67633 13.468 0 13.486-2e-3 14.341-1.5986 0.17833-0.3332 1.1776-4.8258 2.2205-9.9836s2.1021-10.338 2.3538-11.512c1.0678-4.9812 2.0519-5.5222 10.946-6.0181 8.0154-0.44691 15.401-1.1743 17.979-1.7706 4.6298-1.0712 10.905-3.768 16.949-7.2839 2.2618-1.3157 5.6148-3.1331 7.4512-4.0386 8.4956-4.1892 12.879-9.7943 14.931-19.094 0.76243-3.455 0.70401-12.195-0.16317-24.409-0.36661-5.1639-0.66657-10.165-0.66657-11.114 0-0.94852-0.23385-2.309-0.51966-3.0234-1.0036-2.5082 3.0658-2.32-48.788-2.2556l-46.307 0.0575-0.18058-1.538c-0.0993-0.84592-0.42885-8.9917-0.73231-18.102l-0.55173-16.564-1.1402-0.28227c-0.62711-0.15526-7.9532-1.9595-16.28-4.0093-18.628-4.5857-21.057-5.2811-29.583-8.4698-3.7382-1.398-10.142-3.5612-14.231-4.8072-7.7061-2.3482-21.803-7.408-28.637-10.279-8.8556-3.7198-18.059-8.926-24.426-13.817-4.8919-3.758-8.6413-7.4411-13.534-13.295-2.4609-2.9442-6.4407-7.6572-8.8441-10.473-12.758-14.948-16.135-21.592-19.201-37.771-3.1368-16.553-3.4552-18.826-3.5853-25.589-0.1661-8.6371-0.08822-8.7622 5.9697-9.5831 3.2255-0.43709 12.465-0.49694 76.72-0.49694h73.053v-19.52h341.76v17.28h103.68l-1e-3 1.2c-2e-3 2.6294-0.74592 9.0232-2.1118 18.16-2.568 17.178-2.9992 20.277-4.9416 35.52-1.0541 8.272-2.776 21.088-3.8265 28.48l-1.9099 13.44-2.2473 1.9863-14.001 0.21799c-45.283 0.70506-65.97 1.3095-70.801 2.0687l-3.36 0.52809-0.1626 75.359h-86.053l-0.36304 1.3482c-3.6864 13.69-2.4041 28.744 3.6871 43.282 4.0863 9.7534 12.149 17.335 21.304 20.033 2.3387 0.68933 2.7255 0.70238 18.868 0.63625 9.064-0.0371 17.848-0.19717 19.52-0.35564 5.5609-0.52705 7.0496-0.42202 8.6807 0.61241 2.0573 1.3047 1.6974 0.11447 6.2049 20.523 2.4641 11.157 3.2134 14.071 3.7744 14.681 1.4721 1.601 1.8344 1.6388 15.74 1.6388 10.101 0 13.009 0.0887 13.111 0.4 0.0718 0.22 3.1657 27.328 6.8754 60.24s6.8271 60.38 6.9276 61.04l0.18267 1.2h-396.14z"/><path d="m478.62 204.16c-6.0683 0.0065-8.3951 0.41319-12.154 2.1211l-2.6348 1.1973-6.4004 0.22656c-3.52 0.12483-6.902 0.38513-7.5156 0.57812-0.6135 0.193-2.7516 0.64817-4.752 1.0117-4.8806 0.887-5.061 0.96953-5.543 2.5781l-0.40235 1.3476 2.041 1.877c5.658 5.2043 9.9652 6.2036 17.932 4.1602 4.365-1.1197 13.365-2.622 15.721-2.623 0.814-4.6e-4 1.9287 0.08924 2.4785 0.19921l1 0.20118-1.4941 1.3203c-2.7335 2.4134-4.0794 3.3361-7 4.8047-3.4917 1.7556-5.5291 3.545-11.236 9.873-3.8941 4.3177-4.2695 4.8407-4.2695 5.9453 0 2.1686 2.4522 4.6065 5.7012 5.668 2.0606 0.67323 4.8274 0.47552 7.0371-0.50195 3.671-1.624 14.561-9.8872 20.621-15.646 2.7477-2.6115 3.1211-2.8693 3.1211-2.166 0 0.4392-0.29407 4.0172-0.6543 7.9512-0.84317 9.2081-0.91548 16.267-0.18359 18.002 0.522 1.2373 2.9369 4.4168 5.084 6.6934 0.6105 0.64727 1.3531 1.1758 1.6504 1.1758 1.5957 0 3.5221-0.82537 4.9785-2.1348 3.0551-2.747 4.1745-6.5215 4.1191-13.895-0.0342-4.554-0.02278-4.6413 1.0449-7.1699l1.082-2.5606-0.06445-6.4316c-0.0721-7.2508-0.3058-9.575-1.7168-17.088-1.2622-6.7206-1.119-6.3242-1.9922-5.5039-1.8029 1.6933-6.0251 2.7591-10.191 2.5723-2.4557-0.1101-2.8612-0.2287-4.916-1.4375-3.6257-2.1331-4.6025-2.3517-10.49-2.3457zm-254.23 3.5156c-1.2256 0-3.5203 1.2702-4.7461 2.627-2.4694 2.7333-2.7247 4.3059-1.8887 11.613 0.90423 7.903 0.94692 14.238 0.15625 22.879-1.2745 13.929-0.36133 20.151 3.2266 21.996 2.0347 1.0462 4.2792-0.14635 5.1074-2.7148 0.2129-0.6601 1.1611-2.1673 2.1074-3.3476 2.6595-3.3175 2.9405-3.9425 3.2969-7.3047 0.29368-2.77 0.96044-11.88 0.99024-13.533 0.01054-0.5851 0.07916-0.5431 0.43164 0.26562 0.2411 0.5532 2.9701 3.1976 6.4414 6.2402 13.54 11.868 17.303 14.721 19.414 14.719 1.5713-0.0013 4.1037-5.2227 4.0977-8.4492-0.0038-1.9919-1.0104-4.2762-3.1738-7.207-0.8543-1.1572-2.2734-3.3282-3.1543-4.8242-2.0846-3.5408-4.3383-6.6649-9.4219-13.061-2.2827-2.8719-4.0747-5.2984-3.9805-5.3926 0.0942-0.09419 2.8178 0.27178 6.0527 0.81445 7.361 1.2349 18.226 2.3695 21.264 2.2207 3.6904-0.1808 4.8121-1.3848 5.123-5.4961 0.27759-3.6712-0.73188-4.9837-4.2305-5.498-2.2379-0.329-2.8769-0.61459-4.5801-2.0508-3.445-2.9055-6.07-3.4128-15.697-3.0274-3.9816 0.15936-10.047 0.27391-13.479 0.25391-5.6536-0.03291-6.541-0.11453-9.4336-0.87891-1.756-0.46402-3.5219-0.84375-3.9238-0.84375zm6.373 13.965c0.02349-0.00471 0.05635 0.00336 0.09571 0.02539 0.24379 0.1364 2.108 1.8075 4.1445 3.7129 5.8518 5.476 11.267 12.064 14.709 17.896 0.80439 1.3633 1.3575 2.4791 1.2285 2.4785-0.129-6e-4 -1.6736-1.113-3.4336-2.4707-5.8328-4.499-10.404-9.5686-13.738-15.238-1.9648-3.3415-3.3582-6.3337-3.0059-6.4043zm249.49 1.7148c0.13638-0.01051 0.2289 0.03554 0.31055 0.11719 0.4355 0.4354 0.15975 0.87387-2.623 4.1719-3.176 3.7641-5.4607 5.8386-7.6816 6.9746-0.6869 0.35134-1.7935 0.83162-2.459 1.0664-1.0389 0.36654-1.2655 0.3585-1.6035-0.04883-0.4821-0.581-1.1553 0.07285 7.1953-6.9941 4.8603-4.1132 6.2703-5.2416 6.8613-5.2871zm19.475 2.0801 0.53907 1.791c1.7096 5.684 1.2118 12.308-1.457 19.418-0.54694 1.4573-1.106 2.7185-1.2422 2.8027-0.49842 0.308-1.2598-4.3498-1.2598-7.7051 0-3.9111 0.7214-7.8978 2.3418-12.947l1.0781-3.3594zm1.9629 53.361c-2.2804 0.05575-4.7419 1.6802-5.7344 3.9238-1.2093 2.734-2.7621 14.296-3.0508 22.713-0.15374 4.4836-0.06751 6.3462 0.49023 10.592 0.37223 2.8334 0.67578 5.4612 0.67578 5.8398 0 1.2564-1.1054 0.74893-3.2246-1.4805-2.088-2.196-7.1018-5.8113-19.174-13.824l-5.9199-3.9297-2.8496 0.20117c-1.567 0.11093-3.4594 0.20313-4.2051 0.20313-1.3278 0-1.3594 0.02402-1.5 1.1992-0.20908 1.747 0.30666 6.4305 0.875 7.9453 0.5568 1.4842 1.3519 2.2833 4.3594 4.3867 1.1662 0.8156 4.1909 3.1187 6.7207 5.1172 2.5299 1.9985 6.6502 5.1775 9.1582 7.0645 2.508 1.887 4.5605 3.5516 4.5605 3.6992s-0.22615 0.45664-0.50195 0.68554c-0.4076 0.3383-1.35 0.34509-5.0391 0.03516-8.567-0.7197-12.273-0.44476-21.812 1.6191-3.994 0.8641-4.9678 1.1896-5.8418 1.957-0.57693 0.5066-1.1328 1.2534-1.2344 1.6582-0.2662 1.0607 0.81424 3.2456 2.5566 5.1738 2.3243 2.5722 3.3902 3.099 6.7539 3.3359 1.584 0.11161 7.8479 0.16981 13.92 0.12891 10.51-0.0707 11.362-0.12254 17.76-1.0742 3.696-0.54977 7.5397-1.0019 8.543-1.0059 3.3243-0.0122 4.8833-0.53025 6.1133-2.0312 1.751-2.1369 3.0884-4.4121 3.5938-6.1133 0.42002-1.4138 0.4129-1.861-0.07812-4.3203-0.70745-3.543-0.70317-12.365 0.00976-19.223 0.66502-6.397 1.6004-22.925 1.4394-25.428-0.07481-1.1636-0.43036-2.5681-0.89453-3.5312-1.0622-2.204-4.0648-5.173-5.5059-5.4434-0.31355-0.05881-0.63712-0.08218-0.96289-0.07421zm-262.83 9.8652c-1.1855 0.14099-5.477 1.3474-6.502 1.873-2.6876 1.3784-3.4495 3.4658-2.4648 6.748 0.38499 1.283 0.60541 4.0168 0.82617 10.23 0.1657 4.664 0.45888 12.333 0.65234 17.041 0.19344 4.708 0.25819 10.828 0.14258 13.6-0.20278 4.8618-0.18385 5.0914 0.53516 6.4805 1.0616 2.0511 2.8052 2.8789 6.0586 2.8789 2.5673 0 2.8457 0.15747 2.8457 1.6055 0 0.3262 0.13489 0.94576 0.29883 1.377v0.00196c0.2652 0.69736 0.45234 0.7697 1.6816 0.65429 9.5-0.89197 15.694-1.1809 27.008-1.2617 12.055-0.08608 12.946-0.13283 14.824-0.76563 2.6793-0.9026 4.018-1.7943 6.1524-4.0996 3.1011-3.3495 4.1093-6.623 2.6504-8.6055-0.9004-1.2235-3.4047-2.5342-6.4297-3.3652-2.086-0.57308-3.3897-0.69027-7.7852-0.69727-6.492-0.0105-11.129 0.75408-23.76 3.9219-4.708 1.1807-8.5606 2.0762-8.5606 1.9883 0-0.088 1.8604-2.6165 4.1328-5.6172 4.812-6.355 7.4176-9.2716 14.734-16.496 6.3224-6.2426 10.329-10.983 11.033-13.049 0.59772-1.7542 0.61645-2.595 0.12695-5.9805l-0.37304-2.582-2.1074 0.70508c-1.1586 0.38781-3.7628 0.92274-5.7871 1.1875-6.7004 0.8763-8.7596 1.6165-11.898 4.2734-2.4038 2.0347-4.213 4.1388-8.2539 9.6074-1.9992 2.7055-3.4355 4.381-3.5566 4.1484-0.1117-0.215-1.4664-6.0773-3.0117-13.029-1.5454-6.9519-2.8575-12.696-2.9141-12.764-0.02397-0.02843-0.12948-0.02991-0.29883-0.00977zm261.73 6.252c0.06058-0.00809 0.12827 0.00675 0.20704 0.02735 0.6228 0.163 0.64062 0.43734 0.64062 10.211 0 9.8297-0.01422 10.043-0.64062 10.043-0.6266 0-0.63868-0.21424-0.63868-10.211 0-8.7964 0.00762-10.014 0.43164-10.07zm-237.17 10.361h1.373l-8.1562 8.1602c-4.4854 4.488-8.2908 8.1602-8.457 8.1602-0.16623 0 0.06021-0.39686 0.5039-0.88086 0.4438-0.484 2.5392-2.8954 4.6562-5.3594 2.1171-2.464 4.1689-4.7657 4.5586-5.1133 0.3898-0.3475 1.0692-1.393 1.5098-2.3242 0.9226-1.9502 1.9745-2.6426 4.0117-2.6426zm12.738 34.24c6.3289 0 7.3594 0.06576 7.3594 0.47851 0 0.4128-1.0305 0.48047-7.3594 0.48047-6.3289 0-7.3613-0.06771-7.3613-0.48047 0-0.4127 1.0324-0.47851 7.3613-0.47851zm103.44 31.773c-1.5692 0.0136-3.5078 0.04426-5.9375 0.08789-7.7184 0.13863-12.224 0.35776-14.307 0.69532-2.231 0.36169-6.9558 0.55135-17.76 0.71484-9.9903 0.15117-15.101 0.34714-15.906 0.60742-2.6011 0.8406-4.155 3.8912-3.5312 6.9336l0.25976 1.2656 3.5078 0.94531c3.5055 0.9429 3.5202 0.94289 13.021 0.95899l9.5098 0.01562 0.72851 0.75391h0.00195c0.7076 0.73053 0.84107 0.74741 4.5684 0.57031 28.474-1.3529 33.176-1.3702 52.967-0.18359l5.6055 0.33593 2.7129-0.84765c1.4928-0.46707 2.8254-0.9547 2.9609-1.082 0.13556-0.12732-0.12735-0.43234-0.58594-0.67774s-1.0474-0.85602-1.3066-1.3574c-0.43106-0.8336-0.41125-1.0344 0.2207-2.3398l0.69141-1.4277-1.3262-2.0332c-2.2499-3.4531-1.5447-3.2306-10.213-3.2305-4.162 8e-5 -9.5107 0.04827-11.887 0.10547-3.1599 0.07605-4.9028-0.0341-6.4922-0.41016-1.4055-0.33259-2.7964-0.44119-7.5039-0.40039zm111.17 117.22c-1.7436-0.02652-4.086 0.04439-8.0469 0.19727-6.0078 0.23185-11.28 0.24518-16 0.04101-7.974-0.3449-12.092-0.1744-24.16 1-8.762 0.8527-18.099 1.7394-21.051 1.998-2.0529 0.1798-3.131-0.40676-3.5195-1.9141-0.364-1.4122-1.3028-1.5008-2.7207-0.25586-2.1418 1.8805-2.9528 2.0375-9.1934 1.7852-5.2003-0.21032-5.7438-0.17735-7.5098 0.44336-2.3034 0.80955-2.6936 0.81928-4.6484 0.125-1.4657-0.52056-1.7093-0.51281-5.8047 0.15625-2.3505 0.38404-7.1187 0.93637-10.598 1.2285-6.0384 0.50703-6.3835 0.50454-7.5976-0.04297-1.2389-0.55871-1.3312-0.55451-3.5938 0.10938-1.963 0.57599-4.0079 0.75717-13.203 1.1699-5.984 0.26857-13.457 0.71946-16.605 1.0039-7.9866 0.7217-10.731 0.23057-14.396-2.582-1.5366-1.1791-1.5603-1.1857-1.3613-0.36914 0.11124 0.4565 0.2894 1.1889 0.39648 1.6289l0.19532 0.80078h-10.195c-10.357 3e-4 -13.139 0.1297-44.594 2.0586-22.391 1.373-32.122 1.647-34.971 0.98633-1.827-0.42369-2.2558-0.42276-3.9394 0.01563-3.4913 0.9091-6.2316 2.9469-7.6777 5.709l-0.9082 1.7344 0.38867 3.4824c0.50338 4.5268 0.48199 7.6815-0.09179 14.334-0.25807 2.9917-0.47061 7.5481-0.47461 10.125l-0.00782 4.6856 0.79688 0.19922c0.43778 0.10988 1.0321 0.56011 1.3203 1 0.4748 0.7246 0.48802 1.4391 0.14453 7.5957-0.5993 10.741-1.2515 17.873-2.1836 23.914-1.0993 7.1243-1.1223 9.2638-0.125 11.289 0.414 0.84079 1.2587 1.9151 1.877 2.3867 1.0452 0.79724 1.452 0.87775 5.8066 1.1543 8.3559 0.53067 14.641 0.44371 17.004-0.23633 1.144-0.32926 3.6636-0.70089 5.5996-0.82422 2.8895-0.18408 3.8541-0.38161 5.3828-1.1094 1.0496-0.4997 1.9848-1.1874 2.1426-1.5742 0.3292-0.806 1.1095-13.674 1.6523-27.246 0.33655-8.4146 0.32149-9.9063-0.11133-12.08l-0.49218-2.4785h0.70898c0.3908 0 3.9597 0.50314 7.9297 1.1191 3.97 0.616 7.3008 1.1191 7.4023 1.1191 0.10159 0 0.18269 3.8526 0.17969 8.5606-0.0062 9.089-0.16781 10.807-1.8828 20.111-1.371 7.438-1.4673 8.6951-0.76953 10.049 0.3772 0.7319 1.0766 1.3653 2.0176 1.8262l1.4395 0.70508 30.314-0.39258 0.44531-1.0625c0.8156-1.9522 2.013-7.2734 2.5469-11.316 0.439-3.325 0.50033-5.9314 0.36133-15.439l-0.16797-11.439h24.332l-0.19336 1.0391c-0.106 0.572-1.0576 7.059-2.1152 14.416-1.698 11.812-1.9246 13.983-1.9414 18.561-0.01049 2.8511-0.14034 5.9032-0.28711 6.7832-0.4724 2.8329 0.64677 4.7933 3.3223 5.8164l0.00196-0.00195c0.54025 0.20661 1.1989 0.38604 1.4629 0.39844 0.8054 0.0378 2.9224-0.6243 5.2773-1.6504 2.409-1.0498 9.472-2.2116 19.916-3.2774 5.6613-0.5776 7.5088-1.2139 8.4824-2.918 1.6124-2.822 2.0056-12.444 1.2051-29.492-0.4804-10.229-0.64331-9.6624 2.9922-10.465 1.2577-0.2776 4.7696-1.1014 7.8047-1.832 3.0351-0.73061 5.5928-1.2549 5.6836-1.1641 0.3048 0.305 1.3937 10.916 1.916 18.666 0.28465 4.224 0.48597 10.127 0.44727 13.119-0.0785 6.0773 0.10827 6.8849 2.0098 8.6934 1.7704 1.6838 3.2964 1.8938 7.4922 1.0332l3.5762-0.73243 4.418 0.73438c2.8994 0.48227 6.3533 0.7903 10.039 0.89258 5.4204 0.15042 5.6714 0.12773 7.0606-0.59375l1.4394-0.7461-0.04687-4.6406c-0.0269-2.689-0.54449-9.5467-1.2324-16.312l-1.1875-11.672 0.67578-3.5859c0.7152-3.7985 1.5177-6.0705 2.4023-6.8047 0.3659-0.30367 2.2996-0.57263 6.043-0.83984 5.4178-0.3868 5.5446-0.4125 7.9062-1.6211 2.3654-1.2105 2.4603-1.2289 6.6309-1.3516 2.3273-0.06846 4.5966-0.0339 5.043 0.07812l0.81055 0.20313-0.67188 1.3184c-0.50627 0.9924-0.61639 1.6058-0.44726 2.4746 0.12359 0.635 0.24483 1.9503 0.26953 2.9238 0.0397 1.5631-0.11192 2.0184-1.291 3.8984l-1.334 2.1289 0.47851 1.541c0.64353 2.069 0.59342 5.9601-0.19726 15.301-1.0024 11.843-0.9155 12.78 1.375 14.791 2.1381 1.8772 3.126 1.9566 7.9746 0.64063 5.9247-1.608 7.6487-1.8626 12.268-1.8106 3.628 0.04091 4.1114-0.01769 4.6738-0.58008 1.0455-1.046 1.5242-5.8357 1.5312-15.338 0.00493-6.6399 0.14411-9.4275 0.67383-13.439 0.84753-6.4196 0.7267-12.367-0.3125-15.275-0.37195-1.0409-0.63724-1.9311-0.58984-1.9785s2.7951 0.04132 6.1074 0.19727c6.7199 0.3164 8.182 0.72411 9.5644 2.6621l0.72266 1.0117 0.16015 20.48c0.1837 23.512-0.08042 21.554 3.4219 25.424 1.7356 1.9179 1.867 1.9981 3.0469 1.8398 0.6877-0.0922 2.5364-0.94304 4.1816-1.9238 5.127-3.0559 5.9214-3.1555 16.9-2.1191 5.1066 0.4821 6.8238 0.19346 8.1387-1.3691 0.9121-1.0841 0.83592-0.80338 1.9824-7.293 0.76601-4.3362 0.87383-5.7643 0.86133-11.359-0.00788-3.52-0.27411-10.145-0.5918-14.721-0.69573-10.022-0.54491-17.659 0.45898-23.199 0.84958-4.6888 1.1682-11.082 0.66993-13.439-0.20462-0.968-0.71315-2.5949-1.1309-3.6152-0.75573-1.846-0.75787-1.8629-0.1836-3.5195 0.3174-0.9156 0.75044-2.4578 0.96094-3.4258 0.34222-1.5737 0.31082-1.9484-0.28711-3.5371-0.3678-0.9772-1.1405-2.2926-1.7188-2.9238-1.0447-1.1405-1.0735-1.15-4.4609-1.3809-3.9928-0.2721-5.9788 0.0915-8.0078 1.4668-1.8509 1.2545-2.1621 1.2012-2.1621-0.3789 0-1.1418-0.07207-1.2789-0.55859-1.043-0.308 0.14939-1.5693 0.27243-2.8027 0.27343-1.9598 0.0023-2.4438 0.13086-3.8398 1.0098-2.6969 1.6979-3.4854 1.6852-5.5977-0.09375-0.9135-0.76929-1.6334-0.99684-4.6211-1.4492-1.5649-0.23692-2.7096-0.3602-4.4531-0.38672z" fill="#f6d900"/></g></g></svg>
