<?xml version="1.0" encoding="UTF-8"?>
<svg width="601.5" height="601.5" version="1.1" viewBox="0 0 601.5 601.5" xmlns="http://www.w3.org/2000/svg"><g transform="translate(-36.218 -183.09)"><g transform="translate(0 90.774)"><path d="m176.55 601.52c0.0838-0.748 2.9142-28.604 6.2898-61.902 3.3756-33.298 6.2337-60.639 6.3514-60.756 0.11763-0.11763 1.2159 0.0905 2.4406 0.46245 2.1047 0.63929 2.9168 0.67633 14.826 0.67633 13.468 0 13.486-2e-3 14.341-1.5986 0.17833-0.3332 1.1776-4.8258 2.2205-9.9836 1.0429-5.1578 2.1021-10.338 2.3538-11.512 1.0678-4.9812 2.0519-5.5222 10.946-6.0181 8.0154-0.44691 15.401-1.1743 17.979-1.7706 4.6298-1.0712 10.905-3.768 16.949-7.2839 2.2618-1.3157 5.6148-3.1331 7.4512-4.0386 8.4956-4.1892 12.879-9.7943 14.931-19.094 0.76243-3.455 0.70401-12.195-0.16317-24.409-0.36661-5.1639-0.66657-10.165-0.66657-11.114 0-0.94852-0.23385-2.309-0.51966-3.0234-1.0036-2.5082 3.0658-2.32-48.788-2.2556l-46.307 0.0575-0.18058-1.538c-0.0993-0.84592-0.42885-8.9917-0.73231-18.102l-0.55173-16.564-1.1402-0.28227c-0.62711-0.15526-7.9532-1.9595-16.28-4.0093-18.628-4.5857-21.057-5.2811-29.583-8.4698-3.7382-1.398-10.142-3.5612-14.231-4.8072-7.7061-2.3482-21.803-7.408-28.637-10.279-8.8556-3.7198-18.059-8.926-24.426-13.817-4.8919-3.758-8.6413-7.4411-13.534-13.295-2.4609-2.9442-6.4407-7.6572-8.8441-10.473-12.758-14.948-16.135-21.592-19.201-37.771-3.1368-16.553-3.4552-18.826-3.5853-25.589-0.1661-8.6371-0.08822-8.7622 5.9697-9.5831 3.2255-0.43709 12.465-0.49694 76.72-0.49694h73.053v-19.52h341.76v17.28h103.68l-1e-3 1.2c-2e-3 2.6294-0.74592 9.0232-2.1118 18.16-2.568 17.178-2.9992 20.277-4.9416 35.52-1.0541 8.272-2.776 21.088-3.8265 28.48l-1.9099 13.44-2.2473 1.9863-14.001 0.21799c-45.283 0.70506-65.97 1.3095-70.801 2.0687l-3.36 0.52809-0.1626 75.359h-86.053l-0.36304 1.3482c-3.6864 13.69-2.4041 28.744 3.6871 43.282 4.0863 9.7534 12.149 17.335 21.304 20.033 2.3387 0.68933 2.7255 0.70238 18.868 0.63625 9.064-0.0371 17.848-0.19717 19.52-0.35564 5.5609-0.52705 7.0496-0.42202 8.6807 0.61241 2.0573 1.3047 1.6974 0.11447 6.2049 20.523 2.4641 11.157 3.2134 14.071 3.7744 14.681 1.4721 1.601 1.8344 1.6388 15.74 1.6388 10.101 0 13.009 0.0887 13.111 0.4 0.0718 0.22 3.1657 27.328 6.8754 60.24 3.7097 32.912 6.8271 60.38 6.9276 61.04l0.18267 1.2h-396.14z"/><path d="m275.41 602.96c54.414-0.0446 143.55-0.0446 198.08 0 54.53 0.0446 10.01 0.081-98.934 0.081s-153.56-0.0365-99.146-0.081zm55.924-12.344c-2.6755-1.0231-3.7951-2.9828-3.3227-5.8157 0.14677-0.88 0.27544-3.9326 0.28593-6.7837 0.0168-4.5773 0.24402-6.7484 1.942-18.56 1.0576-7.357 2.0096-13.844 2.1156-14.416l0.19267-1.04h-24.331l0.16725 11.44c0.139 9.5081 0.078 12.115-0.361 15.44-0.53393 4.043-1.7316 9.3638-2.5472 11.316l-0.44409 1.0628-30.315 0.39207-1.44-0.70527c-0.94093-0.46084-1.6401-1.0934-2.0173-1.8253-0.69774-1.3537-0.60139-2.612 0.76959-10.05 1.715-9.3047 1.8756-11.021 1.8818-20.11 3e-3 -4.708-0.0772-8.56-0.17879-8.56-0.10155 0-3.4328-0.504-7.4028-1.12s-7.5379-1.12-7.9287-1.12h-0.71056l0.4938 2.48c0.43282 2.1738 0.44638 3.6654 0.10983 12.08-0.54284 13.572-1.3232 26.44-1.6524 27.246-0.15783 0.38679-1.0927 1.0731-2.1423 1.5728-1.5287 0.72776-2.4927 0.92672-5.3822 1.1108-1.936 0.12333-4.456 0.49364-5.6 0.8229-2.3627 0.68004-8.6471 0.7676-17.003 0.23693-4.3546-0.27655-4.762-0.35756-5.8072-1.1548-0.61828-0.47158-1.4629-1.5453-1.8769-2.3861-0.9973-2.0253-0.97346-4.1647 0.12581-11.289 0.93211-6.0408 1.583-13.174 2.1823-23.915 0.34349-6.1566 0.32987-6.8703-0.14493-7.5949-0.28822-0.43989-0.88222-0.88969-1.32-0.99957l-0.79595-0.19977 7e-3 -4.6853c4e-3 -2.5769 0.21771-7.1333 0.47578-10.125 0.57379-6.6525 0.59368-9.8072 0.0903-14.334l-0.38732-3.4832 0.90781-1.7339c1.4461-2.7621 4.1853-4.7988 7.6766-5.7079 1.6836-0.43839 2.1135-0.44019 3.9405-0.0165 2.8487 0.66065 12.579 0.38601 34.97-0.987 31.455-1.9289 34.238-2.0572 44.595-2.0575l10.195-2.2e-4 -0.19469-0.8c-0.10708-0.44-0.2857-1.1736-0.39694-1.6301-0.19894-0.81652-0.17663-0.81047 1.36 0.36864 3.6653 2.8126 6.4114 3.3053 14.398 2.5836 3.1481-0.28444 10.62-0.73693 16.604-1.0055 9.1952-0.41275 11.24-0.59391 13.203-1.1699 2.2626-0.66389 2.3556-0.66669 3.5945-0.10798 1.2142 0.54751 1.559 0.54943 7.5974 0.0424 3.479-0.29215 8.2485-0.84536 10.599-1.2294 4.0954-0.66906 4.3373-0.67552 5.803-0.15496 1.9548 0.69428 2.346 0.68369 4.6494-0.12586 1.766-0.62071 2.3088-0.65269 7.5091-0.44237 6.2406 0.25239 7.0516 0.0949 9.1934-1.7856 1.4179-1.2449 2.3575-1.1568 2.7215 0.25538 0.38851 1.5073 1.4672 2.0938 3.5201 1.914 2.9522-0.25866 12.288-1.1444 21.05-1.9971 12.068-1.1744 16.186-1.3449 24.16-1 4.7204 0.20417 9.9922 0.19055 16-0.0413 7.9217-0.30576 9.3702-0.28372 12.5 0.19013 2.9877 0.45238 3.7085 0.67811 4.622 1.4474 2.1123 1.779 2.8989 1.7922 5.5958 0.0943 1.396-0.87891 1.8802-1.0061 3.84-1.0084 1.2334-1e-3 2.4946-0.12485 2.8026-0.27424 0.48652-0.23597 0.56-0.0992 0.56 1.0426 0 1.5801 0.31011 1.6346 2.161 0.38009 2.029-1.3753 4.0161-1.7393 8.0089-1.4672 3.3874 0.23088 3.4155 0.23959 4.4602 1.3801 0.57822 0.63126 1.3522 1.9473 1.72 2.9245 0.59793 1.5887 0.6282 1.963 0.28598 3.5367-0.2105 0.968-0.64243 2.5092-0.95983 3.4248-0.57427 1.6566-0.57337 1.674 0.18236 3.52 0.41771 1.0203 0.92688 2.6472 1.1315 3.6152 0.49825 2.3571 0.17943 8.7512-0.67015 13.44-1.0039 5.5404-1.1551 13.178-0.45937 23.2 0.31769 4.576 0.58407 11.2 0.59195 14.72 0.0125 5.5951-0.0959 7.0238-0.86191 11.36-1.1465 6.4896-1.0698 6.2073-1.9819 7.2914-1.3149 1.5626-3.0328 1.8517-8.1394 1.3696-10.979-1.0364-11.772-0.93688-16.899 2.119-1.6453 0.98079-3.4943 1.8312-4.182 1.9234-1.1799 0.15826-1.3105 0.0795-3.0461-1.8384-3.5023-3.8702-3.2389-1.9132-3.4226-25.425l-0.16-20.48-0.72223-1.0125c-1.3824-1.938-2.8448-2.3449-9.5647-2.6613-3.3123-0.15595-6.0611-0.24476-6.1085-0.19736s0.21813 0.93781 0.59008 1.9787c1.0392 2.9081 1.1613 8.8554 0.31377 15.275-0.52972 4.012-0.66967 6.8001-0.6746 13.44-7e-3 9.5022-0.48498 14.291-1.5305 15.337-0.56239 0.56239-1.0459 0.62255-4.6739 0.58164-4.6189-0.0521-6.3443 0.20255-12.269 1.8105-4.8486 1.316-5.8356 1.2367-7.9737-0.64055-2.2905-2.0111-2.3776-2.9484-1.3752-14.791 0.79068-9.3407 0.84086-13.232 0.19733-15.301l-0.47932-1.5413 1.3351-2.1287c1.1791-1.88 1.3298-2.3356 1.2901-3.8987-0.0247-0.97352-0.1461-2.2896-0.2697-2.9246-0.16913-0.86886-0.0583-1.4808 0.44797-2.4732l0.67271-1.3186-0.81148-0.20367c-0.44632-0.11202-2.7157-0.14766-5.043-0.0792-4.1706 0.12269-4.2661 0.14216-6.6315 1.3527-2.3617 1.2086-2.4878 1.2344-7.9056 1.6212-3.7434 0.26722-5.6778 0.53596-6.0437 0.83963-0.88468 0.73421-1.6868 3.0068-2.402 6.8053l-0.67504 3.5854 1.1868 11.672c0.68793 6.7658 1.2063 13.623 1.2332 16.312l0.0463 4.64-1.44 0.74792c-1.3891 0.72148-1.6386 0.7424-7.059 0.59198-3.6858-0.10228-7.1396-0.40889-10.039-0.89116l-4.4195-0.73523-3.5755 0.73333c-4.1958 0.86056-5.722 0.64995-7.4924-1.0339-1.9015-1.8085-2.088-2.6156-2.0095-8.6929 0.0387-2.992-0.16256-8.896-0.44721-13.12-0.5223-7.7503-1.6118-18.36-1.9166-18.665-0.0908-0.0908-2.6483 0.43269-5.6834 1.1633-3.0351 0.73058-6.5474 1.5555-7.8051 1.8331-3.6355 0.80247-3.4729 0.23386-2.9925 10.463 0.80052 17.048 0.40729 26.672-1.2051 29.494-0.97362 1.7041-2.8205 2.3392-8.4818 2.9168-10.444 1.0657-17.506 2.2279-19.915 3.2777-2.3549 1.0261-4.4731 1.6884-5.2785 1.6506-0.264-0.0124-0.92205-0.1916-1.4623-0.39821zm-142.54-111.56c0-0.16561 0.14235-0.38909 0.31634-0.49662 0.18139-0.11211 0.23504 0.0163 0.12576 0.30111-0.21273 0.55438-0.4421 0.65581-0.4421 0.19551zm44.1-28.077c0.231-0.0924 0.507-0.0811 0.61334 0.0253 0.10633 0.10633-0.0827 0.18196-0.42 0.16807-0.37279-0.0154-0.44861-0.0912-0.19334-0.19333zm5.1-0.31334c0.22-0.0888 0.58-0.0888 0.8 0s0.04 0.16141-0.4 0.16141-0.62-0.0726-0.4-0.16141zm5.46-0.32666c0.231-0.0924 0.507-0.0811 0.61334 0.0253 0.10633 0.10633-0.0827 0.18196-0.42 0.16807-0.37279-0.0154-0.44861-0.0912-0.19334-0.19333zm245.27-7.697c0.84131-0.0661 2.1373-0.0653 2.88 2e-3 0.74269 0.0671 0.0543 0.12122-1.5297 0.12025-1.584-9.8e-4 -2.1916-0.0559-1.3503-0.12202zm23.53-0.30299c0.231-0.0924 0.507-0.0811 0.61334 0.0253 0.10633 0.10633-0.0827 0.18196-0.42 0.16807-0.37278-0.0154-0.44861-0.0912-0.19334-0.19333zm-218.07-31.621c-9.8e-4 -1.584 0.0531-2.2723 0.12025-1.5296 0.0671 0.74269 0.0679 2.0387 2e-3 2.88-0.0661 0.84131-0.12105 0.23365-0.12202-1.3504zm-0.38306-8.8c0-0.44 0.0726-0.62 0.1614-0.4s0.0888 0.58 0 0.8-0.1614 0.04-0.1614-0.4zm-0.34526-4.9867c0.0154-0.37279 0.0912-0.44861 0.19333-0.19334 0.0924 0.231 0.0811 0.507-0.0253 0.61334-0.10634 0.10633-0.18197-0.0827-0.16807-0.42zm152.08-1.8933c1e-3 -1.408 0.0574-1.9442 0.12502-1.1915 0.0676 0.75265 0.0667 1.9046-2e-3 2.56-0.0688 0.65535-0.12407 0.0395-0.12291-1.3685zm-152.4-2.5867c0.0154-0.37279 0.0912-0.44861 0.19333-0.19334 0.0924 0.231 0.0811 0.507-0.0253 0.61334-0.10634 0.10633-0.18197-0.0827-0.16807-0.42zm-0.32-5.12c0.0154-0.37279 0.0912-0.44861 0.19333-0.19334 0.0924 0.231 0.0811 0.507-0.0253 0.61334-0.10634 0.10633-0.18197-0.0827-0.16807-0.42zm56.366-3.0607-0.72903-0.7526-9.511-0.0162c-9.5013-0.0161-9.5145-0.0171-13.02-0.96l-3.5092-0.94384-0.25968-1.2667c-0.62371-3.0424 0.9301-6.0935 3.5312-6.9341 0.80543-0.26028 5.9167-0.45509 15.907-0.60626 10.804-0.16349 15.529-0.35381 17.76-0.7155 2.0826-0.33756 6.5886-0.55649 14.307-0.69512 9.7189-0.17455 11.566-0.13171 13.44 0.31175 1.5894 0.37606 3.333 0.48619 6.4929 0.41014 2.376-0.0572 7.725-0.10404 11.887-0.10412 8.6682-1.7e-4 7.9631-0.22318 10.213 3.2299l1.3252 2.0341-0.69111 1.4277c-0.63195 1.3054-0.65076 1.5057-0.2197 2.3393 0.25927 0.5014 0.84661 1.1124 1.3052 1.3578s0.72286 0.5504 0.5873 0.67772c-0.13556 0.12733-1.4678 0.61363-2.9606 1.0807l-2.7141 0.84916-5.6059-0.33611c-19.791-1.1866-24.492-1.1704-52.966 0.18246-3.7273 0.1771-3.8614 0.16038-4.569-0.57015zm-65.42-6.5889c0.9299-0.0648 2.3699-0.0642 3.2 2e-3 0.8301 0.0657 0.0693 0.11873-1.6907 0.1179-1.76-8.3e-4 -2.4392-0.0546-1.5093-0.11942zm-86.92-0.72371c0-0.44 0.0726-0.62 0.1614-0.4s0.0888 0.58 0 0.8-0.1614 0.04-0.1614-0.4zm-0.29629-8.32c0-0.616 0.0659-0.868 0.14635-0.56 0.0805 0.308 0.0805 0.812 0 1.12s-0.14635 0.056-0.14635-0.56zm-0.32-8.64c0-0.616 0.0659-0.868 0.14635-0.56 0.0805 0.308 0.0805 0.812 0 1.12s-0.14635 0.056-0.14635-0.56zm-0.31354-8.8c4e-3 -0.704 0.0691-0.95432 0.14562-0.55627 0.0765 0.39806 0.0736 0.97406-6e-3 1.28-0.0801 0.30595-0.14272-0.0197-0.13917-0.72373zm45.337-0.69767c-0.16394-0.43119-0.29808-1.0508-0.29808-1.377 0-1.448-0.27906-1.6053-2.8464-1.6053-3.2534 0-4.9973-0.82893-6.0589-2.88-0.71901-1.3891-0.73792-1.6181-0.53514-6.4799 0.11561-2.772 0.0519-8.892-0.14154-13.6-0.19346-4.708-0.48732-12.376-0.65302-17.04-0.22076-6.2137-0.44169-8.948-0.82669-10.231-0.9847-3.2822-0.2221-5.3694 2.4655-6.7478 1.1714-0.6008 6.6099-2.0904 6.8017-1.863 0.0566 0.0672 1.3673 5.8101 2.9127 12.762 1.5453 6.952 2.9012 12.815 3.0129 13.03 0.12117 0.23252 1.5569-1.442 3.5561-4.1475 4.0409-5.4686 5.8498-7.5746 8.2536-9.6093 3.1389-2.6569 5.1986-3.3966 11.899-4.2729 2.0243-0.26476 4.6285-0.79869 5.7871-1.1865l2.1066-0.70513 0.37336 2.5823c0.4895 3.3855 0.4718 4.2262-0.12592 5.9804-0.70402 2.0662-4.7126 6.8064-11.035 13.049-7.3168 7.2245-9.922 10.141-14.734 16.496-2.2724 3.0007-4.1316 5.5277-4.1316 5.6157 0 0.0879 3.852-0.80617 8.56-1.9869 12.631-3.1678 17.268-3.9333 23.76-3.9228 4.3955 7e-3 5.6998 0.12388 7.7858 0.69696 3.025 0.831 5.5288 2.1415 6.4292 3.365 1.4589 1.9825 0.4508 5.2559-2.6503 8.6054-2.1343 2.3053-3.4736 3.1978-6.1529 4.1004-1.8784 0.6328-2.7698 0.67879-14.825 0.76487-11.314 0.0808-17.508 0.37023-27.008 1.2622-1.2293 0.11541-1.4148 0.0431-1.68-0.65426zm42.262-10.502c0-0.41275-1.0311-0.48-7.36-0.48s-7.36 0.0673-7.36 0.48c0 0.41276 1.0311 0.48 7.36 0.48s7.36-0.0672 7.36-0.48zm-26.88-26.56 8.1553-8.16h-1.3735c-2.0372 0-3.0889 0.69293-4.0115 2.6431-0.44055 0.93123-1.1198 1.9775-1.5096 2.325-0.3897 0.34754-2.4407 2.6479-4.5578 5.1119s-4.2122 4.876-4.656 5.36c-0.44369 0.484-0.67071 0.88-0.50448 0.88 0.16622 0 3.9721-3.672 8.4575-8.16zm201.12 33.478c-3.3637-0.23696-4.4301-0.76364-6.7544-3.3358-1.7424-1.9282-2.8222-4.1146-2.556-5.1753 0.10158-0.40475 0.65677-1.1504 1.2337-1.657 0.87404-0.76742 1.8488-1.0941 5.8428-1.9582 9.5397-2.0639 13.245-2.339 21.812-1.6193 3.6891 0.30993 4.6324 0.3034 5.04-0.0349 0.2758-0.2289 0.50146-0.53695 0.50146-0.68455s-2.052-1.8123-4.56-3.6993-6.6298-5.0661-9.1597-7.0646c-2.5298-1.9985-5.5538-4.3009-6.72-5.1165-3.0075-2.1034-3.802-2.903-4.3588-4.3872-0.56834-1.5148-1.0842-6.1986-0.87512-7.9456 0.14065-1.1752 0.17157-1.2 1.4994-1.2 0.74571 0 2.638-0.0907 4.205-0.20163l2.8492-0.20162 5.92 3.9294c12.072 8.0129 17.086 11.628 19.174 13.824 2.1192 2.2294 3.2261 2.7375 3.2261 1.4811 0-0.37863-0.30454-3.0066-0.67677-5.84-0.55774-4.2456-0.64396-6.1084-0.49022-10.592 0.28864-8.4168 1.842-19.98 3.0513-22.714 1.1343-2.5642 4.1876-4.3191 6.696-3.8486 1.4411 0.27036 4.4439 3.2383 5.5061 5.4423 0.46417 0.96314 0.82057 2.3694 0.89538 3.533 0.16093 2.5032-0.77508 19.03-1.4401 25.427-0.71293 6.8581-0.71755 15.68-0.0101 19.223 0.49102 2.4593 0.49922 2.9062 0.0792 4.32-0.50536 1.7012-1.8424 3.9755-3.5934 6.1124-1.23 1.501-2.7889 2.019-6.1132 2.0312-1.0033 4e-3 -4.8482 0.45653-8.5442 1.0063-6.3976 0.95168-7.2497 1.0032-17.76 1.0739-6.072 0.0409-12.336-0.017-13.92-0.12861zm43.68-41.761c0-9.7736-0.0172-10.047-0.64-10.21-0.63012-0.16478-0.64-0.01-0.64 10.043 0 9.9967 0.0134 10.21 0.64 10.21 0.62641 0 0.64-0.21333 0.64-10.043zm-305.85 37.563c0-0.616 0.0659-0.868 0.14635-0.56 0.0805 0.308 0.0805 0.812 0 1.12s-0.14635 0.056-0.14635-0.56zm352.17-41.826c0.39806-0.0765 0.97406-0.0736 1.28 6e-3 0.30595 0.0801-0.0197 0.14272-0.72373 0.13916-0.704-4e-3 -0.95432-0.0691-0.55627-0.14562zm10.401-0.3233c0.48642-0.0736 1.2064-0.0716 1.6 4e-3 0.39358 0.076-4e-3 0.13614-0.8844 0.13374-0.88-2e-3 -1.202-0.0645-0.7156-0.1381zm13.276-0.32186c0.572-0.071 1.508-0.071 2.08 0s0.104 0.12906-1.04 0.12906-1.612-0.0581-1.04-0.12906zm16.953-0.31947c0.56807-0.0707 1.5761-0.0719 2.24-3e-3 0.66392 0.0693 0.19913 0.12711-1.0329 0.12853-1.232 1e-3 -1.7752-0.0553-1.2071-0.12595zm19.367-0.32216c0.66-0.069 1.74-0.069 2.4 0s0.12 0.12553-1.2 0.12553-1.86-0.0565-1.2-0.12553zm-386.61-32.812c-3.5879-1.8448-4.5003-8.0661-3.2258-21.995 0.79067-8.6411 0.74719-14.977-0.15704-22.88-0.83607-7.3074-0.58031-8.8797 1.8891-11.613 1.2258-1.3568 3.5207-2.627 4.7463-2.627 0.40196 0 2.1675 0.37966 3.9235 0.84368 2.8926 0.76438 3.7791 0.84709 9.4327 0.88 3.432 0.02 9.4974-0.0941 13.479-0.25346 9.6273-0.38541 12.252 0.12048 15.697 3.026 1.7032 1.4362 2.3419 1.7222 4.5798 2.0512 3.4986 0.51431 4.5092 1.8276 4.2316 5.4988-0.31093 4.1113-1.4332 5.3151-5.1236 5.4959-3.0376 0.14878-13.902-0.98598-21.263-2.2209-3.2349-0.54267-5.9586-0.90962-6.0528-0.81543-0.0942 0.0942 1.6964 2.5209 3.9791 5.3928 5.0836 6.3957 7.3385 9.5212 9.4231 13.062 0.88086 1.496 2.3004 3.6668 3.1547 4.824 2.1634 2.9308 3.1686 5.214 3.1724 7.2059 6e-3 3.2265-2.5257 8.4482-4.097 8.4495-2.1111 2e-3 -5.8739-2.8511-19.414-14.719-3.4713-3.0426-6.2011-5.6868-6.4422-6.24-0.35248-0.80872-0.42038-0.85055-0.43093-0.26545-0.0298 1.6536-0.69598 10.764-0.98966 13.534-0.35639 3.3622-0.63863 3.9873-3.2981 7.3048-0.94629 1.1804-1.8947 2.6864-2.1076 3.3465-0.82825 2.5685-3.0713 3.7612-5.106 2.715zm28.574-23.515c-3.442-5.8328-8.8562-12.42-14.708-17.896-2.0365-1.9054-3.9022-3.576-4.146-3.7124-0.62963-0.35235 0.81562 2.8137 2.9114 6.378 3.3338 5.6697 7.9042 10.74 13.737 15.239 1.76 1.3577 3.3056 2.4689 3.4346 2.4695 0.12901 5.7e-4 -0.42401-1.115-1.2289-2.479zm245.4 15.703c-2.1471-2.2766-4.5616-5.4552-5.0836-6.6925-0.73189-1.7347-0.66009-8.7949 0.18308-18.003 0.36023-3.934 0.65495-7.5121 0.65495-7.9513 0-0.70332-0.37226-0.4448-3.12 2.1667-6.0597 5.7593-16.952 14.023-20.623 15.647-2.2097 0.97747-4.9761 1.1746-7.0367 0.50137-3.249-1.0615-5.7003-3.4984-5.7003-5.667 0-1.1046 0.37596-1.6281 4.2701-5.9458 5.7072-6.3281 7.7433-8.1173 11.235-9.8729 2.9206-1.4686 4.2661-2.3924 6.9996-4.8058l1.4951-1.3201-0.99968-0.19993c-0.54983-0.10997-1.6657-0.19957-2.4797-0.19911-2.3562 1e-3 -11.355 1.5022-15.72 2.6219-7.9664 2.0435-12.274 1.0443-17.932-4.16l-2.041-1.8772 0.40363-1.3472c0.48194-1.6086 0.66053-1.6917 5.5411-2.5787 2.0004-0.36355 4.1391-0.8189 4.7526-1.0119 0.61357-0.19299 3.9956-0.45302 7.5156-0.57785l6.4-0.22697 2.635-1.1971c3.7592-1.7079 6.0857-2.1138 12.154-2.1203 5.8877-6e-3 6.8653 0.21224 10.491 2.3453 2.0548 1.2088 2.4613 1.3277 4.917 1.4378 4.1663 0.18679 8.3881-0.87886 10.191-2.5722 0.87318-0.82032 0.72961-1.217 1.9918 5.5036 1.411 7.5129 1.6445 9.8372 1.7166 17.088l0.06397 6.4317-1.0809 2.56c-1.0677 2.5286-1.0805 2.6165-1.0463 7.1705 0.0554 7.373-1.0632 11.147-4.1183 13.894-1.4564 1.3094-3.3827 2.1358-4.9784 2.1358-0.29729 0-1.04-0.52962-1.6505-1.1769zm3.6967-12.333c2.6688-7.1104 3.1655-13.735 1.4559-19.419l-0.53864-1.7908-1.0782 3.36c-1.6204 5.0495-2.3413 9.0359-2.3413 12.947 0 3.3553 0.76178 8.0132 1.2602 7.7052 0.1362-0.0842 0.69516-1.3454 1.2421-2.8027zm-28.551-12.026c2.2209-1.136 4.5051-3.21 7.6811-6.9741 2.7828-3.298 3.0584-3.7365 2.6229-4.1719-0.43546-0.43546-1.189 0.10788-7.1709 5.1703-8.3506 7.067-7.6777 6.413-7.1956 6.994 0.33805 0.40733 0.56474 0.41404 1.6036 0.0475 0.66545-0.23479 1.7719-0.71436 2.4588-1.0657zm166.87-29.691c0.0154-0.37278 0.0912-0.4486 0.19333-0.19333 0.0924 0.231 0.0811 0.507-0.0253 0.61333-0.10634 0.10634-0.18197-0.0827-0.16807-0.42zm0.32-3.84c0.0154-0.37278 0.0912-0.4486 0.19333-0.19333 0.0924 0.231 0.0811 0.507-0.0253 0.61333-0.10634 0.10634-0.18197-0.0827-0.16807-0.42zm-360.11-17.973c47.036-0.0447 124-0.0447 171.04 0 47.036 0.0446 8.552 0.0812-85.52 0.0812s-132.56-0.0365-85.52-0.0812z" fill="#f6d900"/></g></g></svg>
