<?xml version="1.0" encoding="UTF-8"?>
<svg width="186.89" height="186.89" version="1.1" xmlns="http://www.w3.org/2000/svg"><path d="m5.9827e-5 139.69v-9.6h9.92v-13.12h8v-11.84h10.88v-12.775l5.6-0.18492 0.17668-9.76h4.4528c2.449 0 4.5142-0.108 4.5893-0.24 0.07506-0.132-0.19648-2.688-0.60341-5.68-0.40694-2.992-0.63985-5.5234-0.51759-5.6253 0.16988-0.1416 10.7-7.8146 11.209-8.1675 0.05871-0.04072-0.71518-1.6809-1.7198-3.6449-1.0046-1.9639-1.7006-3.6837-1.5468-3.8216 0.28365-0.25425 23.045-12.181 23.247-12.181 0.06022 0 0.59422 1.002 1.1866 2.2266l1.0771 2.2266 2.1576-2.0354c3.4149-3.2214 7.8724-5.5577 13.46-7.0547 1.6453-0.44079 3.2124-0.8018 3.4823-0.80224 0.26997-4.44e-4 1.036 0.82719 1.7022 1.8392 1.6531 2.5111 6.0992 11.625 8.7021 17.839l2.1444 5.1193-0.53205 2.2407c-0.29264 1.2324-0.88589 3.1047-1.3183 4.1607s-0.78694 2.028-0.78776 2.16c-8.1e-4 0.132 4.6751 0.24 10.391 0.24h10.392l0.1752 11.04 7.2928 0.18183-0.21373 3.4291c-0.11764 1.886-0.30242 4.3291-0.41071 5.4291l-0.19688 2h3.563l0.48313-1.68c0.26571-0.924 0.65302-2.364 0.86069-3.2s0.42468-1.52 0.48224-1.52c0.15729 0 24.88 6.3968 25.32 6.5514 0.26995 0.09481-0.0325 1.7166-1.04 5.5774-0.78134 2.9941-1.4206 5.5939-1.4206 5.7775 0 0.20571 1.0541 0.33371 2.7481 0.33371h2.7481l-0.17493 1.2c-0.0962 0.66-0.2588 2.28-0.36132 3.6s-0.26512 2.94-0.36133 3.6l-0.17493 1.2h4.3108c5.0494 0 4.6941-0.32919 4.7011 4.3553 2e-3 1.6034 0.0959 3.5834 0.20786 4.4l0.2035 1.4847h10.339l1.0378 11.92c0.57081 6.556 1.033 12.028 1.027 12.16-6e-3 0.132-42.059 0.24-93.451 0.24h-93.44z" fill="#d64b35"/><path d="m116.22 145.95c-3.2235-1.2086-3.1966-1.1594-4.0358-7.3834-0.22392-1.6607-0.85789-2.081-3.1385-2.081-3.5617 0-4.6604 1.0212-4.2537 3.9537 0.25008 1.8032-0.18735 3.1642-1.1706 3.6422-0.44793 0.21777-2.2147 0.63252-3.9262 0.92168-2.7831 0.4702-3.1631 0.4744-3.5978 0.0397-0.64327-0.64327-0.3582-1.4535 1.2089-3.4361 1.5374-1.9449 1.8937-2.8149 1.5403-3.7613-0.30827-0.82559-0.67286-0.86418-3.2111-0.33992-2.6237 0.54192-3.3035 0.16549-3.9861-2.2075-0.29312-1.0189-0.8748-2.4412-1.2926-3.1607-0.95679-1.6476-0.95047-2.4536 0.04845-6.1822 0.97918-3.6549 1.724-5.389 3.1932-7.434 0.6153-0.85646 1.1187-1.6736 1.1187-1.8159s-1.7092-1.9098-3.7982-3.9278c-2.089-2.018-4.3184-4.4822-4.9542-5.4761-1.5119-2.3635-2.6771-5.8339-2.1656-6.4502 0.255-0.30726 1.5603-0.51536 4.2332-0.6749 3.011-0.1797 3.9861-0.35222 4.4149-0.78106 0.30272-0.30272 1.2363-2.4624 2.0747-4.7992 1.8741-5.2237 3.4071-8.8368 4.4425-10.471 1.0565-1.667 3.8985-4.28 4.6552-4.28 0.33546 0 1.2536 0.6882 2.0404 1.5293 1.2576 1.3444 1.5195 1.8893 2.1661 4.5063 0.40457 1.6373 0.91673 3.0465 1.1381 3.1314 0.2214 0.08496 2.5424-0.7094 5.1577-1.7652 2.6153-1.0558 5.1258-2.0104 5.5789-2.1213 1.6195-0.39636 1.7503 0.2549 2.0171 10.038 0.084 3.0793 0.25077 4.6758 0.50492 4.8329 0.20874 0.129 0.98134 0.12134 1.7169-0.01706 2.5518-0.48013 2.6828-0.33473 2.8569 3.1712 0.0956 1.9248 0.0189 3.391-0.20294 3.8787-0.19614 0.43123-1.4006 1.6298-2.6766 2.6634s-2.32 2.0597-2.32 2.2802c0 0.45485 1.3269 1.7923 1.7782 1.7923 0.16331 0 3.7129-3.4138 7.888-7.5862l7.5911-7.5862 0.52141 1.2479c2.1308 5.0997 1.9931 14.601-0.33423 23.06-1.5781 5.7359-3.4378 7.3828-10.866 9.6232-3.0664 0.92483-3.6484 1.2167-4.683 2.3486-0.64979 0.71086-1.3981 1.2925-1.663 1.2925-0.26484 0-0.82147 0.27544-1.237 0.6121-0.73035 0.59175-0.75545 0.76456-0.75545 5.2v4.5879l-0.8 0.0704c-0.44 0.0387-1.7077-0.26995-2.8172-0.68593zm1.6512-4.0833c-0.0521-2.3522-0.91298-4.4112-2.1957-5.2517-1.2623-0.82712-1.7584-0.39849-1.7584 1.5194 0 1.994 0.91111 4.0638 2.3052 5.2368 1.399 1.1772 1.7021 0.9006 1.6489-1.5046zm-14.58-0.18352c0.67821-0.91296-0.0917-4.3926-1.0535-4.7617-0.93159-0.35748-1.4357 0.4716-1.2243 2.0136 0.1587 1.1578 0.0658 1.6042-0.49032 2.3564-0.37735 0.5104-0.6861 1.0592-0.6861 1.2196 0 0.49405 3.0078-0.22697 3.4543-0.82806zm7.2657-7.278c0.88-0.0651 1.852-0.12766 2.16-0.13903 0.37628-0.0139 0.56-0.27944 0.56-0.80941 0-0.43381-0.252-0.91431-0.56-1.0678-0.55285-0.27547-12.353 0.074-14.4 0.42648-1.1625 0.20012-1.3 0.61239-0.49931 1.4971 0.50069 0.55326 0.93266 0.58316 5.84 0.40422 2.9146-0.10627 6.0193-0.24649 6.8993-0.31158zm11.202-1.7444-0.21796-1.5847 2.1879-0.0953c2.0559-0.0895 2.1404-0.12224 1.401-0.54232-1.2444-0.70699-4.7045-0.5725-6.5766 0.25563-1.5867 0.70188-3.0365 1.8183-3.0365 2.3382 0 0.15138 0.7124 0.18074 1.5831 0.0652 1.315-0.17444 1.735-0.0967 2.48 0.45884 0.49328 0.36787 1.2344 0.67341 1.6469 0.67899 0.71591 0.01 0.74011-0.0619 0.53207-1.5746zm9.2059-2.7722c3.3937-1.6982 4.8326-2.9994 6.0492-5.4708 0.99582-2.0228 1.0494-2.3144 1.0559-5.7468 4e-3 -2.1112-0.12439-3.6512-0.30858-3.7007-0.1735-0.0466-0.78658 0.63521-1.3624 1.5152-1.5906 2.4308-1.8623 2.1662-1.7254-1.68 0.13061-3.671-0.0682-3.9577-1.4422-2.08-1.1972 1.636-2.4202 2.96-2.7343 2.96-0.4584 0-0.27155-1.3723 0.54463-4 0.43733-1.408 0.79517-2.596 0.79519-2.64 3.9e-4 -0.71195-4.0823 2.1129-6.3922 4.4227-3.1639 3.1639-4.117 5.8456-3.5084 9.872 0.2016 1.3339 0.50592 2.6869 0.67627 3.0066 0.58777 1.1031 4.8703 4.6987 5.5964 4.6987 0.24419 0 1.4844-0.5206 2.756-1.1569zm-21.848 0.55242c0.9631-0.26567 1.2459-1.7634 0.52021-2.7551-0.9768-1.3349-10.831-0.92229-12.577 0.52666-0.60396 0.50125-0.52309 1.783 0.13675 2.1673 0.62421 0.36357 10.637 0.41494 11.92 0.0612zm-14.918-0.91553c0.32608-1.1088 1.2208-9.0843 1.0395-9.2656-0.88813-0.88812-3.721 5.6452-3.721 8.5816 0 1.0703 2.3888 1.6796 2.6816 0.68408zm22.31-0.44159c3.9604-0.91185 4.6056-1.522 4.2912-4.0582-0.12408-1.0011-0.44438-2.3242-0.71177-2.9402-0.29212-0.67298-0.47039-1.9638-0.44664-3.2341 0.0487-2.604-0.68229-3.8081-2.308-3.8021-1.2542 5e-3 -4.2658 0.78571-4.8276 1.252-0.48477 0.40233-0.9769 5.1878-0.9842 9.5704-4e-3 2.5903 0.0774 3.0464 0.61618 3.44 0.79828 0.58317 0.86323 0.57979 4.3708-0.22781zm-6.751-4.5184c0.38945-0.91273 1.3016-7.6247 1.084-7.9768-0.27419-0.44365-1.6316-0.29805-4.8669 0.52201-1.7039 0.43189-4.3054 0.99476-5.7811 1.2508-1.4757 0.25607-2.7934 0.644-2.9281 0.86208-0.37306 0.60363-0.9662 5.0041-0.75033 5.5666 0.16271 0.42401 1.1063 0.49521 6.5627 0.49521 6.3043 0 6.3759-8e-3 6.6798-0.72zm-2.5375-9.6837c11.547-2.324 11.227-2.1914 16.137-6.6981l1.92-1.7626-1.36-8e-3c-1.1491-7e-3 -1.36-0.10811-1.36-0.65492 0-0.35593 0.57403-1.2699 1.2756-2.031 0.7016-0.76114 1.1866-1.4729 1.0779-1.5816-0.10876-0.10877-0.82168 0.16788-1.5843 0.61478-0.76257 0.4469-1.7156 0.76586-2.1179 0.7088-0.71621-0.1016-0.7293-0.17334-0.63169-3.4638 0.12251-4.13-0.38566-8.7762-1.075-9.8282-0.28304-0.43197-1.1071-1.0507-1.8313-1.3749-1.5304-0.68517-1.5703-0.67128-5.5674 1.9381-1.3355 0.8718-2.687 1.5851-3.0034 1.5851-0.43638 0-0.89289-0.83042-1.8911-3.44-0.72372-1.892-1.6132-3.691-1.9765-3.9979-0.76306-0.64433-1.7175-0.50919-3.5678 0.50519-2.343 1.2845-5.6934 7.5867-6.6449 12.499-0.34333 1.7726-0.03436 2.4334 1.1377 2.4334 0.83756 0 1.4672-0.66192 1.9195-2.0179 0.68935-2.0666 2.4005-2.0119 2.4005 0.07664 0 1.4995 0.56891 1.9413 2.4998 1.9413 1.4014 0 2.1096 0.5528 1.6536 1.2907-0.23555 0.3812-1.5082 0.49001-6.7817 0.57979-5.2977 0.0902-6.5941 0.20171-7.0481 0.60629-0.89386 0.79653-2.4837 3.443-2.4837 4.1344 0 0.55016 5.0197 5.8687 5.539 5.8687 0.09745 0 1.7255-1.2272 3.6178-2.7271 1.8923-1.4999 3.5942-2.676 3.7819-2.6135 0.96789 0.32221 0.38766 1.3791-2.2201 4.044l-2.7739 2.8347 0.56514 0.86251c0.68339 1.043 1.6155 1.4722 2.6901 1.2388 0.44-0.0956 3.9065-0.79901 7.7034-1.5632zm-1.6234-11.574c0-0.82169 1.4276-5.2659 1.7875-5.5646 0.91014-0.75534 1.4126-0.09573 1.4113 1.8528-2e-3 2.4371-0.85025 3.93-2.2341 3.93-0.53059 0-0.9647-0.0982-0.9647-0.21821zm33.422 7.827c0.29401-0.41975 0.49503-1.3705 0.49053-2.32-0.0135-2.8548-1.4575-8.2766-1.9994-7.5075-0.0537 0.0763-0.84469 0.97451-1.7577 1.9961-2.6106 2.9211-2.869 5.0288-0.75086 6.1242 0.49799 0.25752 1.0872 0.90701 1.3093 1.4433 0.50741 1.225 1.9373 1.3643 2.7081 0.26389zm-64.462-20.943c-7.782-6.6643-14.491-13.378-17.618-17.63l-0.99272-1.3499 1.0656 0.20229c1.0915 0.20721 4.1244 1.1197 5.1693 1.5553 0.47155 0.19656 0.40212-0.05708-0.36132-1.32-0.94122-1.557-1.7569-3.8088-2.1087-5.8213l-0.18493-1.058 1.3123 0.73755c0.72176 0.40565 1.7278 1.2108 2.2356 1.7891l0.9233 1.0516v-1.3839c0-1.8478 0.79766-4.8135 1.7802-6.6187 1.0642-1.9553 3.611-5.1397 4.1107-5.1397 0.72404 0 3.3995 3.6318 4.766 6.4694 1.3092 2.7187 1.3716 2.7894 2.4632 2.7894 1.0916 0 1.154-0.07069 2.4632-2.7894 1.3837-2.8736 4.0446-6.4694 4.7872-6.4694 0.5142 0 2.9683 3.0798 4.0764 5.1157 0.99425 1.8268 1.7932 4.7864 1.7932 6.6426v1.3839l0.9233-1.0516c0.50782-0.57837 1.5075-1.3799 2.2215-1.7812l1.2982-0.72964-0.18227 1.2101c-0.27559 1.8297-1.277 4.5417-2.1818 5.9091-0.44442 0.67156-0.76998 1.2209-0.72349 1.2208 0.0465-8.9e-5 0.8106-0.27612 1.698-0.61341 0.8874-0.33729 2.3611-0.74914 3.2749-0.91522l1.6614-0.30197-0.95933 1.3045c-2.1771 2.9604-6.974 8.0649-11.108 11.82-6.0765 5.5198-8.558 7.589-9.0785 7.5699-0.24414-9e-3 -1.3799-0.81788-2.5239-1.7976zm-1.1325-13.003c-0.51855-3.1216-1.9099-4.0756-4.5049-3.089l-0.87915 0.33425 2.5275 2.5424c2.7671 2.7834 3.2902 2.8223 2.8566 0.21232zm12.465-2.8274c-0.23995-0.38825-2.2768-0.68932-3.1614-0.4673-0.43608 0.10945-0.96624 0.5213-1.1781 0.91522-0.54009 1.004-0.90493 3.1343-0.68962 4.0266 0.16808 0.6966 0.36046 0.57207 2.6827-1.7365 1.3759-1.3678 2.4318-2.5999 2.3464-2.738z" fill="#060505"/></svg>
