<?xml version="1.0" encoding="UTF-8"?>
<svg width="591.95" height="591.95" version="1.1" viewBox="0 0 591.95 591.95" xmlns="http://www.w3.org/2000/svg"><g transform="translate(-51.236 -143.36)"><g transform="translate(0 69.806)"><path d="m72.32 595.31c-10.326-0.7195-13.09-1.6762-18.717-6.4788-3.0591-2.6109-3.0911-2.9947-0.45207-5.4292l1.951-1.7998 0.28426-2.4c0.15634-1.32 0.3762-5.064 0.48858-8.32 0.1712-4.9603 0.08567-7.0353-0.5276-12.8-0.59348-5.5786-0.74264-8.938-0.78858-17.76-0.03116-5.984-0.22889-14.894-0.4394-19.799-0.30774-7.1714-0.30206-9.5543 0.029-12.16 0.50295-3.9586 0.49752-6.9673-0.03995-22.121-0.57051-16.085-0.29916-44.133 0.4907-50.72 0.42518-3.5459 0.56448-7.3941 0.59075-16.32 0.01891-6.424 0.15221-13.192 0.29623-15.04 0.20774-2.6657 0.10671-4.914-0.48889-10.88-0.67589-6.7702-0.74217-8.8281-0.66483-20.64 0.06191-9.4548-0.05007-14.908-0.40086-19.52-0.33198-4.3648-0.48751-10.936-0.48909-20.664-0.0013-7.845-0.1541-16.845-0.3396-20-0.5132-8.7286 0.17074-95.266 0.82557-104.46 0.26961-3.784 0.61998-11.776 0.7786-17.76 0.21244-8.0142 0.47113-12.229 0.98213-16 0.88557-6.5359 0.77397-9.6428-0.42899-11.943-1.3334-2.5501-1.0531-5.669 0.64529-7.1804 1.1631-1.035 6.6619-1.3407 16.874-0.93791 10.342 0.4079 13.113 0.2753 38.74-1.8542 8.448-0.70199 18.528-1.42 22.4-1.5955 9.1773-0.41599 11.107-0.56799 15.52-1.2226 5.0211-0.74481 32.201-0.66482 43.68 0.12854 8.6133 0.5953 21.51 0.65233 32.16 0.14223 7.1508-0.3425 30.261-0.95434 67.108-1.7766 26.145-0.58348 51.979-0.62783 62.349-0.10703 7.1747 0.36034 8.2495 0.33856 15.84-0.32096 9.1809-0.79771 31.394-1.3174 56.623-1.3247 16.424-5e-3 41.655-1.1307 50.592-2.2578 3.1136-0.39268 6.906-0.62835 10.08-0.6264 4.7492 3e-3 5.2027 0.0563 6.8028 0.80121 1.4747 0.68652 1.6892 0.89856 1.5345 1.5169-1.1448 4.5735-1.1411 4.4898-0.28397 6.5069l0.80392 1.8919-5e-3 17.12c-3e-3 9.416-0.0439 20.144-0.0914 23.84-0.082 6.378 0.22616 12.072 1.7668 32.64 0.25047 3.344 0.60441 9.32 0.78655 13.28 0.52281 11.367 0.61035 12.545 1.1804 15.887 0.44122 2.5865 0.52854 5.1433 0.48626 14.238-0.0477 10.269-9e-3 11.138 0.52824 11.801l0.57977 0.71599 4.7798-1.1408c12.264-2.9272 20.114-4.0574 28.195-4.0597 8.9242-3e-3 23.582 1.2699 28.101 2.4394 2.3727 0.614 13.716 5.769 16.139 7.3347 0.98156 0.63415 3.8006 3.2074 6.2646 5.7184s5.704 5.4792 7.2 6.596c5.3016 3.9578 9.8553 8.9349 12.491 13.652 0.57072 1.0216 2.041 3.4146 3.2673 5.3179 2.2622 3.5112 4.3208 7.7763 7.5194 15.579 5.3252 12.991 7.5352 22.771 9.0386 40 0.46096 5.2828 0.88276 8.3292 1.4178 10.24 1.0811 3.8612 1.1424 4.1798 1.6279 8.4656 0.24015 2.1199 0.79708 6.5904 1.2376 9.9344s1.0304 9.464 1.3108 13.6 0.86196 11.696 1.2924 16.8 0.93264 11.728 1.1161 14.72c0.42282 6.8971 0.75379 10.145 1.9241 18.88 1.8891 14.1 1.9468 14.911 1.7283 24.273-0.18905 8.1007-0.15664 8.903 0.48029 11.887 0.37567 1.76 0.83233 5 1.0148 7.2s0.6829 7.528 1.1121 11.84c1.355 13.615 1.7333 18.889 1.7444 24.32 8e-3 4.1518 0.2186 6.716 0.98344 12 1.606 11.095 1.6626 24.842 0.10691 25.979-0.29667 0.21692-1.162 0.48777-1.9229 0.60187-1.0958 0.16432-1.6104 0.0672-2.4746-0.46687-1.4227-0.87929-1.4947-0.86176-1.5005 0.36566-3e-3 0.572-0.12082 1.2226-0.26249 1.4458-0.60967 0.96053-2.6531 1.0991-17.813 1.2082-8.448 0.0608-19.276 0.28404-24.062 0.49609-6.0236 0.26689-11.244 0.29739-16.96 0.0991-9.6436-0.3345-34.241-0.32466-39.206 0.0157-2.9058 0.19919-3.456 0.3233-3.612 0.81489-0.174 0.54824-0.86928 0.57666-12.732 0.52037-11.258-0.0534-13.074-0.13604-17.668-0.80394-4.4064-0.64067-5.6998-0.70871-9.28-0.48821-2.288 0.1409-6.392 0.22738-9.12 0.19216-3.0045-0.0388-5.717 0.0944-6.88 0.33787-1.3269 0.27775-3.0568 0.3313-5.6 0.17336-7.4678-0.46375-16.598-0.37147-21.6 0.21831-2.64 0.31131-7.104 0.59537-9.92 0.63125-2.816 0.0359-6.56 0.24998-8.32 0.47577-2.1418 0.27478-4.5756 0.33647-7.36 0.18656-2.288-0.12319-15.104-0.34987-28.48-0.50374-15.728-0.18091-25.507-0.42141-27.68-0.68072-2.4394-0.2911-10.637-0.40088-29.92-0.40067l-26.56 3e-4 -4.2891 0.87192c-4.0023 0.81363-4.4812 0.84729-7.163 0.50336-2.1252-0.27254-3.3838-0.27618-4.8309-0.014-3.3491 0.60685-29.962 1.1861-34.522 0.7514-5.9218-0.5646-19.997-1.0702-31.275-1.1236l-10.08-0.0477-5.92 1.0636c-5.0809 0.91288-7.0539 1.1033-13.92 1.3432-4.4 0.15375-10.376 0.57489-13.28 0.93585-2.904 0.36097-8.448 0.81587-12.32 1.0109-7.2732 0.36634-44.179 0.50966-61.92 0.24046-9.9275-0.15063-10.119-0.16609-12.64-1.0215-1.408-0.47773-3.0462-1.1301-3.6405-1.4497l-1.0805-0.58112-4.2754 1.3787c-2.3515 0.75827-5.4615 1.5274-6.9111 1.7092-2.4073 0.30185-9.1935 0.36492-12.732 0.11834z"/><path d="m131.78 595.6c2.1661-0.0554 5.6221-0.0553 7.68 3.8e-4 2.0579 0.0557 0.28565 0.10101-3.9384 0.1008s-5.9077-0.0457-3.7416-0.10118zm-59.218-0.29275c0.22-0.0888 0.58-0.0888 0.8 0s0.04 0.16141-0.4 0.16141-0.62-0.0726-0.4-0.16141zm11.22-7e-3c0.231-0.0924 0.507-0.0811 0.61333 0.0253 0.10633 0.10633-0.08267 0.18197-0.42 0.16807-0.37278-0.0154-0.44861-0.0912-0.19333-0.19333zm75.508-0.0161c0.75265-0.0676 1.9046-0.0666 2.56 2e-3 0.65535 0.0688 0.0395 0.12407-1.3685 0.1229-1.408-1e-3 -1.9442-0.0574-1.1915-0.12501zm-39.668-0.30356c0.231-0.0924 0.507-0.0811 0.61333 0.0253 0.10634 0.10633-0.0827 0.18197-0.42 0.16807-0.37278-0.0154-0.4486-0.0912-0.19333-0.19333zm53.424-8e-3c0.39805-0.0765 0.97405-0.0736 1.28 6e-3 0.30595 0.0801-0.0197 0.14272-0.72373 0.13917-0.704-4e-3 -0.95432-0.0691-0.55627-0.14563zm7.0563-0.312c0.231-0.0924 0.507-0.0811 0.61333 0.0253 0.10634 0.10633-0.0827 0.18197-0.42 0.16807-0.37278-0.0154-0.4486-0.0912-0.19333-0.19333zm15.68-1.6c0.231-0.0924 0.507-0.0811 0.61333 0.0253 0.10634 0.10633-0.0827 0.18197-0.42 0.16807-0.37278-0.0154-0.4486-0.0912-0.19333-0.19333zm81.1-1.2906c0.484-0.0733 1.276-0.0733 1.76 0s0.088 0.13331-0.88 0.13331-1.364-0.06-0.88-0.13331zm11.68-0.31663c0.396-0.0763 1.044-0.0763 1.44 0s0.072 0.13868-0.72 0.13868-1.116-0.0624-0.72-0.13868zm-35.36-0.31475c0.308-0.0805 0.812-0.0805 1.12 0s0.056 0.14634-0.56 0.14634-0.868-0.0658-0.56-0.14634zm169.45-0.0113c0.57516-0.0712 1.4392-0.0697 1.92 3e-3 0.48085 0.073 0.0103 0.13128-1.0457 0.12949-1.056-2e-3 -1.4494-0.0615-0.87427-0.13276zm9.2943 0.0133c0.231-0.0924 0.507-0.0811 0.61334 0.0253 0.10633 0.10633-0.0827 0.18197-0.42 0.16807-0.37279-0.0154-0.44861-0.0912-0.19334-0.19333zm-187.86-0.32773c0.39805-0.0765 0.97405-0.0736 1.28 6e-3 0.30595 0.0801-0.0197 0.14272-0.72373 0.13917-0.704-4e-3 -0.95432-0.0691-0.55627-0.14563zm166.88-3e-3c0.48642-0.0736 1.2064-0.0716 1.6 4e-3 0.39358 0.076-4e-3 0.13613-0.8844 0.13373-0.88-2e-3 -1.202-0.0646-0.7156-0.1381zm-177.92-0.32c0.48642-0.0736 1.2064-0.0716 1.6 4e-3 0.39358 0.076-4e-3 0.13613-0.8844 0.13373-0.88-2e-3 -1.202-0.0645-0.7156-0.1381zm143.36 8e-3c0.31135-0.0811 0.74335-0.0758 0.96 0.0118 0.21665 0.0877-0.0381 0.15404-0.56609 0.14752-0.528-7e-3 -0.70526-0.0782-0.39391-0.15937zm68.654 3e-3c0.231-0.0924 0.507-0.0811 0.61334 0.0253 0.10633 0.10633-0.0827 0.18197-0.42 0.16807-0.37279-0.0154-0.44861-0.0912-0.19334-0.19333zm75.833-0.0187c1.1069-0.0627 2.8349-0.0621 3.84 1e-3 1.0051 0.0633 0.0995 0.11457-2.0125 0.11394-2.112-6.3e-4 -2.9344-0.0524-1.8275-0.11509zm-149.43-0.30158c0.231-0.0924 0.507-0.0811 0.61334 0.0253 0.10633 0.10633-0.0827 0.18197-0.42 0.16807-0.37279-0.0154-0.44861-0.0912-0.19334-0.19333zm138.88 0c0.231-0.0924 0.507-0.0811 0.61334 0.0253 0.10633 0.10633-0.0827 0.18197-0.42 0.16807-0.37278-0.0154-0.44861-0.0912-0.19334-0.19333zm-197.76-0.32c0.231-0.0924 0.507-0.0811 0.61334 0.0253 0.10633 0.10633-0.0827 0.18197-0.42 0.16807-0.37279-0.0154-0.44861-0.0912-0.19334-0.19333zm54.72 0c0.231-0.0924 0.507-0.0811 0.61334 0.0253 0.10633 0.10633-0.0827 0.18197-0.42 0.16807-0.37279-0.0154-0.44861-0.0912-0.19334-0.19333zm-49.94-0.31334c0.22-0.0888 0.58-0.0888 0.8 0s0.04 0.16141-0.4 0.16141-0.62-0.0726-0.4-0.16141zm43.524-0.0144c0.39806-0.0765 0.97406-0.0736 1.28 6e-3 0.30595 0.0801-0.0197 0.14272-0.72373 0.13917-0.704-4e-3 -0.95432-0.0691-0.55627-0.14563zm108.8 0.0144c0.22-0.0888 0.58-0.0888 0.8 0s0.04 0.16141-0.4 0.16141-0.62-0.0726-0.4-0.16141zm-9.28-0.33955c0.572-0.071 1.508-0.071 2.08 0s0.104 0.12906-1.04 0.12906-1.612-0.0581-1.04-0.12906zm19.86 0.0129c0.231-0.0924 0.507-0.0811 0.61334 0.0253 0.10633 0.10633-0.0827 0.18197-0.42 0.16807-0.37278-0.0154-0.44861-0.0912-0.19334-0.19333zm3.9861-3e-3c0.31135-0.0811 0.74335-0.0758 0.96 0.0118 0.21665 0.0877-0.0381 0.15404-0.56609 0.14752-0.528-7e-3 -0.70526-0.0782-0.39391-0.15937zm95.046-0.0151c1.0184-0.0637 2.6024-0.0631 3.52 1e-3 0.91757 0.0644 0.0843 0.11653-1.8517 0.11581-1.936-7.2e-4 -2.6867-0.0534-1.6683-0.11712zm-41.132-0.30915c0.396-0.0763 1.044-0.0763 1.44 0s0.072 0.13868-0.72 0.13868-1.116-0.0624-0.72-0.13868zm33.94 7e-3c0.231-0.0924 0.507-0.0811 0.61334 0.0253 0.10633 0.10633-0.0827 0.18197-0.42 0.16807-0.37278-0.0154-0.44861-0.0912-0.19334-0.19333zm19.346-3e-3c0.31135-0.0811 0.74335-0.0758 0.96 0.0119s-0.0381 0.15404-0.56609 0.14752c-0.528-7e-3 -0.70526-0.0782-0.39391-0.15937zm-43.526-0.31875c0.308-0.0805 0.812-0.0805 1.12 0s0.056 0.14634-0.56 0.14634-0.868-0.0659-0.56-0.14634zm19.68 9e-3c0.22-0.0888 0.58-0.0888 0.8 0s0.04 0.16141-0.4 0.16141-0.62-0.0726-0.4-0.16141zm30.246-0.01c0.31135-0.0811 0.74335-0.0758 0.96 0.0118 0.21665 0.0877-0.0381 0.15404-0.56609 0.14752-0.528-7e-3 -0.70526-0.0782-0.39391-0.15937zm19.514-0.0135c0.836-0.0659 2.204-0.0659 3.04 0s0.152 0.11986-1.52 0.11986-2.356-0.0539-1.52-0.11986zm-9.76-0.31062c0.396-0.0763 1.044-0.0763 1.44 0s0.072 0.13868-0.72 0.13868-1.116-0.0624-0.72-0.13868zm19.84 0.0139c0.22-0.0888 0.58-0.0888 0.8 0s0.04 0.16141-0.4 0.16141-0.62-0.0726-0.4-0.16141zm8.7453-2.5347c0.0154-0.37278 0.0912-0.44861 0.19333-0.19334 0.0924 0.231 0.0811 0.507-0.0253 0.61334-0.10634 0.10633-0.18197-0.0827-0.16807-0.42zm-580.8-8.64c0.01535-0.37278 0.09118-0.44861 0.19333-0.19334 0.09244 0.231 0.08107 0.507-0.02526 0.61334-0.10633 0.10633-0.18196-0.0827-0.16807-0.42zm0.34526-4.2935c0-0.44 0.07263-0.62 0.1614-0.4 0.08877 0.22 0.08877 0.58 0 0.8s-0.1614 0.04-0.1614-0.4zm332.59-2.7588c-9.6633-0.61666-13.399-0.72127-20.32-0.56898-6.8252 0.15018-9.4167 0.0805-13.28-0.35694-3.6286-0.4109-6.0494-0.4924-9.92-0.33398-3.4231 0.1401-7.4533 0.0466-12.16-0.28217-20.921-1.4613-44.797-2.7249-51.649-2.7334-4.7652-6e-3 -12.964-0.53653-25.151-1.6276-20.866-1.8681-35.599-2.5644-40.8-1.9282-1.672 0.20449-4.984 0.90691-7.36 1.5609l-4.32 1.1891h-33.12c-32.441 0-33.141 0.013-34.168 0.63353-0.85311 0.51587-1.1502 0.5612-1.6 0.24407-1.8716-1.3197-2.5451-1.4714-8.3923-1.8906-8.4802-0.60801-14.335-1.7566-24.32-4.7712-3.7507-1.1324-7.0121-1.1348-10.278-8e-3 -1.3258 0.4576-2.7776 0.832-3.2262 0.832-1.1284 0-3.3828-0.83086-4.8093-1.7724-1.6895-1.1152-2.9394-1.0527-3.4469 0.17244-0.50882 1.2284-1.2727 1.2278-2.6733-2e-3 -2.2769-1.9991-2.2366-1.6668-2.1695-17.915 0.0331-8.0097 0.30245-20.539 0.59856-27.843 0.77422-19.098 0.73585-26.849-0.1714-34.628-0.60568-5.1931-0.66972-6.5501-0.36242-7.68 0.2266-0.83319 0.3933-4.327 0.42428-8.8924 0.05199-7.6613 1.5448-31.145 2.1156-33.28 0.16466-0.616 0.32384-3.424 0.35373-6.24 0.0515-4.8512 0.0094-5.237-0.80229-7.3492-0.7719-2.0086-0.82256-2.3885-0.51211-3.84 0.18949-0.88596 0.90391-2.5468 1.5876-3.6908 0.68369-1.144 1.3846-2.656 1.5576-3.36 0.19538-0.79508 0.28797-10.554 0.2444-25.76-0.06067-21.176-0.16179-25.797-0.74922-34.24-0.8802-12.651-1.2269-33.996-0.73805-45.44 0.19922-4.664 0.44429-15.824 0.54459-24.8 0.19408-17.368 0.23237-17.76 1.7346-17.76 0.35635 0 0.99114-0.37036 1.4106-0.82302 0.95212-1.0274 1.3848-0.83468 3.6214 1.6125 1.846 2.0198 2.6969 4.0016 3.5689 8.3125 0.32243 1.5939 0.9678 3.7571 1.4342 4.8069 2.5028 5.6344 15.987 23.198 24.821 32.331 2.5537 2.64 5.4237 5.704 6.3778 6.8089l1.7347 2.0089 1.8012-4.5689c4.6923-11.902 8.568-18.143 18.712-30.129 9.4908-11.215 13.935-16.752 13.943-17.37 0.0234-1.9625 2.0092-4.2922 4.5534-5.342l1.2005-0.49533 1.1347 1.7738c1.7455 2.7287 3.6848 4.627 9.4658 9.2656 6.1761 4.9556 9.4713 8.311 9.6196 9.7953 0.12823 1.2834 1.3564 2.1951 3.2438 2.4078 1.4526 0.16373 1.4562 0.16715 0.95867 0.92647-0.48785 0.74455-0.43393 0.8334 2.3385 3.8538 3.0323 3.3035 4.0174 4.0612 6.0379 4.6443 0.704 0.20318 1.624 0.66896 2.0446 1.0351 1.6772 1.4602 5.4827 6.3458 6.6019 8.4757 0.82522 1.5704 1.9194 2.954 3.5934 4.5442l2.407 2.2864 1.9566-0.16288c2.4833-0.20674 5.2783-1.1959 7.5441-2.6698 0.97489-0.63419 4.3645-3.8293 7.5325-7.1003 3.168-3.271 9.0791-9.3403 13.136-13.487 4.8475-4.9556 8.6624-9.2002 11.129-12.383 4.6709-6.0267 6.1711-7.1572 9.498-7.1572 1.1671 0 1.7648 0.18181 2.3671 0.72 0.81385 0.7272 1.4682 2.48 0.92574 2.48-0.16144 0-0.57305 0.20679-0.91469 0.45953-0.58463 0.4325-0.0353 1.0342 9.3413 10.23 8.3492 8.1887 10.325 10.304 12.203 13.06 1.2322 1.8092 2.834 4.0815 3.5596 5.0495 1.9555 2.6087 6.1896 6.7552 8.1842 8.0147 0.96262 0.6079 2.4337 1.5373 3.269 2.0653s2.2636 1.9259 3.174 3.1064l1.6553 2.1464 3.9204-4.7064c2.1562-2.5885 6.4099-7.1544 9.4526-10.146 4.8741-4.7928 6.1939-6.3346 11.094-12.96 5.939-8.0298 8.6313-10.984 12.132-13.311 1.2543-0.83387 2.7978-2.236 3.6037-3.2737 0.77532-0.99833 3.6296-4.0112 6.3428-6.6952 5.4281-5.3696 5.5531-5.4352 8.1252-4.2672 1.201 0.54539 1.3385 0.73193 1.5426 2.0928 0.17832 1.1891 0.65362 2.0288 2.3289 4.1142 4.426 5.5096 7.753 9.094 12.084 13.019 2.4672 2.2357 5.8538 5.4187 7.5258 7.0732 1.672 1.6545 4.984 4.5896 7.36 6.5223 6.2763 5.1055 8.4562 7.4405 12.019 12.874 1.7062 2.6023 3.1466 4.7821 3.201 4.8442 0.16126 0.18388 6.9662-4.001 9.1571-5.6314 3.3462-2.4901 12.371-11.746 14.674-15.048 1.8408-2.6403 4.6286-7.0481 12.695-20.073 2.0877-3.3709 2.3599-3.9849 2.2282-5.0264-0.13713-1.0843-0.0175-1.3104 1.39-2.627 1.743-1.6303 2.5968-1.9373 4.7218-1.6978 2.0884 0.23539 2.5035 0.87227 2.7083 4.1554 0.19855 3.1826 0.92928 5.0461 2.7495 7.012 1.3271 1.4333 1.6053 1.6028 6.1358 3.7391 3.0337 1.4305 3.5602 1.7956 4.129 2.8634 0.57059 1.071 0.16373 2.3958-1.3074 4.2569l-1.2854 1.6262 1.2319 1.7785c0.67754 0.97817 2.6045 4.0963 4.2821 6.9291 2.5582 4.3198 3.3044 5.3312 4.6259 6.2706 3.6694 2.6082 4.2996 3.7836 3.1743 5.92-0.43114 0.81851-0.44808 1.2027-0.11494 2.6066 0.2149 0.9056 0.2911 2.0435 0.16932 2.5287-0.29884 1.1907-1.7488 2.4848-3.3914 3.0269-0.74333 0.24533-2.5939 1.227-4.1124 2.1816-1.5185 0.95455-5.8569 3.609-9.6409 5.8987-16.529 10.002-26.279 17.136-29.556 21.626-1.2284 1.6834-5.866 9.5588-7.7313 13.129-0.67754 1.2968-2.3691 3.9608-3.759 5.92-4.4489 6.2708-6.1582 9.8476-9.4 19.67-2.4989 7.5713-2.9629 10.535-2.4232 15.477 0.26742 2.4491 0.27439 4.182 0.0256 6.3698-0.20104 1.7681-0.24402 4.3228-0.10439 6.2054 0.4442 5.9894 0.37128 7.2547-0.51771 8.9822-0.48685 0.94604-1.3545 1.9554-2.179 2.5349-2.209 1.5525-3.0942 1.3959-12.995-2.2993-18.567-6.9299-23.103-7.8801-36.838-7.717l-8.3576 0.0993-0.72861 1.28c-0.40073 0.704-1.3529 2.252-2.1159 3.44l-1.3873 2.16h-2.0087c-2.3058 0-7.3362 1.2791-8.5525 2.1747-1.8244 1.3433-3.8194 6.5207-4.649 12.065-0.54056 3.6124-0.62355 12.278-0.16617 17.35 0.34318 3.8054 1.5869 7.85 3.609 11.737 1.7876 3.4361 2.701 4.4051 5.9608 6.3241 1.8166 1.0694 3.8568 2.6917 5.9952 4.767 6.5977 6.4032 14.758 10.63 26.199 13.569 9.4318 2.4236 12.591 2.6474 29.682 2.103 12.464-0.39702 12.642-0.39383 14.102 0.25191 0.90867 0.40195 1.7244 1.0583 2.1164 1.7029 1.1833 1.9459 1.1413 2.5723-0.39883 5.9484-2.1491 4.7109-2.5714 6.9989-3.1167 16.886-0.18443 3.344-0.77959 11.048-1.3226 17.12-0.96001 10.735-1.0804 13.785-1.6288 41.28-0.0359 1.7996 0.10486 3.0837 0.41593 3.7947l0.47019 1.0747-1.4396 1.2794c-2.2402 1.991-3.4788 2.4977-5.9877 2.4497-1.195-0.0229-7.5008-0.3816-14.013-0.79717zm5.0682-8.2813c1.3795-0.26397 2.9822-0.47995 3.5615-0.47995h1.0533l0.48473-3.12c0.2666-1.716 0.46044-3.1475 0.43075-3.1811-0.0297-0.0336-1.3465 0.96022-2.9262 2.2085-3.8718 3.0595-6.3592 4.2126-9.087 4.2126-1.972 0-2.0347 0.0224-1.1362 0.40557 1.2964 0.55287 4.5947 0.53312 7.6192-0.0456zm-290.82-96.967c11.068-1.2698 34.062-2.7245 42.233-2.6716 2.112 0.0137 5.064-0.12813 6.56-0.31508 4.8913-0.61125 10.913-0.7391 16-0.3397 4.4581 0.35002 26.921 0.86566 45.12 1.0357 3.784 0.0354 7.7536 0.18187 8.8214 0.32556 1.2755 0.17165 4.1842 0.0748 8.48-0.28244 8.9427-0.74362 28.103-0.49485 37.739 0.48997 8.7703 0.8964 28.136 1.3486 40.32 0.9415 9.8972-0.33071 21.673-1.0631 21.977-1.3669 0.4189-0.4189-0.7847-2.3898-2.829-4.6324-2.6728-2.9321-4.8114-6.9609-5.9402-11.191-0.76739-2.8754-0.83025-3.6204-0.84266-9.9872-0.0196-10.057 0.90826-16.832 3.4589-25.256 0.44902-1.483 0.81639-2.887 0.81639-3.12 0-0.73225-2.598-0.48941-7.5961 0.71001-4.2481 1.0194-5.4491 1.1673-11.924 1.4681-10.795 0.50152-14.278 0.16627-20.518-1.9752-2.4273-0.83302-3.1946-0.94609-6.4-0.94314-3.5863 3e-3 -5.5466 0.31246-13.743 2.1672l-2.7406 0.62018-0.96647-0.86355c-0.92104-0.82294-1.1758-0.87343-5.4194-1.0739-4.2265-0.19964-6.1222-0.0558-9.4129 0.71415-0.792 0.18531-1.5282 0.34045-1.636 0.34475-0.1078 4e-3 -0.74461-0.42816-1.4151-0.96103-1.4392-1.1437-2.0121-0.88659-1.4726 0.66088 0.33883 0.97199 0.3217 1.0106-0.36025 0.81179-1.8021-0.52535-2.8712-0.53801-4.9776-0.0589-2.8716 0.65313-7.0878 0.66069-9.3487 0.0168-3.1657-0.90162-4.926-0.94741-6.1981-0.16122-0.97235 0.60094-1.2932 0.6503-2.3393 0.35981-1.7454-0.48469-3.4597-0.42124-7.1961 0.26635-9.6061 1.7677-13.393 1.9508-16.82 0.81295-0.92596-0.30749-1.7655-0.47716-1.8656-0.37706-0.1001 0.10009 0.0621 0.55449 0.36038 1.0098 0.5307 0.80996 0.52609 0.82772-0.21444 0.82574-0.50112-1e-3 -0.93721-0.31912-1.2908-0.94062-0.7215-1.2682-1.6078-1.3925-8.8206-1.2375l-6.0054 0.12907-1.5546 1.0078c-2.3148 1.5005-4.9242 1.9629-11.565 2.0491-4.144 0.0538-6.972-0.0887-10.08-0.50789-3.4879-0.47045-5.5527-0.54782-10.72-0.40167-6.9979 0.19793-9.4946 0.53771-26.356 3.5868-5.3435 0.96633-10.056 1.757-10.473 1.757-0.41656 0-1.5332-0.38048-2.4814-0.84551-2.1427-1.0509-2.9412-0.89407-4.9579 0.97385-1.7477 1.6188-2.6024 2.1117-3.6617 2.1117-1.562 0-1.7528 0.64091-3.2468 10.905-1.2868 8.8401-1.6215 12.867-1.4862 17.884 0.03687 1.3679 0.63068 2.8578 2.4312 6.1002 0.44254 0.79692 0.89005 2.1703 0.99447 3.052 0.16726 1.4123 0.09028 1.7214-0.64666 2.5972-1.045 1.242-1.0912 2.6385-0.11652 3.5252 1.3974 1.2713 1.418 1.2718 10.327 0.2496zm-17.127-154.37c0-4.1222-0.12315-6.7772-0.32-6.8989-0.20955-0.12951-0.32 2.1834-0.32 6.7011 0 4.3859 0.11656 6.8989 0.32 6.8989 0.20315 0 0.32-2.447 0.32-6.7011zm557.47 257.71c0.0154-0.37278 0.0912-0.44861 0.19333-0.19334 0.0924 0.231 0.0811 0.507-0.0253 0.61334-0.10634 0.10633-0.18197-0.0827-0.16807-0.42zm-587.2-4.8c0.01535-0.37278 0.09118-0.44861 0.19333-0.19334 0.09244 0.231 0.08107 0.507-0.02526 0.61334-0.10633 0.10633-0.18196-0.0827-0.16807-0.42zm-0.96-9.92c0.01535-0.37278 0.09118-0.44861 0.19333-0.19334 0.09244 0.231 0.08107 0.507-0.02526 0.61334-0.10633 0.10633-0.18196-0.0827-0.16807-0.42zm-0.32-4.16c0.01535-0.37278 0.09118-0.44861 0.19333-0.19334 0.09244 0.231 0.08107 0.507-0.02526 0.61334-0.10633 0.10633-0.18196-0.0827-0.16807-0.42zm479.84-6.713c-4.8678-0.9668-8.3078-3.3057-16.053-10.914-8.1742-8.0301-10.936-12.815-11.999-20.79-0.68517-5.1382 0.31031-11.632 2.5354-16.539 1.5738-3.471 7.1684-11.607 13.547-19.701 1.0244-1.2999 1.8623-2.4519 1.862-2.56-3.2e-4 -0.1081-3.9963-0.21667-8.88-0.24126-4.8837-0.0246-10.535-0.2095-12.559-0.41092-6.1999-0.617-19.555-3.6015-27.353-6.1128-6.5273-2.1021-12.324-5.1191-17.84-9.285-1.6321-1.2327-3.3274-2.3214-3.7674-2.4195-4.3639-0.97231-6.8329-2.5962-9.76-6.4194-1.056-1.3793-3.1592-3.8038-4.6738-5.3878-5.1394-5.3749-6.8429-7.8779-12.544-18.431-2.0274-3.7526-3.6311-7.1583-4.054-8.6088-0.38485-1.32-1.2569-3.336-1.938-4.48-1.0364-1.7409-1.2956-2.5456-1.5901-4.9365-0.19351-1.5711-0.41681-2.9616-0.49623-3.0901-0.51654-0.83579-0.7868-7.1903-0.46741-10.99 0.79038-9.404 2.8328-15.73 7.2912-22.583 0.97326-1.496 2.3027-3.872 2.9544-5.28 1.0306-2.2269 2.0583-3.5386 7.8976-10.08 7.8694-8.8158 13.524-14.362 16.905-16.582 2.3235-1.5254 3.107-1.8291 10.076-3.9055 1.32-0.39333 4.2-1.6153 6.4-2.7154 4.4676-2.2341 7.2837-3.2028 13.459-4.6298 2.3166-0.5353 6.2902-1.5431 8.8304-2.2396 2.5402-0.69649 7.4518-1.8526 10.915-2.5692 3.4629-0.71659 8.5327-1.9094 11.266-2.6508l4.9699-1.3479 26.24 4e-3 4.16 1.0146c2.288 0.55806 6.8575 1.5322 10.154 2.1648 7.2577 1.3926 10.093 2.3613 16.559 5.6583 12.197 6.2186 15.833 8.7241 22.155 15.268 3.8425 3.9772 5.9474 6.7951 7.2938 9.7645 1.6794 3.7039 3.845 10.5 4.3457 13.637 0.26759 1.6768 0.91068 4.2897 1.4291 5.8066 1.0161 2.9732 1.128 4.7956 0.65579 10.682-0.1431 1.784-0.0743 4.4022 0.18075 6.88 0.62435 6.065 0.56426 8.507-0.23702 9.6323-0.5542 0.7783-0.68668 1.5476-0.80713 4.6873-0.29325 7.6437-2.8367 16.774-6.5302 23.441-1.2236 2.2088-2.4984 4.8112-2.8328 5.7831-1.0747 3.1236-1.9754 4.5002-4.4636 6.8222-1.3402 1.2507-4.0988 3.948-6.13 5.9939-5.2736 5.3118-17.46 14.27-23.873 17.55-1.3894 0.71054-5.0494 2.1038-8.1334 3.0962-3.084 0.99237-6.8312 2.3505-8.3272 3.018s-4.952 2.1066-7.68 3.1979c-2.728 1.0913-5.968 2.4845-7.2 3.0959-5.015 2.4888-10.336 6.6738-9.5218 7.4884 0.56242 0.56242-0.40358 2.1946-5.6848 9.6052-4.469 6.2709-4.7235 6.7094-4.921 8.4807-0.11457 1.0273-0.36632 3.107-0.55945 4.6214-0.19312 1.5144-0.29281 4.2054-0.22154 5.9799 0.12772 3.1799 0.15581 3.2787 1.9469 6.8465 3.2223 6.4188 6.4668 9.897 11.602 12.437 4.5414 2.2467 6.7167 2.6544 14.24 2.6688 5.0255 0.01 7.2207-0.11941 9.3844-0.55166 6.2843-1.2554 11.299-3.7547 15.595-7.772 2.5795-2.4123 2.6223-2.4364 4.0416-2.2764 0.78899 0.0889 1.602 0.3298 1.8067 0.53526 0.24261 0.24351 0.37558 1.7879 0.38197 4.4362 5e-3 2.2344 0.121 4.2412 0.25692 4.4594 0.17463 0.28041-0.90778 0.9348-3.6898 2.2308-2.1653 1.0087-4.8009 2.3039-5.8569 2.8784-5.0778 2.7622-6.7244 3.3705-14.188 5.2411-6.9518 1.7423-7.8209 1.8906-10.922 1.8629-1.8533-0.0165-4.3654-0.22784-5.5825-0.46957zm1.0453-80.178c8.1805-1.8489 21.585-5.4946 25.59-6.9598 6.4427-2.3569 19.354-10.435 25.497-15.952 3.0134-2.7063 5.4231-5.6394 8.6936-10.582 5.3614-8.102 6.3929-10.395 7.9487-17.669 1.4696-6.8711 1.9999-10.748 2.3851-17.44 0.18238-3.168 0.40478-6.847 0.49422-8.1757 0.38203-5.6752-1.3941-16.771-3.9016-24.375-1.8996-5.76-3.5773-8.2965-9.853-14.897-2.7831-2.927-3.7324-3.6538-10.021-7.671-10.741-6.8617-13.916-8.4164-19.746-9.6683-1.76-0.37789-5.36-1.2522-8-1.943-6.75-1.7661-10.533-2.2006-24.898-2.8591l-6.6577-0.30523-7.5823 1.7382c-4.1703 0.95603-9.3823 2.0391-11.582 2.4068-9.0523 1.5131-16.198 3.3323-25.903 6.5946-5.5876 1.8783-8.2889 3.1066-11.847 5.3872-3.0712 1.9686-5.0683 2.9378-7.3752 3.5792-1.8822 0.52331-2.2807 0.83187-7.7963 6.0376-6.2404 5.8898-8.6761 8.7063-14.244 16.47-5.3827 7.5059-8.3453 13.826-9.3002 19.84-0.49657 3.1273-0.40214 8.5235 0.20505 11.718 0.29709 1.563 0.50474 3.7549 0.46146 4.8708-0.0787 2.0284-0.0779 2.0304 3.7467 9.28 2.104 3.9881 4.4013 8.4031 5.1052 9.8111 2.8206 5.6419 6.4916 10.531 13.582 18.088 4.2118 4.489 6.8457 6.8783 9.2455 8.3871 2.4241 1.524 14.456 6.1008 28.279 10.757 12.329 4.1532 14.765 4.5596 28.96 4.8321 6.072 0.11654 11.091 0.23974 11.152 0.27377 0.0619 0.034 3.3739-0.67527 7.36-1.5762zm11.888-38.817c-4.0304-0.46293-5.9282-0.81288-10.653-1.9644-2.7032-0.65882-3.5376-1.0377-6.08-2.761-3.4915-2.3666-8.9071-7.7006-10.42-10.263-3.4661-5.87-4.0748-12.085-1.9792-20.209 0.81453-3.1576 3.2605-8.271 5.3859-11.26 2.2226-3.1252 6.5384-7.6158 8.7869-9.1427 4.2754-2.9033 14.673-6.9494 18.532-7.2112 2.0559-0.13951 2.3282-0.0635 7.6329 2.1292 3.0255 1.2506 6.6347 2.7111 8.0205 3.2455 4.3574 1.6804 6.8597 3.9126 10.55 9.411 2.1186 3.1569 3.0697 5.7014 3.495 9.3506 0.18008 1.5451 0.46999 4.0334 0.64425 5.5294 0.17427 1.496 0.52981 3.872 0.79011 5.28s0.47829 3.74 0.48443 5.1823c0.01 2.3136-0.11681 2.9031-1.0761 5.0081-2.6979 5.9201-5.4226 9.4511-9.0708 11.755-2.6284 1.66-8.0773 4.2314-11.282 5.324-2.9607 1.0095-8.1867 1.2356-13.76 0.59551zm10.999-8.987c3.6344-0.63378 6.4588-1.7973 9.819-4.0448 6.4343-4.3038 7.6299-8.5496 5.9481-21.123-0.4669-3.4906-1.0241-6.4141-1.3418-7.04-1.7794-3.5058-5.9208-7.2085-10.589-9.468-2.1666-1.0486-4.5714-1.8212-9.2766-2.9807-7.0848-1.7458-7.1646-1.7456-10.754 0.032-3.3222 1.6453-6.4388 4.1047-8.848 6.9822l-1.2966 1.5487 2.24-0.65966c2.2313-0.65709 2.2447-0.65721 3.4298-0.0324 1.8397 0.97005 5.2918 4.5976 6.2617 6.5798 2.6074 5.3292 1.5718 10.705-2.9467 15.297-1.1687 1.1876-3.5571 3.4824-5.3075 5.0996l-3.1826 2.9403 1.1026 0.93932c2.6216 2.2334 7.7328 4.286 13.53 5.4334 5.5614 1.1007 7.3046 1.1779 11.212 0.49649zm-89.41 2.4628c-2.7612-0.91814-7.9149-4.1549-10.152-6.3758-1.1051-1.0972-2.4134-2.2038-2.9074-2.4593-1.2262-0.63411-3.1267-2.7945-3.7464-4.2588-0.28099-0.66392-1.1024-3.7991-1.8254-6.9671-1.0693-4.6855-1.3186-6.3868-1.3364-9.12-0.0363-5.5764 1.0875-7.769 7.5015-14.636 7.516-8.0465 11.531-9.8204 25.216-11.142 6.7209-0.64895 8.8156-0.42229 13.682 1.4805 7.5688 2.9593 12.331 7.6344 14.378 14.116 0.42728 1.3526 1.3607 4.682 2.0742 7.3987l1.2974 4.9395-1.4569 5.3664c-2.5047 9.2257-3.8172 11.842-7.8467 15.644-3.5233 3.3237-5.6578 4.2082-11.32 4.6909-2.1272 0.18135-6.0997 0.60299-8.8277 0.93699-7.9364 0.97166-12.601 1.0938-14.731 0.38569zm20.822-8.3771c3.009-0.34711 6.7052-1.4858 8.7912-2.7082 2.7344-1.6025 4.551-4.4922 5.5997-8.9078 1.5171-6.3878 1.3998-11.811-0.33626-15.545-1.6675-3.5872-8.7413-10.201-12.357-11.554-3.0023-1.1233-12.178-0.93921-17.229 0.34571-1.5095 0.38401-9.12 4.1139-9.12 4.4697 0 0.13468 0.73314 0.48839 1.6292 0.78601 1.9062 0.63314 3.4006 1.8624 5.1609 4.2452 0.69749 0.94415 2.1084 2.6438 3.1354 3.777 2.9073 3.2081 3.781 7.1452 2.309 10.405-0.6172 1.367-4.6976 5.5786-9.759 10.073l-2.1646 1.922 2.6446 1.4167c1.5342 0.82186 3.3164 1.5119 4.2446 1.6433 2.0587 0.29151 13.898 0.0418 17.451-0.36805zm-435.14 131.52c0-0.616 0.06585-0.868 0.14634-0.56 0.08049 0.308 0.08049 0.812 0 1.12s-0.14634 0.056-0.14634-0.56zm586.22-0.32c0-0.44 0.0726-0.62 0.1614-0.4s0.0888 0.58 0 0.8-0.1614 0.04-0.1614-0.4zm-0.34526-4.0267c0.0154-0.37278 0.0912-0.44861 0.19333-0.19334 0.0924 0.231 0.0811 0.507-0.0253 0.61334-0.10634 0.10633-0.18197-0.0827-0.16807-0.42zm-585.86-2.3733c0-0.792 0.0624-1.116 0.13868-0.72 0.07627 0.396 0.07627 1.044 0 1.44s-0.13868 0.072-0.13868-0.72zm-0.35663-7.36c0-0.44 0.07263-0.62 0.1614-0.4 0.08877 0.22 0.08877 0.58 0 0.8s-0.1614 0.04-0.1614-0.4zm-0.28983-9.12c0.0036-0.704 0.06908-0.95432 0.14562-0.55627 0.07654 0.39806 0.07364 0.97406-0.0065 1.28-0.08009 0.30595-0.14272-0.0197-0.13917-0.72373zm584.58-0.66666c0.0154-0.37278 0.0912-0.44861 0.19333-0.19334 0.0924 0.231 0.0811 0.507-0.0253 0.61334-0.10634 0.10633-0.18197-0.0827-0.16807-0.42zm-0.32-4.8c0.0154-0.37278 0.0912-0.44861 0.19333-0.19334 0.0924 0.231 0.0811 0.507-0.0253 0.61334-0.10634 0.10633-0.18197-0.0827-0.16807-0.42zm-584.32-1.92c0.01535-0.37278 0.09118-0.44861 0.19333-0.19334 0.09244 0.231 0.08107 0.507-0.02526 0.61334-0.10633 0.10633-0.18196-0.0827-0.16807-0.42zm0.64-10.88c0.01535-0.37278 0.09118-0.44861 0.19333-0.19334 0.09244 0.231 0.08107 0.507-0.02526 0.61334-0.10633 0.10633-0.18196-0.0827-0.16807-0.42zm-0.29474-4.2933c0-0.44 0.07263-0.62 0.1614-0.4 0.08877 0.22 0.08877 0.58 0 0.8s-0.1614 0.04-0.1614-0.4zm582.4-4.16c0-0.44 0.0726-0.62 0.1614-0.4s0.0888 0.58 0 0.8-0.1614 0.04-0.1614-0.4zm-582.7-8c0-0.616 0.06585-0.868 0.14634-0.56 0.08049 0.308 0.08049 0.812 0 1.12s-0.14634 0.056-0.14634-0.56zm579.18-31.36c0-0.44 0.0726-0.62 0.1614-0.4s0.0888 0.58 0 0.8-0.1614 0.04-0.1614-0.4zm-579.15-5.6c0.0018-1.056 0.06154-1.4494 0.13276-0.87427 0.07122 0.57516 0.06975 1.4392-0.0033 1.92-0.07302 0.48085-0.13129 0.0103-0.12949-1.0457zm578.81 0.29334c0.0154-0.37279 0.0912-0.44861 0.19333-0.19334 0.0924 0.231 0.0811 0.507-0.0253 0.61334-0.10634 0.10633-0.18197-0.0827-0.16807-0.42zm-0.32-4.48c0.0154-0.37279 0.0912-0.44861 0.19333-0.19334 0.0924 0.231 0.0811 0.507-0.0253 0.61334-0.10634 0.10633-0.18197-0.0827-0.16807-0.42zm-578.24-2.56c0.01535-0.37279 0.09118-0.44861 0.19333-0.19334 0.09244 0.231 0.08107 0.507-0.02526 0.61334-0.10633 0.10633-0.18196-0.0827-0.16807-0.42zm577.92-1.28c0.0154-0.37279 0.0912-0.44861 0.19333-0.19334 0.0924 0.231 0.0811 0.507-0.0253 0.61334-0.10634 0.10633-0.18197-0.0827-0.16807-0.42zm-577.28-5.44c0.01535-0.37279 0.09118-0.44861 0.19333-0.19334 0.09244 0.231 0.08107 0.507-0.02526 0.61334-0.10633 0.10633-0.18196-0.0827-0.16807-0.42zm576.64-1.92c0.0154-0.37279 0.0912-0.44861 0.19333-0.19334 0.0924 0.231 0.0811 0.507-0.0253 0.61334-0.10634 0.10633-0.18197-0.0827-0.16807-0.42zm-576.28-2.5333c0.0065-0.528 0.07824-0.70526 0.15937-0.39391 0.08113 0.31135 0.0758 0.74335-0.01186 0.96-0.08765 0.21665-0.15404-0.0381-0.14752-0.56609zm575.96-1.3067c0.0153-0.37279 0.0912-0.44861 0.19333-0.19334 0.0924 0.231 0.0811 0.507-0.0253 0.61334-0.10634 0.10633-0.18197-0.0827-0.16807-0.42zm-0.32-4.48c0.0154-0.37279 0.0912-0.44861 0.19333-0.19334 0.0924 0.231 0.0811 0.507-0.0253 0.61334-0.10634 0.10633-0.18197-0.0827-0.16807-0.42zm-575.62-1.2533c0.0036-0.704 0.06908-0.95432 0.14562-0.55627 0.07654 0.39806 0.07364 0.97406-0.0065 1.28-0.08009 0.30595-0.14272-0.0197-0.13917-0.72373zm575.33-3.68c0-0.44 0.0726-0.62 0.1614-0.4s0.0888 0.58 0 0.8-0.1614 0.04-0.1614-0.4zm-2.5853-23.227c0.0154-0.37279 0.0912-0.44861 0.19333-0.19334 0.0924 0.231 0.0811 0.507-0.0253 0.61334-0.10634 0.10633-0.18197-0.0827-0.16807-0.42zm-573.73-9.4133c0-0.44 0.07263-0.62 0.1614-0.4 0.08877 0.22 0.08877 0.58 0 0.8s-0.1614 0.04-0.1614-0.4zm571.17-4.3467c0.0154-0.37279 0.0912-0.44861 0.19333-0.19334 0.0924 0.231 0.0811 0.507-0.0253 0.61334-0.10634 0.10633-0.18197-0.0827-0.16807-0.42zm-0.32-3.52c0.0154-0.37279 0.0912-0.44861 0.19333-0.19334 0.0924 0.231 0.0811 0.507-0.0253 0.61334-0.10634 0.10633-0.18197-0.0827-0.16807-0.42zm-570.85-3.9733c0-0.44 0.07263-0.62 0.1614-0.4 0.08877 0.22 0.08877 0.58 0 0.8s-0.1614 0.04-0.1614-0.4zm-0.02526-14.267c0.01535-0.37279 0.09118-0.44861 0.19333-0.19334 0.09244 0.231 0.08107 0.507-0.02526 0.61334-0.10633 0.10633-0.18196-0.0827-0.16807-0.42zm-0.32-4.48c0.01535-0.37279 0.09118-0.44861 0.19333-0.19334 0.09244 0.231 0.08107 0.507-0.02526 0.61334-0.10633 0.10633-0.18196-0.0827-0.16807-0.42zm-0.32-4.48c0.01535-0.37279 0.09118-0.44861 0.19333-0.19334 0.09244 0.231 0.08107 0.507-0.02526 0.61334-0.10633 0.10633-0.18196-0.0827-0.16807-0.42zm-0.21244-13.573c0-3.256 0.04752-4.588 0.1056-2.96 0.05808 1.628 0.05808 4.292 0 5.92s-0.1056 0.296-0.1056-2.96zm-0.0413-18.08c0.0024-0.88 0.06455-1.202 0.1381-0.7156 0.07355 0.48642 0.07159 1.2064-0.0044 1.6-0.07596 0.39358-0.13614-4e-3 -0.13373-0.8844zm-0.361-6.88c0-0.44 0.07263-0.62 0.1614-0.4 0.08877 0.22 0.08877 0.58 0 0.8s-0.1614 0.04-0.1614-0.4zm-0.24721-9.92c0-2.2 0.05113-3.1 0.11361-2 0.06249 1.1 0.06249 2.9 0 4s-0.11361 0.2-0.11361-2zm0.30169-20c0.0014-1.232 0.05926-1.6968 0.12853-1.0329 0.06927 0.66392 0.06811 1.6719-0.0026 2.24-0.07069 0.56807-0.12737 0.0249-0.12595-1.2071zm494.55-1.6586c0.231-0.0924 0.507-0.0811 0.61334 0.0253 0.10633 0.10633-0.0827 0.18196-0.42 0.16807-0.37278-0.0154-0.44861-0.0912-0.19334-0.19333zm-4.48-0.32c0.231-0.0924 0.507-0.0811 0.61334 0.0253 0.10633 0.10633-0.0827 0.18196-0.42 0.16807-0.37278-0.0154-0.44861-0.0912-0.19334-0.19333zm-10.42-0.33662c0.836-0.0659 2.204-0.0659 3.04 0s0.152 0.11985-1.52 0.11985-2.356-0.0539-1.52-0.11985zm-31.642-4.8848c0-1.848 0.0529-2.604 0.11753-1.68 0.0646 0.924 0.0646 2.436 0 3.36s-0.11753 0.168-0.11753-1.68zm-0.0269-10.4c2e-3 -0.88 0.0645-1.202 0.1381-0.7156s0.0716 1.2064-4e-3 1.6c-0.0759 0.39358-0.13613-4e-3 -0.13373-0.8844zm-1.321-11.68c0-0.44 0.0726-0.62 0.1614-0.4s0.0888 0.58 0 0.8-0.1614 0.04-0.1614-0.4zm-203.41-6.414c-4.0041-0.72827-7.512-0.97131-18.56-1.2859-14.665-0.41761-15.411-0.50862-17.362-2.119-0.81369-0.67161-1.6804-1.3721-1.9259-1.5567-0.37406-0.28114-0.33196-0.52976 0.25944-1.5321 0.67082-1.137 0.68837-1.3432 0.35246-4.1444-0.19442-1.6213-0.58759-6.2599-0.87371-10.308-0.50227-7.106-0.49543-7.8819 0.1981-22.484l0.71833-15.124-0.89025-2.6198c-0.48964-1.4409-0.87913-3.0109-0.86553-3.489 0.042-1.4762 0.90864-2.7256 2.268-3.2695 1.1824-0.47312 1.63-0.45399 6.9723 0.29802 6.9047 0.97194 18.588 1.3718 23.703 0.81118 5.0056-0.54871 5.9216-0.25991 8.7368 2.7546 2.6543 2.8422 3.0119 3.4576 3.4796 5.9876 0.67833 3.6694 0.32128 7.2149-1.4839 14.735-1.1823 4.925-1.1774 11.685 0.0141 19.68 0.77887 5.2261 2.617 16.639 3.0042 18.652 0.24402 1.269-0.47954 3.5749-1.3902 4.4305-0.89075 0.83681-3.5953 1.085-6.3544 0.58319zm-7.6138-9.0594c3.9084-0.21579 7.2051-0.49119 7.3259-0.61202 0.26275-0.26275-0.2964-5.1405-0.99897-8.7145-0.68556-3.4875-0.97448-15.452-0.49841-20.64 0.62193-6.7777 0.76173-10.871 0.51639-15.12l-0.23558-4.08h-28.268l-0.87479 4.08c-2.1501 10.028-2.8398 17.818-2.1831 24.658 0.21455 2.2343 0.41718 6.5103 0.45028 9.5023 0.0596 5.3897 0.069 5.456 1.0158 7.1655 0.99467 1.796 2.4369 2.9795 4.5492 3.733 1.5505 0.55308 9.4824 0.56469 19.201 0.0281zm210.72 7.3134c7e-3 -0.528 0.0782-0.70526 0.15937-0.39391 0.0811 0.31135 0.0758 0.74335-0.0119 0.96-0.0876 0.21665-0.15403-0.0381-0.14751-0.56609zm-298.46-1.3197c-5.3334-0.61044-11.617-0.66512-17.295-0.15051-3.1044 0.28133-7.3118 0.38526-11.842 0.2925-6.7157-0.13751-7.1044-0.18016-8.7848-0.96373-0.96695-0.45092-2.5458-1.5354-3.5084-2.4099l-1.7503-1.59-0.0501-5.5694c-0.0396-4.398-0.2548-6.9154-1.0232-11.969-0.95875-6.3059-0.97462-6.615-1.0795-21.024l-0.10646-14.624 1.2744-1.3057c1.8593-1.9049 3.3372-2.2542 7.3656-1.7408 11.91 1.5179 17.567 1.4427 28.458-0.37854 5.0354-0.84202 9.2606-1.0182 11.293-0.47087 2.2662 0.61022 4.0956 2.0471 5.0251 3.947 0.83818 1.7132 0.85184 1.8418 0.70825 6.6719-0.22308 7.5041-1.1071 24.63-1.4844 28.757-0.18463 2.0194-0.29818 5.9794-0.25233 8.8 0.0459 2.8206-0.11945 7.1803-0.36732 9.6883l-0.45068 4.56-1.145-0.0401c-0.62974-0.022-2.873-0.23786-4.985-0.47959zm-18.14-8.7982c5.8727-0.296 8.4674-0.29061 12.197 0.0253 5.1343 0.43497 5.9764 0.29491 6.2331-1.0367 0.2284-1.1848 0.84331-27.383 0.83671-35.648-5e-3 -6.814-0.0703-7.8013-0.54378-8.2747-0.47946-0.47947-1.2667-0.5214-7.28-0.38775-6.1131 0.13587-7.0411 0.23247-9.9424 1.035-2.7548 0.76203-4.0258 0.91297-9.1351 1.0849-6.9927 0.23529-7.248 0.33208-8.3063 3.1495-1.6391 4.3635-1.892 9.8122-0.93252 20.09 0.31026 3.3233 2.6376 16.816 3.2156 18.643 0.48461 1.5316 1.6156 2.0401 4.1183 1.8515 1.144-0.0862 5.4368-0.32591 9.5396-0.53271zm210.62 7.5445c-3.437-0.69694-4.4512-0.74796-15.36-0.77277-12.389-0.0282-14.175-0.16326-19.568-1.4794-3.6912-0.90091-5.1726-1.8842-5.1008-3.3855 0.0197-0.41198 0.0997-7.805 0.17786-16.429 0.0781-8.624 0.31032-19.496 0.516-24.16l0.37397-8.48-1.3245-1.9915c-1.43-2.1501-1.9551-3.2966-1.9551-4.2684 0-0.89851 1.9008-2.8521 4.0153-4.1268 2.0994-1.2656 0.80686-1.1896 14.545-0.85495 11.364 0.27684 15.415-0.16244 19.847-2.1523 0.37701-0.16926 0.77419 0.43691 1.7537 2.6764 1.072 2.451 1.4389 2.9798 2.391 3.4464 1.6433 0.80532 1.916 1.9005 0.99414 3.9934-1.5764 3.5792-1.5818 3.6186-1.593 11.779-0.0109 7.9739 0.59467 16.9 1.4098 20.779 0.2404 1.144 0.73599 3.52 1.1013 5.28 0.36531 1.76 1.1078 4.8315 1.6499 6.8256 1.0724 3.9444 1.2985 7.1246 0.64523 9.0736-0.38169 1.1387-0.31589 1.7541 0.48124 4.5008 0.21047 0.72522-0.30309 0.6992-5.0006-0.25334zm-13.44-8.9102c0.98489-0.29862 2.4099-0.38573 4.5088-0.27561 2.5602 0.13433 3.2095 0.0688 3.9177-0.39523 1.6131-1.057 1.6434-2.0095 0.37621-11.846-1.8384-14.271-2.0696-17.231-2.0764-26.59-6e-3 -8.4142-0.0263-8.6884-0.68224-9.28-0.63542-0.57307-1.2442-0.60661-10.16-0.55965-12.599 0.0664-12.821 0.14987-13.469 5.07-0.22858 1.7352-0.65376 3.1689-1.3196 4.4499-2.1199 4.0781-2.8932 17.508-1.7704 30.747 0.28345 3.3422 0.51537 6.2414 0.51537 6.4427 0 0.56239 1.0731 0.76644 5.76 1.0953 2.376 0.16671 5.4 0.58098 6.72 0.9206 2.8646 0.73701 5.7084 0.81886 7.68 0.22104zm119.09 5.2436c0-0.44 0.0726-0.62 0.1614-0.4s0.0888 0.58 0 0.8-0.1614 0.04-0.1614-0.4zm-0.34526-5.3067c0.0154-0.37278 0.0912-0.4486 0.19333-0.19333 0.0924 0.231 0.0811 0.507-0.0253 0.61333-0.10634 0.10634-0.18197-0.0827-0.16807-0.42zm-445.34-5.4133c4.05e-4 -2.816 0.04936-3.9252 0.10879-2.4648 0.05943 1.4604 0.0591 3.7644-7.36e-4 5.12-0.05983 1.3556-0.10846 0.1608-0.10805-2.6552zm445.02 0.93333c0.0154-0.37278 0.0912-0.4486 0.19333-0.19333 0.0924 0.231 0.0811 0.507-0.0253 0.61333-0.10634 0.10634-0.18197-0.0827-0.16807-0.42zm-0.32-4.16c0.0154-0.37278 0.0912-0.4486 0.19333-0.19333 0.0924 0.231 0.0811 0.507-0.0253 0.61333-0.10634 0.10634-0.18197-0.0827-0.16807-0.42zm-0.32-4.48c0.0154-0.37278 0.0912-0.4486 0.19333-0.19333 0.0924 0.231 0.0811 0.507-0.0253 0.61333-0.10634 0.10634-0.18197-0.0827-0.16807-0.42zm-0.32-4.8c0.0154-0.37278 0.0912-0.4486 0.19333-0.19333 0.0924 0.231 0.0811 0.507-0.0253 0.61333-0.10634 0.10634-0.18197-0.0827-0.16807-0.42zm-443.81-1.0933c0-0.44 0.07263-0.62 0.1614-0.4 0.08877 0.22 0.08877 0.58 0 0.8s-0.1614 0.04-0.1614-0.4zm443.49-3.7067c0.0154-0.37278 0.0912-0.4486 0.19333-0.19333 0.0924 0.231 0.0811 0.507-0.0253 0.61333-0.10634 0.10634-0.18197-0.0827-0.16807-0.42zm-443.2-1.28c0.01535-0.37278 0.09118-0.4486 0.19333-0.19333 0.09244 0.231 0.08107 0.507-0.02526 0.61333-0.10633 0.10634-0.18196-0.0827-0.16807-0.42zm442.91-3.6533c0-0.44 0.0726-0.62 0.1614-0.4s0.0888 0.58 0 0.8-0.1614 0.04-0.1614-0.4zm-442.59-1.1467c0.01535-0.37278 0.09118-0.4486 0.19333-0.19333 0.09244 0.231 0.08107 0.507-0.02526 0.61333-0.10633 0.10634-0.18196-0.0827-0.16807-0.42zm442.27-4.6133c0-0.44 0.0726-0.62 0.1614-0.4s0.0888 0.58 0 0.8-0.1614 0.04-0.1614-0.4zm-441.85-4.48c0-1.848 0.05289-2.604 0.11753-1.68 0.06464 0.924 0.06464 2.436 0 3.36s-0.11753 0.168-0.11753-1.68zm442.57-13.76c0-2.904 0.0485-4.092 0.10781-2.64 0.0593 1.452 0.0593 3.828 0 5.28s-0.10781 0.264-0.10781-2.64zm-442.35 1.4133c0.01535-0.37278 0.09118-0.4486 0.19333-0.19333 0.09244 0.231 0.08107 0.507-0.02526 0.61333-0.10633 0.10634-0.18196-0.0827-0.16807-0.42zm1.28-11.2c0.01535-0.37278 0.09118-0.4486 0.19333-0.19333 0.09244 0.231 0.08107 0.507-0.02526 0.61333-0.10633 0.10634-0.18196-0.0827-0.16807-0.42zm440.67-12.293c0-0.44 0.0726-0.62 0.1614-0.4s0.0888 0.58 0 0.8-0.1614 0.04-0.1614-0.4zm-0.0253-2.1067c0.0153-0.37278 0.0912-0.4486 0.19333-0.19333 0.0924 0.231 0.0811 0.507-0.0253 0.61333-0.10634 0.10634-0.18197-0.0827-0.16807-0.42zm-416.74-1.328c0.75265-0.0676 1.9047-0.0666 2.56 2e-3 0.65535 0.0688 0.03954 0.12406-1.3685 0.1229-1.408-1e-3 -1.9442-0.0574-1.1915-0.12502zm-9.1285-0.30586c0.308-0.0805 0.812-0.0805 1.12 0s0.056 0.14634-0.56 0.14634-0.868-0.0659-0.56-0.14634zm17.46 2e-3c0.231-0.0924 0.507-0.0811 0.61333 0.0253 0.10633 0.10633-0.08267 0.18196-0.42 0.16807-0.37278-0.0154-0.44861-0.0912-0.19333-0.19334zm4.8-0.32c0.231-0.0924 0.507-0.0811 0.61333 0.0253 0.10633 0.10633-0.08267 0.18196-0.42 0.16807-0.37278-0.0154-0.44861-0.0912-0.19333-0.19334zm4.16-0.32c0.231-0.0924 0.507-0.0811 0.61333 0.0253 0.10633 0.10633-0.08267 0.18196-0.42 0.16807-0.37278-0.0154-0.44861-0.0912-0.19333-0.19334zm4.16-0.32c0.231-0.0924 0.507-0.0811 0.61333 0.0253 0.10634 0.10633-0.0827 0.18196-0.42 0.16807-0.37278-0.0154-0.4486-0.0912-0.19333-0.19334zm3.84-0.32c0.231-0.0924 0.507-0.0811 0.61333 0.0253 0.10634 0.10633-0.0827 0.18196-0.42 0.16807-0.37278-0.0154-0.4486-0.0912-0.19333-0.19334zm3.84-0.32c0.231-0.0924 0.507-0.0811 0.61333 0.0253 0.10634 0.10633-0.0827 0.18196-0.42 0.16807-0.37278-0.0154-0.4486-0.0912-0.19333-0.19334zm3.84-0.32c0.231-0.0924 0.507-0.0811 0.61333 0.0253 0.10634 0.10633-0.0827 0.18196-0.42 0.16807-0.37278-0.0154-0.4486-0.0912-0.19333-0.19334zm7.68-0.64c0.231-0.0924 0.507-0.0811 0.61333 0.0253 0.10634 0.10633-0.0827 0.18196-0.42 0.16807-0.37278-0.0154-0.4486-0.0912-0.19333-0.19334zm8.3-0.63333c0.22-0.0888 0.58-0.0888 0.8 0s0.04 0.1614-0.4 0.1614-0.62-0.0726-0.4-0.1614zm6.88-0.32865c0.308-0.0805 0.812-0.0805 1.12 0s0.056 0.14634-0.56 0.14634-0.868-0.0658-0.56-0.14634zm6.56-0.31135c0.22-0.0888 0.58-0.0888 0.8 0s0.04 0.1614-0.4 0.1614-0.62-0.0726-0.4-0.1614zm64.008-0.0228c0.75265-0.0676 1.9046-0.0666 2.56 2e-3 0.65535 0.0688 0.0395 0.12406-1.3685 0.1229-1.408-1e-3 -1.9442-0.0574-1.1915-0.12502zm-8.0085-0.29722c0.22-0.0888 0.58-0.0888 0.8 0s0.04 0.1614-0.4 0.1614-0.62-0.0726-0.4-0.1614zm21.764-0.0144c0.39805-0.0765 0.97405-0.0736 1.28 6e-3 0.30595 0.0801-0.0197 0.14271-0.72373 0.13916-0.704-4e-3 -0.95432-0.0691-0.55627-0.14562zm-26.564-0.3056c0.22-0.0888 0.58-0.0888 0.8 0s0.04 0.1614-0.4 0.1614-0.62-0.0726-0.4-0.1614zm34.726-0.01c0.31135-0.0811 0.74335-0.0758 0.96 0.0119s-0.0381 0.15404-0.56609 0.14752c-0.528-7e-3 -0.70526-0.0782-0.39391-0.15938zm-40-0.32c0.31135-0.0811 0.74335-0.0758 0.96 0.0119s-0.0381 0.15404-0.56609 0.14752c-0.528-7e-3 -0.70526-0.0782-0.39391-0.15938zm48.158-5e-3c0.39805-0.0765 0.97405-0.0736 1.28 6e-3 0.30595 0.0801-0.0197 0.14271-0.72373 0.13916-0.704-4e-3 -0.95432-0.0691-0.55627-0.14562zm-62.72-0.32c0.39805-0.0765 0.97405-0.0736 1.28 6e-3 0.30595 0.0801-0.0197 0.14271-0.72373 0.13916-0.704-4e-3 -0.95432-0.0691-0.55627-0.14562zm74.716-0.00227c0.484-0.0733 1.276-0.0733 1.76 0s0.088 0.13331-0.88 0.13331-1.364-0.06-0.88-0.13331zm-86.872-0.32552c0.75265-0.0676 1.9046-0.0667 2.56 2e-3 0.65535 0.0688 0.0395 0.12406-1.3685 0.1229-1.408-1e-3 -1.9442-0.0574-1.1915-0.12502zm100.31 6e-3c0.484-0.0733 1.276-0.0733 1.76 0s0.088 0.13331-0.88 0.13331-1.364-0.06-0.88-0.13331zm13.926-0.32271c0.57515-0.0712 1.4392-0.0697 1.92 3e-3 0.48085 0.073 0.0103 0.13129-1.0457 0.12949-1.056-2e-3 -1.4494-0.0615-0.87427-0.13275zm14.4-0.32c0.57515-0.0712 1.4392-0.0697 1.92 3e-3 0.48085 0.073 0.0103 0.13129-1.0457 0.12949-1.056-2e-3 -1.4494-0.0615-0.87427-0.13275zm66.554 0.02c0.22-0.0888 0.58-0.0888 0.8 0s0.04 0.1614-0.4 0.1614-0.62-0.0726-0.4-0.1614zm8 0c0.22-0.0888 0.58-0.0888 0.8 0s0.04 0.1614-0.4 0.1614-0.62-0.0726-0.4-0.1614zm-59.514-0.33998c0.57516-0.0712 1.4392-0.0697 1.92 3e-3 0.48085 0.073 0.0103 0.13129-1.0457 0.12949-1.056-2e-3 -1.4494-0.0615-0.87427-0.13275zm45.92 0.0101c0.31135-0.0811 0.74335-0.0758 0.96 0.0119s-0.0381 0.15404-0.56609 0.14752c-0.528-7e-3 -0.70526-0.0782-0.39391-0.15938zm20.974-0.31729c0.231-0.0924 0.507-0.0811 0.61334 0.0253 0.10633 0.10633-0.0827 0.18196-0.42 0.16807-0.37279-0.0154-0.44861-0.0912-0.19334-0.19334zm3.84-0.32c0.231-0.0924 0.507-0.0811 0.61334 0.0253 0.10633 0.10633-0.0827 0.18196-0.42 0.16807-0.37279-0.0154-0.44861-0.0912-0.19334-0.19334zm8.1444-0.33102c0.48642-0.0736 1.2064-0.0716 1.6 4e-3 0.39358 0.076-4e-3 0.13614-0.8844 0.13374-0.88-2e-3 -1.202-0.0645-0.7156-0.1381zm17.287-0.3272c1.0184-0.0637 2.6024-0.0631 3.52 1e-3 0.91757 0.0644 0.0843 0.11653-1.8517 0.11581-1.936-7.2e-4 -2.6867-0.0534-1.6683-0.11712zm42.068-0.29511c0.22-0.0888 0.58-0.0888 0.8 0s0.04 0.1614-0.4 0.1614-0.62-0.0726-0.4-0.1614zm6.2461-0.32983c0.31135-0.0811 0.74335-0.0758 0.96 0.0119s-0.0381 0.15404-0.56609 0.14752c-0.528-7e-3 -0.70526-0.0782-0.39391-0.15938zm6.2339-0.31017c0.22-0.0888 0.58-0.0888 0.8 0s0.04 0.1614-0.4 0.1614-0.62-0.0726-0.4-0.1614zm6.08-0.32c0.22-0.0888 0.58-0.0888 0.8 0s0.04 0.1614-0.4 0.1614-0.62-0.0726-0.4-0.1614zm5.76-0.32c0.22-0.0888 0.58-0.0888 0.8 0s0.04 0.1614-0.4 0.1614-0.62-0.0726-0.4-0.1614zm5.46-0.32667c0.231-0.0924 0.507-0.0811 0.61334 0.0253 0.10633 0.10633-0.0827 0.18196-0.42 0.16807-0.37279-0.0154-0.44861-0.0912-0.19334-0.19334z" fill="#f6d900"/></g></g></svg>
