<?xml version="1.0" encoding="UTF-8"?>
<svg width="591.95" height="591.95" version="1.1" viewBox="0 0 591.95 591.95" xmlns="http://www.w3.org/2000/svg"><g transform="translate(-51.236 -143.36)"><g transform="translate(0 69.806)"><path d="m72.32 595.31c-10.326-0.7195-13.09-1.6762-18.717-6.4788-3.0591-2.6109-3.0911-2.9947-0.45207-5.4292l1.951-1.7998 0.28426-2.4c0.15634-1.32 0.3762-5.064 0.48858-8.32 0.1712-4.9603 0.08567-7.0353-0.5276-12.8-0.59348-5.5786-0.74264-8.938-0.78858-17.76-0.03116-5.984-0.22889-14.894-0.4394-19.799-0.30774-7.1714-0.30206-9.5543 0.029-12.16 0.50295-3.9586 0.49752-6.9673-0.03995-22.121-0.57051-16.085-0.29916-44.133 0.4907-50.72 0.42518-3.5459 0.56448-7.3941 0.59075-16.32 0.01891-6.424 0.15221-13.192 0.29623-15.04 0.20774-2.6657 0.10671-4.914-0.48889-10.88-0.67589-6.7702-0.74217-8.8281-0.66483-20.64 0.06191-9.4548-0.05007-14.908-0.40086-19.52-0.33198-4.3648-0.48751-10.936-0.48909-20.664-0.0013-7.845-0.1541-16.845-0.3396-20-0.5132-8.7286 0.17074-95.266 0.82557-104.46 0.26961-3.784 0.61998-11.776 0.7786-17.76 0.21244-8.0142 0.47113-12.229 0.98213-16 0.88557-6.5359 0.77397-9.6428-0.42899-11.943-1.3334-2.5501-1.0531-5.669 0.64529-7.1804 1.1631-1.035 6.6619-1.3407 16.874-0.93791 10.342 0.4079 13.113 0.2753 38.74-1.8542 8.448-0.70199 18.528-1.42 22.4-1.5955 9.1773-0.41599 11.107-0.56799 15.52-1.2226 5.0211-0.74481 32.201-0.66482 43.68 0.12854 8.6133 0.5953 21.51 0.65233 32.16 0.14223 7.1508-0.3425 30.261-0.95434 67.108-1.7766 26.145-0.58348 51.979-0.62783 62.349-0.10703 7.1747 0.36034 8.2495 0.33856 15.84-0.32096 9.1809-0.79771 31.394-1.3174 56.623-1.3247 16.424-5e-3 41.655-1.1307 50.592-2.2578 3.1136-0.39268 6.906-0.62835 10.08-0.6264 4.7492 3e-3 5.2027 0.0563 6.8028 0.80121 1.4747 0.68652 1.6892 0.89856 1.5345 1.5169-1.1448 4.5735-1.1411 4.4898-0.28397 6.5069l0.80392 1.8919-5e-3 17.12c-3e-3 9.416-0.0439 20.144-0.0914 23.84-0.082 6.378 0.22616 12.072 1.7668 32.64 0.25047 3.344 0.60441 9.32 0.78655 13.28 0.52281 11.367 0.61035 12.545 1.1804 15.887 0.44122 2.5865 0.52854 5.1433 0.48626 14.238-0.0477 10.269-9e-3 11.138 0.52824 11.801l0.57977 0.71599 4.7798-1.1408c12.264-2.9272 20.114-4.0574 28.195-4.0597 8.9242-3e-3 23.582 1.2699 28.101 2.4394 2.3727 0.614 13.716 5.769 16.139 7.3347 0.98156 0.63415 3.8006 3.2074 6.2646 5.7184s5.704 5.4792 7.2 6.596c5.3016 3.9578 9.8553 8.9349 12.491 13.652 0.57072 1.0216 2.041 3.4146 3.2673 5.3179 2.2622 3.5112 4.3208 7.7763 7.5194 15.579 5.3252 12.991 7.5352 22.771 9.0386 40 0.46096 5.2828 0.88276 8.3292 1.4178 10.24 1.0811 3.8612 1.1424 4.1798 1.6279 8.4656 0.24015 2.1199 0.79708 6.5904 1.2376 9.9344s1.0304 9.464 1.3108 13.6 0.86196 11.696 1.2924 16.8 0.93264 11.728 1.1161 14.72c0.42282 6.8971 0.75379 10.145 1.9241 18.88 1.8891 14.1 1.9468 14.911 1.7283 24.273-0.18905 8.1007-0.15664 8.903 0.48029 11.887 0.37567 1.76 0.83233 5 1.0148 7.2s0.6829 7.528 1.1121 11.84c1.355 13.615 1.7333 18.889 1.7444 24.32 8e-3 4.1518 0.2186 6.716 0.98344 12 1.606 11.095 1.6626 24.842 0.10691 25.979-0.29667 0.21692-1.162 0.48777-1.9229 0.60187-1.0958 0.16432-1.6104 0.0672-2.4746-0.46687-1.4227-0.87929-1.4947-0.86176-1.5005 0.36566-3e-3 0.572-0.12082 1.2226-0.26249 1.4458-0.60967 0.96053-2.6531 1.0991-17.813 1.2082-8.448 0.0608-19.276 0.28404-24.062 0.49609-6.0236 0.26689-11.244 0.29739-16.96 0.0991-9.6436-0.3345-34.241-0.32466-39.206 0.0157-2.9058 0.19919-3.456 0.3233-3.612 0.81489-0.174 0.54824-0.86928 0.57666-12.732 0.52037-11.258-0.0534-13.074-0.13604-17.668-0.80394-4.4064-0.64067-5.6998-0.70871-9.28-0.48821-2.288 0.1409-6.392 0.22738-9.12 0.19216-3.0045-0.0388-5.717 0.0944-6.88 0.33787-1.3269 0.27775-3.0568 0.3313-5.6 0.17336-7.4678-0.46375-16.598-0.37147-21.6 0.21831-2.64 0.31131-7.104 0.59537-9.92 0.63125-2.816 0.0359-6.56 0.24998-8.32 0.47577-2.1418 0.27478-4.5756 0.33647-7.36 0.18656-2.288-0.12319-15.104-0.34987-28.48-0.50374-15.728-0.18091-25.507-0.42141-27.68-0.68072-2.4394-0.2911-10.637-0.40088-29.92-0.40067l-26.56 3e-4 -4.2891 0.87192c-4.0023 0.81363-4.4812 0.84729-7.163 0.50336-2.1252-0.27254-3.3838-0.27618-4.8309-0.014-3.3491 0.60685-29.962 1.1861-34.522 0.7514-5.9218-0.5646-19.997-1.0702-31.275-1.1236l-10.08-0.0477-5.92 1.0636c-5.0809 0.91288-7.0539 1.1033-13.92 1.3432-4.4 0.15375-10.376 0.57489-13.28 0.93585-2.904 0.36097-8.448 0.81587-12.32 1.0109-7.2732 0.36634-44.179 0.50966-61.92 0.24046-9.9275-0.15063-10.119-0.16609-12.64-1.0215-1.408-0.47773-3.0462-1.1301-3.6405-1.4497l-1.0805-0.58112-4.2754 1.3787c-2.3515 0.75827-5.4615 1.5274-6.9111 1.7092-2.4073 0.30185-9.1935 0.36492-12.732 0.11834z"/><path d="m389.61 172.34c-0.04885-0.00475-0.09545 0.00424-0.14258 0.02539-4.432 1.9899-8.4837 2.4292-19.848 2.1524-13.738-0.33465-12.446-0.41013-14.545 0.85547-2.1145 1.2747-4.0156 3.2284-4.0156 4.127 0 0.9718 0.52508 2.1175 1.9551 4.2676l1.3242 1.9922-0.37305 8.4805c-0.20568 4.664-0.43752 15.534-0.51562 24.158-0.07816 8.624-0.15999 16.018-0.17969 16.43-0.0718 1.5013 1.4104 2.4839 5.1016 3.3848 5.393 1.3161 7.1794 1.4523 19.568 1.4805 10.909 0.02481 11.922 0.0765 15.359 0.77344 4.6975 0.95253 5.2105 0.97717 5 0.25195-0.79713-2.7467-0.86216-3.3613-0.48047-4.5 0.65327-1.949 0.42591-5.1298-0.64649-9.0742-0.5421-1.9941-1.2831-5.0642-1.6484-6.8242s-0.86117-4.1372-1.1016-5.2812c-0.81513-3.879-1.421-12.805-1.4102-20.779 0.0112-8.1604 0.01735-8.1981 1.5938-11.777 0.92186-2.0929 0.64915-3.1888-0.99414-3.9941-0.9521-0.4666-1.3206-0.99627-2.3926-3.4473-0.85707-1.9596-1.2674-2.6679-1.6094-2.7012zm-128.8 4.2012c-0.5336 0.02629-0.873 0.13508-1.3164 0.3125-1.3594 0.5439-2.2256 1.7933-2.2676 3.2695-0.0136 0.4781 0.37559 2.0474 0.86523 3.4883l0.89063 2.6191-0.71875 15.125c-0.69353 14.602-0.70149 15.378-0.19922 22.484 0.28612 4.0481 0.68058 8.6853 0.875 10.307 0.33591 2.8012 0.3173 3.0075-0.35352 4.1445-0.5914 1.0023-0.63382 1.2521-0.25976 1.5332 0.2455 0.1846 1.114 0.88503 1.9277 1.5566 1.951 1.6104 2.6963 1.7015 17.361 2.1191 11.048 0.31459 14.556 0.55689 18.561 1.2852 2.7591 0.5018 5.4628 0.25282 6.3535-0.58399 0.91066-0.8556 1.6346-3.1607 1.3906-4.4297-0.3872-2.013-2.225-13.426-3.0039-18.652-1.1915-7.995-1.196-14.755-0.01367-19.68 1.8052-7.5201 2.1608-11.065 1.4824-14.734-0.4677-2.53-0.82422-3.1461-3.4785-5.9883-2.8152-3.0145-3.7307-3.3026-8.7363-2.7539-5.115 0.56062-16.798 0.15944-23.703-0.8125-3.3389-0.47001-4.7669-0.65318-5.6562-0.60938zm-60.178 2.9609c-2.1766-8e-3 -5.0072 0.2589-8.1543 0.78516-10.891 1.8212-16.547 1.8968-28.457 0.3789-4.0284-0.5134-5.5059-0.16466-7.3652 1.7402l-1.2754 1.3047 0.10743 14.625c0.10488 14.409 0.11937 14.718 1.0781 21.023 0.7684 5.0536 0.98384 7.5708 1.0234 11.969l0.05078 5.5703 1.75 1.5898c0.9626 0.8745 2.5409 1.9592 3.5078 2.4102 1.6804 0.78357 2.0695 0.82538 8.7852 0.96289 4.5302 0.09276 8.7374-0.01164 11.842-0.29297 5.678-0.51461 11.962-0.46005 17.295 0.15039v0.00195c2.112 0.24173 4.3566 0.45652 4.9863 0.47852l1.1445 0.04101 0.45117-4.5605c0.24787-2.508 0.41309-6.8669 0.36719-9.6875-0.04585-2.8206 0.06732-6.7814 0.25195-8.8008 0.3773-4.127 1.2613-21.252 1.4844-28.756 0.14359-4.8301 0.1292-4.9606-0.70898-6.6738-0.9295-1.8999-2.7592-3.3351-5.0254-3.9453-0.76215-0.20525-1.8327-0.30966-3.1387-0.31446zm180.37 3.0938c3.9624 0.01649 4.4238 0.14247 4.9004 0.57227 0.65594 0.5916 0.6776 0.86706 0.6836 9.2812 0.0068 9.359 0.23777 12.319 2.0762 26.59 1.2672 9.8365 1.2361 10.789-0.37696 11.846-0.70819 0.46403-1.3578 0.52887-3.918 0.39454-2.0989-0.11012-3.5229-0.02128-4.5078 0.27734-1.9716 0.59782-4.8151 0.51435-7.6797-0.22266-1.32-0.33962-4.3447-0.75321-6.7207-0.91992-4.6869-0.32886-5.7598-0.53331-5.7598-1.0957 0-0.2013-0.23218-3.0992-0.51563-6.4414-1.1228-13.239-0.34841-26.67 1.7715-30.748 0.66584-1.281 1.0898-2.714 1.3184-4.4492 0.64799-4.9201 0.87171-5.0039 13.471-5.0703 2.229-0.01174 3.937-0.01916 5.2578-0.01367zm-114.6 3.9629h28.268l0.23632 4.0801c0.24534 4.249 0.10631 8.3434-0.51562 15.121-0.47607 5.188-0.18751 17.151 0.49805 20.639 0.70257 3.574 1.2608 8.4521 0.99804 8.7148-0.1208 0.12083-3.4178 0.39749-7.3262 0.61328-9.7186 0.53659-17.651 0.52378-19.201-0.0293-2.1123-0.75349-3.5542-1.9364-4.5488-3.7324-0.9468-1.7095-0.95602-1.7763-1.0156-7.166-0.0331-2.992-0.23663-7.2677-0.45118-9.502-0.65669-6.84 0.0335-14.63 2.1836-24.658l0.875-4.0801zm-68.672 0.97852c2.7808-0.02212 3.3142 0.09157 3.6738 0.45117 0.47348 0.4734 0.53797 1.4594 0.54297 8.2734 0.0066 8.265-0.60754 34.464-0.83594 35.648-0.2567 1.3316-1.0981 1.4721-6.2324 1.0371-3.7296-0.31591-6.3246-0.32139-12.197-0.02539v-0.00195c-4.1028 0.2068-8.3951 0.447-9.5391 0.5332-2.5027 0.1886-3.6345-0.31996-4.1191-1.8516-0.578-1.827-2.9046-15.319-3.2148-18.643-0.95948-10.278-0.70746-15.726 0.93164-20.09 1.0583-2.8174 1.314-2.9151 8.3066-3.1504 5.1093-0.17193 6.38-0.32196 9.1348-1.084 2.9013-0.80252 3.8303-0.89928 9.9434-1.0352 1.5033-0.03341 2.6786-0.05513 3.6055-0.0625zm161.52 62.73c-1.3747-0.2226-2.4641 0.82046-6.5352 4.8476-2.7132 2.684-5.5665 5.697-6.3418 6.6953-0.8059 1.0377-2.3492 2.4396-3.6035 3.2734-3.5007 2.327-6.1938 5.2827-12.133 13.312-4.9001 6.6254-6.2196 8.1662-11.094 12.959-3.0427 2.9916-7.2969 7.558-9.4531 10.146l-3.9199 4.7051-1.6543-2.1465c-0.9104-1.1805-2.3405-2.5775-3.1758-3.1055-0.83529-0.528-2.305-1.4566-3.2676-2.0645-1.9946-1.2595-6.23-5.4069-8.1856-8.0156-0.7256-0.968-2.3264-3.2396-3.5586-5.0488-1.878-2.756-3.8539-4.8718-12.203-13.061-9.3766-9.1958-9.9264-9.798-9.3418-10.23 0.34164-0.25274 0.75458-0.45899 0.91602-0.45899 0.54246 0-0.11193-1.7533-0.92578-2.4805-0.6023-0.53819-1.2001-0.71875-2.3672-0.71875-3.3269 0-4.8272 1.1296-9.498 7.1562-2.4666 3.1828-6.2814 7.4272-11.129 12.383-4.0569 4.1467-9.9687 10.215-13.137 13.486-3.168 3.271-6.5583 6.4674-7.5332 7.1016-2.2658 1.4739-5.0597 2.4632-7.543 2.6699l-1.957 0.16211-2.4062-2.2852c-1.674-1.5902-2.7685-2.9745-3.5938-4.5449-1.1192-2.1299-4.9244-7.0164-6.6016-8.4766-0.4206-0.36614-1.3409-0.83198-2.0449-1.0352-2.0205-0.5831-3.0068-1.341-6.0391-4.6445-2.7724-3.0204-2.8257-3.109-2.3379-3.8535 0.49753-0.75932 0.49361-0.76205-0.95899-0.92578-1.8874-0.2127-3.1159-1.1248-3.2441-2.4082-0.1483-1.4843-3.443-4.8393-9.6191-9.7949-5.781-4.6386-7.7193-6.5369-9.4648-9.2656l-1.1348-1.7734-1.2012 0.49414c-2.5442 1.0498-4.5293 3.3813-4.5527 5.3438-8e-3 0.618-4.4526 6.1542-13.943 17.369-10.144 11.986-14.021 18.227-18.713 30.129l-1.8008 4.5684-1.7344-2.0078c-0.9541-1.1049-3.8252-4.1686-6.3789-6.8086-8.834-9.133-22.318-26.698-24.82-32.332-0.4664-1.0498-1.1112-3.2127-1.4336-4.8066-0.872-4.3109-1.7224-6.2927-3.5684-8.3125-2.2366-2.4472-2.6709-2.6407-3.623-1.6133-0.41946 0.45266-1.0538 0.82422-1.4102 0.82422-1.5022 0-1.5403 0.39178-1.7344 17.76-0.1003 8.976-0.3457 20.135-0.54492 24.799-0.48885 11.444-0.14192 32.79 0.73828 45.441 0.58743 8.443 0.68933 13.064 0.75 34.24 0.04357 15.206-0.048761 24.965-0.24414 25.76-0.173 0.704-0.8749 2.2154-1.5586 3.3594-0.68369 1.144-1.3984 2.8054-1.5879 3.6914-0.31045 1.4515-0.26018 1.8312 0.51172 3.8398 0.81169 2.1122 0.85424 2.4984 0.80274 7.3496-0.02989 2.816-0.18886 5.6242-0.35352 6.2402-0.5708 2.135-2.0632 25.618-2.1152 33.279-0.03098 4.5654-0.19723 8.0594-0.42383 8.8926-0.3073 1.1299-0.24435 2.4866 0.36133 7.6797 0.90725 7.779 0.94609 15.529 0.17188 34.627-0.29611 7.304-0.56456 19.834-0.59766 27.844-0.067099 16.248-0.10893 15.917 2.168 17.916 1.4006 1.2298 2.165 1.2304 2.6738 0.00195 0.5075-1.2251 1.7578-1.289 3.4473-0.17383 1.4265 0.94154 3.6802 1.7734 4.8086 1.7734 0.4486 0 1.9008-0.37443 3.2266-0.83203 3.2659-1.1268 6.5266-1.1246 10.277 0.00781 9.985 3.0146 15.84 4.1635 24.32 4.7715 5.8472 0.4192 6.521 0.57092 8.3926 1.8906 0.4498 0.31713 0.7465 0.27173 1.5996-0.24414 1.027-0.62053 1.727-0.63476 34.168-0.63476h33.121l4.3203-1.1875c2.376-0.65399 5.6874-1.358 7.3594-1.5625 5.201-0.6362 19.933 0.06159 40.799 1.9297 12.187 1.0911 20.387 1.621 25.152 1.627 6.852 0.0085 30.727 1.2711 51.648 2.7324 4.7067 0.32877 8.7371 0.4233 12.16 0.2832 3.8706-0.15842 6.2913-0.07691 9.9199 0.33399 3.8633 0.43744 6.4541 0.5076 13.279 0.35742 6.921-0.15229 10.657-0.0483 20.32 0.56836v-0.00196c6.5122 0.41557 12.817 0.77593 14.012 0.79883 2.5089 0.048 3.7481-0.46017 5.9883-2.4512l1.4394-1.2793-0.4707-1.0742c-0.31107-0.711-0.45192-1.9953-0.41602-3.7949 0.5484-27.495 0.6689-30.544 1.6289-41.279 0.54301-6.072 1.1378-13.777 1.3223-17.121 0.5453-9.8871 0.96809-12.174 3.1172-16.885 1.5401-3.3761 1.5817-4.0033 0.39844-5.9492-0.392-0.6446-1.2066-1.3012-2.1152-1.7031-1.46-0.64574-1.6395-0.64897-14.104-0.25195-17.091 0.5444-20.25 0.32008-29.682-2.1035-11.441-2.939-19.602-7.1652-26.199-13.568-2.1384-2.0753-4.1775-3.6982-5.9941-4.7676-3.2598-1.919-4.1733-2.8881-5.9609-6.3242-2.0221-3.887-3.2662-7.9309-3.6094-11.736-0.45738-5.072-0.37455-13.737 0.16601-17.35 0.8296-5.5443 2.826-10.721 4.6504-12.064 1.2163-0.8956 6.245-2.1758 8.5508-2.1758h2.0098l1.3867-2.1602c0.763-1.188 1.7145-2.7354 2.1152-3.4394l0.73047-1.2793 8.3574-0.09961c13.735-0.1631 18.271 0.78691 36.838 7.7168 9.9008 3.6952 10.785 3.8513 12.994 2.2988 0.8245-0.5795 1.6928-1.5891 2.1797-2.5352 0.88899-1.7275 0.96178-2.993 0.51758-8.9824-0.13963-1.8826-0.09752-4.437 0.10351-6.2051 0.24879-2.1878 0.24203-3.92-0.02539-6.3691-0.5397-4.942-0.07507-7.9053 2.4238-15.477 3.2418-9.8224 4.9515-13.399 9.4004-19.67 1.3899-1.9592 3.0803-4.6231 3.7578-5.9199 1.8653-3.5702 6.504-11.446 7.7324-13.129 3.277-4.49 13.026-11.625 29.555-21.627 3.784-2.2897 8.1241-4.9439 9.6426-5.8984 1.5185-0.9546 3.368-1.9363 4.1113-2.1816 1.6426-0.5421 3.0918-1.8366 3.3906-3.0274 0.12178-0.4852 0.04693-1.6237-0.16797-2.5293-0.33314-1.4039-0.31591-1.787 0.11523-2.6055 1.1253-2.1364 0.49362-3.3117-3.1758-5.9199-1.3215-0.93939-2.0668-1.9517-4.625-6.2715-1.6776-2.8328-3.6057-5.9496-4.2832-6.9277l-1.2305-1.7793 1.2852-1.627c1.4711-1.8611 1.8772-3.1849 1.3066-4.2559-0.5688-1.0678-1.0952-1.4328-4.1289-2.8633-4.5305-2.1363-4.8077-2.3069-6.1348-3.7402-1.8202-1.9659-2.5514-3.8291-2.75-7.0117-0.2048-3.2831-0.62058-3.9189-2.709-4.1543-2.125-0.2395-2.9777 0.06696-4.7207 1.6973-1.4075 1.3166-1.5278 1.5426-1.3906 2.627 0.1317 1.0415-0.14082 1.6545-2.2285 5.0254-8.0664 13.025-10.855 17.434-12.695 20.074-2.303 3.302-11.328 12.557-14.674 15.047-2.1909 1.6304-8.995 5.8167-9.1562 5.6328-0.05439-0.0621-1.495-2.2434-3.2012-4.8457-3.5628-5.4335-5.7432-7.7676-12.02-12.873-2.376-1.9327-5.6874-4.867-7.3594-6.5215-1.672-1.6545-5.0582-4.8385-7.5254-7.0742-4.331-3.925-7.658-7.5099-12.084-13.02-1.6753-2.0854-2.1518-2.9242-2.3301-4.1133-0.2041-1.3609-0.34197-1.5484-1.543-2.0938-0.64302-0.292-1.1316-0.50588-1.5898-0.58008zm-274.14 53.248c0.006355-7.1e-4 0.01103-1.4e-4 0.017578 0.00391 0.19685 0.1217 0.32031 2.7762 0.32031 6.8984 0 4.2541-0.11716 6.7012-0.32031 6.7012-0.20344 0-0.31836-2.5125-0.31836-6.8984 0-4.3765 0.10379-6.6829 0.30078-6.7051zm434.1 13.119-4.9688 1.3496c-2.7333 0.7414-7.8027 1.9338-11.266 2.6504-3.4632 0.7166-8.3758 1.8719-10.916 2.5684-2.5402 0.6965-6.5135 1.7049-8.8301 2.2402-6.1753 1.427-8.9914 2.3948-13.459 4.6289-2.2 1.1001-5.0804 2.3235-6.4004 2.7168-6.969 2.0764-7.7527 2.3789-10.076 3.9043-3.381 2.22-9.0349 7.7662-16.904 16.582-5.8393 6.5414-6.8678 7.8532-7.8984 10.08-0.6517 1.408-1.9799 3.7852-2.9531 5.2812-4.4584 6.853-6.5006 13.178-7.291 22.582-0.31939 3.7997-0.04974 10.154 0.4668 10.99 0.07942 0.1285 0.30258 1.5188 0.49609 3.0898 0.2945 2.3909 0.55345 3.1966 1.5898 4.9375 0.6811 1.144 1.5526 3.1585 1.9375 4.4785 0.4229 1.4505 2.0273 4.8568 4.0547 8.6094 5.7011 10.553 7.4055 13.057 12.545 18.432 1.5146 1.584 3.6178 4.0074 4.6738 5.3867 2.9271 3.8232 5.3959 5.4476 9.7598 6.4199 0.44 0.0981 2.1355 1.1872 3.7676 2.4199 5.516 4.1659 11.313 7.1831 17.84 9.2852 7.798 2.5113 21.152 5.4943 27.352 6.1113 2.024 0.20141 7.6769 0.3875 12.561 0.4121 4.8837 0.02459 8.8786 0.13214 8.8789 0.24024 3e-4 0.1081-0.83693 1.2606-1.8613 2.5606-6.3786 8.094-11.973 16.23-13.547 19.701-2.2251 4.907-3.2203 11.401-2.5352 16.539 1.063 7.975 3.8238 12.759 11.998 20.789 7.7452 7.6083 11.185 9.9473 16.053 10.914 1.2171 0.24173 3.7307 0.45421 5.584 0.47071 3.1011 0.0277 3.9701-0.12098 10.922-1.8633 7.4636-1.8706 9.1097-2.48 14.188-5.2422 1.056-0.5745 3.6921-1.8682 5.8574-2.877 2.782-1.296 3.8641-1.952 3.6894-2.2324-0.13592-0.2182-0.25281-2.2246-0.25781-4.459-0.00639-2.6483-0.13825-4.192-0.38086-4.4356-0.2047-0.20546-1.0176-0.44625-1.8066-0.53515-1.4193-0.16-1.4615-0.13691-4.041 2.2754-4.296 4.0173-9.3114 6.518-15.596 7.7734-2.1637 0.43225-4.3593 0.56079-9.3848 0.55079-7.5233-0.0144-9.6988-0.42127-14.24-2.668-5.1352-2.54-8.3793-6.0187-11.602-12.438-1.7911-3.5678-1.8196-3.6658-1.9473-6.8457-0.07127-1.7745 0.02954-4.4661 0.22266-5.9805 0.19313-1.5144 0.44402-3.5938 0.55859-4.6211 0.1975-1.7713 0.45288-2.2096 4.9219-8.4805 5.2812-7.4106 6.246-9.043 5.6836-9.6055-0.8142-0.81459 4.5065-4.9995 9.5215-7.4883 1.232-0.6114 4.4732-2.0064 7.2012-3.0976s6.1837-2.5298 7.6797-3.1973c1.496-0.6675 5.2422-2.0252 8.3262-3.0176 3.084-0.9924 6.7454-2.3852 8.1348-3.0957 6.413-3.28 18.599-12.239 23.873-17.551 2.0312-2.0459 4.7887-4.7434 6.1289-5.9941 2.4882-2.322 3.3901-3.6987 4.4648-6.8223 0.3344-0.9719 1.6084-3.5744 2.832-5.7832 3.6935-6.667 6.236-15.796 6.5293-23.439 0.12045-3.1397 0.25439-3.9092 0.80859-4.6875 0.80128-1.1253 0.86068-3.5678 0.23633-9.6328-0.25505-2.4778-0.32279-5.0969-0.17969-6.8809 0.47221-5.8864 0.35985-7.7084-0.65625-10.682-0.51842-1.5169-1.1621-4.1298-1.4297-5.8066-0.5007-3.137-2.6663-9.9328-4.3457-13.637-1.3464-2.9694-3.4505-5.7865-7.293-9.7637-6.322-6.5439-9.9593-9.0509-22.156-15.27-6.466-3.297-9.3009-4.2656-16.559-5.6582-3.2965-0.6326-7.8663-1.606-10.154-2.1641l-4.1602-1.0156-26.24-0.00391zm3.6426 7.2266 6.6582 0.30468c14.365 0.6585 18.148 1.0933 24.898 2.8594 2.64 0.6908 6.24 1.5655 8 1.9434 5.83 1.2519 9.0051 2.8063 19.746 9.668 6.2886 4.0172 7.2384 4.7429 10.021 7.6699 6.2757 6.6005 7.952 9.1384 9.8516 14.898 2.5075 7.604 4.2844 18.7 3.9024 24.375-0.08944 1.3287-0.31177 5.0078-0.49415 8.1758-0.38519 6.692-0.91516 10.568-2.3848 17.439-1.5558 7.274-2.5878 9.566-7.9492 17.668-3.2705 4.9426-5.68 7.8757-8.6934 10.582-6.143 5.517-19.053 13.596-25.496 15.953-4.005 1.4652-17.411 5.1101-25.592 6.959v-0.00195c-3.9861 0.90093-7.2994 1.6102-7.3613 1.5762-0.061-0.03403-5.0804-0.1569-11.152-0.27344-14.195-0.2725-16.63-0.67883-28.959-4.832-13.823-4.6562-25.855-9.2319-28.279-10.756-2.3998-1.5088-5.0343-3.8997-9.2461-8.3887-7.0904-7.557-10.761-12.446-13.582-18.088-0.7039-1.408-3.0015-5.8224-5.1055-9.8106-3.8246-7.2496-3.8248-7.2509-3.7461-9.2793 0.04328-1.1159-0.16385-3.3081-0.46094-4.8711-0.60719-3.1945-0.70165-8.5914-0.20508-11.719 0.9549-6.014 3.9181-12.334 9.3008-19.84 5.5679-7.7637 8.0037-10.581 14.244-16.471 5.5156-5.2057 5.9127-5.5138 7.7949-6.0371 2.3069-0.6414 4.3038-1.6095 7.375-3.5781 3.5581-2.2806 6.2601-3.5104 11.848-5.3887 9.705-3.2623 16.85-5.0806 25.902-6.5938 2.1997-0.3677 7.4117-1.4502 11.582-2.4062l7.582-1.7383zm28.631 36.83c-0.21456 0.00699-0.44418 0.02162-0.70117 0.03906-3.859 0.2618-14.256 4.3076-18.531 7.2109-2.2485 1.5269-6.5645 6.0174-8.7871 9.1426-2.1254 2.989-4.5722 8.1022-5.3867 11.26-2.0956 8.124-1.4856 14.339 1.9805 20.209 1.5129 2.5624 6.9284 7.8971 10.42 10.264 2.5424 1.7233 3.3769 2.1009 6.0801 2.7598 4.7248 1.1515 6.622 1.5019 10.652 1.9648h0.00196c5.5733 0.64009 10.799 0.4138 13.76-0.5957 3.2047-1.0926 8.6528-3.6642 11.281-5.3242 3.6482-2.3039 6.3724-5.8358 9.0703-11.756 0.95929-2.105 1.0862-2.6942 1.0762-5.0078-0.00614-1.4423-0.22408-3.7736-0.48438-5.1816s-0.61479-3.7852-0.78906-5.2812c-0.17426-1.496-0.46445-3.9842-0.64453-5.5293-0.4253-3.6492-1.3775-6.1927-3.4961-9.3496-3.6903-5.4984-6.1914-7.7317-10.549-9.4121-1.3858-0.5344-4.996-1.9935-8.0215-3.2441-4.6416-1.9186-5.4297-2.2169-6.9316-2.168zm-63.936 1.0469c-1.6093-0.04512-3.4777 0.07696-5.998 0.32031-13.685 1.3216-17.701 3.0941-25.217 11.141-6.414 6.867-7.5382 9.0603-7.502 14.637 0.0178 2.7332 0.26663 4.4336 1.3359 9.1191 0.723 3.168 1.5452 6.3029 1.8262 6.9668 0.6197 1.4643 2.5199 3.6257 3.7461 4.2598 0.494 0.2555 1.8031 1.3618 2.9082 2.459 2.2365 2.2203 7.3887 5.4559 10.15 6.375 2.13 0.70811 6.796 0.5869 14.732-0.38476 2.728-0.334 6.699-0.75615 8.8262-0.9375 5.6622-0.4827 7.797-1.3677 11.32-4.6914 4.0295-3.802 5.343-6.4169 7.8477-15.643l1.457-5.3672-1.2988-4.9395c-0.7135-2.7167-1.6469-6.0458-2.0742-7.3984-2.047-6.4816-6.8082-11.156-14.377-14.115-3.0415-1.1892-5.0014-1.7256-7.6836-1.8008zm58.533 6.8535c1.3542-0.00403 3.1451 0.43178 6.6875 1.3047 4.7052 1.1595 7.1107 1.9338 9.2773 2.9824 4.6682 2.2595 8.8085 5.961 10.588 9.4668 0.3177 0.6259 0.8749 3.5504 1.3418 7.041 1.6818 12.573 0.48703 16.819-5.9473 21.123-3.3602 2.2475-6.184 3.4112-9.8184 4.0449-3.9074 0.68141-5.6515 0.6046-11.213-0.4961-5.7972-1.1474-10.908-3.2002-13.529-5.4336l-1.1035-0.93945 3.1836-2.9414c1.7504-1.6172 4.1379-3.912 5.3066-5.0996 4.5185-4.592 5.5547-9.9677 2.9473-15.297-0.9699-1.9822-4.422-5.61-6.2617-6.5801-1.1851-0.62481-1.1984-0.62389-3.4297 0.0332l-2.2402 0.66016 1.2969-1.5488c2.4092-2.8775 5.5255-5.3371 8.8477-6.9824 1.7947-0.8888 2.7122-1.3339 4.0664-1.3379zm-61.385 0.59179c2.8144 0.00826 5.3095 0.24879 6.623 0.74024 3.6157 1.353 10.69 7.9675 12.357 11.555 1.7361 3.734 1.853 9.1571 0.33594 15.545-1.0487 4.4156-2.8652 7.3057-5.5996 8.9082-2.086 1.2224-5.782 2.3599-8.791 2.707l-0.00195 0.00195c-3.553 0.40985-15.392 0.6587-17.451 0.36719-0.9282-0.1314-2.71-0.82072-4.2441-1.6426l-2.6445-1.418 2.1641-1.9219c5.0614-4.4944 9.1426-8.7053 9.7598-10.072 1.472-3.2598 0.59871-7.1962-2.3086-10.404-1.027-1.1332-2.4373-2.8332-3.1348-3.7774-1.7603-2.3828-3.2559-3.613-5.1621-4.2461-0.89605-0.29762-1.6289-0.65048-1.6289-0.78516 0-0.3558 7.6096-4.0867 9.1191-4.4707 2.8412-0.72277 6.9889-1.0966 10.607-1.0859zm-206.65 38.496c3.2054-0.00295 3.9731 0.11034 6.4004 0.94336 6.24 2.1415 9.7226 2.4761 20.518 1.9746 6.4749-0.3008 7.6757-0.44936 11.924-1.4688 4.9981-1.1994 7.5957-1.4412 7.5957-0.70899 0 0.233-0.36739 1.6361-0.81641 3.1191-2.5506 8.424-3.4786 15.199-3.459 25.256 0.01241 6.3668 0.07636 7.1129 0.84375 9.9883 1.1288 4.2301 3.2666 8.2574 5.9394 11.189 2.0443 2.2426 3.249 4.2139 2.8301 4.6328-0.304 0.3038-12.081 1.0365-21.979 1.3672-12.184 0.40709-31.55-0.04501-40.32-0.94141-9.636-0.98482-28.796-1.2338-37.738-0.49024-4.2958 0.35724-7.205 0.45486-8.4805 0.28321-1.0678-0.14369-5.0363-0.29077-8.8203-0.32617-18.199-0.17004-40.663-0.68514-45.121-1.0352-5.087-0.3994-11.109-0.27141-16 0.33984-1.496 0.18695-4.4466 0.32816-6.5586 0.31446-8.171-0.0529-31.166 1.4021-42.234 2.6719-8.909 1.0222-8.9288 1.0213-10.326-0.25-0.97468-0.8867-0.92781-2.2834 0.11719-3.5254 0.73694-0.8758 0.81374-1.1834 0.64648-2.5957-0.10442-0.8817-0.55355-2.2558-0.99609-3.0527-1.8005-3.2424-2.3928-4.7317-2.4297-6.0996-0.1353-5.017 0.19953-9.0447 1.4863-17.885 1.494-10.264 1.6841-10.904 3.2461-10.904 1.0593 0 1.9144-0.49448 3.6621-2.1133 2.0167-1.8679 2.8143-2.0236 4.957-0.97266 0.9482 0.46503 2.0659 0.84571 2.4824 0.84571 0.417 0 5.1292-0.79149 10.473-1.7578 16.861-3.0491 19.358-3.388 26.355-3.5859 5.1673-0.14615 7.2328-0.07006 10.721 0.40039 3.108 0.41919 5.9361 0.56161 10.08 0.50781 6.6408-0.0862 9.2497-0.54833 11.564-2.0488l1.5547-1.0078 6.0059-0.12891c7.2128-0.155 8.0988-0.02991 8.8203 1.2383 0.35359 0.6215 0.78989 0.93846 1.291 0.93946 0.74053 0.00198 0.74554-0.01426 0.21484-0.82422-0.29827-0.45531-0.46142-0.90968-0.36132-1.0098 0.1001-0.1001 0.93927 0.06947 1.8652 0.37696 3.427 1.1378 7.2142 0.95324 16.82-0.81446 3.7364-0.68759 5.4519-0.75031 7.1973-0.26562 1.0461 0.29049 1.3655 0.24156 2.3379-0.35938 1.2721-0.78619 3.0335-0.74146 6.1992 0.16016 2.2609 0.64389 6.4761 0.6375 9.3476-0.01563 2.1064-0.47911 3.1764-0.46675 4.9785 0.0586 0.68195 0.19881 0.69821 0.15949 0.35938-0.8125-0.5395-1.5475 0.03345-1.8039 1.4726-0.66016 0.67049 0.53287 1.3082 0.96494 1.416 0.96094 0.1078-0.0043 0.84276-0.16039 1.6348-0.3457 3.2907-0.76995 5.1876-0.91253 9.4141-0.71289 4.2436 0.20047 4.4969 0.25128 5.418 1.0742l0.9668 0.86329 2.7402-0.6211c8.1964-1.8547 10.158-2.163 13.744-2.166zm120.88 147.29c0.02969 0.0336-0.16504 1.4656-0.43164 3.1816l-0.48438 3.1191h-1.0527c-0.5793 0-2.183 0.2165-3.5625 0.48047-3.0245 0.57872-6.3228 0.59779-7.6191 0.04492-0.8985-0.38317-0.83528-0.4043 1.1367-0.4043 2.7278 0 5.2142-1.1534 9.0859-4.2129 1.5797-1.2483 2.898-2.2426 2.9277-2.209z" fill="#f6d900"/></g></g></svg>
