<?xml version="1.0" encoding="UTF-8"?>
<svg width="169.93" height="169.93" version="1.1" viewBox="0 0 169.93 169.93" xmlns="http://www.w3.org/2000/svg"><g transform="translate(.052198 -.00069116)"><g transform="translate(0 30.726)"><path d="m0.57412 107.44c0.676-1.1225 5.8148-10.204 6.4042-11.317 0.3353-0.63353 0.13246-0.7947-3.1405-2.4952-1.9244-0.99987-3.5617-1.9194-3.6383-2.0435s1.5687-3.8252 3.6564-8.2248c2.0877-4.3996 3.8382-8.104 3.8899-8.2321 0.051773-0.1281 2.7439 0.45736 5.9825 1.301l5.8884 1.5339 2.3537 4.699c1.2945 2.5844 2.43 4.699 2.5233 4.699 0.09329 0 1.0972-0.74334 2.231-1.6519 1.6115-1.2914 2.0274-1.7977 1.9057-2.32-0.51779-2.2225-1.4305-7.0762-1.4305-7.6073 0-0.55274 5.9289-7.3008 6.4146-7.3008 0.10127 0 1.8995 1.08 3.996 2.4 2.0966 1.32 3.926 2.4 4.0654 2.4s0.21535-4.2763 0.16873-9.5029l-0.084761-9.5029-8.2255-3.4871 50.783-50.786 26.082 26.076v-17.757h13.44v31.157l10.584 10.65-9.7837 4.2351-0.085 9.1618c-0.08 8.6315-0.0522 9.1515 0.48 8.9839 0.31072-0.09785 2.077-0.65437 3.925-1.2367l3.36-1.0588-8e-3 -1.5864c-5e-3 -0.87253-0.11387-2.5944-0.24268-3.8264l-0.2342-2.24 5.5484-3.9946c3.0516-2.197 5.6335-3.997 5.7376-4 0.10408-3e-3 1.3396 0.84082 2.7457 1.8751l2.5565 1.8805 2.1371 5.554c1.1754 3.0547 2.0883 5.6841 2.0286 5.8431-0.0597 0.15899-1.1225 1.1335-2.3618 2.1655-1.2393 1.032-2.2969 1.9952-2.3502 2.1403-0.0533 0.14512 1.0225 1.6797 2.3906 3.4103 2.1444 2.7125 2.5789 3.1105 3.1502 2.8861 0.36445-0.14319 2.7291-1.1284 5.2548-2.1894l4.5922-1.9291 2.6427 5.5035c1.4535 3.0269 2.9382 6.0826 3.2993 6.7904l0.65656 1.287-2.174 2.3887-2.1741 2.3887 4.3649 4.5994-0.89121 2.3403c-0.49016 1.2872-1.2857 3.3843-1.7678 4.6603l-0.87658 2.32h-166.4z" fill="#f69968"/><path d="m67.071 105.73c-0.12932-0.337 0.14677-0.80548 0.80148-1.36 2.4486-2.0739 2.8473-2.5644 2.8473-3.5021 0-1.9259-1.276-2.0722-5.2952-0.60702-8.0158 2.9222-15.5 0.92719-16.358-4.3605-0.16648-1.0259-0.09194-1.1969 0.67388-1.5458 0.77702-0.35403 1.1234-0.25685 3.5483 0.9957 2.6282 1.3576 2.7384 1.384 5.019 1.2023 1.2825-0.10214 2.9078-0.39153 3.6118-0.64308 1.415-0.50561 1.3426-0.17022 0.94653-4.3854-0.14947-1.5906-0.04891-2.5445 0.42742-4.0542l0.62287-1.9742-1.4172-1.3858c-2.6221-2.5641-4.5413-8.2499-4.1105-12.178l0.20092-1.8323-1.215-0.82082c-0.66826-0.45145-1.9336-1.2829-2.8119-1.8477s-1.6449-1.2788-1.7035-1.5868c-0.17616-0.92575 1.2209-0.67661 3.1404 0.56 0.95613 0.616 1.8513 1.12 1.9892 1.12 0.52371 0 0.21842-0.5876-0.57557-1.1078-1.8097-1.1858-3.3336-2.8175-3.3336-3.5694 0-0.41952 0.15714-0.76276 0.3492-0.76276s1.3034 0.792 2.4696 1.76c2.1655 1.7975 3.6033 2.357 2.9579 1.1512-0.1792-0.33484-0.9086-1.0704-1.6209-1.6345-1.3287-1.0524-2.397-2.6769-2.0886-3.176 0.35092-0.5678 1.5251 0.10462 2.8313 1.6214 1.5458 1.795 2.2795 1.939 3.7169 0.72953 1.1188-0.94143 1.2095-1.6581 0.53185-4.2035-0.88696-3.3316-2.7122-5.2046-5.0744-5.2069-1.5678-0.0016-5.8912 2.1584-7.4596 3.7268-0.64639 0.64639-1.6248 2.124-2.1743 3.2836-0.87984 1.8568-0.99902 2.4394-0.99902 4.8838 0 2.3037 0.11213 2.9258 0.65977 3.6602 1.396 1.8721 2.1777 2.1958 5.5881 2.3139 2.2196 0.07686 3.2743 0.24387 3.5367 0.56 0.64458 0.77668-0.22474 1.3467-2.4108 1.5808-7.6177 0.81578-10.923-4.5349-7.8592-12.722 1.1667-3.1178 3.0594-5.3255 5.9535-6.9445 3.1994-1.7897 5.3962-2.0756 7.632-0.9933 1.8572 0.89907 2.4908 1.8123 3.45 4.9727 0.86336 2.8447 1.3184 3.1738 3.1084 2.2482 1.1303-0.58451 1.1993-1.092 0.50166-3.6912-1.4759-5.4988 0.55282-9.2269 5.3264-9.7879 2.5272-0.29702 4.6224 0.46272 6.8231 2.474 3.1323 2.8627 4.3029 6.6834 3.2616 10.645-0.4176 1.5887-0.43039 2.0492-0.08 2.88 0.5998 1.4222 2.9293 4.2615 3.696 4.5049 0.76171 0.24176 0.82856 1.0248 0.16264 1.9052-1.0026 1.3256-0.38638 2.7388 1.1942 2.7388 1.2239 0 1.1861 0.9526-0.06602 1.6651-1.1678 0.66454-1.216 1.1326-0.15798 1.5349 1.1987 0.45575 0.97313 1.2327-0.56 1.9286-0.748 0.33953-1.144 0.61942-0.88 0.62198 1.1304 0.01095 10.325-2.2542 10.963-2.7006 1.023-0.71652 2.2596-0.60286 3.093 0.28427 0.40006 0.42585 1.1812 0.95356 1.7358 1.1727 2.0583 0.81327 2.1958 1.1007 1.9724 4.1233-0.28346 3.8358-0.44004 4.4461-1.2822 4.9979-0.42956 0.28146-2.7154 0.73618-5.4228 1.0788-2.5741 0.32571-4.8914 0.76751-5.1496 0.98179-0.59717 0.49561-0.59309 2.2222 0.01057 4.4712 0.74349 2.77 0.63797 3.5613-0.64 4.8-0.98108 0.9509-1.12 1.2808-1.12 2.6596 0 1.3648 0.13169 1.6862 0.99045 2.4172 2.9295 2.4938 3.1345 2.9696 1.5218 3.5318-0.55426 0.19322-2.7686 0.3513-4.9208 0.3513-3.2017 0-3.9906-0.0934-4.3393-0.51362-0.24711-0.29775-0.49894-1.6989-0.59918-3.3337-0.0951-1.551-0.27888-2.9259-0.40841-3.0552-0.33648-0.336-1.9991-0.24172-3.2983 0.18704-1.3152 0.43407-1.7456 1.1171-1.748 2.7744-9.82e-4 0.67157-0.14718 1.7445-0.32488 2.3842-0.39136 1.409-1.0434 1.7069-4.7642 2.1769-3.8856 0.49081-5.3603 0.44493-5.5979-0.17417zm8.7048-2.4299c0.2112-0.2112 0.384-1.1184 0.384-2.016s-0.1728-1.8048-0.384-2.016c-0.50526-0.50526-2.6508-0.49402-3.0535 0.016-0.36467 0.46187-0.76287 3.933-0.48326 4.2126 0.34688 0.34688 3.149 0.1911 3.5367-0.19662zm14.131-0.24136c0.39845-0.25203 0.37559-0.39688-0.15521-0.98341-0.4678-0.51691-0.65225-1.2772-0.74225-3.0595l-0.11976-2.3717h-1.2242c-1.9857 0-2.7863 0.46159-3.1648 1.8248-0.48131 1.7332-0.42023 3.3598 0.15711 4.184 0.43112 0.6155 0.78635 0.71054 2.64 0.7063 1.178-3e-3 2.3521-0.1379 2.6091-0.30046zm-26.406-4.1041c4.2726-1.4637 3.3043-2.4967-1.2511-1.3348-3.7911 0.96697-6.6312 0.79839-9.53-0.56567-2.1787-1.0252-2.6914-0.89525-1.5929 0.40381 1.488 1.7597 3.2452 2.3568 6.9529 2.3626 2.3064 0.0037 3.3861-0.16883 5.4211-0.86595zm15.012-2.1766c0.29006-0.11131 0.52738-0.46032 0.52738-0.7756 0-0.79658-1.9334-6.1431-2.4113-6.6682-0.32487-0.35691-1.0165-0.2347-4.0747 0.72-5.3511 1.6705-5.9517 1.552-5.2927-1.0441 0.41096-1.619 0.13896-2.8193-0.69915-3.0853-0.85056-0.26996-1.1742-0.02666-1.9267 1.4483-1.2922 2.5329-0.63363 5.7036 1.6613 7.9986 1.7882 1.7882 2.483 1.9561 7.3358 1.773 2.3939-0.09033 4.5899-0.25531 4.88-0.36662zm9.5861-1.7672c1.2657-0.19434 2.4813-0.49997 2.7013-0.67918 0.53766-0.43798 0.50366-1.7315-0.13278-5.0515-0.29303-1.5286-0.44444-3.0095-0.33648-3.2908 0.21136-0.5508 1.3444-0.89545 4.8763-1.4832 3.3305-0.55425 3.3054-0.52026 2.4302-3.2834-1.0354-3.2688-1.4106-3.7785-2.7819-3.7785-0.62148 0-2.4221 0.36329-4.0013 0.80731-1.5792 0.44402-3.5514 0.89325-4.3827 0.9983-0.83123 0.10504-1.8303 0.38975-2.2201 0.63269-0.38981 0.24294-0.78581 0.4417-0.88 0.4417-0.36948 0-0.12883-1.1415 0.85181-4.0404 0.979-2.894 1.0038-3.0892 0.57586-4.532-0.24597-0.82921-0.47518-2.0837-0.50936-2.7877-0.03418-0.704-0.07732-1.527-0.09586-1.8289-0.0483-0.7865-1.8199-2.7086-3.933-4.2671-6.5978-4.866-17.011-1.8635-19.558 5.6394-0.8145 2.3994-1.2353 6.3324-0.87866 8.2128 0.3539 1.8661 1.8725 5.0808 2.7926 5.9115 0.33369 0.30129 1.1774 0.78022 1.875 1.0643 0.69756 0.28407 1.9029 0.81735 2.6785 1.1851l1.4102 0.66857 4.5098-0.69991c2.4804-0.38495 5.1565-0.73274 5.947-0.77286 1.1209-0.05689 1.4625-0.20577 1.5518-0.67634 0.12039-0.634 0.2245-0.63403-2.3491 6.92e-4 -0.6485 0.15994-0.8 0.07843-0.8-0.4304 0-0.7595 0.67987-1.3911 2.4615-2.2867 1.4213-0.71448 2.2116-0.64123 2.4741 0.22934 0.1664 0.55186 0.82442 5.6389 0.82442 6.3734 0 0.23087 0.648 0.69753 1.44 1.037 1.6423 0.70399 1.6697 0.82009 0.92107 3.9056-0.47214 1.9459-0.45409 3.1344 0.04759 3.1344 0.10381 0 1.2243-0.159 2.49-0.35334zm-14.973-15.847c-0.31196-0.31196-0.4812-0.91045-0.42286-1.4954 0.11414-1.1443 0.74058-1.4983 0.98658-0.55759 0.39197 1.4989 2.1507 0.10468 2.1507-1.7049 0-0.66747-0.4127-1.3768-1.44-2.4751-0.792-0.84671-1.44-1.7598-1.44-2.0292 0-0.26933 0.58149-0.85677 1.2922-1.3054 1.2555-0.79255 1.5162-1.1857 2.115-3.1892 0.37383-1.2508 1.2063-1.3851 1.9117-0.30857 0.86073 1.3136 1.0293 5.9976 0.2668 7.4135-0.43696 0.81138-0.50687 1.2864-0.28303 1.9229 0.39404 1.1204 0.82599 1.0471 1.4538-0.2468l0.5165-1.0646 0.39279 0.73393c0.23374 0.43675 0.30915 1.1798 0.18624 1.835-0.26784 1.4277-1.3266 1.9737-2.7132 1.3994-0.90072-0.37309-1.0512-0.33056-2.1056 0.5952-1.2675 1.1129-2.0942 1.2503-2.8677 0.47687zm4.5767-7.3999c0.07374-0.5192-0.06013-0.72122-0.48-0.72437-0.32024-0.0024-0.90626-0.0912-1.3023-0.19732-0.87519-0.23454-0.96164 0.36429-0.17766 1.2306 0.71834 0.79376 1.8282 0.61885 1.9599-0.30889zm-9.7845 0.82975c-0.63306-0.63306-0.4441-2.5618 0.38279-3.9074l0.76057-1.2376 0.89012 1.3451c0.8601 1.2997 0.87459 1.39 0.42945 2.6776-0.35661 1.0315-0.64192 1.3537-1.2629 1.4263-0.44124 0.05156-0.98124-0.08524-1.2-0.304zm15.394 21.912c0.12026-0.12026-0.21574-0.40131-0.74667-0.62455-1.267-0.53274-1.2177-0.90943 0.23937-1.8292 1.6004-1.0103 2.1928-1.7381 1.7638-2.167-0.22982-0.22982-0.7351-0.1269-1.6377 0.33356-1.6392 0.83624-2.4402 0.87582-2.1434 0.10593 0.51125-1.326 0.92355-3.2757 0.73301-3.4662-0.3808-0.3808-2.4005 1.1405-2.8024 2.111-0.45219 1.0917-0.27773 2.3107 0.62173 4.344 0.6152 1.3908 0.64693 1.4112 2.1889 1.4112 0.86056 0 1.6631-0.0984 1.7833-0.21866zm-5.6937-7.5952c0.34136-0.24961 0.54888-0.51751 0.46116-0.59533-0.08772-0.07782-1.137-0.22869-2.3316-0.33526-2.3301-0.20785-2.5961 0.11988-0.74944 0.9235 1.2939 0.56308 1.8575 0.56461 2.6199 0.0071zm23.926-2.9567c0.11581-0.11581 0.0479-0.40651-0.15083-0.646-0.2744-0.33062-0.23521-0.57487 0.16278-1.0146 0.65322-0.72181 0.66968-1.293 0.0442-1.5331-0.75586-0.29005-0.56454-0.99406 0.48-1.7663 0.528-0.39037 0.96-0.83481 0.96-0.98765s-0.828-0.23376-1.84-0.17982c-1.8333 0.09771-1.8404 0.09455-1.9446-0.86193-0.16071-1.4747-0.58601-1.621-1.0067-0.34634-0.9109 2.76 1.8111 8.8198 3.2952 7.3358zm-20.165-25.069c1.1914-2.3064 0.02062-6.2837-2.5463-8.6498-2.4893-2.2945-4.7835-2.7987-7.1776-1.5773-2.1435 1.0936-2.6023 2.1769-2.4337 5.7471 0.07898 1.672 0.24586 3.2865 0.37084 3.5878 0.27842 0.67122 1.2295 1.0047 2.0881 0.73218 0.55892-0.1774 0.64-0.48417 0.64-2.4216 0-1.6818 0.10772-2.2184 0.44531-2.2184 0.47007 0 0.62662 0.4526 1.0515 3.04l0.26274 1.6 0.16023-2.08c0.12051-1.5643 0.27923-2.08 0.64023-2.08 0.33629 0 0.57982 0.57485 0.81342 1.92l0.33342 1.92 0.30658-1.4142c0.46338-2.1375 1.0311-2.012 1.291 0.28537 0.16556 1.4633 0.39053 2.0723 0.89822 2.4312 1.0898 0.77037 2.198 0.45128 2.8559-0.82229zm8.5458 5.6047-0.76656-0.81596 1.3407-1.3661c1.2562-1.28 1.3068-1.4 0.80253-1.9043-0.50429-0.50429-0.64448-0.47742-2.2239 0.42626l-1.6857 0.96448-0.50798-0.98234c-0.50322-0.97312-0.49864-0.98751 0.48825-1.5345 2.0186-1.1188 1.9767-1.02 1.2455-2.9394-0.91816-2.41-1.1257-5.4864-0.52398-7.7688l0.48402-1.8361-1.2352-0.33259c-2.898-0.78036-5.3615-3.8271-5.6672-7.0091-0.53878-5.6072 5.1571-10.066 10.466-8.1928 2.859 1.0087 4.9599 3.4636 5.3265 6.224l0.19426 1.4628h6.0184l-1e-5 -1.0503c-4e-5 -2.2232 1.8903-4.9725 4.2897-6.2391 1.7032-0.89903 5.2443-0.96458 6.9447-0.12857 4.0828 2.0073 5.7085 6.7501 3.7123 10.83-0.98702 2.0174-2.4173 3.2717-4.565 4.0035-1.0838 0.36929-1.4022 0.62292-1.278 1.018 0.95078 3.0242 0.88801 6.0227-0.18518 8.8462-0.68432 1.8004-0.64839 1.8695 1.6187 3.1122 0.99895 0.54758 1.0031 0.56032 0.49933 1.5345l-0.50799 0.98234-1.773-1.0144c-1.6351-0.93548-1.8133-0.97402-2.2919-0.49548s-0.40934 0.63056 0.88976 1.9542l1.4087 1.4353-0.76322 0.81241-0.76323 0.81241-2.957-2.9125-1.7394 0.79269c-3.522 1.6051-7.5866 1.639-10.967 0.09157l-1.733-0.7934-2.8287 2.8287zm6.5702-9.9101c1.111-1.111 1.0845-2.9882-0.05818-4.1309-2.5999-2.5999-6.632 1.3717-4.1316 4.0696 1.0723 1.1571 3.0649 1.1862 4.1898 0.06127zm12.437-0.1991c0.94937-1.1283 1.0287-1.8599 0.34514-3.1819-1.3243-2.5608-5.021-1.8969-5.4792 0.98411-0.14709 0.92474-0.0199 1.3291 0.67924 2.16 0.72312 0.85937 1.0806 1.0223 2.2433 1.0223 1.1516 0 1.5218-0.16479 2.2116-0.98455z" fill="#060505"/></g></g></svg>
