<?xml version="1.0" encoding="UTF-8"?>
<svg width="164.26" height="164.26" version="1.1" viewBox="0 0 164.27 164.26" xmlns="http://www.w3.org/2000/svg"><g transform="translate(-.21531)"><g transform="translate(0 27.892)"><path d="m0.42733 91.44c0.11661-9.372 0.22089-20.28 0.23173-24.24l0.01971-7.2 7.1942-5.76c3.9568-3.168 7.4743-5.976 7.8166-6.24 0.6151-0.47433 0.60944-0.65388-0.47943-15.2-0.60603-8.096-1.1917-15.62-1.3015-16.72l-0.19958-2h13.491v12.16c0 6.688 0.09208 12.16 0.20461 12.16 0.11254 0 1.1849-0.792 2.3829-1.76s2.2741-1.76 2.3911-1.76c0.11703 0 1.5789 0.94585 3.2485 2.1019 1.6697 1.156 3.1063 2.0313 3.1926 1.945 0.08626-0.08626-0.12297-6.4681-0.46496-14.182s-0.60385-14.052-0.58191-14.085c0.02194-0.03285 3.2395 0.74073 7.1502 1.7191l7.1103 1.7788 0.0833 14.091 0.0833 14.091 2.8518-3.2503c1.5685-1.7876 2.9501-3.2503 3.0702-3.2503s3.1568 4.4114 6.7482 9.803l6.5298 9.803 0.16 3.717 0.16 3.717 4.2362 0.18734 0.86705 3.2663c0.47687 1.7965 1.0878 4.0425 1.3576 4.9912l0.49059 1.7248 3.3766-0.2183c1.8572-0.12007 3.4971-0.29274 3.6443-0.38371 0.14719-0.09097 0.26762-2.2449 0.26762-4.7865v-4.6211h8.96v2.9931c0 1.6462 0.09251 3.8782 0.20559 4.96l0.20559 1.9669h9.4389l0.23431-6.2491c0.20819-5.5526 0.29234-6.2326 0.75496-6.101 3.0874 0.87821 7.7785 2.1101 8.0354 2.1101 0.21066 0 0.32959-2.6212 0.33754-7.44l0.0123-7.44 4.1334-5.12 1e-3 -21.36 1e-3 -21.36h13.44v1.569c0 0.86293-0.29031 7.0046-0.64513 13.648-0.35483 6.6436-0.60545 12.119-0.55694 12.167 0.0485 0.04851 1.9436-2.2108 4.2114-5.0207l4.1232-5.1089 0.86373 1.0346 0.86372 1.0346 0.20468-3.1821c0.11258-1.7502 0.30044-5.3781 0.41748-8.0621l0.2128-4.88h12.385l5e-3 16.4 5e-3 16.4 10.871 13.603v58.877h-164.27z" fill="#f9e363"/><path d="m109.07 104.61c-0.46886-0.18061-0.96228-0.57251-1.0965-0.87089s-0.27311-3.506-0.30868-7.128c-0.0356-3.622-0.16935-6.934-0.29729-7.36-0.12795-0.42595-0.72457-1.5003-1.3258-2.3874-1.9012-2.805-2.229-8.0595-0.62335-9.9904 1.393-1.6752 1.5303-2.2121 1.2932-5.0587l-0.2237-2.6855 0.914-0.3475c1.2952-0.49242 2.9054-0.10797 3.528 0.84238 0.42082 0.64226 0.48351 1.2779 0.32202 3.265-0.11028 1.3571-0.0723 2.6698 0.0844 2.9169 0.22852 0.36038 0.89214 0.4067 3.3508 0.23387 3.3912-0.23838 4.4901-0.539 4.7856-1.3093 0.1087-0.28326-0.17759-1.9716-0.63619-3.7518-0.7117-2.7627-0.81251-3.7162-0.68826-6.51 0.12969-2.9161 0.268-3.531 1.2675-5.6358 1.1647-2.4525 1.9573-3.3991 4.6481-5.5508 0.87653-0.70093 1.841-1.6023 2.1434-2.0031 0.60737-0.8052 1.1504-3.584 1.1532-5.9016 5e-3 -4.1675 2.0677-9.6358 4.693-12.442 1.788-1.9116 2.8656-2.5385 4.3634-2.5385 2.99 0 3.8129 4.5533 2.371 13.12-0.3999 2.376-0.67415 4.58-0.60943 4.8977 0.25126 1.2336 0.81522 0.21351 1.8294-3.3093 2.3667-8.2203 4.4662-12.343 6.9359-13.62 1.2128-0.62715 2.4935-0.34914 3.535 0.76734 1.1615 1.2451 1.5991 2.9483 1.5669 6.0978-0.0299 2.9263-0.47881 4.9819-2.6003 11.907-1.729 5.6437-1.7572 5.8941-1.0108 8.9797 0.3566 1.4742 0.73145 3.2956 0.83301 4.0477 0.25298 1.8733-0.3191 5.1639-1.2726 7.3199-0.43596 0.9858-0.79266 2.1125-0.79266 2.5037 0 0.41294 0.88215 1.7452 2.1029 3.176 3.2328 3.7888 3.6514 5.3771 2.2248 8.4414-0.43231 0.92859-1.7106 2.8726-2.8406 4.32-2.7862 3.5688-3.5671 5.1308-3.5671 7.135 0 1.2846 0.20036 1.9106 0.96 2.9997 1.8563 2.6614 2.1289 3.1989 1.9337 3.8136-0.26304 0.82877-1.1918 1.0234-3.8537 0.80753-4.5933-0.37249-5.5838-1.1764-5.627-4.5674-0.0412-3.2321-0.44008-5.8093-0.95247-6.1544-0.82757-0.55738-3.1859-0.10245-4.0743 0.78594-0.79638 0.79638-0.81666 0.92273-0.75113 4.6787 0.0655 3.7559 0.0476 3.8677-0.66385 4.1354-1.001 0.37668-7.4068 0.78554-8.2273 0.52512-1.1622-0.36887-0.76579-1.4317 1.2561-3.3676 2.7404-2.6238 2.6131-4.16-0.34482-4.16-2.0558 0-2.2666-0.35899-2.1514-3.6634 0.11543-3.3104-0.0362-3.479-2.5817-2.8703-0.99115 0.23701-2.7453 0.43605-3.8981 0.44232-1.1885 0.0065-2.2623 0.17766-2.48 0.3954-0.27449 0.27449-0.384 2.3166-0.384 7.1608 0 5.5526-0.0845 6.8469-0.46745 7.1648-0.64272 0.53341-2.713 0.70135-3.745 0.30381zm2.2576-2.4682c0.19471-0.36381 0.20135-2.2727 0.0181-5.2-0.46429-7.4162-0.66687-8.2385-1.7985-7.2993-0.44486 0.3692-0.47883 1.1296-0.27625 6.1842 0.12704 3.1698 0.36667 6.0167 0.53251 6.3266 0.38903 0.72691 1.132 0.72134 1.5241-0.0114zm33.955-0.66599c0-0.15445-0.23882-0.47845-0.53072-0.72-0.96437-0.79806-1.6949-2.9161-1.7023-4.9352-7e-3 -2.0328-0.35633-2.704-1.4058-2.704-1.3685 0-1.8012 0.87892-1.8012 3.6584 0 2.9274 0.39663 3.8061 2.041 4.5218 1.1236 0.48904 3.399 0.60886 3.399 0.179zm-14.381-1.1826c0.46245-0.55722 0.10314-5.7831-0.41984-6.1064-0.69292-0.42824-1.5196 1.1735-1.5196 2.9443 0 0.93704-0.14988 2.0979-0.33306 2.5797-0.50752 1.3349-0.20897 1.7698 0.93999 1.3692 0.52575-0.18328 1.1254-0.5374 1.3325-0.78694zm-0.39531-8.1701c2.7588-0.72241 5.1959-1.46 5.4159-1.6392 0.59851-0.48735 0.48243-1.4607-0.21897-1.8361-0.35027-0.18746-2.7713-0.33126-5.5771-0.33126-5.8766 0-5.9639 0.04173-5.9639 2.8495 0 1.0141 0.096 1.9398 0.21333 2.0571 0.36181 0.36181 0.95288 0.25574 6.1308-1.1001zm11.086-2.5105c0.22677-0.36692-0.57762-0.82036-1.9953-1.1248-1.0301-0.22119-1.0398-0.21248-0.66864 0.60214 0.29354 0.64426 0.60817 0.82658 1.4264 0.82658 0.57736 0 1.1343-0.13678 1.2376-0.30394zm4.6507-0.49647c1.081-0.559 2.5799-2.6284 3.7414-5.1656 0.72001-1.5727 0.77466-1.929 0.45804-2.9857-0.40703-1.3586-2.8813-3.8548-4.663-4.7044l-1.1361-0.54176-2.9606 1.5564c-2.394 1.2585-3.2789 1.5607-4.624 1.579-1.9023 0.02584-2.7601-0.50157-2.0029-1.2315 0.25646-0.24722 1.534-0.76334 2.839-1.147s2.889-1.0241 3.52-1.4233c1.812-1.1463 3.834-3.5549 4.9347-5.8782 0.92685-1.9564 1.0126-2.4086 1.0126-5.3375 0-2.8571-0.096-3.3955-0.89612-5.0248-1.1577-2.3576-3.2633-4.2127-6.7836-5.9768l-2.797-1.4016-3.0109 0.15749c-2.6625 0.13927-3.2915 0.29616-5.4362 1.3562-2.9727 1.4692-5.7359 4.1275-7.0301 6.7635-0.90427 1.8417-0.92608 2.0067-0.92608 7.0061 0 5.6471 0.13668 6.1675 2.1487 8.1795 1.4071 1.4071 3.7508 2.413 6.6336 2.847 3.2025 0.48217 4.1403 1.2724 2.3376 1.9698-0.62397 0.24141-1.5015 0.23937-3.0162-7e-3 -1.1749-0.19112-2.3528-0.26435-2.6176-0.16274-0.56417 0.21649-1.1662 1.7765-1.1662 3.022 0 1.6371 0.42268 1.7221 6.7114 1.3502 6.5902-0.38976 7.1717-0.59603 8.4853-3.0094 0.92908-1.707 1.8677-2.5093 2.9356-2.5093 1.1966 0 1.1521 0.55564-0.18618 2.3282-2.5944 3.4362-2.6644 4.5207-0.45049 6.9712 1.7142 1.8974 2.4854 2.175 3.9452 1.4201zm-17.727-15.706c-0.10683-0.2784-0.19423-1.2365-0.19423-2.1291 0-1.9447-1.264-4.8822-2.2069-5.1288-0.84028-0.21974-1.537-2.5106-1.1223-3.6899 0.62576-1.7793 2.0227-1.1016 2.7007 1.3102 0.30002 1.0673 0.42805 1.1856 1.0452 0.96562 1.0984-0.39146 2.8081-0.25839 3.1256 0.24326 0.15834 0.25017 0.29009 1.176 0.29279 2.0574 3e-3 1.088 0.26177 2.0851 0.8049 3.1053 1.3174 2.4747 0.98727 3.3211-0.95096 2.438-0.72363-0.3297-0.92688-0.27274-1.7126 0.48-1.0194 0.97664-1.5046 1.0714-1.7822 0.34793zm6.9055-9.5018c-0.18623-0.2244-0.43624-1.144-0.55558-2.0436-0.18692-1.4091-0.12329-1.7293 0.45943-2.312 1.3359-1.3359 2.5234-0.58836 2.8019 1.7638 0.16571 1.3997 0.0945 1.7398-0.48567 2.32-0.76541 0.76541-1.7141 0.88158-2.2201 0.27185zm-15.292 23.115c2.5714-0.79424 2.9738-1.3284 3.3846-4.4938 0.49379-3.8044 0.43785-4.366-0.4958-4.9778-0.74167-0.48596-1.1314-0.49977-3.92-0.13889-6.1636 0.79765-6.1123 0.74499-5.1611 5.3001 0.66261 3.173 1.0672 4.2878 1.7126 4.7187 0.62247 0.41564 2.3099 0.26181 4.4797-0.40836zm-9.4605-1.2236c0.17843-1.2611-0.46887-1.5199-1.0399-0.41575-0.66263 1.2814-0.64342 1.3965 0.21277 1.2749 0.47498-0.06746 0.75644-0.35983 0.82709-0.85916zm-2.0519-2.6776c1.6479-1.8838 1.751-2.1655 0.79282-2.1655-0.96362 0-2.848 1.9902-2.848 3.008 0 0.4576 0.13283 0.832 0.29518 0.832s0.95435-0.75353 1.76-1.6745zm1.1448-10.165c0-2.2746-0.40085-2.9107-0.94022-1.492-0.32149 0.84558 0.17824 3.732 0.64613 3.732 0.16175 0 0.29409-1.008 0.29409-2.24zm37.215-20.164c2.813-8.5923 3.2159-10.322 3.2407-13.916 0.0261-3.7826-0.38887-5.4341-1.4501-5.7709-1.0529-0.33416-1.72 0.12082-2.807 1.9144-2.6382 4.353-4.8386 10.909-4.8386 14.417 0 1.7271 0.10452 2.0567 0.88 2.7751 1.3826 1.2808 3.3935 2.5259 3.92 2.4271 0.26448-0.04966 0.73815-0.87863 1.055-1.8463zm-12.356-3.0515c0.56031-0.22784 1.2374-0.83709 1.5047-1.3539 0.84814-1.6401 1.7978-7.1725 1.7785-10.361-0.031-5.1373-0.89737-6.2754-3.4774-4.568-2.3337 1.5444-4.0963 5.1926-4.9959 10.34-0.57125 3.269-0.60242 5.8563-0.0769 6.3819 0.46819 0.46819 3.6978 0.19894 5.267-0.43911zm-102.58 35.989c-3.9384-0.77346-7.9842-3.8284-9.5238-7.1913-2.1728-4.7459-1.2684-9.7819 2.4655-13.73l1.5513-1.6403-0.94403-3.0111c-1.3731-4.3798-1.8304-7.901-1.2306-9.4768 0.53185-1.3974 2.1896-2.6851 3.4544-2.6833 1.2364 0.0018 2.891 1.1489 3.3942 2.353 0.38761 0.92768 1.1059 7.089 1.1152 9.5658l0.0033 0.88h5.3461l0.2222-3.7167c0.3238-5.416 0.6464-6.8373 1.7877-7.8766 1.6492-1.5017 3.195-1.5564 4.9003-0.17354 1.7813 1.4445 1.742 4.842-0.12664 10.967l-0.9763 3.2 1.6561 1.713c0.91088 0.94213 2.0374 2.5261 2.5033 3.52 0.73955 1.5774 0.84712 2.2137 0.84652 5.007-6.36e-4 2.9643-0.0746 3.3414-1.0043 5.12-1.1232 2.1487-3.8003 4.8616-5.8084 5.886-2.7528 1.4044-6.4925 1.9044-9.6319 1.2879zm-1.0833-10.845c1.2228-0.74558 1.5928-1.8949 1.0398-3.23-1.1818-2.8531-5.7681-2.0885-5.741 0.95708 0.02223 2.4996 2.4246 3.6611 4.7012 2.2729zm11.904-0.19718c2.5983-2.1863-0.38473-6.0602-3.4471-4.4766-1.8937 0.97925-2.2036 2.879-0.71298 4.3696 1.226 1.226 2.7826 1.266 4.1601 0.10694z" fill="#050505"/></g></g></svg>
