<?xml version="1.0" encoding="UTF-8"?>
<svg width="393.9" height="393.9" version="1.1" viewBox="0 0 393.9 393.9" xmlns="http://www.w3.org/2000/svg"><g transform="translate(-12.804 -13.099)"><g transform="translate(80.615)"><path d="m15.523 394.25c0.69342-8.3578 1.6467-13.852 2.7672-15.95 2.7867-5.2172 2.2415-8.6788-1.8887-11.992l-3.5981-2.8865 9.7669-6.0714 3.2923-25.925c1.8107-14.259 4.1715-32.225 5.2462-39.925s2.2334-17.293 2.5748-21.317l0.62086-7.317-5.8711-5.933c-6.535-6.6039-6.4918-7.4451 0.14766-2.877l4.4417 3.056 1.8437-4.306c2.8369-6.6257 2.9418-7.1563 5.1041-25.806 1.1159-9.625 2.2823-19.121 2.592-21.102 0.55574-3.5555 0.50432-3.6189-3.9498-4.866-5.5943-1.5663-8.4927-4.4149-6.9598-6.8402 0.84296-1.3337 2.2462-1.62 6.6336-1.3539l5.5644 0.33757 0.53781-4.3376c0.55199-4.452 3.7309-34.136 5.6584-52.838 0.59522-5.775 1.3192-12.118 1.6089-14.096 0.4992-3.4089 0.22208-3.839-5.3148-8.2494-3.2128-2.5592-7.8665-5.377-10.341-6.2618-10.824-3.8695-10-3.1792-10-8.3789 0-3.3908-0.63518-5.5513-2.2271-7.5751-1.9937-2.5346-2.2678-4.2261-2.6161-16.144-0.24683-8.4465 0.21353-18.518 1.2594-27.554 3.8041-32.864 3.818-32.918 7.742-29.831 2.6848 2.1118 4.1142 5.4193 8.2506 19.09 1.4145 4.675 3.8137 11.086 5.3315 14.248l2.7597 5.7477 163.47 0.0046 2.4912-3.7645c1.4837-2.242 4.4752-11.038 7.3969-21.75 4.2207-15.474 5.1942-18.029 6.9714-18.298 6.6152-1.0017 9.4619 6.1993 14.575 36.87 0.87639 5.2566 1.6077 12.232 1.6252 15.5 0.0174 3.2684 0.67011 10.409 1.4504 15.868 0.78027 5.4592 1.1855 10.303 0.90044 10.764-0.99646 1.6123-8.3609 4.8263-13.599 5.935-6.8056 1.4404-9.935 3.0783-13.125 6.8701-3.4178 4.0618-4.6452 8.8745-4.652 18.24l-6e-3 7.7354 5.0727-1.9995c5.509-2.1715 6.9273-1.9353 6.9273 1.1534 0 3.3599-1.738 5.5425-6.984 8.7704l-5.0156 3.0864 0.0272 5.7592c0.015 3.1676 0.44451 12.509 0.95451 20.759s1.4579 24.45 2.1064 36 1.3303 21.174 1.5151 21.386c0.18478 0.21242 2.5706-0.57508 5.3018-1.75 2.7312-1.1749 5.4449-2.1362 6.0304-2.1362s1.0646 1.7495 1.0646 3.8878c0 3.6715-0.31989 4.0773-5.75 7.2931-5.6278 3.3329-5.7566 3.5088-6.0616 8.279-0.17138 2.6805 0.39192 9.1862 1.2518 14.457s2.2296 17.728 3.0438 27.682c1.4348 17.542 2.4686 26.39 4.5452 38.901 0.54773 3.3 1.2295 7.4299 1.515 9.1775 0.40809 2.4977 1.1298 3.3116 3.3733 3.8044 2.1448 0.47107 3.0006 1.359 3.4433 3.5725 0.34311 1.7156 1.2259 2.9456 2.1141 2.9456 1.025 0 1.525 0.97562 1.525 2.9758 0 2.1515-1.004 3.8827-3.6246 6.25l-3.6246 3.2742 0.61286 10.213c0.33707 5.6172 1.5502 14.54 2.6959 19.828 1.5664 7.2301 1.9125 11.207 1.3953 16.037l-0.68775 6.4224h-222.3z" fill="#443734"/><path d="m102.45 81c-3.8386 0-8.9428 6.6181-11.865 15.387-0.58449 1.7537-0.75456 1.7713-2.4355 0.25-2.4034-2.175-4.3385-2.0636-7.5156 0.43555-2.148 1.6896-2.6348 2.9034-2.6348 6.5664 0 2.4712 0.50236 5.429 1.1152 6.5742 1.0415 1.946 0.91104 2.0428-1.9883 1.4629-2.7199-0.54398-3.1811-0.30797-3.7383 1.9121-0.64322 2.5628-0.09017 9.6594 0.9668 12.412 0.37305 0.97157-0.55792 2.2095-2.6406 3.5137-4.3905 2.7493-4.6212 6.0692-0.76172 10.926 3.4578 4.3511 3.6561 5.1125 1.5469 5.9219-3.2066 1.2305-1.6837 5.847 3.5117 10.648 4.4735 4.1342 4.9437 4.9631 4.3926 7.7188-0.51476 2.5738-0.19039 3.365 1.9531 4.7695 1.4139 0.92641 5.3548 1.9375 8.7578 2.2461 5.1533 0.46729 5.9126 0.76372 4.5371 1.7695-4.4964 3.2879 0.20348 5.8168 11.348 6.1055 4.675 0.12111 11.2 0.64768 14.5 1.1699 8.4238 1.3331 13.086 1.3628 20 0.12891 3.3-0.58891 10.133-1.1657 15.186-1.2812 7.4568-0.1706 9.5844-0.57013 11.305-2.127l2.1192-1.918-2.3047-1.7734c-2.3034-1.7723-2.3028-1.7747 2.4766-1.7969 8.5552-0.0398 15.3-4.261 12.912-8.084-1.0384-1.6628-0.50023-2.5689 4.3086-7.2266 5.9576-5.7704 6.5445-7.4538 3.541-10.172-1.9304-1.747-1.9099-1.833 1.5-6.2988 1.9014-2.4902 3.457-4.8533 3.457-5.25 0-1.436-4.0974-5.8858-5.9648-6.4785-1.7785-0.56448-1.8151-0.88387-0.52344-4.5449 0.92087-2.61 1.1419-5.3739 0.65625-8.2012-0.68183-3.969-0.93084-4.2423-3.5918-3.9258-2.4387 0.29009-2.7488 0.0695-2.1074-1.5 0.41362-1.0121 0.97322-3.6438 1.2441-5.8496 0.41729-3.3974 0.0745-4.4294-2.2461-6.75-3.0542-3.0542-6.5564-3.5419-8.5137-1.1836-1.1145 1.3429-1.6148 0.76911-3.625-4.1719-3.2838-8.0713-8.1678-12.945-10.568-10.545-0.70109 0.70108-0.0339 2.7839 2.1074 6.5781 3.6898 6.538 3.7586 6.9153 1.127 6.0801-5.3306-1.6919-2.2852 7.9752 5.002 15.881 4.5671 4.9548 4.8004 5.6211 1.9727 5.6211-4.15 0-3.4467 5.2514 1.623 12.123 1.6624 2.2533 2.0521 3.4783 1.2617 3.9668-1.1502 0.71089-0.76703 6.632 0.6582 10.168 0.56576 1.4036 0.24723 1.7058-1.5801 1.5-2.9786-0.33544-4.6758 2.9391-5.4805 10.572-0.57668 5.4707-0.72249 5.7331-2.3613 4.25-3.5414-3.2049-5.0496-1.0826-5.0762 7.1445-0.0132 4.075-0.11132 4.2051-2.7676 3.6738-2.3862-0.47724-3.1732 0.043-5.8867 3.8926-3.7282 5.2892-6.1029 5.9606-20.641 5.8242-14.203-0.13331-15.046-0.43331-19.639-6.9629-1.9917-2.8315-2.7955-3.2596-5.2168-2.7754l-2.8633 0.57227v-5.916c0-6.5451-1.1528-8.1097-4.043-5.4941-2.265 2.0498-2.4801 1.6416-3.4336-6.4629-0.82729-7.0315-2.0718-9.354-4.584-8.5566-2.271 0.7208-2.2754 0.69857-0.82031-5.0801 0.83572-3.3189 0.82793-4.7972-0.0293-5.8301-0.89518-1.0786-0.46118-2.488 1.9648-6.3906 3.588-5.7718 3.6532-9.5472 0.17383-10.041-2.1813-0.30957-2.1197-0.49439 1.5352-4.6465 4.8041-5.4577 9.5903-14.168 8.8477-16.104-0.39753-1.036-1.3435-1.2826-3.1699-0.82422l-2.6035 0.6543 3.0801-5.459c2.8175-4.9923 3.9142-8.7988 2.5332-8.7988zm52.152 28.424c-0.0211-2e-3 -0.0424 2e-3 -0.0645 0.0117-0.57124 0.25369-3.6254 1.2728-6.7871 2.2637s-5.7492 2.3791-5.75 3.0859c-1e-3 1.0009 0.46829 1.0331 2.125 0.14648 3.583-1.9176 4.0338 0.38135 3.334 16.982-0.69716 16.539-0.95492 18.086-3.0097 18.086-0.7337 0-1.5419 0.3375-1.7969 0.75-0.5512 0.8918 17.168 0.76152 18.062-0.13281 0.33897-0.33897-0.30342-0.61719-1.4277-0.61719-4.2003 0-4.5539-1.8869-4.1211-22.01 0.26924-12.518 0.0888-18.49-0.56445-18.566zm-39.604 5.5762v13h-14.127l0.31445 3.25 0.3125 3.25 6.75 0.29492 6.75 0.29688v12.908h6v-13h13v-7h-13v-13h-3zm-15.062 77c-3.4041 0-3.9375 1.3672-3.9375 10.082v6.918h-25v-3.8457c0-5.2377-2.8953-7.9785-6.6289-6.2774-2.4441 1.1136-2.5768 1.5126-1.9883 5.9492 0.61993 4.6732 0.57559 4.7729-2.541 5.7148-1.7445 0.52729-3.6141 1.6773-4.1543 2.5547-1.7152 2.7861 0.08461 6.8293 3.8379 8.6191 3.4679 1.6537 3.4746 1.6662 3.4746 8.5352 0 7.9164-0.9402 10.267-4.459 11.15-5.1192 1.2848-3.6694 9.5996 1.6738 9.5996 1.5903 0 1.8547 0.62015 1.5957 3.75l-0.31055 3.75-5.5-0.30469c-3.5566-0.19764-6.1665 0.18506-7.3848 1.084-1.7017 1.2557-1.7487 1.6711-0.48828 4.3047 1.2071 2.5221 2.1719 3.033 7.1445 3.7812 7.1921 1.0822 7.3459 1.5502 6.0703 18.527-0.52098 6.9339-0.62295 13.826-0.22656 15.314 1.0864 4.08 0.03684 6.5052-3.791 8.7637-4.4554 2.6288-4.2623 5.896 0.4707 7.9785 3.2182 1.416 3.2872 1.577 3 7l-0.29492 5.5508-3.75 0.31055c-3.1124 0.25759-3.75 0.68717-3.75 2.5273 0 3.1028 2.4914 6.3172 5.4766 7.0664 2.4846 0.6236 2.5234 0.78525 2.5234 10.508 0 10.881-0.12335 11.088-6.6133 11.088-4.2154 0-4.9946 1.6084-3.043 6.2793 1.2182 2.9156 2.1218 3.624 5.3125 4.1641l3.8438 0.65039 0.30078 12.162c0.1662 6.7035 0.78283 12.742 1.373 13.453 1.418 1.7086 3.8929 1.6337 6.5098-0.19921 2.03-1.4219 2.1029-2.0561 1.5684-13.658l-0.56055-12.166 2.4043 0.65039c1.3224 0.35771 5.2511 1.1561 8.7305 1.7734l6.3262 1.123-2.8027 2.9238c-1.5414 1.6088-4.9507 4.3035-7.5762 5.9883-3.3999 2.1817-4.7734 3.7188-4.7734 5.3379 0 7.5073 9.9247 4.35 19.539-6.2148 4.1433-4.5529 5.4317-5.4124 7.248-4.8359 2.9868 0.94797 3.6864 4.4984 1.7852 9.0488-0.86502 2.0703-1.5723 4.5823-1.5723 5.584 0 2.2096 3.6443 4.9356 6.5996 4.9356 3.6452 0 4.8501-2.6058 4.627-10.01-0.15742-5.2227 0.13891-6.9156 1.2852-7.3555 1.9996-0.76732 1.9906-7.973-0.0117-9.6348-2.7009-2.2415-1.717-4.7156 2.75-6.9141 2.3375-1.1504 5.5337-3.9127 7.1016-6.1387 1.5678-2.226 3.215-3.911 3.6621-3.7461 0.44705 0.16489 4.53 3.6738 9.0723 7.7988 4.5422 4.125 10.291 9.075 12.775 11 5.0399 3.9051 8.8129 7.5055 14.43 13.771 2.0846 2.3256 4.1138 4.2285 4.5098 4.2285 1.1381 0 6.1992-4.9718 6.1992-6.0898 0-3.6798-6.9426-11.398-13-14.451-4.6241-2.3308-11.251-7.7409-30.34-24.773-8.7122-7.7735-16.445-15.303-17.184-16.732-0.73907-1.4292-2.0489-3.1836-2.9102-3.8984-2.165-1.7968-2.1364-12.256 0.043-15.582 0.90745-1.3849 1.3191-3.2241 0.94335-4.2148-0.75837-1.9998 2.6804 1.1382 24.447 22.318 8.525 8.2952 18.292 17.195 21.705 19.777 3.4131 2.5821 8.9324 8.0307 12.264 12.107 3.3312 4.0767 6.9824 7.7068 8.1152 8.0664 2.9752 0.94429 6.6922-0.24233 7.9141-2.5254 1.5692-2.932-2.1856-9.7651-6.3145-11.49-5.3446-2.2331-23.184-17.845-23.184-20.289 0-3.7918 35.298-38.223 39.186-38.223 1.7105 0 4.0105-3.3451 4.6562-6.7715 1.0806-5.7339-3.4722-8.4571-8.9551-5.3574-0.96153 0.5436-12.257 12.327-30.799 32.129-2.8326 3.025-7.2254 6.5985-9.7617 7.9414l-4.6133 2.4414-6.1113-5.2949-6.1133-5.2969 3.9082-4.668c7.1099-8.4919 32.55-32.521 40.891-38.623 8.3129-6.0818 9.0202-7.2486 7.2383-11.936-0.74328-1.955-1.6789-2.5644-3.9316-2.5644-2.502 0-6.2427 3.2285-24.359 21.023-20.499 20.135-27.018 25.864-31.096 27.33-1.4238 0.51187-3.831-1.2541-10.25-7.5195l-8.3887-8.1894v-6.8457c0-6.3837 0.16928-6.9127 2.5-7.7988 1.7314-0.65829 2.5-1.7067 2.5-3.4102 0-3.6617-1.7552-7.5898-3.3906-7.5898-1.0583 0-1.6163-1.9197-2.1113-7.25-0.37032-3.9875-0.52186-8.7873-0.33594-10.666 0.30033-3.0351 0.78386-3.5392 4.3379-4.5273 4.3912-1.2209 5.5434-3.7396 3.4766-7.6016-0.94255-1.7612-1.8624-2.0804-5.1016-1.7715l-3.9512 0.37696 0.28711-7.5293 0.28906-7.5293 3.6055 0.3125c3.5933 0.31234 3.6065 0.29859 4.2441-4.3535 0.77022-5.6194 0.35268-6.4609-3.209-6.4609-4.0551 0-5.1505-1.6498-4.457-6.709 0.7871-5.7425-1.0261-9.291-4.7461-9.291zm-10.215 26.539c3.264 0.0139 5.4719 0.20816 5.8965 0.56055 1.4239 1.1818 2.8814 13.812 1.7227 14.93-0.46268 0.44626-6.1082 1.7467-12.545 2.8906-6.4367 1.1439-12.399 2.0801-13.25 2.0801-1.7414 0-1.9126-2.4747-0.9082-13.107l0.62305-6.6074 11.602-0.57227c2.5618-0.12617 4.901-0.18218 6.8594-0.17383zm3.9199 26.463c5.0584-0.00167 5.3574 0.61567 5.3574 11.08 0 9.1767 1.2328 8.5959-13.5 6.3555-17.047-2.5923-15.5-1.8587-15.5-7.3613 0-2.8958 0.55524-5.292 1.3848-5.9805 1.6576-1.3757 16.427-4.0918 22.258-4.0938zm-7.9551 25.535c2.4006 0.0203 10.491 1.8379 12.125 2.8477 0.65308 0.40362 1.1875 2.7313 1.1875 5.1738 0 2.4425-0.3375 4.4348-0.75 4.4258-1.2549-0.0275-13.79-11.737-13.209-12.34 0.07524-0.0781 0.30354-0.11032 0.64648-0.10742zm-16.688 2.3184 2.6348 2.0723c1.4492 1.1399 3.4298 2.0723 4.4004 2.0723 2.008 0 9.0512 5.1194 17.326 12.594 4.5716 4.1294 5.6387 5.6874 5.6387 8.2305 0 3.4318 0.27576 3.2956-10.434 5.1484-8.9603 1.5502-9.9115 1.3552-14.926-3.0586l-4.6406-4.084v-11.488zm24.162 38.141c2.3455 0.0168 5.047 0.54965 5.7773 1.4297 0.65095 0.78435 1.0422 3.2242 0.87109 5.4219l-0.31055 3.9961-5.3242-4.6797c-2.9287-2.5741-4.9919-5.014-4.584-5.4219 0.52695-0.52695 1.9655-0.75757 3.5703-0.7461zm-18.238 3.5449c1.9851-4e-3 4.6014 1.6906 12.176 7.5703 5.7202 4.4404 10.551 8.4811 10.734 8.9805 0.19005 0.51765-5.9355 0.9082-14.25 0.9082h-14.584v-6.8086c0-7.4413 1.051-9.6164 5.0996-10.553 0.27047-0.0625 0.54063-0.0971 0.82422-0.0976zm33.881 26.459c0.98031 0 7.7348 6.862 7.1211 7.2344-0.24015 0.14573-1.8146 1.5091-3.5 3.0293-1.6854 1.5202-3.3698 2.4584-3.7441 2.084-0.96344-0.96343-0.84999-12.348 0.12305-12.348zm-36.078 0.12305c1.5107 2.7e-4 3.2993 0.0282 5.1914 0.0879l9.1738 0.28906-17.836 15.273-0.67969-7.502c-0.37388-4.1259-0.4894-7.6922-0.25586-7.9258 0.14597-0.14594 1.8885-0.2231 4.4062-0.22265zm26.541 2.8262c0.51948 0.0316 0.74417 0.49792 1.0156 1.207 0.4936 1.2894 0.60288 6.1688 0.24219 10.844-0.58683 7.6061-0.9375 8.7336-3.3398 10.715-1.4766 1.2177-3.1355 2.1594-3.6855 2.0938-5.5211-0.6593-19.493-3.3746-19.469-3.7832 0.08195-1.356 3.3333-4.3804 13.912-12.947 7.6147-6.1664 10.181-8.1985 11.324-8.1289z" fill="#f4dda2"/></g></g></svg>
