<?xml version="1.0" encoding="UTF-8"?>
<svg width="627.41" height="627.41" version="1.1" viewBox="0 0 627.41 627.41" xmlns="http://www.w3.org/2000/svg"><g transform="translate(-32 -92.16)"><g transform="translate(0 59.21)"><path d="m340.16 600.8c-2.6035-0.28341-8.2453-0.44412-16.16-0.46032-13.367-0.0274-17.604-0.29852-23.36-1.495-2.112-0.43901-6.648-1.2995-10.08-1.9123-8.0648-1.4399-10.871-2.1154-14.32-3.4473-13.036-5.0346-23.543-14.22-32.633-28.528-8.226-12.948-12.712-25.04-13.829-37.28-0.45238-4.9544-0.42967-22.816 0.0357-28.079 0.20615-2.3314 0.2922-4.3216 0.19121-4.4226-0.10099-0.10099-3.2574 0.22121-7.0144 0.716-6.6936 0.88154-7.1489 0.89967-22.671 0.90258-13.592 3e-3 -16.345-0.0772-19.399-0.56205-7.6153-1.209-11.871-2.7167-22.396-7.9346-10.475-5.1931-14.603-7.8318-20.445-13.068-8.4061-7.5339-18.809-22.059-23.037-32.164-2.936-7.0175-3.8929-11.756-4.3031-21.308-0.15495-3.608-0.43227-6.9485-0.61628-7.4233-0.184-0.4748-0.71444-1.1122-1.1787-1.4164-0.79002-0.51764-1.6175-0.5275-12.894-0.1537-12.855 0.42611-15.547 0.30498-20.792-0.93559-12.072-2.8551-24.605-12.322-31.973-24.151-8.1996-13.164-11.284-28.613-11.284-56.526-2.2e-4 -9.3822 0.0014-9.3896 3.817-17.154 7.7144-15.698 14.096-24.265 23.223-31.177 3.0711-2.3258 5.5805-3.7539 17.366-9.8825 6.1128-3.1787 11.515-6.1627 12.006-6.631 1.2413-1.1852 1.3221-1.8344 0.5895-4.7342-1.9219-7.6069-2.8665-14.994-3.1272-24.455-0.22277-8.0834 0.32171-23.37 1.003-28.16 1.8662-13.12 9.4499-32.408 17.489-44.48 4.5627-6.8518 8.0066-10.982 14.811-17.761 9.4157-9.3813 20.09-18.571 29.028-24.991 7.8188-5.6161 12.625-8.3373 30.77-17.419 15.886-7.9515 18.407-9.1139 22.861-10.543l5.0062-1.606h36.145l3.5465 0.94014c1.9506 0.51708 5.6959 1.3933 8.323 1.9473 7.1526 1.5081 9.7667 2.5754 17.464 7.1303 3.9488 2.3368 16.517 10.746 20.8 13.917 9.1466 6.772 16.264 13.999 21.242 21.57 1.7172 2.6115 4.6114 5.1768 6.8265 6.0508 1.7329 0.68372 2.3619 0.73462 9.8511 0.79713 8.2633 0.069 10.676 0.33036 16.32 1.7682 6.8372 1.7417 14.911 5.8539 21.6 11.002 3.0508 2.3478 3.6651 2.2232 8.4002-1.7041 12.001-9.9539 26.456-16.97 44.4-21.55 6.076-1.5511 20.384-4.4198 27.52-5.5178 11.898-1.8306 24.627-2.6052 38.366-2.3347 9.665 0.19029 13.328 0.55851 19.642 1.9747 5.4375 1.2195 21.832 6.0428 25.76 7.5788 11.427 4.4676 22.877 12.552 31.432 22.194 4.897 5.5187 7.9806 7.7862 16.973 12.481 9.9417 5.1901 14.066 8.2829 18.505 13.877 11.558 14.566 17.599 29.214 18.565 45.017 0.29243 4.7846 0.23593 7.9219-0.32001 17.77-0.31486 5.5775-0.29727 6.3762 0.15988 7.2603 0.33791 0.65345 1.7687 1.822 4.1817 3.4154 9.7631 6.4469 16.014 15.162 18.588 25.918 2.0492 8.5616 2.4647 20.135 1.0807 30.099-1.1771 8.4745-1.0626 9.0164 2.8066 13.286 5.7058 6.2969 10.422 14.003 12.53 20.474 1.8809 5.774 2.241 10.561 1.5164 20.16-0.98496 13.047-1.7903 17.824-3.9084 23.182-2.4633 6.2318-5.5166 10.735-10.979 16.191-7.2258 7.218-14.749 11.354-24.818 13.644-3.0553 0.69493-4.5128 0.82029-11.04 0.94958-4.1462 0.0821-7.9138 0.30139-8.3979 0.48873-0.62145 0.24053-0.96731 0.67923-1.184 1.5018-0.16837 0.63913-0.46086 5.194-0.64998 10.122-0.43238 11.267-0.76844 14.835-1.9438 20.64-2.9197 14.419-9.323 28.938-17.801 40.362-6.9902 9.4191-16.796 18.93-25.662 24.89-11.339 7.6224-20.61 11.205-36.886 14.254-18.289 3.4263-31.006 4.0787-46.995 2.4107-12.051-1.2571-13.361-1.0807-14.921 2.0104-1.1901 2.3573-4.6671 7.8737-7.105 11.273-10.959 15.279-25.948 27.666-45.334 37.463-13.28 6.7118-27.283 11.418-39.519 13.283-5.5901 0.85204-16.103 1.0727-21.761 0.45673z" fill="#2b9a45"/><path d="m332.32 565.6c-4.4034-0.83207-8.1872-2.5716-13.92-6.3995-6.5568-4.3781-8.4101-6.4446-17.717-19.756-17.138-24.512-20.965-30.899-23.093-38.547-0.70867-2.5472-1.755-5.3068-2.7665-7.2966-3.3158-6.5224-3.7302-9.0428-3.1352-19.067 0.36495-6.148 0.3521-7.3102-0.11679-10.561-0.28977-2.0087-0.6624-4.712-0.82806-6.0071-0.31176-2.4374-0.76696-3.1139-2.4175-3.5926-1.5399-0.44661-2.5884 0.37331-6.4196 5.0203-3.1445 3.8141-4.8584 5.3091-8.2609 7.2058-1.3827 0.77078-4.6227 3.088-7.2 5.1493-4.7153 3.7713-8.7511 6.3439-11.045 7.0404-1.0999 0.33403-1.2882 0.30857-1.68-0.22723-0.24268-0.33189-0.44124-1.03-0.44124-1.5513 0-0.96917 4.9091-16.117 7.7422-23.89 2.7795-7.6258 5.536-12.762 9.7347-18.139 1.1356-1.4543 5.2638-5.8731 9.1739-9.8195 6.3048-6.3635 7.5571-7.469 11.068-9.7708 2.3526-1.5423 4.6754-2.8037 5.7242-3.1086 1.6369-0.47586 1.9127-0.47306 3.8031 0.0387l2.0382 0.55171 1.1765-0.91617c0.64708-0.5039 1.618-1.1577 2.1576-1.4529 0.92847-0.50789-0.10934-0.54303-19.339-0.65473-22.764-0.13223-21.754-0.0366-26.876-2.5449-2.1511-1.0533-3.2708-1.8847-5.3829-3.9968-2.2557-2.2557-2.8282-2.6668-3.7139-2.6668-1.6644 0-4.4757-1.1156-9.0653-3.5974-5.3473-2.8916-7.4305-4.7608-12.346-11.078-4.5065-5.7914-4.6908-5.9471-6.2639-5.2948-2.1326 0.88435-2.4221 1.4549-3.8812 7.6506-1.4243 6.048-4.2618 14.811-6.3686 19.669-1.6129 3.7188-3.5249 7.3254-10.1 19.051-8.6708 15.464-10.095 17.742-12.437 19.888-4.3378 3.9748-7.9689 4.6766-10.836 2.0943-2.1024-1.8937-2.3483-2.8066-3.6422-13.521-1.4188-11.749-1.617-18.266-0.64192-21.101 0.90934-2.6433 4.2229-9.1201 8.384-16.388 3.8404-6.7076 5.217-8.7999 6.6926-10.172 1.472-1.3689 2.0714-2.9734 2.4002-6.4242 0.1687-1.7705 0.38036-3.3383 0.47037-3.484 0.24894-0.4028-0.67342-0.65185-2.4142-0.65185-1.2598 0-2.1611 0.31061-4.572 1.5756-6.4262 3.3718-22.749 7.7044-29.007 7.6995-3.7764-3e-3 -8.3719-4.8907-7.9008-8.4032 0.48876-3.644 6.7875-9.1548 15.101-13.212 5.0625-2.4706 9.1593-3.9015 15.953-5.5722 7.0536-1.7345 10.534-2.245 15.314-2.2465 4.2153-1e-3 10.472 0.5309 10.894 0.92665 0.70185 0.65897-0.91852 1.3909-6.0713 2.7426-5.8863 1.544-8.702 2.5345-18.216 6.4082-6.8731 2.7984-7.9939 3.6035-7.683 5.5191 0.26269 1.6187 0.94763 2.4778 2.6218 3.2882 3.0851 1.4935 3.1644 1.4762 14.765-3.2202 8.9827-3.6367 14.117-5.4128 15.677-5.4232 0.21509-1e-3 -0.37493 1.8002-1.3877 4.2375-7.5577 18.188-14.472 36.902-14.501 39.25-3e-3 0.24744 0.73407 1.1299 1.6381 1.961l1.6437 1.5111 2.0485-1.2844c2.4096-1.5108 4.0225-3.281 4.5151-4.9552 0.19458-0.66134 0.5843-2.5704 0.86604-4.2424 0.47284-2.806 0.92177-3.902 5.8327-14.24 2.9262-6.16 6.4449-13.634 7.8193-16.608 1.3744-2.9745 2.74-5.6745 3.0345-6 0.99839-1.1032 1.8031-0.83408 5.3827 1.8002 1.2395 0.91218 3.7546 2.6192 5.589 3.7933 3.925 2.5122 5.1445 2.7498 6.0395 1.1768 0.29982-0.52689 0.70605-0.95889 0.90274-0.96 0.63214-4e-3 5.0951 4.5718 6.5012 6.665 0.74892 1.1149 2.1387 3.6349 3.0885 5.6l1.7268 3.573-0.00104-105.92-1.7673 3.0144c-2.4407 4.1631-4.2488 6.623-6.2671 8.5264-3.0234 2.8512-5.5459 4.026-9.9355 4.627-3.0064 0.41164-3.5452 0.64715-6.1832 2.7031-2.2804 1.7773-8.0857 5.3257-10.185 6.2256-2.7294 1.17-32.776 8.986-34.527 8.9817-0.40011-9.8e-4 -1.2705-0.15259-1.9342-0.33691l-1.2068-0.33511 1.9314-2.3636c1.0623-1.3 2.4549-2.7952 3.0948-3.3226 1.6517-1.3615 12.837-6.8684 16.267-8.0089 1.584-0.52666 4.176-1.2389 5.76-1.5828 3.0728-0.66709 6.3054-1.9374 6.7465-2.6511 0.44876-0.72611 0.73059-3.5356 0.53764-5.3595l-0.1822-1.7224-5.631-3.6815c-7.9551-5.201-12.46-8.6303-16.462-12.531-4.2727-4.1646-7.1067-7.8574-10.282-13.397-4.0333-7.0376-4.4036-8.2475-5.4077-17.666-0.28959-2.7165-0.36457-4.9139-0.20199-5.92 0.24419-1.5112 4.9371-12.608 6.4918-15.351 1.3766-2.4283 3.499-3.2442 5.8662-2.2552 1.4338 0.5991 8.5947 5.8382 9.9209 7.2585 1.3469 1.4424 13.735 17.97 17.35 23.147 3.8997 5.5851 5.3902 8.2591 6.6555 11.94 0.88918 2.5869 1.2903 3.3027 2.4521 4.3763 0.9981 0.92225 2.3735 3.0744 4.8866 7.6459 3.8966 7.0883 4.6105 7.8776 7.1248 7.8776 2.0743 0 3.3145-0.75371 5.7113-3.471 1.188-1.3469 3.7787-4.1901 5.757-6.3181l3.5969-3.8691 0.1936-30.982 0.88804-2.6286c2.1115-6.2502 6.954-11.119 13.4-13.474l2.3471-0.85739 76.64-0.0887c85.778-0.0992 78.839-0.28449 83.932 2.2409 3.5726 1.7717 7.5578 5.7336 9.262 9.2077 2.5514 5.2013 2.3147-2.7108 2.4102 80.581l0.0853 74.341 1.5984-1.7489c0.87911-0.96189 3.793-3.6136 6.4754-5.8926 13.146-11.17 19.769-15.458 34.052-22.048 8.8646-4.0901 9.1486-4.1783 14.236-4.4216 6.6152-0.31637 6.6808-0.22037 5.0629 7.412-1.5863 7.4831-8.5599 27.936-10.753 31.539-2.3536 3.8656-1.9074 4.9488 3.5596 8.6401 8.2714 5.5848 11.309 8.4175 33.579 31.318 11.991 12.33 18.002 18.742 18.815 20.068l1.1938 1.9487-2.3138 1.0943c-7.557 3.5741-16.311 4.9416-29.354 4.5857-10.344-0.28228-18.479-1.7036-26.157-4.5698-4.1796-1.5602-5.7402-2.3732-9.5229-4.9606-5.2803-3.6118-8.3701-6.2007-8.6163-7.2194-0.75633-3.1296-0.85546-3.3589-1.2944-2.9947-0.3301 0.27395-0.92231 0.13781-2.4873-0.57181-2.5181-1.1418-3.2617-1.8893-4.4548-4.4784-1.0197-2.2129-1.0003-2.2069-3.4603-1.0607-3.038 1.4155-8.6537 11.658-11.075 20.199-0.63015 2.2229-1.9349 5.1043-4.8541 10.72-4.5536 8.7599-6.2867 11.853-7.2172 12.88-1.037 1.1448-2.4667 0.95803-4.2091-0.55003-1.1263-0.97479-1.8375-1.3191-3.0595-1.4812l-1.5921-0.2112v-1.2323c0-1.1117 0.12299-1.295 1.2567-1.8734 1.1649-0.59428 1.9388-1.723 1.4896-2.1722-0.10569-0.10568-1.1628-0.7172-2.3492-1.3589l-2.1571-1.1668-0.0929-3.497c-0.0864-3.2512-0.0445-3.5363 0.59545-4.057l0.68836-0.56h-0.98807c-1.1111 0-1.8233-0.82215-2.1568-2.49-0.17947-0.89734-0.10078-1.0555 0.67123-1.349l0.87452-0.33249-0.79256-0.62343c-1.2673-0.99683-1.6911-2.3546-1.1998-3.8433 0.32728-0.99169 0.33639-2.111 0.0448-5.5033-0.65758-7.6497-0.75043-7.0756 3.0312-18.743 7.0326-21.697 8.3282-24.349 14.007-28.664 1.51-1.1475 1.9066-2.1398 1.4834-3.7114-0.23508-0.87302-0.62492-1.3605-1.4382-1.7985-1.3177-0.70963-1.4998-0.56451-2.031 1.6185-1.3543 5.5654-5.9696 11.077-11.416 13.634-4.6553 2.1852-0.48909 2.0196-55.36 2.2015-49.521 0.16419-49.595 0.16539-46.24 0.75685 8.9201 1.5727 26.597 6.8732 34.24 10.267 3.863 1.7154 10.109 4.9516 15.2 7.8759 8.1326 4.6711 20.122 12.805 23.761 16.119 2.2223 2.0243 6.4794 7.0375 6.4794 7.6302 0 0.88318-2.4708 4.2646-4.3445 5.9458-3.3668 3.0208-11.432 6.4313-16.846 7.124-1.4573 0.18643-3.6576 0.25109-4.8896 0.14368-14.353-1.2514-16.883-1.6067-23.2-3.2584-2.376-0.62127-4.824-1.1966-5.44-1.2784-1.3785-0.18322-2.933 0.70526-3.8417 2.1957-1.0823 1.7751-0.85341 3.7119 1.096 9.2751 4.522 12.905 6.4673 22.916 10.432 53.688 0.71429 5.544 1.8142 13.752 2.4442 18.24 0.88532 6.3065 1.1822 9.6211 1.3069 14.592l0.16136 6.4324-0.75929 0.20323c-1.1938 0.31952-4.3898 0.19379-6.8393-0.26907zm-17.33-56.758c0.39916-0.33072 0.53007-0.9809 0.53007-2.6327 0-2.063-0.11667-2.4176-1.9615-5.9608-1.0788-2.072-2.8068-5.243-3.84-7.0467-1.3845-2.417-1.8785-3.5985-1.8785-4.4928 0-1.9201-0.78473-4.4484-2.659-8.5668-2.0555-4.5167-5.5914-16.409-6.8016-22.876-0.47268-2.5257-1.5485-6.4876-2.6027-9.5852-1.9809-5.8204-2.4217-8.7705-1.6971-11.359 0.30979-1.1065 0.55549-1.4414 1.0573-1.4414 0.53342 0 44.182 7.7069 46.063 8.1332 0.51226 0.1161 0.56-0.24683 0.56-4.257v-4.3839l-7.76-0.72696c-9.8325-0.92112-9.7458-0.90588-21.2-3.7244-13.055-3.2124-15.861-4.1666-21.041-7.1552-4.0038-2.3099-4.3458-2.4454-6.1599-2.4408-2.969 8e-3 -5.2755 1.7804-5.281 4.0592-7e-3 3.0498-1.819 5.1762-6.217 7.297-1.7717 0.85433-4.5566 2.5737-6.1889 3.8208-1.6322 1.2471-4.2962 2.9995-5.92 3.8943-4.6255 2.5488-5.8512 3.409-6.4549 4.53-0.77941 1.4473-0.54172 2.4036 0.88331 3.5539 2.2373 1.806 2.2346 1.807 15.241-5.9673 7.8311-4.681 11.928-6.9527 12.538-6.9527 0.58673 0 1.0719 0.25374 1.3768 0.72 0.51809 0.79227 2.2803 8.1051 4.3375 18 2.4832 11.944 4.111 17.562 11.318 39.063 3.876 11.564 5.5153 15.752 6.9568 17.777 0.42142 0.59183 1.4942 1.3485 2.659 1.8756l1.9526 0.88352 0.82993-1.7994c0.45646-0.9897 1.0685-1.9971 1.36-2.2386zm102.62-56.562c1.1061-0.44258 1.4647-0.84211 2.3697-2.64 1.6573-3.2926 3.0278-7.51 3.536-10.881 0.25513-1.6924 0.83229-4.1572 1.2826-5.4772 0.45028-1.32 1.3245-4.488 1.9428-7.04 1.1925-4.9223 2.4829-9.1608 3.2524-10.682 0.25653-0.50728 0.80425-2.2867 1.2172-3.9542 0.41291-1.6675 0.8231-3.1042 0.91154-3.1927 0.17979-0.17979 5.5166 3.4823 21.317 14.628 5.896 4.1589 12.376 8.6983 14.4 10.087 5.3174 3.6497 9.1024 6.496 11.84 8.9036 4.1091 3.6138 6.875 4.7156 10.138 4.0382 1.7603-0.36543 1.7748-0.37786 1.6111-1.3861-0.0908-0.55956-0.63277-2.2301-1.2044-3.7123-1.5016-3.8939-2.9599-5.2587-7.5196-7.038-4.9747-1.9412-5.5512-2.265-14.08-7.9081-4.2158-2.7894-9.969-6.4816-12.785-8.2048-2.816-1.7232-6.3542-4.1234-7.8626-5.3336-2.5546-2.0496-10.537-10.182-10.537-10.735 0-0.356 7.1804-9.2111 9.3589-11.542 1.243-1.3297 2.5911-2.3534 4.16-3.1588 2.6433-1.357 3.3225-1.8917 3.9539-3.1126 0.92718-1.793 0.5932-2.8122-1.9364-5.9094-1.7192-2.105-2.056-2.3472-3.2639-2.3472-1.148 0-1.0501-0.10168-4.8263 5.0155-3.2202 4.3637-6.1192 7.4441-9.7678 10.379-4.1639 3.3493-5.4497 3.9373-8.1383 3.7214l-2.0296-0.16291-1.1153 1.9943c-0.6134 1.0969-1.1153 2.2467-1.1153 2.5552 0 0.30847 0.44222 0.97395 0.98271 1.4788l0.9827 0.91798-2.403 8.2504c-3.2072 11.012-3.307 11.436-3.8623 16.415-0.5238 4.6971-0.67125 5.2986-3.2153 13.115-1.7079 5.2475-2.6605 10.138-2.2745 11.676 0.21622 0.86152 1.5384 1.7309 2.6631 1.7511 0.39244 7e-3 1.3-0.22186 2.0169-0.50868zm-15.253-50.146c3.2531-1.6078 5.527-3.8817 7.1348-7.1348l1.2278-2.4842v-154.59l-1.1898-2.4338c-1.9785-4.047-6.1737-7.3958-10.387-8.2908-1.0358-0.22005-26.493-0.29955-77.384-0.24167l-75.84 0.0862-1.8319 0.73997c-3.968 1.6028-7.3509 4.9946-8.9583 8.9819-0.70226 1.742-0.728 2.1813-0.82498 14.079-0.0883 10.826-0.0431 12.259 0.38116 12.096 0.28998-0.11128 0.55159 0.0369 0.65819 0.37276 0.20614 0.64949-0.295 4.8211-0.77458 6.4478-0.22093 0.74937-0.32958 20.797-0.32958 60.813 0 51.882 0.0625 59.935 0.47734 61.527 1.3345 5.1236 4.9484 9.0264 9.9574 10.754 1.8768 0.6472 2.2275 0.64978 78.542 0.57912l76.657-0.071z" fill="#f5d900"/></g></g></svg>
