<?xml version="1.0" encoding="UTF-8"?>
<svg width="1018" height="1018" version="1.1" viewBox="0 0 1018 1018" xmlns="http://www.w3.org/2000/svg" xmlns:xlink="http://www.w3.org/1999/xlink"><defs><radialGradient id="a" cx="636.8" cy="351" r="453.5" gradientTransform="matrix(-1.159 1.04 -.9009 -1.004 1686 89.91)" gradientUnits="userSpaceOnUse"><stop stop-color="#c0bfbf" offset="0"/><stop stop-color="#818181" offset="1"/></radialGradient></defs><rect width="1018" height="1018" rx="200" fill="#fbf8e5"/><path d="m166.7 110.8c-.6972.005-1.395.0272-2.094.0723-7.496 1.472-16.79-2.066-22.62 4.334-3.096 5.187-1.41 11.64-1.635 17.39 1.208 10.22-3.344 21 1.432 30.71 4.077 8.203 14.56 8.727 22.48 7.201 16.9-.8426 33.59-4.693 49.24-11.02 10.98-2.065 22.88.1482 33.05-5.443 14.23-5.732 28.86-10.7 44.07-12.98 10.09-2.208 20.41-4.182 29.71-8.877 5.793-.5307 17.69-7.193 10.78-13.41-10.52-6.23-23.11-2.244-34.58-3.053-8.106 1.098-16.34 1.257-23.96-2.07-16.33-4.001-33.16 1.692-49.56-1.24-13.72-3.729-27.89.6281-41.76-.2598-4.844-.5157-9.688-1.387-14.57-1.355zm579.5 5.236c-13.49-.0383-8.742 12.17 4.512 10.47 19.63 9.331 25.8 33.56 41.38 47.9 13.24 17.42 20.08 38.22 30.71 57.14 11.61 26.63 21.65 54.05 30.16 81.82 4.879 22.56 3.277 45.62-2.742 67.73-9.478 28.48-19.58 58.42-40.7 80.46-9.241 4.354-30.67 14.54-9.383 20.69 18.52 9.322 32.02 26.11 42.57 43.6 14.48 21.55 28.27 43.92 34 69.55 6.87 21.07 11.6 42.83 14.95 64.74 4.271 12.66 2.654 33.63 8.967 41.68 10.58-26.57 4.333-56.28 6.838-84.23 1.002-28.38 1.729-56.82.7598-85.16 2.499-30.7-.399-61.52-3.973-91.92-1.462-30.39 4.651-60.64.6367-90.99 3.586-20.88-1.893-41.51.4199-62.39 1.734-53.97-.3879-108-1.857-161.9-12.63-14.62-39.34-2.288-57.72-6.461-32.16-.9408-64.63 1.05-96.58-2.539-1.064-.1192-2.044-.1752-2.943-.1778zm-545.1 7.012h11.93c1.817 5.369 5.877 10.38 11.43 12 8.49-1.888 15.61-8.356 24.68-7.754 6.436-2.106 12.42 4.691 5.803 9.299-9.312 9.423-23.4 9.141-35.61 10.92-6.673 2.405-10.45-1.758-13.31-6.994-5.248-5.31-11.77 2.359-16.27 5.572-6.87 3.471-14.65 5.8-22.39 5.852-6.967-1.529-4.388-12.17-1.943-16.91 3.562-7.431 13.15-8.563 20.41-10.01 4.783-2.249 10.08-1.847 15.27-1.977zm629.9 9c10.06 2.738 15.26 23.07 28.12 8.232 20.04-12.87 10.53 17.63 20.85 25.83 3.591 20.36-11 37.98 3.213 56.01-3.103 21.17 6.668 39.37 4.197 60.48.5037 11.43-13.06 49.24-16.99 21.7-13.57-17.83 12.79-44.39-11.44-52.62-17.79-9.088-2.915-28.98-6.08-39.66-18.4.7429-29.17-22.79-12.86-33.35-12.2-11.13-42.21-10.23-39.07-33.43-15.52-18.75 17.11.6654 23.79-11.44l2.348-1.32zm-239.9 60.97c-92.74-.2952-168.2 69.25-174 81.55-7.669 16.32-6.327 24.11-26.86 25.42-12.09.2384-38.24 63.39-38.24 74.79 0 3.51 38.28 15.94 39.5 21.95 1.353 6.679 5.281 27.39 2.863 31.6-2.592 4.51-40.69 31.78-44.34 36.42-3.347 4.255-2.668 9.625 2.576 20.38 7.284 12.38 9.438 28.91 20.23 39.02 5.34 3.533 12.67.7267 18.67-.217-3.288 2.635-6.061 6.195-9.854 8.127-1.076.002-34.08-27.35-36.24-23.84-.9678 1.566-2.024 72.8-2.818 73.59 20.82 24.53 33.57 46.58 39.54 77.74 6.749 39.45-2.158 65.19-19.27 98.55 6.394 20.35 18.52 43.78 39.3 52.97 15.46-16.12 24.75-38.34 33.06-58.55 2.44-4.949 25.43.5891 32.27.873 12.71-3.744 14.63-51.3 16.89-67.56 1.527-7.325-5.444-7.765-11.13-8.23-7.57-.5048-17.86-2.013-22.59-3.312-8.63-2.37 3.519-19.21-23.61-81.08 3.416-1.251 17.84-16.62 14.38-6.93-3.411 9.036-4.59 16.87 4.762 22.29 15.62 8.497 38.27 26.51 44.87 26.5 9.054-2.733 19.95-13.09 26.14-20.45 1.023-3.059-13.53 3.183-36.45-8.744-15.43-8.028-26.75-22.66-30.12-38.91-7.488-23.14-34.51-46.03-30.36-47.34 1.233-.3884 7.165-.8571 17.64-1.674l6.24 6.598c7.022 7.424 7.34 7.394 10.37-.9707 11.06-30.52 30.51-49.4 30.51-49.81-101.7-155.6 55.58-282.8 172.2-254.3 17.65 4.309-10.76-17-13.18-18.29-18.02-5.652-35.79-8.102-52.96-8.156zm20.31 38.26c-67.75.4377-130.1 56.3-139 123.4-5.129 36.51 2.352 75.34 24.18 105.5 13.46 4.887 23.29-10.72 36.56-11.21 35.97-12.04 74.87-20.58 104.2-46.25 19.38-16.06 32.59-38.78 37.66-63.35 7.858-27.17 12.18-56.03 8.012-84.16-2.556-13.1-15.67-17.8-27.17-19.88-12.33-3.144-25.13-4.331-37.84-3.895-2.195-.1027-4.387-.147-6.572-.1328zm-443.4 45.58c-10.92.1939-23.83 5.195-26.38 5.195-4.487 0-11.22 5.808-10.39 8.969 1.326 5.071-4.392 18.83-1.184 45.53 1.453 12.09 1.351 82.24-.1621 111-1.393 26.47-.7921 24.93-12.94 33.09-8.678 5.832-46.01 34.23-45.96 35.16 6.389 10.59 14.78 20.26 22.08 30.42-5.963 6.695-30.15 34.93-39.01 61.83-3.286 9.983-1.923 9.429-17.38 7.07-15.56-2.374-22.06-2.601-23.48-.8203-2.47 3.1-6.111 47.77-9.91 63.17-2.62 10.62-2.47 10.75 15.3 13.39 4.176 1.704 20.8-.2925 21.09 4.943.05046 10.16 7.802 52.32 17.64 70.65 8.504 13.65-25.37 22.55-25.37 29.56 0 4.203 43.04 60.04 45.21 60.04 1.553 0 26.4-19.07 28.56-20.37 9.975 4.754 19.02 13.17 28.23 19.78 2.963 9.962-7.104 32.87-3.75 38.36 1.829 1.473 6.713 1.674 11.75 4.314 6.79 3.56 19.34 1.932 21.86-2.836 1.958-3.706 3.308-22.44 6.064-21.99 3.002.4836.8437-13.26 5.564-30.25 5.422-29.64 12.15-58.08 18.91-87.5 2.069-14.09 3.464-35.24 4.617-70 1.381-41.62 3.63-66.06 3.998-68.53 7.58-50.76 2.214-100.8 3.727-149.9-.6367-40.35-6.122-80.07-11.72-120.1-1.82-14.69-3.447-24.41-8.328-49.76-1.727-5.419-3.992-15.96-8.842-18.67-2.741-1.367-6.16-1.836-9.801-1.771zm-6.924 28.37c15.41 7.568 11.56 28.51 11.31 42.91-4.15 17.68 9.978 31.6 7.777 49.31-5.494 17.46-8.328 33.94-1.564 51.55 2.435 18.88-2.084 37.99-10.14 55.02 6.012 16.94 7.313 36.32 5.977 54.94-6.128 17.02-3.551 32.38 7.561 47.48 5.968 3.576 1.572 11.96 2.967 17.68 3.721 15.32-3.456 29.77-5.896 44.94-5.739 14.8-7.04 29.53-3.488 44.67-.3916 17.66-4.52 34.43-11.79 50.36-1.895 5.429-7.5 17.87-6.826 3.717.4948-15.86-.9358-32.02.8301-47.46 11.65-13.47-6.376-29.64-3.514-45.59-1-15.41-1.066-32.99 10.54-44.69 1.518-14.31-16.19-25.73-10.76-42.49-2.347-15.79 5.622-32.15 5.896-46.46-11.46-12.92-4.14-29.86-3.619-44.86-4.269-14.55 26.03-23.42 3.562-33.05-4.2-13.24.9121-31.16.0527-46.18 8.115-14.55-5.092-31.93-2.178-48.21 5.617-16.03-1.694-32.08-.9434-48.78.5742-4.617-.6108-12.29 4.24-14.83zm714 80.73c19.94 12.5 13.11 36.22 5.85 52.53 2.034 11.86 14.5 14.28 2.295 26.73-7.846 13.26-9.923 26.26 8.1 29.52.4487 17.08 10 49.28-8.451 55.78-17.07-10.29-2.766-35.34-23.21-41.9 1.14-18.66-13.19-24.71-29.44-24.52-13.69-15.72 16.14-25.06 26.15-26.77-5.234-20.09 16.9-34.7 9.934-55.7 2.089-5.074 2.909-13.64 8.777-15.66zm-277.6 155.5c-22.29 1.055-29.28-.9756-34.11 20.13-5.678 25.75-14.46 32.66-12.31 33.99 4.955 3.063 12.76 1.811 16.54 9.184 4.501 15.03 8.428 30.43 11.92 45.77 7.971 35.79 70.64-.7355 74.1 19.15l1.34 7.707c-4.093 4.097-7.753 8.679-12.16 12.46-3.268 1.48-31.98-6.459-40.88-.414-10.31 10.53-13.39 38.09-17.1 53.43-2.417 9.976-1.938 13.6 2.439 18.46 7.156 7.945 33.95 12.83 35.16 16.95 1.582 5.227 3.189 10.45 4.791 15.67-1.553 2.001-10.1 13.06-17.55 23.95-8.044 11.74-3.684 16.46 16.11 35.18 25.91 24.51 25.5 24.18 31.28 24.73 11.11.1466 24.93-15.36 34.01-22.89 5.128 1.121 10.22 2.449 15.39 3.348 7.893 1.131 10.48 40.12 30.54 38.09 7.11-1.541 51-14.85 54.1-16.4 19.69-10.9-5.468-33.09-13.16-43.42-23.46-31.51-23.08-42.5-25.35-42.5-.2105 0-3.803 1.626-7.984 3.611-32.4 15.39-71.69-11.61-65.62-49.5 2.694-16.81 13.14-29.97 28.64-36.1 3.227-1.276 6.246-2.65 6.709-3.055.9103-.7957-30.45-84.31-30.77-84.68-1.914-2.154-20.45 5.173-21.19 4.432-.4217-.4217 3.26-14.25 5.514-20.71 1.022-4.149 3.453-6.27 6.99-8.053-14.7-35.33-28.57-57.83-77.4-58.52zm-254.2 57.25c-3.868 7.553-1.451 16.33-2.082 24.45-.009 21.56 1.172 43.25 6.309 64.27 3.592 18.2 7.034 36.43 10.83 54.6 5.86.0858 6.006-11.77 9.158-16.27 6.331-17.08 7.624-35.5 6.162-53.53-1.055-27.14-13.52-52.68-30.38-73.51zm-213.2 2.07c5.008 14.87-7.506 28.04-10.9 42.09-7.002 20.8-6.503 43.33-4.285 64.88 2.24 15.31 11.41 28.8 14.13 43.6-1.038 6.253 11.98 17.65 4.355 19.25-13.23-16.1-21.58-36.08-26.96-56.1-3.135-19.54-5.657-40.12-.1367-59.46 3.733-19.39 11.98-38.49 23.79-54.26zm47.26 287.6c-2.393 3.614-2.384 8.14-3.432 12.23-.7444 3.977-1.399 8.005-1.295 12.06 3.583 2.097 7.923 1.686 11.85 2.641 15.14 2.135 30.24 4.587 45.36 6.896 5.428.5865 10.94 1.067 16.37.3065 3.988-1.649 3.615-6.72 4.65-10.23.434-3.257 2.555-9.712-2.965-8.771-14.03 1.518-28.29 2.046-42.32.172-8.51-1.606-16.86-4.949-23.61-10.45-1.589-1.568-2.693-3.638-4.615-4.855z" fill="url(#a)"/><path d="m591.6 95.02c-42.51-.3976-85.89 10.42-127.1 18.86-72.87 23.24-144.6 51.53-220.2 65.48-46.18.0854-96.98 21.13-140.2-.3402-5.553-39.9-56.46-69.99-82.74-27.2-29.42 45.4 10.84 100.4 60.29 103.5 41.6 20.81 97.51-9.632 132.1 13.28 13.76 61.54 24.79 124.8 24.15 188.2 4.656 74.82-8.996 148.8-9.332 223.4 1.769 56.43-11.16 111.1-22.91 165.8-25.31 52.94 64.16 23.37 89.88 14.46 55.26-8.349 105.2 39.84 161.1 19.86 47.31-3.228 65.53-72.46 24.52-95.83-77.7-16.19 31.03 75.81-34.44 71.07-41.59-.9713-82.83-26.27-103.7-62.17-17.84-52.68-29.52-108.1-32.06-163.7 4.01-71.12 4.93-142.3 5.873-213.6-.5144-73.06 38.68-141.3 97.21-183.5 37.09-33.28 82.49-54.23 130.9-63.78 42.75-3.633 94.24-14.93 129.3 16.83 45.83 41.36 45.37 109.4 27.36 163.8-12.8 64.13-74.53 103.9-134.2 117.6-45.74 7.427-91.38 42.39-90.21 92.36 24.42 56.78 70.87 5.072 62.04-35.48 49.56-22.19 121.9-18.13 149.7 35.46 28.69 61.55 45.79 128.3 75.96 189.6 14.87 37.55 34.91 72.25 61.77 102.4 26.74 28.36 56.14 62.85 97.66 66.44 23.41 2.888 47-6.969 63.42-23.47 20.8-18.09 40.07-58.45 18.43-79.14-22.96-24.57-72.72 3.795-76.34 35.72-31.55 6.263-39.72-54.65-44.05-81.87-7.797-72.96-19.49-146.5-50.93-213.5-16.9-40.04-77.93-67.83-98.46-82.26 45.79-7.408 83.23-45.24 87.83-91.93 15.36-111.6-57.49-225-157.8-270.8-24.22-11.25-49.42-15.53-74.93-15.77z" fill="#2d2f36"/></svg>
