<?xml version="1.0" standalone="no"?>
<!DOCTYPE svg PUBLIC "-//W3C//DTD SVG 20010904//EN"
 "http://www.w3.org/TR/2001/REC-SVG-20010904/DTD/svg10.dtd">
<svg version="1.0" xmlns="http://www.w3.org/2000/svg"
 width="1018.000000pt" height="1018.000000pt" viewBox="0 0 1018.000000 1018.000000"
 preserveAspectRatio="xMidYMid meet">
<metadata>
Created by potrace 1.14, written by Peter Selinger 2001-2017
</metadata>
<g transform="translate(0.000000,1018.000000) scale(0.100000,-0.100000)"
fill="#000000" stroke="none">
<path d="M5555 9209 c-91 -20 -253 -52 -300 -60 -27 -4 -88 -15 -135 -24 -47
-8 -114 -20 -150 -25 -36 -5 -85 -14 -110 -19 -25 -6 -70 -16 -100 -22 -122
-24 -394 -104 -506 -150 -16 -6 -38 -15 -49 -19 -19 -8 -100 -37 -210 -76 -27
-9 -54 -21 -59 -26 -6 -4 -18 -8 -28 -8 -10 0 -26 -4 -36 -9 -17 -10 -123 -45
-222 -75 -30 -9 -77 -23 -105 -32 -27 -8 -74 -21 -105 -29 -30 -7 -77 -20
-105 -29 -86 -27 -189 -58 -220 -66 -16 -4 -57 -15 -90 -25 -33 -9 -73 -21
-90 -25 -16 -5 -55 -16 -85 -25 -57 -16 -84 -23 -205 -50 -179 -39 -361 -64
-520 -70 -141 -6 -224 -14 -415 -42 -61 -9 -178 -16 -280 -17 -146 -1 -186 2
-240 18 -61 18 -141 60 -148 77 -2 4 -18 23 -37 43 -18 20 -39 53 -46 73 -6
21 -19 56 -29 78 -21 50 -36 100 -44 145 -5 30 -15 41 -59 68 -101 61 -230 90
-326 72 -87 -16 -153 -54 -224 -130 -95 -102 -142 -206 -152 -345 -9 -109 18
-302 46 -329 5 -6 9 -16 9 -24 0 -22 84 -143 125 -181 61 -55 148 -108 245
-149 56 -24 206 -69 320 -97 36 -9 81 -20 100 -25 104 -26 310 -42 465 -37
270 10 462 24 483 36 32 17 124 14 152 -6 32 -22 46 -39 69 -88 31 -66 41
-109 76 -355 16 -112 28 -178 51 -277 8 -34 14 -76 14 -94 0 -17 4 -48 9 -68
9 -32 20 -112 52 -366 5 -44 14 -102 20 -130 17 -84 31 -1178 18 -1425 -6
-118 -15 -233 -20 -255 -4 -22 -9 -62 -9 -88 0 -27 -4 -78 -10 -115 -22 -157
-40 -402 -44 -612 -17 -776 -40 -1098 -91 -1310 -9 -36 -20 -81 -25 -100 -4
-19 -17 -71 -28 -115 -22 -89 -34 -146 -57 -285 -30 -178 -70 -314 -102 -351
-24 -28 -20 -79 8 -100 36 -27 96 -33 274 -26 186 8 295 26 415 68 203 72 240
83 325 94 73 10 110 10 195 -1 132 -17 180 -29 365 -93 405 -139 474 -155 661
-155 205 1 347 31 514 111 223 107 302 247 285 503 -13 193 -85 318 -222 385
-50 25 -63 27 -136 22 -94 -5 -139 -24 -168 -71 -46 -72 7 -224 132 -376 48
-59 89 -136 89 -170 0 -55 -46 -82 -181 -104 -52 -9 -115 -16 -140 -16 -69 0
-327 68 -359 95 -8 7 -45 27 -82 45 -37 17 -72 38 -79 46 -6 8 -17 14 -24 14
-33 0 -167 94 -215 150 -19 23 -63 69 -97 102 -60 58 -133 177 -133 217 0 9
-4 21 -9 27 -5 5 -17 41 -27 79 -9 39 -24 86 -34 105 -20 39 -41 111 -63 215
-17 77 -22 106 -66 345 -16 91 -37 194 -46 230 -22 90 -33 161 -50 330 -22
223 -18 450 16 885 13 170 22 676 19 1070 -2 354 20 693 57 875 14 67 23 105
53 215 9 35 28 91 40 120 4 11 18 45 30 75 65 162 184 366 308 525 96 123 371
378 573 530 14 11 51 39 81 62 101 76 227 162 325 221 99 58 118 68 228 117
94 41 99 43 125 50 14 3 41 11 60 16 19 5 60 14 90 18 31 5 76 18 100 29 151
69 427 105 810 105 241 1 272 -1 340 -20 153 -44 167 -50 262 -110 213 -135
408 -445 473 -753 10 -49 15 -130 15 -258 0 -222 -11 -325 -44 -435 -23 -75
-35 -124 -68 -272 -11 -51 -52 -184 -67 -220 -20 -45 -73 -152 -92 -185 -62
-105 -205 -268 -319 -364 -101 -86 -371 -246 -413 -246 -7 0 -17 -4 -23 -8 -5
-5 -31 -17 -59 -27 -27 -10 -93 -39 -145 -63 -57 -27 -119 -48 -155 -53 -111
-15 -140 -22 -160 -35 -20 -13 -231 -84 -249 -84 -5 0 -47 -18 -92 -41 -101
-50 -207 -139 -273 -227 -55 -73 -139 -237 -166 -322 -33 -106 -35 -117 -35
-168 0 -85 19 -128 85 -196 98 -99 214 -145 309 -120 54 14 78 33 112 86 41
65 94 261 94 354 0 21 4 56 9 76 5 22 5 40 -1 46 -13 13 0 52 16 52 14 0 116
42 149 60 10 6 21 8 26 6 4 -3 32 2 62 10 217 61 501 67 669 14 14 -4 54 -16
90 -26 36 -9 69 -21 74 -26 6 -4 15 -8 22 -8 21 0 157 -81 192 -114 18 -17 42
-45 53 -62 10 -17 34 -47 52 -67 64 -67 164 -220 179 -272 15 -52 71 -205 92
-250 44 -95 56 -126 56 -145 0 -10 4 -21 9 -24 5 -3 11 -18 14 -33 3 -16 24
-80 47 -143 22 -63 45 -126 49 -140 5 -14 23 -63 40 -110 29 -75 41 -108 71
-185 4 -11 15 -38 25 -60 25 -60 30 -74 60 -150 15 -38 36 -90 47 -114 11 -24
28 -65 38 -91 10 -26 29 -69 41 -96 12 -27 27 -62 34 -79 42 -97 142 -313 181
-388 13 -27 24 -53 24 -58 0 -10 37 -92 87 -194 34 -70 66 -112 142 -196 22
-24 41 -48 41 -53 0 -5 11 -24 25 -42 14 -18 25 -36 25 -41 0 -9 103 -142 123
-158 7 -5 23 -23 35 -40 83 -108 221 -247 287 -290 28 -18 64 -48 80 -66 104
-115 296 -240 415 -271 94 -25 122 -30 209 -37 126 -12 209 0 336 47 224 82
451 325 542 577 12 35 17 80 18 151 0 93 -3 106 -30 158 -16 31 -33 56 -37 56
-4 0 -8 6 -8 13 0 6 -14 18 -30 25 -17 8 -27 18 -24 24 4 7 2 8 -4 4 -6 -4
-20 1 -30 11 -10 10 -25 19 -33 21 -8 2 -18 9 -24 15 -28 34 -246 -8 -375 -71
-129 -64 -260 -246 -260 -363 0 -14 -7 -33 -16 -40 -14 -11 -24 -9 -70 15
-139 73 -241 253 -294 521 -6 33 -18 85 -25 115 -7 30 -18 91 -24 135 -7 44
-16 106 -22 137 -11 64 -27 185 -39 303 -5 44 -16 132 -24 195 -8 63 -18 135
-21 160 -13 92 -36 229 -51 296 -8 38 -17 85 -20 104 -3 19 -9 46 -14 60 -5
14 -16 52 -25 85 -32 116 -103 345 -124 400 -9 23 -20 56 -62 180 -36 106 -38
113 -73 185 -14 30 -26 59 -26 63 0 20 -120 193 -192 277 -136 157 -349 328
-523 421 -28 14 -60 31 -70 38 -56 32 -183 81 -212 81 -27 0 -53 10 -53 20 0
12 87 43 103 37 8 -3 23 0 33 7 11 7 53 25 94 40 41 15 86 32 100 38 309 126
504 383 583 768 61 291 47 599 -43 940 -17 66 -81 265 -97 300 -8 19 -19 44
-23 55 -18 45 -132 273 -155 310 -14 22 -28 47 -31 55 -4 8 -21 35 -39 60 -17
25 -34 52 -37 60 -7 17 -132 182 -198 261 -76 91 -261 278 -340 344 -348 290
-712 462 -1104 520 -110 17 -541 19 -611 4z"/>
<path d="M1535 9048 c-120 -19 -130 -23 -126 -43 7 -34 4 -318 -4 -366 -8 -53
6 -88 55 -138 28 -27 38 -31 88 -31 177 1 443 49 537 98 44 23 63 26 155 27
107 1 159 15 331 85 82 34 133 49 219 64 47 8 99 20 115 25 17 5 55 15 85 21
108 21 127 27 191 58 35 17 79 36 98 43 18 7 42 21 52 32 18 19 18 20 -4 36
-70 51 -72 52 -288 45 -112 -3 -206 -7 -210 -10 -7 -4 -58 11 -104 31 -23 10
-73 13 -195 11 -91 -2 -181 -7 -201 -11 -24 -4 -48 -1 -74 9 -45 19 -296 23
-342 5 -20 -7 -50 -7 -103 0 -109 15 -218 19 -275 9z m615 -136 c18 -38 67
-81 92 -82 15 0 100 34 151 61 10 6 47 13 82 16 118 11 151 -42 71 -115 -65
-60 -115 -78 -279 -98 -142 -18 -146 -18 -166 0 -12 11 -21 24 -21 31 0 6 -11
22 -25 35 -22 21 -29 22 -45 12 -11 -7 -25 -12 -32 -12 -7 0 -28 -15 -48 -34
-36 -34 -63 -46 -158 -72 -113 -30 -152 -13 -152 68 0 26 4 56 8 66 5 9 15 31
23 47 18 37 103 81 176 90 29 3 55 11 59 16 3 6 57 8 127 7 l122 -3 15 -33z"/>
<path d="M7403 8984 c-36 -15 -36 -41 1 -48 157 -30 185 -45 253 -139 20 -29
40 -54 44 -57 3 -3 18 -27 33 -53 36 -66 104 -157 122 -164 8 -3 52 -62 98
-132 105 -160 119 -185 141 -251 10 -30 32 -77 49 -105 18 -27 37 -61 43 -75
6 -14 29 -61 50 -105 22 -44 46 -97 53 -118 7 -22 18 -51 26 -65 8 -15 14 -33
14 -40 0 -7 9 -31 21 -54 12 -23 39 -96 60 -162 22 -67 44 -130 48 -141 78
-184 99 -283 108 -505 5 -130 3 -154 -17 -225 -12 -44 -25 -107 -30 -140 -6
-54 -31 -129 -100 -305 -12 -30 -29 -75 -37 -100 -9 -25 -28 -65 -41 -90 -14
-25 -30 -54 -36 -65 -6 -11 -16 -27 -22 -35 -6 -8 -17 -31 -24 -50 -7 -19 -23
-46 -35 -60 -11 -14 -34 -45 -50 -68 -52 -78 -154 -152 -209 -152 -18 0 -30
-9 -41 -30 -19 -36 -19 -50 -1 -50 8 0 21 -6 28 -14 8 -7 25 -17 38 -21 14 -4
36 -16 49 -26 13 -11 30 -19 37 -19 7 0 23 -13 35 -29 12 -16 42 -44 68 -62
71 -50 145 -133 181 -204 18 -36 36 -65 40 -65 8 0 78 -106 113 -170 11 -19
28 -44 38 -56 10 -11 19 -23 19 -27 0 -4 16 -31 35 -61 19 -30 35 -62 35 -70
0 -8 4 -18 10 -21 14 -9 60 -112 67 -149 3 -17 14 -50 24 -73 10 -24 19 -47
19 -52 0 -14 31 -114 41 -133 5 -10 9 -26 9 -35 0 -10 6 -30 14 -44 7 -15 19
-67 26 -115 7 -49 18 -105 25 -124 19 -52 32 -114 45 -215 16 -123 38 -243 50
-265 6 -10 10 -57 10 -104 0 -47 5 -88 10 -91 12 -8 30 36 37 90 3 22 10 45
15 52 8 10 20 263 17 348 -3 59 0 165 12 581 8 281 9 441 3 481 -6 35 -7 94
-2 139 20 206 1 692 -32 804 -11 37 -14 425 -3 443 3 5 7 57 9 116 1 58 4 126
6 151 2 25 -1 113 -7 195 -8 96 -8 164 -2 190 13 57 11 293 -3 310 -7 9 -9 39
-5 87 13 152 20 776 11 918 -4 54 -15 670 -16 873 0 4 -15 16 -32 27 -30 19
-44 20 -173 14 -77 -3 -147 -5 -155 -4 -8 1 -264 4 -568 6 -349 2 -560 7 -572
14 -26 14 -89 11 -127 -6z m983 -174 c27 -51 67 -90 93 -90 9 0 38 14 64 30
62 39 113 60 146 60 46 0 52 -11 49 -93 -1 -70 1 -80 24 -105 43 -47 53 -87
53 -212 -1 -106 -3 -119 -28 -162 -39 -67 -37 -115 8 -168 19 -22 38 -58 42
-78 8 -41 9 -151 3 -257 -4 -62 -2 -74 20 -103 23 -31 24 -39 25 -190 0 -162
-2 -174 -53 -309 -22 -57 -70 -134 -89 -140 -6 -2 -14 11 -18 29 -4 18 -21 74
-37 123 -46 138 -46 319 0 368 19 20 21 28 12 49 -12 26 -26 36 -104 78 -37
20 -57 40 -80 81 -27 48 -31 62 -29 126 1 64 4 76 32 111 27 33 30 43 22 64
-8 22 -18 27 -60 33 -28 4 -53 11 -57 16 -3 5 -16 9 -29 9 -28 0 -31 4 -67 90
-34 77 -35 114 -7 133 11 8 31 30 44 48 23 30 24 34 8 51 -9 10 -35 23 -57 28
-23 6 -54 16 -71 24 -16 8 -49 19 -71 25 -23 6 -45 18 -48 26 -3 8 -11 15 -19
15 -7 0 -34 20 -60 45 l-47 44 0 70 c0 66 -1 71 -32 94 l-32 25 39 16 c37 16
43 15 112 -5 73 -22 74 -22 109 -3 19 10 43 27 52 37 12 14 28 17 65 15 47 -3
50 -5 73 -48z m399 -2508 c11 -10 29 -33 39 -52 10 -19 29 -46 41 -60 19 -21
24 -41 29 -125 7 -99 7 -101 -18 -124 -14 -14 -26 -29 -26 -35 0 -5 -10 -29
-21 -54 -18 -37 -20 -47 -9 -67 7 -13 10 -32 8 -43 -7 -24 9 -45 46 -63 39
-19 41 -29 12 -71 -22 -33 -40 -76 -81 -193 -10 -27 -22 -58 -26 -67 -16 -31
-10 -45 25 -62 19 -9 39 -16 45 -16 6 0 29 -11 50 -25 38 -25 38 -27 44 -104
4 -44 2 -105 -3 -136 -9 -57 -7 -86 11 -160 9 -35 7 -48 -16 -97 -15 -32 -31
-58 -36 -58 -5 0 -15 -11 -21 -25 -6 -14 -16 -25 -22 -25 -15 0 -110 98 -126
130 -10 19 -19 117 -20 216 0 6 -20 20 -44 33 -57 28 -95 73 -98 114 -1 18 -2
46 -3 63 -1 18 -12 45 -23 62 -23 32 -58 42 -147 42 -33 0 -67 8 -95 23 -56
28 -61 58 -22 137 24 49 34 58 101 93 42 21 81 35 90 32 50 -20 70 -17 82 8 9
20 9 34 -3 64 -15 40 -11 71 18 123 8 14 24 46 35 73 12 26 26 47 31 47 5 0
15 14 22 32 12 27 12 38 0 71 -25 69 -12 151 40 261 29 61 53 71 91 38z"/>
<path d="M5713 8205 c-169 -17 -250 -34 -483 -100 -331 -94 -562 -226 -926
-527 -74 -62 -82 -72 -123 -165 -65 -143 -91 -196 -108 -215 -14 -16 -112 -38
-171 -38 -28 0 -38 -9 -83 -72 -78 -112 -129 -202 -182 -327 -40 -96 -107
-303 -107 -333 0 -5 30 -23 68 -39 37 -17 96 -44 132 -61 36 -16 81 -37 100
-46 19 -9 49 -26 67 -39 34 -25 39 -40 63 -214 19 -128 14 -143 -76 -214 -120
-95 -145 -115 -257 -202 -117 -91 -137 -114 -137 -155 0 -46 191 -460 233
-507 21 -22 26 -23 107 -16 46 3 98 9 115 12 25 5 17 -4 -49 -56 -43 -33 -81
-61 -83 -61 -3 0 -39 29 -82 64 -71 59 -198 148 -248 174 -21 12 -21 10 -27
-81 -3 -50 -7 -215 -10 -366 l-5 -274 63 -71 c35 -39 89 -111 121 -161 59 -92
135 -239 135 -262 0 -7 11 -38 25 -69 22 -49 50 -192 70 -349 3 -27 1 -113 -5
-190 -16 -220 -54 -358 -146 -543 l-62 -123 28 -84 c16 -47 43 -111 60 -144
36 -67 156 -194 232 -246 66 -44 51 -56 185 145 48 72 154 286 183 372 13 38
29 68 36 68 6 0 87 -12 179 -26 139 -21 170 -23 180 -12 12 12 61 325 71 452
2 32 11 102 20 154 9 59 11 99 6 104 -5 5 -29 12 -53 14 -87 10 -274 35 -290
40 -13 4 -18 23 -24 82 -21 240 -96 526 -180 692 l-25 50 96 71 c52 39 97 69
99 67 2 -2 -7 -39 -20 -81 -41 -127 -33 -162 47 -203 18 -9 69 -40 113 -69
235 -155 301 -195 327 -195 19 0 53 23 120 81 145 127 139 114 54 116 -158 3
-314 71 -430 188 -82 82 -128 162 -156 271 -11 43 -26 86 -33 95 -6 9 -74 100
-151 201 -76 100 -140 188 -143 194 -3 8 30 14 103 19 l106 7 64 -63 c35 -35
65 -61 67 -58 2 2 12 27 22 54 59 163 165 343 257 441 l50 53 -34 48 c-111
154 -218 425 -253 642 -21 133 -28 344 -14 446 51 377 205 709 443 953 183
188 349 302 576 396 140 57 266 90 430 112 107 14 149 14 291 5 91 -7 203 -21
248 -31 45 -11 87 -20 94 -20 23 0 -128 140 -182 169 -102 54 -156 63 -386 67
-130 2 -260 -2 -342 -11z"/>
<path d="M5995 7834 c-181 -28 -328 -74 -486 -155 -146 -76 -258 -160 -381
-287 -183 -189 -297 -397 -366 -670 -25 -99 -27 -122 -27 -317 0 -137 5 -231
13 -270 22 -101 71 -252 108 -333 38 -84 134 -242 147 -242 4 0 26 12 49 26
83 53 294 131 568 210 520 151 847 380 1012 709 44 87 75 183 126 395 56 231
66 303 65 485 0 131 -4 174 -22 240 -12 44 -27 85 -34 92 -18 18 -170 70 -275
94 -67 16 -131 21 -277 24 -104 2 -203 1 -220 -1z"/>
<path d="M1550 7379 c-19 -6 -49 -17 -67 -25 -17 -7 -47 -14 -66 -14 -44 0
-102 -49 -94 -80 3 -11 -1 -64 -9 -117 -16 -118 -17 -218 -3 -338 15 -123 14
-803 -2 -1110 l-13 -250 -198 -150 c-109 -83 -235 -178 -281 -212 -45 -34 -83
-68 -85 -75 -1 -7 15 -34 36 -59 64 -78 172 -226 172 -236 0 -6 -17 -30 -38
-54 -150 -175 -265 -367 -352 -586 -37 -95 -25 -91 -175 -67 -55 8 -130 17
-167 19 -78 6 -72 15 -88 -130 -13 -115 -19 -162 -56 -408 -17 -115 -23 -182
-17 -188 6 -6 43 -12 84 -15 41 -3 88 -10 104 -15 17 -5 61 -11 99 -14 38 -2
70 -6 72 -8 1 -1 8 -52 14 -112 7 -61 16 -118 21 -127 5 -9 9 -32 9 -51 0 -62
85 -337 135 -437 44 -88 51 -76 -110 -196 -80 -60 -145 -112 -145 -116 0 -8
67 -103 127 -179 23 -30 99 -130 169 -224 69 -93 132 -173 139 -177 8 -5 67
34 158 103 l145 110 78 -63 c44 -35 107 -83 142 -107 l62 -44 0 -97 c0 -92
-19 -188 -42 -217 -5 -6 -8 -26 -6 -44 3 -30 7 -34 48 -44 25 -7 59 -19 77
-28 62 -33 190 -15 206 28 4 8 14 64 24 125 16 96 20 109 36 104 15 -5 17 3
17 69 0 51 10 113 30 193 17 66 41 169 54 230 l23 111 -29 16 c-25 14 -27 19
-18 42 6 15 10 44 10 66 l0 40 30 -16 c36 -19 29 -34 74 160 62 267 79 430 96
950 14 416 28 663 40 685 6 10 12 65 15 122 2 56 11 134 19 173 19 89 38 359
27 388 -10 27 -4 94 11 124 6 13 7 32 2 50 -4 15 -9 87 -10 158 -3 307 -3 315
-18 315 -12 0 -14 26 -9 164 6 165 6 167 -38 406 -10 56 -14 182 -10 367 1 70
-2 111 -12 130 -19 40 -33 114 -57 303 -18 147 -34 244 -83 498 -8 39 -22 81
-31 91 -10 11 -15 24 -12 29 10 17 -5 41 -37 57 -34 17 -170 19 -227 4z m98
-265 c12 -8 22 -21 22 -28 0 -7 9 -21 20 -31 10 -9 27 -37 36 -61 15 -39 16
-71 10 -267 -7 -216 -7 -223 13 -249 12 -14 21 -32 21 -40 0 -8 4 -18 8 -24
16 -18 32 -111 34 -194 1 -69 -3 -94 -21 -135 -35 -77 -59 -198 -44 -218 31
-40 57 -181 56 -302 -1 -133 -35 -278 -94 -399 -25 -52 -24 -83 5 -120 30 -40
36 -83 43 -281 6 -197 -8 -299 -49 -358 -11 -15 -10 -20 10 -35 18 -14 21 -24
16 -48 -4 -21 -1 -36 10 -47 9 -8 16 -21 16 -27 0 -12 19 -59 43 -110 7 -14
23 -29 35 -35 21 -9 22 -15 22 -140 0 -85 4 -135 11 -142 9 -9 7 -29 -8 -80
-12 -37 -26 -95 -33 -128 -6 -33 -15 -76 -20 -95 -4 -19 -13 -59 -19 -87 -6
-29 -20 -72 -31 -95 -21 -44 -29 -171 -11 -183 18 -11 23 -93 12 -192 -23
-200 -29 -237 -43 -247 -8 -6 -18 -31 -22 -55 -6 -37 -47 -140 -89 -220 -17
-33 -35 -37 -42 -9 -8 38 -10 195 -2 312 5 74 4 113 -4 122 -17 21 8 124 37
151 28 25 30 49 9 89 -8 16 -15 36 -15 45 0 9 -7 29 -15 46 -47 94 -62 436
-23 523 9 19 19 46 22 60 3 14 23 44 45 68 38 43 38 44 26 84 -6 23 -25 57
-42 77 -60 73 -64 83 -68 197 -8 183 -7 217 4 269 7 28 17 84 22 124 7 45 18
85 30 99 20 26 17 39 -26 97 -12 17 -25 48 -29 70 -15 90 -18 126 -8 138 5 6
13 57 17 112 12 180 32 255 69 255 5 0 25 14 42 31 29 28 31 34 21 58 -12 27
-33 46 -82 72 -27 15 -29 20 -27 60 2 24 7 69 12 99 5 30 8 116 7 190 -2 128
-1 136 22 163 20 24 22 32 12 53 -6 14 -16 66 -21 115 -6 50 -16 101 -22 112
-18 34 -14 206 5 244 20 38 22 76 5 106 -7 12 -16 81 -20 152 -5 72 -9 137 -9
145 -3 45 12 125 27 141 21 23 33 24 62 3z m-372 -3206 c-60 -127 -93 -230
-116 -365 -18 -104 -19 -131 -9 -285 6 -94 15 -182 20 -197 6 -14 15 -48 20
-75 5 -27 20 -72 33 -100 13 -28 31 -73 41 -99 10 -26 22 -50 26 -53 5 -3 9
-34 9 -70 0 -62 2 -67 36 -98 30 -27 35 -37 29 -57 -5 -13 -9 -33 -10 -44 -1
-11 -3 -24 -4 -30 -1 -10 -90 85 -91 97 0 4 -22 45 -49 90 -197 334 -245 736
-134 1122 39 138 120 302 208 423 l30 41 3 -103 3 -104 -45 -93z"/>
<path d="M5845 4739 c-32 -5 -81 -16 -108 -25 -58 -19 -68 -38 -96 -171 -22
-101 -59 -202 -102 -274 l-27 -47 73 -21 c40 -12 80 -30 88 -39 17 -18 31 -65
72 -237 78 -327 85 -349 105 -369 19 -20 34 -21 308 -27 312 -6 331 -3 355 48
11 24 13 17 29 -77 l17 -103 -61 -66 c-34 -36 -65 -67 -69 -69 -4 -2 -69 4
-143 12 -179 21 -221 20 -261 -4 -41 -26 -56 -62 -100 -250 -20 -85 -48 -202
-62 -259 -28 -114 -26 -147 12 -196 24 -32 35 -37 269 -122 68 -25 96 -43 96
-63 0 -11 9 -48 21 -83 l21 -64 -38 -54 c-21 -30 -52 -72 -70 -94 -104 -132
-124 -188 -90 -253 8 -15 85 -95 173 -178 259 -247 253 -242 302 -250 59 -9
82 4 230 126 l124 103 66 -16 c36 -9 78 -18 93 -21 21 -5 31 -17 47 -59 21
-55 98 -227 119 -264 17 -30 68 -56 112 -55 43 0 499 133 556 162 26 13 47 34
57 56 33 69 41 54 -194 369 -96 130 -145 207 -196 315 -25 52 -47 96 -48 98
-1 1 -36 -14 -79 -34 -175 -83 -389 -46 -529 93 -235 234 -172 624 125 767 41
20 80 36 87 36 6 0 11 3 11 6 0 4 -38 104 -84 223 -46 119 -114 304 -152 411
-37 107 -70 198 -73 202 -3 4 -57 -8 -119 -27 -93 -27 -112 -31 -107 -18 3 9
10 37 16 62 22 102 61 206 86 227 l25 21 -37 88 c-71 171 -198 331 -309 387
-127 64 -386 101 -541 77z"/>
<path d="M3424 4146 c-4 -9 -4 -135 -1 -279 5 -277 10 -318 72 -622 19 -93 46
-233 60 -310 36 -193 34 -189 57 -135 90 209 122 372 115 589 -5 119 -11 168
-36 265 -41 161 -135 351 -238 480 -19 24 -24 26 -29 12z"/>
<path d="M1767 1244 c-19 -137 -26 -198 -24 -200 4 -4 227 -35 284 -39 32 -2
76 -9 98 -14 69 -16 166 -30 256 -36 l86 -7 12 34 c7 18 15 59 18 91 l6 58
-44 -8 c-24 -4 -125 -8 -224 -8 -171 0 -184 2 -259 28 -86 30 -153 72 -184
114 l-20 27 -5 -40z"/>
</g>
</svg>
