<?xml version="1.0" encoding="UTF-8"?>
<svg width="2050" height="2050" version="1.1" xmlns="http://www.w3.org/2000/svg"><defs><marker id="a" overflow="visible" markerHeight="5" markerUnits="userSpaceOnUse" markerWidth="10" orient="auto" preserveAspectRatio="none" viewBox="0 0 1 1"><path d="m0 4v-8" fill="none" stroke="context-stroke"/></marker></defs><circle cx="1326.4" cy="348.84" r="175" fill="#6491b1"/><path d="m1180.2 307.35c103.04 7.954 192.72 12.686 304.92 47.506" fill="none" stroke="#000" stroke-dasharray="20" stroke-width="20"/><circle cx="555.59" cy="723.02" r="175" fill="#6491b1"/><line x1="471.27" x2="676.92" y1="597.05" y2="841.48" stroke="#000" stroke-dasharray="20" stroke-width="20"/><line x1="648.18" x2="715.48" y1="716.11" y2="720.55" marker-start="url(#a)" stroke="#000" stroke-dasharray="20" stroke-width="20"/><circle cx="1659.2" cy="863.47" r="175" fill="#6491b1"/><path d="m1746.5 737.22c-61.042 124.32-116.92 192.97-173.64 266.66" fill="none" stroke="#000" stroke-dasharray="20" stroke-width="20"/><line x1="1510" x2="1664.3" y1="828.43" y2="865.09" stroke="#000" stroke-dasharray="20" stroke-width="20"/><circle cx="180.15" cy="1124.8" r="175" fill="#6491b1"/><path d="m184.78 972.88c-15.944 158.98-19.989 233.19-15.342 314.73" fill="none" stroke="#000" stroke-dasharray="20" stroke-width="20"/><line x1="234.35" x2="352.46" y1="1112.7" y2="1095.4" marker-start="url(#a)" stroke="#000" stroke-dasharray="20" stroke-width="20"/><circle cx="1334.2" cy="1334.1" r="175" fill="#6491b1"/><path d="m1200.2 1267.5c138.14 52.982 177.03 120.2 243.8 195.72" fill="none" stroke="#000" stroke-dasharray="20" stroke-width="20"/><line x1="1422.8" x2="1326.4" y1="1204.6" y2="1332.2" stroke="#000" stroke-dasharray="20" stroke-width="20"/><circle cx="1150.5" cy="1736.7" r="175" fill="#6491b1"/><path d="m1012 1662.6c79.134 38.827 173.52 54.067 300.48 58.424" fill="none" stroke="#000" stroke-dasharray="20" stroke-width="20"/></svg>
