<?xml version="1.0" encoding="UTF-8"?>
<svg width="2050" height="2050" version="1.1" xmlns="http://www.w3.org/2000/svg"><defs><marker id="a" overflow="visible" markerHeight="5" markerUnits="userSpaceOnUse" markerWidth="10" orient="auto" preserveAspectRatio="none" viewBox="0 0 1 1"><path d="m0 4v-8" fill="none" stroke="context-stroke"/></marker></defs><g fill="#6491b1"><circle cx="1326" cy="349" r="175"/><circle cx="556" cy="723" r="175"/><circle cx="1659" cy="864" r="175"/><circle cx="180" cy="1125" r="175"/><circle cx="1334" cy="1334" r="175"/><circle cx="1150" cy="1737" r="175"/></g><g fill="none" stroke="#000" stroke-dasharray="20" stroke-width="20"><path d="m1180 307.4c103 7.954 192.7 12.69 304.9 47.51"/><path d="m1747 737.2c-61.04 124.3-116.9 193-173.6 266.7"/><path d="m184.8 972.9c-15.94 159-19.99 233.2-15.34 314.7"/><path d="m1200 1267c138.1 52.98 177 120.2 243.8 195.7"/><path d="m1012 1663c79.13 38.83 173.5 54.07 300.5 58.42"/><line x1="1510" x2="1664" y1="828" y2="865"/><line x1="471" x2="677" y1="597" y2="842"/><line x1="1423" x2="1326" y1="1205" y2="1332"/><line x1="648" x2="716" y1="716" y2="721" marker-start="url(#a)"/><line x1="234" x2="353" y1="1113" y2="1095" marker-start="url(#a)"/></g><g stroke="#dde7ee" stroke-linejoin="round" stroke-width="5"><g fill="#dde7ee"><circle cx="1238" cy="437" r="13"/><rect x="417" y="710" width="26" height="26"/><path d="m1674 1001h-28.46l14.23-24.65z"/></g><g fill="none"><rect x="41" y="1112" width="26" height="26"/><path d="m1348 1473h-28.46l14.23-24.65z"/><circle cx="1061" cy="1825" r="13"/></g></g></svg>
