<?xml version="1.0" encoding="UTF-8"?>
<svg width="3732" height="933" version="1.1" xmlns="http://www.w3.org/2000/svg" xmlns:xlink="http://www.w3.org/1999/xlink"><defs><radialGradient id="b" cx="2358" cy="464.89" r="388.01" gradientTransform="matrix(1 0 0 1.0117 0 -5.4268)" gradientUnits="userSpaceOnUse"><stop stop-color="#9e785e" offset="0"/><stop stop-color="#7f593f" offset="1"/></radialGradient><radialGradient id="d" cx="636.82" cy="351.05" r="453.5" gradientTransform="matrix(-1.1588 1.04 -.90092 -1.0038 1691 54.823)" gradientUnits="userSpaceOnUse"><stop stop-color="#c0bfbf" offset="0"/><stop stop-color="#818181" offset="1"/></radialGradient><radialGradient id="c" cx="1389.5" cy="425.8" r="197.24" gradientTransform="matrix(2.1826 2.1334 -1.3908 1.4228 -1051 -3163.9)" gradientUnits="userSpaceOnUse"><stop stop-color="#ddc95d" offset="0"/><stop stop-color="#bfac3f" offset="1"/></radialGradient><radialGradient id="a" cx="3515.1" cy="457.25" r="394.38" gradientTransform="matrix(.84968 0 0 .77518 262.99 125.95)" gradientUnits="userSpaceOnUse"><stop stop-color="#8ea0ad" offset="0"/><stop stop-color="#6d7f8d" offset="1"/></radialGradient></defs><g><path d="m3034.7 64.385c-6.1452 1.4607-25.684 0.68559-23.346 5.127 28.526 7.1027 57.878 10.125 86.725 15.584 30.163 3.5639 60.376 7.6403 90.68 9.377 49.408-0.03646 98.444-7.2206 147.77-9.1797 36.159-3.2655 72.42-7.5641 108.19-12.783 6.4399 2.321 22.042-6.2667 7.375-5.6855-31.249 1.6758-62.562 2.928-93.816 0.96875-43.07 0.41489-86.127 4.7143-129.19 1.6055-64.795-1.6712-129.59-3.5239-194.39-5.0137zm-174.76 19.203c-4.5674 2.4406-2.5494 8.2514-2.1914 12.289 0.7447 11.956-0.3523 24.008 1.5137 35.9 0.6051 7.4723 3.7465 15.13 0.9961 22.52-3.3512 4.5685 1.0457 10.359 6.0781 10.742 4.7303 0.97035 11.277 1.8338 13.938-3.3438 3.3984-5.5899 2.9911-12.672 0.1484-18.393-4.2739-9.9204-7.9573-20.542-7.416-31.494-0.3067-5.3332-1.3909-10.812-4.3886-15.328-5.2245-2.4691-4.1581-9.7539-8.6778-12.893zm782.74 56.535c-1.8616 1.2748-2.6283 3.5528-3.6661 5.4512-0.8004 2.2843-1.3895 4.6977-2.8613 6.6719-1.5134 2.456-2.8687 5.1659-2.8613 8.1172-0.4667 1.6816-2.803 3.473-1.0684 5.1953 1.8155 1.6635 4.4677 1.4226 6.75 1.7422 2.8806 0.18955 6.077 0.83242 8.6543-0.82812 2.0694-1.8775 1.6882-4.9006 1.7696-7.4199-0.022-2.2479-0.1701-4.5964-1.3028-6.5938-1.3887-3.3624-0.8486-7.3573-3.0234-10.434-0.6111-0.80097-1.3418-1.7147-2.3906-1.9023zm-254.44 54.613v38.629c-6.8787 1.4044-12.252 6.7777-13.656 13.656-1.9333 9.4773 4.1789 18.727 13.656 20.66 9.4768 1.9333 18.727-4.179 20.66-13.656 1.9332-9.4773-4.1789-18.727-13.656-20.66v-35.137c-2.3522-1.129-4.6772-2.3065-7.0039-3.4922zm-240.63 2.2266c-2.3955 0.91667-4.7984 1.809-7.2031 2.7012l50.938 50.938c-0.2567-3.679-0.6832-7.3383-1.0977-11.002zm-33.299 11.926c-4.7802 1.5875-9.6123 3.0099-14.42 4.5137l-37.512 37.512c-5.857-3.8707-13.455-3.8709-19.312 0-8.0685 5.3344-10.288 16.195-4.9531 24.264 5.3344 8.0685 16.197 10.288 24.266 4.9531 8.0686-5.3345 10.287-16.197 4.9532-24.266zm352.23 9.4844v42.242c-6.8781 1.4044-12.252 6.7757-13.656 13.654-1.9334 9.4773 4.1793 18.727 13.656 20.66 9.4774 1.9333 18.727-4.177 20.66-13.654 1.9333-9.4773-4.1793-18.727-13.656-20.66v-40.785c-2.3379-0.47156-4.6746-0.94556-7.004-1.457zm86.211 9.4336c-2.3356 0.0146-4.6706 0.13688-7.0059 0.10547v14.146c-6.8786 1.4044-12.25 6.7757-13.654 13.654-1.9333 9.4773 4.177 18.727 13.654 20.66 9.4773 1.9332 18.729-4.177 20.662-13.654 1.9333-9.4773-4.1788-18.727-13.656-20.66zm-543.74 10.303c-3.8839 0.63667-7.7638 1.2987-11.67 1.7617l-16.34 16.34c-5.8569-3.8708-13.456-3.8686-19.312 2e-3 -8.0686 5.3345-10.288 16.195-4.9531 24.264 5.3344 8.0685 16.197 10.29 24.266 4.9551 1.0084-0.66681 1.9255-1.4227 2.748-2.2461 5.759-5.7601 6.8724-14.96 2.2051-22.02zm382.72 1.9102c5.8034 0 10.508 4.7045 10.508 10.508 0 5.8034-4.7044 10.506-10.508 10.506s-10.508-4.7025-10.508-10.506c0-5.8033 4.7045-10.508 10.508-10.508zm-273.93 3.75c-3.3727-0.0341-6.7908 0.90389-9.8164 2.9043-8.0686 5.3344-10.286 16.197-4.9512 24.266l-46.287 46.287h-115.95l-44.02-44.02c-0.2087-1.2246-0.6652-2.4031-1.5449-3.502-5.2057-0.65308-10.572 2.338-15.57-0.37305-4.7902-1.4508-9.4158-3.6366-14.453-4.1094-5.2422 2.6437-1.774 8.9807-2.1484 13.385-0.077 17.844 0.5442 35.684 0.3672 53.529-0.015 13.188-0.1624 26.377-0.4864 39.561-2.2981 4.7978 0.5993 12.146 6.7168 10.166 5.3868 0.27907 10.952-0.10683 16.113 1.7559 2.353 2.8117 7.3217 6.2737 10.678 3.3652 1.6408-5.1913-2.2672-10.368-1.8223-15.684 0.141-11.815-0.5425-23.654-0.5235-35.482-0.137-16.932 0.2148-33.894 1.9219-50.75-0.088-0.84352 0.029-1.7254 0.1055-2.5996l41.744 41.744 121.8-2e-3 48.318-48.316c5.8569 3.8708 13.454 3.8712 19.311 0 1.0086-0.66673 1.9275-1.4208 2.75-2.2441 5.7601-5.7601 6.8707-14.964 2.2031-22.023-3.3341-5.0428-8.8281-7.8005-14.449-7.8574zm431.44 4.9434c5.8034 0 10.506 4.7025 10.506 10.506 0 5.8034-4.7024 10.508-10.506 10.508s-10.508-4.7045-10.508-10.508c0-5.8033 4.7044-10.506 10.508-10.506zm-431.6 2.0625c2.6888-2.9e-4 5.3759 1.0262 7.4277 3.0781 4.1036 4.1036 4.1036 10.756 0 14.859-4.1036 4.1036-10.754 4.1013-14.857-2e-3 -4.1037-4.1036-4.1036-10.754 0-14.857 2.0518-2.0518 4.7408-3.0778 7.4297-3.0781zm-64.936 4.2422c2.6886 4.9e-4 5.3764 1.0249 7.4277 3.0762 4.1036 4.1036 4.1036 10.758 0 14.861-4.1036 4.1035-10.756 4.1013-14.859-2e-3 -4.1036-4.1036-4.1049-10.756 0-14.859 2.0513-2.0513 4.7412-3.0757 7.4297-3.0762zm-81.371 5.2988c2.6886 4.9e-4 5.3764 1.0268 7.4277 3.0781 4.1036 4.1036 4.1022 10.756 0 14.859-4.1037 4.1036-10.754 4.104-14.857 0-4.1036-4.1036-4.1036-10.756 0-14.859 2.0511-2.0513 4.7392-3.0776 7.4277-3.0781zm498.7 6.9531c5.8035 0 10.508 4.7025 10.508 10.506 0 5.8034-4.7044 10.508-10.508 10.508-5.8034 0-10.508-4.7045-10.508-10.508 0-5.8033 4.7044-10.506 10.508-10.506zm134.39 2.1914c-3.4723 11.833-0.6258 24.263-1.959 36.338-0.1568 13.474-0.5704 26.944-0.8574 40.416h-20.889c-1.4044-6.8786-6.7757-12.25-13.654-13.654-9.4769-1.9333-18.729 4.177-20.662 13.654s4.179 18.729 13.656 20.662c9.4774 1.9333 18.727-4.179 20.66-13.656h20.74c-0.2323 10.004-0.3144 20.011-0.6367 30.012 0.7237 25.58-0.119 51.238 2.3828 76.742 4.4403 9.9618 12.311 17.779 17.85 27.074-2.69 8.9697 15.077 17.92 17.117 7.334-0.1685-8.2321-1.7932-16.378-1.6973-24.664-2.437-36.221-2.6895-72.532-2.0078-108.82 0.5113-21.407 0.6731-42.914 3.0234-64.199 2.9113-7.7376 1.4056-19.908-9.2597-18.738-8.2835-1.8433-15.242-7.647-23.807-8.5039zm-238.54 10.945c-8.146 4e-3 -15.439 5.721-17.131 14.014h-20.602c-0.1155 0.93061-0.2633 1.8584-0.3769 2.7891-0.1723 1.4041-0.2871 2.8124-0.4551 4.2168h21.434c1.4045 6.8786 6.7756 12.25 13.654 13.654 9.4774 1.9333 18.729-4.177 20.662-13.654 1.9332-9.4773-4.1794-18.729-13.656-20.662-1.1847-0.24166-2.3656-0.35804-3.5293-0.35742zm-208.46 2.9902c-3.3723-0.0338-6.7907 0.90391-9.8164 2.9043-8.0686 5.3345-10.29 16.195-4.9551 24.264l-66.1 66.1h-71.881c1.201 1.0372 2.4298 2.0461 3.6192 3.0938 1.4483 1.305 2.9101 2.5977 4.3711 3.8906h66.814l68.129-68.129c5.857 3.8708 13.454 3.8708 19.311 0 1.0086-0.66673 1.9275-1.4228 2.75-2.2461 5.7601-5.7602 6.8727-14.962 2.205-22.021-3.334-5.0428-8.8267-7.7991-14.447-7.8555zm208.48 4.0195c5.8034 0 10.508 4.7025 10.508 10.506 0 5.8034-4.7044 10.508-10.508 10.508-5.8033 0-10.506-4.7045-10.506-10.508 0-5.8034 4.7026-10.506 10.506-10.506zm-208.64 2.9844c2.6879 1e-3 5.3769 1.0254 7.4277 3.0762 4.1036 4.1036 4.1022 10.756 0 14.859-4.1036 4.1036-10.754 4.1036-14.857 0-4.1036-4.1036-4.1051-10.756 0-14.859 2.0508-2.0508 4.7379-3.0752 7.4258-3.0762zm406.29 48.811c5.8034 0 10.506 4.7045 10.506 10.508 0 5.8033-4.7025 10.506-10.506 10.506s-10.508-4.7025-10.508-10.506c0-5.8034 4.7044-10.508 10.508-10.508zm-152.79 4.7949c-8.2678 4.7129-7.9932 18.714-19.422 13.711-10.898 8.3649 10.623 22.644-5.3984 29.693-12.901 13.925-27.223 28.619-30.377 48.088-9.8649 4.8646-33.522-12.396-30.828 8.9844-7.2189 16.723 6.8766 23.913 17.486 33.395 3.6613 4.5263 7.5808 8.086 13.383 4.5996 9.8827-2.5153 19.729-5.1841 29.666-7.4766 7.2259 13.018 14.592 26.206 19.762 40.182-6.8368 13.262-32.984 18.1-26.408 36.674-3.2098 16.85 5.8294 27.651 21.234 33.406 19.973 4.3961 6.0319 21.937 3.3047 34.627-1.902 11.428-6.7242 20.194-19.629 15.062-16.114-5.6227-31.17 0.0458-36.465 16.824 1.0789 14.427 11.101 26.589 25.273 15.391 20.218-4.5755 38.18-17.281 51.809-32.652 10.862-10.544 12.703-28.381 24.744-37.082 20.314-3.84 39.141-15.079 53.699-29.426 12.801-5.7432 28.094 12.064 42.33 13.994 9.0279 2.3668 31.658 13.746 22.373-4.3965-8.3699-12.224-15.311-25.474-23.055-38.277-5.4473-6.4469-7.3366-14.157 3.9062-9.2109 19.133 5.8792 37.861 12.482 57.227 17.623 12.436 9.5298 22.549-3.2071 11.25-13.568-18.597-25.125-41.4-46.701-63.486-68.705-2.4818-28.479-10.118-59.368-32.69-78.727-7.5994-11.912-22.774-15.852-34.978-21.676-16.68-7.7867-35.747-6.834-53.426-4.7676-7.3772-5.5208-11.377-14.181-21.285-16.289zm-495.67 9.7168c-8.0249 10.355 1.5433 25.067 7.3398 34.812 9.3305 15.409 23.384 27.15 33.822 41.652-0.4367 8.2824-14.521-7.9156-21.215-6.8398-15.56-8.391-33.857-11.528-51.412-9.9961-12.171 4.0287 2.2596 15.9 6.6093 20.994 13.645 15.326 32.809 23.64 47.986 37-13.817 2.222-31.082-3.4144-42.834 4.4863 1.2191 17.348 20.171 21.289 33.637 25.811 29.433 14.115 62.822 14.681 94.074 22.545 14.62 3.0612 29.744 2.667 44.307 5.9375 9.9763 10.894 0.9601 29.849 5.1503 43.836 1.6092 19.144 1.4273 38.449 4.045 57.496 8.6976 9.9243 26.72 5.0266 37.775 13.291 15.625 6.7435-5.0515-19.327-5.9825-26.586 1.0596-12.609 24.341-16.811 27.096-30.162-1.0139-9.9988-1.2923-20.053-1.8398-30.084-10.633-6.3425-21.848-11.98-31.686-19.469 2.5689-13.51 8.2637-27.07 12.559-40.387 10.925-7.2022 28.612 4.4643 40.232-1.7461 5.5658-10.787 22.351-18.16 17.562-32.084-1.7495-7.8822-3.9905-15.643-6.0137-23.457-9.2667 0.57947-19-1.0368-27.852 2.0625-3.3274 13.45-21.667 1.3646-31.531 2.0859-13.636-3.5145-31.499-2.3257-31.438 15.838-10.153 2.0723-21.987-11.216-31.947-16.32-14.091-10.917-27.619-22.565-39.295-36.049-17.478-15.962-35.3-32.05-56.924-42.23-10.095-5.3513-20.918-10.601-32.227-12.438zm542.13 62.59c0.5956-0.01 1.1921-4e-3 1.791 0.0176 12.515 0.29734 25.574 4.2363 34.688 13.133 3.7296 3.8172 5.388 9.2083 9.5527 12.686 3.7269 3.0289 2.3651 8.3048 2.668 12.469-0.191 13.169-2.7328 26.989-10.582 37.863-6.9666 8.5583-18.465 11.305-28.961 12.4-8.9917-0.95857-17.879-2.9964-26.574-5.4668-3.7199-1.7554-8.0031-2.1022-11.543-4.457-4.8996-1.1814-4.1043-7.1053-5.9433-9.9316 5.9232-2.1291 12.42-1.8011 18.562-3.0352 9.7272-1.5121 20.298-4.7356 26.154-13.225 2.8269-4.4468 4.199-10.53 1.1914-15.248-1.6319-4.1916-3.6164-8.3747-7.2461-11.229-3.9824-3.6582-9.0568-6.2812-14.562-6.2891-6.6773-0.8504-13.521-0.31653-20.119-1.6484-1.7451-3.2654 4.1823-6.7065 6.3848-8.9297 7.0704-5.3849 15.605-8.9643 24.539-9.1094zm-590.65 74.883c-5.2287 10.59-0.4521 25.571-0.3926 37.773 3.373 101.07 1.9172 202.25 4.8066 303.33-2.3326 15.039 9.6014 21.031 22.641 16.309 47.483-3.0744 95.125-2.536 142.62-5.334 15.536-0.82904 31.236 0.79058 46.672-1.2832 6.5284-9.2562 9.233-24.269 10.514-36.486-11.063-1.183-21.397-2.4679-32.529-0.33008-7.5602 0.26205-15.13 0.30131-22.695 0.4707l21.789-21.789c5.8566 3.8708 13.456 3.8708 19.312 0 1.0085-0.6668 1.9235-1.4209 2.746-2.2441 5.7601-5.76 6.8748-14.962 2.2071-22.021-5.3344-8.0684-16.198-10.288-24.266-4.9531-8.0685 5.3344-10.288 16.199-4.9532 24.268l-26.951 26.949c-10.068 0.16744-20.13 0.25886-30.199 0.24219v-55.807c6.8786-1.4044 12.25-6.7757 13.654-13.654 1.9333-9.4773-4.1769-18.727-13.654-20.66-1.1847-0.24166-2.3656-0.35803-3.5293-0.35742-8.146 4e-3 -15.439 5.7191-17.131 14.012-1.9333 9.4773 4.177 18.727 13.654 20.66v55.736c-10.397-0.0638-20.797-0.0342-31.186-0.3164l-5.0429 6e-3v-152.41h35.375c1.4045 6.8786 6.7756 12.25 13.654 13.654 9.4769 1.9333 18.729-4.177 20.662-13.654 1.9332-9.4773-4.179-18.729-13.656-20.662-1.1847-0.24166-2.3656-0.35607-3.5293-0.35547-8.1459 4e-3 -15.439 5.7191-17.131 14.012h-42.379v159.43l-12.723 0.01563c-9.342-0.29641-20.782 4.2188-28.383-1.9121-4.1101-23.929-3.4345-48.421-3.6426-72.727h32.324v-154.45c6.8785-1.4044 12.252-6.7777 13.656-13.656 1.9334-9.4773-4.179-18.727-13.656-20.66-1.1846-0.24162-2.3656-0.35802-3.5293-0.35742-8.146 4e-3 -15.439 5.721-17.131 14.014-1.9333 9.4773 4.1789 18.727 13.656 20.66v147.45h-25.381c-0.023-1.2535 0-2.5196-0.033-3.7715-1.2486-54.111-2.1092-108.23-3.1543-162.35-2.8178-15.119-1.295-31.09-5.9805-45.744-10.868-5.1391-19.867-12.434-27.111-21.037zm65.16 57.779c5.8034 0 10.508 4.7045 10.508 10.508 0 5.8034-4.7044 10.508-10.508 10.508s-10.508-4.7044-10.508-10.508c0-5.8033 4.7044-10.508 10.508-10.508zm678.16 25.143c-13.097 9.3308 5.1005 21.488 6.1934 32.088-2.2539 12.291-19.421 18.886-14.094 33.131h-19.354c-1.4044-6.8786-6.7757-12.252-13.654-13.656-1.1847-0.24167-2.3656-0.35802-3.5293-0.35742-8.1459 4e-3 -15.439 5.721-17.131 14.014-1.9334 9.4773 4.1769 18.727 13.654 20.66 9.4774 1.9333 18.727-4.179 20.66-13.656h19.826c0.9305 18.962-2.1542 37.858-2.3867 56.787 0.8765 14.83 3.0731 29.577 2.4062 44.477 0.314 16.883 1.3265 33.795 0.125 50.666-9.7094 9.5958-23.86 4.2239-35.879 6.4609v-96.236h-29.387c1.1225 1.4579 2.3929 2.8017 3.4063 4.3359 0.5554 0.84791 0.9177 1.8013 1.4414 2.668h17.533v88.633c-11.587-0.96781-23.724 6.773-26.58 18.295-3.9034 5.3034-21.92 14.471-9.3008 19.584 39.15-2.3005 78.411-0.33359 117.56-2.5918 8.2111-11.503-0.4633-25.569 2.8652-38.123-2.7173-19.655-3.662-39.471-4.8828-59.254-0.5615-43.478-6.0016-86.819-4.3613-130.34-1.0179-10.248 2.4869-24.619-1.2285-32.297-8.1783-0.62372-16.047-3.104-23.906-5.2832zm-44.414 58.213c5.8034 0 10.506 4.7045 10.506 10.508s-4.7024 10.508-10.506 10.508c-5.8035 0-10.508-4.7045-10.508-10.508s4.7043-10.508 10.508-10.508zm-58.314 6.1172c-8.146 4e-3 -15.439 5.721-17.131 14.014-1.9333 9.4773 4.1769 18.727 13.654 20.66v10.482c2.3967 0.85869 4.7194 1.8873 7.0058 2.998v-13.48c6.8786-1.4044 12.25-6.7776 13.654-13.656 1.9332-9.4773-4.177-18.727-13.654-20.66-1.1847-0.24166-2.3656-0.35801-3.5293-0.35742zm-499.97 0.84179c5.8034 0 10.508 4.7025 10.508 10.506 0 5.8034-4.7044 10.508-10.508 10.508-5.8033 0-10.506-4.7044-10.506-10.508 0-5.8033 4.7025-10.506 10.506-10.506zm499.99 6.1621c5.8034 0 10.508 4.7045 10.508 10.508 0 5.8034-4.7044 10.508-10.508 10.508s-10.506-4.7044-10.506-10.508c0-5.8033 4.7025-10.508 10.506-10.508zm-97.709 38.428c-3.3723-0.0341-6.7907 0.90392-9.8164 2.9043l-2.7148-2.7148c-2.3549 1.0369-4.8243 1.7875-7.2481 2.6582l5.0098 5.0098c-3.8708 5.857-3.8708 13.456 0 19.312 5.3344 8.0684 16.197 10.288 24.266 4.9531 1.0085-0.66673 1.9257-1.4189 2.7481-2.2422 5.7601-5.7601 6.8708-14.964 2.2031-22.023-3.3341-5.0428-8.8267-7.8005-14.447-7.8574zm-0.1582 7.0078c2.6891 0 5.3779 1.0264 7.4297 3.0781 4.1035 4.1036 4.1022 10.756 0 14.859-4.1036 4.1036-10.756 4.1039-14.859 0-4.1036-4.1036-4.1036-10.756 0-14.859 2.0518-2.0518 4.7405-3.0781 7.4297-3.0781zm-414.93 31.73c5.8034 0 10.508 4.7045 10.508 10.508s-4.7044 10.506-10.508 10.506c-5.8033 0-10.506-4.7025-10.506-10.506s4.7025-10.508 10.506-10.508zm75.266 36.115c2.6884 5e-4 5.3763 1.0268 7.4277 3.0781 4.1036 4.1036 4.1022 10.756 0 14.859-4.1036 4.1035-10.754 4.1036-14.857 0-4.1036-4.1036-4.105-10.756 0-14.859 2.0513-2.0513 4.7393-3.0776 7.4278-3.0781zm204.82 54.637c-16.849-0.13293-31.761 8.5844-47.02 14.455-8.6236 2.4976-16.507 6.8508-23.947 11.781-3.683 1.217-13.224 2.6052-6.8789 7.5195 5.1959 1.2053 10.855-0.75791 16.272-0.33789 25.947-0.3521 51.892-0.97274 77.814-2.1973 17.944-0.8601 35.932-0.75603 53.857-1.9492 5.1973 0.94018 8.8945-4.4709 3.0097-7.1328-6.8679-1.8506-12.111-7.4649-19.004-9.1934-6.2092-3.1758-13.01-5.1438-19.549-7.5703-10.602-3.0972-21.668-4.35-32.635-5.3379l-0.9609-0.0273z" fill="url(#a)"/><path d="m2515.4 72.344c-18.918 0.10584-41.614 8.569-6.8984 10.744 31.712 11.04 63.964 23.429 92.512 41.33 35.311 21.35 59.891 55.764 84.904 86.67 17.896 23.089 32.121 51.599 41.34 80.662 30.614-3.0476 3.133-55.64 10.248-79.559-2.3546-42.809 4.2531-84.856 0.7715-127.73-32.296-15.478-72.877-3.8264-108.38-5.918-35.741-3.641-70.874-3.3851-106.8-5.6914-2.3702-0.36866-4.9966-0.52489-7.6993-0.50977zm-523.73 0.01758c-33.152 19.004-9.8453 72.964-17.674 105.91-0.8251 47.723 1.8635 96.23-1.3242 143.06 16.114-24.192 25.642-59.452 39.518-87.875 21.535-40.686 57.428-71.178 95.816-95.145 38.249-26.061 79.489-48.215 124.94-58.314 2.5436-16.386-50.709 0.35788-69.5-3.2129-47.126-0.75479-94.488 4.3072-141.21-2.3555-10.425 1.6931-20.643 1.3571-30.566-2.0703zm111.4 22.639c30.031 22.629-37.333 39.251-9.8847 6.9648l6.1777-5.4102zm-87.666 1.3496c4.1713-0.02415 9.0056 0.40914 14.606 1.3398 23.42-3.2201 51.339 24.95 12.68 13.723-47.988-10.897 37.522 62.573-15.041 35.146-9.2859-13.725-33.589-21.858-20.856 2.4727 8.6304 34.123-23.717 36.359-16.982 0.79687-0.3322-30.759-3.6048-53.309 25.594-53.479zm594.81 0.73828c25.929 26.942-35.093 10.628 0 0zm74.221 3.5508c18.558-0.0202 36.264 5.5342 31.648 31.27 6.8136 18.304-3.9106 56.349-11.107 16.592 4.8517-33.738-16.334-21.128-31.646-4.5762-32.517 3.0811 42.023-39.836 2.8652-29.125-21.345 7.5568-49.826-13.417-13.012-13.346l8.5313-0.0898c4.1094-0.41906 8.438-0.71995 12.721-0.72461zm-388.28 34.361c-35.849 6.996-78.899 14.77-104.07 43.5-16.264 19.679-29.12 49.996-27.332 51.531 4.2315 3.6326 21.513 3.2902 41.693 23.43 23.477 22.442 34.176 65.274 10.082 101.52-22.566 31.933-48.337 36.913-85.002 35.521-3.0293 19.496 0.5575 36.681-3.0586 71.762-1.3228 12.832-1.5269 18.065-0.7383 18.854 6.3666 2.393 13.962 2.6431 20.746 2.3848l3.0586-8.5c6.3799-17.728 17.425-39.598 43.98-50.73 4.4857-1.8804 44.551-17.573 75.914 7.8223 9.894 8.0113 18.211 12.603 44.605 24.908 0 0 18.343-10.271 23.561-18.779 7.4714-12.027 16.26-24.071 20.418-37.752 0-2.1187-34.891-27.186-46.154-37l2.0546-5.2129c2.4879-6.3117 5.8264-25.319 6.0157-34.256-0.095-10.25 6.3711-11.408 6.3711-11.408l43.73-15.076s5.9228-1.9237 5.3887-9.3281c-0.6238-8.6468-10.376-55.149-15.545-60.787-10.74-3.8788-38.618 2.577-51.662 4.7539-13.74 2.3645-2.5819-3.8966-37.146-40.855 23.974-45.306 26.428-50.953 25.086-53.898-0.6016-1.3203-1.4999-2.4004-1.9961-2.4004zm418.83 58.438c29.724 21.243-22.401 29.279-3.5352 0.58398zm-718.47 0.50391c22.279 28.145-24.138 24.593 0 0zm559.66 41.406c-6.9257 2.1116-18.052-1.7579-23.754 3.1172-3.1552 4.3149-10.569 73.036-11.717 74.184-5.0362 5.0357-7.787-4.4919-62.383 22.979-10.132-9.6532-54.421-50.337-58.584-49.062-5.1253 1.5688-32.455 24.071-43.182 35.553-9.3726 10.033-20.537 23.687-20.537 25.117 0 2.2487 12.876 20.106 31.553 43.766 14.35 18.177 13.621 15.123 6.4395 27.012-10.514 17.406-11.364 20.988-4.9746 20.988 7.0583 0 21.407 6.2251 29.211 12.674 12.89 10.652 23.964 32.148 28.338 55.01 3.4983 18.284-0.3669 39.962-9.7012 54.404-10.934 16.916-20.028 23.578-42.154 30.875-12.876 4.2469-13.586 5.2424-10.838 15.221 1.1086 4.0244 2.5393 11.141 3.1797 15.816 5.2135 14.89 2.5316 29.738 2.42 45.5-0.1228 24.836-0.5263 32.057-2.8086 50.291-1.4657 11.71-2.6641 22.58-2.6641 24.152 0 2.2582 1.296 3.9832 6.1621 8.207 3.3892 2.9419 7.3267 6.1051 8.75 7.0273 3.9454 2.5567 5.3379 2.2119 11.857-2.9277 8.6972-6.8565 25.664-19.957 43.826-33.84l8.0957-6.1895 4.9043 3.2656c11.061 7.3668 47.803 24.237 53.883 24.74 1.7259 0.14284 2.1604 0.91788 2.3711 4.2246 0.5531 8.6789 0.672 9.5568 1.3359 9.7988 0.3773 0.1375 5.0686-3.35 10.426-7.75 20.78-17.067 39.037-42.381 49.404-68.5 5.3134-13.386 13.772-46.437 12.127-47.387-0.3532-0.20387-4.8701-0.25007-10.037-0.10351-8.1048 0.22988-13.567-0.19772-26.154-2.0488-5.9644-0.87717-21.135-7.0707-29.85-12.186-16.071-9.4324-33.536-28.216-41.168-44.275-5.4054-11.375-9.6444-25.005-9.7988-31.5-1.2176-12.539-0.2766-24.908 1.4238-37.322 0.7547-5.5902 8.1494-24.004 12.883-32.078 8.7502-14.925 26.374-31.047 43.496-39.791 12.05-6.1535 10.539-3.559 13.59-5.6797 5.6165-3.9037 26.572-5.7619 45.473-4.0332 4.125 0.37726 8.625 0.73469 10 0.79492l2.5 0.10938-0.2324-10c-0.7741-33.26-24.959-179.85-33.111-180.15zm-391.93 2.9004c-6.3416 6.9674-4.823 17.126-7.9786 25.436-6.6465 31.769-13.227 63.572-21.49 94.969-0.1789 7.0469-4.858 14.481-0.9336 21.248 6.3485 5.6937 15.144 1.7224 22.633 2.4805 31.34-2.1913 57.956-28.018 64.645-58.145 5.1927-22.313-1.5165-47.093-17.949-63.203-10.432-11.086-23.931-19.607-38.926-22.785zm73.592 192.9c-1.3009-0.0497-2.6271-0.0274-3.9766 0.0684-17.108 0.24617-34.42 3.3998-48.035 14.363-15.109 14.323-24.828 35.03-25.709 55.828 1.6023 22.981 15.556 46.581 38.74 52.924 12.152 1.633 30.055 3.0161 15.213 17.168-12.152 20.993-22.516 43.063-31.707 65.473-6.5283 23.222-11.98 47.245-16.539 71.129-7.3836 8.9818-0.9749 14.276 5.7812 20.941 11.82 12.391 26.104 22.256 40.029 31.996 28.248 15.898 60.1 23.655 91.717 29.826 15.761 5.2508 41.335 6.0194 41.838-16.516 2.9887-15.132 4.8222-30.41 6.3848-45.842 1.8551-14.691 4.3166-29.329 3.9199-44.268-0.4289-24.694 1.7028-50.1-4.9121-74.146-2.4064-9.7271-18.553-29.738 2.7656-26.83 18.896-3.397 39.698-9.7318 50.234-27.264 12.392-16.724 14.036-39.58 6.6035-58.695-4.3808-13.861-11.143-28.705-23.832-36.998-14.804-11.935-36.497-11.449-51.596-0.41797-11.404 10.062-22.116 20.998-29.918 34.004-10.127 1.4252-21.899-1.5163-20.307-14.668-4.0719-14.32-10.492-28.101-23.174-37.225-6.5119-6.6413-14.415-10.503-23.521-10.852zm326 2.4941c-38.731-0.55956-75.28 27.09-88.225 63.156-11.712 33.012-3.7407 72.64 21.699 97.176 15.173 15.726 36.209 25.967 58.172 26.74 8.94 2.0488 23.648 3.2857 25.283-8.9394 2.7573-17.251 2.2942-34.854 4.3047-52.215 3.6689-39.216 10.01-78.61 6.2012-118.07-3.9721-9.4306-15.706-6.3633-23.682-7.7012-1.2532-0.0774-2.5045-0.12453-3.7539-0.14258zm-300.15 82.512c45.816 31.536-47.802 42.826-7.5821 2.4922zm44.982 9.3184c1.0267 0.0226 2.0762 0.19264 3.1347 0.53125 34.87 1.7362-12.637 59.269-16.881 14.021 0.4737-7.6098 6.5591-14.711 13.746-14.553zm-333.59 67.115c-8.0684 26.964-3.3404 64.162-5.082 95.148 7.3613 38.656 0.6002 77.617 2.6543 116.85-15.778 55.025 45.689 56.01 83.228 50.828 48.09-4.5725 96.739 1.7429 144.64-2.3945 37.471-10.009-23.435-16.97-32.557-30.58-33.798-19.771-66.638-43.466-98.504-66.9-36.992-34.064-60.074-80.069-80.637-125.25-3.8101-12.535-4.7697-27.798-13.748-37.697zm764.21 15.678c-10.217 37.648-29.33 72.209-53.09 103.67-31.628 44.095-75.228 78.515-121.56 105.35-17.291 7.9778-90.524 26.186-39.266 30.592 42.583-4.3425 85.083-0.79571 127.67-2.8848 27.088-6.0035 91.946 20.409 89.533-20.477-0.9712-56.799 2.0966-113.37 2.9375-170.12 1.247-15.435 0.5561-34.88-6.2285-46.135zm-746.3 83.74c24.113 8.5544-16.018 32.346-4.0039 1.5449zm724.54 17.227c21.325 23.368-26.066 30.653-5.7246 2.4785l3.1543-1.8438zm-720.7 36.607c0.7361 20.697 6.1404 75.754 24.621 33.082 10.857-19.015 30.656-11.273 9.5449 3.9102-30.013 21.038 7.1005 29.51 25.838 23.367-2.5178 15.344-58.404 28.717-62.307 7.5508 0.3487-22.265-4.242-46.603 2.3028-67.91zm695.08 0.35352c10.084 19.609 19.905 85.168-21.387 74.176-19.792 9.8886-55.271-10.114-19.359-19.721 14.891 2.2923 37.404-0.10959 12.48-13.047-25.283-42.904 38.008 32.692 19.824-6.6758-11.314-10.643-1.0231-27.179 8.4414-34.732zm-591.99 60.498c9.2102 27.282-25.611 9.5516 0 0zm514.46 2.3086c14.705 25.823-41.615 24.398-6.3008 2.6055z" fill="url(#b)"/><path d="m1809.7 78.07c-3.2898-0.01326-6.9578 0.38422-11.035 1.2363-10.821-0.45072-21.654-0.42281-32.482-0.41406-37.297-0.28868-72.791 8.0609-110.14 5.0137-24.238 5.5081-63.764-2.4901-78.354 2.9199 33.185 5.5184 63.219 18.694 92.754 34.174 26.474 13.873 47.521 34.777 69.047 55.938 21.21 25.002 49.326 45.064 62.48 75.562 17.256 13.496 17.123 65.882 31.211 64.527 2.9662-30.478-3.0616-56.463 0.3067-84.152-4.0957-36.792 4.0726-72.448 0.4824-109.38 3.2626-25.128-1.2425-45.337-24.272-45.43zm-711.8 3.0488c-14.03 0.16519-25.874 3.3379-32.182 14.654-1.1882 49.61-0.8994 99.931-0.7402 148.71 4.6585 24.67-7.7718 76.623 3.2363 84.768 8.4266-29.549 18.785-60.383 35.164-87.043 25.703-26.243 44.783-58.662 76.861-78.555 37.977-33.143 81.69-62.497 132.58-69.652 23.424-17.578-38.01-8.7896-48.447-9.6133-31.338 2.0535-62.49 0.23485-93.615-2.7891-20.02 7.3275-49.476-0.75384-72.859-0.47852zm594.42 15.686c23.28 2.4273 36.183 15.38 59.652 3.7813 23.636-6.8586 16.112 28.894 33.396 6.041 39.516-23.486 6.8577 24.013 18.27 29.373 32.481 6.1962-9.0347 40.448 15.277 57.725 8.3643 50.237-34.606 3.603-31.215-20.568-33.122 13.966-38.251-36.637-36.682-45.854-22.427 24.261-48.921-6.5888-55.307-23.211-16.19 5.7686-42.669-8.4236-10.781-7.2246zm-603.52 3.2051c24.32 11.537 33.62 26.47 55.473 4.8926 26.448-5.9073 9.9295 34.716 34.592 9.0977 21.748-18.708 76.705-5.3946 31.037 13.926-20.144 1.3825-39.314-0.34927-39.604 27.283-14.836 20.599-46.848-33.088-34.334 7.416 9.3027 29.793-18.032 32.176-27.725 26.533 9.4409 20.864-24.936 86.163-29.27 36.748 1.2984-24.995 23.077-36.456 0.7617-55.002-1.89-23.844 36.362-28.713 5.8711-44.164-1.7751-7.7921-13.338-27.493 3.1973-26.73zm486.35 66.221 0.1524 24.957 0.076 12.512 0.92 1.1426 2.1738 2.6992c4.4459 5.5187 9.8265 8.3062 16.072 8.3262 3.2112 0.0102 5.3583-0.45748 5.6718-1.2344 1.0336-2.5615 0.6325-13.377-0.539-14.549-0.66-0.65997-2.1793-1.2012-3.377-1.2012s-2.6888-0.61373-3.3125-1.3652c-0.4878-0.5878-0.7135-6.8164-0.8222-16.43-0.2277-0.22349-0.4526-0.45539-0.7032-0.69141-5.3358-4.8369-10.84-9.4832-16.312-14.166zm-46.678 0.79687c-30.689 6.3116-43.232 39.266-53.668 65.209-4.6233 19.35-11.34 38.676-12.607 57.828-2.2806 22.457 1.1857 44.762 1.7754 67.088-22.472-2.0973-47.191-4.7526-66.186 9.7969-19.681 8.8712-36.495 25.202-48.203 43.051-13.372 22.705-15.85 51.005-12.066 76.857 3.1416 22.553 17.205 43.724 22.455 63.643-20.943 24.435 8.2799 47.609 31.705 53.5 32.458 9.0466 67.674 5.3095 99.295-5.3555 10.38-2.4358 26.257-9.5522 13.863 7.2832-7.1098 24.637-12.514 53.871 1.2969 77.27 6.9116-2.4594 31.96-9.6917 19.68 4.3438-12.191 6.8408-31.275 19.934-43.984 9.668-15.422-23.02-42.631 8.5737-57.049-4.1582-20.688-13.409-41.946-27.781-38.275-55.551-10.469-21.48-44.998-30.093-60.299-10.303 21.672 3.0677 38.529 33.459 11.08 41.061-11.672-4.3748-36.694-20.377-25.744 5.1543 7.7999 25.79 35.692 26.635 56.676 22.859 18.577 15.334 49.14 26.967 44.299 55.164-0.2172 24.658 23.711 47.159 48.559 44.094 18.789-6.4041 54.397 4.5411 55.363-24.889-17.232-28.282 29.396-19.729 44.578-30.41 22.182-9.9946 44.592-23.649 58.936-43.73 16.01-22.314-24.578-43.933-12.658-61.061 29.96-6.9258 5.9432-38.89-11.725-45.678-11.268-13.535-37.053-12.381-46.338-21.033 14.018-18.872 41.063-33.2 37.77-60.107 4.8156-22.921 0.6908-45.658-4.5273-67.621-6.7179-27.197-22.859-51.113-41.764-71.561-18.484-14.558-6.9383-41.632-4.8301-61.881 6.105-21.482 8.6868-43.843 13.676-65.484 0.5451-22.113 8.9894-47.716-5.9531-66.904-4.1011-4.1764-9.5839-6.8384-15.129-8.1426zm-108.51 15.148c-0.6118-0.0292-1.2274-0.0215-1.8457 0.0273-11.411-0.42615-22.655 6.4985-27.6 16.758-9.4633 11.858-13.323 26.97-16.619 41.467-1.0837 11.828-1.6746 23.799-4.707 35.326-1.2467 16.56 3.4325 32.745 6.1699 48.918 2.1703 8.7384 3.9385 17.577 6.4082 26.24 4.3609 6.7803 13.124 2.4132 18.496-0.59961 7.1658-3.229 15.052-4.2577 22.795-5.0938 6.032 1.2762 16.047-0.83966 15.74-8.5938-4.0581-17.358 0.2157-35.18 1.1914-52.664 1.6472-22.457 1.7455-45.014 1.5782-67.514-0.13-10.411-1.576-22.033-10.088-29.166-3.1604-2.8531-7.2364-4.9008-11.52-5.1055zm-99.949 2.2969c-5.8749 3.1172-11.606 6.4763-17.197 10.078 0.2099 5.5303 0.3354 13.044 0.4492 28.529 0.1532 20.84 0.034 38.894-0.2637 40.117-0.3557 1.4624-1.6492 2.511-3.7773 3.0625l-3.2383 0.83984v15.873l2.9082 0.33007c7.7955 0.8891 16.024-4.2474 19.748-12.33 1.7143-3.7207 1.8257-7.0444 1.5938-47.576zm282.24 8.084-0.1523 28.57c-0.2733 50.92-0.2559 51.446 1.8223 54.088 2.7035 3.437 7.9441 3.6683 10.914 0.48047 1.9969-2.1436 2.0391-3.2434 2.0391-53.545v-7.6875c-0.8966-1.5403-1.699-3.1322-2.6387-4.6484-3.744-5.9103-7.6845-11.728-11.984-17.258zm-310.04 8.9844c-1.2555 0.87939-2.4573 1.8199-3.3965 3.0488-3.0065 3.671-5.6778 7.5988-8.4199 11.473 0.656 0.54737 1.4153 0.96731 2.4024 1.3359 2.5845 0.9653 6.674-0.33305 8.4589-2.6856 0.6312-0.83183 0.8665-5.6584 0.9551-13.172zm302.93 24.42c-0.695 0.0175-1.4714 0.073-2.3379 0.15625-6.2388 0.5994-12.479 4.7098-15.65 10.309-2.2285 3.9348-2.2418 4.223-2.2578 48.248-0.015 41.586 0.1002 44.516 1.8867 48 2.4057 4.691 5.6135 7.6922 10.328 9.6621 4.4896 1.8759 12.398 2.0547 13.107 0.29687 0.7289-1.8072 0.7693-12.305 0.055-14.168-0.3339-0.87-1.5976-1.582-2.8086-1.582s-2.9687-0.5625-3.9062-1.25c-1.5646-1.1473-1.6831-4.5309-1.4414-41.209l0.2636-39.959 3.379-0.6914c4.4097-0.9016 5.0874-2.1638 5.1054-9.5176 0.014-5.7352-0.6268-7.8214-3.873-8.2246-0.5411-0.0672-1.1546-0.0878-1.8496-0.0703zm28.074 0.15234-2.8379 0.26953v7.8926c0 6.5214 0.3038 8.0402 1.75 8.75 0.9625 0.4725 2.5375 1.2445 3.5 1.7168 1.6133 0.7916 1.7726 3.8192 2.0293 38.75 0.1531 20.84 0.034 38.892-0.2637 40.115-0.3558 1.4625-1.6491 2.513-3.7773 3.0645l-3.2383 0.83789v15.873l4.1836 0.30469c7.157 0.5205 15.39-5.11 18.723-12.805 1.2722-2.937 1.5209-10.175 1.5489-45 4e-4 -0.48248-0.01-0.68422-0.01-1.1602-0.1669-0.60404-0.2899-1.2208-0.459-1.8242-1.6484-5.9114-3.4632-11.994-5.3594-17.836-4.3398-13.322-9.5156-26.412-15.789-38.949zm-338.55 7.4609c-1.451 0.0705-2.9158 0.67162-4.3203 1.8086l-2.3613 1.9121-0.2754 51.42c-0.2733 50.92-0.2559 51.448 1.8222 54.09 2.7036 3.4368 7.9442 3.6663 10.914 0.47851 1.997-2.1435 2.0391-3.2435 2.0391-53.545v-51.357l-2.4551-2.4551c-1.4721-1.472-3.0903-2.2569-4.7422-2.3496-0.2065-0.0116-0.4138-0.0119-0.6211-2e-3zm-16.918 2.459c-0.8167 1.507-1.6785 2.9895-2.455 4.5176-5.3134 10.478-9.4774 21.521-12.613 32.84l1.4004 1.7383c4.4459 5.5185 9.8265 8.3062 16.072 8.3262 3.2112 0.0103 5.3584-0.45552 5.6719-1.2324 1.0336-2.5616 0.6326-13.379-0.539-14.551-0.66-0.66-2.1793-1.1992-3.377-1.1992-1.1976 0-2.6887-0.61569-3.3125-1.3672-0.6539-0.78803-0.8575-11.239-0.8477-29.072zm3 57.518c-0.6949 0.017-1.4713 0.071-2.3378 0.1543-6.2387 0.5995-12.479 4.7098-15.65 10.309-2.2285 3.9347-2.2419 4.2232-2.2579 48.248-0.015 41.586 0.1002 44.516 1.8868 48 2.4056 4.6909 5.6135 7.6922 10.328 9.6621 4.4896 1.8758 12.398 2.0566 13.107 0.29883 0.7289-1.8072 0.7693-12.307 0.055-14.17-0.3339-0.86994-1.5975-1.5801-2.8086-1.5801-1.211 0-2.9687-0.5625-3.9062-1.25-1.5646-1.1474-1.6832-4.5331-1.4414-41.211l0.2636-39.959 3.3789-0.68945c4.4097-0.9016 5.0875-2.1658 5.1055-9.5195 0.014-5.7352-0.6273-7.8194-3.873-8.2227-0.5411-0.0672-1.1547-0.0873-1.8497-0.0703zm30.141 0.0469c-0.5053-0.0133-1.0044 2e-3 -1.4961 0.0488l-3.4082 0.32618v7.8906c0 6.5213 0.3037 8.0401 1.75 8.75 0.9625 0.4724 2.5375 1.2445 3.5 1.7168 1.6132 0.7916 1.7726 3.8193 2.0293 38.75 0.1532 20.84 0.034 38.894-0.2637 40.117-0.3557 1.4624-1.6492 2.511-3.7773 3.0625l-3.2383 0.83984v15.873l4.1836 0.30273c7.157 0.5205 15.39-5.1082 18.723-12.803 1.2721-2.9371 1.5209-10.175 1.5489-45 0.021-26.295-0.3551-42.901-1.0274-45.322-2.1023-7.5711-10.944-14.353-18.523-14.553zm308.49 0.28515c-1.425 0-3.6949 1.1051-5.0449 2.4551l-2.4551 2.4551v50.91c0 49.991 0.037 50.958 2.0723 53.545 2.6214 3.3325 7.3382 3.5376 10.613 0.46093l2.3145-2.1738v-102.74l-2.4551-2.4551c-1.35-1.35-3.6199-2.4551-5.0449-2.4551zm-14.73 60c-7.4964 0-14.308 4.2752-17.865 11.211-0.8046 1.5692-1.2386 3.4766-1.5059 8.4043 6.3115 8.4245 11.966 17.331 16.858 26.643-0.049-20.055 0.1636-27.084 1.4238-28.008 0.9375-0.6875 2.6952-1.25 3.9062-1.25 2.7645 0 3.416-1.6927 3.416-8.8809 0-6.7294-1.0664-8.1191-6.2324-8.1191zm31.377 0.17969c-0.4927-0.0225-0.9804-0.0175-1.4629 0.0176l-4.1836 0.30273v15.873l3.2383 0.83984c2.1282 0.5514 3.4215 1.6001 3.7773 3.0625 0.2977 1.2236 0.4168 19.277 0.2637 40.117-0.2567 34.931-0.416 37.958-2.0293 38.75-0.9625 0.4722-2.5375 1.2444-3.5 1.7168-1.4462 0.7099-1.75 2.2287-1.75 8.75v7.8906l3.4082 0.32617c7.5911 0.7242 16.827-5.6052 19.623-13.449 1.7396-4.8805 2.0976-83.57 0.4083-89.654-2.103-7.5727-10.403-14.206-17.793-14.543zm-341.04 7.4102c-1.425 0-3.6955 1.1031-5.0449 2.4531l-2.4551 2.4551v50.91c0 49.99 0.037 50.958 2.0722 53.545 2.6214 3.3325 7.3383 3.5375 10.613 0.46094l2.3145-2.1738v-102.74l-2.4551-2.4551c-1.35-1.35-3.6199-2.4531-5.0449-2.4531zm-14.73 60c-7.4965 0-14.308 4.2731-17.865 11.209-1.7863 3.4837-1.9012 6.4137-1.8868 48 0.016 44.025 0.029 44.313 2.2579 48.248 3.1712 5.5987 9.4117 9.7091 15.65 10.309 3.2456 0.3119 5.6057 0.0389 6.5703-0.76172 1.6688-1.385 2.1308-12.47 0.6191-14.855-0.4705-0.7424-2.3758-1.659-4.2344-2.0391l-3.3789-0.69141-0.2636-39.959c-0.2418-36.678-0.1232-40.062 1.4414-41.209 0.9375-0.6875 2.6952-1.25 3.9062-1.25 2.7645 0 3.416-1.6946 3.416-8.8828 0-6.7293-1.0664-8.1172-6.2324-8.1172zm31.377 0.17773c-0.4927-0.0225-0.9804-0.0175-1.4629 0.0176l-4.1836 0.30469v15.871l3.2383 0.83984c2.1281 0.5515 3.4216 1.602 3.7773 3.0645 0.2977 1.2236 0.4169 19.275 0.2637 40.115-0.2567 34.931-0.4161 37.958-2.0293 38.75-0.9625 0.4723-2.5375 1.2443-3.5 1.7168-1.4463 0.7099-1.75 2.2286-1.75 8.75v7.8926l3.4082 0.32422c7.5911 0.72414 16.827-5.6052 19.623-13.449 0.5687-1.5954 0.9256-11.926 1.1758-24.182-0.7388-2.795-1.3786-5.6173-1.8867-8.4707-3.0616-18.188-3.3152-36.935 0.062-55.1 0.1877-0.97808 0.4601-1.9409 0.668-2.916-2.5322-7.1353-10.351-13.207-17.404-13.529zm307.56 0.18945c-1.9656 0.0585-3.8856 0.95564-5.2402 2.6777-0.3765 0.47867-0.6639 0.99507-0.9161 1.6836 2.5633 8.2061 4.5639 16.595 6.1739 25.033 3.0004 15.283 4.6442 30.933 3.498 46.506-0.2186 4.391-1.1736 8.7072-1.3769 13.098 0.056 7.645-1.155 15.319-3.8067 22.502 2.3914 0.79553 4.9513 0.33237 7.041-1.6309l2.3145-2.1738v-103.02l-2.1738-2.3144c-1.5369-1.636-3.5481-2.416-5.5137-2.3574zm-152.44 1.541c12.072-0.0422 25.098 3.4218 32.893 13.264 9.212 9.8843 16.691 21.81 19.92 35.02 2.7428 12.721-1.2831 26.046-8.3516 36.668-7.9219 11.728-20.525 19.858-34.24 23.039-5.9684 1.8503-12.494 1.3732-18.244-0.95898-5.951-1.0646-13.641 0.78355-17.781-4.7969-5.2271-7.3205-16.269-9.6681-18.635-19.168-2.5651-10.727-5.3291-21.621-4.2988-32.758 0.4302-13.863 7.1527-27.067 17.613-36.068 5.4121-5.2752 11.888-9.5274 19.328-11.248 3.905-1.103 7.8839-1.9211 11.797-2.9922zm0.7637 21.619c-8.7565 0.74731-16.901 6.1974-21.514 13.551-4.0923 8.9668-7.614 19.365-3.8632 29.072 2.0369 7.0706 6.8492 13.517 13.889 16.178 6.6338 2.918 14.949 4.1338 21.488 0.41406 7.5448-5.1758 9.327-15.037 8.8711-23.586 0.072-7.75 0.7445-15.775-1.5234-23.279-2.8693-6.8958-9.7906-12.13-17.348-12.35zm167.69 36.926c-0.6298 9e-3 -1.2713 0.0523-1.9258 0.12695l-2.9082 0.33008v15.873l3.2383 0.83984c2.1282 0.5514 3.4215 1.6001 3.7773 3.0625 0.2977 1.2236 0.4168 19.277 0.2637 40.117-0.2567 34.931-0.416 37.958-2.0293 38.75-0.1257 0.0617-0.3131 0.154-0.457 0.22461 4.3608 4.0723 8.2426 8.64 11.482 13.648 3.3788-2.5735 6.1237-5.8512 7.0859-9.1914 0.537-1.8638 0.9894-21.775 1.0274-45.324 0.077-47.42 0.194-46.601-7.6719-53.693-3.6446-3.2859-7.4744-4.8294-11.883-4.7637zm-340.41 7.502c-1.9654 0.0586-3.8857 0.95759-5.2403 2.6797-2.0355 2.5872-2.0722 3.5545-2.0722 53.545v50.91l2.4551 2.4551c3.0514 3.052 7.1602 3.1635 10.23 0.2793l2.3145-2.1738v-103.02l-2.1739-2.3144c-1.5368-1.6359-3.5482-2.418-5.5136-2.3594zm-14.666 60.061c-6.2205 0.0199-11.608 2.8161-16.047 8.3262l-3.0957 3.8418-0.2793 45.752-0.2774 45.752 3.2774 4.8359c1.8527 2.7328 4.9364 5.6837 7.0898 6.7852 4.8753 2.4937 12.17 3.3669 14.182 1.6973 1.6716-1.3873 2.1365-12.469 0.623-14.857-0.4704-0.7424-2.3778-1.659-4.2363-2.0391l-3.3789-0.69141-0.2617-39.844c-0.1876-28.579 0.06-40.229 0.873-41.209 0.6238-0.7515 2.113-1.3652 3.3106-1.3652 3.4566 0 4.5781-1.988 4.5781-8.1191 0-8.382-0.3607-8.8842-6.3574-8.8652zm30.688 0.0254c-0.6299 0.01-1.2713 0.0523-1.9258 0.12695l-2.9082 0.33204v15.871l3.2383 0.83984c2.1281 0.5515 3.4216 1.602 3.7773 3.0645 0.2977 1.2236 0.4169 19.275 0.2637 40.115-0.057 7.7165-0.1588 9.2942-0.2227 14.217 1.5105-1.8769 3.0207-3.754 4.5313-5.6309 2.9102-3.8471 6.0259-7.5798 9.7363-10.688 0.9595-0.82518 2.0352-1.4912 3.0586-2.2305 0.073-44.29 0.025-44.32-7.666-51.254-3.1239-2.8164-6.3837-4.353-10.027-4.6934-0.6072-0.0567-1.2256-0.08-1.8554-0.0703zm308.85 0.3086c-2.1462-0.0217-4.2963 0.88699-5.7187 2.6953-1.1036 1.4033-1.5986 3.0877-1.8399 11.619 3.2006 2.0571 6.102 4.6437 9.3008 6.623 1.8238 1.1522 3.631 2.337 5.4004 3.5723-0.1263-19.049-0.5391-20.721-1.9727-22.26-1.3856-1.4874-3.2762-2.2309-5.1699-2.25zm-550.5 12.406c-4.6937 29.06 2.5849 64.715-0.074 96.416-4.0126 50.726-3.6589 102.49-3.3066 152.86-1.8278 21.852-6.6229 58.764 27.184 42.299 68.364 7.4244 137.51 7.2674 206.24 7.0039 39.813 11.326 12.252-26.282-12.709-19.176-33.945-14.141-60.187-40.467-91.627-58.656-26.84-25.902-57.326-49.633-76.246-82.277-21.984-27.808-30.103-62.154-37.805-96.195-11.602-10.842 5.1886-39.078-11.652-42.271zm775.43 38.311c-11.72 34.766-27.235 68.999-50.881 97.992-41.511 55.963-93.507 105.67-157.25 135.26-15.017 8.431-66.886 24.665-21.168 22.035 37.952 4.7091 76.887-2.6193 115.3-1.9629 39.497-3.8516 83.439 5.6611 120.24-2.5918-3.4571-49.644-7.7329-99.567-2.291-149.28-1.223-33.412 3.4424-69.817-3.955-101.45zm-549.7 16.879c-2.0179 0.0827-4.0011 0.9875-5.3399 2.6894-2.0355 2.5872-2.0722 3.5545-2.0722 53.545v50.91l2.4551 2.4551c1.3494 1.35 3.6199 2.4551 5.0449 2.4551s3.6949-1.1051 5.0449-2.4551l2.4551-2.4551v-51.357c0-9.6861-0.013-16.161-0.029-22.557-0.01-3.262-0.029-6.7165-0.047-9.2637-0.012-1.6765-0.043-2.6185-0.061-4.0195-0.1751-13.972-0.6151-16.323-1.9024-17.705-1.478-1.5865-3.5309-2.3249-5.5488-2.2422zm359.97 10.334c-0.3209 1.9395-0.7119 3.872-1.3652 5.7422-1.9333 5.7505-5.6188 10.695-9.6446 15.152 2.8868 4.709 5.8971 9.3624 8.2813 14.355 0.9301 2.0483 1.7412 4.1485 2.6211 6.2188 0-0.37827 0.01-0.50765 0.01-0.89062zm-373.82 49.09c-1.9721 0.0497-4.6138 0.66197-8.1269 1.7305-2.0779 0.63196-4.931 2.9272-7.336 5.4961 2.986 9.5451 6.3193 18.983 10.514 28.064 0.5533 1.1049 1.1208 2.2036 1.666 3.3145 0.086-11.413 0.3007-18.971 0.8301-19.609 0.6237-0.7515 2.1128-1.3652 3.3105-1.3652 3.5264 0 4.5782-1.9818 4.5782-8.6289 0-6.4946-1.097-9.1113-5.4356-9.002zm-197.86 3.1582c39.806 12.455 3.2079 74.247 48.754 73.613 2.3285 16.138-9.219 54.385 16.607 28.119 25.726 0.31364 31.926 36.764 62.18 33.201 46.155 25.288-23.608 22.641-37.1 5.1367-14.713-7.5586-7.0811 26.449-30.588 9.3535-18.462-0.0176-18.094-39.626-32.908-10.357-18.958 27.183-38.676 6.6294-25.207-20.359 4.5457-18.336 18.415-27.194 1.0664-39.207-8.1748-24.2 21.949-41.245-7.6543-56.625 0.2848-5.5962-2.0851-20.859 4.8497-22.875zm741.78 7.7832c2.8183 29.72-13.044 55.534 0.3945 77.768 5.2922 22.05-34.649 31.797 0.023 48.586 19.138 38.446-34.891 20.194-46.514 2.8867-12.791 24.926-34.395 11.682-50.986 9.3242-11.828 16.92-81.218 17.023-38.94-4.1484 25.218-3.6501 38.922-7.7154 44.506-34.512 13.356-33.761 60.481 25.245 40.219-16.924-12.83-35.812 37.205-17.205 28.07-50.01 5.4821-11.323 9.0028-29.979 23.227-32.971zm-512.17 10.707c0.372 4.2616 0.6631 19.574 0.6718 38.109 0 5.7574-0.021 9.0071-0.029 13.24 1.0792 0.82506 2.1082 1.7651 3.1914 2.5684 4.3889 3.2525 8.9211 6.3012 13.467 9.3281 0.1352-7.1084 0.2584-14.716 0.2851-25.818l0.059-24.119c-6.7589-3.091-12.819-7.6586-17.644-13.309z" fill="url(#c)"/><path d="m171.66 75.752c-0.69717 0.0045-1.395 0.02725-2.0938 0.07227-7.4962 1.4716-16.788-2.0656-22.623 4.334-3.096 5.187-1.4103 11.641-1.6348 17.393 1.2076 10.221-3.3443 21.002 1.4316 30.709 4.0765 8.2026 14.558 8.7269 22.482 7.2012 16.896-0.84256 33.588-4.6925 49.244-11.021 10.976-2.0647 22.88 0.14824 33.055-5.4434 14.235-5.7319 28.857-10.697 44.074-12.982 10.093-2.208 20.411-4.1823 29.711-8.8769 5.793-0.53071 17.688-7.1929 10.783-13.406-10.518-6.2299-23.105-2.2441-34.582-3.0527-8.1058 1.0982-16.337 1.2569-23.959-2.0703-16.331-4.0009-33.164 1.6918-49.557-1.2402-13.718-3.7285-27.893 0.6281-41.764-0.25977-4.8437-0.51571-9.6882-1.387-14.568-1.3555zm579.49 5.2363c-13.489-0.0383-8.7416 12.171 4.5117 10.473 19.629 9.331 25.803 33.559 41.383 47.896 13.243 17.424 20.084 38.219 30.705 57.143 11.609 26.631 21.646 54.054 30.164 81.816 4.8789 22.562 3.2766 45.617-2.7422 67.732-9.4776 28.481-19.583 58.416-40.697 80.457-9.2408 4.3542-30.673 14.537-9.3828 20.689 18.515 9.3218 32.022 26.109 42.572 43.598 14.485 21.546 28.268 43.921 34.002 69.549 6.8705 21.066 11.604 42.835 14.945 64.74 4.2707 12.66 2.6535 33.626 8.9668 41.676 10.581-26.565 4.3328-56.278 6.8379-84.23 1.0016-28.38 1.7291-56.824 0.75977-85.156 2.4991-30.699-0.39899-61.515-3.9727-91.924-1.4621-30.392 4.6514-60.637 0.63672-90.988 3.5864-20.884-1.8935-41.508 0.41992-62.391 1.7343-53.969-0.3879-107.96-1.8574-161.9-12.629-14.618-39.344-2.2877-57.725-6.4609-32.157-0.94076-64.632 1.0497-96.584-2.5391-1.0643-0.11917-2.0441-0.17518-2.9434-0.17774zm-545.1 7.0117h11.928c1.8168 5.3694 5.8774 10.383 11.434 12 8.4897-1.8882 15.609-8.3565 24.678-7.7539 6.4357-2.1063 12.415 4.6908 5.8027 9.2988-9.3118 9.4227-23.395 9.1414-35.607 10.916-6.673 2.4052-10.445-1.7582-13.312-6.9941-5.2475-5.3098-11.771 2.3594-16.271 5.5723-6.87 3.471-14.65 5.8005-22.387 5.8516-6.9665-1.529-4.3881-12.169-1.9434-16.906 3.5618-7.4309 13.153-8.5629 20.408-10.008 4.783-2.2495 10.082-1.8472 15.271-1.9766zm629.93 9c10.056 2.738 15.26 23.073 28.121 8.2324 20.037-12.873 10.529 17.626 20.846 25.828 3.5914 20.364-11.001 37.978 3.2129 56.01-3.1028 21.174 6.6678 39.368 4.1973 60.477 0.50366 11.43-13.055 49.239-16.986 21.701-13.566-17.83 12.792-44.392-11.438-52.617-17.785-9.0882-2.9153-28.981-6.0801-39.662-18.396 0.74286-29.17-22.792-12.861-33.35-12.196-11.132-42.206-10.233-39.068-33.428-15.52-18.746 17.108 0.66541 23.795-11.441l2.3476-1.3203zm-239.88 60.971c-92.742-0.29517-168.23 69.252-174 81.547-7.6685 16.324-6.3272 24.112-26.861 25.418-12.085 0.23846-38.244 63.391-38.244 74.793 0 3.5103 38.281 15.944 39.498 21.951 1.3531 6.679 5.2808 27.39 2.8633 31.598-2.5916 4.5104-40.689 31.781-44.338 36.42-3.3471 4.2551-2.6685 9.6251 2.5762 20.375 7.2838 12.378 9.4382 28.912 20.232 39.016 5.34 3.5333 12.667 0.72671 18.668-0.2168-3.2879 2.6353-6.0611 6.1954-9.8535 8.127-1.0763 2e-3 -34.078-27.347-36.244-23.842-0.96784 1.566-2.0237 72.797-2.8184 73.592 20.824 24.532 33.572 46.582 39.535 77.738 6.7492 39.447-2.1578 65.193-19.271 98.547 6.3938 20.355 18.524 43.779 39.301 52.967 15.463-16.124 24.752-38.34 33.059-58.555 2.4398-4.9487 25.431 0.58912 32.273 0.87305 12.715-3.7444 14.628-51.304 16.887-67.559 1.5272-7.3253-5.4442-7.7653-11.135-8.2305-7.57-0.50476-17.861-2.0126-22.594-3.3125-8.6302-2.3703 3.5193-19.205-23.607-81.078 3.4164-1.2511 17.839-16.62 14.379-6.9297-3.4111 9.0361-4.5904 16.87 4.7617 22.287 15.616 8.4968 38.265 26.508 44.871 26.498 9.0543-2.7333 19.945-13.089 26.137-20.453 1.0233-3.0587-13.527 3.183-36.453-8.7441-15.431-8.0283-26.753-22.655-30.123-38.914-7.4878-23.138-34.512-46.028-30.359-47.336 1.2326-0.38839 7.1646-0.85714 17.637-1.6738l6.2402 6.5976c7.0219 7.4244 7.3398 7.3941 10.371-0.9707 11.061-30.524 30.508-49.398 30.508-49.809-101.69-155.56 55.579-282.77 172.25-254.28 17.646 4.3091-10.763-17.003-13.182-18.287-18.024-5.6521-35.79-8.1016-52.965-8.1562zm20.314 38.256c-67.747 0.43774-130.05 56.301-139.01 123.39-5.1292 36.515 2.3525 75.34 24.176 105.49 13.461 4.8865 23.286-10.722 36.557-11.205 35.971-12.045 74.869-20.581 104.19-46.254 19.376-16.057 32.586-38.776 37.658-63.352 7.8575-27.172 12.176-56.032 8.0117-84.164-2.5563-13.099-15.665-17.797-27.166-19.879-12.335-3.1443-25.132-4.3309-37.842-3.8945-2.1951-0.10271-4.3869-0.14694-6.5723-0.13282zm-443.37 45.578c-10.921 0.19392-23.832 5.1953-26.381 5.1953-4.4869 0-11.215 5.8084-10.389 8.9688 1.326 5.0707-4.392 18.834-1.1836 45.531 1.4534 12.094 1.3512 82.241-0.16211 111-1.3928 26.468-0.7921 24.931-12.936 33.092-8.6783 5.8323-46.008 34.23-45.965 35.156 6.3886 10.587 14.782 20.264 22.082 30.42-5.9629 6.6954-30.153 34.927-39.008 61.832-3.2856 9.9833-1.9232 9.429-17.385 7.0703-15.561-2.3739-22.058-2.6009-23.477-0.82031-2.47 3.1002-6.1113 47.772-9.9102 63.166-2.6202 10.618-2.4703 10.75 15.299 13.391 4.1756 1.7045 20.797-0.29252 21.09 4.9434 0.05047 10.162 7.802 52.32 17.643 70.648 8.504 13.651-25.369 22.553-25.369 29.562 0 4.2032 43.035 60.039 45.205 60.039 1.5531 0 26.4-19.068 28.564-20.375 9.9755 4.7544 19.018 13.172 28.23 19.779 2.9625 9.9618-7.104 32.868-3.75 38.357 1.829 1.4734 6.7131 1.6736 11.75 4.3144 6.7903 3.5602 19.34 1.9324 21.859-2.8359 1.9583-3.7063 3.3077-22.438 6.0644-21.994 3.0025 0.48356 0.8437-13.265 5.5644-30.246 5.4216-29.636 12.147-58.083 18.91-87.5 2.0688-14.091 3.4635-35.236 4.6172-70 1.3812-41.618 3.6303-66.064 3.998-68.527 7.5795-50.759 2.2143-100.81 3.7266-149.86-0.63672-40.348-6.1221-80.069-11.719-120.11-1.8199-14.691-3.4468-24.406-8.3281-49.758-1.7271-5.4194-3.992-15.957-8.8418-18.666-2.7406-1.3672-6.1604-1.8361-9.8008-1.7715zm-6.9238 28.367c15.411 7.5681 11.558 28.511 11.314 42.914-4.1502 17.678 9.9779 31.602 7.7773 49.312-5.4936 17.465-8.328 33.944-1.5644 51.547 2.4352 18.883-2.0845 37.989-10.139 55.023 6.0116 16.937 7.3129 36.323 5.9766 54.943-6.1284 17.017-3.5511 32.378 7.5605 47.479 5.9685 3.5756 1.5724 11.959 2.9668 17.678 3.7207 15.322-3.4562 29.771-5.8965 44.943-5.7389 14.797-7.0396 29.532-3.4883 44.666-0.39157 17.663-4.5196 34.43-11.789 50.357-1.8946 5.4288-7.4999 17.873-6.8262 3.7168 0.49484-15.865-0.93584-32.025 0.83008-47.457 11.655-13.467-6.3759-29.635-3.5137-45.588-1.0002-15.405-1.0655-32.992 10.541-44.693 1.518-14.311-16.185-25.731-10.762-42.486-2.3473-15.792 5.6218-32.149 5.8965-46.459-11.46-12.922-4.1396-29.865-3.6191-44.857-4.2691-14.548 26.03-23.418 3.5625-33.047-4.2004-13.245 0.9121-31.16 0.0527-46.176 8.1151-14.55-5.092-31.931-2.1777-48.205 5.6171-16.028-1.6943-32.078-0.94336-48.783 0.57424-4.6165-0.61078-12.287 4.2402-14.828zm713.98 80.729c19.937 12.504 13.108 36.221 5.8496 52.527 2.0337 11.863 14.504 14.281 2.2949 26.727-7.8457 13.263-9.9229 26.261 8.0996 29.518 0.44867 17.076 10.004 49.28-8.4512 55.777-17.07-10.293-2.7656-35.337-23.213-41.902 1.1399-18.663-13.185-24.709-29.441-24.52-13.689-15.718 16.145-25.058 26.15-26.766-5.2337-20.088 16.9-34.704 9.9336-55.699 2.0888-5.0742 2.9089-13.643 8.7774-15.662zm-277.63 155.53c-22.287 1.0552-29.279-0.9756-34.107 20.129-5.678 25.753-14.46 32.657-12.307 33.988 4.9552 3.0625 12.761 1.8114 16.537 9.1836 4.5007 15.031 8.4278 30.426 11.918 45.773 7.9709 35.792 70.637-0.73546 74.096 19.154l1.3398 7.707c-4.093 4.0967-7.7532 8.6795-12.156 12.455-3.2677 1.4799-31.978-6.4595-40.875-0.41407-10.313 10.532-13.394 38.089-17.1 53.432-2.4172 9.976-1.938 13.603 2.4395 18.463 7.1556 7.9449 33.946 12.827 35.164 16.951 1.5819 5.2266 3.1895 10.445 4.791 15.666-1.5531 2.0008-10.097 13.065-17.551 23.947-8.044 11.744-3.6843 16.461 16.111 35.184 25.914 24.509 25.499 24.179 31.277 24.734 11.106 0.14647 24.932-15.356 34.014-22.895 5.1275 1.121 10.217 2.4492 15.391 3.3476 7.8926 1.1308 10.476 40.12 30.535 38.09 7.1098-1.5409 51.001-14.848 54.098-16.402 19.692-10.897-5.4678-33.093-13.156-43.42-23.456-31.506-23.075-42.5-25.352-42.5-0.21055 0-3.8028 1.6255-7.9844 3.6113-32.404 15.388-71.69-11.61-65.615-49.504 2.6943-16.805 13.141-29.971 28.643-36.1 3.2273-1.2759 6.2462-2.6501 6.709-3.0547 0.91033-0.79565-30.448-84.31-30.773-84.676-1.9145-2.1537-20.45 5.1729-21.191 4.4316-0.4217-0.42169 3.2602-14.251 5.5137-20.709 1.0224-4.1491 3.4526-6.2703 6.9902-8.0527-14.7-35.33-28.569-57.829-77.398-58.521zm-254.24 57.248c-3.8682 7.5534-1.4509 16.33-2.082 24.449-9e-3 21.561 1.1724 43.249 6.3086 64.266 3.5919 18.202 7.034 36.434 10.83 54.596 5.8599 0.0858 6.0059-11.769 9.1582-16.27 6.3312-17.083 7.6237-35.497 6.1621-53.531-1.055-27.139-13.52-52.684-30.377-73.51zm-213.19 2.0703c5.0079 14.873-7.5063 28.036-10.9 42.088-7.0017 20.804-6.503 43.333-4.2852 64.883 2.2404 15.313 11.412 28.805 14.131 43.6-1.0382 6.2531 11.981 17.649 4.3555 19.246-13.235-16.099-21.583-36.077-26.959-56.104-3.1352-19.54-5.657-40.12-0.13671-59.457 3.7328-19.388 11.984-38.489 23.795-54.256zm47.264 287.63c-2.3934 3.6138-2.3839 8.1396-3.4316 12.227-0.74441 3.9769-1.3987 8.0048-1.2949 12.064 3.5828 2.0969 7.9229 1.6865 11.85 2.6406 15.143 2.1349 30.242 4.5867 45.357 6.8965 5.4285 0.58647 10.936 1.0672 16.373 0.30664 3.9878-1.6492 3.6149-6.7197 4.6504-10.229 0.43397-3.2566 2.5555-9.7124-2.9648-8.7715-14.033 1.5178-28.289 2.0455-42.318 0.17187-8.5096-1.6063-16.861-4.9489-23.605-10.451-1.589-1.5684-2.6928-3.6384-4.6152-4.8555z" fill="url(#d)"/></g><path d="m596.62 59.932c-42.512-0.3977-85.894 10.424-127.12 18.861-72.875 23.245-144.58 51.535-220.15 65.477-46.182 0.0854-96.985 21.131-140.16-0.33984-5.5529-39.896-56.458-69.987-82.74-27.203-29.416 45.4 10.84 100.38 60.293 103.49 41.603 20.81 97.506-9.6323 132.14 13.279 13.761 61.543 24.789 124.78 24.148 188.23 4.6566 74.814-8.9954 148.78-9.332 223.45 1.7693 56.434-11.163 111.11-22.91 165.79-25.307 52.94 64.157 23.372 89.881 14.461 55.263-8.3496 105.25 39.84 161.13 19.857 47.315-3.2278 65.532-72.461 24.521-95.832-77.702-16.189 31.026 75.811-34.445 71.074-41.587-0.97064-82.834-26.269-103.65-62.166-17.841-52.672-29.523-108.06-32.064-163.71 4.0096-71.12 4.9298-142.34 5.873-213.56-0.51433-73.054 38.677-141.26 97.207-183.48 37.094-33.282 82.49-54.235 130.94-63.779 42.752-3.6329 94.239-14.927 129.27 16.83 45.826 41.363 45.372 109.36 27.365 163.83-12.8 64.127-74.53 103.89-134.21 117.62-45.743 7.4234-91.383 42.387-90.205 92.363 24.421 56.784 70.864 5.0723 62.045-35.484 49.562-22.191 121.87-18.13 149.67 35.459 28.693 61.552 45.784 128.35 75.965 189.61 14.874 37.553 34.906 72.246 61.768 102.43 26.744 28.362 56.144 62.847 97.656 66.445 23.415 2.8863 46.999-6.9683 63.418-23.469 20.802-18.094 40.068-58.454 18.426-79.139-22.96-24.572-72.721 3.7955-76.344 35.719-31.548 6.2605-39.718-54.649-44.053-81.873-7.8004-72.961-19.498-146.47-50.93-213.47-16.903-40.038-77.933-67.829-98.459-82.262 45.791-7.4089 83.236-45.244 87.832-91.93 15.36-111.56-57.494-224.99-157.84-270.82-24.225-11.254-49.42-15.531-74.928-15.77zm2299 5.6816c-37.616 29.081 29.052 77.869-6.4414 111.81-29.734-0.457-70.295 17.466-42.121 52.709 22.875 30.342 68.568 22.437 80.516-11.201 38.174-0.51589 76.103 0.30649 113.22-13.662 49.359-12.438 97.987-28.384 144.09-50.094 46.366 64.794 27.718 147.88 27.131 221.84-3.7214 94.861-22.834 188.2-40.928 281.12-11.005 53.656-30.763 104.83-51.947 155.05-15.845 57.126 47.673 12.33 69.976 1.3848 47.57-22.216 104.37-25.553 151.26 0.19922 50.039 24.431 114.4 32.398 163.37 1.7695 42.572-26.878 35.122-104.04-17.51-112.99-45.887-7.4367-55.657 52.768-20.701 72.775-39.889 29.035-103.09 7.6454-118.16-39.193-44.824-94.562-48.384-201.54-53.02-304.2 1.0256-90.574 13.146-180.95 31.139-269.51 30.688-30.43 73.88 21.489 111.12 22.482 46.626 14.31 95.954 21.353 144.67 16.578 11.292 42.046 78.592 58.55 96.545 12.658 10.398-42.851-45.591-40.091-63.295-40.691 5.3049-34.966 39.956-63.804 30.842-100.21-39.713-12.457-85.99 30.413-132.06 20.225-66.812 5.5926-133.5 17.838-200.92 14.139-89.709 3.9046-179.67 2.8282-268.82-8.4746-49.385-2.9888-100.42-9.3717-144-34.031l-2.2715-0.28516zm-561.6 22.893c-58.423-0.69034-114.34 22.23-166.54 46.096-72.002 37.747-126.86 103.89-152.94 180.63-38.427 86.752-40.299 187.69-10.689 277.27 23.314 52.888 50.278 107.39 95.109 145.5 28.782 32.95 70.726 52.244 108.51 72.221 36.335 22.216 77.119 32.624 119.49 31.059 67.685 7.6207 138.57-1.4447 197.46-37.541 39.108-23.911 79.528-47.163 108.81-83.195 41.124-41.956 72.17-93.851 87.242-150.84 12.214-28.087 15.88-57.63 16.076-88.088 2.5033-54.671 6.0894-113.07-22.768-162.18-14.475-44.406-50.546-72.244-76.723-109.42-48.272-62.999-123.44-98.664-199.52-114.75-34.366-3.911-68.908-6.6984-103.52-6.7656zm-866.56 3.8848c-78.418-0.05687-156.77 22.871-224.26 62.412-36.965 24.261-64.471 59.752-97.678 88.545-52.471 61.728-64.849 145.03-75.211 222.71-0.5186 54.242 8.1545 110.23 31.277 159.46 22.917 46.625 48.066 93.961 90.48 125.92 74.619 65.722 174.68 102.63 274.38 95.256 44.673 0.71478 89.991-6.652 129.52-28.109 87.568-30.036 155.71-101.01 193.7-184.13 26.558-52.699 46.275-111.84 35.898-171.48-6.3959-40.427-9.5108-81.776-20.018-121.3-17.495-46.837-46.045-89.707-79.387-126.59-36.008-32.666-77.333-59.297-117.58-86.018-45.386-17.008-92.365-33.819-141.11-36.666zm892.52 18.611c44.692 3.9208 89.222 14.071 131.71 28.395 43.212 15.549 81.033 51.622 84.59 99.479 18.866 91.616 38.434 185.47 28.541 279.5-4.7351 22.09-4.1474 57.086-7.2988 83.863-4.4077 63.284-26.539 130.01-80.891 167.57-61.136 43.453-139.32 49.92-211.86 44.143-47.992-11.183-95.297-30.459-132-63.951-33.903-24.927-39.196-70.909-49.146-108.99-9.041-63.845-19.385-128.59-9.2422-193.02 0.5171-43.696-0.2994-88.157 14.707-129.91 12.253-51.913 14.957-109.06 51.16-151.59 30.323-32.772 78.131-38.736 119.66-48.143 19.839-3.7347 39.899-6.432 60.076-7.3555zm1201.5 4.832c0.7852 0.0124 1.5832 0.067 2.3945 0.16602 37.673-0.79375 21.459 57.029-11.379 46.387-26.777-6.8615-15.358-46.936 8.9844-46.553zm-2068.3 6.1387c49.378 0.87835 100.44 16.886 130.09 58.527 39.177 51.464 49.612 117.07 63.65 178.49 9.369 52.014 14.638 104.75 9.2305 157.54-7.7041 55.568-1.4546 113.02-16.592 167.41-15.32 46.267-45.439 91.598-93.652 107.77-38.885 20.395-83.126 22.634-125.56 30.215-42.944 1.8575-86.227-6.419-127.69-17.102-32.871-18.801-65.272-41.069-89.42-71.084-21.494-41.482-29.294-89.275-34.258-135.36-0.2793-53.529-2.9186-106.95-7.5019-160.24-0.8405-55.904 14.961-110.21 20.445-165.56 8.0362-34.805 24.827-64.846 46.967-91.072 57.412-44.189 131.68-61.935 203.29-59.004 6.918-0.46141 13.938-0.64501 20.992-0.51953zm1484.4 6.8086c33.886 5.3932 19.856 58.743-11.316 54.92-37.329-2.8445-15.142-54.853 11.316-54.92zm288.1 25.318c36.134 0.43967 23.712 62.456-10.037 52.795-31.565-8.6205-19.829-53.475 10.037-52.795zm-1226.4 161.11c18.62 24.99 18.452 62.443 24.32 93.121-0.7727 28.537-1.9225 61.572 36.965 55.855-10.836 14.828-42.969-3.6316-29.961 26.521-6.8905 31.7 1.6675 84.2-31.852 97.176-8.2255-35.724 23.813-77.188 6.4493-110.89-14.13 1.8418-46.322-19.491-15.365-18.693 41.695 8.4656 10.04-48.152 13.596-71.482-3.385-24.355-19.99-49.934-4.1523-71.611zm646.66 3.4473c0.3287 32.072-10.302 68.072-18.744 100.75-12.946 24.127 7.9466 28.437 20.242 38.938-36.662 16.633-13.19 60.606-14.354 94.156 4.8936 18.761 5.1249 58.484-8.8321 18.951-14.437-31.657-1.4854-80.976-25.644-103.53-26.565-17.89 31.722-12.528 17.137-40.619 2.1014-35.139 13.284-69.039 25.293-102.37l1.7207-3.875zm-1553.6 10.783c34.851 16.587 27.795 62.426 35.643 94.01 0.9051 25.756 4.0485 51.717 18.377 67.238-38.813 6.3627-16.336 55.976-36.932 83.641-2.0721 16.119-24.32 61.728-29.365 23.189 5.711-33.314 31.604-63.054 29.125-98.816-3.6367-8.6808-41.44-9.5372-6.4863-14.729 27.053-14.416 7.8791-58.648 4.0195-83.33-2.9509-23.089-24.123-49.932-14.381-71.203zm638.3 17.881c-0.5133 31.632-6.8897 65.87-15.476 96.943-9.3596 27.106 51.833 8.8074 21.547 30.172-30.589 18.788 11.966 69.106 7.3282 100.99-10.723 48.401-27.222-39.228-33.93-56.773-13.323-21.981 14.145-56.727-24.029-43.205-23.439-26.919 27.548-9.7189 15.299-39.111 2.2348-30.395 6.128-67.095 29.262-89.016zm1464.2 348.68c32.37 2.492 37.499 59.101-0.7129 54.553-38.319-0.21317-35.094-53.083 0.7129-54.553z" fill="#2d2f36"/></svg>
