<?xml version="1.0" encoding="UTF-8"?>
<svg width="1e3" height="1e3" version="1.1" xmlns="http://www.w3.org/2000/svg"><path d="m581.51 92.889c-41.935-0.3923-84.728 10.283-125.39 18.605-71.886 22.929-142.62 50.835-217.16 64.588-45.555 0.0842-95.668 20.844-138.26-0.33524-5.4775-39.354-55.692-69.037-81.617-26.834-29.017 44.784 10.693 99.017 59.475 102.09 41.038 20.528 96.182-9.5015 130.35 13.099 13.574 60.708 24.452 123.09 23.82 185.67 4.5934 73.798-8.8733 146.76-9.2053 220.42 1.7453 55.668-11.011 109.6-22.599 163.54-24.963 52.221 63.286 23.055 88.661 14.265 54.513-8.2363 103.82 39.299 158.94 19.587 46.673-3.184 64.642-71.477 24.188-94.531-76.647-15.969 30.605 74.782-33.977 70.109-41.022-0.95746-81.71-25.912-102.24-61.322-17.599-51.957-29.122-106.59-31.629-161.49 3.9552-70.155 4.8629-140.41 5.7933-210.66-0.50735-72.062 38.152-139.34 95.887-180.99 36.59-32.83 81.37-53.499 129.16-62.913 42.172-3.5836 92.96-14.724 127.52 16.602 45.204 40.802 44.756 107.88 26.994 161.61-12.626 63.256-73.518 102.48-132.39 116.02-45.122 7.3226-90.142 41.812-88.98 91.109 24.089 56.013 69.902 5.0034 61.203-35.002 48.889-21.89 120.22-17.884 147.64 34.978 28.304 60.716 45.162 126.61 74.934 187.04 14.672 37.043 34.432 71.265 60.93 101.04 26.381 27.977 55.382 61.994 96.33 65.543 23.097 2.847 46.361-6.8737 62.557-23.15 20.519-17.848 39.524-57.661 18.176-78.065-22.648-24.238-71.734 3.744-75.308 35.234-31.12 6.1755-39.179-53.907-43.455-80.762-7.6945-71.971-19.233-144.48-50.239-210.57-16.674-39.494-76.875-66.908-97.122-81.145 45.169-7.3083 82.106-44.63 86.64-90.682 15.151-110.05-56.714-221.94-155.7-267.14-23.896-11.101-48.749-15.32-73.911-15.556zm-419.2 15.605c-0.6877 4e-3 -1.3761 0.0268-2.0654 0.0713-7.3944 1.4516-16.56-2.0376-22.316 4.2752-3.0539 5.1166-1.3912 11.483-1.6126 17.157 1.1912 10.082-3.2989 20.717 1.4122 30.292 4.0212 8.0913 14.36 8.6084 22.177 7.1034 16.667-0.83112 33.132-4.6288 48.576-10.871 10.827-2.0367 22.569 0.14622 32.606-5.3695 14.042-5.6541 28.465-10.552 43.476-12.806 9.956-2.178 20.134-4.1255 29.308-8.7565 5.7144-0.52351 17.448-7.0953 10.637-13.224-10.375-6.1453-22.792-2.2136-34.113-3.0113-7.9958 1.0833-16.115 1.2398-23.634-2.0422-16.109-3.9466-32.714 1.6688-48.884-1.2234-13.532-3.6779-27.514 0.61957-41.197-0.25624-4.778-0.50871-9.5567-1.3682-14.37-1.3371zm571.62 5.1652c-13.306-0.0378-8.6228 12.006 4.4504 10.331 19.363 9.2043 25.453 33.103 40.821 47.246 13.063 17.187 19.811 37.7 30.288 56.367 11.451 26.269 21.352 53.32 29.755 80.705 4.8126 22.256 3.2321 44.998-2.705 66.813-9.349 28.094-19.317 57.623-40.145 79.365-9.1154 4.2951-30.257 14.34-9.2554 20.408 18.264 9.1953 31.587 25.755 41.994 43.006 14.288 21.254 27.884 43.325 33.54 68.605 6.7772 20.78 11.446 42.254 14.742 63.861 4.2127 12.488 2.6176 33.17 8.8451 41.11 10.437-26.204 4.274-55.514 6.7451-83.087 0.988-27.995 1.7056-56.053 0.74946-84 2.4652-30.282-0.39358-60.68-3.9188-90.676-1.4422-29.979 4.5883-59.814 0.62808-89.753 3.5377-20.6-1.8678-40.945 0.41422-61.544 1.7108-53.235-0.38263-106.49-1.8322-159.7-12.458-14.42-38.81-2.2566-56.941-6.3732-31.72-0.92799-63.755 1.0354-95.273-2.5046-1.0498-0.11755-2.0164-0.1728-2.9034-0.17531zm-537.7 6.9165h11.766c1.7921 5.2965 5.7976 10.242 11.279 11.837 8.3744-1.8626 15.397-8.2431 24.343-7.6486 6.3483-2.0777 12.246 4.6271 5.7239 9.1726-9.1854 9.2948-23.078 9.0172-35.124 10.768-6.5824 2.3726-10.303-1.7343-13.131-6.8992-5.1763-5.2377-11.611 2.3274-16.05 5.4967-6.7767 3.4239-14.451 5.7218-22.083 5.7722-6.8719-1.5082-4.3285-12.004-1.917-16.676 3.5134-7.33 12.974-8.4467 20.131-9.8722 4.7181-2.219 9.9461-1.8221 15.064-1.9498zm621.38 8.8778c9.9195 2.7008 15.053 22.76 27.739 8.1206 19.765-12.698 10.386 17.387 20.563 25.477 3.5426 20.088-10.851 37.462 3.1693 55.25-3.0607 20.887 6.5773 38.834 4.1403 59.656 0.49683 11.275-12.878 48.571-16.755 21.406-13.382-17.588 12.618-43.789-11.283-51.903-17.544-8.9648-2.8757-28.588-5.9976-39.124-18.146 0.73277-28.774-22.483-12.686-32.897-12.03-10.981-41.633-10.094-38.538-32.974-15.309-18.492 16.876 0.65637 23.472-11.286l2.3158-1.3024 3.861-0.42385zm-236.62 60.143c-91.483-0.29116-165.95 68.312-171.64 80.44-7.5644 16.102-6.2413 23.785-26.496 25.073-11.921 0.23522-37.725 62.53-37.725 73.778 0 3.4626 37.761 15.728 38.962 21.653 1.3347 6.5883 5.2091 27.018 2.8244 31.169-2.5564 4.4491-40.137 31.35-43.736 35.926-3.3017 4.1973-2.6322 9.4944 2.5412 20.098 7.1849 12.21 9.3101 28.52 19.957 38.486 5.2675 3.4853 12.495 0.71685 18.415-0.21385-3.2433 2.5995-5.9788 6.1113-9.7197 8.0167-1.0617 2e-3 -33.615-26.976-35.752-23.518-0.9547 1.5447-1.9962 71.809-2.7801 72.593 20.541 24.199 33.116 45.95 38.998 76.683 6.6576 38.912-2.1285 64.308-19.009 97.209 6.307 20.079 18.273 43.185 38.768 52.248 15.253-15.905 24.416-37.82 32.61-57.76 2.4067-4.8815 25.086 0.58111 31.835 0.86119 12.542-3.6936 14.429-50.608 16.658-66.642 1.5065-7.2259-5.3703-7.6599-10.984-8.1188-7.4672-0.4979-17.619-1.9853-22.287-3.2675-8.513-2.3381 3.4715-18.944-23.287-79.977 3.37-1.2341 17.597-16.394 14.184-6.8356-3.3648 8.9134-4.528 16.641 4.6971 21.984 15.404 8.3815 37.746 26.148 44.262 26.138 8.9314-2.6962 19.674-12.911 25.782-20.175 1.0094-3.0172-13.343 3.1398-35.958-8.6254-15.222-7.9193-26.39-22.347-29.714-38.386-7.3862-22.824-34.044-45.403-29.947-46.693 1.2159-0.38312 7.0674-0.8455 17.398-1.6511l6.1555 6.5081c6.9266 7.3236 7.2402 7.2937 10.23-0.95752 10.911-30.11 30.094-48.727 30.094-49.133-100.31-153.45 54.825-278.93 169.91-250.83 17.406 4.2506-10.617-16.772-13.003-18.039-17.779-5.5754-35.304-7.9916-52.246-8.0455zm20.038 37.737c-66.827 0.4318-128.28 55.537-137.12 121.72-5.0596 36.019 2.3206 74.317 23.848 104.06 13.278 4.8202 22.97-10.576 36.061-11.053 35.483-11.881 73.853-20.303 102.78-45.626 19.113-15.839 32.144-38.251 37.147-62.492 7.7508-26.803 12.011-55.271 7.9029-83.022-2.5216-12.921-15.452-17.555-26.797-19.609-12.167-3.1016-24.791-4.2721-37.328-3.8416-2.1653-0.10131-4.3274-0.14493-6.4831-0.131zm-437.35 44.959c-10.773 0.19129-23.508 5.1248-26.023 5.1248-4.426 0-11.063 5.7296-10.248 8.847 1.308 5.0019-4.3324 18.578-1.1675 44.913 1.4337 11.93 1.3329 81.125-0.1599 109.49-1.3739 26.109-0.78136 24.593-12.76 32.643-8.5605 5.7531-45.383 33.765-45.341 34.679 6.3019 10.443 14.581 19.989 21.782 30.007-5.882 6.6045-29.744 34.453-38.478 60.993-3.241 9.8478-1.8972 9.301-17.149 6.9743-15.35-2.3417-21.759-2.5656-23.158-0.80918-2.4365 3.0581-6.0283 47.124-9.7757 62.309-2.5846 10.474-2.4368 10.604 15.091 13.209 4.1189 1.6814 20.515-0.28855 20.804 4.8763 0.04978 10.024 7.6961 51.61 17.404 69.689 8.3886 13.466-25.025 22.247-25.025 29.161 0 4.1462 42.451 59.224 44.591 59.224 1.532 0 26.042-18.809 28.176-20.098 9.84 4.6899 18.76 12.993 27.847 19.511 2.9223 9.8266-7.0076 32.422-3.6991 37.836 1.8042 1.4534 6.622 1.6509 11.59 4.2559 6.6981 3.5118 19.077 1.9062 21.562-2.7974 1.9317-3.656 3.2628-22.133 5.9822-21.695 2.9616 0.477 0.83225-13.085 5.4889-29.835 5.348-29.234 11.982-57.295 18.653-86.312 2.0407-13.9 3.4165-34.758 4.5545-69.05 1.3624-41.053 3.581-65.167 3.9437-67.597 7.4766-50.07 2.1842-99.442 3.676-147.83-0.62808-39.8-6.039-78.982-11.56-118.48-1.7952-14.492-3.4001-24.075-8.215-49.083-1.7037-5.3457-3.9378-15.74-8.7218-18.413-2.7034-1.3486-6.0768-1.8112-9.6678-1.7474zm-6.8298 27.982c15.202 7.4654 11.401 28.124 11.16 42.331-4.0939 17.438 9.8424 31.173 7.6718 48.643-5.419 17.228-8.215 33.483-1.5433 50.847 2.4022 18.627-2.0562 37.473-10.001 54.276 5.93 16.707 7.2136 35.83 5.8955 54.197-6.0451 16.786-3.5028 31.938 7.458 46.834 5.8875 3.5271 1.5511 11.797 2.9265 17.438 3.6702 15.114-3.4093 29.367-5.8165 44.333-5.661 14.596-6.944 29.131-3.4409 44.06-0.38626 17.423-4.4582 33.963-11.629 49.673-1.8689 5.3551-7.3981 17.63-6.7335 3.6663 0.48812-15.65-0.92313-31.59 0.81881-46.813 11.497-13.284-6.2894-29.233-3.466-44.969-0.98662-15.196-1.051-32.544 10.398-44.086 1.4974-14.117-15.965-25.382-10.616-41.909-2.3154-15.578 5.5455-31.713 5.8165-45.828-11.304-12.747-4.0834-29.46-3.57-44.248-4.2112-14.351 25.677-23.1 3.5141-32.598-4.1434-13.065 0.89974-30.737 0.052-45.549 8.0049-14.352-5.0229-31.498-2.1481-47.551 5.5408-15.81-1.6713-31.643-0.93055-48.121 0.56644-4.5538-0.60248-12.12 4.1826-14.627zm704.29 79.633c19.666 12.333 12.93 35.729 5.7702 51.814 2.0061 11.702 14.307 14.087 2.2638 26.364-7.7392 13.083-9.7882 25.905 7.9896 29.117 0.44258 16.844 9.8682 48.611-8.3365 55.02-16.838-10.153-2.7282-34.857-22.898-41.333 1.1244-18.41-13.007-24.374-29.041-24.187-13.503-15.505 15.926-24.718 25.795-26.403-5.1627-19.815 16.671-34.233 9.7988-54.943 2.0604-5.0053 2.8694-13.458 8.6582-15.449zm-273.86 153.42c-21.984 1.0409-28.882-0.96235-33.644 19.856-5.6009 25.403-14.264 32.214-12.14 33.527 4.8878 3.0209 12.588 1.7869 16.313 9.0589 4.4396 14.826 8.3134 30.013 11.756 45.152 7.8627 35.306 69.678-0.72547 73.09 18.894l1.3216 7.6024c-4.0374 4.0411-7.648 8.5617-11.991 12.286-3.2233 1.4598-31.544-6.3718-40.32-0.40844-10.173 10.389-13.212 37.572-16.868 52.707-2.3844 9.8406-1.9117 13.418 2.4064 18.212 7.0585 7.837 33.485 12.653 34.687 16.721 1.5604 5.1557 3.1462 10.303 4.726 15.453-1.532 1.9736-9.9599 12.888-17.313 23.622-7.9348 11.585-3.6343 16.238 15.892 34.706 25.562 24.176 25.153 23.851 30.852 24.398 10.955 0.14449 24.594-15.148 33.552-22.584 5.0579 1.1058 10.078 2.416 15.182 3.3022 7.7855 1.1154 10.334 39.575 30.12 37.573 7.0133-1.52 50.309-14.646 53.364-16.179 19.425-10.749-5.3936-32.644-12.977-42.831-23.138-31.078-22.762-41.923-25.008-41.923-0.20769 0-3.7512 1.6034-7.876 3.5623-31.964 15.179-70.717-11.452-64.724-48.832 2.6577-16.577 12.963-29.564 28.254-35.61 3.1835-1.2586 6.1614-2.6141 6.6179-3.0132 0.89797-0.78485-30.035-83.166-30.355-83.527-1.8885-2.1245-20.172 5.1027-20.903 4.3714-0.41597-0.41596 3.216-14.058 5.4389-20.428 1.0085-4.0928 3.4057-6.1852 6.8953-7.9434-14.5-34.85-28.181-57.044-76.347-57.727zm-250.79 56.471c-3.8157 7.4509-1.4312 16.108-2.0537 24.117-9e-3 21.268 1.1565 42.662 6.223 63.394 3.5431 17.955 6.9385 35.939 10.683 53.855 5.7804 0.0846 5.9244-11.609 9.0339-16.049 6.2453-16.851 7.5202-35.015 6.0784-52.804-1.0407-26.771-13.336-51.969-29.965-72.512zm-210.3 2.0422c4.9399 14.671-7.4044 27.655-10.752 41.517-6.9066 20.522-6.4147 42.745-4.227 64.002 2.21 15.105 11.257 28.414 13.939 43.008-1.0241 6.1681 11.818 17.409 4.2964 18.985-13.055-15.88-21.29-35.587-26.593-55.342-3.0926-19.275-5.5802-39.575-0.13486-58.65 3.6821-19.125 11.821-37.967 23.472-53.52zm46.622 283.73c-2.3609 3.5647-2.3515 8.0291-3.385 12.061-0.73431 3.9229-1.3797 7.8961-1.2773 11.9 3.5342 2.0684 7.8154 1.6636 11.689 2.6048 14.937 2.1059 29.831 4.5244 44.741 6.8029 5.3548 0.57851 10.788 1.0527 16.151 0.30248 3.9337-1.6267 3.5658-6.6285 4.5873-10.09 0.42808-3.2124 2.5208-9.5806-2.9246-8.6524-13.843 1.4972-27.905 2.0178-41.744 0.16954-8.3941-1.5845-16.632-4.8817-23.285-10.309-1.5674-1.5471-2.6562-3.589-4.5526-4.7896z"/></svg>
