<?xml version="1.0" encoding="UTF-8"?>
<svg width="353" height="353" version="1.1" viewBox="0 0 353 353" xmlns="http://www.w3.org/2000/svg"><path d="m47.458 334.26c0.37136-10.319 1.0953-22.349 1.6089-26.735 0.5135-4.3856 0.93109-11.361 0.92796-15.5-0.003126-4.1394 0.4347-12.026 0.97294-17.526 0.53824-5.5 1.6819-18.1 2.5414-28s1.9782-21.724 2.4858-26.276c0.50762-4.5517 0.67551-8.9206 0.37308-9.7088-0.30243-0.78812-0.08739-2.914 0.47787-4.7242 0.96262-3.0827 2.2687-12.979 2.264-17.154-0.0012-1.0246-1.1395-5.5246-2.5295-10s-2.789-9.9372-3.1087-12.137c-0.31972-2.2-0.98815-5.35-1.4854-7-4.4966-14.921-5.8357-49.304-2.566-65.886 2.4029-12.186 5.9097-22.627 10.786-32.114 2.2614-4.4 4.3926-8.225 4.7361-8.5 0.34345-0.275 2.2572-2.756 4.2528-5.5132 3.5363-4.886 12.408-13.704 18.352-18.241 1.6245-1.24 4.3697-3.3784 6.1004-4.752 4.3448-3.4483 26.529-14.459 36.853-18.291 1.65-0.61247 7.725-2.1305 13.5-3.3734 9.0348-1.9445 13.5-2.2632 32-2.2839 21.092-0.023607 27.116 0.57529 40.946 4.0712 2.9956 0.75718 5.898 1.8283 6.45 2.3803 0.55196 0.55196 1.7072 1.0036 2.5672 1.0036 2.831 0 27.911 12.825 34.636 17.711 14.497 10.534 26.246 24.225 33.284 38.789 6.0096 12.436 8.3446 21.199 10.749 40.337 1.453 11.567 1.5113 15.084 0.43932 26.5-0.6798 7.2398-1.6591 15.188-2.1762 17.663-0.51713 2.475-1.1694 5.625-1.4496 7-1.5645 7.6793-5.8122 24.922-6.774 27.497-1.1826 3.1666-1.1606 4.1715 0.3169 14.503 0.99941 6.9883 2.3722 19.905 3.9855 37.5 0.92739 10.114 1.4528 18.331 2.5595 40.025 0.22515 4.4135 0.81993 11.163 1.3217 15 0.50182 3.8365 0.98134 11.025 1.0656 15.975 0.0843 4.95 0.58277 12.825 1.1078 17.5 1.5443 13.751 1.2731 27.67-0.55282 28.371-0.83808 0.3216-59.162 0.59968-129.61 0.61795l-128.09 0.0332z" fill="#f2e1a5"/><path d="m170.9 207.89c-3.6104-3.8649-16.233-29.563-16.049-32.672 0.15473-2.606 2.8409-8.2201 3.9281-8.2098 1.7992 0.017 5.5946 7.6592 9.2898 18.705 2.2128 6.6147 4.6204 12.844 5.3504 13.842 1.2125 1.6581 1.5224 1.3884 3.5851-3.1195 2.3324-5.0972 11.327-25.828 13.313-30.685 1.3681-3.3453 4.4131-3.6573 4.8794-0.5 1.1252 7.6181-2.3635 18.605-10.717 33.75-7.3616 13.347-8.6363 14.181-13.58 8.8889zm53.495-39.863c-9.5932-2.5153-24.318-10.04-28.119-14.369-4.2046-4.7888-7.425-13.749-8.024-22.327-0.74802-10.71 0.16116-13.825 5.7643-19.75 3.6151-3.8224 4.6324-5.5284 3.9448-6.6156-1.8205-2.8783-0.85603-4.7412 6.6226-12.791 6.5236-7.022 7.8473-8.0156 9.5-7.1311 2.3385 1.2515 2.4798 4.7135 0.3183 7.7995-2.2981 3.2809-1.3648 3.4855 4.1975 0.91997 7.0387-3.2465 22.759-3.2004 33.405 0.09793 16.518 5.1177 29.813 14.847 33.508 24.522 5.5319 14.485-5.3267 37.918-21.328 46.027-11.153 5.6517-26.654 7.0609-39.788 3.6171zm24.101-5.6346c3.522-0.88469 10.589-3.9565 15.706-6.8262 7.9954-4.4848 9.7476-5.9551 12.474-10.468 4.0296-6.6682 6.1031-17.566 4.4146-23.202-3.8247-12.766-21.694-23.578-40.728-24.645-18.911-1.0598-32.857 6.5718-37.845 20.709-2.372 6.7231-4.1049 24.57-2.648 27.273 1.4452 2.6808 14.281 12.095 19.417 14.241 2.9235 1.2215 15.871 3.8724 21.512 4.4043 0.71197 0.0671 4.1761-0.60176 7.698-1.4864zm-16.672-10.775c-15.922-4.3259-23.353-22.501-14.747-36.071 4.6171-7.2804 7.8007-8.1957 21.379-6.1464 15.986 2.4127 19.253 4.8928 22.179 16.838 1.5492 6.325 1.5438 7.0162-0.0882 11.289-0.95613 2.5036-2.917 5.9527-4.3576 7.6647-4.937 5.8673-15.837 8.7415-24.365 6.4247zm-121.32 15.28c-2.75-0.54141-8.6804-2.7961-13.179-5.0104-17.179-8.4566-24.87-22.518-22.325-40.817 1.7356-12.479 7.4903-19.563 20.031-24.659 6.9656-2.8304 22.276-5.3961 32.252-5.4047l6.7799-0.005895-2.1646-2.9278c-2.2539-3.0486-2.0349-5.6976 0.55313-6.6908 2.4488-0.93967 11.112 6.5649 13.437 11.64 1.1393 2.4868 3.3631 5.2846 4.9419 6.2172 5.429 3.207 11.173 19.842 11.173 32.357 0 9.1797-2.3469 16.381-7.0972 21.778-8.8624 10.068-29.707 16.417-44.403 13.523zm25.806-9.2575c7.9092-3.8696 15.949-11.48 18.574-17.58 4.8909-11.369 1.8938-25.605-7.2882-34.617-6.4122-6.2937-11.557-7.95-24.591-7.9174-29.739 0.074323-46.623 17.439-38.975 40.085 3.4087 10.094 8.9834 15.243 22.817 21.075 4.842 2.0414 6.9628 2.3388 14.714 2.063 7.4658-0.26564 10.056-0.81138 14.75-3.1079zm-26.058-7.5186c-6.6233-2.2881-8.938-4.3574-11.88-10.62-3.0568-6.5081-3.1437-14.054-0.22764-19.79 2.9585-5.8193 11.473-13.547 15.827-14.364 9.7956-1.8377 26.054 9.846 27.684 19.895 1.6022 9.873-7.1433 23.134-16.872 25.584-6.1744 1.5547-8.2872 1.4522-14.532-0.70508zm-32.698-80.041c-0.85538-1.384 13.126-15.864 22.951-23.77 9.6456-7.7615 17.934-12.558 26.565-15.373 15.231-4.9684 30.633 1.2128 40.927 16.426 4.6589 6.8846 6.4399 8.0032 7.4876 4.7023 1.1196-3.5276 12.429-12.945 19.805-16.492 13.848-6.6588 27.418-8.7778 39.622-6.1873 14.264 3.0278 24.749 9.4025 35.963 21.864 2.3626 2.6255 2.3637 2.6391 0.42545 5.1033l-1.9435 2.4708-4.1505-4.8184c-5.3367-6.1955-15.955-13.233-24.104-15.975-8.6896-2.9241-21.92-4.3489-28.717-3.0925-7.9333 1.4665-18.983 7.0649-26.727 13.541-5.5538 4.6446-7.4433 7.0197-10 12.57-3.0057 6.5251-4.8372 8.5732-6.6595 7.447-0.45469-0.28102-3.5278-5.345-6.8292-11.253-8.1225-14.536-12.901-18.83-23.631-21.235-8.481-1.9006-18.032 1.7728-38.533 14.82-3.025 1.9252-9.1724 7.2737-13.661 11.886-4.4884 4.6119-8.4439 7.9271-8.7899 7.3672z" fill="#a55522"/></svg>
