<?xml version="1.0" encoding="UTF-8"?>
<svg width="99.52" height="99.52" version="1.1" xmlns="http://www.w3.org/2000/svg"><path d="m18.47 98c0.07472-0.836 0.45598-5.6585 0.84724-10.717l0.71138-9.1966-1.4018-2.1634c-1.7541-2.7072-3.3903-5.9119-3.9177-7.6733-0.32627-1.0897-0.32576-1.4443 0.0026-1.84 0.57926-0.69797 1.1797-0.6168 3.4772 0.4701 1.1158 0.52786 2.078 0.95975 2.1382 0.95975 0.06021 0-0.67272-1.5118-1.6287-3.3595-2.5879-5.0017-2.3435-6.6749 0.79996-5.4762 2.7145 1.0351 2.5343 1.1347 2.0661-1.1422-0.22922-1.1146-0.63597-3.7972-0.90388-5.9612-2.4931-20.138 1.3214-36.407 10.6-45.21 1.0229-0.9705 2.5354-2.226 3.361-2.79 1.6612-1.1349 6.5625-3.5807 7.1754-3.5807 0.47205 0 0.35912-0.52886 3.8468 18.015l2.8165 14.975 2.5585-0.18996 3.0757-16.32c2.4145-12.812 3.182-16.341 3.5702-16.416 0.73961-0.14304 6.2313 2.7716 8.4745 4.4977 9.5543 7.3519 14.375 22.092 13.211 40.397-0.31836 5.0082-0.94871 10.265-1.5539 12.958-0.17609 0.78372-0.26349 1.4816-0.19423 1.5509 0.06926 0.06926 0.91127-0.19957 1.8711-0.59741 2.6517-1.0991 3.4826-0.46726 2.7635 2.1013-0.22026 0.78669-1.0294 2.5339-1.798 3.8827-0.76865 1.3488-1.3565 2.4934-1.3064 2.5435 0.05012 0.05012 0.83265-0.27585 1.739-0.72438 0.90631-0.44853 2.1251-0.83774 2.7084-0.86492 1.0058-0.04687 1.0657 0.01287 1.1602 1.1561 0.11826 1.4307-1.2785 4.5341-3.7312 8.2899l-1.6035 2.4555 0.77492 9.8645c0.4262 5.4255 0.77609 10.261 0.77753 10.745l0.0026 0.88h-62.626z" fill="#944a2c"/><path d="m49.598 77.461c-2.2911-0.69692-3.7552-1.9759-5.2339-4.5722-0.60242-1.0577-0.79976-1.7539-0.65767-2.32 0.35687-1.4219 1.2779-1.0044 2.7904 1.2649 1.3138 1.9712 3.0136 2.9939 4.2522 2.5583 1.005-0.35344 3.9092-4.1098 3.9523-5.112 0.1041-2.4192 1.2046-2.782 2.219-0.73167 0.59649 1.2056 0.61742 1.4173 0.19776 2-0.25814 0.35842-0.98622 1.5491-1.6179 2.6459-1.2124 2.1049-3.7177 4.5846-4.5851 4.5383-0.28322-0.01513-0.87588-0.1373-1.317-0.27148zm-11.507-11.52c-0.18219-0.34043-0.33126-1.0334-0.33126-1.54 0-1.0622 1.4402-5.4385 2.7121-8.2411 0.47923-1.056 1.1378-2.6775 1.4635-3.6033 0.71803-2.041 4.6179-9.4602 5.2474-9.9826 0.62632-0.5198 2.2628 0.35688 3.0343 1.6255 0.32395 0.53269 0.88949 1.179 1.2568 1.4362 0.71763 0.50265 3.8492 4.5672 4.5335 5.8842 0.69468 1.3369 5.4488 8.426 6.2234 9.28 0.5672 0.62535 0.69208 1.0626 0.57199 2.003-0.22319 1.7477-0.59826 1.7418-1.4928-0.02358-0.74156-1.4634-2.8841-4.7473-4.5275-6.9394-0.39584-0.528-0.94145-1.4975-1.2125-2.1544-0.27103-0.6569-1.0412-1.7632-1.7115-2.4584-0.67028-0.69524-2.0051-2.2145-2.9663-3.3761-1.0085-1.2187-1.9559-2.0729-2.24-2.0195-1.0137 0.19046-8.0275 15.224-8.8498 18.968-0.38057 1.7331-1.1278 2.2313-1.7113 1.141zm8.6098-1.6473c-0.23044-0.42554-0.52098-1.3497-0.64565-2.0537s-0.40411-2.0986-0.62098-3.099c-0.38906-1.7948-0.24634-3.461 0.29646-3.461 0.57203 0 1.6291 2.8924 1.6291 4.4576 0 0.87153 0.144 1.6736 0.32 1.7824 0.44513 0.2751 0.38009 1.4506-0.13134 2.3737l-0.42866 0.7737zm4.5321-1.1488c-0.21429-0.47031-0.52055-2.3063-0.68059-4.08-0.41477-4.5969-0.40768-4.7301 0.24501-4.6044 0.6544 0.12602 0.95158 1.274 1.0046 3.8806 0.02082 1.0236 0.1595 2.1036 0.30817 2.4 0.30843 0.61496 0.10353 3.259-0.25256 3.259-0.12926 0-0.41035-0.3848-0.62464-0.85511zm-17.12-6.5139c-2.2087-0.66881-4.7926-4.5922-5.2795-8.0164-0.25562-1.7976-0.21938-2.1302 0.28972-2.6585 0.5655-0.58683 0.60998-0.51281 1.5791 2.6278 1.225 3.9698 2.4295 5.496 4.3372 5.496 0.99078 0 1.4448-0.24115 2.5605-1.36 1.3885-1.3924 2.0746-3.2946 2.0831-5.7758 0.0063-1.8198 0.3882-3.4242 0.81512-3.4242 0.2282 0 0.72335 0.39213 1.1003 0.8714 0.54128 0.68812 0.63882 1.1088 0.46375 2-0.12193 0.62073-0.27314 1.7576-0.33602 2.5263-0.12061 1.4746-1.2481 4.2313-2.3816 5.8232-1.1344 1.5932-3.4498 2.4297-5.2317 1.8901zm26.207-2.833c-1.2189-0.76137-3.2167-2.8479-2.9664-3.0982 0.10441-0.10441-0.15564-1.4386-0.5779-2.9648-0.86898-3.1409-0.97914-4.9277-0.33666-5.4609 0.55417-0.45992 0.95862 0.46469 1.6353 3.7384 0.58036 2.8078 1.1008 3.8805 2.4222 4.9924 1.8002 1.5148 4.1192 0.58533 5.2407-2.1005 0.58584-1.4029 1.5353-6.6081 1.2805-7.0203-0.27692-0.44807 0.17629-1.5641 0.63516-1.5641 0.22541 0 0.67175 0.58082 0.99187 1.2907 0.56698 1.2573 0.56493 1.3774-0.07928 4.6438-0.89657 4.5459-1.7268 6.1462-3.7655 7.258-1.8853 1.0281-3.1609 1.1094-4.48 0.28544zm3.36-17.352c0-0.2206-0.66444-1.0199-1.4765-1.7761-1.2285-1.144-1.4425-1.5107-1.2739-2.1824 0.11145-0.44404 0.3984-0.80735 0.63766-0.80735 0.74876 0 3.4502 3.4294 3.3354 4.2342-0.10686 0.74924-1.2226 1.2344-1.2226 0.53162zm-31.563-1.7833c-0.19018-0.75772 0.02307-1.0727 1.8339-2.7086 1.127-1.0182 2.1931-1.809 2.3691-1.7575 0.176 0.05153 0.36604 0.40658 0.4223 0.789 0.0719 0.48863-0.44196 1.2659-1.7287 2.6149-1.0071 1.0558-2.0224 1.9196-2.2562 1.9196s-0.52203-0.38584-0.64039-0.85743zm31.891-4.9723c-2.0807-1.0295-3.8624-2.8456-3.6371-3.7074l0.18359-0.70206 1.1628 0.65634c2.3285 1.3143 4.2028 2.8694 4.2028 3.487 0 0.95029-0.41305 1.0078-1.9121 0.26608zm-31.515-1.2503c0.12127-0.3821 0.06211-0.77494-0.13507-0.8968-0.40561-0.25068 4.1739-3.5432 4.9282-3.5432 0.69589 0 0.94818 0.86889 0.43266 1.4901-0.54869 0.66113-4.7609 3.6299-5.1502 3.6299-0.16026 0-0.19427-0.30598-0.07557-0.67995zm0.14732-5.3334c0-0.75447 0.26115-1.0278 1.68-1.7586 0.924-0.47589 1.9124-1.0328 2.1965-1.2376 0.63419-0.45718 1.4116-0.19221 1.8524 0.63134 0.29546 0.55207 0.05613 0.75878-2.244 1.9381-3.0701 1.5741-3.4849 1.6249-3.4849 0.42676zm30.569-0.52912c-1.2205-0.80165-2.4779-1.4575-2.7942-1.4575-0.42556 0-0.57501-0.2495-0.57501-0.96 0-0.528 0.0668-0.96 0.14845-0.96 0.08165 0 1.3093 0.60143 2.7281 1.3365 1.8168 0.94129 2.6338 1.5523 2.7628 2.0663 0.35794 1.4261-0.06764 1.4214-2.2702-0.02523z" fill="#010101"/></svg>
