<?xml version="1.0" encoding="UTF-8"?>
<svg width="101.86mm" height="101.86mm" version="1.1" viewBox="0 0 101.86 101.86" xmlns="http://www.w3.org/2000/svg"><g transform="translate(-54.015 -97.568)"><path d="m62.747 193.94c0.0015-19.074 2.3665-37.167 5.7246-43.794 0.70578-1.3928 0.64461-1.7802-0.2811-1.7802-0.33566 0-1.4895-0.43836-2.5641-0.97414-2.5065-1.2497-5.6732-4.3964-7.4214-7.3744-3.3853-5.7669-4.8215-12.601-3.8345-18.246 1.7536-10.03 8.2844-19.087 16.035-22.236 8.1594-3.3155 17.595-2.0727 24.782 3.2642 3.5888 2.6648 7.8868 7.914 9.2783 11.331 0.39052 0.95914 0.58206 1.1569 1.011 1.044 0.29104-0.0767 0.78172-0.14099 1.0904-0.14297 0.4716-3e-3 0.58875-0.21112 0.73359-1.3029 0.27164-2.0478 1.8471-4.875 3.9504-7.0892 5.1543-5.4261 14.356-9.1967 21.213-8.693 11.797 0.86657 19.673 7.0688 22.535 17.745 0.66003 2.4626 0.70991 3.0331 0.72857 8.3321 0.0161 4.5842-0.0737 6.1147-0.46289 7.8835-1.6977 7.7165-5.4327 13.527-11.068 17.219-0.92314 0.60482-2.0654 1.2407-2.5383 1.413s-0.85989 0.39649-0.85989 0.49816c0 0.10166 0.40753 0.79043 0.90563 1.5306 3.5297 5.245 6.4315 21.924 7.4514 42.827l0.18394 3.7703h-86.593z" fill="#6ccd63"/><path d="m102.87 163.02c-1.4183-1.2544-2.5066-2.3529-2.4183-2.4412 0.18317-0.18318 7.7983-2.3938 7.7983-2.2638 0 0.25538-2.4471 6.6237-2.6087 6.789-0.10583 0.1082-1.3529-0.8296-2.7712-2.084zm13.791-7.3867c-3.6307-0.88028-6.923-3.2778-8.2635-6.0177-3.7387-7.6416 2.1426-15.857 12.74-17.796 3.7209-0.68076 6.4777-0.0293 8.9952 2.1256 4.9336 4.223 4.9808 13.032 0.099 18.462-2.3964 2.6654-4.8984 3.6476-9.207 3.6143-1.5689-0.0121-3.5327-0.18692-4.3638-0.38843zm8.5054-2.0031 0.90879-0.38921-1.2032-0.70514c-2.2956-1.3453-3.6773-3.4394-4.2228-6.4001-0.3745-2.0325-0.0744-4.5208 0.78673-6.5224 0.71369-1.659 2.4473-3.7467 3.8493-4.6356 0.66114-0.41915 1.2064-0.8375 1.2117-0.92967 0.017-0.29429-1.1304-0.48666-2.9008-0.48636-3.9363 6.9e-4 -8.5679 1.891-11.257 4.5942-0.88405 0.8888-1.896 2.2113-2.2488 2.9389-0.8467 1.7462-1.0265 4.8159-0.39371 6.7211 0.89871 2.7058 4.0508 5.1837 7.6187 5.9892 2.0714 0.46765 6.5852 0.36706 7.8508-0.17496zm-36.106 1.0796c-4.8428-0.63326-8.7065-3.1479-10.349-6.7357-0.95268-2.0806-1.1661-5.3831-0.49754-7.6989 1.3243-4.5872 4.3748-7.6358 8.9803-8.9747 2.1816-0.63422 6.5809-0.44338 8.6882 0.3769 4.2986 1.6732 6.9608 5.7066 7.2638 11.005 0.40218 7.0327-2.7092 11.224-8.9325 12.031-2.2357 0.29015-2.9091 0.28966-5.1529-4e-3zm5.78-2.0126c0.09442-0.0944-0.59598-0.87509-1.5342-1.7348-1.2008-1.1003-1.9632-2.0862-2.575-3.3294-0.8299-1.6866-0.86907-1.9036-0.86886-4.8136 1.99e-4 -2.7373 0.07054-3.1954 0.6913-4.5026 0.8298-1.7473 2.2624-3.2213 3.9023-4.0152l1.2071-0.58435-0.91611-0.40731c-1.3495-0.59997-6.0495-0.56465-7.8365 0.0589-4.4916 1.5673-7.546 6.2081-7.1698 10.894 0.32735 4.078 3.1819 7.0723 7.8123 8.1948 1.5419 0.37377 6.9746 0.55251 7.2874 0.23975zm37.94-24.108c-0.39426-0.43566-0.27055-0.62192 1.8408-2.7716 1.9266-1.9616 2.3378-2.2647 2.7629-2.0372 0.27471 0.14702 0.49948 0.33199 0.49948 0.41105 0 0.21772-4.3033 4.8647-4.5049 4.8647-0.0966 0-0.36576-0.21017-0.59823-0.46704zm-58.489-1.6867c-1.5197-1.8149-1.5387-1.8576-1.061-2.3855 0.48559-0.53657 0.4878-0.53595 1.2392 0.34721 2.75 3.2321 2.681 3.1179 2.1357 3.5307-0.27604 0.20895-0.56143 0.37443-0.63419 0.36774-0.07276-7e-3 -0.82864-0.84376-1.6797-1.8602zm54.914-1.0742c-0.17462-0.17463-0.3175-0.42018-0.3175-0.54568 0-0.37405 4.5184-6.1417 4.8774-6.2258 0.18187-0.0426 0.47548 0.097 0.65249 0.31028 0.26519 0.31954-0.10756 0.95012-2.1181 3.5832-1.342 1.7575-2.5157 3.1954-2.6084 3.1954-0.0926 0-0.31132-0.14288-0.48595-0.3175zm-51.526-2.8742c-1.9148-2.763-2.0009-2.9479-1.5376-3.2989 0.26996-0.20449 0.55036-0.37038 0.62312-0.36862 0.07276 2e-3 1.0464 1.3306 2.1637 2.953 1.833 2.6617 1.988 2.9827 1.5875 3.2873-0.24414 0.18563-0.52588 0.34129-0.62607 0.34592-0.10019 5e-3 -1.095-1.3088-2.2106-2.9186z"/></g></svg>
