<?xml version="1.0" encoding="UTF-8"?>
<svg width="322" height="322" version="1.1" xmlns="http://www.w3.org/2000/svg"><path d="m30.451 317.25c0.28582-2.6125 0.99221-13.525 1.5698-24.25s1.4966-26.025 2.0424-34 1.452-21.475 2.0137-30c0.56173-8.525 1.4851-19.55 2.052-24.5s0.98237-10.307 0.92331-11.905c-0.05906-1.5977 0.63128-8.3154 1.5341-14.928 1.9341-14.167 1.516-32.22-0.87231-37.667-0.84401-1.925-3.1336-5.1948-5.088-7.2661-6.0317-6.3928-19.877-28.81-20.834-33.734-0.16043-0.825-0.67098-1.7774-1.1346-2.1164-1.3552-0.99111 10.708-14.194 14.96-16.374 2.1355-1.0946 4.2427-2.557 4.6825-3.25 0.43983-0.69295 1.3522-1.2599 2.0275-1.2599s2.2318-0.70325 3.459-1.5628c1.8088-1.2669 1.9929-1.8137 0.97251-2.8884-5.3588-5.644-10.205-13.943-9.3872-16.074 0.28392-0.73987 0.063963-1.496-0.48878-1.6802-1.9314-0.6438-1.3286-14.91 0.88934-21.048 3.6783-10.179 14.633-20.309 24.705-22.845 2.4403-0.61447 7.9438-0.94771 12.23-0.74053 8.3642 0.4043 16.389 3.5905 21.89 8.6918 2.3612 2.1894 2.8997 2.3154 4.7819 1.1188 6.7532-4.2933 19.305-10.198 27.164-12.779 20.837-6.8421 46.96-8.2786 66.316-3.6467 16.512 3.9513 18.24 4.4839 17.649 5.4398-0.30348 0.49105 0.24544 0.84487 1.2198 0.78627 2.5404-0.15277 11.881 4.0366 18.101 8.119 4.4082 2.8928 5.6186 3.29 7 2.2968 0.91861-0.66051 2.3452-1.5077 3.1702-1.8826 0.825-0.37492 1.95-1.264 2.5-1.9757s3.6859-2.3802 6.9686-3.7077c8.4823-3.43 21.882-3.2558 29.049 0.3778 2.7121 1.375 5.4972 3.0223 6.189 3.6607 0.69181 0.63839 1.612 1.3134 2.0448 1.5 1.6365 0.70551 8.923 10.503 10.665 14.339 2.1289 4.6899 3.3497 19.538 1.8743 22.797-5.0133 11.072-6.8984 14.339-9.6253 16.682-1.7325 1.4888-1.3958 1.8631 6.0248 6.6964 7.5674 4.9289 16.557 13.066 16.053 14.531-0.13362 0.38882 0.52907 1.2888 1.4726 2 1.6054 1.21 1.6107 1.6143 0.0822 6.293-0.89839 2.75-2.9079 6.8811-4.4656 9.1802-1.5577 2.2991-2.8322 4.4548-2.8322 4.7905 0 0.56958-3.8873 6.4201-5.0028 7.5293-0.27655 0.275-1.7596 2.3539-3.2958 4.6198-1.5361 2.2659-4.2863 5.7983-6.1114 7.8499-5.5493 6.2376-7.4889 20.872-5.0924 38.421 1.6279 11.921 3.9622 38.63 5.4719 62.609 0.55403 8.8 1.9085 29.725 3.01 46.5s2.0067 32.638 2.0116 35.25l0.00884 4.75h-261.07z" fill="#d7d6d4"/><path d="m150.28 202.03c-4.4175-1.0496-8.1522-3.653-10.094-7.0364l-1.6275-2.8358-4.2544 3.9216c-2.3399 2.1569-5.0843 3.9216-6.0986 3.9216-3.9099 0-11.284-3.31-13.657-6.1305-2.4101-2.8642-2.5723-2.9061-5.4641-1.4107-4.0694 2.1044-5.7017 1.9527-10.736-0.99773-5.2703-3.0886-7.3434-6.8119-7.3434-13.189 0-4.7098 2.2878-9.8304 3.9367-8.8113 0.43993 0.2719 1.112 3.2527 1.4934 6.624 0.74204 6.5588 3.6756 10.915 7.3501 10.915 2.6648 0 5.8222-3.7967 7.2866-8.7619 1.4131-4.7915 2.3142-5.7937 6.0533-6.7321 3.5321-0.8865 3.9709 0.6903 2.6203 9.4162-1.0389 6.7121-0.97833 7.2843 0.97886 9.2415 2.2822 2.2822 6.4852 2.7416 8.6496 0.94524 0.75623-0.62762 2.3568-3.8339 3.5568-7.125 1.9786-5.4264 2.4508-5.9839 5.0691-5.9839 3.2582 0 4.5752 1.4806 4.1622 4.6792-0.57808 4.4762 5.5906 13.333 9.2674 13.305 4.3823-0.0323 6.5757-3.6502 6.5757-10.846 0-4.2031 0.4169-5.3211 2.6349-7.0657 4.3066-3.3876 5.02-2.7369 5.676 5.1774 0.51047 6.1581 0.99252 7.5889 3.2008 9.5 5.6259 4.8689 10.488 2.0414 10.488-6.0989 0-6.1028 2.0327-9.6511 5.5288-9.6511 2.0757 0 2.6469 0.79647 4.062 5.6641 1.678 5.772 5.1257 10.336 7.808 10.336 0.81933 0 2.7364-1.0724 4.2601-2.383l2.7704-2.383-1.2993-7.7324c-1.4434-8.5902-0.92166-9.9894 3.3272-8.923 2.1634 0.54298 3.3458 2.0249 5.5688 6.9796 2.9531 6.5819 5.6929 8.9831 9.0383 7.9213 3.065-0.97281 4.7383-4.3899 5.4989-11.23 0.38226-3.4375 1.0614-6.25 1.5092-6.25 2 0 3.9275 4.7701 3.9275 9.7196 0 4.6266-0.4313 5.752-3.5108 9.1606-1.9309 2.1373-4.9116 4.4663-6.6237 5.1754-3.0641 1.2692-3.593 1.1898-10.025-1.505-1.1548-0.48383-1.8533-0.0852-2.2963 1.3106-0.76265 2.4029-9.8271 7.1387-13.664 7.1387-1.4998 0-4.1073-1.1615-5.7944-2.5811l-3.0674-2.5811-3.5093 3.721c-3.4124 3.6182-3.6614 3.7053-9.0118 3.1531-3.0264-0.31235-6.9-1.2651-8.6081-2.1172-3.2615-1.6271-5.3708-1.1294-7.844 1.8507-1.3894 1.6742-2.7502 1.7764-7.7703 0.58366zm4.0717-40.119c-17.226-1.2429-30.403-5.3623-31.863-9.9608-0.89958-2.8343 3.4764-9.003 8.28-11.672 8.3369-4.6321 35.874-6.8246 47.543-3.7852 6.6206 1.7244 15.193 5.8114 18.443 8.793 6.4543 5.9208-2.5578 14.539-17.456 16.693-7.535 1.0895-8.9539 1.0856-24.947-0.0684zm-60.847-30.721c-4.1004-1.9504-8.3815-6.2356-21.5-21.52-9.2605-10.79-13.194-17.074-22.565-36.055-10.366-20.996-11.3-27.302-5.6155-37.937 8.1946-15.331 29.632-18.307 46.399-6.4426 1.4162 1.0022 2.7342 0.70166 7.4949-1.7089 9.7425-4.9331 15.551-3.3285 20.033 5.5336 1.2353 2.4428 3.9706 6.4665 6.0784 8.9415 11.843 13.906 18.892 26.399 21.737 38.528 4.0454 17.245-2.9845 32.594-20.145 43.984-11.786 7.8231-24.093 10.397-31.916 6.6763zm20.17-19.311c1.7435-0.53882 3.6632-1.574 4.266-2.3003 0.8534-1.0283 0.4837-1.4435-1.67-1.8754-1.7827-0.35756-4.8101-2.921-8.516-7.2108-6.5048-7.5297-7.2014-10.726-3.7938-17.405 5.3982-10.581 18.966-15.342 27.404-9.6161 3.9336 2.6694 4.2403 2.2334 2.5955-3.6888-2.4036-8.6544-10.133-13.723-20.984-13.759-5.4192-0.01823-7.7579 0.56735-13.766 3.4469-8.0424 3.8542-15.648 10.769-18.734 17.031-2.9954 6.0786-2.6699 16.502 0.71818 23 5.8689 11.256 19.411 16.416 32.481 12.377zm96.777 19.78c-12.809-4.2031-25.942-14.549-31.514-24.826-3.2975-6.082-3.4318-6.7453-3.4082-16.831 0.0196-8.3714 0.47772-11.715 2.2598-16.493 3.0086-8.0669 10.196-19.761 17.624-28.674 3.3608-4.0328 6.974-9.2714 8.0293-11.641 3.8332-8.6082 10.492-10.504 20.348-5.793l5.8432 2.7928 4.6688-2.9608c6.5828-4.1747 12.433-5.5758 20.956-5.0192 11.377 0.74293 19.234 5.9845 23.667 15.789 4.2508 9.4017 2.528 17.393-8.3708 38.826-7.6103 14.967-14.467 25.664-20.703 32.301-2.3912 2.5448-6.6562 7.5087-9.4777 11.031-7.3086 9.1236-11.796 11.976-19.586 12.448-3.6037 0.21857-8.0127-0.18609-10.337-0.94872zm16.053-21.01c3.9321-2.0772 3.9538-2.1187 1.2761-2.4441-1.8304-0.22241-4.5698-2.3601-8.3514-6.5171-8.3384-9.1662-8.7904-11.623-3.7609-20.442 5.2834-9.2636 19.465-13.372 26.302-7.6198 1.7154 1.4434 3.271 2.4559 3.4568 2.25 0.18583-0.20594-0.22125-2.542-0.90464-5.1914-1.4658-5.6825-7.1835-12.088-12.297-13.775-5.6582-1.8674-15.98-0.74976-22.49 2.4352-7.2999 3.5715-15.988 11.491-18.658 17.006-3.1549 6.5171-2.847 15.525 0.79118 23.151 2.3853 4.9998 3.7753 6.5459 8.3386 9.2747 9.2555 5.5348 18.164 6.1691 26.297 1.8725zm-88-59.332c-2.75-4.7291-6.661-10.486-8.6911-12.793-3.5755-4.0636-3.6442-4.2855-2.1914-7.0856 3.0994-5.974 6.3506-5.8913 12.32 0.31373 2.5464 2.6471 6.4266 8.5131 8.7646 13.25 6.0298 12.217 6.036 12.283 1.3051 13.759-2.1864 0.68237-4.5448 1.2212-5.241 1.1974s-3.5158-3.9125-6.2658-8.6416zm28.75 7.3374c-1.7875-0.5864-3.25-1.5149-3.25-2.0633 0-3.149 9.6641-20.285 13.945-24.726 5.706-5.9199 8.2958-6.1349 11.764-0.9765l2.277 3.387-3.5758 3.958c-4.1518 4.5955-10.523 14.214-12.372 18.677-1.3858 3.3457-2.955 3.657-8.7877 1.7436z" fill="#01319f"/></svg>
