<?xml version="1.0" encoding="UTF-8"?>
<svg width="369.57" height="369.57" version="1.1" viewBox="0 0 369.57 369.57" xmlns="http://www.w3.org/2000/svg"><g transform="translate(-4.16 -4.175)"><path d="m124.65 342.96c-1.4141-12.361-1.4106-29.566 9e-3 -43.92 0.52488-5.3078 1.8075-14.533 2.4693-17.76l0.42655-2.08-5.9393-3.0526c-12.092-6.2145-20.418-12.208-30.214-21.747-10.675-10.395-19.794-22.501-25.724-34.148l-2.1611-4.2443-59.36-8e-3v-46.399l49.44-8e-5 2.674-3.2207c4.566-5.4995 10.087-9.6078 15.086-11.225 3.1718-1.0263 8.4228-1.1764 11.747-0.33588 3.2699 0.8269 6.813 2.5723 9.7247 4.7907 1.4958 1.1396 2.2078 1.5287 2.087 1.1404-0.4558-1.4643-2.1237-8.8508-2.5536-11.309-0.81484-4.6591-0.84834-5.3976-0.25269-5.5703 0.29041-0.0842 7.9345-1.8199 16.987-3.857s16.531-3.7755 16.618-3.8631c0.0876-0.0876-0.0843-1.9211-0.38195-4.0744-1.4171-10.252-1.6275-13.379-1.6414-24.395-0.0145-11.502 0.23028-15.016 1.6093-23.102 3.3122-19.42 11.528-36.209 23.065-47.129 3.6122-3.4193 3.7676-3.4845 6.0954-2.5591 14.5 5.7638 35.868 21.629 56.781 42.158l5.3244 5.2267 3.3156-1.1064c8.1197-2.7095 18.551-4.2277 33.344-4.8528l5.0689-0.2142 5.4911-5.5004c15.445-15.471 32.785-26.721 51.786-33.599 3.9795-1.4405 12.034-3.7191 13.153-3.7211 0.79002-0.0014 2.655 2.996 5.6738 9.119 4.753 9.6406 7.8604 20.768 9.7401 34.88 1.4232 10.684 1.618 14.286 1.618 29.92 0 14.626-0.20792 19.329-1.3007 29.419-0.28365 2.619-0.34883 4.3698-0.16678 4.48 0.16435 0.0995 6.8258 1.391 14.803 2.87 7.9774 1.4791 14.554 2.7289 14.615 2.7774 0.1817 0.14473-0.86586 4.5164-2.0256 8.4534-3.1906 10.831-9.5098 22.677-17.327 32.48-5.6164 7.0438-15.109 15.873-22.17 20.621l-2.8464 1.9139 0.77744 2.4925c5.2283 16.762 10.224 48.983 14.031 90.493 0.93581 10.204 2.6063 31.566 2.9215 37.36l0.22197 4.08h-222.45z" fill="#f16a21"/><path d="m124.65 342.96c-1.4141-12.361-1.4106-29.566 9e-3 -43.92 0.52488-5.3078 1.8075-14.533 2.4693-17.76l0.42655-2.08-5.9393-3.0526c-12.092-6.2145-20.418-12.208-30.214-21.747-10.675-10.395-19.794-22.501-25.724-34.148l-2.1611-4.2443-59.36-8e-3v-46.399l49.44-8e-5 2.674-3.2207c4.566-5.4995 10.087-9.6078 15.086-11.225 3.1718-1.0263 8.4228-1.1764 11.747-0.33588 3.2699 0.8269 6.813 2.5723 9.7247 4.7907 1.4958 1.1396 2.2078 1.5287 2.087 1.1404-0.4558-1.4643-2.1237-8.8508-2.5536-11.309-0.81484-4.6591-0.84834-5.3976-0.25269-5.5703 0.29041-0.0842 7.9345-1.8199 16.987-3.857s16.531-3.7755 16.618-3.8631c0.0876-0.0876-0.0843-1.9211-0.38195-4.0744-1.4171-10.252-1.6275-13.379-1.6414-24.395-0.0145-11.502 0.23028-15.016 1.6093-23.102 3.3122-19.42 11.528-36.209 23.065-47.129 3.6122-3.4193 3.7676-3.4845 6.0954-2.5591 14.5 5.7638 35.868 21.629 56.781 42.158l5.3244 5.2267 3.3156-1.1064c8.1197-2.7095 18.551-4.2277 33.344-4.8528l5.0689-0.2142 5.4911-5.5004c15.445-15.471 32.785-26.721 51.786-33.599 3.9795-1.4405 12.034-3.7191 13.153-3.7211 0.79002-0.0014 2.655 2.996 5.6738 9.119 4.753 9.6406 7.8604 20.768 9.7401 34.88 1.4232 10.684 1.618 14.286 1.618 29.92 0 14.626-0.20792 19.329-1.3007 29.419-0.28365 2.619-0.34883 4.3698-0.16678 4.48 0.16435 0.0995 6.8258 1.391 14.803 2.87 7.9774 1.4791 14.554 2.7289 14.615 2.7774 0.1817 0.14473-0.86586 4.5164-2.0256 8.4534-3.1906 10.831-9.5098 22.677-17.327 32.48-5.6164 7.0438-15.109 15.873-22.17 20.621l-2.8464 1.9139 0.77744 2.4925c5.2283 16.762 10.224 48.983 14.031 90.493 0.93581 10.204 2.6063 31.566 2.9215 37.36l0.22197 4.08h-222.45zm132.86-32.412c1.5176-0.63408 2.3214-1.3723 2.3214-2.1319 0-0.83589 1.4155-2.1748 2.3055-2.1808 1.5055-0.01 1.5563-0.22229 1.0366-4.3297-0.2662-2.104-0.39596-4.3294-0.28834-4.9454 0.10761-0.616 1.9694-4.288 4.1373-8.16 2.1679-3.872 5.7756-10.416 8.0171-14.541 3.6817-6.7768 4.0899-7.6887 4.2248-9.44 0.12778-1.6589 0.0401-2.0987-0.60758-3.0483-0.49523-0.72606-1.1421-1.2065-1.8711-1.3897-2.9715-0.74687-4.4835-1.3268-6.3942-2.4525-1.4575-0.85872-3.2771-1.5274-6.08-2.2342-7.8286-1.9742-10.213-3.0057-18.88-8.1671-7.119-4.2396-7.5666-4.4475-9.54-4.4299-0.93502 8e-3 -1.871 0.1872-2.08 0.39745-0.24388 0.24535-0.37997 1.5609-0.37997 3.6732 0 1.896-0.14848 3.482-0.35032 3.7417-0.51943 0.66836-0.77978 1.4584-1.414 4.2908-0.31526 1.408-1.4283 4.504-2.4734 6.88s-3.172 7.452-4.7265 11.28l-2.8264 6.96h-1.1106c-0.95358 0-1.4911-0.3653-3.8015-2.5834-3.2677-3.1371-4.2887-3.6266-6.948-3.3311-7.6141 0.84624-11.197 2.5018-11.197 5.1737 0 1.0829 0.32029 1.4803 4.2696 5.2979 2.3483 2.27 5.0051 4.6248 5.904 5.233 3.4252 2.3174 8.3213 3.0041 12.401 1.7392 2.9754-0.92252 3.4737-1.3603 3.4737-3.0518 0-2.6062 0.70924-4.7647 4.4677-13.598 2.0595-4.84 4.2251-10.008 4.8125-11.485s1.3864-3.0553 1.7756-3.5078l0.7076-0.82264 5.3982 1.7076c6.3522 2.0093 10.14 3.5832 12.679 5.2689 2.5343 1.6825 5.4654 4.9794 6.8018 7.6508 1.4097 2.8179 1.5139 5.1347 0.35391 7.8683-0.42013 0.99001-1.3727 4.392-2.1168 7.56-0.7441 3.168-1.4468 5.8632-1.5616 5.9894-0.11476 0.12618-1.5998-0.75248-3.3002-1.9526-3.8096-2.6888-5.0913-3.3141-7.1377-3.4823-1.2951-0.10644-1.8134 0.0134-2.72 0.6287-1.3428 0.91145-2.0663 2.7103-1.5919 3.9581 0.17154 0.4512 0.31189 1.7167 0.31189 2.8123 0 6.5976 3.5868 11.099 10.399 13.051 2.4142 0.69164 2.2064 0.68566 3.5993 0.10366zm-86.029-47.593c0.42303-0.21741 1.0514-0.77554 1.3964-1.2403 1.3097-1.7645-0.40403-4.0993-4.536-6.1801-5.9721-3.0075-13.392-9.1214-17.957-14.795-2.5202-3.1328-5.6175-7.8558-7.9349-12.1-1.9856-3.6363-6.2572-12.849-6.6109-14.259-0.19782-0.78817 0.10932-1.3185 2.4275-4.1915l0.68597-0.85016-0.9494-1.7098c-0.52217-0.94042-1.6502-2.8386-2.5068-4.2182-1.3369-2.153-1.5746-2.7876-1.6788-4.48-0.10259-1.6662-4e-3 -2.1452 0.63564-3.0917 0.83448-1.2346 3.1728-2.6347 5.3908-3.228 1.383-0.36989 1.5375-0.33485 4.3113 0.97754 3.5058 1.6588 4.4491 2.4905 5.6368 4.9704 0.86081 1.7973 0.91969 2.1756 0.9216 5.92 2e-3 4.4392 0.30292 5.9743 1.4258 7.2795 0.68986 0.80187 0.94136 0.87675 2.8157 0.83824 1.132-0.0233 2.3554-0.20137 2.7188-0.39582 1.1069-0.5924 1.1695-2.3714 0.24191-6.874-1.1839-5.7465-1.0992-5.8723 5.7564-8.5519 2.288-0.89432 4.6672-1.6344 5.2872-1.6446 2.8513-0.047 6.4706 3.1973 8.76 7.8525 1.46 2.9686 3.5396 9.4229 3.9123 12.142l0.2028 1.4796 2.4851-1.2495c3.6281-1.8242 3.8357-2.1791 3.6122-6.1753-0.20517-3.6681 0.24937-6.0764 1.6795-8.8986 1.9036-3.7567 5.9531-6.6824 9.249-6.6824 4.3166 0 11.919 5.6859 13.005 9.7261 0.22849 0.85026 0.8344 1.7655 1.7172 2.5939 2.6811 2.5158 3.7398 5.3462 3.0324 8.1064-0.37625 1.4681-0.35411 1.6461 0.33006 2.6536 0.40336 0.59399 1.0651 1.368 1.4705 1.72s2.0507 2.944 3.6562 5.76c1.6055 2.816 3.3447 5.516 3.8648 6 1.6597 1.5443 4.0143 1.0761 6.0082-1.1948 1.4385-1.6384 1.4464-2.6208 0.0342-4.2292-0.97377-1.1091-1.582-2.823-1.5849-4.4661l-2e-3 -1.0101 3.1048-0.23277c1.7076-0.12803 5.6523-0.24946 8.766-0.26986l5.6612-0.0371 2.0818 1.9957c1.145 1.0976 2.4657 2.1416 2.9349 2.32 1.207 0.45892 3.5136 0.39448 5.8844-0.1644 4.5452-1.0715 8.2634-1.4806 15.727-1.7303 8.2293-0.27538 9.4943-0.48823 11.64-1.9585 2.4803-1.6995 3.395-4.9248 2.3231-8.1909-1.1947-3.64-1.4717-11.047-0.66171-17.691 0.5391-4.4218 0.41164-5.6285-0.80337-7.605-0.87133-1.4174-2.0526-1.9414-6.0274-2.6736-7.6438-1.408-10.506-1.705-22.951-2.3814-4.928-0.26785-15.8-0.98575-24.16-1.5953-41.663-3.038-51.825-3.6031-74.88-4.1643-21.848-0.53178-28.005-0.95713-37.702-2.6044-2.764-0.46954-3.0853-0.46715-4.3941 0.0327-1.9236 0.73461-3.7245 2.8766-4.9371 5.872-0.54749 1.3524-1.3714 3.3735-1.8309 4.4913-1.0749 2.615-3.2427 5.5516-4.9155 6.6586-2.1437 1.4186-5.1898 1.0371-6.6023-0.82695-0.21007-0.27722-0.55339-1.224-0.76294-2.104-0.63925-2.6845-1.1215-3.324-3.2753-4.3429-3.501-1.6563-4.4428-1.244-7.4661 3.2685-4.3128 6.4372-7.6279 7.2358-11.897 2.8664-3.1858-3.2603-3.1895-3.27-1.831-4.7737l1.1271-1.2476-0.47327-1.5937c-1.4643-4.9308-4.5026-5.9855-10.031-3.4821-3.3839 1.5322-5.9666 1.7545-11.408 0.98205-4.9108-0.69717-17.662-0.99103-22.347-0.515-4.0075 0.40715-5.7125 1.0528-7.1731 2.7164-1.8091 2.0605-2.4849 3.6951-4.8888 11.825-1.6886 5.7111-1.1687 8.125 2.1138 9.8142 1.5276 0.78617 1.71 0.80284 9.2469 0.84542 8.7111 0.0492 12.793 0.6005 21.769 2.9402 2.64 0.68817 7.9033 2.0619 11.696 3.0527s8.4009 2.0413 10.24 2.3345c4.3572 0.69462 14.198 0.69071 23.094-9e-3 10.75-0.84574 17.87-0.62011 29.981 0.95011 2.155 0.27939 3.0571 1.3738 3.5474 4.3039 0.96476 5.7653 3.4783 10.745 11.621 23.024 4.4797 6.7554 7.6936 10.606 12.366 14.815 2.4453 2.203 11.798 8.6552 12.974 8.9503 1.2542 0.31477 3.8525 0.21902 4.6092-0.16985zm18.111-102.32c6.165-2.1996 12.925-6.2285 17.289-10.303 2.0932-1.9548 2.5824-2.6484 4.1977-5.9514 1.0056-2.0563 2.3925-4.6403 3.082-5.7423 1.5731-2.5141 1.8009-3.9705 0.92937-5.9408-0.83903-1.8968-2.2226-2.7733-4.3776-2.7733-3.1824 0-4.6662 1.6356-4.8776 5.3766-0.0981 1.7368-0.4636 3.3552-1.2421 5.5001-1.8559 5.1135-2.8796 6.1437-7.2946 7.3413-1.3939 0.37807-3.3983 1.2211-4.4544 1.8735-1.8572 1.1472-2.0329 1.1896-5.3675 1.2939-5.8857 0.18409-12.853-1.0576-16.822-2.998-2.673-1.3067-3.5935-2.3403-5.54-6.2207-1.7066-3.4022-2.1575-4.6808-2.5771-7.3071-0.18403-1.152-0.5798-2.5126-0.87948-3.0236-0.66372-1.1318-4.1167-3.7584-4.9408-3.7584-1.0529 0-2.3825 0.90232-2.7942 1.8963-0.33851 0.81722-0.31056 1.2161 0.181 2.583 0.55269 1.537 0.55435 1.6894 0.0337 3.094-0.64933 1.752-0.35358 2.3441 1.1746 2.3516 0.55045 3e-3 1.1901 0.1249 1.4214 0.27157 0.2313 0.14668 0.986 1.9541 1.6771 4.0165 1.4566 4.3468 2.531 6.0948 6.0737 9.8813 3.2725 3.4977 5.7963 5.404 9.4818 7.1619 6.1825 2.9489 10.223 3.305 15.627 1.3771zm98.798-1.2422c1.2833-0.48792 6.0204-4.2208 8.5673-6.7511 4.4002-4.3716 7.7184-9.3934 10.443-15.805 1.3519-3.1809 1.5255-3.8656 1.6488-6.5034 0.17051-3.6494-0.0163-4.4306-1.2063-5.046-1.7551-0.90759-3.4849-0.49267-4.7678 1.1436-0.87744 1.1191-2.7788 4.9477-3.765 7.5811-2.0495 5.4732-8.0496 15.076-10.353 16.568-2.7772 1.8-8.5098 2.5715-13.178 1.7735-4.3281-0.73987-13.58-5.4672-15.752-8.0486-1.8555-2.2051-3.3954-9.3188-3.3954-15.685 0-2.2535-0.13518-4.4528-0.30039-4.8874-0.47478-1.2488-1.6277-2.1316-2.7837-2.1316-1.1975 0-1.9752 0.85261-3.6485 4l-1.0208 1.92 0.19519 4.16c0.21193 4.5168 1.352 11.113 2.4068 13.927 0.83797 2.2349 1.701 3.2151 5.4712 6.214 3.0476 2.4241 10.304 6.5861 12.893 7.3955 1.587 0.49601 17.31 0.64422 18.545 0.17482z" fill="#b43092"/></g></svg>
