<?xml version="1.0" encoding="UTF-8"?>
<svg width="312.16" height="312.16" version="1.1" xmlns="http://www.w3.org/2000/svg"><path d="m43.689 311.92c0.25653-0.43908 15.898-48.554 15.89-48.88-0.0043-0.176-3.3286-1.8295-7.3873-3.6744s-7.4376-3.4486-7.5087-3.5636c-0.07111-0.11505 1.2395-1.8383 2.9125-3.8294s3.0034-3.719 2.9564-3.8398c-0.04697-0.1208-2.1014-1.7668-4.5654-3.6578-19.935-15.299-34.799-30.861-40.341-42.235-2.3141-4.7489-2.646-3.7833 4.0017-11.64 3.1831-3.762 5.8544-7.146 5.9361-7.52 0.08173-0.37405 0.45193-2.4081 0.82266-4.5201 1.9797-11.278 5.7494-28.703 9.119-42.152 9.6763-38.62 20.315-63.693 30.561-72.023l1.7411-1.4157 9.7012 0.31843c5.6142 0.18428 9.8103 0.19929 9.9601 0.03564 0.14239-0.15553 2.104-6.5468 4.3592-14.203s4.1377-13.973 4.1834-14.037c0.0457-0.06425 6.6616 0.69327 14.702 1.6834l14.619 1.8002 2.5982-2.4834c1.429-1.3659 10.501-10.043 20.161-19.283s17.744-16.8 17.965-16.8c0.32609 0 15.831 14.67 37.464 35.445l3.2543 3.1254 14.614-1.8016c8.0375-0.99086 14.657-1.7493 14.709-1.6854 0.0524 0.06389 1.9708 6.4522 4.2632 14.196l4.168 14.08 7.7997-0.07796c4.2898-0.04288 8.7357-0.15442 9.8797-0.24787l2.08-0.16991 1.76 1.4491c6.4266 5.2913 13.144 17.364 19.682 35.372 6.719 18.507 14.178 47.615 19.509 76.129 0.8035 4.2979 1.6382 8.0392 1.855 8.3139 0.21674 0.27477 2.8182 3.3758 5.781 6.8912 6.1731 7.3244 5.8912 6.4881 3.7191 11.033-4.932 10.32-17.833 24.331-35.346 38.389-2.992 2.4017-6.412 5.0767-7.6 5.9443-1.188 0.86767-2.16 1.6616-2.16 1.7642s1.3767 1.823 3.0594 3.8229c1.6826 2 2.9426 3.7476 2.8 3.8836-0.14265 0.13603-3.4252 1.705-7.2945 3.4865-3.8694 1.7816-7.1578 3.3619-7.3078 3.5118-0.15013 0.15012 2.9208 10.029 6.8353 21.989 3.9094 11.944 7.5052 22.976 7.9908 24.516l0.88293 2.8h-112.46c-61.854 0-112.4-0.108-112.32-0.24z" fill="#ef7295"/><path d="m143.5 256.91c-0.93603-0.37661-1.4575-2.2279-1.6974-6.0258-0.23178-3.6698-1.3038-9.1979-1.9316-9.9602-0.16314-0.19811-1.4928-0.42298-2.9547-0.49971-3.3577-0.17624-4.6793-0.83135-6.7112-3.3268-1.9509-2.396-5.0316-8.513-5.2462-10.417-0.1598-1.4177-0.15209-1.431 1.0423-1.7975 0.73879-0.22675 1.409-0.25925 1.736-0.0842 0.29299 0.1568 1.531 2.0494 2.7511 4.2058 3.698 6.5358 4.5178 7.3279 7.5681 7.3123 3.2617-0.0167 8.7039-3.836 13.26-9.306 1.5926-1.9119 1.9796-2.207 2.8942-2.207 1.3395 0 2.2382 0.88215 2.5082 2.4622 0.70563 4.1289 1.5501 5.0345 6.034 6.4708 5.164 1.6542 8.3858 2.3622 9.6609 2.123 0.87505-0.16416 1.842-0.87377 3.8939-2.8576 2.6558-2.5677 2.7366-2.6899 2.9835-4.5091 0.30425-2.242 0.98007-3.0303 2.8083-3.2755l1.327-0.17798v1.1968c0 1.1315 0.0458 1.1853 0.83866 0.98634 0.78626-0.19734 0.82532-0.15453 0.62518 0.6853-1.0068 4.2246-6.912 10.41-11.151 11.68-0.69117 0.20708-1.4403 0.67339-1.6648 1.0362-0.68341 1.1048-1.2698 4.6574-1.279 7.749-8e-3 2.7909-0.0555 2.9873-0.99987 4.16-1.247 1.5485-3.6952 3.0911-4.8486 3.0551-0.48412-0.0151-1.7765-0.12482-2.8719-0.24377-1.5114-0.16413-2.6689-0.0534-4.8 0.45936-1.5446 0.3716-3.7443 0.81955-4.8883 0.99544-2.1348 0.32821-8.1594 0.4031-8.8867 0.11046zm8.108-4.2814c5.2276-0.92396 11.284-2.36 12.139-2.8782 2.0509-1.2433 2.4987-3.4945 1.6455-8.2728l-0.36547-2.0466-3.2486-1.0246c-4.6454-1.4651-6.5234-2.6969-8.4313-5.5301-0.4778-0.70949-0.49836-0.69842-4.48 2.4117-4.7359 3.6992-4.5414 3.1327-3.5098 10.227 1.104 7.591 1.4332 7.9656 6.251 7.1141zm-87.485-18.965c-0.38268-0.40734-0.69578-1.105-0.69578-1.5504 0-0.75475 0.84876-1.869 1.4237-1.869 0.55442 0 7.1921-5.0579 9.3137-7.0971l2.2574-2.1696 1.7426 1.1466c2.0372 1.3404 2.2814 1.6523 1.8805 2.4015-0.16361 0.3057-2.7096 2.1745-5.6577 4.1528-2.9481 1.9784-5.951 4.076-6.6732 4.6614-1.5424 1.2504-2.6287 1.3484-3.5913 0.32378zm182.29-2.4535c-2.1721-1.5808-4.8133-3.4444-5.8693-4.1413-3.1265-2.0635-4-2.8869-4-3.7708 0-0.68978 0.1093-0.77575 0.77415-0.60888 0.63771 0.16006 0.89608-3e-3 1.4661-0.92531 0.38057-0.61578 0.81074-1.1196 0.95592-1.1196s2.6174 1.9632 5.4939 4.3627 5.5899 4.5153 6.0299 4.7019c1.2847 0.54475 1.92 1.2196 1.92 2.0396 0 0.92283-1.3285 2.3359-2.1962 2.3359-0.34388 0-2.4024-1.2934-4.5746-2.8741zm-200.1-8.7626c-0.50588-0.50587-0.81423-1.1733-0.81423-1.7623 0-1.0672-0.08521-1.0247 6.2135-3.0983 3.7591-1.2375 7.4063-2.9718 11.66-5.5446l2.6735-1.617 1.3265 0.67121c4.1499 2.0998 4.1058 3.3174-0.15941 4.402-1.3453 0.34209-3.3613 1.086-4.48 1.6531s-4.8421 2.067-8.2741 3.333-6.4856 2.4088-6.7858 2.5395c-0.37415 0.16286-0.8018-0.0185-1.36-0.57668zm105.05 0.20475c-1.0165-0.1071-1.3016-0.33265-2.0551-1.6262-0.48117-0.82603-1.9349-2.6539-3.2305-4.0619-2.7136-2.949-3.9893-5.2896-4.1878-7.6838-0.17764-2.1421 0.31271-3.6192 1.6196-4.879 0.86951-0.83812 1.6884-1.1526 5.1484-1.9769 2.2629-0.53915 4.7109-0.98009 5.44-0.97987 0.72907 2.3e-4 2.4779-0.16061 3.8863-0.3574 3.2163-0.44942 4.4919-0.0155 5.8101 1.9764 1.0815 1.6342 1.2944 3.96 0.80749 8.8181-0.3882 3.8729-1.2037 5.7173-3.5771 8.0907-2.3774 2.3774-5.1728 3.1527-9.6615 2.6798zm6.9733-5.5757c0.46741-0.46741 1.199-1.9649 1.712-3.5043 0.85899-2.5777 0.87923-2.78 0.49304-4.9281-0.65935-3.6674-0.42639-3.4758-3.9691-3.2635-4.9834 0.29864-8.6531 1.1184-9.702 2.1673-1.5891 1.5891-1.012 3.2291 2.4359 6.9224 3.1065 3.3277 3.7171 3.6756 6.2056 3.5354 1.6382-0.0922 2.1589-0.26353 2.8246-0.92929zm104.93 3.4403c-3.168-1.1052-7.6008-2.8247-9.8506-3.8211-2.2498-0.99638-4.4903-1.8116-4.9788-1.8116-1.1236 0-1.8847-0.57534-2.1166-1.6-0.15106-0.66732 0.0386-0.95428 1.1436-1.7303 1.9294-1.355 3.5042-1.3038 5.5625 0.18099 2.3484 1.694 4.285 2.5865 9.618 4.4324 5.7422 1.9875 8.2663 3.1632 8.4052 3.915 0.12189 0.65981-1.1005 2.4902-1.6449 2.4629-0.20801-0.0104-2.9702-0.92319-6.1382-2.0284zm-77.297-8.7623c-1.4281-0.71304-1.8325-1.6269-2.4006-5.4254-0.75422-5.0433-1.2674-6.4397-2.9712-8.0855-3.521-3.4012-13.656-7.0468-21.011-7.5579-5.5654-0.38667-13.237 0.97343-20.2 3.5813-3.4651 1.2978-8.353 4.4654-10.175 6.5935-1.2382 1.4466-4.3278 6.5017-5.0824 8.3156-0.66474 1.598-1.6489 2.508-2.7124 2.508-1.1951 0-2.3112-0.83195-2.3112-1.7228 0-0.3996 0.65622-2.5154 1.4583-4.7018 1.1794-3.2151 1.7129-4.236 2.79-5.3388l1.3318-1.3635-1.59 0.17758c-0.87453 0.0977-2.9498 0.41506-4.6117 0.70532-2.9581 0.51665-3.0961 0.51241-6.56-0.20131-1.9461-0.40098-4.3705-1.0618-5.3876-1.4684-8.7164-3.4848-15.274-12.453-15.331-20.966-0.0321-4.7703 1.5145-8.9728 5.2368-14.229 2.5009-3.5318 7.2125-8.3017 9.5758-9.6943 3.5338-2.0823 5.0865-2.4622 10.048-2.4583 4.7387 4e-3 7.2758 0.48804 13.256 2.5305 1.3068 0.44633 2.4725 0.81151 2.5903 0.81151 0.29116 0-3.6995-11.653-4.3923-12.826-0.30388-0.51443-0.80935-1.0168-1.1233-1.1165-0.70558-0.22394-0.74111-1.3524-0.0726-2.3068 0.96978-1.3846 3.356-0.82655 6.1524 1.4387 2.3155 1.8757 5.9282 7.7329 8.2457 13.368l1.1836 2.8784-1.7594 5.293 1.7777 3.5952c2.5266 5.1097 4.599 12.711 4.2669 15.65-0.19787 1.751-1.2781 4.0039-2.8889 6.0249-1.031 1.2936-1.0843 1.4502-0.52459 1.5406 0.34272 0.0553 1.3083-0.20251 2.1458-0.57295 5.8057-2.5681 20.614-0.97347 28.694 3.09l2.1914 1.102-0.80865-1.0602c-3.4187-4.4822-4.6643-14.766-2.6168-21.604 0.50236-1.6779 4.6128-8.2254 6.5462-10.427l1.0427-1.1876h-2.4332c-2.0065 0-2.5454-0.11223-3.0732-0.64-1.5235-1.5235-0.23765-6.0588 3.351-11.819 2.4372-3.9121 4.416-5.974 6.0184-6.2713 1.485-0.27551 7.2428 1.1033 7.7118 1.8467 0.78686 1.2474-2.8874 8.3958-6.0806 11.83-2.1554 2.3181-1.8753 2.9264 0.48404 1.0509 1.7537-1.394 2.5332-1.5967 8.6754-2.2557 5.996-0.6433 13.846-0.49953 16.8 0.30769 4.5162 1.2341 8.1541 3.7916 10.199 7.1703 1.1662 1.9265 2.951 6.7436 4.0992 11.063 0.4827 1.816 0.69307 3.5598 0.69939 5.7972 8e-3 2.8874-0.10974 3.5438-1.2071 6.72-4.0427 11.701-10.08 17.756-19.692 19.751-2.6103 0.54172-3.8089 0.6068-8.1785 0.44405-2.816-0.10488-6.236-0.2826-7.6-0.39493l-2.48-0.20424v0.84897c0 0.46694 0.504 2.1388 1.12 3.7152 1.1622 2.9744 1.4074 4.9564 0.72 5.8205-0.63805 0.80201-1.9211 0.93695-3.137 0.32991zm16.977-13.966c6.2061-1.1196 10.886-3.0778 13.103-5.4828 1.7643-1.914 2.845-4.269 4.8247-10.514l1.7157-5.4118-0.54143-2.6304c-0.29779-1.4467-0.54144-3.2849-0.54144-4.085 0-1.0342-0.31732-2.0634-1.098-3.5611-0.60389-1.1586-1.2659-2.9155-1.4712-3.9042-0.99888-4.8116-6.9008-7.5934-16.151-7.6125-6.3003-0.013-11.049 0.54926-13.095 1.5507-3.4305 1.6784-10.257 8.8884-12.282 12.971-1.1411 2.3011-1.1812 2.498-1.1407 5.6 0.0471 3.6103 1.1863 9.2908 2.3668 11.802 0.45343 0.96462 1.5258 2.2394 2.9447 3.5004 1.2273 1.0908 2.9538 2.891 3.8367 4.0005 0.88283 1.1095 2.1317 2.2859 2.7754 2.6142 2.8083 1.4327 10.08 2.0056 14.754 1.1623zm-5.6-12.189c-1.408-0.42373-3.001-0.77601-3.5401-0.78285-1.7464-0.0222-3.546-2.6818-4.9035-7.2469-0.83402-2.8047-0.83388-2.8581 0.0148-6.0032 0.57502-2.1311 0.91926-2.7895 2.0492-3.9194 2.3882-2.3882 7.5992-3.379 11.57-2.1998 2.2915 0.68049 4.658 2.3375 5.0498 3.5358 0.176 0.5383 0.92105 1.5496 1.6557 2.2473s1.4252 1.6973 1.5346 2.2213 0.33635 1.4734 0.50434 2.1098c0.47336 1.7932 0.36453 2.8626-0.47473 4.6651-1.0302 2.2126-3.0623 4.3623-5.0692 5.3624-2.1443 1.0685-4.8639 1.072-8.3906 0.0107zm-72.48 9.8808c1.144-0.25175 3.4241-1.11 5.067-1.9072 3.2519-1.578 6.165-4.1444 9.1207-8.0354 2.6118-3.4382 3.2507-4.9746 3.2249-7.7552-0.0597-6.4565-6.761-18.898-10.179-18.898-0.33974 0-1.2845-0.42786-2.0994-0.95079-4.5582-2.925-13.427-4.202-17.774-2.5592-2.6623 1.006-4.9468 2.5264-7.1151 4.7352-3.8052 3.8762-7.6938 10.229-8.4291 13.771-0.20396 0.98245-0.30329 2.8386-0.22075 4.1248 0.12287 1.9146 0.38718 2.8152 1.4582 4.9686 5.0268 10.107 15.584 15.007 26.947 12.506zm-7.52-9.0799c-2.1302-1.0706-6.3328-4.2497-7.0728-5.3502-0.38241-0.56869-0.94447-2.0508-1.249-3.2936-0.47068-1.9206-0.4937-2.474-0.15346-3.6892 0.44299-1.5822 2.3119-3.9028 3.9669-4.9257 0.5902-0.36476 1.2473-1.0838 1.4603-1.5979 0.61243-1.4785 2.2102-1.9646 4.63-1.4087 4.7374 1.0884 6.999 2.3039 8.5312 4.5853 1.2442 1.8526 1.4026 3.0602 0.81611 6.222-0.81055 4.3697-3.3136 8.7334-5.544 9.6653-1.519 0.63469-3.8916 0.54334-5.3852-0.20734zm-82.274 16.826c-0.89681-0.39039-1.3895-1.2096-1.4021-2.3312-0.0078-0.69136 1.1458-1.0368 5.6525-1.6929 2.4327-0.35413 8.3111-1.4225 13.063-2.3742l8.64-1.7304 1.36 1.3197c1.4982 1.4538 1.6639 2.0923 0.75641 2.9135-0.50635 0.45824-0.9868 0.51152-2.9822 0.33069-1.4741-0.13357-3.0395-0.0708-4.1164 0.16507-6.1172 1.3398-18.749 3.8551-19.308 3.8447-0.36843-7e-3 -1.117-0.20715-1.6634-0.44501zm233.79-1.965c-8.6472-1.795-10.378-2.0653-12.18-1.9015-1.8259 0.16601-2.212 0.10266-2.96-0.48575-1.0904-0.85772-1.1073-1.8114-0.0407-2.2974 0.64062-0.29189 0.77903-0.53494 0.63391-1.1131-0.23326-0.92937-0.30429-0.9304 4.9838 0.0726 2.3555 0.44677 8.2428 1.4573 13.083 2.2456 4.84 0.78829 9.124 1.5717 9.52 1.7408 0.55085 0.2353 0.72 0.57055 0.72 1.427 0 1.2898-0.85837 2.0354-2.6062 2.2638-0.61172 0.0799-5.4117-0.76016-11.154-1.9521zm-213.28-50.546c-3.696-2.0198-7.4583-3.8933-8.3606-4.1633-1.8058-0.54039-2.521-1.1535-2.8408-2.435-0.18898-0.7574-0.09043-0.88638 0.93618-1.2252 0.65101-0.21485 1.5968-0.28128 2.1863-0.15356 1.3981 0.30295 4.6255 1.9481 8.4469 4.3057 1.7336 1.0696 4.1345 2.2442 5.3354 2.6104 1.8597 0.56702 2.2571 0.82017 2.6801 1.7072 0.66255 1.3894 0.22317 2.8507-0.88819 2.954-0.48292 0.0449-3.3097-1.3129-7.4953-3.6003zm197.15 2.8762c-1.1624-1.1624-0.038-3.7635 1.7765-4.1097 1.5987-0.30504 4.0793-1.5417 7.8873-3.9321 1.8776-1.1787 4.3863-2.4812 5.5749-2.8945 2.0164-0.70125 2.2254-0.7182 3.1243-0.25338 1.8541 0.95881 0.9756 2.7079-1.9167 3.816-0.792 0.30344-3.384 1.6052-5.76 2.8928-5.0045 2.7121-8.5094 4.4788-9.4863 4.7817-0.43929 0.13623-0.87116 0.0279-1.2-0.3009zm-155.24-10.02c-0.35667-0.11446-1.2919-0.9281-2.0784-1.8081s-2.9685-3.2182-4.8491-5.1959c-4.2699-4.4905-13.897-16.438-17.859-22.164-3.6688-5.3019-5.5627-7.6911-9.8756-12.458-5.4424-6.0154-5.8093-6.5444-5.8093-8.3769 0-1.5584 0.01057-1.5748 0.88-1.367 1.5774 0.37707 1.8748 0.67626 6.873 6.915 6.5541 8.1807 9.2644 11.877 11.767 16.048 2.3219 3.8698 6.161 8.853 9.6727 12.555 3.2534 3.4299 9.4366 8.8613 10.99 9.6538 0.71497 0.36476 1.4509 0.85371 1.6354 1.0866 0.18448 0.23286 0.33835 1.5394 0.34194 2.9034 7e-3 2.6409-0.0614 2.7303-1.6887 2.2081zm119.75-2.111c-0.26087-2.7936 0.15339-3.8689 1.8154-4.7124 2.3184-1.1766 4.0662-2.5261 8.4894-6.5548 3.5585-3.2412 4.7951-4.6219 7.0551-7.8775 8.0242-11.559 13.627-19.272 17.771-24.464 3.8339-4.8035 4.7987-5.83 5.6572-6.0185 0.85008-0.18671 1.1397-0.098 1.6209 0.49621 0.99611 1.2301 0.76797 1.6009-4.599 7.4743-4.3512 4.7617-6.8263 7.9157-10.83 13.8-5.469 8.0385-13.442 17.71-20.233 24.543-1.7124 1.7229-3.2018 3.485-3.31 3.9159-0.13974 0.55675-0.48877 0.84198-1.2066 0.98607-0.55552 0.11151-1.2409 0.26699-1.5231 0.34553-0.4197 0.11679-0.54839-0.23515-0.70699-1.9335zm-71.431-15.223c-0.9526-0.35428-1.2896-0.8942-1.8938-3.0337-0.29819-1.056-1.2425-4.152-2.0985-6.88-4.2664-13.597-4.8353-15.918-5.4107-22.08-0.71003-7.6029-0.44443-9.3358 1.9398-12.656 1.1783-1.6408 2.0864-1.823 4.0471-0.81237 2.112 1.0886 3.1552 2.5156 4.5112 6.1707 1.8995 5.1204 4.1948 12.279 4.2058 13.117 7e-3 0.56237 0.0721 0.62472 0.26988 0.25988 0.14308-0.264 0.4318-2.3911 0.64159-4.7269 0.6791-7.5609 2.2227-14.486 4.2018-18.851l0.90877-2.0043 1.8641 0.63774c2.2791 0.7797 4.9214 2.55 6.1824 4.1422 1.7866 2.2558 2.5205 4.3142 4.3408 12.176 0.99672 4.3046 1.8801 7.9401 1.9631 8.0789 0.083 0.13874 1.1165-1.6613 2.2967-4 3.3884-6.7146 5.7877-10.149 8.313-11.899 1.1852-0.82138 1.3195-0.84563 2.3329-0.4214 1.7306 0.72442 3.3623 2.7821 3.772 4.7566 0.28996 1.3975 0.23556 2.6212-0.29657 6.6714-1.1871 9.0353-1.8336 11.672-4.3939 17.92-2.3906 5.8341-3.3037 6.7316-5.0608 4.9745-1.014-1.014-1.0902-2.8689-0.13884-3.3781 0.35564-0.19033 0.7667-0.27184 0.91348-0.18112 0.38177 0.23594 1.4486-1.0186 2.292-2.6953 0.93532-1.8594 2.3569-8.8931 3.2424-16.043l0.6989-5.6432-0.67247-1.5568c-0.36986-0.85621-0.86994-1.5976-1.1113-1.6476-1.7747-0.36748-9.4825 14.819-10.02 19.743-0.17291 1.5827-0.40907 2.2369-1.0326 2.8605l-0.80846 0.80846-0.69502-0.87164c-0.49748-0.6239-0.99219-2.3464-1.7406-6.0604-1.9099-9.4779-4.3353-17.827-5.8977-20.302-0.86233-1.366-3.2885-3.6069-3.9051-3.6069-0.68925 0-2.3392 4.2778-3.1474 8.16-1.4637 7.0313-1.8053 10.215-1.5124 14.093 0.14677 1.9432 0.15062 4.7512 9e-3 6.24-0.14206 1.4888-0.26735 2.8938-0.27842 3.1223-0.0293 0.6056-1.9738 1.349-2.6217 1.0023-0.37479-0.20058-1.0662-2.4698-2.3554-7.7308-2.3717-9.6785-3.0181-11.635-5.0415-15.259-1.8318-3.281-2.4654-3.9137-3.3616-3.3569-1.2722 0.79034-1.52 1.9849-1.52 7.3288 0 4.1606 0.14081 5.7796 0.75149 8.64 1.0348 4.847 2.6454 10.056 4.7498 15.36 2.5217 6.3566 2.7345 7.1206 2.3271 8.3553-0.38378 1.1629-0.81757 1.4288-1.7595 1.0784zm-44.513-8.5424c-2.0878-2.9418-4.6382-6.6498-5.6677-8.24s-2.554-3.6833-3.3877-4.6513c-0.83378-0.968-2.2793-2.84-3.2123-4.16s-2.1665-2.795-2.7412-3.2777c-2.0425-1.7157-9.184-11.694-10.254-14.327-0.92742-2.2824-0.94656-2.6192-0.18792-3.3058 1.4939-1.352 2.8842-0.15204 4.9475 4.2704 1.3855 2.9696 2.1114 3.9987 10.834 15.36 1.6891 2.2 4.4788 6.16 6.1994 8.8 2.3386 3.5882 3.7697 5.4059 5.6689 7.2 2.741 2.5894 3.4446 3.6188 3.4446 5.0401 0 0.50155 0.15613 1.068 0.34696 1.2589 0.40186 0.40186-0.7767 1.381-1.6622 1.381-0.32449 0-2.0172-2.0915-4.3288-5.3487zm108.26 4.4558c-0.46793-0.51706-0.47248-0.72571-0.0466-2.1407 0.57282-1.9033 1.0959-2.7292 3.0444-4.8064 0.82546-0.88 2.6212-3.184 3.9905-5.12 2.7482-3.8856 11.31-15.12 15.426-20.241 1.8862-2.3468 3.1386-4.3284 4.3988-6.96l1.7619-3.6791h2.6437l-0.14266 1.7203c-0.18607 2.2438-1.3868 4.646-4.0574 8.117-1.186 1.5415-2.6027 3.4506-3.1483 4.2426-0.54562 0.792-1.9536 2.448-3.129 3.68s-2.9624 3.32-3.9713 4.64c-1.719 2.249-9.8217 13.755-12.765 18.126-2.1301 3.1638-2.9078 3.6339-4.0053 2.4212zm-93.429-26.657c-1.3228-0.77003-10.835-21.588-13.684-29.947-1.0367-3.0422-0.86316-3.6614 1.0414-3.7154 1.4713-0.04171 2.0813 0.47684 2.5055 2.1298 0.18668 0.7275 1.4257 4.7067 2.7534 8.8427 2.7075 8.4347 5.0571 13.736 7.5784 17.1 0.93196 1.2432 1.9551 2.7062 2.2737 3.251 0.5517 0.94348 0.55278 1.0309 0.0226 1.84-0.58247 0.88896-1.5043 1.0737-2.4911 0.49929zm82.035-0.80876c-0.84491-1.0741-0.68261-1.6375 1.1034-3.8302 3.0074-3.6923 6.6857-11.925 9.3515-20.931 0.96381-3.256 1.9614-6.3273 2.2167-6.8252 0.90045-1.7554 3.9418-2.214 3.9418-0.59443 0 0.30681-0.66592 2.0657-1.4798 3.9087-0.81391 1.843-2.3823 5.7269-3.4853 8.6309-2.8762 7.5726-7.9967 18.681-9.0294 19.588-1.0981 0.96458-1.8896 0.98075-2.6189 0.0535zm-58.462-24.046c-0.3783-0.24994-3.9642-16.76-3.9642-18.251 0-1.8795 1.8133-3.0589 2.5595-1.6647 0.1881 0.35147 0.8421 3.1235 1.4533 6.16s1.5505 6.7389 2.0873 8.2274c1.0364 2.8742 1.0313 3.5642-0.0364 4.9215-0.66401 0.84415-1.413 1.0607-2.0996 0.60709zm38.935-3.8099c-0.73763-0.51666-1.794-2.3452-1.3548-2.3452 0.15426 0 0.60113-2.0533 0.99304-4.5629 0.39192-2.5096 1.0254-5.491 1.4078-6.6252 0.68787-2.0407 0.71135-2.0664 2.2344-2.4488l1.5392-0.38651-0.17163 0.85175c-0.45491 2.2575-1.7868 12.015-1.7868 13.09 0 2.1273-1.4874 3.3888-2.8611 2.4265zm-21.746-5.3963c-0.54623-0.62212-1.0036-1.4501-1.0163-1.84-0.0127-0.38988-0.13939-3.4449-0.28142-6.7889-0.28861-6.795-0.14102-7.52 1.5308-7.52 2.1787 0 2.5666 1.4813 2.5979 9.9207 0.0208 5.6113-9e-3 5.9048-0.67696 6.6156-0.38429 0.40906-0.80269 0.74374-0.92978 0.74374-0.12708 0-0.67798-0.50901-1.2242-1.1311z" fill="#18468d"/></svg>
