<?xml version="1.0" encoding="UTF-8"?>
<svg width="87.342" height="87.342" version="1.1" xmlns="http://www.w3.org/2000/svg"><path d="m10.552 83.742c0.99177-16.573 2.1591-26.795 3.7144-32.523 0.35283-1.2994 0.57819-2.4259 0.5008-2.5033-0.07739-0.07739-0.65821 0.0022-1.2907 0.17682-1.4119 0.38985-1.4028 0.47942-0.50765-5.007 1.0916-6.6905 2.0595-10.691 3.3731-13.941 0.22312-0.55202 0.11782-0.57971-1.4071-0.36997-1.9203 0.2641-1.8713 0.4018-1.1914-3.3534 0.67003-3.7007 2.1592-7.3179 3.7639-9.1424 0.56391-0.64116 0.56221-0.742-0.05318-3.1481-1.0439-4.0816-1.6054-7.8601-1.6065-10.81l-1e-3 -2.7804 1.5024-0.22529c2.1476-0.32205 8.8916 0.071937 11.046 0.64531 2.7853 0.74126 4.7545 1.7835 6.2252 3.2948l1.3337 1.3705 1.7063-0.39375c2.2111-0.51024 9.8516-0.50783 12.07 0.00381l1.7241 0.39756 1.0841-1.2666c1.2164-1.4211 3.4879-2.6364 6.3477-3.3962 2.418-0.64239 10.53-0.99506 11.76-0.51128 0.84783 0.3334 0.87995 0.43114 0.87871 2.674-0.0015 2.6388-0.683 7.2181-1.6219 10.897l-0.63523 2.4893 0.77339 1.0307c1.9056 2.5395 3.5161 7.0805 3.7704 10.631l0.1146 1.6-1.5621-0.10045c-1.403-0.09022-1.5374-0.04133-1.32 0.48 1.1226 2.6919 2.2534 7.4991 3.3734 14.34 0.7869 4.8069 0.79096 5.0912 0.06874 4.8118-0.308-0.11916-0.93855-0.29307-1.4012-0.38648l-0.84122-0.16984 0.58715 1.7392c1.5317 4.5371 2.7752 15.151 3.9746 33.925l0.19932 3.12h-66.669z" fill="#382d2b"/><path d="m54.718 15.023c-3.915-0.0341-7.7862 1.5663-8.7578 4.3477-0.5805 1.6618-0.25599 3.4904 0.73633 4.1406 1.0382 0.68027 1.5849 0.35622 2.4277-1.4434 0.82971-1.7715 2.6101-3.6442 3.9395-4.1445 0.77966-0.29343 1.0036-0.23079 1.7188 0.48438 0.71267 0.71267 0.80223 1.0269 0.67383 2.3633-0.08147 0.8479-0.45823 2.1388-0.83789 2.8672-0.92822 1.7808-0.88325 2.4598 0.18945 2.8516 1.1965 0.43702 3.8051 0.44495 5.3516 0.01563 1.6864-0.46819 3.5708-2.3745 3.8574-3.9023 0.31198-1.663-1.0181-4.3295-2.8223-5.6562-1.7621-1.2959-4.1275-1.9034-6.4766-1.9238zm-21.43 0.16992c-4.2455-0.0076-7.6414 1.4887-9.5547 4.2109-0.99456 1.4151-1.0016 2.4573-0.02344 3.4355 0.77039 0.77039 1.022 0.62853 1.877-1.0586 0.95645-1.8875 2.3834-3.3724 3.6738-3.8223 0.79422-0.27686 1.0935-0.22469 1.7715 0.30859 0.97014 0.76312 1.0842 2.5424 0.29492 4.5957-0.27061 0.704-0.57252 1.6258-0.67188 2.0488l-0.18164 0.76758 3.2637-0.17969c5.2418-0.28884 7.709-1.8906 7.709-5.0059 0-1.0479-0.22281-1.5584-1.1211-2.5527-1.6887-1.8692-3.9239-2.7425-7.0371-2.748zm9.709 10.389c-1.6957 0-1.9147 0.07777-2.1777 0.76953-0.16079 0.4229-0.44596 0.86303-0.63281 0.97852-0.18686 0.11548-0.33984 0.5303-0.33984 0.92188 0 0.51572 0.50701 1.0402 1.8398 1.9004 2.1937 1.4158 2.866 1.4827 3.3027 0.33398 0.1789-0.47054 0.66859-1.1741 1.0898-1.5645 1.6245-1.5056-0.06725-3.3398-3.082-3.3398zm-16.412 3.2305c-0.37554-0.0038-0.75459 0.0011-1.1172 0.01758-3.5021 0.15904-3.5832 0.27194-3.3535 4.7246 0.31571 6.1212 0.63687 7.6057 2.0254 9.3496 0.87552 1.0996 1.2949 1.9914 1.4473 3.0742 0.11796 0.8386 0.51054 2.6038 0.87109 3.9238 0.74094 2.7126 0.79454 4.8132 0.23828 9.2324-0.46222 3.6722-0.20255 13.248 0.49805 18.408 0.43282 3.188 1.0593 5 1.7305 5 0.37272 0 1.1337-0.96636 1.5742-2 0.20626-0.484 0.5185-0.88086 0.69531-0.88086s0.68768 0.72124 1.1348 1.6035l0.8125 1.6055 22.227-0.16796 0.08398-0.80078c0.16114-1.5337 0.7484-3.2178 1.0566-3.0273 0.17076 0.10554 0.66976 0.90199 1.1094 1.7695 0.43962 0.86754 0.99085 1.5781 1.2246 1.5781 0.78313 0 1.4833-1.1569 1.8555-3.0664 0.39074-2.0046 0.53604-15.082 0.26562-23.975l-0.15625-5.1191 1.8262-5.2793c2.0691-5.9819 2.8865-9.8506 2.748-12.998l-0.09375-2.1641-1.1211-0.29492c-1.5318-0.40343-5.9959-0.03182-6.9238 0.57617-0.41316 0.27071-1.1044 1.191-1.5371 2.0449-0.91403 1.8038-2.2424 3.0224-3.8848 3.5645-1.6206 0.53485-3.0079 0.22689-4.9863-1.1055-2.2552-1.5188-3.9076-1.5455-7.0938-0.11328-2.7938 1.2559-5.1825 1.412-6.3027 0.41016-0.39358-0.352-1.2191-1.6848-1.8359-2.9609-0.98924-2.0467-1.2626-2.3618-2.3105-2.6758-0.49003-0.14681-1.5804-0.24263-2.707-0.25391zm17.145 5.7305c1.1298 0 1.877 1.0471 1.877 2.6309 0 1.4551 0.31258 1.5083 2.4512 0.41992 1.2076-0.61454 1.7923-0.73531 2.6465-0.55078 0.60284 0.13023 1.1494 0.39738 1.2148 0.59375 0.20103 0.6031-3.0267 4.1876-4.5996 5.1094-3.2086 1.8804-7.6624 0.98682-10.447-2.0957-2.6678-2.9529-1.5331-5.0043 1.748-3.1602 1.4901 0.8375 2.1198 0.59914 2.6602-1.0059 0.42985-1.2767 1.2686-1.9414 2.4492-1.9414z" fill="#d09e29"/></svg>
