<?xml version="1.0" encoding="UTF-8"?>
<svg width="87.36" height="87.36" version="1.1" viewBox="0 0 87.36 87.36" xmlns="http://www.w3.org/2000/svg"><path d="m10.366 85.68c0.09462-0.924 0.25705-3.408 0.36097-5.52 0.61561-12.512 2.3165-25.942 3.828-30.226 0.26679-0.75615 0.48506-1.4134 0.48506-1.4606 0-0.04716-0.58117 0.06178-1.2915 0.24207-0.71032 0.1803-1.3669 0.25244-1.459 0.16031-0.50917-0.50917 2.5852-15.956 3.5857-17.9 0.69004-1.3406 0.55764-1.5359-1.0415-1.5359h-1.4863l0.18699-2.0024c0.26984-2.8896 1.6186-6.8581 3.1206-9.1821l1.3019-2.0143-0.81075-3.4006c-1.3755-5.7694-1.8753-11.058-1.1529-12.201 0.24953-0.39455 1.1458-0.47265 5.0351-0.43871 6.9948 0.061044 11.003 1.2882 13.501 4.1331l1.0175 1.1589 2.3064-0.39673c3.0061-0.51708 8.4576-0.51372 11.195 0.0069l2.169 0.41245 1.6791-1.588c1.7645-1.6688 3.6864-2.5657 7.1029-3.3149 2.128-0.46659 10.513-0.60766 10.933-0.18393 0.39536 0.39883 0.26892 6.1594-0.18374 8.371-0.21613 1.056-0.69311 3.1767-1.0599 4.7126l-0.66697 2.7926 0.83197 1.2074c1.9911 2.8896 3.724 7.9347 3.7398 10.887 0.0055 1.0338-0.0038 1.04-1.5764 1.04h-1.582l0.59798 1.36c0.32889 0.748 0.90734 2.5773 1.2854 4.0651 0.8086 3.1818 2.6388 13.803 2.4167 14.025-0.08423 0.08423-0.74488 3e-3 -1.4681-0.18062-1.1726-0.29763-1.2921-0.27617-1.1041 0.19816 1.5496 3.9101 3.21 16.207 3.9822 29.492 0.18925 3.256 0.39268 6.604 0.45205 7.44l0.10796 1.52h-66.512z" fill="#d09e29"/><path d="m10.366 85.68c0.09462-0.924 0.25705-3.408 0.36097-5.52 0.61561-12.512 2.3165-25.942 3.828-30.226 0.26679-0.75615 0.48506-1.4134 0.48506-1.4606 0-0.04716-0.58117 0.06178-1.2915 0.24207-0.71032 0.1803-1.3669 0.25244-1.459 0.16031-0.50917-0.50917 2.5852-15.956 3.5857-17.9 0.69004-1.3406 0.55764-1.5359-1.0415-1.5359h-1.4863l0.18699-2.0024c0.26984-2.8896 1.6186-6.8581 3.1206-9.1821l1.3019-2.0143-0.81075-3.4006c-1.3755-5.7694-1.8753-11.058-1.1529-12.201 0.24953-0.39455 1.1458-0.47265 5.0351-0.43871 6.9948 0.061044 11.003 1.2882 13.501 4.1331l1.0175 1.1589 2.3064-0.39673c3.0061-0.51708 8.4576-0.51372 11.195 0.0069l2.169 0.41245 1.6791-1.588c1.7645-1.6688 3.6864-2.5657 7.1029-3.3149 2.128-0.46659 10.513-0.60766 10.933-0.18393 0.39536 0.39883 0.26892 6.1594-0.18374 8.371-0.21613 1.056-0.69311 3.1767-1.0599 4.7126l-0.66697 2.7926 0.83197 1.2074c1.9911 2.8896 3.724 7.9347 3.7398 10.887 0.0055 1.0338-0.0038 1.04-1.5764 1.04h-1.582l0.59798 1.36c0.32889 0.748 0.90734 2.5773 1.2854 4.0651 0.8086 3.1818 2.6388 13.803 2.4167 14.025-0.08423 0.08423-0.74488 3e-3 -1.4681-0.18062-1.1726-0.29763-1.2921-0.27617-1.1041 0.19816 1.5496 3.9101 3.21 16.207 3.9822 29.492 0.18925 3.256 0.39268 6.604 0.45205 7.44l0.10796 1.52h-66.512zm44.918-3.76c0.16114-1.5337 0.74941-3.2171 1.0576-3.0266 0.17076 0.10554 0.67016 0.90169 1.1098 1.7692 0.43962 0.86754 0.99056 1.5774 1.2243 1.5774 0.78313 0 1.483-1.1567 1.8552-3.0662 0.39074-2.0046 0.53513-15.081 0.26471-23.974l-0.1557-5.12 1.8263-5.28c2.0691-5.9819 2.8873-9.8507 2.7488-12.998l-0.095136-2.1633-1.12-0.29496c-1.5318-0.40343-5.9959-0.03217-6.9239 0.57582-0.41316 0.27071-1.1052 1.1909-1.5379 2.0448-0.91403 1.8038-2.2424 3.0226-3.8847 3.5647-1.6206 0.53485-3.0081 0.22742-4.9865-1.1049-2.2552-1.5188-3.9072-1.545-7.0934-0.11278-2.7938 1.2559-5.1818 1.4108-6.302 0.40898-0.39358-0.352-1.2202-1.6841-1.837-2.9602-0.98924-2.0467-1.2615-2.3621-2.3094-2.6761-0.65337-0.19576-2.3746-0.30203-3.825-0.23616-3.5021 0.15904-3.5825 0.27235-3.3529 4.725 0.31571 6.1212 0.63739 7.6058 2.0259 9.3497 0.87552 1.0996 1.2949 1.9901 1.4472 3.073 0.11796 0.8386 0.50948 2.6047 0.87003 3.9247 0.74094 2.7126 0.79533 4.8129 0.23908 9.2322-0.46223 3.6722-0.20381 13.248 0.49679 18.408 0.43282 3.188 1.0603 5 1.7315 5 0.37272 0 1.133-0.96636 1.5735-2 0.20626-0.484 0.51968-0.88 0.69648-0.88s0.68726 0.72186 1.1343 1.6041l0.81288 1.6041 22.225-0.16828zm-14.164-38.511c-2.0725-0.68307-3.1754-1.3675-4.4159-2.7406-2.6678-2.9529-1.5325-5.0048 1.7487-3.1607 1.4901 0.8375 2.1192 0.59971 2.6596-1.0053 0.42985-1.2767 1.2701-1.9428 2.4507-1.9428 1.1298 0 1.877 1.0475 1.877 2.6312 0 1.4551 0.31187 1.5086 2.4505 0.42024 1.2076-0.61455 1.7914-0.73631 2.6456-0.55178 0.60284 0.13023 1.1496 0.39745 1.2151 0.59382 0.20103 0.6031-3.0253 4.1892-4.5983 5.111-1.743 1.0215-4.1196 1.2755-6.0329 0.64491zm3.7011-12.905c0.1789-0.47054 0.66993-1.175 1.0912-1.5654 1.6245-1.5056-0.068582-3.3391-3.0834-3.3391-1.6957 0-1.9141 0.07715-2.1771 0.76892-0.16079 0.4229-0.44522 0.8634-0.63208 0.97888-0.18686 0.11548-0.33974 0.53035-0.33974 0.92193 0 0.51572 0.50717 1.0393 1.84 1.8995 2.1937 1.4158 2.8644 1.4839 3.3011 0.33524zm15.172-3.9814c1.6864-0.46819 3.5702-2.3739 3.8568-3.9018 0.31198-1.663-1.0185-4.3289-2.8227-5.6557-4.699-3.4557-13.68-2.0274-15.235 2.4228-0.5805 1.6618-0.25467 3.4911 0.73765 4.1413 1.0382 0.68027 1.5849 0.355 2.4277-1.4446 0.82971-1.7715 2.6093-3.644 3.9387-4.1443 0.77966-0.29343 1.0032-0.23035 1.7184 0.48482 0.71267 0.71267 0.80242 1.0274 0.67401 2.3638-0.08147 0.8479-0.45876 2.1376-0.83842 2.866-0.92822 1.7808-0.88299 2.4609 0.18971 2.8527 1.1965 0.43701 3.8064 0.44433 5.3528 0.01501zm-21.493-1.9994c1.9434-0.95082 2.7806-2.1588 2.7806-4.0121 0-1.0479-0.22439-1.5581-1.1227-2.5524-1.6887-1.8692-3.9241-2.742-7.0373-2.7475-4.2455-0.0076-7.6399 1.4887-9.5532 4.2109-0.99457 1.4151-1.0017 2.4568-0.02348 3.435 0.77039 0.77039 1.022 0.62848 1.8769-1.0586 0.95645-1.8875 2.3838-3.3723 3.6742-3.8221 0.79422-0.27687 1.0923-0.22495 1.7703 0.30834 0.97014 0.76312 1.0844 2.5415 0.29514 4.5948-0.2706 0.704-0.5733 1.6261-0.67265 2.0491l-0.18064 0.7691 3.2636-0.17984c2.6038-0.14348 3.6004-0.34458 4.9292-0.99473z" fill="#372d2b"/></svg>
