<?xml version="1.0" encoding="UTF-8"?>
<svg width="371" height="371" version="1.1" viewBox="0 0 371 371" xmlns="http://www.w3.org/2000/svg"><path d="m69.087 354.75c3.3177-19.159 19.352-99.514 24.295-121.75 1.8949-8.525 5.577-22.25 8.1826-30.5 2.6055-8.25 4.9533-16.289 5.2172-17.865 0.44348-2.648-2.9243-6.2702-44.396-47.75l-44.876-44.885 29.496-0.0508c28.892-0.04977 72.349-1.9694 73.633-3.2527 0.35652-0.35652 0.16584-1.2216-0.42372-1.9224-0.58957-0.7008-23.794-17.024-51.565-36.274l-50.493-35 4.6726-0.29227c2.5699-0.16075 25.373 0.87968 50.673 2.3121s50.725 2.8529 56.5 3.1567l10.5 0.55233 3.9112-3.1333c14.5-11.616 35.349-17.26 63.589-17.216 23.305 0.03675 40.751 3.9766 60.5 13.663 29.936 14.683 48.338 37.265 54.97 67.457 2.2465 10.227 3.0708 33.287 1.6291 45.573-1.4899 12.696-5.3502 30.035-9.6898 43.522-1.875 5.8273-3.4091 12.125-3.4091 13.995s3.1245 11.727 6.9433 21.905c12.396 33.037 21.912 68.637 27.535 103.01 2.0638 12.614 4.5961 34.072 6.8153 57.75l0.3046 3.25h-287.33z" fill="#512e90"/><path d="m218.98 40c-21.804 0-39.13 13.491-45.51 35.438-2.3934 8.2331-1.7031 22.41 1.3809 28.354 4.9225 9.4874 16.974 17.48 31.932 21.178 14.703 3.6351 33.496 0.0334 47.053-9.0195 12.283-8.2024 17.083-20.994 13.783-36.725-1.7899-8.5316-5.0894-15.007-11.221-22.016-9.6044-10.979-23.151-17.209-37.418-17.209zm-2.6856 9.668c6.8567-0.04808 14.118 1.7852 21.668 5.4941 16.594 8.152 26.02 27.108 20.572 41.373-1.8056 4.7277-9.4054 12.224-15.164 14.957-3.5458 1.6826-15.189 1.8138-33.871 0.38281-9.676-0.74116-11.473-1.1757-14.969-3.6328-5.2444-3.6859-10.21-10.323-11.607-15.512-3.959-14.702 4.3847-32.863 18.164-39.533 4.7861-2.3169 9.8741-3.4919 15.207-3.5293z" fill="#fefefe"/></svg>
