<?xml version="1.0" encoding="UTF-8"?>
<svg width="104.64" height="104.64" version="1.1" viewBox="0 0 104.64 104.64" xmlns="http://www.w3.org/2000/svg"><path d="m17.606 103.6c0.0098-1.7365 0.89452-7.4145 1.7728-11.377 1.5818-7.1373 3.9956-13.22 6.8741-17.324 0.69702-0.99367 1.2673-1.9039 1.2673-2.0228s-0.64786-1.2176-1.4397-2.4417c-2.3124-3.5746-4.0379-7.3812-3.932-8.6744 0.07906-0.96568 0.21669-1.1343 0.99886-1.2239 0.49894-0.05713 1.4889 0.12889 2.1999 0.41339s1.3308 0.47524 1.3773 0.42388c0.04647-0.05137-0.56894-1.2126-1.3676-2.5805-1.6446-2.8169-2.1397-5.2104-1.2331-5.9628 0.51532-0.42767 3.4005-0.3498 5.3947 0.14562l0.87837 0.2182-0.61692-1.397c-2.1589-4.8888-3.0869-17.885-2.259-31.637 0.44288-7.3561 1.6207-19.302 1.9368-19.644 0.58679-0.63461 6.3815 4.1566 9.3757 7.7521 6.3362 7.6085 10.512 17.012 13.024 29.332l0.39153 1.92 0.8933-4.0618c2.7411-12.463 7.774-22.485 14.842-29.554 3.013-3.0133 6.6917-5.8946 7.0582-5.5282 0.46761 0.46761 1.6493 13.457 2.1005 23.088 0.55432 11.833-0.23154 22.158-2.0943 27.514l-0.76686 2.2051 0.699-0.21241c0.38445-0.11683 1.6433-0.29252 2.7975-0.39043 2.3811-0.20199 3.1839 0.24304 3.1783 1.762-0.0037 1.0112-1.2161 3.7202-2.5487 5.6947-1.0377 1.5375-0.96015 1.6338 0.7425 0.92243 1.6634-0.69499 2.9995-0.62717 3.251 0.16502 0.38381 1.2093-1.2198 4.8964-4.0552 9.324l-1.5683 2.449 1.4118 2.031c4.1736 6.0041 7.4322 16.395 8.6906 27.711l0.2224 2h-69.503z" fill="#944a2c"/><path d="m47.224 82.21c-0.45831-0.54468-1.0831-1.8405-1.3884-2.8796l-0.55515-1.8892-1.97-4.44e-4c-1.7727-3.99e-4 -1.9542-0.06089-1.8122-0.60399 0.23562-0.90101 1.6758-1.0321 12.784-1.164 10.86-0.12894 11.477-0.04597 10.684 1.4369-0.37474 0.7002-0.51853 0.72826-2.7605 0.53875l-2.3652-0.19993-0.0047 1.6759c-0.006019 2.1321-0.56127 3.2759-1.5903 3.2759-0.91478 0-1.2052-0.7603-1.2531-3.28l-0.031897-1.68h-7.3518l0.20216 2.3915c0.21512 2.5449-0.073667 3.3685-1.1811 3.3685-0.3148 0-0.94736-0.44564-1.4057-0.99032zm11.413-10.29c-0.17697-0.22-0.79034-1.336-1.363-2.48-1.3389-2.6746-4.8858-8.3091-5.1775-8.2247-0.63736 0.18432-3.3035 4.1858-4.7427 7.1181-0.90052 1.8348-1.7522 3.407-1.8926 3.4937-0.46948 0.29016-1.3667-1.0325-1.1697-1.7242 0.60074-2.1089 0.65385-1.9667-0.51478-1.3784-1.5183 0.76434-5.0496 0.66097-7.3421-0.21491-2.1877-0.83585-4.3847-3.0405-5.2264-5.2445-1.3273-3.4755 0.12385-8.9226 2.8961-10.871 1.848-1.2988 4.8118-1.7596 7.256-1.128 1.012 0.26148 1.8386 0.38961 1.8369 0.28474-0.0053-0.32585-2.2367-3.0426-2.9541-3.5966-0.6542-0.50524-0.6595-0.55881-0.13454-1.36 1.2206-1.8629 3.448-0.5887 5.7921 3.3133 1.3682 2.2776 1.6651 3.2126 1.0201 3.2126-0.82522 0-0.83036 0.46246-0.02329 2.0991 0.95715 1.9409 1.5386 4.9377 1.3312 6.8609-0.12579 1.1664-0.08624 1.3282 0.20819 0.8516 3.1821-5.1512 3.712-5.5022 5.2169-3.4558l0.93379 1.2698 0.01957-2.1373c0.02325-2.539 1.2589-5.4339 2.8234-6.6146 2.1622-1.6319 6.7952-2.3981 9.5891-1.5859 3.4072 0.99049 6.2608 4.5807 6.2608 7.8768 0 2.172-1.4132 5.7332-2.9828 7.5163-1.7262 1.9611-3.3205 2.6632-6.0675 2.6721-2.4765 8e-3 -3.7906-0.44646-5.4152-1.8729-0.62643-0.55002-1.2294-1-1.3399-1-0.11053 0 0.45784 1.3118 1.263 2.915 0.8052 1.6033 1.3872 3.1153 1.2933 3.36-0.21235 0.55338-0.96573 0.57769-1.3942 0.04498zm-15.508-4.443c1.4491-0.70151 2.5119-1.9331 2.1598-2.5029-0.11356-0.18374-0.59397-0.33578-1.0676-0.33787s-1.6531-0.21283-2.6211-0.46831c-6.0711-1.6023-4.6063-8.6669 1.8211-8.7835 1.7049-0.03095 1.8943-0.35825 0.80751-1.395-1.231-1.1743-2.3404-1.5101-4.9695-1.5041-3.6936 0.0085-5.5583 1.3943-6.466 4.8053-0.60493 2.2732-0.59262 3.6748 0.04927 5.6124 0.61132 1.8454 1.6592 3.0767 3.5838 4.2113 2.55 1.5033 4.1657 1.5907 6.7027 0.36263zm24.168-1.8699c1.9169-1.2156 1.934-1.7809 0.06163-2.0376-1.7392-0.23838-3.8586-1.2692-4.2981-2.0904-0.57792-1.0799-0.7432-3.14-0.34798-4.3375 0.52812-1.6002 1.5857-2.1934 4.286-2.4038 1.2546-0.09775 2.2684-0.32172 2.2529-0.49772s-0.72423-0.752-1.5749-1.28c-1.3633-0.84617-1.8342-0.95999-3.9718-0.95995-2.0867 4.2e-5 -2.6628 0.13173-4.1286 0.94368-2.239 1.2402-3.0316 2.3921-3.1896 4.6353-0.25277 3.5889 2.488 8.1375 5.2197 8.6626 2.7227 0.52333 4.1087 0.36878 5.6908-0.63459zm-13.162-15.148c-0.94656-1.0076-0.87697-1.566 0.34422-2.7621 1.729-1.6935 7.28-4.0355 7.28-3.0715 0 0.22781 0.08806 0.85452 0.1957 1.3927 0.19074 0.95372 0.1313 1.0109-2.3495 2.2582-1.3999 0.70385-2.9847 1.6495-3.5219 2.1015-0.53716 0.45199-1.0388 0.8218-1.1147 0.8218-0.07591 0-0.45113-0.33328-0.83381-0.74062zm-16.216-9.9623c-2.2714-1.2288-2.5713-1.4972-2.6603-2.381-0.055151-0.54784 0.010593-0.99608 0.1461-0.99608s1.0541 0.5666 2.0414 1.2591c0.98725 0.69252 2.1815 1.3561 2.6539 1.4747 0.68415 0.17171 0.8589 0.40384 0.8589 1.1409 0 0.50892-0.108 0.91676-0.24 0.9063-0.132-0.01046-1.392-0.64222-2.8-1.4039zm24.614 0.11403c-0.59438-0.65678-0.59383-0.67746 0.0304-1.1408 0.68447-0.50807 5.0484-2.6703 5.3893-2.6703 0.11353 0 0.20642 0.47938 0.20642 1.0653 0 0.966-0.15008 1.1356-1.6102 1.8195-0.88559 0.41479-1.7672 0.9434-1.9592 1.1747-0.51192 0.61683-1.3673 0.51354-2.0568-0.24836zm0.39949-3.7044c-0.60205-0.60205 0.01252-1.4503 2.2425-3.0952 2.7402-2.0213 3.4248-2.2435 3.1156-1.0115-0.13625 0.54287-0.06845 0.8 0.21096 0.8 0.22646 0-0.7261 0.792-2.1168 1.76-2.4843 1.7292-3.0267 1.9722-3.4522 1.5467zm-25.565-2.8254c-2.3893-1.6029-3.0481-2.4441-2.3607-3.0145 0.59551-0.49423 1.5957-0.06958 3.6375 1.5444 1.2125 0.95841 1.6747 1.5425 1.6747 2.1163 0 1.1094-0.4965 1.0007-2.9515-0.64617zm26.631-4.1099c0-0.4761 0.70437-1.4953 1.9351-2.8 1.8466-1.9576 1.9563-2.023 2.4-1.4302 0.74189 0.99123 0.57451 1.3833-1.3751 3.2211-2.0116 1.8962-2.96 2.2196-2.96 1.0092zm-26.681-2.2624c-1.6228-1.8996-1.9915-3.389-0.83887-3.389 0.352 0 0.64 0.16994 0.64 0.37764s0.65401 0.98668 1.4534 1.7311c1.2228 1.1387 1.4204 1.4849 1.2453 2.1824-0.30693 1.2229-0.85259 1.026-2.4998-0.9021z" fill="#0c0a08"/></svg>
