<?xml version="1.0" encoding="UTF-8"?>
<svg width="408" height="408" version="1.1" viewBox="0 0 408 408" xmlns="http://www.w3.org/2000/svg"><path d="m221.42 407.25-158.08-0.25618 0.85192-6.7469c9.7953-77.576 23.399-147.22 36.499-186.86l4.6637-14.112-12.465-13.888c-34.998-38.995-59.46-71.29-69.468-91.713-5.0184-10.242-5.9366-14.887-4.5814-23.176 1.9269-11.785 4.7615-17.325 13.081-25.566 6.2644-6.205 9.5275-8.4931 18.142-12.721 18.685-9.1708 41.161-15.278 75.934-20.632 48.982-7.5425 104.96-11.562 161-11.561 48.366 6.529e-4 60.564 1.5129 72.315 8.9653 9.6225 6.1024 8.9652 10.511-2.8374 19.032-9.6798 6.9879-13.478 11.777-13.478 16.994v3.5464l7.008 1.8053c12.666 3.2628 22.684 9.5457 24.425 15.318 0.5266 1.7459-0.71099 3.6821-6.2086 9.713-8.0704 8.8533-11.696 15.1-13.017 22.426l-0.95927 5.3195 4.9986 2.6805c11.632 6.2376 17.594 12.698 16.337 17.703-0.38691 1.5416-3.2835 4.4186-7.6362 7.5845-11.26 8.1897-11.133 7.7362-12.248 43.893l-0.93991 30.5 6.1378 18.899c16.508 50.828 26.039 106.85 27.79 163.35l0.62739 20.25-4.9073-0.24689c-2.699-0.13579-76.043-0.36218-162.99-0.50308z" fill="#ddd864"/><path d="m68.744 122.57c-2.0655-0.73709-5.7478-2.9727-8.1829-4.9681-8.4745-6.9442-20.562-22.97-20.562-27.262 0-3.1002 4.1965-7.3423 7.2634-7.3423 3.1218 0 4.4432 1.2027 10.539 9.5924 6.4444 8.8695 14.975 17.03 16.358 15.647 1.3515-1.3515 2.7867-7.8588 2.8158-12.767 0.02838-4.7903 2.0268-8.0054 5.521-8.8824 3.4235-0.85925 5.0423 0.15628 13.112 8.2261 7.3923 7.3923 15.416 12.184 20.403 12.184 4.0804 0 7.4083-3.4453 11.018-11.407 4.0685-8.9729 6.7285-9.6146 17.077-4.1196 8.2922 4.4032 18.658 6.8838 25.077 6.001 5.9556-0.81911 10.236-3.6512 14.318-9.4747 1.7352-2.475 4.1882-5.0195 5.4511-5.6545 3.3117-1.665 7.5723 0.09526 9.0881 3.7547 1.6568 4-0.88153 9.6446-7.1611 15.924-10.845 10.845-26.383 13.055-44.758 6.3655-7.1267-2.5944-7.4133-2.6215-8.4334-0.79884-0.58076 1.0378-3.0668 4.0366-5.5246 6.6642-5.2408 5.6029-12.589 8.3582-19.518 7.3191-5.2531-0.78775-13.751-4.6966-18.656-8.5818-2.078-1.6458-4.0022-2.9924-4.2759-2.9924-0.27373 0-0.77134 1.0903-1.1058 2.4229-1.3579 5.4104-9.1228 11.661-14.327 11.533-0.98017-0.0241-3.4721-0.64697-5.5376-1.3841zm150.97-6.1876c-1.2296-1.2296-0.77555-19.423 0.7348-29.442 3.3893-22.484 12.873-37.752 27.825-44.8 7.907-3.7269 14.742-5.1429 24.824-5.1429 27.831 0 49.306 15.289 56.256 40.052 1.4101 5.0239 5.984 36.939 5.3805 37.542-0.14592 0.14591-18.484 0.52649-40.752 0.84573-22.268 0.31924-47.926 0.82375-57.019 1.1211-9.0927 0.29737-16.855 0.21769-17.25-0.17708zm37.613-21.276c1.9125-18.298 13.721-30.561 25.922-26.92 7.9185 2.3632 15.533 13.001 17.383 24.285 1.3308 8.1176 0.58813 7.5258 9.4446 7.5258h8.0422l-0.635-4.75c-2.2199-16.606-4.7595-23.335-11.611-30.768-8.2376-8.9368-20.887-13.164-36.66-12.25-10.144 0.5874-16.592 3.1447-22.286 8.8388-6.3544 6.3544-10.995 18.698-12.474 33.18l-0.6893 6.75h22.948zm-160.99-19.657c-1.1037-2.8761 0.47725-9.6277 3.3377-14.254 3.0298-4.9005 8.3844-8.7705 10.834-7.8303 1.7563 0.67395 1.9846 6.1691 0.42868 10.317-3.3354 8.8926-12.782 16.506-14.601 11.767z" fill="#040402"/></svg>
