<?xml version="1.0" encoding="UTF-8"?>
<svg width="71.68" height="71.68" version="1.1" viewBox="0 0 71.68 71.68" xmlns="http://www.w3.org/2000/svg"><path d="m4.5837 69.36c0.095172-0.396 1.4795-7.56 3.0763-15.92s2.9585-15.442 3.0261-15.738c0.085673-0.37552-0.52-0.95377-2.0016-1.9109-4.6015-2.9728-8.0205-7.4561-8.5408-11.2-0.25864-1.8607 0.49698-4.6472 1.827-6.7372 1.1428-1.7958 4.4488-4.9551 6.8617-6.5572 1.185-0.78679 2.0422-1.6882 2.7018-2.8411 0.53141-0.92881 1.5955-2.3887 2.3646-3.2441 3.8408-4.2719 8.5907-4.5842 13.616-0.89528l1.5311 1.124h6.9164 6.9164l1.5572-1.1187c3.809-2.7365 7.093-3.2631 10.357-1.661 2.0668 1.0145 4.2517 3.3009 5.5816 5.8411 0.64851 1.2386 1.3257 1.9359 2.8006 2.8838 2.6097 1.6772 6.2114 5.3358 7.357 7.4733 1.193 2.2257 1.4898 5.5539 0.70454 7.9002-0.99997 2.9879-4.1625 6.4829-8.4563 9.3452-1.3403 0.89349-1.6662 1.2732-1.5401 1.7947 0.08794 0.36378 1.4642 7.5014 3.0583 15.861s2.9577 15.452 3.0301 15.76c0.1248 0.53044-1.5326 0.56-31.393 0.56h-31.525z" fill="#af9831"/><path d="m41.21 29.903c-0.10164-0.10164-7.996-0.28347-17.543-0.40408-16.154-0.20408-17.383-0.25877-17.713-0.7884-0.27426-0.44031-0.24585-0.64016 0.12552-0.88304 0.66746-0.43654 38.005-0.0894 53.12 0.49387 1.848 0.07131 3.622 0.1361 3.9423 0.14397 0.4178 0.01027 0.55337 0.21768 0.48 0.73431l-0.10226 0.72-11.063 0.084081c-6.0844 0.04624-11.146 9.24e-4 -11.247-0.10071zm7.2221-5.2652c-2.5536-0.35346-4.2637-1.2496-5.6777-2.9753-2.0657-2.5209-2.5027-4.4608-1.7723-7.8668 0.41183-1.9203 2.2612-3.8182 4.4766-4.5942 5.2595-1.8422 7.912-1.9371 11.063-0.39567 3.3207 1.6247 4.7252 4.9112 3.9604 9.2677-0.35722 2.0349-0.53552 2.3835-1.8964 3.7077-2.695 2.6224-5.7124 3.4713-10.153 2.8566zm6.8101-2.9043c2.0158-1.2459 3.6377-4.0901 3.6377-6.3795 0-2.2254-1.2205-3.799-4.0602-5.2346-2.3321-1.179-7.7268-0.36934-9.388 1.4089-0.47214 0.50543-1.1007 1.7823-1.3968 2.8376-0.47243 1.6837-0.48322 2.0505-0.08817 2.996 0.38082 0.91144 1.9879 2.4881 4.4551 4.3706 1.4548 1.1101 5.045 1.1106 6.8403 1e-3zm-5.5557-2.2023c-2.4029-1.0908-3.3675-3.8088-1.9784-5.5748 1.4202-1.8055 3.7224-2.3026 5.2175-1.1265 1.7664 1.3894 2.6706 4.5265 1.6909 5.8664-0.38458 0.52595-2.4734 1.457-3.2567 1.4515-0.176-0.0012-0.92902-0.27868-1.6734-0.61658zm-35.989 3.6839c-3.3238-0.89166-4.4913-1.6528-5.1816-3.3778-0.58885-1.4717-0.68193-4.9888-0.17987-6.7966 0.45754-1.6475 2.1916-3.2253 5.1996-4.7308 2.1335-1.0678 2.8508-1.27 4.5009-1.2685 2.8189 0.00256 4.0943 0.4589 5.9531 2.1301 2.8425 2.5557 3.8449 5.7129 2.7359 8.6169-0.82256 2.1539-3.7696 5.0441-5.606 5.498-2.9088 0.71896-4.5345 0.70334-7.422-0.07128zm7.2929-2.1915c1.2721-0.66157 2.1475-1.6821 3.1338-3.6534 1.1574-2.3131 1.1136-3.9114-0.14659-5.3467-1.1086-1.2626-3.6878-2.5954-5.5319-2.8586-1.0378-0.14811-1.2598-0.076736-1.3973 0.44928-0.10823 0.41387-0.43901 0.62536-0.9781 0.62536-1.4487 0-3.4637 1.4554-4.2426 3.0645-1.7138 3.5403-0.936 6.103 2.4118 7.9463 1.1845 0.65217 5.3285 0.513 6.7509-0.22672zm-5.1762-1.9581c-1.2502-0.54436-2.0562-2.2094-2.0498-4.2343 0.0055-1.7259 0.12614-1.9899 1.2663-2.7702 1.5655-1.0714 5.9466-0.28748 6.5034 1.1636 0.19507 0.50835-0.22828 4.2282-0.58086 5.1038-0.12599 0.31289-0.49066 0.70889-0.81038 0.88-0.82361 0.44078-3.1657 0.36343-4.3287-0.14296zm18.959-0.07926c-0.11733-0.11733-0.21333-0.66453-0.21333-1.216 0-1.7893 1.3683-2.4217 1.947-0.89974 0.2284 0.60074 0.22807 1.0971-0.0011 1.6-0.31524 0.69189-1.2717 0.9766-1.7326 0.51574zm-3.9161-0.88357c-0.27494-1.0955 0.11928-2.1031 0.8228-2.1031s1.0977 1.0076 0.8228 2.1031c-0.12356 0.49228-0.42499 0.7769-0.8228 0.7769s-0.69924-0.28462-0.8228-0.7769z" fill="#090907"/></svg>
