<?xml version="1.0" encoding="UTF-8"?>
<svg width="380" height="380" version="1.1" viewBox="0 0 380 380" xmlns="http://www.w3.org/2000/svg"><path d="m234 371.95c-27.225-0.36698-75.052-0.72978-106.28-0.80621-44.43-0.10874-56.874-0.41088-57.209-1.389-1.404-4.1001-2.2016-48.54-1.4314-79.75 1.5637-63.361 3.2917-84.076 8.5922-103 4.4344-15.832 4.6942-15.104-8.17-22.869-28.889-17.437-50.42-39.162-61.08-61.631-9.6167-20.269-10.8-38.532-3.9082-60.347 3.8194-12.091 10.491-17.133 22.689-17.147 11.173-0.01325 21.293 3.7546 44.378 16.522 8.6663 4.793 17.304 9.3612 19.196 10.152 10.092 4.2167 22.301-0.16699 64.725-23.24 30.877-16.793 43.636-20.803 66-20.743 13.521 0.036068 21.87 1.3782 33.639 5.4074 43.34 14.839 81.859 62.387 103.2 127.4 17.824 54.285 21.652 86.68 21.655 183.25l0.00151 49.25-48.25-0.19379c-26.538-0.10659-70.525-0.49405-97.75-0.86103z" fill="#edc1a3"/><path d="m176 237c0-4.7558-0.43407-6.4341-2.0934-8.0934-1.8872-1.8872-2.9952-2.0546-11.25-1.6997-5.0362 0.21649-24.553 2.1496-43.371 4.2957-18.818 2.1461-34.53 3.5859-34.917 3.1995-0.38641-0.38641 1.4006-17.915 3.9712-38.952 2.5706-21.037 4.6707-39.157 4.6669-40.265-0.005183-1.5282-1.2758-2.4608-5.2568-3.8585-10.142-3.5607-29.297-13.433-33.75-17.394-4.168-3.7077-4.5-4.362-4.5-8.8674 0-4.411 1.2757-7.1056 13.688-28.912 16.945-29.769 17.003-29.813 31.046-23.344 10.208 4.7023 19.501 6.1606 23.992 3.7649 1.4157-0.75513 6.6744-4.9543 11.686-9.3316 19.086-16.67 35.689-26.47 56.784-33.518 16.725-5.5874 28.045-7.3657 42.803-6.7239 24.18 1.0516 41.992 8.8608 60.709 26.616 22.094 20.959 38.244 47.938 50.931 85.084 6.1126 17.896 19.112 67.178 18.288 69.327-0.33264 0.86685-2.0275 2.0245-3.7664 2.5726-1.7389 0.54809-12.371 3.7592-23.626 7.1357-11.256 3.3766-27.006 8.7702-35 11.986-7.9944 3.2157-16.21 6.1492-18.258 6.5188l-3.7223 0.67197 0.60063-6.432c0.39797-4.2618 0.18483-7.2089-0.63171-8.7346-1.1337-2.1183-1.7244-2.2616-7.3784-1.7894-3.3803 0.28232-24.624 5.5152-47.209 11.629-22.584 6.1134-41.822 11.115-42.75 11.115-1.3957 0-1.6874-1.0372-1.6874-6zm41.851-126.1c2.6657-0.92927 3.1492-1.5994 3.1492-4.3651 0-4.7656-3.0783-7.9516-11.995-12.414-10.465-5.2381-16.903-6.474-30.478-5.8512-13.948 0.63988-20.728 2.6949-25.875 7.8423-3.6641 3.6641-3.8623 4.1646-3.2264 8.1452 0.37268 2.3327 1.1059 4.6701 1.6294 5.1943 1.7179 1.7201 14.46-1.2106 21.499-4.9447 3.6372-1.9296 7.6698-3.5083 8.9612-3.5083 1.2914 0 7.6666 1.9695 14.167 4.3767 20.288 7.5128 18.061 6.9578 22.17 5.5255zm-194.07-35.965c-1.9725-1.1497-8.7808-12.88-8.7808-15.128 0-1.9435 3.1826-4.8089 5.3412-4.8089 1.8368 0 7.6057 8.3774 10.634 15.443 1.6447 3.8368 1.6922 4.471 0.37291 4.9772-2.2526 0.86441-5.6254 0.64928-7.5675-0.4827zm16.837-6.2852c-1.7149-1.8414-4.4681-5.9161-6.1181-9.0549-2.9346-5.5824-2.9577-5.7384-1.0589-7.152 2.6427-1.9673 6.9203-1.8189 8.7874 0.30494 1.8859 2.1452 5.5085 9.2531 7.2915 14.307 1.2519 3.5483 1.206 3.7826-0.84826 4.3336-3.8341 1.0284-4.8755 0.67429-8.0536-2.7382z" fill="#080a0a"/></svg>
