<?xml version="1.0" encoding="UTF-8"?>
<svg width="74.483" height="74.483" version="1.1" viewBox="0 0 74.483 74.483" xmlns="http://www.w3.org/2000/svg"><path d="m3.9724 73.818c0-2.2052 2.8498-20.093 4.1661-26.149 1.081-4.9741 2.643-9.907 3.5614-11.247l0.73306-1.0698-0.90811-1.869c-2.5679-5.2851-2.5258-11.465 0.11068-16.26l1.018-1.8517-1.0063-1.491c-1.7561-2.6021-1.7732-4.2218-0.053987-5.1109 0.52426-0.27111 1.4075-0.49292 1.9627-0.49292 1.1475 0 1.1312 0.030464 0.65352-1.2198-2.7-7.0672 1.9069-9.5954 6.5727-3.607l0.75287 0.9663 1.2325-0.68832c6.5819-3.6759 16.09-1.2219 23.397 6.0385 4.1267 4.1007 6.1162 8.5526 6.1391 13.738l0.0095 2.1517 3.6679 4.3034c5.1474 6.0393 11.176 13.554 12.843 16.008 1.2765 1.8798 1.5573 3.026 0.7412 3.026-1.5348 0-9.497-2.9029-16.491-6.0123-2.0793-0.92442-3.8437-1.6176-3.9208-1.5405-0.1057 0.1057 5.5216 29.267 6.2644 32.463 0.12735 0.54792-1.2628 0.57931-25.655 0.57931-25.602 0-25.79-0.0048-25.79-0.66464z" fill="#3a6cb4"/><path d="m53.922 39.452c-0.79943-0.69562-2.8206-2.3372-4.4915-3.6478l-3.038-2.3831-0.93438 0.87135c-0.51391 0.47924-1.698 1.2106-2.6314 1.6253-0.93334 0.41468-3.0069 1.4034-4.6079 2.1972-2.7054 1.3413-3.1295 1.4513-6.0063 1.5582l-3.0954 0.11494-2.8003-2.8474 0.89141-0.1809c0.85909-0.17434 0.81344-0.2389-1.2589-1.7803-3.5876-2.6685-5.2648-5.727-5.6298-10.266-0.37451-4.6578 1.2155-9.1985 3.9025-11.145 2.5284-1.8315 4.659-2.4179 8.881-2.4442 5.9606-0.03704 9.5115 1.3775 11.078 4.4134 0.24065 0.46624 1.0684 2.7583 1.8395 5.0934 1.4635 4.4322 1.5273 5.22 0.79499 9.8232-0.17652 1.1096-0.11722 1.1936 1.4024 1.9862 1.9803 1.0329 8.0571 6.806 8.0571 7.6544 0 0.95319-0.75625 0.74647-2.3534-0.64329zm-15.979-9.0166c1.5252-0.73831 3.7669-2.9909 3.7669-3.785 0-0.27065-0.72966-1.2978-1.6215-2.2826-0.95467-1.0542-1.7119-2.2468-1.8414-2.9001-0.54439-2.7466-1.4805-3.7003-4.0329-4.1084-2.34-0.37417-5.534 1.4649-6.7775 3.9023-0.54041 1.0593-0.66378 1.7891-0.5555 3.2861 0.17858 2.4689 1.3573 4.0054 4.2139 5.4932 2.5065 1.3054 4.7046 1.432 6.8479 0.39445zm-4.232-2.5316c-0.72256-0.83458-1.27-2.6166-1.27-4.1342 0-0.92802 0.2279-1.5177 0.81254-2.1023 1.0414-1.0414 1.9797-1.0297 3.0475 0.03812 0.76534 0.76534 0.83638 1.048 0.70834 2.8182-0.21999 3.0414-2.0066 4.8723-3.2984 3.3802zm9.4524-4.5913c0.28133-0.73312-0.61202-4.7809-1.3927-6.3107-0.84821-1.662-1.8698-2.5755-2.5767-2.3043-0.45915 0.17619-0.52227 0.52468-0.36718 2.0273 0.39672 3.8439 3.5509 8.6352 4.3366 6.5876z" fill="#010305"/></svg>
