<?xml version="1.0" encoding="UTF-8"?>
<svg width="73.821" height="73.821" version="1.1" viewBox="0 0 73.821 73.821" xmlns="http://www.w3.org/2000/svg"><path d="m8.0935 70.097c0.49953-8.4159 1.2493-16.932 1.9161-21.766 0.90013-6.524 0.87636-7.5657-0.24171-10.593-2.124-5.7512-1.0934-13.519 2.4547-18.502 0.347-0.48732 0.71582-1.4024 0.8196-2.0335 0.17335-1.0542 0.07609-1.2283-1.1965-2.1422-3.1255-2.2445-4.1611-6.7898-2.3673-10.39 2.6292-5.2762 10.41-6.331 14.743-1.9986l1.6294 1.6294 1.285-0.65556c5.2626-2.6848 13.151-2.751 18.828-0.158l1.7707 0.80867 1.3741-1.411c1.7588-1.806 3.4577-2.5989 6.0071-2.8036 4.4998-0.3612 8.4386 2.0637 9.5767 5.8958 0.64548 2.1736 0.64859 2.7426 0.02643 4.8377-0.52801 1.778-2.6966 4.5556-3.8402 4.9185-0.91862 0.29156-0.59871 1.6597 1.0426 4.4589 1.9635 3.3487 2.7195 5.9387 2.8915 9.9063 0.16325 3.7669-0.18268 5.9209-1.4699 9.1526-0.79522 1.9965-0.79722 2.0315-0.28478 4.9655 0.91462 5.2367 2.487 22.818 2.487 27.809v1.7944h-57.672z"/><path d="m30.895 43.717c-2.1897-0.99418-2.5719-1.8735-2.7103-6.2359-0.18014-5.6748 0.60627-7.6009 3.3495-8.2034 0.85494-0.18778 1.1413-0.09714 1.5569 0.49279 0.28008 0.39759 1.0668 1.3925 1.7483 2.2109 2.0699 2.4857 2.0673 2.4536 0.3701 4.6375-1.7621 2.2674-2.8766 4.3166-2.5953 4.7717 0.10866 0.17582 0.48097 0.31968 0.82735 0.31968 0.44739 0 0.72696-0.35951 0.96536-1.2414 0.53442-1.9769 1.2243-2.731 2.4985-2.731 1.324 0 2.2993 1.042 2.6312 2.8109 0.17712 0.94412 0.36632 1.1615 1.0109 1.1615 0.43618 0 0.88196-0.14386 0.99062-0.31968 0.28191-0.45615-0.8343-2.5057-2.6067-4.7865-0.83831-1.0787-1.5242-2.0752-1.5242-2.2143 0-0.13917 0.598-0.94397 1.3289-1.7884s1.554-1.9708 1.8292-2.5029c0.60927-1.1782 1.7858-1.281 3.3998-0.29693 1.591 0.97 2.0922 2.4768 2.0922 6.2894 0 5.2144-0.85288 7.2474-3.3289 7.9352-0.65076 0.18078-3.2687 0.32624-5.8177 0.32326-3.8335-0.0045-4.8732-0.1138-6.0156-0.63248zm-3.7873-26.748c-0.85155-0.01513-1.6322 0.14084-2.2793 0.47461-2.0895 1.0778-2.8421 5.1011-1.4551 7.7832 0.48135 0.93083 1.2141 1.464 2.9434 2.1406 2.5451 0.99593 6.2864 0.0501 7.2617-1.8359 1.3646-2.6388-0.03048-6.2378-2.9688-7.6602-1.1954-0.57869-2.4071-0.88289-3.502-0.90234zm1.5664 4.8887c0.56216-0.01277 1.1165 0.16569 1.25 0.51367 0.38016 0.99068 0.20006 3.3025-0.31445 4.0371-0.28343 0.40465-0.72215 0.73633-0.97461 0.73633-1.2243 0-2.0929-3.8974-1.0918-4.8984 0.25178-0.25178 0.69362-0.37874 1.1309-0.38867zm17.766-4.9453c-6.0704-0.0214-9.7296 7.9845-4.2324 10.428 2.0109 0.89376 5.3518 0.41231 7.0488-1.0156 1.6861-1.4187 2.1895-4.5803 1.1074-6.959-0.77327-1.6999-1.3665-2.17-3.0117-2.3906-0.3094-0.0415-0.61357-0.06145-0.91211-0.0625zm-1.5078 4.9238c0.57527-0.01586 1.1738 0.228 1.4375 0.7207 0.45423 0.84874 0.20328 2.7007-0.51367 3.7949-0.6957 1.0618-1.3726 0.99942-1.9844-0.18359-0.58405-1.1294-0.65563-2.7575-0.16211-3.6797 0.22646-0.42315 0.71507-0.63835 1.2227-0.65234zm-12.354-4.4463c-1.304-0.54829-3.4469-2.4255-3.4469-3.0195 0-0.2518 0.54458-0.68536 1.2102-0.96346 1.1136-0.46529 1.2617-0.45904 1.8559 0.07832 0.74907 0.6774 1.8994 2.8156 1.8994 3.5305 0 0.74472-0.40185 0.84372-1.5187 0.37413zm6.8152-0.23689c0-0.66625 1.306-3.1304 1.9847-3.7445 0.6065-0.54887 0.71168-0.55051 1.8123-0.02822 1.2445 0.59058 1.3655 0.86094 0.83135 1.8589-0.73531 1.3739-4.6284 2.9837-4.6284 1.9138z" fill="#fdfdfd"/></svg>
