<?xml version="1.0" encoding="UTF-8"?>
<svg width="319.45" height="319.45" version="1.1" viewBox="0 0 319.45 319.45" xmlns="http://www.w3.org/2000/svg"><g transform="translate(-29.174 -34.718)"><g transform="translate(0 5.4027)"><path d="m158.46 342.39c-69.928-0.48676-127.2-0.94025-127.26-1.0078-0.06751-0.0675 1.4012-38.318 3.2638-85.001l3.3865-84.878-1.3418-2.888c-2.73-5.8758-5.3821-14.954-6.5878-22.551-0.7103-4.4754-0.97742-14.883-0.49756-19.386 2.4401-22.898 14.514-42.458 36.367-58.915 14.676-11.052 36.161-21.411 56.493-27.239 38.348-10.991 75.739-6.2043 101.32 12.973 3.8565 2.8907 10.625 9.4344 13.515 13.066 6.6627 8.3735 11.323 18.074 13.569 28.24 0.43723 1.9799 0.89302 4.4277 1.0129 5.4397 0.11985 1.012 0.28996 1.84 0.37802 1.84 0.0881 0 2.1955-1.2764 4.6831-2.8365 11.144-6.9889 25.186-14.507 33.997-18.203 5.2078-2.1843 12.65-4.7319 15.607-5.3427 6.2561-1.2922 13.468-0.08896 20.839 3.4771 10.395 5.0284 17.733 13.614 20.541 24.032 0.77841 2.8882 0.86228 3.7414 0.87995 8.9525 0.015 4.413-0.11637 6.396-0.56166 8.48-2.0795 9.7319-7.4207 20.051-15.818 30.56-1.9944 2.4959-8.1178 8.886-17.494 18.256-16.208 16.197-24.793 24.366-31.147 29.64l-1.0313 0.85593 1.2611 9.0641c7.2664 52.229 12.61 102.66 13.649 128.82l0.21929 5.52-6.0489-0.0435c-3.3269-0.0239-63.263-0.44175-133.19-0.92851z" fill="#edc1a3"/><path d="m277.76 257.38c-2.8158-0.46956-7.6064-2.3467-12.835-5.0294-6.7458-3.4609-11.037-5.2384-16.321-6.7598-6.8868-1.9832-14.008-3.0783-23.804-3.6606-5.9861-0.35585-26.477-0.44192-28.429-0.11942l-1.2293 0.20311 0.21522 1.4734c0.11838 0.81036 0.64462 2.1481 1.1694 2.9727 1.999 3.1409 1.8759 5.1475-0.43726 7.1275-1.9652 1.6821-3.8309 2.302-5.4836 1.8218-0.72881-0.21173-4.7811-0.94993-9.0051-1.6405-17.678-2.8899-20.332-3.6551-38.293-11.04-2.4049-0.98886-6.0769-2.2417-8.16-2.7841-3.3911-0.88301-4.3097-0.99028-8.7776-1.025-6.4366-0.05-6.1993-0.2214-5.9123 4.2726 0.37093 5.808 0.14693 6.7912-1.8331 8.0463-0.92781 0.58808-1.4019 0.63492-5.0245 0.49651-7.1606-0.27359-13.258-1.9666-28.16-7.8187-9.9362-3.9021-14.093-5.2595-19.249-6.2853-6.118-1.2173-8.874-1.3411-12.005-0.53934-2.7492 0.70405-3.3422 0.65333-4.4959-0.38446-1.3743-1.2363-1.795-3.3975-1.5958-8.1981 0.18274-4.4027 0.53977-6.4208 3.2319-18.268 1.4483-6.3739 1.7002-8.5328 2.158-18.499 0.30677-6.6784 0.29299-10.052-0.07346-17.981-0.582-12.593-0.5514-14.235 0.29623-15.897 1.3534-2.6529 5.3659-5.429 11.796-8.1612 9.9773-4.2394 18.333-6.7928 20.243-6.1864 0.579 0.18377 0.6535 0.47245 0.6535 2.5326 0 1.7206 0.3322 3.5367 1.2776 6.9847 4.5791 16.701 11.917 26.613 22.522 30.42 3.1338 1.1253 8.5604 1.539 11.436 0.87167 8.5168-1.9762 14.51-10.174 17.901-24.485 1.3758-5.8068 1.7302-9.3273 1.7237-17.12l-6e-3 -7.52-1.159-3.36c-0.63743-1.848-1.7527-5.039-2.4784-7.0911-1.4657-4.1447-1.7405-6.7428-0.85601-8.0927 0.95415-1.4562 13.831-7.7693 26.831-13.154 8.5958-3.5605 18.523-7.2185 29.689-10.94 5.544-1.8479 12.179-4.1954 14.744-5.2168 13.194-5.2533 20.339-6.889 24.635-5.6399 3.0381 0.8832 4.1388 2.5819 4.1439 6.3955 4e-3 2.6747 0.36915 3.5875 3.6758 9.1792 4.2911 7.2565 11.456 17.296 14.902 20.88 1.9953 2.0754 2.4892 2.0301 8.0072-0.73411 10.159-5.0891 15.428-5.6602 20.701-2.2438 5.0262 3.2561 11.709 12.851 15.874 22.792 2.071 4.9431 2.8699 7.9744 2.8954 10.986 0.0281 3.3128-0.51714 4.2765-3.1649 5.5938-1.0634 0.52905-5.1014 2.9586-8.9734 5.399-8.0492 5.0732-8.2349 5.2772-9.4381 10.37-2.0751 8.7831-3.1749 18.922-3.4273 31.597-0.34952 17.546 1.2097 33.26 4.7371 47.741 1.1605 4.7644 1.255 5.4374 0.87469 6.2306-0.72126 1.5042-2.6268 2.001-5.7064 1.4874zm-100.4-108.09c11.699-2.4343 47.596-13.418 47.596-14.563 0-0.12477-0.70926-0.61289-1.5762-1.0847-6.4692-3.521-18.197-2.6478-31.464 2.3426-7.8824 2.965-19.113 8.239-19.882 9.3366-0.5804 0.82862-0.67797 2.6944-0.20584 3.9362 0.39076 1.0278 0.73906 1.0298 5.5318 0.0326zm-61.69 8.9997c-2.0864-0.94675-3.9689-3.9587-5.1664-8.2657-0.74202-2.669-0.74243-9.6586-7.6e-4 -13.039 0.56476-2.5738 1.3483-3.7143 2.7655-4.0256 1.2268-0.26945 6.4275 0.42207 7.2603 0.96537 0.40205 0.26231 1.1098 1.5337 1.6869 3.0301l0.99426 2.5782-0.25908 7.4484c-0.25295 7.2724-0.27927 7.4829-1.1138 8.9069-0.47012 0.80219-1.2471 1.7156-1.7267 2.0299-1.1403 0.74716-3.227 0.92149-4.4402 0.37095zm1.9538-8.0942c-0.11031-0.28748-0.0506-1.3498 0.13274-2.3608 0.40157-2.2145 0.0384-3.5165-0.98084-3.5165-0.59897 0-0.65611 0.13682-0.50117 1.2 0.0962 0.66 0.26698 2.1 0.37955 3.2 0.15137 1.4792 0.33039 2 0.68748 2 0.31523 0 0.4132-0.18143 0.28224-0.5227zm190.08-31.126c-3.7285-0.68478-4.1535-1.1756-4.1149-4.7518 0.0272-2.5131 0.90817-6.9375 1.8054-9.0663 0.26574-0.63053 1.0858-1.6908 1.8223-2.3562 1.2688-1.1463 1.4301-1.2023 3.0707-1.0662 1.4862 0.12325 1.9125 0.32023 3.0083 1.3903 1.3896 1.3569 2.1005 3.1282 1.7754 4.4235-0.11359 0.45258-0.71765 1.334-1.3424 1.9587-1.4456 1.4456-1.9275 2.6435-2.1868 5.4364-0.3031 3.2637-0.53644 4.6456-0.77633 4.5976-0.11653-0.0233-1.4943-0.27797-3.0617-0.56584zm15.733-1.4176c-1.5334-1.2115-2.052-5.8998-0.9266-8.3769 2.0773-4.5726 8.3154-4.9536 8.9068-0.54391 0.58071 4.3295-5.3708 10.982-7.9802 8.9208z"/></g></g></svg>
