<?xml version="1.0" encoding="UTF-8"?>
<svg width="423" height="423" version="1.1" xmlns="http://www.w3.org/2000/svg"><path d="m75 422.25c7.95e-4 -3.0364 4.7364-28.572 8.4187-45.395 6.9153-31.594 10.677-47.368 24.722-103.68 7.178-28.776 12.895-52.452 12.705-52.612-0.19034-0.16023-18.796-10.991-41.346-24.068-22.55-13.077-41.58-24.234-42.289-24.793-1.6303-1.2854 0.93731-4.0855 13.289-14.491 19.888-16.755 43.093-28.699 61.5-31.653 2.9558-0.47444 3.9584-1.3782 6.4477-5.812 1.6212-2.8876 6.5062-10.574 10.856-17.081 36.845-55.125 81.717-88.821 132.95-99.835 8.4232-1.8109 13.367-2.196 27.749-2.1618 9.625 0.022886 18.837 0.47227 20.47 0.99862 6.0262 1.9417 14.968 24.727 20.536 52.329 7.5528 37.441 11.986 94.046 11.992 153.11l2e-3 24.61 4.0358 8.7355c13.695 29.642 29.284 96.015 37.941 161.54 1.1263 8.525 2.256 16.738 2.5104 18.25l0.46276 2.75h-156.48c-86.061 0-156.47-0.3375-156.47-0.75z" fill="#047bd9"/><path d="m224.38 178.04c-39.633-6.0988-57.889-44.96-34.337-73.091 13.298-15.883 39.078-22.497 60.613-15.55 33.332 10.752 45.305 45.566 24.298 70.656-10.784 12.88-32.822 20.717-50.574 17.985zm31.364-12.17c7.6495-3.6613 15.112-10.75 18.906-17.958 2.5794-4.9013 2.8475-6.352 2.8475-15.411s-0.26805-10.509-2.8475-15.411c-7.7179-14.665-23.318-23.089-42.756-23.089-18.814 0-33.852 8.5909-42.012 24-2.0519 3.8746-2.3831 5.8897-2.3831 14.5 0 10.844 1.2442 14.524 7.6723 22.693 2.7098 3.4439 13.986 11.807 15.92 11.807 0.47521 0-0.43787-2.0529-2.0291-4.5619-8.5289-13.449-5.9666-33.191 5.633-43.402 17.841-15.704 42.8 0.93045 41.087 27.384-0.52781 8.1519-3.0242 14.507-7.864 20.019-3.2221 3.6698-3.2613 3.807-0.89435 3.1281 1.3616-0.39057 5.286-2.0553 8.721-3.6994zm-60.842-77.846-6.4036-6.0092 7-6.4945c14.026-13.013 31.953-24.212 41.662-26.024l3.662-0.68378 1.1848 7.3448c0.65166 4.0396 1.0322 7.7948 0.84566 8.3448s-2.3676 1.7243-4.8469 2.6096c-8.7076 3.1094-19.775 10.679-30.104 20.592l-6.5964 6.3301z" fill="#000305"/></svg>
