<?xml version="1.0" encoding="UTF-8"?>
<svg width="88.96" height="88.96" version="1.1" xmlns="http://www.w3.org/2000/svg"><path d="m23.511 87.44c1.3342-11.723 2.6794-18.153 5.4808-26.197l1.1273-3.2372-1.673-2.2028c-2.5755-3.3912-4.7662-8.8044-4.7662-11.777 0-0.67514-0.12112-0.84731-0.49512-0.7038-0.27232 0.1045-3.2242 1.9983-6.5598 4.2084s-6.6768 4.2359-7.4249 4.5017c-2.7448 0.97532-4.6559-0.27955-5.3846-3.5356-0.33859-1.513-0.31775-1.9457 0.15305-3.1785 1.0888-2.8511 5.0853-5.4552 10.581-6.8947 1.3919-0.36457 2.7916-0.66286 3.1104-0.66286 0.31885 0 0.57973-0.055326 0.57973-0.12295s-0.56308-1.2556-1.2513-2.64c-1.66-3.3392-2.2655-5.4778-2.4794-8.7571-0.52846-8.101 4.3119-15.004 13.904-19.829 3.4529-1.7368 5.5746-2.4504 8.7166-2.9314 5.3411-0.81763 10.353 0.83942 14.213 4.6987l2.064 2.064 2.3605-2.3605c5.0907-5.0907 10.84-8.3044 13.848-7.7401 1.326 0.24875 2.5834 1.5103 2.8334 2.8426 0.22715 1.2108-0.46719 3.7972-1.6472 6.1356-1.7378 3.4439-2.5097 4.2218-7.5038 7.5618l-4.8186 3.2227 2.0081 1.2697c3.9395 2.4909 7.344 6.6342 9.1798 11.172 0.77055 1.9046 1.0412 2.2574 1.9706 2.568 2.3908 0.7991 4.3001 0.17405 8.4789-2.7757 1.7755-1.2533 3.0989-1.4034 4.0438-0.45849 0.90618 0.90618 0.84177 2.992-0.15371 4.9772-2.0384 4.065-8.1192 10.865-13.044 14.587-1.4535 1.0985-2.7475 2.1673-2.8755 2.3751-0.12803 0.20779-0.89328 1.2564-1.7006 2.3304l-1.4678 1.9526 1.1125 2.0087c3.1383 5.6663 5.3286 16.248 5.3286 25.744v3.3044h-48.022z" fill="#fcc544"/><path d="m49.92 45.32c-3.5124-0.96697-6.4969-3.3257-6.8953-5.4495-0.24302-1.2954 0.57437-5.1354 1.4711-6.9109 1.3675-2.7077 4.1025-4.2177 7.9843-4.408 3.7524-0.184 5.8946 0.61021 8.3283 3.0878 2.6136 2.6607 3.0391 4.4748 1.9081 8.1365-0.99888 3.234-3.3821 4.8406-8.3847 5.6524-2.4366 0.3954-2.5962 0.39148-4.4117-0.10834zm6.0563-1.7611c1.1575-0.32345 1.1406-0.82273-0.07341-2.177-1.8643-2.0797-2.2302-3.0961-2.0407-5.6694 0.09203-1.2501 0.2657-2.6595 0.38593-3.1321 0.20064-0.78866 0.12557-0.8767-0.91388-1.0717-1.5643-0.29346-3.0829 0.28419-4.4585 1.6959-1.4527 1.4909-2.1557 3.1397-2.1557 5.0564 0 2.8544 1.5559 4.6495 4.539 5.2367 1.6725 0.32921 3.6658 0.35509 4.7173 0.06124zm-23.272-4.2633c-0.2112-0.2112-0.384-0.62078-0.384-0.91017 0-0.61214 8.1855-8.7123 12.16-12.033 3.6915-3.0845 6.3675-4.9126 7.1909-4.9126 0.37663 0 1.1615-0.35171 1.7442-0.78159l1.0594-0.78159 1.8028 0.66498c0.99153 0.36574 1.8543 0.709 1.9173 0.7628 0.063 0.0538-0.441 0.35941-1.12 0.67913-0.679 0.31972-1.2345 0.79336-1.2345 1.0525s0.63466 0.82134 1.4104 1.2492l1.4104 0.778-1.1323 1.0377c-1.3268 1.2159-4.0377 1.9151-6.1796 1.5939-1.8765-0.2814-3.17 0.31947-5.8116 2.6996-3.0793 2.7746-3.0528 2.7529-3.9372 3.2118-0.44 0.2283-0.9853 0.67614-1.2118 0.99521-0.7492 1.0555-6.4435 5.0783-7.1883 5.0783-0.06154 0-0.28469-0.1728-0.49589-0.384zm-6.8944-10.761c-1.3547-1.4969-0.050817-3.6478 2.8304-4.6691 3.7473-1.3283 3.7537-1.344 1.2-2.9529-3.5662-2.2467-4.051-3.1722-2.24-4.2763 1.4188-0.86504 1.9779-0.80911 4.6335 0.46358l2.2955 1.1001-0.3045-0.80091c-0.54901-1.444-0.36514-4.6559 0.33199-5.7992 0.74304-1.2187 1.5998-1.3325 3.108-0.41296 1.1021 0.67198 1.8054 1.795 2.1624 3.453 0.35282 1.6383 1.0247 1.2326 2.2111-1.3351 0.82066-1.7762 1.3516-2.5065 2.1057-2.8965 1.2542-0.64859 2.1225-0.39561 2.7399 0.79833 1.0755 2.0798 0.05251 5.8654-2.1139 7.8226-1.6287 1.4715-2.4381 1.7706-4.7904 1.7706-1.5155 0-1.8992 0.10188-1.8992 0.50431 0 0.54378-2.4047 3.8086-3.7905 5.1464-2.278 2.199-7.2664 3.425-8.4799 2.0841z" fill="#134733"/></svg>
