<?xml version="1.0" encoding="UTF-8"?>
<svg width="342.67" height="342.67" version="1.1" viewBox="0 0 342.67 342.67" xmlns="http://www.w3.org/2000/svg"><path d="m70.625 336.33c-0.02298-1.2833-0.60571-11.933-1.2949-23.667-1.3879-23.627 0.01547-61.545 3.3754-91.2 1.9237-16.979 7.7783-55.617 9.4161-62.142 0.68168-2.716 0.13702-2.9868-7.6461-3.8002-21.083-2.2036-42.445-10.818-54.779-22.091-21.463-19.616-25.777-54.898-10.43-85.301l4.1148-8.1514 7.8209 7.9927c8.5903 8.779 21.789 16.023 29.197 16.025 6.126 0.0015 11.807-3.2665 14.524-8.3548 4.8336-9.0527 1.5597-27.647-7.4444-42.28l-4.0205-6.5341 7.6042-1.6889c9.8365-2.1847 46.974-2.1323 60.937 0.085991 25.696 4.0822 46.967 14.184 56.088 26.637 7.3334 10.012 8.9041 16.027 9.7846 37.467l0.79391 19.331 5.3333 1.0139c36.106 6.8638 45.196 10.306 53.287 20.18 5.9248 7.2305 11.731 20.025 14.739 32.477l2.3348 9.6667h8.4391c15.178 0 53.183 9.3329 66.573 16.348l3.3133 1.736-8.5574 9.3761c-14.955 16.386-35.636 31.759-57.461 42.714-6.6 3.3128-11.982 6.4287-11.96 6.9242 0.0223 0.49554 2.2252 7.501 4.8955 15.568 5.1586 15.584 15.077 51.934 20.535 75.255 1.812 7.7431 3.6127 15.128 4.0017 16.412 0.6696 2.2093-5.2499 2.3333-111.38 2.3333-105.85 0-112.09-0.12995-112.13-2.3333z" fill="#db1d34"/><path d="m257.33 216.67c0-1.3403-1.4294-2.0438-4.3333-2.1329-5.7659-0.17684-10.697-1.6243-11.257-3.3044-0.25002-0.75005 1.7125-3.8954 4.3611-6.9898l4.8157-5.626-7.2104 0.84744c-5.7706 0.67822-7.6591 0.39877-9.4573-1.3994-3.1866-3.1866-1.3672-5.8985 10.482-15.624 5.4629-4.4837 9.9326-8.6336 9.9326-9.222s-2.8446-1.2527-6.3213-1.4762c-4.6783-0.30077-6.4328-0.99366-6.7502-2.6658-0.79923-4.2107 19.947-8.2687 32.889-6.4332 4.9342 0.69979 16.22 1.2672 25.079 1.2609 17.469-0.0125 25.929 2.08 28.602 7.0734 1.1972 2.237 0.6244 3.4696-3.6428 7.8397-2.7848 2.852-5.5804 5.1854-6.2124 5.1854-2.4983 0-24.832 14.414-33.559 21.659-5.0874 4.2232-11.727 8.8776-14.754 10.343-6.6228 3.206-12.663 3.5231-12.663 0.66472zm1.2222-38.847c1.8298-1.6009-2.51-0.11418-4.634 1.5875-2.4404 1.9552-2.3979 1.9829 0.74516 0.48606 1.8333-0.87312 3.5833-1.8062 3.8889-2.0736zm-106.19 29.953c0.39477-1.708 1.5005-6.569 2.4571-10.802l1.7394-7.6966-7.9893-7.6367c-8.1447-7.7853-11.24-13.997-11.24-22.554 0-12.854 11.183-27.335 24.948-32.307 11.076-4.0006 11.351-4.2403 14.647-12.75 1.6454-4.248 3.3422-8.0742 3.7706-8.5026 1.7675-1.7675 2.8352 3.0417 1.829 8.2383-2.1406 11.055-2.261 10.89 8.0506 11.04l9.2254 0.13447 0.9026-6.5627c1.222-8.885 3.5066-9.3603 10.762-2.2393 7.6281 7.4864 12.824 17.588 11.219 21.81-0.85623 2.252-0.34905 4.6599 1.9296 9.1608 2.6138 5.1628 3.039 7.8199 2.7534 17.206-0.18573 6.1052-0.75177 12.405-1.2579 14-1.2658 3.988-12.876 12.245-20.402 14.51-10.188 3.0661-26.698 3.7085-34.315 1.3351-3.6324-1.1317-6.8615-1.8006-7.1757-1.4864-0.31419 0.3142-1.5998 4.3422-2.8568 8.9511-2.048 7.5087-2.6717 8.4255-5.9999 8.8187-3.2859 0.38822-3.6315 0.0807-2.9966-2.6667zm48.476-20.567c9.5216-3.2327 16.085-8.1915 19.108-14.437 7.1158-14.699-0.0233-29.345-18.989-38.956-5.3614-2.7168-9.5477-3.6653-18.407-4.1704-14.07-0.80226-19.636 0.84225-27.555 8.1418-11.847 10.92-14.434 22.605-7.496 33.853 3.9956 6.4778 14.184 13.854 22.496 16.286 6.7834 1.9851 24.067 1.5831 30.843-0.71745zm-26.843-17.201c-0.73333-0.24871-3.5818-0.82825-6.33-1.2879-3.6794-0.61534-5.5102-1.8287-6.9445-4.6023-1.8241-3.5275-1.7052-4.1493 1.8734-9.7921 3.0771-4.852 5.1052-6.4519 10.414-8.2153 7.8424-2.6048 11.993-1.5163 16.075 4.2158 5.8006 8.1462 4.9675 14.524-2.3946 18.331-3.57 1.8461-9.4031 2.467-12.693 1.3511zm-57.562 22.548c-0.44626-1.1629-0.0601-5.5129 0.8582-9.6667 2.0067-9.0772 15.155-49.942 18.821-58.493 2.5531-5.9562 2.6648-6.0344 5.264-3.6822 3.256 2.9466 2.6005 8.43-2.306 19.29-5.9086 13.078-10.705 27.1-12.997 38-1.2338 5.8667-2.7934 12.017-3.4657 13.667-1.4122 3.466-4.9876 3.9787-6.1746 0.88557zm-16.951-28.303c-0.3686-0.5964 0.24307-5.0881 1.3593-9.9815 3.439-15.077 10.952-19.748 8.3079-5.165-2.1065 11.618-7.0555 19.372-9.6671 15.146zm-26.906-64.582c-2.0796-3.1167-4.9371-6.9861-6.35-8.5988-1.4129-1.6127-2.2119-3.8627-1.7755-5 1.2677-3.3036 5.9432-2.4094 8.3594 1.5988 1.2157 2.0167 3.9426 6.2528 6.0598 9.4136 2.1172 3.1608 3.501 6.3108 3.0751 7-1.7562 2.8417-5.7983 0.93746-9.3688-4.4136zm12.418-11.892c-4.95-5.0867-9-9.817-9-10.512 0-2.8915 5.3562-0.91272 11.017 4.07 3.3324 2.9333 7.3169 5.3333 8.8544 5.3333 3.4495 0 3.6529 3.5343 0.43242 7.5118-2.2987 2.839-2.3233 2.825-11.304-6.4034zm51.124 1.7897c-1.1962-2.2351-0.88415-3.1004 1.849-5.1269 5.5092-4.0848 7.79-16.356 7.0938-38.168l-0.58762-18.413 4.5564 4.5564c4.4988 4.4988 4.559 4.7144 4.7604 17.072 0.11224 6.8833-0.29093 16.953-0.89592 22.377l-1.1 9.862 7.2918-0.857c6.0567-0.71185 7.8239-0.42033 10.433 1.7211 2.5372 2.0822 2.8614 3.0362 1.6853 4.9595-1.2024 1.9662-3.4107 2.4003-12.667 2.4899-6.1657 0.05973-13.409 0.5828-16.096 1.1624-4.1547 0.89621-5.1004 0.65172-6.3243-1.6351zm-27.875-7.183c-0.86999-0.86999-1.5818-2.2742-1.5818-3.1204s-1.5-3.1572-3.3333-5.1354c-3.5342-3.8135-4.2319-6.7466-1.9416-8.1621 1.8362-1.1348 4.651 1.3155 9.3393 8.1297 3.657 5.3152 3.7268 5.6822 1.4693 7.7252-1.8282 1.6545-2.7317 1.7832-3.9518 0.56308z" fill="#100808"/></svg>
