<?xml version="1.0" encoding="UTF-8"?>
<svg width="352.64" height="352.64" version="1.1" xmlns="http://www.w3.org/2000/svg"><path d="m190.69 319.1c-7.8398-0.99583-16.781-5.8099-22.839-12.297l-2.2812-2.4427-2.9597 1.9042c-10.72 6.8972-18.814 10.027-28.414 10.989-7.3183 0.73288-14.213-0.53603-20.945-3.8549-4.4312-2.1844-8.3856-5.0571-11.487-8.3449l-2.1747-2.3052-1.8091 1.8348c-3.1173 3.1617-7.8724 6.0283-14.297 8.6188l-2.8368 1.1439h-37.387l-2.6938-1.6271c-6.3245-3.8202-13.736-9.7558-18.998-15.216-6.0682-6.2957-10.159-12.113-13.922-19.797-3.6903-7.5366-5.6196-13.768-6.9053-22.305-1.2978-8.6172-0.86765-20.273 1.0575-28.654l0.68012-2.9608h24.532v2.1138c0 4.1787 1.7041 8.4418 5.0651 12.671 1.8106 2.2785 5.8317 6.0149 6.4731 6.0149 0.17718 0 0.30179-2.239 0.30179-5.4226 0-2.9824 0.15343-7.2664 0.34096-9.52 0.77564-9.3212 3.2641-25.352 4.7997-30.92 0.52525-1.9046 1.1166-4.5023 1.3141-5.7728 0.45564-2.9308-0.0019-4.0308-2.565-6.166-4.7201-3.9322-5.9717-5.5901-7.5391-9.9865-3.4946-9.8019-2.391-23.994 2.7136-34.898l1.2574-2.686-1.4157-1.5136c-3.4351-3.6724-4.8003-9.0464-3.5337-13.91 1.8357-7.0476 9.1713-11.882 16.337-10.767 2.4705 0.38461 5.6071 1.7708 7.2287 3.1946 0.6309 0.55394 1.2333 1.0072 1.3386 1.0072s0.95034-0.48482 1.8778-1.0774c4.2592-2.7213 9.9403-5.0616 14.966-6.1653 4.006-0.87973 13.32-0.80574 17.76 0.14109 5.7912 1.235 11.159 3.3976 15.135 6.0972l1.9362 1.3149 1.0012-1.6272c2.8497-4.6313 8.4394-8.2596 12.75-8.2758l2.0218-8e-3 -1.3997-1.2c-4.8168-4.1296-8.345-10.872-9.6808-18.501-0.69601-3.9748-0.94556-10.057-0.53164-12.959 0.38819-2.721 2.8278-11.482 4.0176-14.427l0.78075-1.933-1.1441-1.4899c-4.6297-6.0292-4.1634-14.269 1.1051-19.529 7.1514-7.1394 19.021-5.267 23.487 3.7049 0.59521 1.1957 1.113 2.2288 1.1506 2.2958 0.0376 0.06696 2.0536-0.18704 4.48-0.56444 9.0759-1.4117 18.43-1.5673 29.372-0.48859 4.0545 0.39971 10.509 1.4979 13.2 2.2458 0.57183 0.15894 0.72 0.06959 0.72-0.4342 0-1.1121 2.2217-5.1227 3.6544-6.5968 8.5178-8.7642 23.233-4.0917 25.179 7.9951 0.67306 4.18-0.47755 8.2048-3.3559 11.739l-1.5095 1.8533 1.089 1.5048c2.7621 3.8167 4.9706 9.1469 5.8287 14.068 0.27474 1.5754 0.47445 4.7059 0.47445 7.4369 0 7.275-1.0089 12.077-3.6983 17.603-2.4727 5.0804-6.2438 9.5144-10.478 12.32l-1.856 1.2297 0.19729 1.784c0.65974 5.966 1.2565 10.284 1.9271 13.945 2.0982 11.455 6.668 26.039 10.728 34.239 0.69722 1.408 1.1747 2.272 1.061 1.92s-0.27717-3.0226-0.36339-5.9346c-0.24536-8.2868 0.93556-14.131 4.256-21.061l1.7417-3.6352-1.4658-1.6304c-7.9715-8.8662-3.257-22.588 8.4505-24.595 2.8325-0.48572 5.9378-0.0404 8.647 1.2399 1.7204 0.81304 5.8913 4.5116 6.182 5.4819 0.10053 0.33561 0.49859 0.28351 1.8789-0.24591 2.9132-1.1173 7.3046-2.203 11.191-2.7669 4.8347-0.70135 14.532-0.46966 20.918 0.49979 7.1749 1.0892 15.635 3.4938 19.714 5.6033l1.0164 0.52563 1.584-1.4817c0.87122-0.81493 2.5522-1.935 3.7355-2.4891 2.771-1.2975 6.9497-1.5896 10.19-0.71241 6.9837 1.8904 11.617 9.1671 10.423 16.371-0.50178 3.0282-2.2181 6.3654-4.2524 8.2682l-1.6462 1.5398 0.85136 2.7461c1.5055 4.8561 1.9332 8.007 1.9163 14.116-0.0143 5.1539-0.085 5.8294-0.88758 8.48-1.1445 3.7799-3.0951 7.6918-5.3319 10.694-2.1269 2.8541-6.2424 6.8561-8.7903 8.5479-1.2231 0.81208-1.7542 1.3592-1.6487 1.6984 0.0856 0.27516 0.73372 1.8121 1.4402 3.4154 2.4767 5.6212 6.6671 19.114 9.8527 31.725 0.67799 2.684 1.325 4.88 1.4379 4.88 0.11284 0 1.6891-2.664 3.5027-5.92l3.2976-5.92h10.178c5.5981 0 10.18 0.108 10.183 0.24 2e-3 0.132 0.28844 1.608 0.63583 3.28 2.4628 11.853 3.0763 25.018 1.7298 37.12-2.2767 20.463-11.087 40.792-24.06 55.52l-2.8188 3.2-31.331 0.1548-4.3485-3.4925c-2.3917-1.9208-5.9072-4.8999-7.8124-6.6202l-3.4639-3.1278-0.49189 0.74083c-4.6347 6.9802-9.7037 11.739-15.204 14.275-6.2992 2.9036-13.822 2.1855-20.738-1.9796-4.388-2.6425-10.897-8.5594-12.842-11.673-0.2958-0.47365-0.71385-0.19049-3.2393 2.1942-9.2428 8.7274-18.129 13.43-27.38 14.491-3.1174 0.35754-4.3894 0.34937-7.52-0.0483z" fill="#58c2bc"/><path d="m66.309 306.65c-0.29994-0.17488-0.99052-1.1532-1.5346-2.1741-0.54411-1.0209-2.2691-3.5014-3.8334-5.5123-4.7019-6.0446-5.8891-8.3992-7.2216-14.323-3.5788-15.91 0.83976-37.065 10.562-50.568 5.4109-7.515 12.292-12.966 21.062-16.682 4.3623-1.8487 8.7364-3.2342 17.191-5.4453 3.432-0.89757 7.35-1.9801 8.7067-2.4055 1.3567-0.42547 4.4668-1.1519 6.9113-1.6143l4.4446-0.8407 1.9878-3.2974-0.0605-5.76c-0.0599-5.7068-0.0512-5.7866 0.94565-8.64 0.55336-1.584 1.9469-4.9041 3.0967-7.378 3.9199-8.4339 4.5691-11.678 4.275-21.362-0.13444-4.4273-0.36411-6.705-0.95976-9.5183-0.99581-4.7033-1.715-6.3158-3.429-7.6889-3.3583-2.6902-3.5445-3.275-1.7332-5.443 2.4775-2.9654 3.2894-5.4257 4.3038-13.043 0.36673-2.7537 0.77584-5.4386 0.90913-5.9665l0.24233-0.95985 0.52694 0.80421c0.28982 0.44232 0.76527 1.7345 1.0566 2.8715 0.92706 3.6186 0.24557 7.1279-2.5044 12.896-1.63 3.4191-1.642 3.4668-1.2463 4.96 0.21974 0.82926 1.1762 2.8757 2.1255 4.5477s1.8868 3.4686 2.0832 3.9925c0.68271 1.8205 1.234 5.1533 1.5869 9.5927 0.19519 2.4559 0.39914 4.5095 0.45323 4.5636 0.18699 0.18699 11.256-0.87986 16.358-1.5765 3.8627-0.52751 6.7702-0.7027 11.84-0.7134 6.1867-0.0131 6.9486 0.0487 9.6 0.77805 2.8429 0.78204 3.0469 0.79231 15.84 0.79763l12.96 5e-3 4.4126 1.04c2.4269 0.572 4.4789 1.04 4.56 1.04s0.14741 2.5398 0.14741 5.644v5.644l-2.8-0.21799c-1.54-0.1199-3.736-0.37857-4.88-0.57484-1.3904-0.23855-9.9303-0.36652-25.76-0.38602l-23.68-0.0292-6.6988 0.87483c-3.6844 0.48116-6.8307 1.0067-6.9918 1.1678-0.49321 0.4932 0.0736 1.6374 0.81115 1.6374 1.2475 0 3.412 1.3149 5.7556 3.4966 3.2587 3.0334 12.81 11.141 18.582 15.773 2.6738 2.1458 6.6363 5.3839 8.8055 7.1959 3.5331 2.9512 4.8581 3.7848 4.855 3.0544-5.5e-4 -0.132-0.90182-1.3138-2.0028-2.6263-2.2165-2.6422-6.5636-6.6384-12.876-11.837l-4.16-3.4258 0.11697-5.3352c0.0973-4.4392 0.033-5.4635-0.38334-6.0988-0.27518-0.41997-0.41182-0.85209-0.30365-0.96027 0.18156-0.18155 11.283-0.29623 11.295-0.11667 3e-3 0.044 0.21481 4.1006 0.47079 9.0148 0.26236 5.0367 0.60905 9.0784 0.79463 9.264 0.22561 0.22561 0.44184 0.21657 0.68712-0.0287 0.43651-0.43651 1.3423-13.169 1.1389-16.01l-0.14315-2h11.034l0.204 2.16c0.1122 1.188 0.20502 7.668 0.20627 14.4l2e-3 12.24h0.76577c0.42322 0 0.87467-0.2505 1.0092-0.56 0.1339-0.308 0.31006-6.788 0.39146-14.4l0.14831-13.84h7.6055l-3e-3 8.72c-2e-3 4.796-0.14371 11.816-0.31565 15.6s-0.45877 11.2-0.63741 16.48c-0.17863 5.28-0.41318 10.126-0.52121 10.769-0.18629 1.1088-0.27298 1.1799-1.6796 1.3762-0.81572 0.11383-1.9511 0.28772-2.5231 0.38642l-1.04 0.17946v-4.2916c0-4.7273-0.11979-5.0596-1.824-5.0596-0.7832 0-1.0622 0.14467-1.0801 0.56-0.0132 0.308-3e-3 2.468 0.0219 4.8l0.046 4.24-2.3419 5e-3c-2.6531 5e-3 -3.8941 0.47791-4.0464 1.5409-0.22587 1.576 0.35333 1.7544 5.0587 1.5579 2.3792-0.0994 5.9819-0.48698 8.0059-0.86139 2.8468-0.52663 5.6724-0.7351 12.48-0.92076 4.84-0.13201 8.98-0.17992 9.2-0.10647 0.44322 0.14796 0.56221 7.6926 0.19559 12.401l-0.20058 2.576-5.3175 0.0827c-2.9246 0.0455-6.6135 0.10668-8.1975 0.13604-1.9388 0.0359-3.6643-0.14613-5.28-0.5571-2.8688-0.72974-10.781-0.85041-14.025-0.21389-1.8301 0.35915-2.1367 0.33919-3.1905-0.20768l-1.1658-0.60501-9e-3 -3.1736c-9e-3 -2.9173-0.095-3.3544-1.0685-5.4136-1.4155-2.9941-3.9422-6.2319-7.5685-9.6987-7.749-7.4081-18.313-12.152-32.172-14.448-2.2-0.36444-4.3459-0.81144-4.7687-0.99334-1.1554-0.49708-1.5019 0.0419-1.0331 1.6066 0.34715 1.1587 0.25743 1.8268-0.89811 6.6874-1.1899 5.0053-2.5801 14.309-2.5801 17.267 0 1.1054 0.10919 1.2966 0.84628 1.4816 0.46546 0.11682 0.98701 0.0717 1.159-0.10032 0.172-0.172 1.2212-3.999 2.3317-8.5043 2.6284-10.664 4.1512-14.018 6.3648-14.018 0.44842 0 1.5877 0.53196 2.5317 1.1821 1.1553 0.7957 2.6464 1.4237 4.5615 1.9212 1.5648 0.4065 3.2683 0.90733 3.7856 1.113 2.852 1.1338 9.5432 7.1296 9.9234 8.8923 0.38164 1.769-0.33081 2.6931-2.5873 3.356-2.3658 0.69497-3.5013 1.8281-5.5225 5.5108-3.1657 5.7681-7.2217 8.1619-13.858 8.1791-4.9607 0.0129-7.1248-1.1578-7.5831-4.1022-0.27858-1.7897-1.2407-3.1512-2.0165-2.8535-0.44889 0.17225-5.0623 20.017-5.0582 21.758 2e-3 0.76515 0.25763 0.99268 2.0088 1.7867 1.1037 0.50044 2.3904 1.3659 2.8593 1.9232s1.0234 1.0133 1.2321 1.0133c0.20871 0 2.918-2.5667 6.0207-5.7038 4.3355-4.3836 6.4189-6.2272 9.0012-7.9651 4.0364-2.7165 6.2426-4.615 6.935-5.9678 0.97431-1.9036 3.1089-4.114 9.3232-9.6542 6.5163-5.8095 7.5637-6.4591 8.7233-5.4097 1.4452 1.3079 0.466 3.144-3.7309 6.9951-1.8373 1.686-3.3023 3.0638-3.2556 3.062 0.0468-2e-3 0.805-0.22524 1.685-0.4963 4.3298-1.3337 6.2956-1.194 8.0624 0.57288 1.4094 1.4094 1.6904 2.9628 0.7519 4.156-0.86834 1.1039-2.4042 1.5269-5.5526 1.5291-3.4998 2e-3 -5.1973-0.49381-6.6469-1.9434l-1.2037-1.2036-13.466 12.629c-7.4061 6.946-13.466 12.683-13.466 12.749 0 0.0658 1.044 0.35944 2.32 0.65253 13.098 3.0085 24.946 4.2265 37.36 3.8408 6.2656-0.19469 6.607-0.17417 7.608 0.45705 2.013 1.2695 2.1408 3.5637 0.24252 4.3568-0.95306 0.39821-4.1101 0.32969-25.669-0.55712-22.926-0.94308-24.663-0.97618-25.782-0.49148-2.1778 0.94317-1.8485 1.6877 3.8896 8.7956 2.6275 3.2547 4.4895 5.2322 5.9062 6.2722 2.1963 1.6125 2.4442 1.9593 2.4442 3.4194 0 2.0157-2.4525 2.0189-5.1305 7e-3 -2.2-1.6531-3.9724-3.6955-8.4262-9.7104-4.094-5.5289-5.2331-6.4901-6.7371-5.6852-1.0987 0.58799-1.9771 2.8792-2.3977 6.254-0.54606 4.3814-0.95639 5.8484-1.8275 6.5336-0.42578 0.33492-0.93032 1.0569-1.1212 1.6044-0.43513 1.2482-1.3208 1.7724-2.1997 1.302-0.352-0.18838-0.64-0.62336-0.64-0.96661s0.65465-3.0052 1.4548-5.9154 1.3712-5.4264 1.2692-5.5916c-0.1021-0.16519-9e-3 -0.5824 0.20582-0.92714 0.26759-0.42849 0.29497-0.84299 0.0865-1.3101-0.33147-0.74285 0.30988-1.3367-8.8991 8.2398-3.0989 3.2225-2.8765 3.169-4.162 1.0012-0.49091-0.82783-0.47995-0.84272 4.4425-6.0374l4.9346-5.2075-1.4942-1.7307c-1.0105-1.1704-1.6535-1.6675-1.9862-1.5354-0.27057 0.10744-0.94504 0.27152-1.4988 0.36462-0.81458 0.13694-1.0462 0.0452-1.2131-0.48048-0.41986-1.3228-1.6572-1.4663-13.14-1.5233-11.076-0.055-14.995-0.32123-25.848-1.7562-6.1491-0.813-6.0511-0.78325-5.6298-1.7078 0.44495-0.97655 1.8395-1.7604 3.5318-1.985 0.76251-0.10123 10.457 0.55479 21.544 1.4578 11.086 0.90303 20.518 1.5523 20.96 1.4428 2.1979-0.54492 2.8745-2.837 1.5971-5.4106-0.35517-0.71556-2.6638-3.821-5.1304-6.901-7.2733-9.0823-17.857-24.611-20.685-30.349-1.1185-2.2696-0.82242-3.3634 0.9503-3.5107 1.0786-0.0896 1.3913 0.0851 3.1497 1.76 2.7483 2.6177 5.8182 6.5292 11.506 14.66 2.7086 3.872 6.0256 8.408 7.3711 10.08 2.8837 3.5834 7.4418 8.0552 9.8984 9.7108 1.5592 1.0508 1.7706 1.1164 1.9749 0.61302 0.27627-0.68085 11.133-49.994 11.132-50.564-5.1e-4 -0.2936-0.86218-0.4-3.2396-0.4-5.9076 0-12.906 1.3421-24.855 4.7662-11.004 3.1534-16.148 5.3255-20.662 8.7253-4.0383 3.0413-6.4959 6.5434-11.754 16.749-7.1718 13.921-10.03 22.835-10.413 32.48-0.21536 5.4218 0.2978 9.3149 1.833 13.906 1.195 3.5739 1.799 4.6173 5.1115 8.8301 3.6588 4.6532 4.577 6.795 3.9368 9.1836-0.20845 0.77784-0.60705 0.88202-1.4636 0.38258zm59.425-39.049c0-0.50288-1.8679-1.8283-2.9644-2.1035-0.41934-0.10525-0.92424-0.0296-1.122 0.1682-0.26607 0.26607 0.0443 0.73565 1.1938 1.8061 1.4271 1.329 1.6078 1.4104 2.223 1.002 0.36828-0.24453 0.6696-0.6373 0.6696-0.87282zm-14.117-2.62c-0.0206-0.25801-3.3217-4.2682-7.3358-8.9114-4.0142-4.6433-7.3453-8.5023-7.4026-8.5757-0.0573-0.0733-0.16187-0.0733-0.23239 0-0.0705 0.0733 1.9815 3.0168 4.56 6.541s5.6675 7.7489 6.8645 9.3882c2.1044 2.8821 2.1995 2.9648 2.88 2.5037 0.38705-0.26224 0.6869-0.68789 0.66634-0.9459zm68.206-45.834c1.4759-1.496 2.8358-2.72 3.0219-2.72 0.47992 0 1.6064-1.9454 1.6078-2.7768 1e-3 -0.7533-1.3718-2.0232-2.1876-2.0232-0.27638 0-1.589 1.1246-2.9168 2.4992s-3.1716 3.1816-4.0973 4.0156c-1.8193 1.6393-1.87 2.1456-0.3234 3.2289 1.3678 0.95805 2.072 0.63818 4.8954-2.2236zm-14.558-5.9404c0.26547-0.49604 0.25294-0.78159-0.0503-1.147-0.55983-0.67456-18.709-13.617-22.032-15.712-3.2538-2.0508-4.2784-2.1437-4.418-0.40048-0.0874 1.0918-7e-3 1.1756 3.2 3.325 1.8093 1.2127 5.9848 4.0644 9.2787 6.3371 7.4257 5.1233 12.4 8.2536 13.12 8.2561 0.3018 1e-3 0.7078-0.29532 0.9022-0.65857zm-32.346-10.105c0.70705-0.14141 1.1241-0.46403 1.3444-1.04 0.25074-0.65557 0.58011-6.5472 0.61754-11.046 6e-3 -0.70927-0.5496-1.1369-1.4858-1.1439-1.2003-9e-3 -1.7579 0.7652-2.4209 3.3608-0.35883 1.4049-0.85669 2.7816-1.1064 3.0595-0.25391 0.2826-0.45391 1.1586-0.45391 1.9882 0 0.81562-0.288 2.2136-0.64 3.1066-0.352 0.89304-0.64 1.6904-0.64 1.7718 0 0.22153 3.6074 0.17867 4.785-0.0568zm40.21 100.92-0.80106-0.72 2.1822-3.36c3.3701-5.1889 6.9452-11.959 7.4881-14.181 1.3987-5.7232 1.5043-6.7082 1.5002-13.992-4e-3 -7.7879-0.28342-9.7472-1.7654-12.399l-0.76881-1.3756 0.78507-0.29848c0.65614-0.24946 0.78507-0.51262 0.78507-1.6023 0-1.3217 0.73949-3.192 1.262-3.192 1.4488 0 2.4076 1.7335 2.1273 3.8464-0.1098 0.82766-0.0465 2.5688 0.14075 3.8692 0.67239 4.6705 1.5775 14.577 1.5754 17.244-2e-3 2.1006-0.18615 3.2301-0.81042 4.96-0.4446 1.232-1.1653 3.3404-1.6015 4.6854-1.103 3.4007-5.1825 11.507-7.1363 14.181-2.2888 3.1317-3.4616 3.6833-4.9627 2.3341zm23.805-20.608c-2.8663-0.43231-4.9356-1.2268-6.1134-2.3472-1.3925-1.3247-1.4988-1.6999-0.68663-2.4249 3.2828-2.9305 6.1227-2.6787 8.5374 0.75695 0.82857 1.1789 0.90597 1.456 0.56105 2.0083-0.22007 0.35238-0.31085 0.78515-0.20174 0.9617 0.2422 0.39189-0.43704 1.2696-0.93589 1.2094-0.19845-0.024-0.72082-0.0979-1.1608-0.16423zm-158.08-13.833c-0.9077-0.24658-1.9187-1.9827-1.9195-3.296-7.95e-4 -1.371 0.70001-1.7733 3.5244-2.0233 3.1175-0.27597 3.5876 0.0107 4.3568 2.6567 0.56889 1.9569 0.51553 2.0513-1.4817 2.6208-1.2451 0.35504-3.2578 0.37383-4.48 0.0418zm8.96-17.849c-2.9564-0.98385-3.84-1.4963-3.84-2.2269 0-1.4661 1.0263-2.0428 3.6353-2.0428 1.2954 0 3.0455-0.0946 3.8889-0.2102l1.5336-0.2102-0.22416 1.4018c-0.25899 1.6196-0.89367 2.4491-2.3434 3.0627-1.0524 0.44541-1.7988 0.50894-2.6503 0.22557zm28.186-1.9428c-4.8534-0.0641-7.6444-0.22343-7.92-0.45213-0.53776-0.4463-0.55421-2.0145-0.02552-2.4332 0.45373-0.35928 10.061-0.87622 14.612-0.78626 3.8431 0.076 4.5852 0.47718 4.4452 2.4034l-0.09748 1.3412-1.76 0.0129c-0.968 7e-3 -5.1325-0.0316-9.2545-0.086zm176.13-0.80119c-3.52-0.14948-10.962-0.32175-16.538-0.38284-9.9748-0.10928-10.161-0.12335-11.518-0.87223-1.9705-1.087-2.2312-1.8312-1.9806-5.6552l0.20989-3.2027 2.9912-0.22426c2.0202-0.15146 4.576-0.0556 7.8736 0.2952 2.6854 0.2857 6.8264 0.66431 9.2024 0.84135 7.9117 0.58953 16.444 1.4697 16.49 1.7011 6e-3 0.0296 0.68587 0.86386 1.5111 1.8539l1.5004 1.8 4.7294 0.02c11.022 0.0466 23.146-1.1525 27.235-2.6937 1.1737-0.44232 3.5387-1.2904 5.2556-1.8846 1.7169-0.59423 3.5526-1.3873 4.0793-1.7624 1.2584-0.89609 2.5521-0.74186 3.1784 0.37891 1.169 2.0922-1.3057 3.9393-8.4593 6.3142-7.4797 2.4831-10.807 2.9522-25.12 3.5408-8.5274 0.35072-10.979 0.3427-20.64-0.0675zm-148.32-2.0678c-1.2487-0.44628-1.6968-2.2336-0.75574-3.0147 0.40737-0.33809 1.7451-0.41415 6-0.34111 6.1061 0.1048 6.4554 0.15778 6.9338 1.0516 0.53505 0.99974 0.0656 1.8328-1.2365 2.1945-1.202 0.33386-10.066 0.4227-10.942 0.10967zm150.08-8.7513c-2.024-0.3184-3.716-0.58965-3.76-0.60277-0.20787-0.062-0.0498-14.723 0.16-14.844 0.31718-0.1818 7.6406 0.62822 8.068 0.89238 0.21406 0.13229 0.332 2.8699 0.332 7.7063 0 6.9448-0.0415 7.4984-0.56 7.4639-0.308-0.0205-2.216-0.29775-4.24-0.61615zm-12.48-0.96529c-5.203-0.63678-7.883-0.93628-8.4-0.9387-0.51629-2e-3 -0.56-0.55246-0.56-7.0482v-7.0456l7.92 0.0856c7.7391 0.0836 7.9164 0.10021 7.76 0.72559-0.088 0.352-0.16 3.7721-0.16 7.6002v6.9602l-2.24-0.0422c-1.232-0.0232-3.176-0.1568-4.32-0.29681zm-19.542-2.1413c-0.012-0.66-0.20627-3.648-0.43182-6.64-0.34709-4.6042-0.342-5.5138 0.0331-5.92 0.33356-0.36124 1.3904-0.50813 4.2718-0.5937l3.8286-0.11371v14.06l-1.4847 0.2035c-0.81656 0.11192-2.5446 0.20349-3.84 0.20349h-2.3553zm-24.159-9.0916c0.2516-3.199 0.77096-21.335 1.0997-38.402 0.11075-5.7497 0.28751-10.54 0.39279-10.645 0.19781-0.19718 9.1922 0.65413 11.158 1.0561 1.7242 0.35256 1.9337 1.5103 2.266 12.523 0.15665 5.192 0.35667 11.816 0.44448 14.72 0.0878 2.904 0.54053 9.2165 1.0061 14.028 0.47178 4.876 0.72416 8.8607 0.57022 9.0029-0.15191 0.14032-4.0778 0.3566-8.7243 0.48063l-8.4481 0.2255zm53.781-6.2142c-2.816-0.23037-10.833-0.51547-17.815-0.63356-14.574-0.24648-12.848 0.25819-13.243-3.8728l-0.21939-2.2922 1.8786-0.1979c1.0332-0.10884 2.9285-0.33737 4.2117-0.50785 1.2832-0.17047 3.3049-0.30995 4.4928-0.30995 1.1878 0 2.9738-0.21205 3.9688-0.47122 1.5337-0.39948 1.9702-0.40567 2.8672-0.0407 0.84026 0.34192 2.2768 0.37641 6.9781 0.16754 3.256-0.14465 6.208-0.34444 6.56-0.44398 0.352-0.0995 2.0042-0.0709 3.6716 0.0637l3.0316 0.24464 0.55096 1.44c0.54943 1.436 0.76766 5.2087 0.38408 6.64-0.22344 0.83377 0.1289 0.82346-7.3183 0.21424zm4.9456-1.9742c-8e-3 -0.66-0.22521-1.632-0.48283-2.16l-0.4684-0.96 0.15931 1.28c0.0876 0.704 0.16089 1.676 0.16283 2.16 2e-3 0.484 0.14752 0.88 0.32352 0.88s0.31351-0.54 0.30557-1.2zm-183.68-1.3116c-1.5864-1.0165-2.2193-1.6761-2.9635-3.0884-1.4534-2.7581-1.4151-3.5098 0.20121-3.9499 1.1612-0.31623 2.049 0.0779 4.0892 1.8151 0.92343 0.78629 1.3032 1.3921 1.4506 2.314 0.10983 0.68685 0.39772 1.4132 0.63976 1.614 0.63803 0.52951 0.5412 1.1397-0.27113 1.7087-0.99634 0.69786-1.519 0.62918-3.1461-0.41343zm-16.063-27.431c-1.3484-0.73154-1.1462-1.7204 0.70629-3.4532 1.4335-1.3409 1.734-1.4833 3.12-1.4789 2.5438 8e-3 2.5443 0.2603 0.0054 2.969-1.2714 1.3565-2.4557 2.4605-2.6317 2.4534-0.176-7e-3 -0.716-0.22777-1.2-0.49035zm57.04-0.6864c-0.79469-0.29619-6.194-4.1245-6.8584-4.8627-0.61114-0.67918-0.61114-0.70201 0-1.9573l0.61836-1.2701 3.2991 2.3843c1.8145 1.3114 3.5785 2.473 3.92 2.5813 0.75783 0.24052 0.84962 0.78292 0.44577 2.6339-0.15594 0.71474-0.50293 0.8342-1.4249 0.49057zm38.896-6.5827-5.1044-4.5444 1.4244-0.19976c0.7834-0.10986 3.1884-0.30326 5.3444-0.42978l3.92-0.23004v4.9881c0 2.7434-0.108 4.9818-0.24 4.9742-0.132-8e-3 -2.537-2.0588-5.3444-4.5583zm-34.934 0.27483c-4.3046-2.3504-4.602-2.588-4.602-3.6779 0-1.938 1.539-2.117 4.32-0.50249 1.056 0.61308 2.676 1.5054 3.6 1.9828 1.4322 0.74008 1.68 1.003 1.68 1.7825 0 1.0597-0.44476 2.0161-1.0311 2.2173-0.22489 0.0772-2.01-0.73387-3.9669-1.8024zm-66.362 0.77731c-0.67192-0.67191-0.78726-1.198-0.3951-1.8022 0.42593-0.65621 5.6101-4.5978 6.0472-4.5978 0.23533 0 0.71918 0.2913 1.0752 0.64733 0.85026 0.85025 0.63252 1.2235-2.3869 4.0917-2.5533 2.4254-3.293 2.7085-4.3404 1.661zm201.03-1.4581c-1.0318-0.7227-0.94924-2.1702 0.16879-2.9595 2.0433-1.4425 4.704-2.5488 5.454-2.2677 0.57929 0.21713 0.67005 0.39424 0.43061 0.84025-0.2742 0.51076-4.9559 4.8851-5.2283 4.8851-0.0626 0-0.43393-0.22416-0.82509-0.49814zm-1.92-5.44c-1.4123-0.9892-0.94159-1.818 1.9562-3.4446 1.4671-0.82349 2.821-1.4972 3.0086-1.4972 0.18763 0 0.63467 0.46361 0.99344 1.0302 0.77433 1.223 0.5635 1.5948-1.2047 2.1245-0.69459 0.20811-1.6678 0.80741-2.1628 1.3318-1.0162 1.0767-1.5657 1.1732-2.5908 0.45528zm52.769-0.81936c-3.0029-1.4612-3.744-2.3955-2.7614-3.4812 0.76642-0.84689 0.95992-0.82421 3.7274 0.43699 2.7387 1.2481 3.3056 1.793 3.0257 2.9083-0.37721 1.5029-1.1298 1.5285-3.9917 0.13589zm2.4953-4.2097c-1.8491-1.2461-2.3101-2.7934-1.2962-4.3504 0.26357-0.40476 1.1082 0.0425 4.4352 2.3484 0.20859 0.14457-0.5988 2.2398-0.94868 2.4619-0.63635 0.4039-1.0318 0.32088-2.1903-0.45981zm-222.11 0.0638c-0.29307-0.16401-0.95973-0.99196-1.4815-1.8399s-2.1928-2.6836-3.7135-4.0792-3.0339-2.9865-3.3626-3.5353l-0.59772-0.99776 1.1643-0.59656c0.99341-0.50901 2.0885-0.61263 7.4614-0.70598l6.2971-0.10942 0.53284 0.81321c0.96183 1.468 0.14551 4.3036-1.7602 6.1143-0.55569 0.528-1.428 1.6896-1.9384 2.5812-1.2079 2.1101-1.9077 2.7436-2.6016 2.3553zm196.37-4.0482c-0.528-0.27297-2.3569-1.5043-4.0642-2.7363-2.3717-1.7114-3.1524-2.4592-3.3083-3.1692-0.37918-1.7264 0.0357-1.863 5.6596-1.863h5.0887l0.32983 0.8675c0.47171 1.2407 0.12552 2.2096-1.2826 3.5899-0.96235 0.9433-1.1981 1.3874-1.0758 2.0268 0.0861 0.45034 0.0342 1.0352-0.11533 1.2997-0.24122 0.42666-0.38006 0.42492-1.2319-0.0154zm-178.56-2.3348c-1.7054-0.34139-4.5359-1.4759-5.6353-2.2588-0.48817-0.3476-1.383-0.83902-1.9886-1.092-0.71799-0.3-1.1729-0.74645-1.3076-1.2833-0.11365-0.45282-0.72148-1.5399-1.3507-2.4158-0.62926-0.87588-1.9222-3.1795-2.8733-5.1191-0.95107-1.9396-1.9522-3.6121-2.2248-3.7167-1.2752-0.48932-2.5185 0.37233-4.4782 3.1034-2.2787 3.1756-7.9862 8.0409-11.041 9.4119-3.2682 1.4667-6.7787 2.1879-9.8745 2.0288-2.5346-0.1303-2.9914-0.26602-5.9456-1.7666-1.76-0.89403-3.661-2.107-4.2243-2.6954-1.0624-1.1096-2.3464-3.7063-3.6287-7.3386l-0.74444-2.1087-1.3691 0.29199c-1.6541 0.35278-2.8952-0.13528-3.6166-1.4223-0.46511-0.82976-0.44302-0.91364 0.50559-1.92 0.54557-0.57879 1.5631-2.1323 2.2612-3.4523 3.9994-7.5623 5.2923-9.406 10.248-14.615 1.9127-2.0101 2.7838-2.69 3.7679-2.9408 2.3056-0.58755 11.076-1.0891 12.977-0.74214 1.9778 0.36098 5.9831 0.14057 17.081-0.93995 6.4647-0.62944 7.7592-0.66968 10.88-0.33825 1.9483 0.2069 4.9823 0.4556 6.7423 0.55266 4.9884 0.27509 5.3728 0.36784 5.2032 1.2553-0.11419 0.59734 0.88862 1.9981 4.9093 6.8574 2.7791 3.3587 6.0661 7.5953 7.3045 9.4146 2.148 3.1556 3.1414 4.0558 4.476 4.0558 0.44318 0 0.62626 0.32395 0.76418 1.3522 0.0998 0.74373 0.0352 1.5284-0.14346 1.7436-0.53604 0.64588-2.483 1.1411-3.6358 0.92484l-1.0804-0.20269-2.2924 3.8874c-3.1311 5.3096-5.5184 7.7143-9.585 9.6548-3.9785 1.8984-7.0054 2.449-10.08 1.8335zm8.16-5.0012c0.792-0.36632 2.592-1.6713 4-2.8999 2.0802-1.8152 2.8449-2.7553 4.08-5.0158 0.836-1.5301 1.52-2.8482 1.52-2.9293 0-0.081-3.672-0.14735-8.16-0.14735-4.8009 0-8.16 0.12216-8.16 0.29677 0 0.16323 0.36434 0.58337 0.80966 0.93365l0.80966 0.63688-0.96966 1.529c-0.53332 0.84095-0.96966 1.7122-0.96966 1.9361s-0.95249 1.4992-2.1166 2.834-2.0642 2.4724-2 2.528c1.0857 0.94089 2.2416 1.1492 5.8766 1.0591 3.0754-0.0762 4.1267-0.22779 5.28-0.76119zm-41.157-1.8161c4.0365-1.8788 7.6078-4.8384 9.6249-7.9763l0.56569-0.88h-8.9968c-5.7845 0-8.9968 0.11425-8.9968 0.32 0 0.176 0.21055 0.32 0.46789 0.32s0.74205 0.612 1.0771 1.36l0.60924 1.36-0.83714 0.91864c-0.46042 0.50525-2.0244 1.8201-3.4754 2.9219l-2.6383 2.0032 0.87828 0.34016c1.5657 0.60638 2.1058 0.6609 5.6783 0.57315 3.2926-0.0809 3.683-0.16232 6.043-1.2608zm-20.199-12.687c1.0089-0.22111 7.0135-0.27432 17.76-0.15739 21.311 0.23188 35.907 0.23306 43.596 4e-3 3.432-0.10247 7.428-0.18388 8.88-0.18092 1.7064 3e-3 2.64-0.11881 2.64-0.34584 0-0.19318-1.2486-2.1732-2.7747-4.4-1.9626-2.8638-4.0009-5.2898-6.9642-8.2888l-4.1895-4.24h-1.567c-0.86185 0-3.74-0.22982-6.3958-0.5107-5.3198-0.56263-5.9407-0.53721-15.853 0.64915-7.9578 0.95246-10.55 1.0082-14.736 0.31682-3.7235-0.61507-4.997-0.46612-8.5344 0.9982-1.7823 0.73776-2.8385 1.0245-2.9729 0.80704-0.25642-0.41488-5.9397 5.6048-7.0518 7.4693-0.44051 0.7385-1.1941 1.8494-1.6747 2.4686-0.87266 1.1244-2.8062 5.0767-2.8062 5.7362 0 0.19173 0.252 0.27217 0.56 0.17877s1.2459-0.32016 2.0843-0.50389zm202.16 16.609c-3.412-0.89324-6.1372-2.2611-7.7054-3.8677-2.4415-2.5012-4.5557-5.204-5.1875-6.6318l-0.62011-1.4013-8.2622 0.29835-0.95565-1.4428c-1.2008-1.8129-1.1966-2.628 0.0298-5.7247 1.8283-4.6167 4.6209-8.8874 8.0675-12.338 1.7231-1.725 3.4965-3.2745 3.9408-3.4435 1.0122-0.38484 2.7325-0.39539 3.7126-0.0228 0.47763 0.18159 1.595 0.12426 3.0909-0.15861 1.2886-0.24366 6.0374-0.58633 10.553-0.76149 4.5154-0.17517 9.7939-0.52267 11.73-0.77222 3.5754-0.46089 16.89-1.0136 22.72-0.94318 6.9701 0.0842 9.3349 0.50318 11.214 1.9866 0.89321 0.70531 6.6988 7.6574 9.4135 11.272 3.7694 5.0195 4.758 9.5721 2.0786 9.5721-0.91169 0-1.7456 0.9665-1.7456 2.0232 0 0.60005-0.6611 1.603-2.2308 3.3843-2.9081 3.3002-3.532 3.7609-5.7088 4.2158-1.0012 0.20924-2.397 0.6453-3.1018 0.96903-3.1476 1.4459-9.3608 1.0464-13.759-0.88468-5.7621-2.53-5.9684-2.6662-9.7038-6.4027-3.4617-3.4628-4.5688-4.3008-4.0493-3.0649 0.60041 1.4284 0.51388 1.9312-0.53803 3.1266-0.58789 0.66806-1.3569 1.6873-1.7089 2.265-0.84915 1.3936-7.4069 6.5474-9.8794 7.7645-3.6273 1.7855-7.1617 2.0901-11.394 0.98218zm9.9867-4.0766c1.0083-0.3566 2.2733-0.96173 2.8112-1.3447l0.97795-0.69636-1.4548-1.2806c-0.80018-0.70434-2.0356-2.2749-2.7453-3.4902l-1.2905-2.2096-6.1459 4.3e-4c-5.4553 3.9e-4 -11.104 0.53098-11.669 1.0961-0.26625 0.26624 1.1742 2.9147 2.2885 4.2076 1.436 1.6662 4.2941 3.3469 6.8887 4.0507 2.7795 0.75399 7.7147 0.59488 10.339-0.33334zm39.656-3.1593c0.73154-0.1463 0.91114-0.35252 0.91114-1.0462 0-0.85515-1.1253-4.4399-1.9513-6.216l-0.42785-0.92-8.4904 0.21416c-4.6697 0.11778-8.8864 0.29122-9.3704 0.38542-1.9416 0.37787-0.86541 1.4253 5.0789 4.9435 2.6202 1.5508 3.9843 2.1392 5.9964 2.5864 2.5001 0.55573 5.6384 0.5758 8.2535 0.0528zm-68.369-8.2831c1.056-0.26292 4.728-0.61859 8.16-0.79037s8.904-0.54036 12.16-0.81907c4.3567-0.37294 7.6101-0.4505 12.32-0.29373 4.8518 0.1615 7.3289 0.0967 10.24-0.26805 5.1955-0.65091 11.559-0.87724 25.52-0.90766 6.468-0.0141 11.76-0.097 11.76-0.18421 0-0.24012-3.0807-4.7365-5.0328-7.3454-0.95035-1.2702-2.8348-3.3189-4.1876-4.5528-2.4542-2.2384-2.4638-2.2434-4.3335-2.2506-1.0306-4e-3 -2.7479-0.23373-3.8162-0.51055-1.2729-0.32984-2.7226-0.45103-4.2062-0.3516-1.2451 0.0834-5.1438 0.31156-8.6638 0.50694-3.52 0.19537-9.208 0.65257-12.64 1.016-5.6558 0.59891-9.928 0.8629-23.04 1.4237-2.376 0.10162-4.6341 0.24881-5.018 0.32708-0.96477 0.19671-4.9521 3.7188-6.9988 6.1821-0.93264 1.1225-2.1257 2.9225-2.6512 4-1.04 2.1323-2.0718 5.3259-1.7148 5.3077 0.12252-6e-3 1.0868-0.22652 2.1428-0.48945zm-88.797-38.055c-0.71597-0.8627 0.61275-3.6842 1.735-3.6842 0.19078 0 1.2304-0.57733 2.3104-1.283s2.1663-1.2051 2.4143-1.11c0.24792 0.0951 0.71921 0.6274 1.0473 1.1828l0.59652 1.0098-1.492 1.3508c-1.6453 1.4896-4.4324 3.0095-5.5186 3.0095-0.3839 0-0.8757-0.21413-1.0929-0.47585zm49.597-2.1293c-2.8365-1.756-3.2-2.1326-3.2-3.3149 0-0.93196 0.78366-2.08 1.4198-2.08 0.13718 0 1.3259 0.72 2.6416 1.6s2.5835 1.6 2.8173 1.6c0.24953 0 0.51832 0.55198 0.6509 1.3367 0.18402 1.0892 0.11864 1.4151-0.35304 1.76-0.91353 0.66798-1.7455 0.47929-3.9766-0.90186zm-54.72-2.5149c-1.5683-1.5683-0.38648-2.9532 4.32-5.0625l3.52-1.5776 0.38556 0.84001c0.21206 0.46201 0.48441 1.3311 0.60523 1.9312 0.27556 1.369-0.39428 1.9487-2.252 1.949-0.95494 1.3e-4 -1.8496 0.33898-3.3788 1.2798-1.144 0.7038-2.188 1.2797-2.32 1.2798s-0.528-0.28782-0.88-0.63982zm58.765-4.4569c-3.1412-1.1009-4.0257-1.6148-4.0404-2.3478-3e-3 -0.13459 0.4631-0.74575 1.0351-1.3581l1.04-1.1134 2.88 1.145c3.0545 1.2144 4.32 2.239 4.32 3.4979 0 0.69688-0.8145 1.4651-1.499 1.4139-0.14357-0.0108-1.8247-0.56755-3.7358-1.2373zm-29.836-3.5818c-0.33528-0.37329-2.1576-2.0417-4.0496-3.7076-3.3176-2.9211-3.7113-3.4943-3.2412-4.7194 0.47113-1.2277 1.7572-1.4543 8.2541-1.4543 6.9495 0 6.9072-0.01387 6.9072 2.2626 0 0.81129-0.30365 1.2975-1.458 2.3348-0.80191 0.72058-2.0549 2.1049-2.7844 3.0764-1.27 1.6911-2.422 2.8639-2.828 2.8791-0.10472 4e-3 -0.46472-0.2983-0.8-0.67159zm-28.29-5.2576c-2.677-0.73523-7.5131-3.7937-9.0495-5.7231-2.0416-2.564-4.0705-5.832-4.0705-6.5566 0-0.4776-0.20457-0.66397-0.7288-0.66397-0.40084 0-1.0625-0.23375-1.4704-0.51945-0.66024-0.46245-0.71726-0.68187-0.51966-1.9996 0.12208-0.81407 0.46945-2.1315 0.77194-2.9276 0.7605-2.0015 3.9984-7.6813 4.8679-8.5393 0.39347-0.38822 0.86921-1.0611 1.0572-1.4954 0.51264-1.1841 6.2264-5.2179 9.5642-6.7521 1.6157-0.74263 3.879-1.8032 5.0295-2.3568 2.601-1.2515 7.1611-2.0052 12.948-2.1401 2.288-0.05335 7.04-0.43014 10.56-0.83733 5.0554-0.5848 8.1183-0.74161 14.579-0.74641l8.1787-0.0061 2.0613 1.8381c1.1337 1.0109 3.6358 3.1378 5.5602 4.7264 5.7279 4.7283 12.528 12.534 13.151 15.096 0.17817 0.7326-8e-3 1.0664-1.2462 2.24-0.8847 0.83822-2.285 2.8553-3.5704 5.1431-2.3963 4.2649-4.7935 7.0588-7.163 8.3484-2.2502 1.2247-7.2848 2.4478-10.072 2.4468-2.7587-9.8e-4 -7.4155-1.1822-10.032-2.5448-5.5063-2.8671-6.6089-3.6606-7.8206-5.6281-0.64565-1.0485-1.4912-2.7343-1.879-3.7463s-0.76416-1.84-0.83636-1.84-0.62793 0.20752-1.235 0.46116c-0.92388 0.38602-1.3116 0.89869-2.3794 3.1463-1.3692 2.882-3.556 5.4469-6.0963 7.1506-0.792 0.53116-3.24 1.8199-5.44 2.8638l-4 1.8981-4.48 0.0735c-3.204 0.0526-4.9813-0.0641-6.24-0.40985zm10.673-4.3229c3.8447-1.2861 8.5185-3.5328 9.3496-4.4944 0.65348-0.75607 3.3376-4.9901 3.3376-5.2649 0-0.07784-1.7824-0.14152-3.9608-0.14152-3.3035 0-4.0337 0.0883-4.4 0.53204-0.34239 0.41478-0.35103 0.56171-0.0392 0.66667 0.7048 0.23722 0.43303 0.93008-0.90606 2.3099-1.6136 1.6627-2.9696 2.2514-5.1863 2.2514-2.2649 0-4.8234-1.2816-6.1928-3.1021-0.55526-0.73815-1.0631-1.5028-1.1286-1.6992-0.087-0.26102-0.84701-0.26584-2.8242-0.01792-1.4879 0.18656-3.825 0.3392-5.1936 0.3392-2.1637 0-2.4884 0.07362-2.4884 0.56427 0 0.7096 1.9537 3.6851 3.4814 5.3021 1.385 1.466 2.3513 2.0064 5.3186 2.9743 3.4196 1.1154 7.062 1.0415 10.833-0.2199zm46.647-2.2989c0.99-0.44622 2.3921-1.3462 3.1157-2 2.0024-1.8091 4.6753-5.7196 5.3053-7.7619l0.2221-0.72h-5.7424c-6.0852 0-6.7572 0.16195-6.3248 1.5242 0.25446 0.80171-1.7233 3.0884-3.4503 3.9894-2.3268 1.2138-6.5121 0.77154-8.4961-0.89786-0.52776-0.44408-1.1392-1.3043-1.3588-1.9116l-0.39927-1.1042h-2.9568c-1.6263 0-3.04 0.13451-3.1416 0.29891-0.47262 0.76471 0.92101 2.8872 3.2078 4.8856 2.1981 1.9208 2.65 2.1662 5.5069 2.9899 1.7118 0.49354 3.7603 1.0873 4.5523 1.3194 0.92515 0.27112 2.6413 0.38222 4.8 0.31073 2.7537-0.09119 3.6848-0.25765 5.16-0.92257zm-57-10.781c12.091-0.7896 16.031-0.98785 19.559-0.98427 2.0452 0.0021 5.7892-0.21242 8.32-0.47667 2.5308-0.26424 6.9054-0.54664 9.7214-0.62754 7.0317-0.20202 15.578-0.73441 18.08-1.1263 1.144-0.17917 4.132-0.42016 6.64-0.53554 3.2503-0.14952 4.56-0.32147 4.56-0.59868 0-0.57687-3.8312-5.2715-4.302-5.2715-0.22251 0-1.3298-0.9-2.4607-2-2.6088-2.5377-8.1105-7.0161-9.4969-7.7306-1.4885-0.76713-6.3573-1.2557-10.14-1.0175-1.76 0.11081-7.043 0.63318-11.74 1.1608-4.697 0.52765-10.673 1.015-13.28 1.0829-2.607 0.06797-5.4977 0.27784-6.4237 0.46637-2.1202 0.43164-11.703 5.7242-13.875 7.6632-1.3291 1.1865-7.6415 9.8465-7.6415 10.483 0 0.23133 3.6471 0.08867 12.48-0.48814z" fill="#010404"/></svg>
