<?xml version="1.0" encoding="UTF-8"?>
<svg width="94.009" height="94.009" version="1.1" xmlns="http://www.w3.org/2000/svg"><path d="m25.326 93.39c0-0.94646 2.1399-11.149 3.3938-16.181 2.9876-11.99 7.1449-23.782 10.392-29.479 1.1671-2.0475 1.1655-2.4296-0.01509-3.423-1.9044-1.6025-6.732-2.708-15.531-3.5568-8.7765-0.84659-14.56-3.7293-14.56-7.2573 0-1.2175 1.4913-3.3576 2.7891-4.0024 1.5563-0.77326 6.3042-0.78804 8.3232-0.02591l1.3523 0.51046 3.0297-3.2631c4.0136-4.3227 5.9749-6.8061 7.5793-9.5963 2.521-4.3845 3.3126-5.5156 5.3953-7.7097 2.4915-2.6246 5.0989-4.0364 7.4557-4.0368 1.318-2.182e-4 1.7515-0.18476 3.2-1.3625 3.5295-2.8696 8.2338-4.2517 13.515-3.9709 5.7474 0.30556 10.02 1.9772 13.72 5.3675 4.6644 4.2741 7.632 10.509 9.0462 19.006 0.84186 5.0579 0.77649 15.675-0.14186 23.04-0.37305 2.992-0.85115 7.6-1.0624 10.24-0.44896 5.6099-0.55579 23.63-0.18448 31.12l0.25776 5.2h-28.978c-28.434 0-28.978-0.01161-28.978-0.61882z" fill="#372d2b"/><path d="m58.2 12.47c-2.3573-0.0073-4.7817 0.395-5.9551 1.0195-0.46198 0.24589-1.5841 0.84261-2.4922 1.3262-2.2305 1.1877-4.4874 2.9415-5.6523 4.3906-0.73148 0.90995-0.99719 1.6161-1.1074 2.9453-0.20108 2.4248 0.08169 3.2736 1.2969 3.8984 0.56945 0.29282 1.7194 1.1461 2.5566 1.8965 2.0128 1.804 4.0743 2.9846 5.5371 3.1719 0.65425 0.08376 1.2648 0.22768 1.3555 0.31836 0.15591 0.15591 2.6594-0.12918 2.8984-0.33008 0.38316-0.32207-0.49354-0.77809-1.4922-0.77539-1.8283 5e-3 -5.0314-1.2589-6.1719-2.4355l-1.0098-1.041 1.3652-0.36719c0.7505-0.20209 2.5333-0.49068 3.9609-0.64258 3.6523-0.38861 7.3628-1.7882 10.838-4.0879 1.5907-1.0527 2.7969-3.104 2.7969-4.7539 0-2.4496-3.0828-4.2484-7.7227-4.5059-0.33015-0.01832-0.6652-0.0263-1.002-0.02734zm-7.5078 5.2578c0.60075 0.02018 1.1506 0.51631 2.3477 1.6348 0.93758 0.87598 1.9857 3.1315 1.623 3.4941-0.09101 0.09101-0.7902 0.24912-1.5527 0.34961-0.76253 0.10049-1.6907 0.38068-2.0645 0.62305-1.1677 0.75724-4.9273 0.82016-5.6816 0.0957-0.46166-0.44338 0.08924-2.4702 0.94922-3.4922 0.44221-0.52553 1.5938-1.407 2.5586-1.959 0.8549-0.48912 1.3531-0.76179 1.8203-0.74609zm18.904 7.9238c-1.4033-0.04705-2.3408 1.1389-4.1113 4.6777-4.0563 8.1077-10.467 13.651-19.619 16.967-2.4427 0.88507-3.3577 2.0493-5.2441 6.668-1.1164 2.7333-3.1367 8.9665-3.1367 9.6777 0 0.30959 0.38655 0.17397 4.6973-1.6504 10.525-4.4546 20.908-10.512 24.996-14.584 3.5023-3.4889 5.8694-9.673 5.9258-15.479 0.03613-3.721-0.67171-5.4772-2.4453-6.0625-0.38932-0.12849-0.73865-0.20399-1.0625-0.21484zm-55.523 9.377 1.0137 1.0137c0.55805 0.55805 1.3017 1.1678 1.6523 1.3555 0.35067 0.18767 3.4701 0.54177 6.9316 0.78711 7.576 0.53697 15.231 1.2948 18.934 1.873 1.496 0.23363 2.8744 0.44499 3.0625 0.46875 0.18806 0.02376 1.0966-0.181 2.0195-0.45508 3.4871-1.0356 1.1087-2.1998-6.4707-3.1641-5.3266-0.67766-14.582-1.3928-21.438-1.6582z" fill="#b8c4d7"/></svg>
