<?xml version="1.0" encoding="UTF-8"?>
<svg width="94.08" height="94.08" version="1.1" viewBox="0 0 94.08 94.08" xmlns="http://www.w3.org/2000/svg"><path d="m25.439 92.72c0.11861-0.748 0.85473-4.3398 1.6358-7.9817 3.1921-14.884 7.3655-27.791 11.675-36.11 0.68717-1.3263 1.2494-2.6652 1.2494-2.9753 0-2.2538-6.4155-4.1046-17.28-4.9853-8.0043-0.64882-14.441-4.2932-13.593-7.6955 0.28734-1.152 1.6224-2.8086 2.7213-3.3769 1.6286-0.84218 4.3573-0.91278 7.1377-0.18468l2.5062 0.65629 2.5902-2.7364c3.9366-4.1587 6.8375-7.7624 7.9619-9.8908 2.8691-5.4308 6.4098-9.6134 9.32-11.01 0.83852-0.40237 2.4225-0.81033 3.52-0.90657 1.6454-0.14429 2.1919-0.35038 3.1154-1.1748 1.7039-1.521 3.1136-2.2964 5.92-3.2563 2.2214-0.75979 3.0679-0.87687 6.4-0.88514 2.6451-0.006563 4.4872 0.1622 5.92 0.54237 10.962 2.9085 17.239 12.612 18.569 28.703 0.41545 5.0272 0.23018 9.3282-0.81965 19.028-1.2523 11.571-1.5325 18.098-1.3118 30.56 0.11066 6.248 0.29131 12.188 0.40144 13.2l0.20024 1.84h-58.056z" fill="#b8c4d7"/><path d="m25.439 92.72c0.11861-0.748 0.85473-4.3398 1.6358-7.9817 3.1921-14.884 7.3655-27.791 11.675-36.11 0.68717-1.3263 1.2494-2.6652 1.2494-2.9753 0-2.2538-6.4155-4.1046-17.28-4.9853-8.0043-0.64882-14.441-4.2932-13.593-7.6955 0.28734-1.152 1.6224-2.8086 2.7213-3.3769 1.6286-0.84218 4.3573-0.91278 7.1377-0.18468l2.5062 0.65629 2.5902-2.7364c3.9366-4.1587 6.8375-7.7624 7.9619-9.8908 2.8691-5.4308 6.4098-9.6134 9.32-11.01 0.83852-0.40237 2.4225-0.81033 3.52-0.90657 1.6454-0.14429 2.1919-0.35038 3.1154-1.1748 1.7039-1.521 3.1136-2.2964 5.92-3.2563 2.2214-0.75979 3.0679-0.87687 6.4-0.88514 2.6451-0.006563 4.4872 0.1622 5.92 0.54237 10.962 2.9085 17.239 12.612 18.569 28.703 0.41545 5.0272 0.23018 9.3282-0.81965 19.028-1.2523 11.571-1.5325 18.098-1.3118 30.56 0.11066 6.248 0.29131 12.188 0.40144 13.2l0.20024 1.84h-58.056zm16.699-30.657c10.525-4.4546 20.906-10.512 24.994-14.584 3.5023-3.4889 5.8702-9.6731 5.9266-15.479 0.03613-3.721-0.67239-5.477-2.446-6.0623-2.0764-0.68527-2.9948 0.10688-5.1739 4.4623-2.5569 5.1107-6.5436 9.7668-10.72 12.52-2.2422 1.478-6.3016 3.5073-8.8983 4.4482-2.4427 0.88507-3.3578 2.0485-5.2443 6.6671-1.1164 2.7333-3.1369 8.9673-3.1369 9.6786 0 0.30959 0.3878 0.17332 4.6985-1.651zm5.5033-21.921c3.4871-1.0356 1.1082-2.1981-6.4712-3.1624-5.3266-0.67766-14.581-1.3941-21.437-1.6595l-5.7059-0.22088 1.0146 1.0146c0.55805 0.55805 1.3015 1.1682 1.6522 1.3559 0.35067 0.18767 3.4697 0.54195 6.9313 0.7873 7.576 0.53697 15.231 1.2939 18.934 1.8721 1.496 0.23363 2.8739 0.44421 3.0619 0.46797 0.18806 0.02376 1.097-0.18105 2.0199-0.45512zm8.9502-8.9649c0.38316-0.32207-0.49228-0.77626-1.4909-0.77352-1.8283 5e-3 -5.0327-1.2597-6.1732-2.4363l-1.0085-1.0405 1.3646-0.36744c0.7505-0.20209 2.5326-0.49172 3.9603-0.64363 3.6523-0.38861 7.3634-1.7883 10.838-4.088 1.5907-1.0527 2.7973-3.1027 2.7973-4.7526 0-2.4496-3.0825-4.248-7.7223-4.5055-2.6412-0.14658-5.6167 0.27722-6.9577 0.99097-0.46198 0.24589-1.583 0.84271-2.4911 1.3263-2.2306 1.1877-4.4886 2.9413-5.6536 4.3904-0.73148 0.90995-0.99687 1.616-1.1071 2.9452-0.20108 2.4248 0.08126 3.2738 1.2964 3.8987 0.56945 0.29282 1.7204 1.1464 2.5576 1.8967 2.0128 1.804 4.0741 2.985 5.5369 3.1723 0.65425 0.08376 1.2637 0.22649 1.3544 0.31717 0.15591 0.15591 2.6594-0.12929 2.8984-0.33018zm-10.192-6.7502c-1.1745-0.23606-1.3842-0.57101-1.1474-1.8333 0.28404-1.5141 1.4476-2.832 3.575-4.0491 1.9541-1.118 2.0402-1.0996 4.1684 0.88873 0.93758 0.87598 1.985 3.1327 1.6224 3.4954-0.09101 0.09101-0.78936 0.24768-1.5519 0.34817s-1.6922 0.38101-2.066 0.62338c-0.74548 0.48344-3.3386 0.78032-4.6005 0.5267z" fill="#372d2b"/></svg>
