<?xml version="1.0" encoding="UTF-8"?>
<svg width="526" height="526" version="1.1" xmlns="http://www.w3.org/2000/svg"><path d="m68.259 518.25c0.32181-3.7125 1.2622-16.425 2.0898-28.25 2.9772-42.541 7.5539-84.939 11.28-104.5l1.7145-9-4.2507-12.618c-12.984-38.541-15.941-87.032-7.3566-120.65 5.0762-19.881 13.829-38.152 26.056-54.389 7.1502-9.4956 19.283-22.198 26.411-27.652l2.9077-2.2246-6.1048-12.732c-8.0933-16.879-10.252-24.757-10.929-39.89-0.58266-13.015-0.18188-16.298 2.2916-18.772 4.2224-4.2224 13.828 0.97071 21.639 11.698 1.0707 1.4706 1.2288-0.22117 0.93833-10.045-0.26715-9.0357 0.0154-12.686 1.2016-15.525 1.773-4.2434 5.4291-6.1256 9.9639-5.1296 3.4349 0.75443 10.723 7.1398 13.763 12.058 2.4868 4.0237 3.4481 3.7184 4.2683-1.3553 0.77294-4.7814 4.8466-10.804 8.6319-12.761 4.7104-2.4358 11.335-1.9589 14.941 1.0757 4.1819 3.5188 5.4163 8.6708 8.1958 34.205 1.2747 11.711 2.5618 21.687 2.8602 22.17s4.5883 0.0497 9.5331-0.9626c13.769-2.8188 26.859-3.9993 44.345-3.9993h15.933l0.67631-9.25c1.064-14.552 3.3511-27.403 6.6063-37.119 8.365-24.968 24.67-49.947 38.918-59.623 10.464-7.1062 19.885-8.6429 25.988-4.2393 3.6386 2.6254 8.0423 12.014 8.7214 18.594 0.32 3.1005 0.74816 5.6372 0.95147 5.6372s4.793-3.524 10.199-7.831c20.274-16.152 34.558-24.186 42.93-24.147 9.3221 0.043362 18.621 7.0865 24.263 18.377 2.461 4.9249 2.9526 7.1127 2.9236 13.011-0.0315 6.4085-1.5977 17.624-3.4689 24.84l-0.71305 2.75 6.8584 0.02196c15.834 0.0507 25.849 10.566 25.694 26.978-0.12147 12.873-3.9373 20.182-28.489 54.566-13.908 19.479-22.674 32.299-24.683 36.1-0.99195 1.8768-0.66022 2.7463 2.4798 6.5 10.252 12.256 20.999 31.656 26.249 47.387 5.4557 16.347 7.2219 27.21 7.816 48.074 0.86407 30.346-2.4789 54.599-11.194 81.21l-4.3792 13.372 1.8744 7.3287c5.3955 21.096 10.308 70.43 12.568 126.21l0.69891 17.25h-374.4z" fill="#443635"/><path d="m402.72 68.547c-1.7219-0.06811-5.9841 5.8689-14.367 19.953-6.7204 11.291-7.6582 12.474-7.1367 9 3.7675-25.098-0.0179-31.643-11.385-19.686-3.0396 3.1975-7.8898 9.3148-10.777 13.594l-5.25 7.7793-6e-3 -6.8438c-0.01-11.884-2.6243-17.193-7.5488-15.33-3.2724 1.2381-12.237 11.645-19.303 22.406-9.1661 13.96-13.523 26.729-9.6289 28.223 2.2134 0.84936 4.279-1.2891 7.5977-7.8633 3.006-5.9549 8.8011-13.128 11.982-14.83 1.26-0.67433 2.2167-0.49424 3.3359 0.625 1.2428 1.2428 1.5703 3.9479 1.5703 12.998 0 15.56 1.6492 15.344 12.055-1.5723 2.8757-4.675 7.9784-12.536 11.338-17.469l6.1076-8.9688 0.31055 5.4668c0.41313 7.2652-1.3556 20.147-4.4902 32.695-1.4047 5.6232-2.2908 10.911-1.9688 11.75 1.5299 3.9869 5.0997 0.16285 11.6-12.424 4.8396-9.3715 12.678-22.057 11.738-18.996-1.3226 4.3065-6.6767 29.111-7.2637 33.652-0.37023 2.8642-0.39192 5.94-0.0488 6.834 1.6736 4.3613 6.5911-2.5262 9.5-13.307 9.1974-34.086 15.018-65.945 12.35-67.594-0.0927-0.05729-0.19575-0.08921-0.31054-0.09375zm-90.846 84.729c-7.7537 0.047-21.698 1.9077-25.842 3.7402-4.794 2.1199-9.6215 6.0481-11.35 9.2344-1.2122 2.235 0.47669 5.55 3.4355 6.7422 6.1222 2.4667 20.346-0.18136 32.832-6.1152 6.5916-3.1325 8.8482-4.7165 9.3027-6.5273 0.82484-3.2864-0.8949-6.0696-4.1973-6.7949-0.93354-0.20504-2.3923-0.29015-4.1816-0.2793zm-114.88 20.725c-3.1209 0-9.1953 4.1764-9.1953 6.3223 0 0.6292 4.557 5.7158 10.127 11.305l10.127 10.162-4.877-1.0195c-2.6824-0.56087-12.077-1.0758-20.877-1.1445l-16-0.125-10.898 4.7949c-16.76 7.3728-20.74 10.818-32.109 27.805-6.5217 9.7435-7.479 12.778-7.4863 23.703-0.0117 17.44 5.0185 29.666 14.787 35.943 20.98 13.481 49.364 19.391 69.129 14.393 4.6038-1.1642 11.512-3.5642 15.352-5.334l6.9805-3.2188 7.9394 8.2441c11.331 11.765 12.832 16.335 8.4297 25.67-4.5014 9.5448-12.866 15.427-20.027 14.084-5.532-1.0378-8.9316-5.9321-11.518-16.584-1.5186-6.2554-1.702-6.5121-4.8926-6.8184-6.4013-0.61445-7.664 3.2057-4.2949 12.998 4.0276 11.706 8.9753 17.674 16.496 19.895 4.4736 1.3209 4.6784 1.5599 7.2383 8.3926 4.9191 13.13 9.2615 19.385 15.875 22.871 1.65 0.86985 4.7782 1.5991 6.9512 1.6211 3.5194 0.0357 4.5644-0.59049 9.5742-5.7422 3.0933-3.1809 7.3206-8.6934 9.3926-12.25 5.3182-9.1289 7.242-10.965 11.506-10.977 7.4369-0.0195 20.191-10.374 24.955-20.26 1.6539-3.4321 1.8681-4.9798 1.1348-8.2031-0.49719-2.1853-1.6844-4.5444-2.6387-5.2422-2.3979-1.7534-4.3508 0.17891-9.3047 9.2051-3.9821 7.2557-9.1202 12.755-13.092 14.016-6.3494 2.0152-12.06-2.244-18.324-13.668-5.853-10.674-5.1726-13.125 9.2383-33.279 6.7016-9.3725 7.1074-10.25 7.1074-15.33v-5.3867l-3.25 0.70703c-1.7875 0.38898-4.1378 1.3234-5.2227 2.0781-1.1417 0.79426-4.5191 1.373-8.0195 1.373-3.3262 0-9.2962 0.9-13.266 2-10.622 2.9436-10.889 2.7647-5.5801-3.75 5.329-6.5392 9.4199-14.925 11.857-24.309 4.5428-17.489-0.63871-30.86-16.994-43.857-7.3406-5.8333-7.4218-5.9477-4.6582-6.5547 2.5547-0.56112 2.8271-1.0425 2.9863-5.252 0.13273-3.509-0.4521-5.5831-2.4121-8.5449-2.4663-3.7269-2.5065-4.0023-0.85938-5.8223 1.646-1.8188 1.6332-1.9102-0.24414-1.9102-1.0844 0-7.851-2.925-15.037-6.5-7.4586-3.7105-14.37-6.5-16.105-6.5zm122.59 23.574c-11.709 0.0524-12.947 1.0975-24.281 9.9375-9.1985 7.1744-18.48 16.614-20.859 21.215-2.1062 4.073-4.0541 21.915-3.2891 30.121 0.32551 3.4913 1.7055 8.7794 3.0664 11.752 6.7041 14.644 33.287 33.974 52.123 37.9 8.7072 1.815 26.754 1.2765 34.459-1.0273 7.3925-2.2103 13.418-5.8222 19.846-11.895 6.3949-6.0418 9.323-10.806 12.711-20.684 5.7304-16.708 7.1064-32.636 3.5039-40.57-5.1955-11.443-32.722-30.844-49.574-34.941-4.8554-1.1804-11.561-1.7271-21.986-1.791-2.16-0.0132-4.0461-0.0251-5.7188-0.0176zm9.8008 9.6758c6.5803-0.0991 13.487 0.62667 18.918 2.1133 5.7144 1.5643 14.5 5.6717 14.5 6.7793 0 0.40927-2.4986 3.1077-5.5527 5.9961-5.7342 5.4232-13.743 16.649-14.713 20.621-0.69498 2.8475 1.6694 13.16 4.1367 18.037 6.7425 13.329 8.1942 15.209 13.971 18.09 3.1115 1.5516 7.9082 3.6363 10.658 4.6328 6.8351 2.4767 7.0574 2.8345 3.5762 5.7637-3.6112 3.0386-12.069 6.3667-21.076 8.293-9.1184 1.95-23.213 1.7335-30-0.46094-16.322-5.277-32.366-17.987-38.48-30.484-5.6996-11.65-5.2262-22.345 1.5859-35.84 4.3705-8.658 15.009-19.576 19.791-20.309 1.9817-0.30372 7.1952-1.271 11.584-2.1504 3.3234-0.66596 7.1534-1.0226 11.102-1.082zm-145.88 0.77734c9.4096-0.12587 19.546 1.4297 26.672 4.457l3.873 1.6465-9.5976 9.7676c-5.5644 5.6636-10.44 11.625-11.602 14.186-3.7794 8.3305-2.0944 20.939 3.8926 29.127 1.4926 2.0414 6.7291 6.9145 11.637 10.828 4.9077 3.9136 9.3156 7.4947 9.7949 7.959 1.294 1.2533-8.4717 5.8547-17.127 8.0684-10.151 2.5961-26.75 2.5241-37.687-0.16211-16.906-4.1518-31.073-13.705-35.465-23.914-4.8051-11.17-3.1745-24.896 4.1895-35.254 7.5629-10.637 21.431-20.102 36.074-24.621 4.3163-1.332 9.6999-2.0124 15.346-2.0879zm-67.312 107.96c-4.0626 0.0991-7.2929 5.8461-3.832 10.787 1.8363 2.6217 6.5589 2.9947 8.4883 0.66993 1.8587-2.2396 1.584-7.0941-0.5332-9.4336-1.3223-1.4611-2.7688-2.0565-4.123-2.0234zm273.71 11.01c-1.6225 0-3.6572 0.70798-4.5215 1.5723-2.1035 2.1035-2.0835 9.7739 0.0312 11.889 1.4709 1.4709 1.861 1.4518 4.7246-0.22071 6.1493-3.5913 5.9785-13.24-0.23432-13.24zm-243.95 1.502c-0.95583-2e-3 -1.7614 0.32689-2.8125 1.0156-3.026 1.9827-3.2055 7.6109-0.33398 10.482 1.1 1.1 2.675 2 3.5 2 2.8488 0 5.5-3.8093 5.5-7.9023 0-3.4823-0.34037-4.0208-3.166-5.0059-1.1093-0.38671-1.9441-0.58826-2.6875-0.58985zm205.22 9.875c-0.76989 5.3e-4 -1.5331 0.17729-2.2383 0.55469-3.5018 1.8741-2.3014 7.8839 1.873 9.375 0.825 0.29469 2.0995 0.34471 2.832 0.11328 0.73248-0.23142 1.6964-0.41992 2.1426-0.41992 1.4482 0 1.993-2.9559 1.0176-5.5215-0.95727-2.5178-3.3173-4.1032-5.627-4.1016zm-103.66 1.5098 5.6484 7.375c3.1072 4.0568 5.6504 7.7172 5.6504 8.1348 0 2.4076-7.5672 15.902-10.123 18.053-1.6672 1.4029-3.6679 2.5508-4.4473 2.5508-2.9161 0-12.398-15.777-12.42-20.666-6e-3 -1.3774 1.5374-3.3508 4.2402-5.4219 2.3375-1.7911 5.8694-4.7812 7.8496-6.6426zm-122.71 15.297c-1.1805 0.029-2.4793 0.6181-3.7949 1.8438-3.594 3.3484-4.0785 10.005-0.99805 13.717 1.5259 1.8386 4.1695 1.5376 7.1621-0.81641 2.1001-1.652 2.6348-2.9258 2.6348-6.2773 0-5.1996-2.0375-8.3586-4.7695-8.4648-0.0776-3e-3 -0.15568-4e-3 -0.23438-2e-3zm250.41 2.8164c-3.5088 0-6.0099 9.994-3.2031 12.801 1.4677 1.4677 2.864 1.5062 6.3633 0.17578 2.4604-0.93544 2.647-1.3755 2.1504-5.0781-0.56168-4.1876-3.0562-7.8984-5.3106-7.8984z" fill="#5dc8ef"/></svg>
