<?xml version="1.0" encoding="UTF-8"?>
<svg width="94.4" height="94.4" version="1.1" xmlns="http://www.w3.org/2000/svg"><path d="m4.4828 86.48c0.00287-7.76 0.34124-14.426 0.97869-19.28 0.38638-2.9423 1.428-7.4408 1.9477-8.412 0.48352-0.90347 0.19436-0.94969-1.4722-0.23532l-1.5135 0.64878 0.22125-1.3607c0.45224-2.7814 2.3819-9.7575 3.3297-12.038 0.53884-1.2963 1.5674-3.2179 2.2858-4.2702 0.71833-1.0524 1.2597-1.9551 1.2029-2.006-0.056708-0.05096-0.8591-0.41509-1.7831-0.80918-0.924-0.39409-1.68-0.78471-1.68-0.86805 0-0.08334 0.81032-1.3976 1.8007-2.9206 2.4162-3.7155 5.4592-7.5833 7.2996-9.2781 0.82959-0.76396 1.4614-1.4148 1.404-1.4464-0.05738-0.03155-1.1476-0.40075-2.4227-0.82044-5.8461-1.9242-10.177-6.5765-11.641-12.504-0.45022-1.823-0.56602-7.8334-0.1799-9.337 0.19515-0.7599 0.42855-0.88682 2.0598-1.12 1.0118-0.14464 3.5677-0.23761 5.6797-0.20659 7.782 0.11428 15.059 2.9996 20.903 8.2879l2.0139 1.8224 3.2286-3.6224 2.6129 2.3606 6.1367-6.5808 2.4429 2.5179c1.3436 1.3848 2.725 2.8698 3.0699 3.3l0.62699 0.78208 2.7589-2.2917 3.1324 3.4274 2.4571-2.1035c4.398-3.7651 9.354-6.2278 14.782-7.3455 2.9316-0.60363 8.6044-0.77557 11.572-0.35071l1.8167 0.26011 0.22523 2.1032c0.33578 3.1355-0.0097 7.3378-0.79715 9.6966-0.98175 2.9408-3.2145 6.0983-5.5733 7.8816-2.1641 1.6361-5.2311 3.2099-6.8481 3.514-1.2821 0.24113-1.3014 0.51023-0.10483 1.4612 1.7972 1.4282 7.051 8.3024 9.3932 12.29 0.12145 0.20678-0.53382 0.64706-1.6223 1.0901-1.0043 0.40874-1.8719 0.77849-1.928 0.82166-0.05604 0.04318 0.39818 0.73363 1.0094 1.5343 1.4073 1.8436 2.5387 4.2338 3.7306 7.8811 1.0896 3.3344 2.4439 9.5107 2.1498 9.8048-0.11072 0.11072-0.7862-0.03272-1.5011-0.31875-0.71486-0.28603-1.3435-0.52006-1.3969-0.52006-0.05341 0 0.23384 0.98675 0.63832 2.1928 1.3884 4.1396 2.1675 11.057 2.5359 22.516 0.11722 3.6458 0.11145 7.7138-0.01283 9.04l-0.22596 2.4113h-84.745z" fill="#372d2b"/><path d="m28.295 59.553c-1.8751-0.85162-2.4477-1.7534-4.5603-7.1821-2.289-5.8819-3.3219-9.6437-3.1918-11.624 0.11118-1.6927 0.67598-2.2321 1.9914-1.902 2.1544 0.54071 6.2619 6.6097 9.3806 13.86 1.8981 4.4126 2.3303 6.1981 1.6879 6.9722-0.57431 0.692-3.6705 0.6198-5.3077-0.12376zm31.385 0.05667c-2.1639-0.52716-2.2071-2.0385-0.18199-6.3601 2.5034-5.342 9.9992-15.571 11.729-16.005 1.2776-0.32067 2.1533 0.68829 1.974 2.2744-0.34594 3.0605-5.2052 14.167-7.6031 17.378-1.6395 2.1954-3.8611 3.2139-5.9175 2.7129zm-22.033-1.7044c-4.6786-1.1734-5.2942-5.3892-1.7737-12.145 1.6046-3.0794 3.8406-5.5976 6.7131-7.5602 2.0024-1.3682 2.4849-1.5598 3.9284-1.5598 2.0649 0 3.2684 0.79856 7.7869 5.167 2.3743 2.2955 3.4831 3.6317 4.0769 4.913 2.2287 4.8094-0.04041 8.4893-6.5382 10.603-1.7078 0.55563-3.0535 0.69594-7.52 0.78408-2.992 0.05904-5.995-0.03185-6.6733-0.20198zm6.1822-5.5721c0.64134-0.77277 1.1016-5.1657 0.65438-6.2454-0.83706-2.0208-2.0272-1.4703-2.5802 1.1935-0.44534 2.1452-0.24234 4.0616 0.5194 4.9033 0.66764 0.73774 0.8973 0.76199 1.4064 0.14852zm6.1215-0.87015c0.24025-0.4489 0.30603-1.4945 0.18493-2.9391-0.19915-2.3755-0.91648-3.5569-2.2953-3.7804-0.57429-0.09308-0.64974 0.09993-0.73484 1.8799-0.07329 1.5327 0.06281 2.2965 0.59872 3.36 1.2019 2.3851 1.6159 2.6578 2.2465 1.4796zm-17.781-12.438c-6.2846-1.0753-8.7537-5.6146-6.1488-11.304 1.7594-3.843 4.52-5.6964 8.6998-5.8407 1.408-0.04861 2.74-0.0955 2.96-0.1042 0.59752-0.02364 0.48908-0.65358-0.4-2.3237-0.84393-1.5853-0.98921-2.3374-0.50888-2.6343 0.864-0.53398 2.2214 1.3298 3.2253 4.4286 0.22211 0.68555 1.167 2.0766 2.0998 3.0912 1.9159 2.084 2.2695 3.3112 1.9829 6.8821-0.43398 5.4065-5.7124 8.8657-11.91 7.8052zm6.2636-4.8714c1.5686-1.0479 2.2701-2.5831 2.1185-4.6361-0.27989-3.7899-4.2326-5.0374-7.5638-2.3873-0.63105 0.50203-1.4015 1.0074-1.7122 1.1231-0.88205 0.32839-1.3042 1.7861-0.90522 3.1258 0.90289 3.0317 5.3743 4.5704 8.0627 2.7745zm15.417 3.2961c-1.6537-0.39301-4.4902-1.8973-5.6628-3.0033-2.466-2.3258-2.2524-5.3572 0.92708-13.156 2.1272-5.218 2.9181-6.4904 3.819-6.1446 0.79318 0.30437 0.60784 1.3443-0.75975 4.2626-0.90521 1.9317-1.1516 2.7465-0.86391 2.8569 0.22137 0.08495 1.4032-0.22941 2.6264-0.69857 3.2293-1.2387 6.4583-1.2525 8.5331-0.03658 2.7405 1.6061 4.0908 4.0748 4.0908 7.4789 0 1.5018-0.19458 2.5512-0.64594 3.4836-0.95307 1.9688-3.2646 4.1626-5.014 4.7587-1.5575 0.53069-5.2189 0.63393-7.05 0.19878zm4.1435-3.7483c3.1925-1.2582 4.7265-2.8518 4.7265-4.9102 0-1.9861-2.9593-3.811-5.1576-3.1805-3.0677 0.87982-4.7728 2.3905-4.7554 4.2133 0.01062 1.1121 1.1083 3.3043 1.9495 3.8935 0.94125 0.65928 1.5306 0.65634 3.237-0.01616z" fill="#eb5171"/></svg>
