<?xml version="1.0" encoding="UTF-8"?>
<svg width="75.145" height="75.145" version="1.1" xmlns="http://www.w3.org/2000/svg" xmlns:xlink="http://www.w3.org/1999/xlink"><defs><linearGradient id="a" x1="8.5318" x2="55.718" y1="74.987" y2="19.908" gradientUnits="userSpaceOnUse"><stop stop-color="#dcddde" offset="0"/><stop stop-color="#a2a4a7" offset=".1831"/><stop stop-color="#e8e9ea" offset=".77006"/><stop stop-color="#c8c9cb" offset="1"/></linearGradient></defs><g><path d="m8.833 72.745c0.81542-4.3012 2.3997-15.851 2.9133-21.239 0.86361-9.0602 0.49875-14.71-1.0066-15.587-2.3076-1.3443-3.7773-2.5477-4.8531-3.9735-0.68682-0.91034-1.2495-1.8265-1.2504-2.0359-0.0026-0.59434 3.1367-1.2085 4.8928-0.95721 1.5522 0.22212 1.5562 0.22026 0.73311-0.34523-1.4115-0.96973-3.0005-2.5597-4.0098-4.0124l-0.96727-1.3922 0.75059-0.42197c0.41283-0.23208 1.8113-0.42492 3.1077-0.42853l2.3571-0.0066-1.4742-1.3729c-1.0769-1.0028-1.4445-1.5797-1.364-2.1403 0.20607-1.4346 3.8321-3.1753 5.963-2.8626 0.5134 0.07535 0.93346 0.09278 0.93346 0.03872s-0.45277-0.98928-1.0062-2.0783c-1.545-3.0403-2.5587-7.0546-2.0032-7.9329 0.41222-0.6518 1.7676-0.2361 3.1298 0.95993 0.6191 0.54358 1.2165 0.98832 1.3275 0.98832 0.11104 0-0.0077-0.55862-0.26376-1.2414-0.7436-1.9823-0.89348-3.0302-0.53045-3.7085 0.73237-1.3685 2.1956-1.1525 4.0926 0.60413l0.93944 0.8699-0.2273-1.5397c-0.19266-1.3051-0.12143-1.6456 0.46746-2.2345 0.86096-0.86096 1.238-0.86563 2.6049-0.032231 1.2954 0.78982 3.218 3.6712 4.7006 7.045l1.0808 2.4593 3.1887 0.20928c5.3724 0.35261 11.09 1.8769 15.329 4.0865 3.1581 1.6462 7.2406 5.0703 10.806 9.0628 2.9812 3.3387 3.2157 3.5202 7.033 5.4419l3.949 1.988-0.67188 1.358c-0.36954 0.7469-1.002 1.6666-1.4054 2.0438-2.4031 2.2469-8.0355 4.546-13.849 5.6533l-3.1049 0.59136-0.10529 2.7887c-0.05791 1.5338 0.0621 4.2039 0.2667 5.9336 0.46375 3.9206 2.5937 14.56 4.1362 20.661 0.64045 2.5331 1.1645 4.7303 1.1645 4.8828 0 0.15242-10.852 0.27714-24.114 0.27714h-24.114z" fill="url(#a)"/><path d="m19.948 36.06c-0.96967-0.29483-1.0335-0.39065-0.66207-0.99337 0.35272-0.57231 0.68354-0.64897 2.3289-0.53964 2.0377 0.1354 2.9507 0.62609 2.3264 1.2504-0.50914 0.50914-2.7311 0.66641-3.9933 0.28263zm24.841-0.3225c-8.6885-1.1581-19.65-6.7234-24.343-12.359-2.7306-3.2792-3.3976-5.0421-3.3976-8.9789 0-4.0532 0.8124-7.0177 2.0052-7.3171 0.78709-0.19755 3.1258 0.72325 3.1258 1.2307 0 0.16132 0.12176 0.29332 0.27058 0.29332s0.52884-0.81931 0.8445-1.8207c0.33128-1.0509 0.7672-1.8207 1.0311-1.8207 0.25144 0 1.5728 1.315 2.9364 2.9222 3.1204 3.678 4.3664 4.7698 6.9067 6.0521 4.0981 2.0687 9.6684 5.8373 16.438 11.121 3.5529 2.7731 3.863 3.3276 3.589 6.4169-0.24001 2.7061-0.92884 3.8417-2.4639 4.0617-2.7573 0.39518-4.9906 0.45918-6.9427 0.19897zm-2.5205-6.96c3.1464-1.1921 3.1687-4.3732 0.04184-5.9684-1.455-0.74228-5.7631-1.2326-7.3441-0.83578-1.7445 0.43785-2.4595 3.3796-1.0465 4.3054 1.1328 0.74227 1.2555 0.69168 1.9442-0.80201 1.2799-2.7757 3.1303-2.3521 4.04 0.92478 0.75294 2.7121 0.75986 2.7291 1.1127 2.7291 0.17593 0 0.73923-0.15889 1.2518-0.35309zm17.649 6.5261c-1.737-0.71353-1.8249-0.80786-1.9131-2.0535-0.12197-1.7235 0.8467-3.5114 2.0813-3.8416 1.3844-0.37025 9.4318 1.3513 9.4318 2.0178 0 0.41195-2.4979 2.5891-4.233 3.6895-1.8191 1.1536-2.9219 1.1922-5.367 0.18788zm-47.396-2.537c0.69949-1.2188 2.7172-1.8214 6.0168-1.7969 2.9772 0.02212 5.0505 0.62365 4.8948 1.4201-0.09405 0.48123-0.58809 0.53308-4.0737 0.4276-2.8941-0.08758-4.4282 0.017-5.6733 0.38677l-1.7066 0.50681z" fill="#040404"/></g></svg>
