<?xml version="1.0" encoding="UTF-8"?>
<svg width="83.2" height="83.2" version="1.1" xmlns="http://www.w3.org/2000/svg"><path d="m8.7411 74.32c0.29064-12.682 1.1847-21.251 2.9833-28.595l0.83154-3.3952-3.8333-14.65 3.8786-1.2465c2.1333-0.68556 3.925-1.2839 3.9817-1.3297 0.05669-0.0458-0.63546-0.99689-1.5381-2.1135-4.414-5.4604-5.4551-9.903-2.7916-11.913 1.5011-1.1327 3.1537-1.4737 7.1512-1.4757l3.5646-0.00178 1.617-3.3107c1.685-3.4498 3.3097-5.3293 4.6069-5.3293 0.95274 0 3.6412 2.877 5.1778 5.541l1.2508 2.1684 0.70615-2.2272c1.2493-3.9403 3.3591-6.4422 5.4328-6.4422 1.9676 0 4.3994 3.2001 5.3985 7.104l0.42347 1.6547 1.3662-2.3392c1.7541-3.0034 4.0884-5.4595 5.1889-5.4595 1.4492 0 3.4018 2.4521 5.0696 6.3664l0.90054 2.1136 4.2662 0.16539c4.8744 0.18897 6.3053 0.67181 7.5701 2.5546 0.6137 0.9135 0.71749 1.3807 0.56294 2.534-0.32008 2.3886-2.2313 5.9181-5.1328 9.479l-0.79285 0.97302 3.6896 1.107c2.0293 0.60884 3.8204 1.185 3.9803 1.2803 0.15986 0.09531-0.57417 3.4793-1.6312 7.52l-1.9218 7.3467 0.62902 2.4c2.0777 7.9273 3.2328 19.387 3.2328 32.075v6.3255h-66.022z" fill="#221e1f"/><path d="m58.453 50.667c-0.39232-0.39232-0.21927-1.3084 0.38908-2.0597 0.53168-0.6566 0.70075-0.69914 1.44-0.36231 0.97849 0.44583 1.0869 1.3505 0.25239 2.1058-0.59415 0.5377-1.6931 0.70467-2.0815 0.31626zm-33.369-0.5634c-0.39325-1.0248 0.01701-1.9412 0.91535-2.0445 0.78873-0.09075 0.88-6.5e-4 0.88 0.86874 0 0.6315-0.216 1.0856-0.61896 1.3013-0.8137 0.43548-0.96742 0.41909-1.1764-0.12547zm-5.1956-4.2633c-0.38553-0.73574 0.06047-1.8648 0.91788-2.3237 1.5196-0.81326 2.1267 0.51902 0.92982 2.0406-0.76864 0.97716-1.4309 1.0786-1.8477 0.28315zm42.808-0.26817c-0.62675-0.75519 0.33728-2.1954 1.5478-2.3123 1.3003-0.12558 1.6401 0.5584 0.8233 1.6572-0.68739 0.9247-1.875 1.2528-2.3711 0.6551zm-20.617-0.32788c-0.352-0.27264-1.4626-0.91539-2.468-1.4283-2.9701-1.5154-3.0237-2.4016-0.23141-3.8261 1.5676-0.79976 2.3923-0.7914 4.6874 0.04747 2.2343 0.81667 3.1235 1.5744 2.8228 2.4055-0.21453 0.59302-3.461 3.327-3.9275 3.3074-0.13379-0.0056-0.53126-0.23324-0.88326-0.50588zm-15.52-5.5737c-0.616-0.12216-1.5-0.37629-1.9645-0.56473-1.2826-0.52037-3.1555-2.294-3.1555-2.9882 0-0.59473 0.03218-0.59264 0.91401 0.05932 1.1031 0.81553 4.3882 1.2109 5.4297 0.65356 1.0609-0.56777 1.6434-2.02 1.8658-4.6521 0.23129-2.7362 0.08432-3.0455-1.9481-4.1001-0.85838-0.44542-1.9474-0.68682-3.1989-0.70911-1.0436-0.01859-1.9484-0.18657-2.0107-0.37328-0.23177-0.6953 0.89876-1.1185 3.8984-1.4592 4.0348-0.45832 6.0991-0.03836 7.9336 1.6139 4.4266 3.9871 2.9023 10.187-2.9551 12.019-1.9519 0.61053-3.4631 0.76802-4.8087 0.50117zm26.72 0.15318c-0.176-0.05004-0.8393-0.17741-1.474-0.28306-1.4577-0.24263-3.9082-1.8477-4.3707-2.8629-0.48693-1.0687-0.16518-1.2431 0.87488-0.47413 1.0677 0.78942 4.3721 1.1734 5.3935 0.62681 1.0609-0.56777 1.6434-2.02 1.8658-4.6521 0.23116-2.7346 0.08638-3.04-1.9481-4.1081-0.93527-0.49104-1.8641-0.68048-3.3014-0.67333-1.6931 0.0084-2-0.07573-2-0.54852 0-0.71654 1.3581-1.1378 4.5447-1.4096 4.768-0.40671 7.5709 0.86898 9.0935 4.1388 0.8524 1.8306 0.9743 3.8548 0.32565 5.4072-0.60822 1.4557-3.1662 3.6105-4.9492 4.1693-1.5945 0.49967-3.5287 0.81908-4.0546 0.66958zm-12.142-5.9746c-0.39039-0.55736-0.4995-1.6476-0.50439-5.04-0.0076-5.235-0.70524-10.882-1.517-12.279-0.38365-0.66004-1.0426-1.1693-1.902-1.4698-1.195-0.41788-1.6167-0.3957-4.6249 0.24317-1.8205 0.38664-3.6375 0.70155-4.0379 0.69981-1.392-0.0061-1.6774-2.627-0.52816-4.8494 0.73736-1.4259 1.5631-1.4479 4.162-0.11095 3.2014 1.6469 4.0914 1.4721 6.6941-1.3146 1.4504-1.553 2.1316-2.0548 2.7851-2.052 0.86297 0.00377 1.0823 0.21861 2.5867 2.5338 1.4184 2.1828 2.3256 2.1326 5.1342-0.28427 2.0751-1.7857 3.2903-2.0553 4.3136-0.9569 1.2579 1.3502 1.7708 4.9552 0.83762 5.8883-0.62089 0.62089-2.2506 0.62651-4.7771 0.01646-2.4724-0.59698-2.8276-0.5886-3.6583 0.0864-1.1121 0.90366-2.3155 7.9472-2.3932 14.008-0.03393 2.6444-0.17072 4.9844-0.30398 5.2-0.39438 0.63811-1.7274 0.4504-2.2664-0.31916z" fill="#fdfdfd"/></svg>
