<?xml version="1.0" encoding="UTF-8"?>
<svg width="438" height="438" version="1.1" viewBox="0 0 438 438" xmlns="http://www.w3.org/2000/svg"><path d="m57.657 430.47c-2.3267-27.524 0.32351-89.039 6.9207-160.64l2.5498-27.674-2.1194-6.8258c-11.089-35.713-5.9796-71.197 14.448-100.35 5.3317-7.6089 5.5454-8.1699 6.5411-17.171 3.0222-27.32 12.285-56.762 25.737-81.805 4.2874-7.9817 16.808-27.505 21.135-32.955l1.9491-2.4553 8.3408 7.6312c4.5874 4.1972 18.691 17.337 31.341 29.199l23 21.568 43-0.016 30-28.971c16.5-15.934 30.395-28.977 30.878-28.985 1.7896-0.02969 13.794 13.437 19.014 21.33 15.03 22.727 26.426 55.255 31.501 89.914l1.987 13.572 5.6232 8.335c13.999 20.751 20.501 42.71 20.493 69.216-6e-3 19.238-3.9936 40.6-10.712 57.382l-2.5377 6.339 1.6153 8.1991c5.2108 26.449 8.813 72.427 11.151 142.33l0.60619 18.126-121.31 0.62846c-66.72 0.34565-139.13 0.90426-160.9 1.2413l-39.593 0.61289z" fill="#e98c43"/><path d="m204.4 291.92c-4.3634-1.2659-11.606-9.4016-15.821-17.772-1.9657-3.9033-3.574-7.5401-3.574-8.0818 0-0.98047 7.749-3.7568 8.3045-2.9753 0.16039 0.22562 1.7823 3.4133 3.6043 7.0837 6.0772 12.243 12.313 16.122 15.392 9.5766 2.1714-4.6169 3.6993-13.902 3.6993-22.481v-7.3639l-14.849-18.405 9.4246-0.28621c5.1835-0.15742 13.72-0.15742 18.969 0l9.5446 0.28621-6.5188 9.5c-7.2237 10.527-7.4118 11.375-4.9469 22.303 2.8087 12.452 6.765 18.697 11.844 18.697 5.9777 0 11.532-9.2278 11.532-19.159v-3.8411h5.019c4.6759 0 4.9873 0.15384 4.5546 2.25-0.25545 1.2375-0.75451 4.5-1.109 7.25-1.4498 11.246-8.0839 20.243-16.622 22.542-6.0739 1.6355-12.143-0.9853-16.786-7.2492l-3.4434-4.6453-1.6747 3.676c-1.9664 4.3164-5.3222 7.6198-9.2536 9.1094-3.1852 1.2068-3.0791 1.2071-7.2896-0.0145zm-56.32-50.006c-22.163-4.3484-43.115-19.377-53.081-38.076-3.8045-7.138-6.2994-18.441-5.4564-24.721 2.1424-15.957 10.777-32.271 23.842-45.05 5.1454-5.0326 5.6876-5.3188 7.338-3.8735 0.98018 0.85833 20.682 17.889 43.782 37.846s41.943 36.856 41.873 37.555c-0.29609 2.9502-9.8767 15.632-16.721 22.133-13.105 12.448-26.734 17.099-41.576 14.187zm20.873-13.043c6.4267-2.7926 14.1-9.034 19.4-15.78l4.6125-5.8709-8.8971-7.6092c-4.8934-4.1851-9.1964-7.6093-9.5622-7.6093-0.36583 0-2.5409 1.5218-4.8334 3.3818-12.879 10.449-28.949 13.162-34.694 5.858-3.9272-4.9927-1.9249-16.052 5.4061-29.858l3.44-6.4782-10.55-9.2021c-15.094-13.165-13.405-12.521-18.23-6.9534-2.2652 2.6133-6.2382 8.9841-8.829 14.157-4.6817 9.3485-4.7105 9.4679-4.7105 19.5 0 9.6219 0.16319 10.398 3.4898 16.594 5.3798 10.02 15.924 19.882 27.237 25.474 15.229 7.5272 26.43 8.8682 36.721 4.3962zm101.05 13.093c-7.8574-1.6398-16.87-6.8447-24.652-14.236-6.8503-6.5071-16.426-19.185-16.721-22.138-0.0701-0.70093 18.773-17.597 41.873-37.546 23.1-19.949 42.802-36.978 43.782-37.841 1.653-1.4556 2.1849-1.1754 7.338 3.8648 13.066 12.78 21.7 29.094 23.842 45.05 1.4025 10.446-3.9186 24.967-13.257 36.176-15.413 18.501-43.548 30.564-62.206 26.67zm21-12.605c15.505-4.3392 31.885-17.085 39.01-30.357 3.3204-6.1845 3.4898-6.9854 3.4898-16.5 0-9.1757-0.26374-10.557-3.1996-16.755-3.1302-6.6082-8.3494-14.928-12.277-19.572-2.3748-2.8076-1.6939-3.2057-16.294 9.5284l-10.55 9.2021 3.44 6.4782c7.331 13.806 9.3334 24.865 5.4061 29.858-5.7455 7.3042-21.816 4.5908-34.694-5.858-2.2926-1.86-4.4676-3.3818-4.8334-3.3818-0.36582 0-4.6688 3.4242-9.5622 7.6093l-8.8971 7.6092 4.6125 5.8709c4.7125 5.9983 12.228 12.349 18.175 15.358 7.3064 3.6969 15.231 3.9725 26.174 0.91019z" fill="#040201"/></svg>
