<?xml version="1.0" encoding="UTF-8"?>
<svg width="75.807" height="75.807" version="1.1" viewBox="0 0 75.807 75.807" xmlns="http://www.w3.org/2000/svg"><path d="m9.7281 65.628c0.26565-11.565 0.74105-20.664 1.2202-23.354l0.34188-1.9197-2.3072-2.4705c-2.2111-2.3676-3.6865-4.7124-3.6865-5.8586 0-0.84456 1.3362-1.5694 2.893-1.5694h1.4216l-0.83316-1.6442c-1.6578-3.2716-0.84466-4.6455 2.7496-4.6455h2.2586l1.7393-5.1578c3.0003-8.8974 6.9506-17.672 8.3439-18.533 0.58278-0.36018 4.8858 2.7983 7.9217 5.8147 1.5576 1.5476 3.5479 3.8992 4.4229 5.2259l1.5908 2.4121 0.99987-1.5845c2.5535-4.0465 6.5371-8.0726 10.789-10.904 1.6815-1.1198 1.7874-1.1463 2.3919-0.59922 1.5753 1.4256 5.4766 10.332 8.2963 18.94l1.4368 4.3862h2.1704c2.6724 0 3.6418 0.55914 3.6418 2.1005 0 0.58842-0.29793 1.6542-0.66207 2.3685-0.88559 1.737-0.85855 1.8207 0.58841 1.8207 1.4807 0 2.7219 0.76935 2.7219 1.6871 0 0.36107-0.28349 1.2092-0.62997 1.8847-0.63431 1.2367-3.5098 4.6939-4.7174 5.6717-0.57311 0.46407-0.61117 0.70282-0.32109 2.0139 0.5512 2.4912 1.031 11.176 1.2571 22.756l0.21496 11.007h-56.481z" fill="#ee7322"/><path d="m20.083 68.634c-0.12138-0.12138-0.22069-1.3802-0.22069-2.7974v-2.5767l-4.7907 0.13274-0.22993-2.0419c-0.12646-1.1231-0.38312-2.5967-0.57034-3.2748-0.44588-1.6148 0.0314-2.6342 1.0675-2.28 0.39407 0.1347 1.6702 0.31142 2.8358 0.39271l2.1193 0.14779-0.26005-2.0994c-0.52137-4.2091-0.58157-4.0331 1.4835-4.3377 1.0014-0.14769 2.491-0.22588 3.3103-0.17376l1.4897 0.09476 0.03034 2.1517c0.01669 1.1834 0.05393 2.345 0.08276 2.5812 0.03878 0.31781 0.67289 0.4039 2.4382 0.33104l2.3858-0.09848 0.42266 3.4759c0.23246 1.9117 0.36394 3.6394 0.29218 3.8394-0.07176 0.19992-1.2229 0.46503-2.5582 0.58913-3.1591 0.29361-3.3496 0.4987-2.8894 3.111 0.53387 3.0308 0.51059 3.0536-3.1181 3.0536-1.705 0-3.1994-0.09931-3.3207-0.22069zm5.1311-3.2552c-0.06066-0.91034-0.33131-2.0003-0.60146-2.4222-0.74321-1.1606-0.08468-1.7158 2.035-1.7158 0.95633 0 2.2188-0.096 2.8054-0.21333l1.0667-0.21333-0.22799-1.8248c-0.33331-2.6677-0.37004-2.7141-2.1504-2.7141-1.3218 0-1.6106 0.11268-1.7608 0.68684-0.15215 0.58184-0.28472 0.63058-0.86719 0.31885-0.64123-0.34318-0.67306-0.55683-0.47223-3.1696l0.21535-2.8016h-1.5114c-2.5135 0-2.5587 0.05496-2.5587 3.114 0 1.6329-0.15447 2.8666-0.38819 3.1004-0.26717 0.26716-1.1562 0.32327-2.8516 0.17995l-2.4634-0.20824 0.24482 1.4587c0.54646 3.2559 1.0822 3.6942 3.2389 2.6501 0.78949-0.38219 1.5945-0.69488 1.7889-0.69488 0.57318 0 0.75387 1.3167 0.53538 3.9014l-0.20478 2.4225 4.238-0.1997zm15.079-15.266c-0.1273-0.1273-0.83301-1.4743-1.5683-2.9933-0.73524-1.519-1.4649-2.7618-1.6215-2.7618-0.15658 0-0.90152 1.1856-1.6554 2.6347-1.4797 2.8442-1.8674 3.2712-2.4451 2.6935-0.27808-0.27808 0.02665-1.1808 1.1875-3.5176 0.85885-1.7289 1.5615-3.4281 1.5615-3.7758s-0.37241-1.0749-0.82759-1.6158c-1.3526-1.6075-1.1364-1.8848 1.8239-2.3379 3.7158-0.56882 3.9724-0.30679 2.2811 2.3289l-1.0261 1.599 1.0724 1.9001c0.5898 1.0451 1.5108 2.4457 2.0467 3.1126 1.1174 1.3905 1.1534 2.7142 0.07803 2.8681-0.37163 0.0532-0.77985-0.0074-0.90715-0.13473zm-17.528-7.4332c-0.4794-0.27934-0.54012-0.64735-0.3721-2.2549 0.19831-1.8974 0.18698-1.9306-0.91676-2.6873-3.277-2.2468-4.9245-4.628-4.9245-7.1175 0-3.1376 1.8751-5.1368 5.5298-5.8961 1.0551-0.2192 2.1046-0.51795 2.3322-0.66387 0.2523-0.16177 0.41379-1.0082 0.41379-2.1687 0-2.1084 0.57027-3.2561 1.4501-2.9185 0.47941 0.18397 0.52338 0.5645 0.33131 2.8676-0.17963 2.1539-0.13431 2.6569 0.23993 2.6633 0.25376 0.0043 1.3119 0.35765 2.3514 0.78517l1.89 0.77732-0.47084-0.9105c-0.42509-0.82204-0.41001-0.96555 0.15523-1.4771 0.90574-0.81968 1.8255-0.38258 2.7769 1.3196 1.2617 2.2574 1.6428 3.6488 1.2172 4.4439-0.27563 0.51502-0.24117 0.9078 0.1452 1.6549 0.64504 1.2474 0.64989 3.4166 0.01039 4.6532-1.1592 2.2417-4.2981 3.6421-8.1633 3.6421h-2.2646v1.4234c0 0.7829-0.17876 1.6022-0.39724 1.8207-0.47372 0.47372-0.58915 0.47747-1.3343 0.04328zm5.8129-5.5836c1.6453-0.38185 1.704-0.46562 1.0379-1.4822-0.77101-1.1767-0.7158-3.7143 0.12202-5.6083l0.68322-1.5445-0.72778-0.47602c-2.1986-1.438-6.4455-1.9584-8.6082-1.0548-1.3139 0.54897-2.5472 2.1284-2.5472 3.2619 0 1.3839 1.6498 4.2217 2.9576 5.0871 1.2667 0.83825 4.4513 2.0999 5.3183 2.107 0.2731 0.0022 1.067-0.12834 1.7642-0.29015zm15.157 0.82515c-2.8271-0.9186-4.4829-3.3348-4.302-6.2773 0.05136-0.83528-0.0929-1.6824-0.33651-1.9759-1.0532-1.269 2.5506-7.2252 4.0238-6.6505 0.75647 0.29512 1.0639 1.5605 0.59295 2.4405-0.20396 0.3811-0.30783 0.6929-0.23083 0.6929 0.077 0 1.1049-0.45154 2.2842-1.0034 2.9975-1.4027 4.9144-1.5695 7.8365-0.68195 1.3327 0.4048 2.8119 1.1216 3.4013 1.6482 0.90161 0.80559 1.0623 1.1994 1.1858 2.9064 0.37634 5.2029-3.8573 9.0565-10.19 9.2754-1.7894 0.06186-3.3422-0.07443-4.2652-0.37435zm7.196-2.3189c0.9747-0.25943 1.8264-0.52593 1.8927-0.59222 0.06629-0.06629-0.05127-0.68027-0.26124-1.3644-0.3145-1.0247-0.27291-1.681 0.23601-3.7247 0.33977-1.3644 0.73985-2.5563 0.88906-2.6485 0.67034-0.41429 0.11469-0.74525-1.8845-1.1225-1.6621-0.31361-2.507-0.31837-3.6888-0.02079-2.0003 0.50369-4.2353 2.0633-5.242 3.6582-0.44207 0.70029-0.95877 1.369-1.1482 1.4861-0.61491 0.38004-0.36538 2.0988 0.44077 3.036 0.43187 0.50208 1.2884 1.0949 1.9034 1.3174 1.5333 0.55471 4.7293 0.54323 6.8628-0.02464z" fill="#090401"/></svg>
