<?xml version="1.0" encoding="UTF-8"?>
<svg width="333.69" height="333.69" version="1.1" xmlns="http://www.w3.org/2000/svg"><path d="m19.301 332.17c0.10485-0.836 3.8334-36.656 8.2858-79.6l8.0951-78.08-1.0525-5.12c-4.341-21.118-5.5835-45.576-3.3273-65.496 4.6618-41.16 23.552-68.747 55.51-81.067 10.914-4.2074 36.244-11.933 51.443-15.689 18.508-4.5742 32.747-6.7983 45.357-7.0848 7.1665-0.1628 13.015 0.3031 13.812 1.1004 0.16544 0.16545 1.2932 6.242 2.5061 13.503 1.2129 7.2614 2.2739 13.271 2.3578 13.355 0.0839 0.08387 1.7842 0.28642 3.7784 0.45011 15.577 1.2786 32.538 5.4021 46.156 11.221 23.848 10.191 40.794 25.176 51.097 45.184 6.3187 12.271 9.754 25.049 10.894 40.522l0.36549 4.96-1.3131 5.0161c-5.5768 21.305-17.281 40.985-31.414 52.819-12.146 10.171-25.59 15.571-42.094 16.909-2.6321 0.2133-4.8223 0.41575-4.867 0.4499-0.0447 0.0342 7.5513 28.85 16.88 64.034s16.961 64.008 16.961 64.052-56.165 0.08-124.81 0.08h-124.81z" fill="#f7ef62"/><path d="m181.37 213.15c-1.7908-0.92373-2.3127-2.3058-2.0915-5.5377 0.31204-4.5578 0.79657-17.402 0.66157-17.537-0.0697-0.0697-3.6285 3.1477-7.9084 7.1499s-8.2136 7.5439-8.7416 7.8705c-1.3573 0.83959-3.6232 0.78322-4.9927-0.12423-0.59803-0.39625-1.4271-1.4054-1.8425-2.2425-1.4437-2.9098-1.7496-2.4921 11.303-15.437 6.3888-6.336 12.739-12.888 14.112-14.56 4.456-5.4271 7.0933-9.9338 8.5886-14.676l0.84388-2.6764-2.4364-2.6836c-3.1175-3.4339-3.5506-3.4854-7.6887-0.91469-4.933 3.0645-6.0425 3.5076-8.7675 3.5016-2.7367-6e-3 -4.0184-0.53468-6.4108-2.6439-1.8063-1.5925-2.9513-3.6642-3.8447-6.9562-0.95749-3.5281-1.8219-5.4419-2.6455-5.857-0.72834-0.36711-11.216-1.3109-23.586-2.1226-3.9636-0.26009-7.7076-0.64021-8.32-0.84473-2.3411-0.78189-3.699-2.8781-3.9165-6.046-0.0717-1.0439-8e-3 -1.1267 0.94179-1.2187 0.83366-0.0808 1.0562-0.26965 1.2254-1.04 0.11371-0.51772 0.38209-0.94131 0.59639-0.94131 1.0915 0 23.531 1.0095 28.52 1.2831 3.168 0.17371 6.7312 0.52441 7.9183 0.77933 2.5278 0.54282 6.8645 2.7072 8.4831 4.2337l1.1344 1.0699-0.2674 3.277c-0.41344 5.0667-0.37015 5.867 0.37133 6.8644 0.87389 1.1756 2.1117 1.3008 3.5217 0.35634 0.61067-0.40905 2.5532-2.5 4.3167-4.6466 4.6297-5.6353 6.8882-7.4571 9.245-7.4571 2.9802 0 4.8171 2.9025 5.3301 8.4223 0.11221 1.2073 0.36213 2.2423 0.55539 2.3001 0.19326 0.0577 0.97173 0.17623 1.7299 0.26334 1.2202 0.14019 1.411 0.0731 1.661-0.58443 0.15533-0.40855 0.95722-2.215 1.782-4.0142 5.1243-11.179 9.2097-14.338 20.458-15.818 6.4772-0.8523 16.251-1.2529 21.035-0.86207 9.9415 0.81208 16.885 3.415 16.885 6.3298 0 0.49542-0.56059 2.0578-1.2458 3.472-1.6098 3.3226-2.9142 6.9944-2.9142 8.2031 0 0.88843 1.0876 3.4882 1.4592 3.4882 0.66666 0 2.8071-1.4873 4.045-2.8107 1.7778-1.9006 3.3151-4.869 4.7159-9.106 1.155-3.4934 1.6861-4.0997 4.3039-4.9129 3.5904-1.1154 16.333-0.90089 22.53 0.37924 8.6775 1.7924 11.218 6.0191 5.8747 9.7748-2.9124 2.0471-6.2389 2.2726-15.549 1.0537-5.512-0.72164-7.2027-0.63405-8.6923 0.45027-0.6864 0.49965-2.6127 2.8184-4.2807 5.1528-3.258 4.5597-5.8397 7.212-8.0721 8.2926-5.8257 2.8202-12.559 0.47992-15.149-5.2648-1.1034-2.4481-1.5545-5.2328-1.2807-7.9062 0.4467-4.3618 0.84909-3.8278-3.3459-4.4401-12.449-1.8169-24.881-1.3764-26.983 0.95614-0.26814 0.29752-1.6687 2.773-3.1123 5.501-3.4372 6.4951-6.2903 10.779-8.4758 12.727-1.675 1.4929-1.8104 1.7296-2.5321 4.425-1.6285 6.0824-4.3302 11.383-8.8356 17.334l-1.5814 2.0889v5.2446c0 5.875-0.52748 19.485-0.93205 24.048-0.2796 3.1538-0.66803 4.0256-2.3544 5.2847-1.1996 0.89562-3.9092 1.05-5.3535 0.30493zm-101.92-34.326c-1.4817-0.60595-3.5656-3.9535-3.2464-5.2148 0.09979-0.3943 0.59375-1.2095 1.0977-1.8116 0.80898-0.9665 1.0821-1.0885 2.3325-1.0422 1.8478 0.0685 3.0965 0.57352 4.3762 1.77 1.7495 1.6357 1.3244 3.3696-1.2824 5.2313-1.6223 1.1586-2.4196 1.4182-3.2776 1.0673zm-7.3991-22.598c-1.6326-0.55212-4.2809-3.3743-4.2809-4.562 0-0.47487 0.36519-1.4008 0.81154-2.0577 0.78178-1.1505 0.88018-1.1943 2.6838-1.1943 1.5798 0 2.1154 0.16247 3.4285 1.04 1.7219 1.1507 3.1316 3.4378 2.8033 4.5478-0.559 1.8899-3.222 2.9783-5.4463 2.2261zm-6.3915-25.069c-0.94418-0.4048-3.0094-2.8979-3.0094-3.6329 0-0.7286 0.95159-2.1784 2.5151-3.8318 0.92688-0.98019 1.3592-1.2 2.3601-1.2 1.641 0 3.2736 0.7213 3.9422 1.7417 0.62845 0.95914 0.47884 3.0797-0.32725 4.6386-0.96317 1.8626-3.7527 3.0253-5.4808 2.2844zm91.711-11.096c-4.2906-0.67276-5.6453-0.97771-8-1.8009-5.693-1.9902-9.4882-4.659-14.021-9.8592-2.5566-2.933-6.0214-8.3729-6.8209-10.709-0.30717-0.8976-0.42303-2.7618-0.38781-6.24 0.0419-4.138 0.18163-5.4638 0.84315-8 1.1876-4.553 2.6122-7.9614 4.5174-10.808 0.9406-1.4053 1.836-2.9254 1.9897-3.3781 0.34234-1.008 4.8343-6.2054 6.642-7.685 3.2583-2.667 6.3609-3.9724 14.118-5.9398 4.395-1.1147 9.1072-1.6286 14.937-1.629 7.0735-4.66e-4 10.533 0.76512 14.23 3.1488 1.0303 0.66441 3.2093 1.9113 4.8422 2.7709 7.2076 3.7942 12.298 9.6256 15.458 17.707 1.6426 4.2012 1.9981 6.3292 1.5681 9.3859-0.44465 3.1607-3.1582 11.11-5.3347 15.627-1.5666 3.2516-2.0762 3.9784-4.3768 6.243-1.9292 1.899-3.2669 2.8932-5.1637 3.8379-1.408 0.70121-3.3966 1.807-4.419 2.4573-2.5108 1.5968-4.9315 2.3495-10.621 3.3022-6.2827 1.0521-17.622 1.9416-20 1.5687zm4.64-11.816c1.1424-0.27585 3.5426-0.46563 5.9264-0.4686 2.9278-4e-3 4.6078-0.16881 6.24-0.61342 1.2285-0.33463 2.8816-0.7109 3.6736-0.83615 3.4424-0.5444 8.9138-3.692 12.049-6.9316 1.3479-1.3928 1.8531-2.2587 2.7677-4.7438 1.5407-4.1865 1.9076-6.235 1.9483-10.88 0.034-3.8748 5e-3 -4.0546-0.92489-5.7433-2.5434-4.6187-9.5883-9.8678-14.56-10.848-6.0774-1.1988-18.004-1.2457-23.04-0.09059-7.5929 1.7415-9.3534 3.3603-14.315 13.162-4.2404 8.3775-4.308 11.068-0.4415 17.576 2.7388 4.6102 6.9042 7.636 13.662 9.924 3.2056 1.0854 4.2568 1.1594 7.0148 0.49344zm-6.0006-6.9907c-1.8645-0.69562-3.3037-1.9631-4.1266-3.6342-0.70087-1.4233-0.75275-1.9036-0.75275-6.9687 0-6.0498 0.26172-7.3786 2.2904-11.628 0.61655-1.2916 1.3232-3.0196 1.5702-3.84 0.67071-2.2269 1.5357-3.4253 3.1594-4.3768 3.5914-2.1047 7.7356-0.92273 9.9181 2.8288 1.1301 1.9425 2.719 7.5537 2.5638 9.0545-0.0706 0.68307-0.28905 2.97-0.48544 5.082-0.38231 4.1115-1.3826 7.8503-2.56 9.5686-2.0062 2.9279-8.414 5.0944-11.577 3.9143zm-90.01 3.3326c-1.067-0.4325-1.5357-1.2497-1.5329-2.6726 0.0049-2.4587 1.828-4.9603 4.0151-5.5092 2.3698-0.59479 6.4444 3.1023 5.6783 5.1524-0.80811 2.1626-5.762 4.0016-8.1605 3.0294zm192.81-16.559c-1.5995-0.57678-8-8.4622-8-9.856 0-0.87397 1.147-1.8813 2.7414-2.4074 2.2819-0.7531 6.063 1.3505 9.3667 5.2111 1.9123 2.2347 2.292 2.9907 2.292 4.5643 0 1.2797-0.869 2.2294-2.3022 2.5161-1.1587 0.23173-3.4204 0.21625-4.0978-0.0281zm-186.9-3.6091c-1.6042-0.84806-2.9433-2.9878-3.1089-4.9678-0.17348-2.0738 0.43258-2.6579 3.1571-3.043 1.7329-0.24494 2.2262-0.19179 3.5649 0.38408 0.85451 0.3676 1.8364 1.0278 2.1819 1.4671 1.1327 1.44 0.63984 3.7773-1.2129 5.7524-1.1592 1.2357-2.7479 1.377-4.5821 0.40731zm12.663-19.52c-3.1277-2.0427-3.36-2.2465-3.36-2.9482 0-0.9851 2.8026-3.6417 4.2672-4.0449 2.258-0.62162 3.6472 0.50796 4.022 3.2704 0.43739 3.2231-0.0785 4.345-2.2093 4.8043-0.58039 0.12509-1.3271-0.1718-2.72-1.0815z" fill="#020200"/></svg>
