<?xml version="1.0" encoding="UTF-8"?>
<svg width="370.05" height="370.05" version="1.1" viewBox="0 0 370.05 370.05" xmlns="http://www.w3.org/2000/svg"><g transform="translate(-17.34 -4.0268)"><g transform="translate(13.402)"><path d="m86.08 372.68c0-0.76925 0.21801-5.1972 0.48447-9.84 4.0589-70.722 8.8883-118.67 13.875-137.76l0.59553-2.2797-2.4377-0.2137c-15.724-1.3785-32.182-6.783-44.189-14.511-16.667-10.727-27.225-27.206-29.888-46.647-0.96952-7.0787-1.0155-6.4161 0.52415-7.5525 5.425-4.004 15.465-5.4971 28.373-4.2194l2.059 0.20381-2.539-2.2435c-3.9978-3.5324-10.892-10.785-14.241-14.981-12.629-15.824-19.423-30.851-21.123-46.716-0.46127-4.306-0.2152-12.645 0.49103-16.64 4.051-22.916 19.784-43.478 48.016-62.753 2.2369-1.5272 4.1669-2.6396 4.3127-2.4857 0.1452 0.15318 3.8986 6.2545 8.3409 13.559 4.4423 7.304 8.1227 13.335 8.1788 13.402 0.05609 0.06692 6.8702-2.2011 15.143-5.04 8.2723-2.8389 15.169-5.1617 15.325-5.1617 0.1566 0 4.2837 6.372 9.1713 14.16 4.8876 7.788 8.9321 14.212 8.9878 14.275 0.0557 0.0631 0.7936-0.46491 1.6398-1.1734 4.7897-4.0099 14.025-9.0119 20.739-11.233 3.0878-1.0214 8.1393-2.316 8.3677-2.1444 0.0263 0.01972-0.0822 0.82785-0.24091 1.7959-0.15876 0.968-0.57316 4.064-0.92089 6.88-3.4821 28.199 0.90854 46.363 12.601 52.132 2.9699 1.4652 5.6379 2.087 9.9527 2.3194 11.802 0.63568 19.338-4.5749 23.325-16.126 3.548-10.281 3.9384-24.338 1.1987-43.163l-0.57448-3.9473 0.82554 0.18219c10.13 2.2357 19.51 6.5442 27.374 12.573 1.3909 1.0665 2.5595 1.9053 2.597 1.8642 0.0374-0.04116 4.0503-6.4108 8.9174-14.155s8.9753-14.124 9.1293-14.179c0.15399-0.05424 7.0664 2.2302 15.361 5.0764 8.2946 2.8463 15.128 5.1227 15.186 5.0586 0.0578-0.06404 3.7405-6.0924 8.1836-13.396 4.4432-7.304 8.1887-13.401 8.3234-13.549 0.48509-0.53368 12.563 8.0486 19.025 13.519 20.379 17.252 31.466 35.359 33.799 55.203 0.47275 4.0201 0.20861 13.437-0.48546 17.307-2.6977 15.043-9.5684 29.068-21.228 43.33-3.1508 3.8544-9.8901 10.862-13.656 14.2l-2.539 2.2503 2.059-0.20381c12.964-1.2832 22.929 0.20184 28.389 4.2308l1.3698 1.0108-0.18855 1.6709c-1.6903 14.979-5.6591 25.659-13.323 35.851-2.6469 3.5202-8.6967 9.5058-12.428 12.296-12.636 9.4499-28.728 15.537-46.48 17.582-5.1126 0.58905-5.1245 0.59572-4.4097 2.4758 0.54001 1.4203 2.5176 11.627 3.5081 18.106 3.6215 23.688 7.2295 64.421 10.105 114.08 0.43819 7.568 0.79674 14.516 0.79678 15.44l7e-5 1.68h-205.76z" fill="#d19f29"/><path d="m175.04 308.2c-2.0594-0.67762-3.6446-1.825-5.7932-4.193-4.683-5.1611-7.163-8.9966-9.5406-14.755-1.0652-2.5797-2.0107-3.6688-3.9394-4.5376-1.3836-0.62331-1.3686-0.63786-2.3048 2.2307-0.7064 2.1644-2.4173 3.7598-3.7467 3.494-1.7858-0.35717-2.4056-1.0719-3.4453-3.9736-2.1929-6.12-3.5231-14.203-3.1573-19.186 0.22007-2.9978 4.0318-14.16 4.8355-14.16 0.20466 0 3.684 1.1582 7.732 2.5739 5.5911 1.9553 8.8595 2.8861 13.6 3.8732 5.8734 1.223 6.6442 1.3088 13.12 1.4606 8.5504 0.20039 18.771-0.69247 24.506-2.1408 3.1951-0.80693 9.3174-3.1204 10.232-3.8665 0.4717-0.38471 10.999-5.1004 11.386-5.1004 0.42306 0 1.9293 3.3835 2.9507 6.6282 1.1276 3.5822 1.6639 9.654 1.5625 17.692-0.0947 7.5104-0.3862 9.4434-1.8174 12.053-1.2191 2.2226-2.5786 3.0993-4.4514 2.8704-1.4846-0.18147-2.4507-1.0361-3.9367-3.4822-0.93055-1.5318-1.2676-1.8408-2.0083-1.8408-0.95124 0-2.5836 1.2708-2.5836 2.0114 0 0.24305 0.16388 1.2579 0.36418 2.2553 1.0561 5.2586-2.316 10.861-8.3652 13.899-3.1183 1.5657-5.0028 1.7567-7.2528 0.73514-1.654-0.75097-3.7666-2.8913-4.7472-4.8095-0.40794-0.79798-1.4784-2.4949-2.3787-3.7709-1.7508-2.4813-2.1365-2.6645-4.1393-1.9663-1.2907 0.44994-1.5603 0.97902-1.9674 3.8607-0.68042 4.8168-3.8285 9.1687-8.0676 11.152-2.1424 1.0025-5.2197 1.4623-6.646 0.99303zm-12.883-4.1835c-1.0953-0.69463-2.0316-1.7716-3.547-4.08-1.1324-1.725-2.2857-3.6813-2.5629-4.3475-0.27721-0.66617-0.73292-1.4401-1.0127-1.7199-0.5553-0.5553-0.52835-1.7485 0.0438-1.9366 0.29131-0.0958 9.0816 12.368 9.0816 12.877 0 0.33621-0.59045 0.10231-2.0028-0.79338zm23.974-55.731c-1.2038-0.15873-3.6518-0.65966-5.44-1.1132-1.7882-0.45353-4.9143-1.1564-6.947-1.5619-5.5646-1.1102-11.194-4.1662-12.993-7.0538-0.50108-0.80414-1.2213-1.9465-1.6006-2.5385l-0.68953-1.0764 0.84953-0.79415c1.2258-1.1459 2.5034-1.7242 7.7201-3.4942 8.2406-2.7961 9.2647-2.9421 20.649-2.945 9.4504-2e-3 10.033 0.0324 12.304 0.73347 1.9223 0.59337 12.308 5.1904 12.779 5.6566 0.2411 0.23839-0.87545 1.6232-3.7903 4.701-3.2474 3.429-7.2934 6.6572-9.7731 7.7978-3.2733 1.5056-8.9209 2.2352-13.069 1.6883zm-33.136-21.165c-3.0981-3.7813-4.8222-8.095-4.8281-12.08-1e-3 -0.968-0.16741-2.8429-0.36883-4.1664-0.65753-4.3206 0.75132-7.3562 5.7793-12.452 6.2595-6.3444 14.166-10.154 23.535-11.339l3.512-0.44435 3.4304 1.6824 1.7057-1.9692 4.64 1.5651c6.7324 2.2709 10.893 4.4339 16 8.3184 3.4953 2.6585 4.5949 3.6962 5.76 5.4356 0.792 1.1824 2.1868 2.9104 3.0996 3.84 2.085 2.1233 3.2418 4.4241 3.8011 7.5601 0.78635 4.4091 0.43541 7.3024-0.95022 7.8341-0.8126 0.31182-1.5333 1.7429-2.0007 3.9726-0.83514 3.9841-1.7473 4.3983-5.5119 2.5024-4.5235-2.278-12.794-5.8936-14.712-6.4318-2.7043-0.7588-3.2459-1.4873-3.2459-4.3663 0-3.3092 0.32267-3.7195 4.5466-5.7806 4.6071-2.2481 5.9745-3.2695 7.9352-5.9271 1.9268-2.6117 2.0628-3.8412 0.71818-6.4958-0.85051-1.6792-0.96907-1.7729-3.5387-2.7985-4.4508-1.7764-6.4957-2.0889-13.821-2.1127-7.2326-0.0234-9.5843 0.31649-14.72 2.1277-5.8856 2.0757-7.5423 3.3712-9.4793 7.4129-1.2314 2.5696-1.2861 3.0236-0.55072 4.5734 0.76928 1.6211 2.383 2.5238 6.27 3.5072l3.44 0.87031v9.8516l-0.89224 0.89224c-0.65743 0.65742-2.0259 1.2428-5.2 2.2242-2.3693 0.73256-6.0821 1.976-8.2507 2.7632-2.1686 0.78717-4.06 1.4312-4.2032 1.4312-0.14316 0-0.99769-0.9-1.899-2zm-83.414-25.866c-1.952-0.32696-9.4124-2.5864-12.301-3.7254-3.287-1.2961-3.84-1.7957-3.84-3.4695 0-1.1786 0.19461-1.6327 1.1556-2.6964 1.7306-1.9156 4.6463-3.6702 7.4153-4.4623 4.776-1.3663 4.7027-0.98747 0.77912-4.0275-1.8866-1.4617-3.762-3.1586-4.1678-3.7709-1.0174-1.5353-1.8746-3.8966-2.7978-7.7073-1.1017-4.5473-1.0438-6.2318 0.31142-9.0596 0.60276-1.2578 1.3853-2.4417 1.739-2.631 0.35366-0.18927 1.454-0.34413 2.4451-0.34413s2.0516-0.13356 2.3567-0.29681c0.4233-0.22654 1.7629 0.34865 5.659 2.4299 9.54 5.0961 13.15 7.4049 15.471 9.8941 1.1625 1.247 2.7617 2.7107 3.5537 3.2528s2.304 1.8664 3.36 2.943l1.92 1.9574-0.56 0.97578c-0.308 0.53669-0.56 1.1497-0.56 1.3622s1.5094 1.5837 3.3543 3.047c4.3532 3.453 5.5152 5.2574 3.9876 6.192-0.362 0.22149-0.9472 0.86661-1.3005 1.4336-0.9973 1.6007-9.6855 6.5949-13.241 7.6115-1.2263 0.35059-12.739 1.5854-13.056 1.4002-0.03519-0.0206-0.7925-0.15944-1.6829-0.30858zm223.7-0.01c-8.7279-0.81752-9.5737-1.0729-16.397-4.9512-2.8922-1.6438-4.5174-2.7813-5.12-3.5834-0.48551-0.6463-1.2063-1.4663-1.6018-1.8223l-0.71907-0.64718 0.71907-1.26c0.42469-0.74414 2.051-2.3162 3.9726-3.84 1.7894-1.419 3.3504-2.8424 3.4688-3.163 0.1289-0.34891 0.0111-0.80865-0.29349-1.1452-0.27987-0.30925-0.50885-0.7836-0.50885-1.0541 0-0.69436 3.0347-3.761 5.0831-5.1367 0.94771-0.63644 2.278-1.8287 2.9562-2.6494 1.7634-2.134 3.7084-3.5855 8.4407-6.299 7.914-4.538 12.772-6.9673 13.284-6.6434 0.26174 0.16548 1.3759 0.30308 2.4759 0.30578 2.3746 6e-3 2.918 0.41699 4.1729 3.1576 1.2358 2.699 1.255 4.3859 0.10385 9.1186-1.6282 6.694-2.4579 7.9895-7.5164 11.736-3.164 2.3434-3.1666 2.3314 0.72356 3.3217 4.163 1.0597 8.7777 4.3014 9.1806 6.4489 0.36076 1.923-0.0257 2.6128-2.0301 3.6238-3.6382 1.8351-14.764 4.9628-17.034 4.7888-0.264-0.0202-1.776-0.15816-3.36-0.30653zm-63.9-17.848c-0.22397-4.6024-2.0413-7.6599-5.7175-9.6193-1.6604-0.88499-2.5002-1.0971-5.4935-1.3876-3.3928-0.32928-3.5875-0.31424-4.8923 0.37795-1.391 0.73794-2.7068 2.5256-6.5016 8.8332-1.6607 2.7604-1.7259 2.7929-4.1064 2.0464-0.75204-0.23582-1.1418-0.64313-1.52-1.5882-0.27973-0.6991-0.5086-1.5364-0.5086-1.8606s-0.4504-1.1493-1.0009-1.8335c-2.1146-2.6282-2.4206-5.0685-1.0388-8.284 0.45381-1.056 1.2854-3.148 1.848-4.6488 2.0966-5.5929 5.4802-8.8922 11.5-11.214 1.3948-0.53788 3.633-1.6145 4.9737-2.3924 2.858-1.6582 5.0879-2.1831 7.4064-1.7434 0.88473 0.16779 1.8673 0.44353 2.1835 0.61275 0.3162 0.16923 3.2283 1.196 6.4714 2.2816 6.8145 2.2813 7.8535 2.7625 9.7613 4.521 2.5001 2.3045 3.1373 4.2958 3.9925 12.476 0.33237 3.1793 0.31216 3.5136-0.29548 4.8873-0.35875 0.81101-1.5411 2.6235-2.6274 4.0277-3.0472 3.939-6.1753 5.7156-12.027 6.8305l-2.2738 0.43326zm-66.125 1.9642c-0.15792-0.308-0.37395-1.3308-0.48007-2.2728-0.29572-2.6252-1.3306-4.1485-4.6496-6.8441-0.37712-0.30628-0.68567-0.8352-0.68567-1.1754 0-1.1296-1.7707-2.5114-3.7428-2.9208-3.6861-0.76523-6.8632 0.4058-10.175 3.7503-2.2762 2.2988-4.0022 5.3412-4.0022 7.0548 0 1.7588-0.51513 2.4224-1.7076 2.1997-0.55684-0.10398-2.1377-0.33131-3.513-0.5052-4.7972-0.60654-5.6375-1.5469-7.2274-8.088-1.2924-5.3172-1.2775-7.0104 0.0985-11.211 1.4791-4.5152 2.7149-6.8482 4.8486-9.1528 2.2284-2.407 4.7938-3.7332 8.1409-4.2087 5.2281-0.74267 7.1381-0.86455 9.4629-0.60383 2.9734 0.33345 5.1519 1.2982 7.8425 3.473 2.3983 1.9385 4.7766 3.1258 8.7746 4.3804 2.4147 0.75772 3.1183 1.1412 4.3548 2.3736 3.8822 3.8692 4.8687 9.5212 2.843 16.289-1.3459 4.4962-1.9297 5.1597-6.0031 6.8221-3.3276 1.3581-3.776 1.4267-4.1793 0.64zm7.5443-30.625c-1.354-1.4856-2.4533-2.3171-4.16-3.1468-3.0431-1.4794-6.9506-2.7883-8.3238-2.7883-1.3244 0-1.8454-0.52461-2.978-2.9986-0.69732-1.5232-0.82507-2.1871-0.70332-3.6553 0.13268-1.5999 0.28161-1.9089 1.3765-2.8553 2.1013-1.8164 6.6328-2.7484 9.7893-2.0132 3.9468 0.91925 8.9847 4.5814 10.514 7.6432 0.90597 1.8133 1.1525 4.3247 0.63587 6.4782-0.32552 1.3569-0.7774 2.0979-2.1696 3.5575-0.96715 1.014-1.8445 1.8333-1.9497 1.8207-0.10521-0.0126-1.0194-0.93148-2.0316-2.042zm24.71 0.53871c-1.8622-0.88723-2.9278-2.7174-2.9156-5.0074 8e-3 -1.5104 0.85438-5.7045 1.3307-6.5946 0.90829-1.6972 8.6468-5.8412 11.982-6.4166 1.2247-0.2113 2.8661-0.72416 3.6477-1.1397 2.5049-1.3319 4.0077-0.83472 5.8008 1.9192 0.58923 0.90492 1.3714 2.0773 1.7381 2.6053 0.82071 1.1817 0.93141 4.2198 0.18675 5.1254-0.264 0.32106-2.712 1.6489-5.44 2.9507-2.728 1.3018-6.3918 3.3278-8.1417 4.5023-3.1076 2.0857-3.2344 2.1372-5.44 2.2123-1.242 0.0423-2.4791-0.0283-2.749-0.1569zm-98.229-29.065c-0.792-0.0598-3.0593-0.2806-5.0384-0.49058-2.9043-0.30814-3.8426-0.3012-4.8642 0.036-0.98807 0.3261-1.5677 0.33726-2.6416 0.0509-0.75668-0.20179-4.3278-0.49042-7.9358-0.64142l-6.56-0.27454-4.7112-1.9432c-2.5912-1.0687-5.3488-2.3818-6.1281-2.918-1.7357-1.1942-12.578-12.127-14.361-14.482-2.504-3.3058-3.7635-7.0956-3.7534-11.293 0.0086-3.5659 0.74848-8.4424 1.5044-9.9159l0.63196-1.2318 3.0517 3.8075c6.114 7.6282 10.331 10.787 18.966 14.208 2.288 0.90633 4.7901 1.9971 5.5603 2.4239 2.4013 1.3308 3.407 0.92767 4.1445-1.6611 0.61291-2.1516 0.48306-2.9075-0.66479-3.8702-2.6679-2.2374-5.2571-5.2615-7.9599-9.2966-4.8163-7.1904-6.398-11.233-6.9783-17.836-0.17013-1.936-0.48556-5.1965-0.70096-7.2455-0.33735-3.2091-0.31403-4.4732 0.16828-9.12 0.6777-6.5294 1.1326-8.4973 2.6177-11.323 2.0045-3.8146 5.9426-9.0046 7.6272-10.052 1.7372-1.0799 1.9186-0.96707 2.2093 1.3738 2.5461 20.504 3.8074 26.664 7.4782 36.527 2.9495 7.9246 5.3593 12.446 9.6994 18.198 3.428 4.5432 6.5958 7.6399 10.399 10.165 6.2428 4.1456 7.1093 4.3932 8.7669 2.5054 0.54623-0.62212 0.99315-1.2558 0.99315-1.4083s-0.63135-1.1194-1.403-2.1489c-2.1648-2.888-2.4564-4.1105-2.8127-11.792-0.35702-7.6965-0.3516-9.0336 0.0545-13.44 0.36146-3.9221 0.87611-5.4457 3.837-11.36 2.724-5.4409 4.9272-8.756 7.1441-10.749 2.1547-1.9373 7.5434-5.2376 8.5639-5.2449l0.82394-0.0059-0.75034 4.4c-0.41268 2.42-1.0514 5.624-1.4193 7.12-1.5654 6.3645-1.6062 6.7039-1.4804 12.32 0.13081 5.8415 0.18727 6.1044 3.3338 15.52 1.9649 5.8798 6.8699 14.678 10.84 19.444 2.7624 3.3161 3.5862 3.7651 4.8059 2.6193 0.96743-0.90885 1.0064-2.1128 0.14213-4.3868-0.71714-1.8868-0.85984-5.7918-0.33472-9.1597 0.16781-1.0763 0.45832-3.1089 0.64558-4.5169 0.57523-4.3253 2.4895-7.694 9.0551-15.935 2.3148-2.9056 3.6948-4.3814 4.0359-4.3159 0.46516 0.08929 0.53794 1.5754 0.70993 14.495 0.2368 17.788 0.75855 22.769 3.0256 28.884 0.84249 2.2725 0.8506 2.3616 0.33734 3.7056-0.74529 1.9515-1.9363 2.9325-4.3545 3.5864-1.144 0.30938-3.0222 1.0301-4.1738 1.6017-2.9208 1.4496-5.843 2.2532-10.866 2.9881-7.1689 1.0488-11.762 1.3928-15.68 1.1742-2.2181-0.12376-6.3496-0.0181-10.4 0.26604-8.1006 0.56822-13.26 0.78492-15.2 0.63836zm183.72-3.5218c-0.44389-0.22408-3.0823-0.46506-6.4-0.58455-3.1046-0.11182-7.0848-0.34666-8.8448-0.52187s-6.872-0.52786-11.36-0.78367c-6.249-0.35619-8.797-0.63148-10.88-1.1755-2.3565-0.61546-3.5753-0.71274-9.12-0.7279-6.2397-0.0171-6.4962-0.0441-10.239-1.0808-2.1112-0.58482-3.8888-1.1136-3.9502-1.175s0.51397-0.50656 1.2786-0.98924c2.2907-1.446 4.5997-4.1225 6.156-7.1358 1.9916-3.856 5.8178-15.545 7.2772-22.232 0.75722-3.4695 1.278-11.424 1.0135-15.481-0.10614-1.628-0.0833-2.96 0.0508-2.96 0.5555 0 5.9702 4.6128 8.3407 7.1053 3.0496 3.2068 4.2029 5.078 5.8789 9.5385 2.1567 5.7399 2.8059 10.492 1.7828 13.049-0.48518 1.2126-0.47753 1.2482 0.72 3.357 0.66572 1.1722 1.3324 2.1356 1.4816 2.1409 0.14917 5e-3 1.6618-1.3945 3.3615-3.1105 3.2648-3.2963 4.6478-5.4145 11.961-18.32 4.0897-7.2174 4.7454-9.0813 5.0657-14.4 0.14309-2.376 0.35747-5.904 0.4764-7.84 0.14737-2.3988 0.0519-5.1434-0.29966-8.6168-0.28375-2.8032-0.51108-5.6832-0.50518-6.4l0.0107-1.3032 1.0293 1.2788c0.5661 0.70333 2.5452 3.0073 4.398 5.12 4.6882 5.3457 5.5253 6.4269 6.8139 8.8012 1.3605 2.5067 3.0731 7.378 4.0501 11.52 1.0963 4.6477 0.84791 6.5497-1.9532 14.957-2.0502 6.1535-2.4404 7.0526-3.6549 8.42-2.0979 2.3621-2.2588 5.1208-0.327 5.6057 1.1442 0.28716 2.0689-0.37236 5.1924-3.703 5.0366-5.3706 5.7193-6.4725 9.1738-14.805 1.3994-3.3757 2.5495-5.6223 3.5146-6.8661 3.3497-4.3165 3.7822-6.033 3.9733-15.769 0.12518-6.3771 0.0283-9.1835-0.51907-15.04-0.39357-4.2107-0.56828-7.5815-0.42082-8.1189l0.25216-0.91893 2.3351 2.5004c1.9291 2.0656 2.6903 3.227 4.3776 6.6789 3.2896 6.7299 3.3616 7.1189 3.7344 20.179l0.31971 11.2-1.1656 6.56c-1.385 7.7947-2.0457 9.8332-5.2345 16.149-2.6611 5.2704-3.1711 7.2653-2.1246 8.3118 0.79 0.79001 3.5319 0.49938 5.352-0.56728 1.9053-1.1166 2.994-2.7978 6.4897-10.021 1.6906-3.4935 4.1326-8.5119 5.4265-11.152 2.7312-5.5723 3.981-9.0075 4.9616-13.638 0.69904-3.3009 1.1443-4.3807 1.6061-3.8953 0.599 0.62958 1.6439 6.8092 1.639 9.6936-7e-3 3.9971-0.66523 6.9715-2.9294 13.232-1.0281 2.8426-2.7532 7.9227-3.8337 11.289-1.1619 3.62-2.4238 6.8886-3.0886 8-2.126 3.5542-9.7288 10.614-13.089 12.155-1.7588 0.8064-6.9147 1.8092-12.687 2.4675-3.1931 0.36417-4.4947 0.35527-9.08-0.0621-4.7462-0.43201-5.4477-0.43315-6.1926-0.0101-0.67475 0.38321-0.98864 0.40207-1.5953 0.0958z" fill="#fefefe"/></g></g></svg>
