<?xml version="1.0" encoding="UTF-8"?>
<svg width="347" height="347" version="1.1" viewBox="0 0 347 347" xmlns="http://www.w3.org/2000/svg"><path d="m43.22 332.25c2.3698-48.526 8.2859-123.68 11.302-143.58 0.8484-5.596 1.7925-11.975 2.0981-14.175 0.47734-3.4371-0.28677-5.7666-5.4297-16.553-14.544-30.504-26.689-58.782-25.679-59.792 0.34065-0.34065 8.8024-1.0774 18.804-1.6373l18.185-1.0179 0.67976-10.5c1.2697-19.613 9.3822-40.204 25.08-63.66 8.4963-12.695 15.489-21.34 17.26-21.34 1.1467 0 21.708 20.821 38.98 39.472l8 8.6388 9.25-1.1292c8.6702-1.0584 21.696-0.33268 28.864 1.6081 1.5339 0.41534 2.7181-0.19599 4.317-2.2287 1.2118-1.5405 8.8106-9.7187 16.886-18.174 8.0757-8.455 17.39-18.256 20.699-21.78 3.3087-3.524 6.5267-6.4072 7.1511-6.4072 1.7206 0 10.395 10.456 16.592 20 16.928 26.071 24.484 44.619 25.461 62.5 0.3004 5.5 0.92461 10.736 1.3871 11.635 0.70031 1.3615 3.5415 1.7577 16.991 2.3695 8.8825 0.40406 17.187 1.0184 18.455 1.3651l2.3045 0.63046-3.5211 8.5c-9.3375 22.541-23.097 52.194-24.702 53.235-0.62306 0.40408-0.7256 0.74158-0.22785 0.75 0.49774 8e-3 0.0905 0.91531-0.90499 2.0153s-1.5037 2-1.1293 2c0.37437 0 7e-3 1.3031-0.81678 2.8957-1.3115 2.5362-1.3233 3.8088-0.0947 10.25 3.5818 18.778 10.322 97.517 12.096 141.3 0.24626 6.0792 0.73645 14.766 1.0893 19.303l0.64157 8.25-260.79 4e-5z" fill="#87888b"/><path d="m177.07 205.4c-1.751-1.4734-4.9901-6.3294-7.1979-10.791-2.9316-5.9243-5.5398-9.4937-9.6704-13.234-4.9565-4.4887-5.489-5.3236-4.3052-6.75 0.92462-1.1141 2.969-1.6302 6.4785-1.6354 2.8202-0.0042 8.0526-0.90076 11.628-1.9924 7.821-2.3881 14.268-2.5867 16.006-0.493 1.0272 1.2377 0.78336 2.2132-1.3642 5.4584-1.9488 2.9448-3.261 7.4493-5.1509 17.682-1.3948 7.552-2.6943 13.889-2.8878 14.083-0.19346 0.19347-1.7844-0.85375-3.5354-2.3271zm34.54-20.985c-0.33385-0.86998-0.60699-4.4156-0.60699-7.8792v-6.2974l-11.25-5.5328c-12.961-6.3743-19.098-11.204-20.803-16.371-2.7688-8.3895 1.2244-21.981 9.5262-32.425 4.1838-5.2633 4.2967-5.9129 1.0272-5.9129-1.4842 0-2.5-0.5727-2.5-1.4095 0-0.77521 2.2418-5.8874 4.9817-11.361 8.6257-17.23 16.571-22.629 21.312-14.48l1.8909 3.2504-4.3423 4.8706c-2.3883 2.6788-5.1778 6.3168-6.1989 8.0843l-1.8566 3.2137 3.8566-2.4711c2.1211-1.3591 6.1066-3.2716 8.8566-4.25s5.3656-2.0926 5.8125-2.4761c0.44687-0.38347 0.8125-3.6833 0.8125-7.333 0-7.3056 1.3786-9.1568 5.625-7.5533 2.0472 0.77302 2.2515 1.5061 2.2671 8.1318l0.0171 7.2822 5.7329 2.481c6.7631 2.9269 19.384 14.742 21.72 20.334 1.9974 4.7805 1.9468 16.861-0.0995 23.754-4.0729 13.72-10.772 21.969-22.668 27.914-4.2218 2.1096-7.4958 3.0178-10.879 3.0178h-4.8403v5.885c0 5.1514-0.30723 6.0863-2.4648 7.5-3.0916 2.0257-4.1608 2.0329-4.9282 0.0332zm18.79-23.344 2.8968-1.1359-4.4351-2.8127c-10.755-6.8206-15.109-16.09-12.88-27.42 2.0635-10.489 4.5438-14.051 14.409-20.697l4.887-3.2924-2.387-1.8981c-4.0011-3.1816-11.222-2.032-20.032 3.1889-14.341 8.499-24.22 20.838-25.528 31.882-0.73899 6.2396-4e-3 9.1529 3.2987 13.078 7.0517 8.3804 28.878 13.378 39.771 9.107zm9.9421-11.066c4.8384-4.2482 7.9883-12.048 7.4563-18.463-0.51011-6.1512-5.3318-16.552-7.6626-16.528-2.5616 0.0258-9.2425 4.211-11.428 7.1591-2.8023 3.7797-3.3183 11.464-1.2182 18.141 1.6481 5.2397 6.6669 12.683 8.5518 12.683 0.49082 0 2.4262-1.3467 4.3009-2.9927zm-119.36 14.031c-11.855-1.9998-18.095-4.7301-25.268-11.056-8.6438-7.6231-10.971-15.238-8.301-27.161 2.4006-10.718 8.1438-21.686 13.093-25.002 11.446-7.6701 29.323-11.511 38.029-8.1701 2.3984 0.92033 0.82043-1.8387-4.5206-7.9043l-4.1868-4.7548 1.8881-3.2452c1.2932-2.2227 2.7737-3.3482 4.6988-3.5722 4.1148-0.47872 11.317 7.3973 16.429 17.967 5.1437 10.634 5.7892 12.86 3.7298 12.86-2.2181 0-1.9465 1.2952 0.81575 3.8902 4.1554 3.9038 8.9575 14.671 9.4249 21.133 1.0689 14.777-9.7367 32.64-21.767 35.982-4.9486 1.3748-11.819 1.0987-24.065-0.96711zm18.024-6.9012c0-0.47482-2.3072-3.9623-5.1271-7.75-2.8199-3.7877-5.96-8.6867-6.978-10.887-5.1376-11.103 0.0622-25.511 12.146-33.657l2.4587-1.6574-4.5-2.0706c-5.9134-2.721-10.447-2.6407-18.705 0.33131-5.4003 1.9437-7.8418 3.5618-11.892 7.8814-6.0563 6.4596-10.415 16.298-10.382 23.433 0.05409 11.673 9.7245 21.319 24.248 24.185 5.725 1.1299 18.73 1.2624 18.73 0.19074zm-37.441-86.829c-1.396-2.0941-3.2512-4.7874-4.1227-5.9851-1.7512-2.4066-0.77928-5.5932 2.0355-6.6733 1.9972-0.76642 4.5278 0.23615 4.5278 1.7938 0 0.6759 1.5366 3.2153 3.4147 5.643 4.9258 6.3675 5.0126 8.3371 0.38413 8.7216-3.3191 0.27571-3.9632-0.08562-6.2393-3.5zm126.44 0.92039c0-0.97469 1.3426-3.401 2.9836-5.3918 1.641-1.9908 3.4298-4.7933 3.9752-6.2278 1.2612-3.3171 5.278-3.5359 7.4696-0.40687 1.4045 2.0053 1.3824 2.3838-0.24816 4.25-0.98451 1.1268-2.8903 3.7331-4.2352 5.7918-2.1039 3.2208-2.9685 3.7441-6.1951 3.75-2.9252 0.0053-3.75-0.38295-3.75-1.7653zm-113.29-5.3553c-0.66517-1.8549-2.6554-6.2976-4.4228-9.8726-3.1247-6.3206-3.1624-6.5512-1.3675-8.3547 3.0414-3.0559 5.894-1.2751 9.1363 5.7034 1.5718 3.3832 3.2796 8.0638 3.795 10.401 0.83371 3.7811 0.73718 4.25-0.87481 4.25-0.99655 0-2.542 0.28016-3.4343 0.62257-1.1933 0.4579-1.9423-0.26945-2.8318-2.75zm102.29 0.079595c0-2.5463 3.7353-12.788 6.0012-16.454 2.6046-4.2144 4.3476-4.8461 7.1377-2.5868l2.2366 1.8111-3.5926 7.3888c-1.9759 4.0638-3.8945 8.4131-4.2634 9.665-0.54899 1.8627-1.293 2.2343-4.0952 2.0456-2.4125-0.16247-3.4243-0.71493-3.4243-1.8697z" fill="#282528"/></svg>
