<?xml version="1.0" encoding="UTF-8"?>
<svg width="394" height="394" version="1.1" viewBox="0 0 394 394" xmlns="http://www.w3.org/2000/svg"><path d="m38 378.05c0-33.473 6.2263-97.359 16.087-165.06l2.2589-15.51-4.06-9.99c-7.0356-17.312-9.6036-30.806-9.6082-50.49-0.0037-15.853 1.6911-27.788 5.7699-40.632l2.4769-7.7997-5.0219-5.0343c-20.823-20.875-14.696-57.137 11.874-70.268 7.3079-3.6117 8.0312-3.7644 17.672-3.7306 12.236 0.042948 18.98 2.3464 26.4 9.0185 2.7199 2.4454 5.2914 4.4462 5.7144 4.4462 0.42301 0 5.3069-2.1967 10.853-4.8815 48.562-23.508 110.31-23.362 157.57 0.37227l9.2714 4.6564 3.1235-2.9149c14.079-13.139 35.579-14.927 51.098-4.2499 22.403 15.414 25.894 46.463 7.5607 67.25l-4.1734 4.7321 2.0302 8.2679c4.3194 17.591 5.4487 26.07 5.4295 40.768-0.0267 20.415-2.9156 34.965-10.406 52.406l-3.8247 8.9064 1.8822 8.0936c7.8262 33.653 14.534 84.593 18.974 144.09 1.1081 14.85 2.2444 29.961 2.5251 33.58l0.51045 6.5796-158.24 1.2151c-87.033 0.6683-159.48 1.4087-160.99 1.6454l-2.75 0.43026z" fill="#30b7d3"/><path d="m247.3 183.73-8.1972-11.227 2.1972-1.7263c1.2085-0.94947 2.6472-1.5905 3.1972-1.4245 0.55 0.16597 4.5714 5.1526 8.9363 11.081l7.9363 10.78-2.4363 1.8726c-1.34 1.0299-2.6613 1.8722-2.9363 1.8718s-4.1888-5.053-8.6972-11.228zm-118.25 4.8282-2.2968-2.4449 16.652-18.158 4.8996 4.8996-8.2934 9.0741c-4.5614 4.9907-8.3768 9.0741-8.4789 9.0741s-1.2191-1.1002-2.4823-2.4449zm-13.483-10.761c-0.86263-1.2316-1.5684-2.5561-1.5684-2.9434 0-0.38731 4.4845-3.8654 9.9655-7.729l9.9655-7.0248 2.0632 2.6229c1.1347 1.4426 1.7128 2.9426 1.2845 3.3333-0.93441 0.8525-17.277 12.308-18.96 13.291-0.66682 0.3892-1.8649-0.28588-2.75-1.5496zm145.59-7.4226c-6.1378-5.2956-11.15-9.9081-11.137-10.25 0.0122-0.34188 0.85784-1.7086 1.8791-3.0371l1.8569-2.4155 11.621 10.267c6.3915 5.6469 11.621 10.602 11.621 11.011 0 0.80843-3.3376 4.0535-4.1691 4.0535-0.28141 0-5.5335-4.3328-11.671-9.6284zm-81.569-28.763-13.909-12.259-4.8269 3.2483c-7.6548 5.1513-15.236 7.5764-25.48 8.1506-10.667 0.59782-16.862-0.60767-26.875-5.2289-18.373-8.4802-30.561-25.505-30.797-43.019-0.11954-8.8728 2.1613-15.737 7.7532-23.333 14.08-19.127 45.74-24.882 70.524-12.821 9.0493 4.404 18.193 13.23 22.258 21.484 6.1663 12.52 4.6932 28.64-3.766 41.211l-3.3372 4.9591 9.1824 3e-3c5.0503 2e-3 16.307 0.2988 25.014 0.65993l15.832 0.65659-4.0222-6.2231c-5.803-8.9781-7.6379-15.021-7.6198-25.096 0.0134-7.476 0.40374-9.3249 3.24-15.347 14.854-31.54 66.406-38.762 90.549-12.685 16.153 17.447 13.597 42.279-6.194 60.189-15.002 13.576-35.302 18.227-53.905 12.35-4.3406-1.3712-9.842-3.9056-12.225-5.6321-5.1916-3.7608-3.544-4.5414-21.537 10.203-7.3303 6.007-13.918 10.892-14.638 10.855-0.72084-0.0365-7.5696-5.583-15.22-12.325zm-34.682-10.503c16.342-5.0862 27.748-18.492 28.839-33.894 0.57704-8.152-0.70785-13.299-4.9003-19.628-2.9682-4.4812-11.926-12.583-13.912-12.583-0.487 0-0.3838 1.2375 0.22932 2.75 2.0143 4.969 1.4428 18.033-1.1235 25.683-1.8524 5.5221-3.4672 8.0983-7.9333 12.656-8.3221 8.4938-15.637 9.993-25.178 5.1602-6.2719-3.1769-11.523-9.525-14.486-17.511-2.6759-7.2129-2.7435-22.773-0.11985-27.582 1.003-1.8386 1.6682-3.4985 1.4781-3.6885-0.79225-0.79226-7.2604 3.1382-11.631 7.0676-6.7333 6.0538-9.5387 12.164-10.008 21.799-0.35891 7.3608-0.16319 8.2785 3.2303 15.145 9.9552 20.143 34.68 31.11 55.516 24.625zm125.72 0.50443c13.012-3.4646 25.018-12.895 31.368-24.638 3.1764-5.8736 3.4984-7.2116 3.4827-14.472-0.0179-8.279-1.4181-12.332-6.8649-19.869-1.9603-2.7128-12.921-10.631-14.717-10.631-0.4338 0 0.16279 2.1375 1.3258 4.75 1.5671 3.5204 2.1047 6.7152 2.0768 12.342-0.097 19.514-11.925 34.876-26.874 34.903-8.4999 0.0154-19.396-9.6306-23.149-20.494-1.8425-5.3323-2.4307-20.666-0.9909-25.83l0.78903-2.8296-3.1234 1.8296c-4.7075 2.7575-11.826 10.804-14.254 16.112-2.9286 6.4028-2.8316 16.566 0.23398 24.502 4.1268 10.682 17.218 21.912 28.683 24.603 5.8866 1.3819 16.273 1.2509 22.014-0.27783z" fill="#010404"/></svg>
