<?xml version="1.0" encoding="UTF-8"?>
<svg width="76.8" height="76.8" version="1.1" viewBox="0 0 76.8 76.8" xmlns="http://www.w3.org/2000/svg"><path d="m6.4069 76.56c0.00382-0.132 0.99246-6.4235 2.197-13.981l2.19-13.741-1.1256-1.7595c-4.5263-7.0757-7.0396-16.168-6.1759-22.342 0.67287-4.8099 2.2041-8.0121 5.4782-11.456 1.0752-1.131 1.9921-2.446 2.2313-3.2 1.8506-5.8342 5.8824-9.6205 10.636-9.9883 4.4985-0.34809 8.9121 1.5225 12.796 5.4233 2.3161 2.3262 2.5616 2.485 3.8415 2.485 1.2236 0 1.4821-0.14285 2.4609-1.36 3.5298-4.3893 8.9443-6.9496 13.832-6.5406 4.1233 0.34502 7.2526 2.7446 9.5406 7.3161 0.70986 1.4183 1.2907 2.7751 1.2907 3.0152 0 0.24011 0.85913 1.3846 1.9092 2.5433 3.9128 4.3176 5.4519 7.9136 5.696 13.308 0.0875 1.934-0.0093 4.3502-0.22424 5.6-0.76945 4.4732-3.1344 10.48-5.9996 15.239l-1.1081 1.8403 2.1228 13.52c1.1675 7.4358 2.1815 13.7 2.2533 13.92 0.10386 0.3182-6.4111 0.4-31.859 0.4-17.594 0-31.987-0.108-31.983-0.24z" fill="#af9831"/><path d="m33.601 44.278c-9.5903-1.301-16.589-4.141-20.562-8.3445-0.48503-0.51308-1.3824-2.1481-1.9941-3.6334-0.87658-2.1283-1.1135-3.1443-1.1181-4.7947-0.011579-4.141 2.6943-6.8776 7.2875-7.3701 1.1074-0.11874 2.1014-0.30385 2.2089-0.41135 0.1075-0.1075-0.18653-0.49592-0.6534-0.86316-0.46687-0.36724-0.84885-0.85526-0.84885-1.0845s-0.40272-0.49732-0.89494-0.59576c-0.75648-0.1513-0.98178-0.4545-1.4563-1.9597-0.45909-1.4564-0.50233-2.0999-0.2374-3.533 0.47882-2.5902 1.0582-3.4513 3.2917-4.8922 2.3406-1.51 3.8856-1.9945 6.3369-1.9872 2.2514 0.00671 3.9854 0.80001 5.5561 2.542 1.7721 1.9654 2.5472 3.8883 2.3767 5.8961-0.27246 3.2072-2.081 5.5888-4.9245 6.4852-0.95052 0.29963-1.7282 0.63718-1.7282 0.75013 0 0.11294 1.7403 0.75792 3.8673 1.4333 3.522 1.1183 4.2149 1.2329 7.76 1.2835l3.8927 0.05559 2.08-1.2083c1.144-0.66456 2.764-1.3779 3.6-1.5853 1.6962-0.4207 1.8029-0.64047 0.88-1.8137-1.2587-1.6002-0.41604-2.5045 1.415-1.5184 1.0271 0.5531 1.1477 0.54939 3.8856-0.11966 3.1585-0.77182 4.418-1.6689 4.9259-3.5084 0.47225-1.7103 0.07695-2.7938-1.5872-4.3505-2.8035-2.6224-5.0982-2.6314-8.1408-0.032033-1.9675 1.6809-2.6305 3.0824-2.1081 4.4564 0.87082 2.2904-0.26698 2.67-1.5131 0.50475-1.6611-2.8862-0.43107-5.5615 3.7627-8.1843 1.076-0.67294 1.8444-0.9015 3.04-0.90423 3.694-0.00844 6.2342 1.4653 7.7041 4.4697 1.6525 3.3776 0.87267 6.9255-1.8294 8.3227-0.77696 0.40178-0.90561 0.58605-0.56136 0.80402 0.24563 0.15553 0.81538 0.28499 1.2661 0.28768 0.45074 0.0027 2.3227 0.90519 4.16 2.0055 3.0374 1.8191 3.3832 2.1243 3.8118 3.3636 0.42346 1.2244 0.4142 1.6471-0.09112 4.1594-1.4672 7.2942-5.0278 10.859-13.621 13.637-2.527 0.81691-5.3441 1.5003-6.703 1.626-1.2892 0.11928-3.3052 0.42058-4.48 0.66956-2.568 0.54427-3.6761 0.53632-8.0553-0.05773zm10.669-2.6767c1.7323-0.19298 4.2887-0.7107 5.6809-1.1505l2.5313-0.79963-0.45357-0.8658c-0.86977-1.6603-2.5335-2.8823-5.3082-3.8989-2.8601-1.0479-6.548-1.6823-7.36-1.2659-0.264 0.13535-1.848 0.45253-3.52 0.70486-3.8732 0.58452-6.2794 1.6886-8.6892 3.9871-1.6457 1.5697-1.8225 1.8487-1.3421 2.1175 0.30427 0.17028 2.6498 0.64142 5.2123 1.047 4.8971 0.77504 7.2125 0.79677 13.249 0.12434zm-17.87-23.715c1.5672-0.39463 3.7706-2.1141 4.4888-3.503 0.97588-1.8871 0.45735-4.1246-1.3398-5.7814-0.87405-0.80576-3.4979-1.8824-4.5875-1.8824-1.1293 0-3.7847 0.99534-5.257 1.9705-1.9477 1.2901-2.7274 2.8884-2.7371 5.6106-0.0073 2.0534 0.33284 2.6663 1.118 2.0148 0.36156-0.30006 0.70622-0.22231 1.651 0.37245 2.4575 1.547 4.1035 1.843 6.6636 1.1984zm-3.8111-3.8313c-1.7163-2.0398-0.68561-3.9551 1.9373-3.5999 1.4531 0.19678 2.0343 0.95569 2.0343 2.6566 0 2.0856-2.5089 2.6815-3.9716 0.94325zm13.716 2.8792c-0.26756-0.43292 0.11509-4.1588 0.48929-4.7643 0.22975-0.37175 0.36457-0.37702 0.782-0.03058 0.55263 0.45864 0.68219 1.7926 0.20288 2.0888-0.16583 0.10249-0.39818 0.83099-0.51633 1.6189-0.2108 1.4057-0.53414 1.7727-0.95783 1.0872zm3.3973-0.89415c-0.50032-0.93485-0.42589-3.4122 0.11602-3.862 0.69476-0.5766 1.1944 0.63051 1.0787 2.6059-0.10257 1.7507-0.63208 2.3074-1.1947 1.256zm12.693-1.5599c-0.90013-0.20626-2.183-2.3101-1.8211-2.9865 0.9737-1.8194 2.5763-2.0857 3.9462-0.6558 0.7651 0.79859 0.84384 1.0572 0.60392 1.9831-0.29032 1.1204-1.6015 1.9176-2.7291 1.6592z" fill="#040403"/></svg>
