<?xml version="1.0" encoding="UTF-8"?>
<svg width="425" height="425" version="1.1" viewBox="0 0 425 425" xmlns="http://www.w3.org/2000/svg"><path d="m52.57 413.91c4.3266-91.175 9.0563-139.24 16.126-163.87 1.1386-3.9673 1.252-5.561 0.41536-5.8399-0.63283-0.21094-5.9137-3.2718-11.735-6.8019-14.708-8.9187-28.362-19.374-38.387-29.394-8.2893-8.2852-16.988-19.856-16.988-22.596 0-3.4508 28.8-32.733 41.387-42.079 9.0136-6.6932 20.629-13.464 28.113-16.388 3.3-1.2892 6.3613-2.6379 6.8029-2.9971 0.44159-0.35917 1.4224-5.3317 2.1797-11.05 4.52-34.134 16.778-67.759 34.047-93.397 4.0752-6.05 8.7297-12.561 10.343-14.469l2.934-3.4695 83.196 81.679 84.205-82.687 3.922 4.4736c7.7948 8.8911 20.345 28.782 27.429 43.474 11.822 24.515 17.075 42.715 20.926 72.5l0.5819 4.5 7.5471 2.9078c16.627 6.4059 37.916 20.326 50.773 33.197 7.2709 7.2793 16.613 19.729 16.613 22.138 0 5.3416-23.662 32.092-37.884 42.829-8.247 6.226-24.78 15.428-27.718 15.428-1.8408 0-1.9059-1.065 2.0782 34 6.2111 54.666 10.622 101.74 13.001 138.75l0.59458 9.25h-100.37c-55.204 0-127.44 0.2987-160.52 0.66377l-60.151 0.66377z" fill="#1d1d1d"/><path d="m82.432 243.91-0.66491-8.5876-11.097-5.349c-10.759-5.1862-27.046-15.314-29.626-18.422-1.0592-1.2762-0.49668-2.7647 3.4185-9.0465 14.732-23.636 41.486-54.327 58.489-67.096 20.387-15.31 38.431-20.997 53.976-17.01 26.677 6.8424 42.218 28.84 40.902 57.898-0.46516 10.276-3.5717 17.433-10.956 25.24-10.245 10.833-22.298 16.244-53.374 23.964-25.758 6.3989-32.685 9.5864-43.128 19.848l-7.2751 7.1487zm83.14-36.584c7.0384-2.3871 16.456-11.959 19.017-19.329 2.9548-8.5029 2.7315-30.382-0.38936-38.153-6.5333-16.267-19.807-24.874-38.699-25.093-11.813-0.13697-18.373 2.1137-25.072 8.6013-5.7739 5.5925-6.6856 7.6447-3.3963 7.6447 6.6641 0 15.496 7.3281 19.45 16.139 2.405 5.359 2.7015 7.0563 2.2747 13.021-0.85676 11.974-8.0979 23.382-16.12 25.396-1.4502 0.36397-2.6367 1.0602-2.6367 1.5471 0 1.0934 7.5984 6.7191 11 8.1442 9.6314 4.0351 25.921 5.0162 34.572 2.0823zm167.4 37.671c-10.257-10.219-16.301-12.991-42.488-19.489-30.97-7.6845-43.473-13.378-53.932-24.56-2.58-2.7583-5.897-7.5882-7.371-10.733-2.4335-5.1921-2.6754-6.7759-2.6295-17.218 0.056-12.734 1.5356-19.266 6.6671-29.431 7.4636-14.785 27.103-26.569 44.282-26.569 10.755 0 25.35 5.6567 39.28 15.224 18.941 13.008 47.747 45.481 63.825 71.948l3.7484 6.1706-3.4263 2.8895c-6.1136 5.1557-15.181 10.673-27.17 16.53l-11.743 5.738-0.0808 4.5c-0.0444 2.475-0.38494 6.3-0.75667 8.5l-0.67588 4zm-23.373-39.905c6.8858-3.1272 10.194-9.3572 13.448-25.326 1.6156-7.9278 1.8277-10.975 1.0512-15.1-3.0525-16.217-12.76-29.241-26.711-35.838-11.035-5.2179-20.575-5.7184-32.887-1.7254-6.215 2.0157-14.693 7.521-16.354 10.619-0.85979 1.6042-0.49064 1.7432 3.8191 1.4382 8.9752-0.63514 18.806 7.3192 23.1 18.691 6.23 16.498-4.248 37.078-18.929 37.179-4.4054 0.0302-4.5371 0.11071-2.637 1.6119 3.3904 2.6786 12.473 6.3911 20.42 8.3464 10.702 2.6333 29.986 2.6898 35.679 0.10445zm-88.269 32.448c-5.5902-2.4317-14.463-8.5556-20.044-13.834-5.0306-4.7577-12.286-13.671-12.286-15.093 0-0.33881 8.55-0.61602 19-0.61602h19v10.86c0 11.31-0.83105 20.168-1.8859 20.1-0.33775-0.0215-2.0406-0.65966-3.784-1.4181z" fill="#e9e9e9"/></svg>
