<?xml version="1.0" encoding="UTF-8"?>
<svg width="347" height="347" version="1.1" viewBox="0 0 347 347" xmlns="http://www.w3.org/2000/svg"><path d="m44.005 344.75c0.0078-3.8212 2.923-49.518 4.035-63.25 2.3444-28.949 5.38-54.6 8.6074-72.732l1.5543-8.7324-2.9883-7.2676c-5.5967-13.612-6.7069-19.768-6.6307-36.768 0.05666-12.639 0.46816-16.95 2.2293-23.354 1.9422-7.0629 7.7458-20.22 13.077-29.646 1.0887-1.925 3.6012-10.316 5.5833-18.647 4.4613-18.751 11.395-40.818 16.765-53.353 4.432-10.346 12.785-23.785 17.675-28.437l3.0877-2.9371 3.2256 2.9371c20.818 18.957 43.774 41.612 43.774 43.201 0 0.7445 0.40285 1.1047 0.89522 0.80037 0.49236-0.3043 1.1187 0.02915 1.3919 0.741 0.3787 0.98688 4.2707 1.2824 16.387 1.2443l15.891-0.050014 14.967-15.068c14.414-14.511 33.724-32.592 35.51-33.25 0.47378-0.17455 1.6705 0.65084 2.6593 1.8342 0.98885 1.1834 2.6479 3.1262 3.6868 4.3174 11.144 12.778 21.074 37.317 31.022 76.666 2.853 11.284 5.0829 17.922 7.0547 21 4.8496 7.5693 9.3832 17.474 12.223 26.704 2.4903 8.0945 2.706 10.151 2.706 25.796 0 15.65-0.21517 17.699-2.7094 25.807-1.4902 4.8441-3.8284 11.016-5.196 13.714l-2.4866 4.907 2.4558 14.286c2.088 12.146 3.7652 25.49 6.0061 47.786 1.5588 15.509 5.5205 73.347 5.5311 80.75l0.00465 3.25h-258z" fill="#241d1e"/><path d="m152.92 247.51c-24.094-4.5638-44.922-15.344-59.647-30.871-11.321-11.938-17.149-22.101-21.495-37.484-3.0823-10.91-3.0451-28.517 0.08386-39.657 9.3619-33.331 37.231-57.835 76.458-67.227 8.9842-2.151 38.057-2.4301 47.178-0.4528 23.047 4.996 43.146 15.69 57.083 30.373 8.5416 8.9984 11.999 13.927 16.702 23.807 15.204 31.944 7.4951 68.173-20.023 94.108-12.673 11.944-28.991 20.715-47.262 25.405-13.127 3.3692-36.76 4.3313-49.078 1.998zm10.446-41.761c4.4729-3.9875 8.4095-7.6286 8.748-8.0914 0.33853-0.46277 3.4323 2.7997 6.875 7.25 3.4427 4.4503 6.5719 8.0914 6.9538 8.0914 0.82182 0 16.828-16.174 20.287-20.5 2.7275-3.411 6.7685-9.9113 6.7685-10.888 0-0.35844-5.4935 3.0287-12.208 7.5269l-12.208 8.1786-15.669-16.667-5.208 4.9377c-2.8644 2.7158-6.8762 6.4638-8.9152 8.329l-3.7072 3.3913-5.7928-4.3309c-12.025-8.9904-13.825-10.338-14.997-11.231-0.91385-0.6958-0.99812-0.23312-0.34926 1.9176 3.5282 11.695 15.704 29.335 20.248 29.335 0.57244 0 4.7004-3.2625 9.1733-7.25zm-20.133-33.672c12.598-6.2426 21.05-18.69 23.022-33.907 1.1613-8.9607 0.20365-13.695-4.0517-20.032-3.5762-5.3249-11.621-11.373-18.965-14.258-7.0008-2.7504-22.005-3.6863-30.233-1.8859-12.698 2.7785-24.208 10.521-28.639 19.264-2.2873 4.5137-2.5162 5.9779-2.21 14.138 0.41156 10.97 3.1877 17.538 11.048 26.138 9.5683 10.469 19.565 14.668 33.793 14.195 8.4076-0.27965 10.274-0.69971 16.234-3.6529zm-22.792-4.5361c-16.29-3.0414-29.942-15.938-31.167-29.442-0.73299-8.0836 0.29063-12.536 3.8016-16.534 2.7355-3.1155 11.686-9.5651 13.274-9.5651 0.37173 0-5e-3 1.63-0.83755 3.6221-2.2389 5.3585-1.9675 17.089 0.55108 23.821 5.1395 13.737 22.063 17.8 31.345 7.5253 3.3211-3.6761 7.8805-12.292 9.1218-17.238 0.33524-1.3357-0.45116-5.1724-1.8502-9.0266-1.876-5.1683-2.1188-6.7035-1.0602-6.7035 2.4091 0 9.4477 7.2025 12.042 12.323 6.8658 13.549-0.85303 32.427-16.016 39.171-6.5757 2.9244-11.627 3.4631-19.206 2.0481zm120.71 4.653c14.473-6.9725 23.964-22.955 23.801-40.081-0.16382-17.219-18.337-31.114-40.695-31.114-16.12 0-30.803 5.8112-38.24 15.134-12.08 15.143-5.2772 40.509 14.218 53.019 8.5719 5.5006 13.983 6.9363 24.76 6.5699 8.2627-0.28093 10.367-0.74055 16.155-3.529zm-21.155-4.3534c-8.6269-1.327-19.064-6.9708-24.807-13.414-10.091-11.321-11-26.949-2.0404-35.049 3.422-3.0934 10.807-7.7514 11.381-7.1779 0.27104 0.27104-0.1881 2.1224-1.0203 4.1142-1.7718 4.2406-1.9735 14.487-0.39684 20.166 1.6158 5.8201 6.2486 11.984 10.589 14.089 2.3833 1.1556 5.9193 1.8232 9.5051 1.7947 8.7028-0.0694 12.681-3.1606 17.758-13.798 2.2174-4.646 4.0317-9.3692 4.0317-10.496 0-1.1269-0.89977-4.4162-1.9995-7.3096-1.0997-2.8934-1.9997-5.5982-2-6.0107-2e-3 -3.1778 8.9737 4.6496 12.805 11.166 2.2919 3.8986 2.6733 5.6298 2.5515 11.584-0.15657 7.657-1.573 11.774-6.2776 18.246-7.0786 9.7384-17.682 14.002-30.079 12.095zm-116.48-99.92-4.7066-6.1888 2.4064-2.4064c2.6838-2.6839 5.3247-2.3366 6.3304 0.83235 0.34447 1.0853 1.9315 3.4598 3.5266 5.2766 1.5952 1.8168 3.018 4.3747 3.1618 5.6843 0.22016 2.0052-0.23367 2.4291-2.8753 2.6859-2.8054 0.2727-3.6339-0.34886-7.8434-5.8839zm127.48 3.7165c0-0.74937 1.3938-3.1119 3.0974-5.25 1.7036-2.1381 3.7401-5.125 4.5257-6.6375 1.7966-3.4592 4.8082-3.5476 6.9982-0.20532 1.5996 2.4413 1.5673 2.6546-0.7948 5.25-1.3542 1.4879-3.2295 3.9428-4.1673 5.4553-1.3971 2.2532-2.4237 2.75-5.6821 2.75-2.69 0-3.977-0.4409-3.977-1.3625zm-113.48-7.3417c-0.98036-2.6377-2.9388-6.9662-4.3521-9.6189-1.9677-3.6933-2.3218-5.216-1.5119-6.5 1.7973-2.8493 5.5175-2.0368 8.0793 1.7646 2.1774 3.2311 6.918 16.774 6.124 17.495-0.19995 0.18153-1.757 0.62822-3.4602 0.99265-2.9684 0.63514-3.1705 0.46389-4.8791-4.1332zm103.76 2.9012c-2.7088-1.7213 3.768-17.896 8.3712-20.906 1.9243-1.2582 2.3622-1.1879 4.0793 0.65518 1.9044 2.0441 1.8921 2.1273-1.224 8.3187-1.7312 3.4397-3.656 7.7123-4.2773 9.4946-1.1408 3.2726-4.0367 4.2884-6.9492 2.4377z" fill="#fb5e02"/></svg>
