<?xml version="1.0" encoding="UTF-8"?>
<svg width="345.85" height="345.85" version="1.1" viewBox="0 0 345.85 345.85" xmlns="http://www.w3.org/2000/svg"><g transform="translate(-16.031 -23.465)"><g transform="translate(0 7.3826)"><path d="m167.56 354.33c-0.12685-0.12685-11.491-0.34271-25.253-0.47968-13.762-0.13696-26.103-0.39008-27.423-0.56248s-15.144-0.46089-30.72-0.6411c-23.928-0.27683-29.738-0.25409-37.466 0.14666-5.0304 0.26087-10.197 0.62332-11.481 0.80544-2.1698 0.30773-2.4507 0.27712-3.9738-0.43298-2.5883-1.2067-4.2064-2.568-4.9992-4.2057-1.0286-2.1248-0.77341-5.7061 0.77525-10.879 1.5789-5.2745 2.105-8.3057 2.105-12.129 0-1.7919 0.20469-4.908 0.45486-6.9246 0.25017-2.0167 0.5441-6.0427 0.65317-8.9467 0.25992-6.9205 1.6568-25.722 2.2586-30.4 0.26038-2.024 0.84012-6.272 1.2883-9.44 0.64248-4.5413 0.87547-7.9266 1.1012-16 0.15749-5.632 0.50652-12.256 0.77562-14.72 0.2691-2.464 0.49354-5.4986 0.49874-6.7436 0.0062-1.4902 0.2895-3.185 0.82899-4.96 0.68033-2.2384 0.86714-3.7122 1.0999-8.677 0.26881-5.7335 0.32278-6.0772 1.3064-8.3182 0.95386-2.1733 1.0435-2.69 1.2759-7.3518 0.21175-4.2479 0.42898-5.6909 1.4213-9.4418 1.0378-3.9225 1.1817-4.9387 1.2615-8.9076 0.06394-3.179 0.3017-5.4557 0.81875-7.84 0.55479-2.5583 0.733-4.4289 0.7469-7.84 0.02067-5.0714-0.11085-5.6812-2.3991-11.124-2.0032-4.7645-6.2253-17.157-6.7515-19.817-0.36244-1.8319-0.50344-2.0698-1.5195-2.5636-1.1221-0.54529-7.4593-1.5765-13.074-2.1273-4.4216-0.43383-5.6618-1.6302-4.9457-4.771 0.1903-0.83459 0.70718-3.1828 1.1486-5.2182 0.44143-2.0354 1.4922-5.8229 2.3349-8.4166 1.3756-4.2334 1.4936-4.8229 1.1541-5.762-0.61032-1.6878-0.47306-2.2017 1.4316-5.3598 0.99542-1.6505 4.1423-7.6089 6.993-13.241 7.7255-15.263 14.371-27.128 18.447-32.938 2.4944-3.5552 7.8698-9.0566 11.337-11.603 3.1134-2.2863 7.308-4.4894 11.048-5.8023 1.5153-0.53198 5.3313-2.1118 8.48-3.5106 6.2705-2.7857 11.887-4.8254 18.625-6.7632 7.2319-2.0801 9.4258-2.5671 16.006-3.5533 3.4617-0.51878 9.4574-1.5409 13.324-2.2713 6.5338-1.2344 7.1661-1.3013 8.96-0.94831 1.2004 0.2362 4.6522 0.35991 9.1301 0.32721 4.5309-0.03309 7.7931 0.08536 8.8 0.31952 1.4496 0.33713 4.5446 1.1792 19.04 5.1801 5.4447 1.5028 6.3142 1.9488 28.855 14.801l1.1751 0.66999 1.7049-0.75167c1.9021-0.83861 7.4006-2.5778 11.305-3.5758 3.367-0.86066 9.3917-1.1452 13.478-0.63663 9.6164 1.1968 22.885 6.1382 30.933 11.52 7.6069 5.0866 16.387 15.623 21.212 25.456 4.2269 8.6131 6.1992 17.493 5.6862 25.6-0.21879 3.458 0.72935 23.977 1.1437 24.751 0.18161 0.33935 2.8898 2.0582 6.0182 3.8196 9.5758 5.3916 11.568 6.291 25.688 11.598 8.2842 3.1138 11.022 4.3558 14.4 6.5322 7.2398 4.6645 11.652 6.2251 19.964 7.0606 7.1272 0.71638 7.8857 1.2288 7.8345 5.2935-0.0183 1.4524-0.20678 2.6666-0.48218 3.1055-0.44693 0.71235-0.51052 0.71843-5.4843 0.52362l-5.0322-0.19709-10.56 1.7766c-14.564 2.4503-26.303 3.846-41.6 4.946-2.3954 0.17225-3.2 0.34109-3.2 0.67147 0 0.24275 1.584 1.4496 3.52 2.6818s6.8188 4.55 10.851 7.3729c4.0319 2.8228 8.2742 5.6482 9.4275 6.2786 2.6741 1.4617 3.6782 2.8394 3.4679 4.7584-0.27915 2.5481-1.3532 3.2039-7.1061 4.3386-6.7754 1.3364-7.5623 1.4508-17.92 2.6045-16.067 1.7896-20.078 2.5737-38.24 7.4752-6.424 1.7337-13.322 3.5558-15.329 4.0491-4.433 1.0898-4.8313 1.4143-4.8313 3.9356 0 7.517 3.1607 30.064 6.5582 46.784 0.62587 3.08 1.4309 7.904 1.7889 10.72 0.35802 2.816 1.5751 10.049 2.7046 16.073 2.7957 14.911 3.1778 17.179 4.3116 25.588 1.3251 9.8277 3.1256 21.55 3.7014 24.098 0.32331 1.4308 0.93105 2.759 1.9471 4.2552 1.3045 1.9211 1.4354 2.2667 1.1203 2.9583-0.30358 0.66629-0.20446 1.0625 0.66444 2.6558 0.9883 1.8123 1.0038 1.8993 0.48078 2.6976-0.72757 1.1104-2.6038 1.3536-10.317 1.3373-4.3632-9e-3 -6.8481-0.16499-8.8-0.55156-1.6668-0.3301-4.1449-0.52944-6.4-0.51481-2.1142 0.0137-5.4781-0.2409-7.9059-0.5984-2.7322-0.40232-4.7582-0.5415-5.7317-0.39375-0.82817 0.12568-5.0465 0.15703-9.374 0.0697-4.3276-0.0874-11.252 9e-3 -15.388 0.21351-7.3112 0.36203-20.08 1.804-24.32 2.7463-2.1922 0.48725-6.4527 0.64546-6.844 0.25414zm-101.41-201c5.6174-2.8244 9.2822-4.9662 10.497-6.1346 0.704-0.67727 2.072-1.5393 3.04-1.9156s1.8918-0.8129 2.0529-0.97018c0.17325-0.16918 0.43786-0.0877 0.64788 0.19953 0.31427 0.42979 0.51422 0.41423 1.7423-0.13558 1.1291-0.50551 1.29-0.67552 0.86463-0.91356-0.40045-0.2241 0.80693-0.91431 5.1649-2.9525 8.4634-3.9584 11.629-5.7811 23.977-13.805 16.584-10.777 17.972-11.501 22.056-11.501 1.8059 0 2.1626 0.12009 3.8619 1.3002 6.8246 4.7394 15.645 10.432 17.84 11.514 5.2428 2.5839 9.6834 2.8046 18.723 0.93024 1.656-0.34338 3.6099-0.62432 4.3419-0.62432 6.1173 0 13.398-6.255 15.677-13.468 0.76219-2.4128 0.81033-2.9729 0.81033-9.4286 0-3.7749 0.108-6.8602 0.24-6.8561 0.132 4e-3 2.112 0.29305 4.4 0.64224 2.288 0.34919 6.392 0.71749 9.12 0.81844 2.728 0.10096 5.34 0.3268 5.8045 0.50187 0.46446 0.17506 1.6848 1.2794 2.7119 2.4542 3.0297 3.4652 8.7737 9.6733 10.792 11.664 1.3287 1.3105 2.7254 2.26 4.8027 3.265 7.9731 3.8575 14.751 4.2056 21.581 1.1084 6.3789-2.8923 9.8403-7.6545 10.221-14.061 0.39602-6.6727-2.9754-16.256-8.3752-23.807-4.41-6.1667-9.3032-11.116-14.418-14.584-4.3479-2.9478-7.4887-4.2229-12.32-5.0017-1.672-0.26951-4.0214-0.6964-5.2209-0.94865-2.9955-0.62993-5.7429-0.57468-8.6717 0.17438-3.1837 0.81425-5.281 1.9703-7.0974 3.9123-2.8322 3.0278-3.8644 6.7663-2.8535 10.335 1.5921 5.6202 3.1285 11.702 2.9909 11.839-0.0862 0.08621-3.8896-0.56166-8.452-1.4397-4.5624-0.87805-8.393-1.5972-8.5126-1.5981-0.11952-8.94e-4 -0.38552 0.80866-0.59112 1.799l-0.37381 1.8006-1.7042-2.9145c-1.9765-3.3801-8.3565-12.344-12.203-17.145-3.6623-4.5714-5.2316-5.6775-10.835-7.6368-1.7578-0.61469-4.996-1.9188-7.196-2.8981-4.7154-2.0989-7.7797-2.8988-10.184-2.6583-1.0967 0.10973-2.9208 0.73746-5.12 1.7619-1.879 0.87529-4.7954 2.1705-6.481 2.8783-7.4657 3.1349-12.393 7.3698-15.148 13.019-2.0611 4.2269-2.132 4.8665-1.3788 12.442 0.73543 7.3968 0.68288 7.764-1.2633 8.8282-0.498 0.2723-3.2095 1.8059-6.0255 3.4081s-6.191 3.4507-7.4999 4.1078c-1.3089 0.65715-5.4587 3.1328-9.2217 5.5015-8.101 5.0993-11.686 7.0326-18.214 9.824-7.3326 3.135-10.597 4.2863-16.522 5.8263-4.3336 1.1265-5.6976 1.619-6.8926 2.489-0.81942 0.59654-1.8138 1.1846-2.2098 1.3067-0.396 0.12214-0.72 0.43212-0.72 0.68885s1.0167 4.5156 2.2592 9.4642c2.1568 8.5896 2.853 12.404 2.8583 15.663 0.0038 2.3087 1.7526 4.0866 3.407 3.4637 0.37649-0.14176 1.8249-0.83113 3.2188-1.5319zm97.377-41.789c-5.5172-1.6733-6.3481-2.2584-12.278-8.6463-4.5644-4.9166-10.485-12.458-11.882-15.134-1.295-2.4814-1.3294-5.5159-0.09-7.9259 1.1067-2.1519 3.6335-4.4509 6.2585-5.6945 2.1208-1.0047 2.2198-1.0192 6.9515-1.0192 4.1391 0 5.1305 0.10329 7.2 0.75015 5.3935 1.6858 10.217 4.8255 15.551 10.122 4.8628 4.8288 7.6323 9.0224 9.0619 13.722 0.80629 2.6503 0.91828 6.6397 0.20306 7.2333-0.25538 0.21194-0.5603 1.0254-0.67761 1.8077-0.24994 1.6667-1.2659 3.3093-2.3853 3.8564-0.43604 0.2131-2.179 0.77539-3.8732 1.2496-2.5507 0.71386-3.4311 0.82444-5.12 0.64305-3.0846-0.33129-3.5583-0.3454-4.5996-0.13699-0.63088 0.12627-2.1119-0.15722-4.32-0.82691zm84-4.0435c-2.9255-0.43879-6.1281-1.4955-8.96-2.9563-1.9278-0.99445-3.278-2.0342-5.4675-4.2102-3.4707-3.4494-5.4859-6.4294-8.5539-12.65-1.9596-3.9729-2.2797-4.8572-2.2265-6.1509 0.10965-2.6685 1.4592-4.3004 5.5648-6.7291 2.4042-1.4222 4.2202-1.5877 5.9169-0.53912 0.83958 0.51889 1.3643 0.61664 2.4423 0.45498 1.2199-0.18294 1.5152-0.09248 2.6484 0.81143 0.70152 0.55952 1.9797 1.3755 2.8404 1.8132 0.90704 0.46128 2.5214 1.82 3.84 3.2319 1.2513 1.3398 3.1464 3.3071 4.2113 4.3718 1.494 1.4936 2.3894 2.8258 3.92 5.8316 1.091 2.1427 1.9837 4.2421 1.9837 4.6655 0 0.69619-1.6204 6.8722-2.6116 9.9536-0.66072 2.0541-2.1366 2.6131-5.5484 2.1014zm-116-34.109c1e-3 -1.5638 0.7899-3.3221 1.8793-4.1898 0.72958-0.58106 4.1995-2.3629 4.1995-2.1565 0 0.09365-1.368 1.908-3.04 4.032l-3.04 3.8617zm22.719-8.827-1.12-0.71721 2.4-0.19977c4.3432-0.36151 6.08-0.32205 6.08 0.13814 0 0.55563-3.0413 1.4988-4.8281 1.4972-0.91443-7.75e-4 -1.8065-0.25389-2.5319-0.71841z" fill="#452d8c"/><path d="m151.1 54.188c-1.0967 0.10973-2.92 0.73728-5.1191 1.7617-1.879 0.87529-4.7949 2.1711-6.4805 2.8789-7.4657 3.1349-12.394 7.3705-15.148 13.02-2.0611 4.2269-2.1321 4.8657-1.3789 12.441 0.73543 7.3967 0.68249 7.764-1.2637 8.8281-0.498 0.2723-3.2094 1.8061-6.0254 3.4082-2.816 1.6021-6.1911 3.4503-7.5 4.1074-1.3089 0.65715-5.4577 3.1333-9.2207 5.502-8.101 5.0993-11.686 7.0328-18.215 9.8242-7.3326 3.135-10.597 4.2861-16.521 5.8262-4.3336 1.1265-5.6975 1.6183-6.8926 2.4883-0.81941 0.59654-1.8149 1.1865-2.2109 1.3086-0.396 0.12214-0.71875 0.43077-0.71875 0.6875s1.0172 4.5162 2.2598 9.4648c2.1568 8.5896 2.852 12.404 2.8574 15.662 0.0026 1.6058 0.83502 3.016 2.0469 3.4688 0.79314 0.29633 1.2112 0.15574 4.5781-1.5371 5.6174-2.8244 9.2835-4.9664 10.498-6.1348 0.704-0.67727 2.0711-1.5378 3.0391-1.9141 0.968-0.37631 1.8917-0.81343 2.0527-0.97071 0.17325-0.16918 0.43843-0.088 0.64844 0.19922 0.31427 0.42979 0.51415 0.41505 1.7422-0.13476 1.1291-0.50551 1.2906-0.67603 0.86523-0.91407-0.40045-0.2241 0.80612-0.9149 5.1641-2.9531 8.4634-3.9584 11.63-5.7804 23.979-13.805 16.584-10.777 17.971-11.502 22.055-11.502 1.8059 0 2.162 0.12066 3.8613 1.3008 6.8246 4.7394 15.646 10.432 17.842 11.514 5.2428 2.5839 9.6832 2.804 18.723 0.92969 1.656-0.34338 3.6098-0.62305 4.3418-0.62305 6.1173 0 13.397-6.2559 15.676-13.469 0.76223-2.4128 0.81054-2.972 0.81054-9.4277 0-3.7749 0.10824-6.8614 0.24024-6.8574s2.1124 0.29339 4.4004 0.64258 6.3911 0.71741 9.1191 0.81836c2.728 0.10096 5.3402 0.32689 5.8047 0.50196 0.46446 0.17506 1.6858 1.2803 2.7129 2.4551 3.0297 3.4652 8.7728 9.6736 10.791 11.664 2.1878 2.1578 6.1117 4.2024 10.611 5.5312 5.2369 1.5466 10.69 1.1469 15.773-1.1582 9.8631-4.4721 12.581-12.986 8.1914-25.658-4.5658-13.18-17.179-26.872-28.277-30.697-0.97196-0.33498-3.1346-0.8301-4.8066-1.0996-1.672-0.26951-4.0212-0.69502-5.2207-0.94726-5.9924-1.2602-12.296 0.37269-15.77 4.0859-2.8321 3.0278-3.8644 6.7656-2.8535 10.334 1.5921 5.6202 3.1278 11.702 2.9902 11.84-0.0862 0.08621-3.8888-0.5614-8.4512-1.4395-4.5624-0.87805-8.3922-1.5968-8.5117-1.5977-0.11952-8.94e-4 -0.38619 0.80848-0.59179 1.7988l-0.375 1.8008-1.7031-2.9141c-1.9765-3.3801-8.3567-12.345-12.203-17.146-3.6623-4.5714-5.2309-5.6773-10.834-7.6367-1.7578-0.61469-4.9973-1.9192-7.1973-2.8984-4.7154-2.0989-7.7796-2.8987-10.184-2.6582zm8.7012 9.2129c1.2538-0.0039 1.8027 0.122 1.8027 0.38086 0 0.23186-0.76756 0.6648-1.707 0.96094-2.39 0.75336-4.288 0.69206-5.6524-0.18164l-1.1211-0.7168 2.4004-0.20117c1.9001-0.15816 3.3021-0.23918 4.2774-0.24219zm-22.236 3.625c0.0256-0.0019 0.0391 0.0027 0.0391 0.01563 0 0.09365-1.3671 1.9073-3.0391 4.0312l-3.041 3.8633 2e-3 -1.5488c1e-3 -1.5638 0.7895-3.3218 1.8789-4.1895 0.68398-0.54474 3.7763-2.1441 4.1602-2.1719zm14.92 6.0938c4.1391 0 5.1297 0.10509 7.1992 0.75195 5.3935 1.6858 10.217 4.8249 15.551 10.121 4.8628 4.8288 7.6328 9.0213 9.0625 13.721 0.80629 2.6503 0.91834 6.6408 0.20312 7.2344-0.25538 0.21194-0.56042 1.0244-0.67773 1.8066-0.24994 1.6667-1.2654 3.3104-2.3848 3.8574-0.43604 0.2131-2.1788 0.77584-3.873 1.25-2.5507 0.71385-3.4322 0.82397-5.1211 0.64258-1.1218-0.12048-2.3998-0.24314-2.8398-0.27344s-1.2318 0.0311-1.7598 0.13672c-1.0318 0.20651-6.7746-1.3762-8.8008-2.4258-1.8651-0.96612-3.6514-2.5836-7.7969-7.0488-4.5644-4.9166-10.486-12.457-11.883-15.133-1.295-2.4814-1.3293-5.5159-0.0898-7.9258 1.1067-2.1519 3.6347-4.4518 6.2598-5.6953 2.1208-1.0047 2.2196-1.0195 6.9512-1.0195zm78.979 0.4668c0.82724-0.0096 1.5917 0.21702 2.334 0.67578 0.83958 0.51888 1.3654 0.61673 2.4434 0.45508 1.2199-0.18294 1.5152-0.09336 2.6484 0.81055 0.70151 0.55952 1.9791 1.3748 2.8398 1.8125 0.90704 0.46128 2.5212 1.8205 3.8398 3.2324 1.2513 1.3398 3.146 3.3064 4.2109 4.3711 1.494 1.4936 2.3894 2.8262 3.9199 5.832 1.091 2.1427 1.9844 4.2427 1.9844 4.666 0 0.69619-1.6202 6.8717-2.6113 9.9531-0.21845 0.67914-0.70052 1.4335-1.0703 1.6758-1.4227 0.93221-4.3656 0.75033-8.6387-0.53515-4.1036-1.2345-7.0708-3.028-10.268-6.2051-3.4707-3.4494-5.4847-6.4302-8.5527-12.65-1.9596-3.9729-2.2798-4.8567-2.2266-6.1504 0.10965-2.6685 1.4588-4.2998 5.5644-6.7285 1.3524-0.80001 2.5184-1.2025 3.582-1.2148z" fill="#fefefe"/></g></g></svg>
