<?xml version="1.0" encoding="UTF-8"?>
<svg width="425" height="425" version="1.1" xmlns="http://www.w3.org/2000/svg"><path d="m52.57 413.91c4.3266-91.175 9.0563-139.24 16.126-163.87 1.1386-3.9673 1.252-5.561 0.41536-5.8399-0.63283-0.21094-5.9137-3.2718-11.735-6.8019-14.708-8.9187-28.362-19.374-38.387-29.394-8.2893-8.2852-16.988-19.856-16.988-22.596 0-3.4508 28.8-32.733 41.387-42.079 9.0136-6.6932 20.629-13.464 28.113-16.388 3.3-1.2892 6.3613-2.6379 6.8029-2.9971 0.44159-0.35917 1.4224-5.3317 2.1797-11.05 4.52-34.134 16.778-67.759 34.047-93.397 4.0752-6.05 8.7297-12.561 10.343-14.469l2.934-3.4695 83.196 81.679 84.205-82.687 3.922 4.4736c7.7948 8.8911 20.345 28.782 27.429 43.474 11.822 24.515 17.075 42.715 20.926 72.5l0.5819 4.5 7.5471 2.9078c16.627 6.4059 37.916 20.326 50.773 33.197 7.2709 7.2793 16.613 19.729 16.613 22.138 0 5.3416-23.662 32.092-37.884 42.829-8.247 6.226-24.78 15.428-27.718 15.428-1.8408 0-1.9059-1.065 2.0782 34 6.2111 54.666 10.622 101.74 13.001 138.75l0.59458 9.25h-100.37c-55.204 0-127.44 0.2987-160.52 0.66377l-60.151 0.66377z" fill="#e9e9e9"/><path d="m82.583 249c-0.30836-1.925-0.56561-5.8017-0.57166-8.615l-0.011006-5.115-7.6139-3.3197c-13.438-5.859-34.386-19.277-34.386-22.026 0-0.45902 3.6475-6.2913 8.1055-12.961 22.938-34.315 50.19-61.647 72.262-72.473 15.122-7.4168 25.178-9.0319 37.173-5.9696 26.092 6.6613 41.33 28.222 40.287 57.005-0.43526 12.016-4.0129 19.612-13.351 28.347-10.59 9.906-24.944 15.77-56.476 23.073-18.295 4.2371-28.12 9.0548-37.676 18.474l-7.1811 7.079zm82.179-41.522c6.3239-1.878 14.806-9.3199 18.069-15.853 4.8333-9.6777 5.4788-30.779 1.2734-41.625-6.4702-16.686-19.471-25-39.094-25-12.064 0-18.079 2.0735-24.76 8.5352-5.6766 5.4906-6.4874 7.4648-3.0657 7.4648 3.8135 0 10.659 4.0152 14.729 8.6392 9.0451 10.276 9.425 25.559 0.94503 38.021-2.9234 4.2962-8.3671 8.3402-11.227 8.3402-6.3407 0 6.9678 9.1476 16.868 11.594 7.0736 1.7481 20.179 1.6901 26.262-0.11621zm168.53 37.757c-9.4769-9.5531-18.393-13.937-37.08-18.231-31.421-7.2203-46.072-13.198-56.689-23.13-9.3747-8.7696-12.912-16.313-13.368-28.509-0.63858-17.08 4.8342-32.315 15.434-42.964 14.248-14.314 34.241-18.759 53.41-11.873 24.613 8.841 54.755 37.331 80.94 76.504 4.4831 6.7068 7.9841 12.695 7.7799 13.308-0.90958 2.7288-15.387 12.28-27.942 18.434l-13.722 6.726-0.12801 6.5c-0.22506 11.427-0.43204 11.505-8.6362 3.2346zm-23.694-40.14c6.477-2.9415 9.8818-8.8789 12.918-22.527 1.0677-4.7991 1.5617-10.482 1.3378-15.39-0.30247-6.6311-0.93528-8.9568-4.28-15.729-4.9783-10.08-12.581-17.863-21.948-22.466-5.87-2.8846-8.1807-3.4401-15.832-3.8059-6.4105-0.30649-10.713 0.0489-15.127 1.2494-6.2998 1.7136-15.914 7.5554-18.271 11.102-1.2531 1.8855-1.0952 1.9581 3.5543 1.6328 6.2499-0.43717 10.659 1.6475 16.348 7.729 11.331 12.113 11.45 31.415 0.26419 42.601-4.2549 4.2549-11.672 7.1738-14.991 5.8999-0.86462-0.33179-1.572-0.30937-1.572 0.04982 0 1.4148 16.897 8.5602 23.5 9.9376 10.564 2.2037 28.96 2.0515 34.099-0.28213zm-89.345 31.934c-5.9105-2.6829-12.811-7.5462-19.073-13.442-4.935-4.6464-12.18-13.551-12.18-14.971 0-0.89211 37.814-0.75962 38.239 0.13398 0.19615 0.4125 0.18051 7.3875-0.0347 15.5-0.27296 10.287-0.74122 14.743-1.5476 14.728-0.63593-0.0121-3.0672-0.88937-5.4027-1.9495z" fill="#020202"/></svg>
