<?xml version="1.0" encoding="UTF-8"?>
<svg width="340" height="340" version="1.1" xmlns="http://www.w3.org/2000/svg"><path d="m24.335 322.25c1.3173-36.157 6.3797-74.999 12.946-99.333l2.3162-8.5832-6.3823-6.8704c-19.197-20.665-29.562-49.163-27.834-76.525 2.5124-39.785 28.908-75.874 68.118-93.131 6.7838-2.9857 20.997-7.3761 27-8.34 6.7182-1.0788 7.2467-1.3979 10.369-6.2608 6.2309-9.7046 15.49-17.376 25.419-21.06 10.765-3.9942 26.053-2.2685 32.453 3.6633 2.3726 2.1988 2.4809 2.7304 1.8356 9.013-0.37712 3.672-0.93646 9.2128-1.243 12.313l-0.5573 5.6366 8.862 4.7598c4.8741 2.6179 15.57 8.7028 23.769 13.522l14.907 8.7622 4.7049-3.2364c2.5877-1.78 7.3545-4.2889 10.593-5.5753 3.2385-1.2864 8.4628-3.6139 11.61-5.1722 7.755-3.8404 9.9303-3.6564 15.301 1.2941 16.459 15.171 14.61 44.334-4.0224 63.435-3.3 3.383-6.9477 6.778-8.106 7.5444-1.8978 1.2557-2.0286 1.9372-1.323 6.8935 0.43065 3.025 0.81585 8.5375 0.856 12.25 0.0402 3.7125 0.36702 6.75 0.72638 6.75 0.35935 0 2.9925-2.1375 5.8514-4.75 12.733-11.635 23.698-18.71 35.226-22.729 13.395-4.6695 26.915-2.9945 34.613 4.2882 3.5776 3.3846 7.9658 12.025 9.7468 19.191 1.8966 7.6316 1.6576 27.421-0.46512 38.5-6.7906 35.441-25.044 73.616-49.808 104.17l-5.8084 7.1654 0.93088 12.335c0.51198 6.784 1.2301 18.072 1.5958 25.085l0.6649 12.75h-255.51z" fill="#756e63"/><path d="m56.731 187.75c-4.5398-14.08-6.7356-22.713-6.7133-26.394 0.01326-2.1873 1.9817-4.962 8.4109-11.856 7.2637-7.7885 8.6411-8.8513 10.233-7.8951 1.4897 0.89499 1.9637 2.8899 2.4949 10.5 0.71872 10.297 3.4757 23.987 7.3296 36.395 1.3665 4.3999 2.4914 8.5622 2.4996 9.2497 0.01105 0.92023-2.7079 1.25-10.306 1.25h-10.321zm30.6 10.459c-1.8517-1.1516-5.2302-10.619-8.8174-24.709-3.1513-12.377-5.4098-27.5-4.1072-27.5 0.33478 0 5.7602 3.4309 12.056 7.6243l11.448 7.6243 1.0904 5.6257c0.59972 3.0942 2.6513 11.207 4.559 18.028s3.3499 12.496 3.2047 12.611c-0.84715 0.66737-18.465 1.2976-19.434 0.69522zm85.17-41.324c-2.2-0.42295-6.3062-0.79492-9.125-0.82662-8.1647-0.0918-11.239-1.0579-13.508-4.2451-1.1466-1.6102-1.9061-3.1063-1.6879-3.3245 0.72502-0.72502 7.189-0.70269 19.157 0.0662 12.772 0.82049 15.542 1.9362 13.639 5.4923-1.5288 2.8566-4.0266 3.6929-8.4751 2.8377zm-21.167-15.104c-3.0365-4.7268-3.1764-5.6034-0.98102-6.1462 10.302-2.5468 33.416-2.8424 37.898-0.48474 2.0273 1.0664 2.3245 4.3604 0.5 5.5412-0.6875 0.44496-7.6674 0.87236-15.511 0.94979-7.8435 0.0774-15.796 0.42872-17.672 0.78068-2.2835 0.42839-3.683 0.21658-4.2338-0.64077zm-89.855-14.582c-6.2396-2.1575-31.735-18.931-31.202-20.528 0.59698-1.79 50.108-1.5861 54.473 0.22431 1.7875 0.74124 3.25 1.9689 3.25 2.728s-2.2003 2.9611-4.8895 4.8931c-2.6892 1.932-6.794 5.9813-9.1216 8.9983-2.3276 3.0171-4.9649 5.4709-5.8605 5.4529-0.89561-0.018-3.888-0.81398-6.6498-1.769zm70.45-0.98999c-9.2029-3.439-13.531-7.1395-16.961-14.503-1.8937-4.0649-3.3661-9.0862-3.6653-12.5-1.8972-21.643 27.826-43.593 50.082-36.983 7.8804 2.3402 15.616 12.618 15.616 20.747 0 2.1534-0.13292 2.1209-3.5348-0.86602-3.1135-2.7337-4.2498-3.1036-9.5332-3.1036-13.364 0-24.903 10.884-24.926 23.512-7e-3 4.0272 13.629 19.17 17.766 19.728 2.5052 0.3381 2.2784 0.5881-2.7715 3.0546-6.5737 3.2108-14.993 3.5595-22.072 0.91429zm-96.614-31.958c-3.6103-13.711 4.0143-28.037 20.029-37.631 6.9818-4.1828 18.288-7.0222 24.098-6.0521 11.869 1.9816 20.558 11.014 20.558 21.371 0 2.0809-0.09655 2.1089-1.7103 0.49507-0.94069-0.94069-3.1762-2.3228-4.9679-3.0714-13.442-5.6164-33.518 10.118-30.877 24.198l0.64544 3.4405h-27.053z" fill="#f2e960"/></svg>
