<?xml version="1.0" encoding="UTF-8"?>
<svg width="336.26" height="336.26" version="1.1" xmlns="http://www.w3.org/2000/svg"><path d="m44.557 335.38c0.08239-0.484 0.52203-3.544 0.97698-6.8 5.0453-36.109 15.738-74.625 27.741-99.923 1.0654-2.2456 1.8784-4.1182 1.8067-4.1614-0.07175-0.0432-1.4265-0.70312-3.0105-1.4666-7.2865-3.5118-14.787-10.001-19.133-16.553-6.4092-9.6629-9.2757-19.942-9.2741-33.256 0.0024-20.221 6.0579-38.073 17.964-52.96 2.9387-3.6745 7.9489-8.706 11.598-11.647 5.9359-4.7848 14.64-10.009 20.605-12.366 1.408-0.55654 2.6606-1.1051 2.7835-1.219s-0.19943-2.2951-0.7164-4.8471c-3.9859-19.676-4.6552-41.111-1.7358-55.59 1.9733-9.7869 5.8356-18.088 11.169-24.005 3.5267-3.9125 9.6029-7.553 15.379-9.2143 25.187-7.244 40.169 14.349 42.748 61.61 0.38596 7.0721 0.20783 20.719-0.32996 25.28-0.15566 1.32-0.25788 2.4256-0.22716 2.4569 0.0307 0.0313 2.4071 0.10331 5.2808 0.16l5.225 0.10307-0.2085-1.28c-0.48106-2.9532-0.74399-15.801-0.47075-23.002 0.62255-16.406 2.747-29.97 6.3964-40.838 1.3764-4.0989 4.3971-10.386 6.5151-13.56 3.1338-4.6965 7.7482-8.6829 12.191-10.531 6.6198-2.7544 15.45-2.1061 23.51 1.7261 11.499 5.4677 18.519 16.469 21.42 33.566 1.082 6.3771 1.4167 12.234 1.2138 21.244-0.25186 11.185-1.3839 20.972-3.728 32.227-0.52438 2.5179-0.92242 4.5894-0.88453 4.6033 10.535 3.8714 21.078 10.592 29.235 18.634 11.268 11.11 19.017 25.581 22.155 41.372 3.4343 17.282 2.0581 32.896-3.9942 45.317-4.7438 9.7358-13.006 17.998-22.724 22.726-1.6512 0.80327-3.0022 1.5214-3.0022 1.5959s0.55792 1.2482 1.2398 2.6083c11.777 23.49 23.592 65.987 28.668 103.11 0.2767 2.024 0.57925 4.148 0.67232 4.72l0.16923 1.04h-247.37z" fill="#4fb747"/><path d="m210.95 199.44c-4.3971-0.87251-8.7171-2.5581-16.331-6.3723-8.8088-4.4125-12.3-6.6137-15.052-9.4911-3.8741-4.0498-4.7598-6.5968-4.5328-13.035 0.17409-4.9365 0.77583-7.5882 2.7464-12.102 2.7418-6.2811 6.8901-12.083 12.998-18.18 9.0667-9.0502 19.569-14.582 28.653-15.093 2.7948-0.15705 3.8176-0.0746 6.08 0.49003 5.885 1.4687 11.444 5.0908 18.255 11.895 4.4726 4.468 7.0308 8.0264 7.9829 11.104 2.5878 8.3658 1.0984 19.629-4.0262 30.447-3.4588 7.3016-5.7173 9.8963-12.612 14.49-4.3278 2.8834-8.4686 4.9146-11.651 5.7153-3.0296 0.76222-9.015 0.82548-12.509 0.13222zm9.8794-7.9772c1.5198-0.26502 3.6626-0.82678 4.7619-1.2483 1.0993-0.42157 2.2837-0.86088 2.6321-0.97624 0.50978-0.16884 0.19764-0.4325-1.6-1.3515-7.6307-3.9009-13.011-9.5885-14.93-15.782-1.83-5.9072-0.38278-16.217 3.1879-22.71 1.6472-2.9955 3.3776-4.5325 9.7437-8.655 3.1213-2.0212 5.6739-3.7469 5.6724-3.8349-6e-3 -0.33441-4.1178-2.9459-5.305-3.369-1.6472-0.58709-4.66-0.58354-7.0153 8e-3 -2.3188 0.58261-8.549 3.6201-12.467 6.0784-6.8076 4.271-12.484 9.4287-15.824 14.379-2.441 3.6174-4.9946 9.126-5.7961 12.503-0.53446 2.2521-0.6584 3.6175-0.56849 6.2629 0.10703 3.1489 0.19784 3.5506 1.3127 5.8063 1.5839 3.2049 3.952 5.3984 8.125 7.5263 5.6338 2.8728 11.195 4.7476 16.278 5.4878 3.1098 0.45287 8.8258 0.39218 11.793-0.1252zm-90.999 3.0259c-1.32-0.16221-3.912-0.57601-5.76-0.91956s-4.512-0.78761-5.92-0.9868c-8.1806-1.1573-11.629-2.3844-17.377-6.1827-5.1736-3.419-9.1556-7.2966-11.55-11.247-3.8023-6.2738-3.6638-14.586 0.43891-26.348 2.8817-8.2613 5.5031-12.781 9.0359-15.578 1.9855-1.5722 8.5692-4.9615 12.699-6.5377 8.7666-3.3455 17.194-4.4076 23.062-2.9066 5.6354 1.4413 9.9146 4.3097 16.346 10.957 4.7512 4.9109 7.1478 8.112 9.5746 12.789 2.5725 4.9577 3.4292 7.9427 3.6113 12.583 0.16952 4.3193-0.2696 7.1468-1.9124 12.314-3.4318 10.794-11.086 19.281-19.523 21.648-2.0682 0.58005-9.4331 0.82103-12.726 0.4164zm7.3215-8.704c-0.98973-1.9464-2.6857-4.3624-5.9483-8.4737-3.2974-4.1552-5.2566-7.4264-6.3767-10.647-2.2425-6.4484-1.2594-14.056 2.6527-20.528 2.8452-4.7065 7.7428-9.2559 11.022-10.238 0.68681-0.20578 1.2488-0.47825 1.2488-0.60551 0-0.75442-4.7663-3.4129-7.6581-4.2713-5.169-1.5345-13.489 0.12219-20.693 4.1204-2.6384 1.4643-7.0644 5.7708-9.048 8.8037-3.1153 4.7633-6.1114 12.161-6.7999 16.79-1.3494 9.0724 4.4261 18.082 14.581 22.745 6.1526 2.8256 10.409 3.5884 20.265 3.6316l7.4465 0.0326z" fill="#010201"/></svg>
