<?xml version="1.0" encoding="UTF-8"?>
<svg width="337" height="337" version="1.1" xmlns="http://www.w3.org/2000/svg"><path d="m58.043 335.5c0.02399-0.55 0.50541-3.025 1.0698-5.5 1.0489-4.5995 2.2623-11.226 3.8454-21 1.8952-11.701 4.7433-24.6 5.9105-26.769 0.67155-1.2477 1.1806-4.1727 1.1312-6.5-0.04938-2.3273 0.367-6.0314 0.92528-8.2314s1.5261-6.475 2.1507-9.5 1.961-8.425 2.9698-12c1.0088-3.575 2.1054-8.3 2.437-10.5 0.3316-2.2 1.2357-6.025 2.009-8.5 1.5628-5.0014 4.0307-14.867 5.6285-22.5 0.57564-2.75 1.684-5.7104 2.4629-6.5787 0.77898-0.86831 1.4163-2.5737 1.4163-3.7898s0.9-3.9752 2-6.1314c2.6703-5.2342 2.5522-6.1559-1.25-9.7555-3.8361-3.6317-10.055-10.612-22.457-25.208-2.086-2.455-5.8178-6.6398-8.2928-9.2997s-6.075-6.8763-8-9.3699-4.7375-5.8808-6.25-7.5272c-1.5125-1.6464-2.75-3.3622-2.75-3.8129s-1.4625-2.1105-3.25-3.6883c-5.4023-4.7687-11.748-15.826-13.808-24.06-1.5119-6.0446-0.16676-16.197 2.4993-18.863 0.85703-0.85703 1.5703-1.8636 1.585-2.2368 0.0147-0.37321 1.7597-2.5688 3.8778-4.8792 3.1578-3.4445 5.358-4.6843 12.223-6.8879 4.6047-1.478 9.7222-3.2986 11.372-4.0457 1.65-0.74715 4.4625-1.6413 6.25-1.9871 1.7875-0.34576 3.25-0.97232 3.25-1.3924s1.6875-1.08 3.75-1.4666c3.2918-0.61704 10.556-2.7985 22.25-6.6819 1.925-0.63926 6.425-1.7801 10-2.5353 3.575-0.75515 8.3-1.8165 10.5-2.3586 2.2-0.5421 5.8-1.2233 8-1.5138 2.2-0.29047 5.575-0.98231 7.5-1.5374s9.125-1.6692 16-2.4758c33.208-3.8958 31-3.4899 31-5.7003 0-5.2527 11.813-23.717 15.173-23.717 0.51974 0 0.70072-0.39521 0.40219-0.87825s0.74567-1.1359 2.3204-1.4509c1.5748-0.31496 3.5055-1.2149 4.2904-1.9998 2.1085-2.1085 7.2142-2.9412 13.084-2.1338 4.1679 0.57323 5.8192 1.4009 8.386 4.2032 1.7579 1.9192 3.7169 4.9002 4.3534 6.6245 0.63641 1.7243 1.6076 3.9773 2.1582 5.0068 0.55059 1.0294 0.85056 4.4044 0.66658 7.5l-0.33449 5.6283 9 1.4019c12.504 1.9478 26.97 1.8326 31.872-0.25375 2.3137-0.98482 6.5846-1.6482 10.612-1.6482 5.4448 0 7.7228 0.52831 11.858 2.75 6.8541 3.6827 15.967 12.706 18.432 18.25 2.7401 6.1634 3.5354 19.773 1.4494 24.803-0.84344 2.0336-2.1124 5.2364-2.8199 7.1174-0.7075 1.881-3.6751 5.8087-6.5946 8.7283-5.7979 5.7979-6.6292 8.8966-3.8361 14.298 1.7066 3.3001 4.5278 23.363 4.5278 32.2 0 3.3238-1.3856 15.739-3.0792 27.588-2.9141 20.39-3.2162 27.505-1.5611 36.766 0.29488 1.65 1.0494 7.275 1.6768 12.5 0.62734 5.225 1.8006 14.225 2.6073 20s1.891 16.8 2.4096 24.5 1.6005 21.65 2.4042 31c0.80371 9.35 1.592 23.525 1.7518 31.5l0.29053 14.5-124.75 0.5c-82.848 0.33206-124.74 0.16411-124.71-0.5z" fill="#f2f2f2"/><path d="m156.57 161.51c-4.766-1.698-9.1245-4.7838-12.893-9.1278l-2.82-3.2511-6.68 3.4289c-8.8197 4.5273-12.191 5.0866-17.783 2.9508-4.5092-1.7221-11.47-9.0185-12.899-13.521-0.96934-3.0541-2.2953-2.4575-7.7331 3.4794-5.5801 6.0923-7.6953 7.1708-10.803 5.5078-2.3875-1.2777-6.4663-9.852-9.9802-20.98-1.3026-4.125-2.7459-8.0136-3.2073-8.6413s-2.9561-1.4588-5.5438-1.8468c-7.0132-1.0517-20.124-9.2579-18.636-11.665 2.9855-4.8306 68.182 9.2817 141.73 30.679 32.188 9.3642 31.53 9.1389 29.173 9.9915-1.1 0.39798-3.8296 1.5694-6.0657 2.6031-5.2715 2.4369-7.9581 2.3511-19.434-0.6205-11.659-3.019-11.167-3.0154-10.429-0.0748 0.51328 2.0451-0.14993 2.9848-4.231 5.9947-4.5351 3.3448-12.727 6.6354-16.271 6.5362-0.86268-0.0241-3.3359-0.67358-5.496-1.4432zm10.71-9.8749c3.1673-1.3406 7.4369-5.2523 6.6222-6.0671-0.66065-0.66065-63.349-16.571-65.292-16.571-2.16 0-1.7196 1.7363 2.9297 11.55 4.0839 8.6201 6.8667 10.581 11.724 8.2607 1.7787-0.84969 5.7911-3.6296 8.9165-6.1776 3.1254-2.548 6.4597-4.6327 7.4096-4.6327s4.3357 2.4883 7.5241 5.5295c5.3091 5.064 12.488 9.3941 15.666 9.4485 0.70516 0.0121 2.7302-0.59093 4.5-1.34zm-73.86-18.871c2.5177-2.8781 4.5775-5.5195 4.5775-5.8699s-2.5875-1.1521-5.75-1.7817c-3.1625-0.62954-6.7531-1.4131-7.9791-1.7413l-2.2291-0.59667 1.5678 5.2792c2.3245 7.8275 3.2369 9.9431 4.2882 9.9431 0.52096 0 3.0071-2.3548 5.5248-5.2328zm158.27 14.5c-4.8067-3.713-5.7494-4.9336-5.4958-7.1157 0.40234-3.4626 2.6887-3.765 5.8948-0.77969 1.4238 1.3258 3.9828 3.1314 5.6866 4.0124 3.9224 2.0284 4.5696 3.1032 3.2987 5.4779-1.7633 3.2947-3.4186 3.0134-9.3842-1.5949zm12.81-9.3589c-2.75-1.6109-6.6875-3.4454-8.75-4.0767-3.3756-1.0332-3.75-1.4882-3.75-4.5569 0-2.7736 0.32624-3.3144 1.75-2.9012 0.9625 0.27933 3.55 0.98522 5.75 1.5686 4.9667 1.3171 11.452 4.9873 12.89 7.2944 0.84718 1.3593 0.65096 2.1555-0.90412 3.6684-1.9653 1.9121-2.0385 1.9016-6.9861-0.99663zm-65.601-9.2828c-11.589-4.142-19.167-14.946-19.212-27.389-0.0302-8.4107 2.5406-14.185 9.2467-20.77 6.8811-6.7568 12.487-10.232 20.362-12.624 14.129-4.2916 27.27 0.9951 31.463 12.658 3.0796 8.5653 1.7017 21.208-3.3162 30.428-3.4584 6.3543-11.558 14.436-17.058 17.022-5.0916 2.3934-15.743 2.7283-21.486 0.67576zm17.847-9.1632c4.999-2.0887 7.0152-4.0842 10.065-9.9619 5.0646-9.7593 2.8684-22.017-4.8979-27.338-9.6907-6.6398-28.479 3.2279-30.56 16.05-0.92706 5.7128 0.0705 7.8188 7.376 15.572 6.1012 6.4752 7.1866 7.2164 10.567 7.2164 2.0722 0 5.4243-0.69216 7.449-1.5381zm-167.37-24.373c-2.5336-1.5449-3.5981-3.3814-5.6495-9.7463-1.3902-4.3134-2.3213-8.1801-2.0691-8.5926 0.66702-1.091 5.158-0.91805 7.4063 0.28518 1.1057 0.59174 1.9343 2.0864 1.9343 3.4893 0 1.3498 0.89977 4.8214 1.9995 7.7148 3.3626 8.8472 2.4586 10.557-3.6213 6.8496zm78.356-2.1184c-4.5528-1.1434-10.296-4.1247-13.873-7.2012-5.7191-4.9196-10.287-18.954-8.4945-26.097 0.514-2.0479 1.5516-2.7035 5.68-3.5889 8.0563-1.7278 7.9665-1.7797 6.329 3.6612-0.78534 2.6095-1.1752 5.8952-0.86624 7.3017 0.3089 1.4064 3.5957 5.7964 7.3041 9.7555 6.6166 7.064 6.8352 7.1983 11.714 7.1946 8.157-0.0061 15.036-5.3359 17.959-13.914 1.9286-5.6603 1.9284-12.151-7.1e-4 -16.768-0.83222-1.9918-1.3418-3.7927-1.1324-4.0021 0.77215-0.77216 13.003-2.389 14.302-1.8906 3.2325 1.2404 0.88285 17.66-3.8594 26.97-2.6365 5.176-10.24 13.197-15.347 16.19-4.709 2.7597-13.835 3.8651-19.715 2.3882zm143.47-6.907c-5.3655-2.5036-5.916-3.0649-11.175-11.392-6.6152-10.474-6.5451-18.604 0.22678-26.317 4.2931-4.8896 9.8016-7.3931 17.729-8.0577 5.6756-0.47582 7.5388-0.21694 11.161 1.5508 11.392 5.5595 13.8 21.238 5.388 35.086-5.9512 9.7968-14.625 13.191-23.331 9.1288zm-80.209-33.815c-5.2334-2.6144-7.3277-7.7461-7.4224-18.187-0.0926-10.218 1.1091-12.448 10.012-18.577 4.755-3.2738 6.6014-3.972 10.356-3.9163 10.317 0.15331 16.025 9.8195 11.68 19.781-0.7559 1.7331-1.8772 4.991-2.4918 7.2398-2.3203 8.4899-9.668 15.414-16.352 15.41-1.2552-8.55e-4 -3.8571-0.78836-5.7821-1.75z" fill="#d30654"/></svg>
