<?xml version="1.0" encoding="UTF-8"?>
<svg width="334.67" height="334.67" version="1.1" xmlns="http://www.w3.org/2000/svg" xmlns:xlink="http://www.w3.org/1999/xlink"><defs><linearGradient id="a" x1="92.851" x2="300.12" y1="331.92" y2="2.5589" gradientUnits="userSpaceOnUse"><stop stop-color="#989a9d" offset="0"/><stop stop-color="#4d4d4f" offset=".14"/><stop stop-color="#dadbdc" offset=".76"/><stop stop-color="#8a8c8f" offset="1"/></linearGradient></defs><path d="m93.766 325c3.798-33.249 4.3875-113.83 0.93535-127.86l-1.5241-6.1935-12.194-4.2583c-24.44-8.5343-44.456-20.925-59.875-37.064-9.6494-10.1-20.534-26.678-19.517-29.728 0.26497-0.79493 8.6134-4.8468 18.552-9.0041l18.07-7.5588 17.867-16.561c27.071-25.093 49.441-42.059 60.27-45.712 2.3746-0.80099 4.5008-1.6007 4.725-1.7771 0.22417-0.17642-2.6123-7.0666-6.3032-15.311-3.6909-8.2449-6.4395-15.43-6.108-15.966 1.4735-2.3842 32.457-4.6697 62.67-4.6228 33.743 0.052364 46.432 1.47 66.902 7.4741l9.5688 2.8066 9.7646-4.0215c18.435-7.5922 42.463-10.956 44.289-6.1998 1.5279 3.9815 0.79347 18.557-1.1198 22.224l-1.9127 3.6667h5.8119c3.1965 0 6.761 0.36419 7.9209 0.80932 4.6199 1.7728 0.91061 21.757-6.903 37.191-3.3414 6.6001-3.3662 6.8929-2.4908 29.333 3.108 79.665 19.626 203.64 31.124 233.6 0.54116 1.4102-21.712 1.7302-120.33 1.7302h-120.99z" fill="url(#a)"/><path d="m129.12 280.95-3.547-2.952 0.73989-17.697 0.73988-17.697-6.8595-6.3063c-6.1526-5.6564-6.8595-6.8794-6.8595-11.867 0-10.892 9.7011-17.455 23.67-16.014 9.0815 0.9373 17.133 5.9868 19.827 12.434 3.4069 8.1538-0.87342 14.952-11.673 18.539-7.535 2.5027-7.5966 2.5759-8.652 10.275-0.79199 5.7782-0.73568 5.8884 3.0104 5.8939 5.7901 8e-3 13.817 1.7529 13.817 3.0027 0 2.3621-4.5677 4.711-10.485 5.3917-5.8033 0.6676-6.2073 0.97233-6.5946 4.9742-0.39868 4.1194-0.28267 4.2257 3.4454 3.1565 2.2208-0.63691 4.812-0.57255 6.1061 0.15167 1.2365 0.69196 3.4883 0.8645 5.0041 0.38342 1.9015-0.60352 3.5882 0.0187 5.4405 2.0068 1.4765 1.5848 2.3511 3.215 1.9436 3.6225-1.2848 1.2848-18.65 5.7516-22.165 5.7014-1.8492-0.0264-4.9584-1.3764-6.9092-3zm12.21-52.947c3.2372-4.5463 3.1384-10.36-0.21172-12.457-1.5806-0.98928-3.8303-0.85387-7.849 0.47245-4.3399 1.4323-6.067 2.8969-7.5217 6.3785-1.652 3.9538-1.6333 4.9085 0.1495 7.6294 3.8167 5.825 10.465 4.9532 15.433-2.0237zm8.174 1.6612c1.6585-2.1147 1.6113-2.1619-0.5034-0.50341-1.2833 1.0065-2.3333 2.0565-2.3333 2.3333 0 1.0974 1.0949 0.39107 2.8367-1.8299zm-17.503-34.733c0-2.0389 3.2176-4.2667 6.1626-4.2667 4.7277 0 25.766-7.5982 31.446-11.357 2.8544-1.889 5.5434-4.3559 5.9755-5.482 1.0173-2.651-6.0051-39.649-8.0586-42.457-1.4385-1.9673-2.2518-1.9667-9.9574 7e-3 -7.7738 1.9915-9.4395 1.9822-22.646-0.12745-19.232-3.0722-35.579-3.8752-41.679-2.0475-6.9534 2.0833-12.587-0.0266-11.286-4.2267 0.5071-1.6369 0.85477-5.1451 0.77259-7.7958-0.13104-4.2269 0.79326-5.7026 7.5161-12 4.216-3.9492 11.586-10.93 16.377-15.512 9.2425-8.84 34.451-24.274 39.711-24.313 3.9544-0.02919 3.903-3.2595-0.21936-13.795-1.7706-4.5251-3.6305-10.233-4.133-12.684-0.77519-3.7812-0.56271-4.3875 1.4017-4 3.6029 0.71068 11.138 19.533 16.196 40.457 2.4818 10.267 8.6919 34.896 13.8 54.732 5.1083 19.836 9.2877 37.94 9.2877 40.231 0 2.4745-1.3253 5.7404-3.2648 8.0454-3.7596 4.468-15.923 11.271-26.91 15.051-7.5462 2.5967-20.492 3.5694-20.492 1.5402zm-38.667-71.743c0-0.28821-0.9-0.52402-2-0.52402s-2 0.58117-2 1.2915 0.9 0.94612 2 0.52401c1.1-0.4221 2-1.0033 2-1.2915zm64.752 0.50325c0.53409-0.535-1.4794-3.6311-4.4743-6.8803-8.3648-9.0748-9.2424-20.468-2.2796-29.596 2.8123-3.6871 3.295-5.4087 2.582-9.2094-1.0193-5.4332-2.0827-5.62-11.303-1.9855-13.691 5.3965-22.61 15.882-22.61 26.58 0 6.866 1.451 9.7997 8.489 17.163l5.511 5.766 11.557-0.43265c6.3565-0.23796 11.994-0.87039 12.528-1.4054zm-131.25 21.158c-1.7379-0.98096-6.68-5.924-10.982-10.984-7.3452-8.6394-9.4209-12.534-6.6799-12.534 0.6478 0 1.4916-1.2 1.8752-2.6667 1.043-3.9883 9.7805-3.6369 15.558 0.62567 2.4544 1.8108 8.2431 4.5504 12.864 6.0881 10.305 3.4294 12.28 6.9027 6.3549 11.178-2.1064 1.52-5.0602 4.0747-6.564 5.677-3.5716 3.8055-8.4856 4.8402-12.426 2.6162z" fill="#080a0a"/></svg>
