<?xml version="1.0" encoding="UTF-8"?>
<svg width="53.628" height="53.628" version="1.1" viewBox="0 0 53.628 53.628" xmlns="http://www.w3.org/2000/svg"><path d="m11.06 51.768c-0.12357-0.6587-0.1422-4.569-0.04141-8.6897 0.16474-6.7344 0.64674-11.555 1.7358-17.36l0.20765-1.1069-2.6429-0.52067c-4.6316-0.91248-7.5729-2.8335-9.2619-6.0492-0.7476-1.4234-0.87096-2.0724-0.88079-4.6345-0.010593-2.7616 0.077579-3.1657 1.2068-5.5303 1.4015-2.935 3.5718-5.2993 5.7483-6.262 4.6945-2.0766 15.312-1.0737 19.089 1.803 2.2838 1.7397 3.0319 3.4435 3.1872 7.2583 0.07224 1.7752 0.1754 3.2276 0.22924 3.2276 1.1081 0 5.7074 1.202 6.978 1.8236 2.2489 1.1003 3.8038 3.5326 4.5701 7.1488 0.17146 0.80915 0.33051 0.87415 2.5885 1.0578 2.6137 0.21261 4.9881 0.776 7.9656 1.89l1.9087 0.71412-1.029 1.172c-1.9159 2.1821-5.0736 4.7031-7.6748 6.1274-3.9105 2.1411-3.678 1.8933-3.0922 3.2952 0.51265 1.2269 3.6378 12.645 4.0232 14.7l0.21264 1.1334h-34.802z" fill="#db1d34"/><path d="m20.852 39.016c1.2488-1.0389 4.0735-2.4006 3.9023-1.8812-0.26267 0.79674-2.9342 2.5893-3.8421 2.578l-0.88461-0.01101zm-4.6313-2.7457c0-0.58834 0.54603-0.7505 3.4759-1.0322 1.9295-0.18554 2.2466-0.14871 1.8948 0.22011-0.39006 0.409-3.4454 1.2157-4.7914 1.2651-0.31862 0.01169-0.57931-0.19216-0.57931-0.45299zm12.359-5.0321c-1.8287-0.64808-4.2945-3.2825-4.6008-4.9154-0.49152-2.6201 1.7255-6.2247 4.1649-6.7718 0.99255-0.2226 1.0606-0.2947 0.49035-0.51973-0.7629-0.30107-2.1517-1.4887-2.1517-1.8401 0-0.4484 1.0409-0.63749 1.6664-0.30272 1.0981 0.5877 8.0883 7.3077 8.3747 8.051 0.35635 0.92492-0.2784 3.7849-1.0697 4.8198-0.35926 0.46984-1.4024 1.0423-2.5548 1.402-2.2882 0.71426-2.5097 0.7182-4.3193 0.07687zm4.0122-2.8111c-0.26503-0.75117-0.48187-2.509-0.48187-3.9062 0-1.5345-0.15729-2.6977-0.39724-2.9377-0.54412-0.54412-2.4174-0.49937-3.547 0.08473-1.4939 0.77254-2.7041 4.0025-2.2209 5.9276 0.28102 1.1197 2.8294 2.0787 5.7367 2.1589l1.3922 0.0384zm-7.5305-3.6787c-0.07918-0.41178-0.14697-0.15282-0.15065 0.57545-0.0037 0.72828 0.06111 1.0652 0.14397 0.74869 0.08286-0.3165 0.08586-0.91236 0.0067-1.3241zm-11.61-7.3614c-0.3395-0.25714-0.79563-0.81102-1.0136-1.2309-0.218-0.41983-0.6559-1.1592-0.97313-1.643-0.37867-0.57754-0.45689-0.95378-0.22775-1.0954 0.52088-0.32192 0.94799 0.0571 1.679 1.4899 0.36213 0.70984 0.95586 1.4498 1.3194 1.6444 0.72718 0.38917 0.90425 1.3297 0.2472 1.313-0.22759-0.0058-0.69157-0.22091-1.0311-0.47805zm1.5571-1.9114c-1.3618-1.5247-2.1999-4.4006-1.0809-3.709 0.34688 0.21439 2.9548 3.9832 2.9548 4.2702 0 0.48404-1.2838 0.09961-1.874-0.56115zm7.0377-1.1884c-0.094514-0.15293-0.338-1.6798-0.54107-3.3931-0.40218-3.3931-1.4421-6.1608-2.8794-7.6633-0.47712-0.49879-0.79584-0.97855-0.70826-1.0661 0.08758-0.087579 0.88852 0.022591 1.7799 0.24482 2.4247 0.60453 2.9851 1.9626 3.6583 8.8658l0.17953 1.8411 2.3518-0.02039c2.6865-0.02329 3.3886 0.55206 1.3608 1.1152-1.5066 0.41836-4.9588 0.46884-5.2016 0.07605z" fill="#2d1e20"/></svg>
