<?xml version="1.0" encoding="UTF-8"?>
<svg width="5.0157mm" height="4.3622mm" version="1.1" viewBox="0 0 5.0157 4.3622" xml:space="preserve" xmlns="http://www.w3.org/2000/svg"><g transform="translate(-137.85 -162.16)"><g stroke-width=".026458"><path d="m141.11 164.44c-0.078 0-0.13018 0.0431-0.16034 0.0794-0.0566 0.068-0.0868 0.16854-0.0865 0.28125 0.10001-0.0815 0.18812-0.1778 0.27993-0.27781 0.0196-0.0217 0.0394-0.0434 0.0595-0.0648-0.032-0.0119-0.063-0.018-0.0926-0.018m-1.5073 0.0251c0.0564 0.0508 0.10715 0.10557 0.15689 0.15928 0.0606 0.0651 0.1188 0.12806 0.18415 0.1815 1e-3 -0.10716-0.0286-0.2077-0.0852-0.27861-0.045-0.0558-0.10213-0.0865-0.1614-0.0865-0.0309 0-0.0627 8e-3 -0.0944 0.0243m0.76438 1.9005c-0.84402-0.66781-1.6515-1.3428-2.2506-2.2513l-0.1008-0.15346 0.26908 0.0574c0.13388 0.028 0.2704 0.0564 0.39423 0.10054-0.0921-0.18653-0.20135-0.42889-0.20955-0.70485l-3e-3 -0.10583 0.10107 0.0323c0.13837 0.0442 0.26035 0.11483 0.37438 0.21855 0.0175-0.52573 0.313-0.8927 0.61939-1.2242l0.0445-0.0481 0.0534 0.0376c0.30215 0.21167 0.52255 0.52837 0.6723 0.96705h0.1233c0.16219-0.38894 0.37624-0.71146 0.63712-0.95991l0.046-0.0439 0.0511 0.0386c0.40693 0.30824 0.64479 0.75406 0.66834 1.2422 0.0992-0.0894 0.23018-0.20002 0.3892-0.23019l0.0982-0.0185-0.01 0.0992c-0.0241 0.25506-0.0923 0.48657-0.20743 0.70141 0.1442-0.0492 0.29977-0.0855 0.45905-0.12038l0.1487-0.0331-0.0648 0.13785c-0.19315 0.41116-0.53446 0.74004-0.86466 1.0581l-0.15399 0.14922c-0.39449 0.38683-0.79534 0.74137-1.1914 1.0538l-0.0466 0.0368" fill="#e4543d" style="mix-blend-mode:multiply"/><path d="m139.59 162.19-0.0889 0.0963c-0.21695 0.23521-0.55483 0.60113-0.626 1.1292-0.09-0.0635-0.18521-0.11086-0.28945-0.1442l-0.20215-0.0646 6e-3 0.21194c7e-3 0.2196 0.0725 0.41645 0.14553 0.58261-0.0794-0.0201-0.16061-0.037-0.24078-0.0537l-0.0884-0.0188-0.35851-0.077 0.20162 0.30612c0.6051 0.91784 1.4174 1.597 2.2667 2.2693l0.0929 0.0733 0.0931-0.0733c0.39767-0.31406 0.80063-0.67045 1.1978-1.0591 0.0505-0.0495 0.1016-0.0987 0.15293-0.14843 0.33523-0.32305 0.68157-0.65669 0.88106-1.0803l0.12965-0.27596-0.29766 0.0656c-0.10266 0.0225-0.20399 0.0458-0.30242 0.0725 0.0757-0.17886 0.12224-0.36856 0.14182-0.57309l0.0185-0.1987-0.19605 0.037c-0.12198 0.0233-0.22596 0.0857-0.31354 0.15346-0.0608-0.45243-0.30083-0.86095-0.685-1.1517l-0.1016-0.077-0.0926 0.0878c-0.25796 0.24606-0.47095 0.56171-0.63447 0.93927h-0.0206c-0.15479-0.42783-0.37862-0.74057-0.68236-0.95329zm0.40879 2.7517c0.0683-0.30692-0.0945-0.57336-0.30613-0.57336-0.0696 0-0.14446 0.0288-0.21828 0.0945 0.19182 0.14288 0.31353 0.35534 0.52441 0.4789m0.79798 0c0.2069-0.13468 0.35533-0.32862 0.52414-0.50165-0.0767-0.05-0.14949-0.0725-0.21537-0.0725-0.22463 0-0.36698 0.25982-0.30877 0.57415m0.34211-2.5535c0.36803 0.27887 0.66913 0.74322 0.63843 1.3451 0.10399-0.0706 0.26776-0.27913 0.47837-0.31908-0.0344 0.36062-0.15504 0.635-0.31882 0.86624 0.19156-0.0971 0.42439-0.15266 0.66119-0.20505-0.21696 0.46143-0.62944 0.81915-1.0033 1.1853-0.37756 0.36989-0.77999 0.72814-1.1859 1.0486-0.83106-0.65776-1.6423-1.3359-2.2341-2.2339 0.23786 0.0511 0.48551 0.0918 0.66119 0.20505-0.0915-0.20505-0.28522-0.50482-0.29607-0.86624 0.20691 0.0661 0.35428 0.19208 0.47837 0.34184-0.0606-0.62442 0.28601-1.0353 0.5932-1.3679 0.3212 0.22543 0.52784 0.56674 0.66092 0.98055h0.22781c0.15452-0.3855 0.36248-0.71729 0.63871-0.98055" style="mix-blend-mode:multiply"/></g></g></svg>
