<?xml version="1.0" encoding="UTF-8"?>
<svg width="189.57" height="189.57" version="1.1" xmlns="http://www.w3.org/2000/svg"><path d="m123.13 98.47c-2.95 0-4.92 1.63-6.06 2.99-2.14 2.57-3.28 6.37-3.271 10.64 3.781-3.08 7.091-6.7 10.551-10.47 0.76-0.83 1.52-1.66 2.28-2.48-1.21-0.47-2.38-0.68-3.5-0.68m-56.97 0.94c2.14 1.93 4.06 4 5.94 6.02 2.28 2.47 4.49 4.84 6.95 6.86 0.05-4.04-1.081-7.86-3.21-10.51-1.7-2.12-3.871-3.29-6.1-3.29-1.17 0-2.37 0.32-3.581 0.92m28.901 71.84c-31.92-25.26-62.431-50.76-85.06-85.1l-3.82-5.78 10.121 2.16c5.08 1.05 10.26 2.13 14.96 3.8-3.49-7.05-7.621-16.22-7.931-26.65l-0.12-4 3.82 1.22c5.22 1.67 9.83 4.35 14.14 8.27 0.671-19.88 11.84-33.75 23.411-46.28l1.68-1.82 2.03 1.43c11.41 8 19.74 19.97 25.41 36.54h4.65c6.1205-14.68 14.22-26.87 24.09-36.27l1.74-1.67 1.92 1.46c15.38 11.65 24.38 28.5 25.27 46.95 3.75-3.37 8.7-7.55 14.71-8.69l3.71-0.7-0.361 3.75c-0.92 9.64-3.5 18.39-7.849 26.5 5.45-1.85 11.33-3.22 17.349-4.55l5.63-1.24-2.459 5.22c-7.301 15.54-20.21 27.98-32.69 40l-5.8 5.62c-14.931 14.62-30.08 28.01-45.04 39.83l-1.75 1.39" fill="#e4543d"/><path d="m65.851 13.33-3.35 3.64c-8.21 8.88-20.98 22.71-23.66 42.68-3.41-2.41-7-4.2-10.95-5.45l-7.64-2.44 0.25 8.01c0.25 8.29 2.73 15.74 5.5 22.02-3-0.77-6.08-1.41-9.11-2.03l-3.34-0.72-13.551-2.91 7.62 11.57c22.861 34.7 53.571 60.36 85.671 85.77l3.53 2.77 3.5005-2.77c15.03-11.86 30.27-25.32 45.27-40.02 1.91-1.87 3.84-3.73 5.78-5.6 12.67-12.22 25.77-24.84 33.3-40.84l4.899-10.43-11.25 2.48c-3.89 0.84-7.709 1.73-11.409 2.73 2.839-6.75 4.599-13.93 5.339-21.66l0.7-7.5-7.409 1.39c-4.611 0.88-8.54 3.25-11.85 5.81-2.3-17.11-11.37-32.54-25.891-43.54l-3.84-2.91-3.479 3.32c-9.75 9.31-17.82 21.23-24 35.5h-0.78c-5.85-16.16-14.31-27.98-25.79-36.03zm15.44 104c2.58-11.61-3.56-21.68-11.56-21.68-2.63 0-5.46 1.09-8.25 3.57 7.25 5.39 11.86 13.43 19.81 18.11m30.16 0c7.83-5.09 13.46-12.43 19.819-18.97-2.909-1.89-5.659-2.73-8.129-2.73-8.48 0-13.88 9.81-11.69 21.7m12.94-96.52c13.93 10.54 25.289 28.09 24.129 50.84 3.931-2.66 10.14-10.55 18.08-12.05-1.28 13.62-5.87 24-12.051 32.73 7.241-3.66 16.04-5.77 24.99-7.75-8.2 17.44-23.79 30.96-37.92 44.82-14.27 13.96-29.48 27.52-44.799 39.62-31.43-24.87-62.09-50.5-84.47-84.44 9 1.93 18.38 3.48 25 7.75-3.46-7.75-10.78-19.07-11.19-32.73 7.82 2.5 13.41 7.25 18.09 12.92-2.3-23.6 10.8-39.14 22.41-51.71 12.16 8.52 19.94 21.43 25 37.07h8.5895c5.84-14.57 13.7-27.12 24.14-37.07"/></svg>
