<?xml version="1.0" encoding="UTF-8"?>
<svg width="189.57" height="189.57" version="1.1" xmlns="http://www.w3.org/2000/svg"><path d="m59.281 111.84c0-6.38 5.169-11.55 11.55-11.55h0.05c6.36 0.02 11.51 5.18 11.51 11.55s-5.15 11.53-11.51 11.55h-0.05c-6.38 0-11.55-5.17-11.55-11.55m59.37-11.55h0.039c6.361 0.02 11.51 5.18 11.51 11.55s-5.15 11.53-11.51 11.55h-0.039c-6.38 0-11.56-5.17-11.56-11.55s5.18-11.55 11.56-11.55m50.119-42.21c0-17.26-13.989-31.25-31.249-31.25-17.27 0-31.26 13.99-31.26 31.25 0 0.44 0.02 0.88 0.04 1.31-3.67-0.85-7.4702-1.31-11.391-1.31-0.039 0-0.08 0.01-0.129 0.01l-0.121-0.01c-3.919 0-7.729 0.46-11.389 1.31 0.02-0.43 0.04-0.87 0.04-1.31 0-17.26-14-31.25-31.26-31.25-17.261 0-31.251 13.99-31.251 31.25 0 15.99 12 29.16 27.481 31.02-2.431 5.9-3.791 12.36-3.791 19.15 0 9.13 2.46 17.68 6.71 25.05l-12.05 7.19 4.44 7.43 12.58-7.51c1.35 1.62 2.81 3.15 4.35 4.58l-10.28 10.52 6.19 6.05 10.96-11.22c7.85 5.1 17.21 8.07 27.27 8.07h0.25c10.491 0 20.22-3.23 28.28-8.73l11.6 11.88 6.19-6.05-11.08-11.34c1.44-1.39 2.78-2.87 4.04-4.42l13.7 8.17 4.43-7.43-13.28-7.92c4-7.21 6.29-15.5 6.29-24.32 0-6.79-1.36-13.25-3.8-19.15 15.49-1.86 27.49-15.03 27.49-31.02" fill="#f89b69"/><path d="m59.281 111.84c0-6.38 5.169-11.55 11.55-11.55h0.05c6.36 0.02 11.51 5.18 11.51 11.55s-5.15 11.53-11.51 11.55h-0.05c-6.38 0-11.55-5.17-11.55-11.55zm59.37-11.55h0.039c6.361 0.02 11.51 5.18 11.51 11.55s-5.15 11.53-11.51 11.55h-0.039c-6.38 0-11.56-5.17-11.56-11.55s5.18-11.55 11.56-11.55zm50.119-42.21c0-17.26-13.989-31.25-31.249-31.25-17.27 0-31.26 13.99-31.26 31.25 0 0.44 0.02 0.88 0.04 1.31-3.67-0.85-7.4702-1.31-11.391-1.31-0.039 0-0.08 0.01-0.129 0.01l-0.121-0.01c-3.919 0-7.729 0.46-11.389 1.31 0.02-0.43 0.04-0.87 0.04-1.31 0-17.26-14-31.25-31.26-31.25-17.261 0-31.251 13.99-31.251 31.25 0 15.99 12 29.16 27.481 31.02-2.431 5.9-3.791 12.36-3.791 19.15 0 9.13 2.46 17.68 6.71 25.05l-12.05 7.19 4.44 7.43 12.58-7.51c1.35 1.62 2.81 3.15 4.35 4.58l-10.28 10.52 6.19 6.05 10.96-11.22c7.85 5.1 17.21 8.07 27.27 8.07h0.25c10.491 0 20.22-3.23 28.28-8.73l11.6 11.88 6.19-6.05-11.08-11.34c1.44-1.39 2.78-2.87 4.04-4.42l13.7 8.17 4.43-7.43-13.28-7.92c4-7.21 6.29-15.5 6.29-24.32 0-6.79-1.36-13.25-3.8-19.15 15.49-1.86 27.49-15.03 27.49-31.02z" fill="none" stroke="#000" stroke-width="5.67"/></svg>
