<?xml version="1.0" encoding="UTF-8"?>
<svg width="5.0157mm" height="4.3622mm" version="1.1" viewBox="0 0 5.0157 4.3622" xml:space="preserve" xmlns="http://www.w3.org/2000/svg"><g transform="translate(-137.85 -162.16)"><g transform="translate(118.74 95.268)"><path d="m20.672 69.529c0-0.16907 0.13705-0.30559 0.30559-0.30559h0.0016c0.16801 5.29e-4 0.3048 0.13705 0.3048 0.30559 0 0.16828-0.13679 0.3048-0.3048 0.30533h-0.0016c-0.16854 0-0.30559-0.13652-0.30559-0.30533m1.5711-0.30559h7.94e-4c0.1688 5.29e-4 0.3048 0.13705 0.3048 0.30559 0 0.16828-0.136 0.3048-0.3048 0.30533h-7.94e-4c-0.1688 0-0.30586-0.13652-0.30586-0.30533 0-0.16907 0.13706-0.30559 0.30586-0.30559m1.3261-1.1171c0-0.45667-0.37042-0.82682-0.82682-0.82682-0.45694 0-0.82735 0.37015-0.82735 0.82682 0 0.01191 5.3e-4 0.02328 0.0011 0.03466-0.09684-0.02223-0.19764-0.03466-0.30136-0.03466-5.29e-4 0-0.0021 5.29e-4 -0.0029 5.29e-4 -0.0013 0-0.0024-5.29e-4 -0.0037-5.29e-4 -0.10372 0-0.20426 0.01243-0.3011 0.03466 5.29e-4 -0.01138 0.0011-0.02275 0.0011-0.03466 0-0.45667-0.37042-0.82682-0.82735-0.82682-0.45641 0-0.82682 0.37015-0.82682 0.82682 0 0.42307 0.31803 0.77152 0.7276 0.82074-0.06482 0.15637-0.10081 0.32702-0.10081 0.50694 0 0.24156 0.06535 0.46778 0.1778 0.66252l-0.31882 0.19024 0.11721 0.19659 0.33285-0.19844c0.03598 0.0426 0.07461 0.08334 0.11536 0.12092l-0.27199 0.27834 0.16378 0.16034 0.29025-0.29686c0.20743 0.13467 0.45482 0.21352 0.72099 0.21352h0.0066c0.27781 0 0.53525-0.08546 0.74877-0.23098l0.30665 0.31432 0.16378-0.16034-0.29316-0.30004c0.03784-0.03678 0.07355-0.07594 0.10716-0.11668l0.36195 0.2159 0.11721-0.19659-0.3511-0.20955c0.10583-0.1905 0.16616-0.4101 0.16616-0.6432 0-0.17992-0.03572-0.35057-0.10001-0.50694 0.40958-0.04921 0.72708-0.39767 0.72708-0.82074" fill="#f89b69" stroke-width=".026458" style="mix-blend-mode:multiply"/><path d="m20.672 69.529c0-0.16907 0.13705-0.30559 0.30559-0.30559h0.0016c0.16801 5.29e-4 0.3048 0.13705 0.3048 0.30559 0 0.16828-0.13679 0.3048-0.3048 0.30533h-0.0016c-0.16854 0-0.30559-0.13652-0.30559-0.30533zm1.5711-0.30559h7.94e-4c0.1688 5.29e-4 0.3048 0.13705 0.3048 0.30559 0 0.16828-0.136 0.3048-0.3048 0.30533h-7.94e-4c-0.1688 0-0.30586-0.13652-0.30586-0.30533 0-0.16907 0.13706-0.30559 0.30586-0.30559zm1.3261-1.1171c0-0.45667-0.37042-0.82682-0.82682-0.82682-0.45694 0-0.82735 0.37015-0.82735 0.82682 0 0.01191 5.3e-4 0.02328 0.0011 0.03466-0.09684-0.02223-0.19764-0.03466-0.30136-0.03466-5.29e-4 0-0.0021 5.29e-4 -0.0029 5.29e-4 -0.0013 0-0.0024-5.29e-4 -0.0037-5.29e-4 -0.10372 0-0.20426 0.01243-0.3011 0.03466 5.29e-4 -0.01138 0.0011-0.02275 0.0011-0.03466 0-0.45667-0.37042-0.82682-0.82735-0.82682-0.45641 0-0.82682 0.37015-0.82682 0.82682 0 0.42307 0.31803 0.77152 0.7276 0.82074-0.06482 0.15637-0.10081 0.32702-0.10081 0.50694 0 0.24156 0.06535 0.46778 0.1778 0.66252l-0.31882 0.19024 0.11721 0.19659 0.33285-0.19844c0.03598 0.0426 0.07461 0.08334 0.11536 0.12092l-0.27199 0.27834 0.16378 0.16034 0.29025-0.29686c0.20743 0.13467 0.45482 0.21352 0.72099 0.21352h0.0066c0.27781 0 0.53525-0.08546 0.74877-0.23098l0.30665 0.31432 0.16378-0.16034-0.29316-0.30004c0.03784-0.03678 0.07355-0.07594 0.10716-0.11668l0.36195 0.2159 0.11721-0.19659-0.3511-0.20955c0.10583-0.1905 0.16616-0.4101 0.16616-0.6432 0-0.17992-0.03572-0.35057-0.10001-0.50694 0.40958-0.04921 0.72708-0.39767 0.72708-0.82074z" fill="none" stroke="#000" stroke-miterlimit="10" stroke-width=".15002" style="mix-blend-mode:multiply"/></g></g></svg>
