<?xml version="1.0" encoding="UTF-8"?>
<svg width="5.0157mm" height="4.3622mm" version="1.1" viewBox="0 0 5.0157 4.3622" xml:space="preserve" xmlns="http://www.w3.org/2000/svg"><g transform="translate(-137.85 -162.16)"><g transform="translate(56.182 26.432)" stroke-width=".026458"><path d="m84.821 138.3c-0.0209 0-0.04339 2e-3 -0.06747 6e-3 -0.16722 0.0254-0.22093 0.0812-0.21325 0.22145 0.0082 0.13997 0.12938 0.20267 0.2458 0.20267 0.08228 0 0.15822-0.0307 0.20373-0.082 0.03969-0.0452 0.05583-0.10477 0.04657-0.17674-0.01323-0.10874-0.09181-0.17092-0.21537-0.17092m-1.247 3e-3c-0.01429 0-0.02884 1e-3 -0.04419 3e-3 -0.06958 9e-3 -0.1614 0.0328-0.20426 0.0982-0.03122 0.0471-0.03413 0.11377-0.0093 0.19843 0.03228 0.1106 0.11906 0.13362 0.186 0.13362 0.11483 0 0.23707-0.0683 0.2839-0.15902 0.03413-0.0659 0.02514-0.13652-0.02699-0.20981-0.01191-0.0167-0.07937-0.064-0.18521-0.064m0.62151 1.7148c-0.48445 0-0.94959-0.20214-1.2443-0.5408-0.26167-0.30031-0.36936-0.67892-0.31142-1.0946 0.05847-0.41857 0.28892-0.66489 0.5461-0.89376-0.01984-0.095-0.06112-0.21299-0.10478-0.33681-0.11033-0.31327-0.24738-0.703-0.13838-1.0189 0.06482-0.18786 0.254-0.31406 0.47016-0.31406 0.16246 0 0.31512 0.0725 0.4191 0.19843l0.01138 0.0135 0.0037 0.0175c0.07594 0.3347 0.11536 0.7112 0.11748 1.1197 0.0042 0 0.38047-4e-3 0.39555-4e-3 0.02593-0.13202 0.03387-0.28786 0.04154-0.43921 0.02143-0.43021 0.04604-0.91757 0.5244-0.91942 0.17251 0 0.3003 0.063 0.38285 0.18679 0.26167 0.39317-0.05662 1.266-0.13573 1.4668 0.03942 0.0513 0.08176 0.10134 0.12409 0.15187 0.19024 0.22596 0.38656 0.45959 0.41857 0.84455 0.05133 0.62045-0.30506 1.0851-0.65643 1.3134-0.2495 0.16271-0.54822 0.2487-0.8636 0.2487" fill="#f9e56e" style="mix-blend-mode:multiply"/><path d="m83.503 138.66c-0.0807 0-0.10319-0.0426-0.1143-0.0799-0.0127-0.0429-0.02276-0.1016 0-0.136 0.0209-0.0323 0.0762-0.0558 0.15134-0.0648 0.01217-1e-3 0.02355-2e-3 0.0344-2e-3 0.07461 0 0.12092 0.0302 0.12912 0.0384 0.0418 0.0598 0.02963 0.10107 0.0164 0.12647-0.0336 0.0648-0.13097 0.11827-0.21696 0.11827m1.2838-6e-3c-0.02725 0-0.16378-6e-3 -0.17066-0.13203-0.0048-0.0825-2.64e-4 -0.12039 0.14949-0.14314 0.02011-3e-3 0.03863-5e-3 0.05636-5e-3 0.08625 0 0.13203 0.0347 0.14102 0.10557 0.0061 0.05-0.0032 0.0886-0.02884 0.11747-0.03069 0.0352-0.08731 0.0569-0.14737 0.0569m0.14288-2.9242h-0.002865c-0.54954 2e-3 -0.57838 0.57309-0.59928 0.9906-0.0063 0.12568-0.01296 0.25427-0.02963 0.36777-0.05583 2.7e-4 -0.11483 8e-4 -0.17119 2e-3 -0.03016 8e-4 -0.05953 1e-3 -0.08731 1e-3 -0.0061-0.38497-0.04577-0.7411-0.11853-1.0607l-0.0074-0.0344-0.02275-0.0275c-0.11827-0.1434-0.2921-0.22569-0.47731-0.22569-0.24765 0-0.4654 0.14631-0.54054 0.36433-0.11748 0.34052 0.02434 0.74401 0.13838 1.0681 0.03598 0.10399 0.07117 0.2032 0.09234 0.28602-0.24633 0.22384-0.4781 0.48604-0.5371 0.90937-0.06112 0.43789 0.05292 0.83714 0.32914 1.1546 0.3085 0.35454 0.79507 0.56648 1.3007 0.56648 0.3302 0 0.64347-0.0902 0.90514-0.26088 0.47069-0.30639 0.73528-0.83609 0.68977-1.3824-0.03387-0.40905-0.24738-0.66305-0.43577-0.88715-0.03228-0.0384-0.06456-0.077-0.09578-0.11562 0.10504-0.27464 0.381-1.0925 0.11245-1.496-0.06694-0.10054-0.19791-0.22013-0.44238-0.22013m-1.4266 3.08c0.23257 0 0.50191-0.22781 0.31803-0.48684-0.02593-0.0373-0.11748-0.0958-0.24659-0.0958-0.01667 0-0.0344 1e-3 -0.05292 3e-3 -0.20002 0.0249-0.35163 0.13573-0.27675 0.39185 0.03916 0.13308 0.14393 0.18759 0.25823 0.18759m1.2838-6e-3c0.17595 0 0.35295-0.11536 0.32517-0.34264-0.01667-0.13308-0.11377-0.2368-0.28998-0.2368-0.02461 0-0.05106 2e-3 -0.07911 6e-3 -0.18336 0.028-0.28734 0.1016-0.27649 0.30004 0.01005 0.18309 0.1651 0.27331 0.32041 0.27331m0.14288-2.9242c0.68448 0 0.33655 1.1655 0.15901 1.5901 0.21405 0.28919 0.51409 0.52652 0.55298 0.99139 0.04604 0.55272-0.24738 1.0001-0.6223 1.2443-0.24765 0.1614-0.53552 0.23654-0.82312 0.23654-0.80989 0-1.614-0.5977-1.4817-1.5502 0.05662-0.40454 0.28443-0.63949 0.55324-0.87577-0.05053-0.33496-0.40164-0.93001-0.25321-1.3597 0.05768-0.16722 0.22437-0.26353 0.39873-0.26353 0.12991 0 0.26458 0.0537 0.36142 0.17093 0.07937 0.3511 0.11827 0.74321 0.11562 1.1761 0.0209 1e-3 0.05159 2e-3 0.08811 2e-3 0.09208 0 0.22251-4e-3 0.33602-4e-3 0.03784 0 0.07355 5.3e-4 0.10583 2e-3 0.12991-0.50377-0.07355-1.3578 0.50694-1.3602" style="mix-blend-mode:multiply"/></g></g></svg>
