<?xml version="1.0" encoding="UTF-8"?>
<svg width="189.57" height="189.57" version="1.1" xmlns="http://www.w3.org/2000/svg"><path d="m119.29 109.46c-0.79 0-1.64 0.06-2.55 0.21-6.32 0.96-8.35 3.07-8.06 8.37 0.31 5.29 4.89 7.66 9.29 7.66 3.11 0 5.98-1.16 7.7-3.1 1.5-1.71 2.11-3.96 1.76-6.68-0.5-4.11-3.47-6.46-8.14-6.46m-47.13 0.11c-0.54 0-1.09 0.04-1.67 0.1-2.63 0.33-6.1 1.24-7.72 3.71-1.18 1.78-1.29 4.3-0.35 7.5 1.22 4.18 4.5 5.05 7.03 5.05 4.34 0 8.96-2.58 10.73-6.01 1.29-2.49 0.95-5.16-1.02-7.93-0.45-0.63-3-2.42-7-2.42m23.49 64.81c-18.31 0-35.89-7.64-47.03-20.44-9.89-11.35-13.96-25.66-11.77-41.37 2.21-15.82 10.92-25.13 20.64-33.78-0.75-3.59-2.31-8.05-3.96-12.73-4.17-11.84-9.35-26.57-5.23-38.51 2.45-7.1 9.6-11.87 17.77-11.87 6.14 0 11.91 2.74 15.84 7.5l0.43 0.51 0.14 0.66c2.87 12.65 4.36 26.88 4.44 42.32 0.16 0 14.38-0.14 14.95-0.14 0.98-4.99 1.28-10.88 1.57-16.6 0.81-16.26 1.74-34.68 19.82-34.75 6.52 0 11.35 2.38 14.47 7.06 9.89 14.86-2.14 47.85-5.13 55.44 1.49 1.94 3.09 3.83 4.69 5.74 7.19 8.54 14.61 17.37 15.82 31.92 1.94 23.45-11.53 41.01-24.81 49.64-9.43 6.15-20.72 9.4-32.64 9.4" fill="#f9e56e"/><path d="m69.453 123.1c-3.05 0-3.9-1.61-4.32-3.02-0.48-1.62-0.86-3.84 0-5.14 0.79-1.22 2.88-2.11 5.72-2.45 0.46-0.05 0.89-0.09 1.3-0.09 2.82 0 4.57 1.14 4.88 1.45 1.58 2.26 1.12 3.82 0.62 4.78-1.27 2.45-4.95 4.47-8.2 4.47m48.52-0.23c-1.03 0-6.19-0.24-6.45-4.99-0.18-3.12-0.01-4.55 5.65-5.41 0.76-0.12 1.46-0.18 2.13-0.18 3.26 0 4.99 1.31 5.33 3.99 0.23 1.89-0.12 3.35-1.09 4.44-1.16 1.33-3.3 2.15-5.57 2.15m5.4-110.52h-0.11c-20.77 0.07-21.86 21.66-22.65 37.44-0.24 4.75-0.49 9.61-1.12 13.9-2.11 0.01-4.34 0.03-6.47 0.07-1.14 0.03-2.25 0.05-3.3 0.05-0.23-14.55-1.73-28.01-4.48-40.09l-0.28-1.3-0.86-1.04c-4.47-5.42-11.04-8.53-18.04-8.53-9.36 0-17.59 5.53-20.43 13.77-4.44 12.87 0.92 28.12 5.23 40.37 1.36 3.93 2.69 7.68 3.49 10.81-9.31 8.46-18.07 18.37-20.3 34.37-2.31 16.55 2 31.64 12.44 43.64 11.66 13.4 30.05 21.41 49.16 21.41 12.48 0 24.32-3.41 34.21-9.86 17.79-11.58 27.79-31.6 26.07-52.25-1.28-15.46-9.35-25.06-16.47-33.53-1.22-1.45-2.44-2.91-3.62-4.37 3.97-10.38 14.4-41.29 4.25-56.54-2.53-3.8-7.48-8.32-16.72-8.32m-53.92 116.41c8.79 0 18.97-8.61 12.02-18.4-0.98-1.41-4.44-3.62-9.32-3.62-0.63 0-1.3 0.04-2 0.12-7.56 0.94-13.29 5.13-10.46 14.81 1.48 5.03 5.44 7.09 9.76 7.09m48.52-0.23c6.65 0 13.34-4.36 12.29-12.95-0.63-5.03-4.3-8.95-10.96-8.95-0.93 0-1.93 0.07-2.99 0.23-6.93 1.06-10.86 3.84-10.45 11.34 0.38 6.92 6.24 10.33 12.11 10.33m5.4-110.52c25.87 0 12.72 44.05 6.01 60.1 8.09 10.93 19.43 19.9 20.9 37.47 1.74 20.89-9.35 37.8-23.52 47.03-9.36 6.1-20.24 8.94-31.11 8.94-30.61 0-61-22.59-56-58.59 2.14-15.29 10.75-24.17 20.91-33.1-1.91-12.66-15.18-35.15-9.57-51.39 2.18-6.32 8.48-9.96 15.07-9.96 4.91 0 10 2.03 13.66 6.46 3 13.27 4.47 28.09 4.37 44.45 0.79 0.05 1.95 0.09 3.33 0.09 3.48 0 8.41-0.15 12.7-0.15 1.43 0 2.78 0.02 4 0.06 4.91-19.04-2.78-51.32 19.16-51.41"/></svg>
