<?xml version="1.0" encoding="UTF-8"?>
<svg version="1.1" viewBox="0 0 57 57" xmlns="http://www.w3.org/2000/svg"><path d="m57 0h-8.837l-29.992 29.992-4.076-4.076-1.345-4.034c-0.22-0.663-0.857-1.065-1.55-0.98s-1.214 0.63-1.268 1.327l-0.572 7.438 5.982 5.982-10.35 10.351h-2.718c-1.254 0-2.274 1.02-2.274 2.274v6.452c0 1.254 1.02 2.274 2.274 2.274h6.452c1.254 0 2.274-1.02 2.274-2.274v-3.421l10-10 6.021 6.021 6.866-1.145c0.685-0.113 1.182-0.677 1.21-1.37s-0.422-1.295-1.096-1.464l-3.297-0.824-4.043-4.043 30.339-29.991v-8.489zm-48 54.726c0 0.151-0.123 0.274-0.274 0.274h-6.452c-0.151 0-0.274-0.123-0.274-0.274v-6.452c0-0.151 0.123-0.274 0.274-0.274h6.452c0.151 0 0.274 0.123 0.274 0.274v6.452zm2-6.249v-0.203c0-1.254-1.02-2.274-2.274-2.274h-0.906l8.938-8.938 2.828 2.828-8.586 8.587zm19.942-3.832-3.235 0.54-16.281-16.281 0.292-3.796 0.63 1.89 17.334 17.334 1.26 0.313zm-5.695-7.579-5.661-5.661 29.405-29.405h4.243l-29.405 29.406c-0.391 0.391-0.391 1.023 0 1.414 0.195 0.195 0.451 0.293 0.707 0.293s0.512-0.098 0.707-0.293l29.757-29.758v4.592l-29.753 29.412z" fill="currentColor"/></svg>
